<?xml version="1.0" standalone="no"?>
<!DOCTYPE svg PUBLIC "-//W3C//DTD SVG 1.1//EN" "http://www.w3.org/Graphics/SVG/1.1/DTD/svg11.dtd" >
<svg xmlns="http://www.w3.org/2000/svg" xmlns:xlink="http://www.w3.org/1999/xlink" version="1.1">
<metadata></metadata>
<defs>
<font id="upmaxlight_italic" horiz-adv-x="630" >
<font-face units-per-em="1000" ascent="800" descent="-200" />
<missing-glyph horiz-adv-x="269" />
<glyph unicode="ff" horiz-adv-x="658" d="M103 500h93l14 86q22 134 143 134q42 0 79 -14l-10 -59q-33 16 -74 16q-61 0 -74 -70l-15 -93h266l14 86q22 134 143 134q42 0 79 -14l-10 -59q-33 16 -74 16q-61 0 -74 -70l-15 -93h139l-9 -52h-139l-75 -448h-63l75 448h-266l-75 -448h-63l75 448h-93z" />
<glyph unicode="fi" horiz-adv-x="548" d="M103 500h93l14 86q22 134 143 134q42 0 79 -14l-10 -59q-33 16 -74 16q-61 0 -74 -70l-15 -93h295l-84 -500h-63l75 448h-232l-75 -448h-63l75 448h-93zM506 666q4 19 18.5 31t32.5 12t28.5 -12t6.5 -31q-3 -19 -17.5 -31t-32.5 -12t-28.5 12t-7.5 31z" />
<glyph unicode="fl" horiz-adv-x="549" d="M103 500h93l14 86q22 134 143 134q42 0 79 -14l-10 -59q-33 16 -74 16q-61 0 -74 -70l-15 -93h232l33 200h63l-117 -700h-63l75 448h-232l-75 -448h-63l75 448h-93z" />
<glyph unicode="ffi" horiz-adv-x="877" d="M103 500h93l14 86q22 134 143 134q42 0 79 -14l-10 -59q-33 16 -74 16q-61 0 -74 -70l-15 -93h266l14 86q22 134 143 134q42 0 79 -14l-10 -59q-33 16 -74 16q-61 0 -74 -70l-15 -93h295l-84 -500h-63l75 448h-232l-75 -448h-63l75 448h-266l-75 -448h-63l75 448h-93z M835 666q4 19 18.5 31t32.5 12t28.5 -12t6.5 -31q-3 -19 -17.5 -31t-32.5 -12t-28.5 12t-7.5 31z" />
<glyph unicode="ffl" horiz-adv-x="878" d="M103 500h93l14 86q22 134 143 134q42 0 79 -14l-10 -59q-33 16 -74 16q-61 0 -74 -70l-15 -93h266l14 86q22 134 143 134q42 0 79 -14l-10 -59q-33 16 -74 16q-61 0 -74 -70l-15 -93h232l33 200h63l-117 -700h-63l75 448h-232l-75 -448h-63l75 448h-266l-75 -448h-63 l75 448h-93z" />
<glyph unicode="fft" horiz-adv-x="1025" d="M103 500h93l14 86q22 134 143 134q42 0 79 -14l-10 -59q-33 16 -74 16q-61 0 -74 -70l-15 -93h266l14 86q22 134 143 134q42 0 79 -14l-10 -59q-33 16 -74 16q-61 0 -74 -70l-15 -93h266l23 140h63l-23 -140h139l-9 -52h-139l-56 -332q-11 -70 51 -70q41 0 79 16l-9 -58 q-42 -14 -84 -14q-120 0 -98 134l54 324h-266l-75 -448h-63l75 448h-266l-75 -448h-63l75 448h-93z" />
<glyph horiz-adv-x="0" />
<glyph horiz-adv-x="0" />
<glyph unicode="&#xd;" horiz-adv-x="333" />
<glyph unicode=" "  horiz-adv-x="269" />
<glyph unicode="&#x09;" horiz-adv-x="269" />
<glyph unicode="&#xa0;" horiz-adv-x="269" />
<glyph unicode="!" horiz-adv-x="277" d="M199 194h-58l80 506h68zM100 40q3 19 18 32t34 13t30 -13t8 -32q-4 -19 -19 -32t-34 -13t-30 13t-7 32z" />
<glyph unicode="&#x22;" horiz-adv-x="328" d="M140 470l38 230h55l-38 -230h-55zM290 470l38 230h55l-38 -230h-55z" />
<glyph unicode="#" horiz-adv-x="612" d="M476 443h-165l-58 -185h165zM194 258l58 185h-110l10 57h118l62 200h59l-62 -200h165l62 200h59l-62 -200h109l-10 -57h-117l-58 -185h109l-9 -57h-118l-63 -201h-59l63 201h-165l-63 -201h-59l63 201h-109l9 57h118z" />
<glyph unicode="$" horiz-adv-x="614" d="M388 316l-44 -263q72 6 126 41t65 97q10 60 -29 85.5t-118 39.5zM338 391l43 255q-64 -7 -110.5 -42t-56.5 -96q-9 -54 23.5 -79t100.5 -38zM333 -9l-15 -91h-62l16 92q-93 8 -147.5 59.5t-45.5 143.5h65q-4 -62 35 -98t103 -43l46 272q-46 8 -76 18t-59.5 29t-40.5 53.5 t-3 82.5q15 90 83 141t160 59l15 91h62l-15 -91q86 -8 134.5 -59.5t39.5 -145.5h-65q4 64 -28.5 99.5t-91.5 42.5l-44 -265q41 -7 67 -12.5t58 -19.5t49 -33t25.5 -51t1.5 -75q-11 -62 -52.5 -107t-96 -66.5t-118.5 -25.5z" />
<glyph unicode="%" horiz-adv-x="874" d="M152 536q12 72 61.5 123t130.5 51t113.5 -51t20.5 -123t-61.5 -123t-130.5 -51t-113.5 51t-20.5 123zM201 0l519 700h70l-519 -700h-70zM217 536q-8 -48 11 -81t68 -33q48 0 78.5 33t38.5 81q7 48 -12 81t-67 33q-49 0 -79.5 -33t-37.5 -81zM513 164q12 72 62 123t131 51 t113 -51t20 -123t-61.5 -123t-130.5 -51t-113.5 51t-20.5 123zM578 164q-7 -48 12 -81t67 -33q49 0 79.5 33t37.5 81q8 48 -10.5 81t-67.5 33t-79.5 -33t-38.5 -81z" />
<glyph unicode="&#x26;" horiz-adv-x="619" d="M445 114q-105 129 -174 242q-111 -65 -127 -156q-11 -70 28.5 -110.5t105.5 -40.5q87 0 167 65zM484 571q6 34 -15.5 57t-59.5 23q-42 0 -77 -33.5t-44 -84.5q-9 -49 15 -100q8 4 28.5 13t29 13t26 12.5t25 13.5t21 13.5t20 15.5t14 16.5t11.5 19.5t6 21zM629 0h-91 q-3 4 -10.5 12.5t-11.5 13.5l-38 46q-104 -82 -210 -82q-93 0 -149 55t-40 155q12 72 55 119.5t109 83.5q-34 69 -24 130q12 74 68.5 125.5t133.5 51.5q59 0 100.5 -39t31.5 -100q-3 -17 -11 -33t-16 -28t-24.5 -25.5t-27.5 -22t-34.5 -21t-34.5 -18t-38 -18.5t-37 -18 q51 -81 167 -226q14 15 63 71l36 -44q-31 -35 -64 -70q22 -28 55.5 -67.5t41.5 -50.5z" />
<glyph unicode="'" horiz-adv-x="178" d="M140 470l38 230h55l-38 -230h-55z" />
<glyph unicode="(" horiz-adv-x="262" d="M146 270q-38 -234 69 -426l-37 -23q-129 195 -87 449q43 253 237 449l29 -23q-171 -193 -211 -426z" />
<glyph unicode=")" horiz-adv-x="263" d="M206 270q40 234 -69 426l37 23q130 -196 87 -449q-21 -125 -83 -240.5t-154 -208.5l-29 23q173 192 211 426z" />
<glyph unicode="*" horiz-adv-x="397" d="M157 431l94 101l-115 36l24 47l112 -42l18 127h50l-24 -127l126 42l8 -47l-127 -36l60 -101l-46 -29l-54 106l-90 -106z" />
<glyph unicode="+" horiz-adv-x="632" d="M333 272h-219l9 56h219l37 219h57l-37 -219h219l-9 -56h-219l-37 -219h-57z" />
<glyph unicode="," horiz-adv-x="249" d="M49 -129l69 200h72l-87 -200h-54z" />
<glyph unicode="-" horiz-adv-x="490" d="M119 253l10 60h337l-10 -60h-337z" />
<glyph unicode="." horiz-adv-x="231" d="M77 40q3 19 18 32t34 13t30 -13t8 -32q-4 -19 -19 -32t-34 -13t-30 13t-7 32z" />
<glyph unicode="/" horiz-adv-x="366" d="M26 0l379 700h51l-379 -700h-51z" />
<glyph unicode="0" horiz-adv-x="591" d="M110 350q12 73 33.5 133.5t57 113.5t90 83t123.5 30t114 -31t61.5 -81.5t19.5 -115t-11 -132.5q-13 -73 -34.5 -133.5t-57 -113.5t-90 -83t-123.5 -30t-114 31t-61 81.5t-19.5 115t11.5 132.5zM175 350q-10 -61 -10.5 -111.5t11.5 -94.5t44 -69t83 -25q67 0 116.5 45.5 t74.5 108.5t39 146q10 61 10 111.5t-12 94.5t-44 69t-83 25t-91.5 -25t-67 -69t-43.5 -94.5t-27 -111.5z" />
<glyph unicode="1" horiz-adv-x="335" d="M176 0l90 540h-154l8 48q60 4 111 32t79 80h48l-117 -700h-65z" />
<glyph unicode="2" horiz-adv-x="544" d="M513 477q14 83 -24.5 128t-107.5 45q-68 0 -119 -38t-65 -98h-65q17 89 92 142.5t167 53.5q97 0 151.5 -61t35.5 -172q-7 -41 -26.5 -75.5t-52.5 -62.5t-63 -47t-76 -43q-7 -4 -37 -19.5t-39 -20.5t-34.5 -19.5t-36 -22.5t-29.5 -22.5t-28.5 -26t-20 -27t-16.5 -31.5h389 l-10 -60h-452l6 38q4 26 16 51t24 43.5t37 40.5t38 33.5t46.5 31t43 25t46 24.5t38.5 20q82 42 122.5 79.5t49.5 90.5z" />
<glyph unicode="3" horiz-adv-x="535" d="M577 650l-220 -252q95 -7 137 -61t29 -135q-16 -93 -86.5 -152.5t-185.5 -59.5q-91 0 -144 54.5t-40 142.5h65q-6 -61 32 -99t105 -38q71 0 123.5 37.5t64.5 110.5q12 72 -27.5 109.5t-109.5 37.5h-16l-17 54l210 241h-334l10 60h412z" />
<glyph unicode="4" horiz-adv-x="559" d="M471 680l-324 -473h247l79 473h-2zM546 147h-97l-25 -147h-65l25 147h-322l8 51l344 502h127l-82 -493h97z" />
<glyph unicode="5" horiz-adv-x="544" d="M589 700l-10 -60h-345l-39 -233q68 60 159 60q98 0 150 -63.5t32 -180.5q-15 -96 -88.5 -164.5t-186.5 -68.5q-91 0 -144 54.5t-40 142.5h65q-5 -61 32.5 -99t105.5 -38q69 0 123.5 46.5t69.5 134.5q14 86 -28.5 131t-117.5 45q-84 0 -156 -75h-52l61 368h409z" />
<glyph unicode="6" horiz-adv-x="551" d="M349 397q-68 0 -121 -45.5t-67 -129.5t23.5 -128t106.5 -44t121.5 43.5t66.5 127.5t-24 130t-106 46zM578 533h-65q3 57 -24.5 87t-82.5 30q-181 0 -239 -299q74 106 199 106q100 0 147.5 -65.5t31.5 -164.5q-7 -42 -25 -81.5t-48.5 -75.5t-80 -58t-110.5 -22 q-239 0 -183 340q10 62 26.5 115t43.5 103t61 85t82 56t105 21q84 0 126 -46t36 -131z" />
<glyph unicode="7" horiz-adv-x="498" d="M99 0l392 640h-348l10 60h421l-9 -52l-396 -648h-70z" />
<glyph unicode="8" horiz-adv-x="557" d="M480 209q11 66 -23.5 112t-117.5 46t-132 -45.5t-61 -112.5q-11 -67 23 -113t117 -46t132.5 46t61.5 113zM485 538q8 47 -16.5 79.5t-81.5 32.5t-92.5 -32.5t-43.5 -79.5q-7 -46 17 -78.5t81 -32.5t93 32.5t43 78.5zM81 209q11 67 51 117.5t100 77.5q-60 46 -45 138 q13 76 72 122t138 46t123 -46.5t31 -121.5q-15 -90 -91 -138q50 -27 73 -77.5t12 -117.5q-16 -98 -92.5 -158.5t-176.5 -60.5t-155.5 60.5t-39.5 158.5z" />
<glyph unicode="9" horiz-adv-x="551" d="M318 303q68 0 121 45.5t67 129.5t-23.5 128t-106.5 44t-121.5 -43.5t-66.5 -127.5t24 -130t106 -46zM89 167h65q-3 -57 24.5 -87t82.5 -30q181 0 239 299q-74 -106 -199 -106q-100 0 -148 65.5t-31 164.5q7 42 25 81.5t48.5 75.5t80 58t110.5 22q239 0 183 -340 q-10 -62 -26.5 -115t-43.5 -103t-61 -85t-82 -56t-105 -21q-84 0 -126 46t-36 131z" />
<glyph unicode=":" horiz-adv-x="231" d="M147 460q3 19 18.5 32t34.5 13t29.5 -13t7.5 -32t-18.5 -32t-34.5 -13t-29.5 13t-7.5 32zM77 40q3 19 18 32t34 13t30 -13t8 -32q-4 -19 -19 -32t-34 -13t-30 13t-7 32z" />
<glyph unicode=";" horiz-adv-x="249" d="M158 460q3 19 18.5 32t34.5 13t29.5 -13t7.5 -32t-18.5 -32t-34.5 -13t-29.5 13t-7.5 32zM49 -129l69 200h72l-87 -200h-54z" />
<glyph unicode="&#x3c;" horiz-adv-x="586" d="M113 270l485 208l-10 -58l-403 -170l346 -170l-9 -58l-416 208z" />
<glyph unicode="=" horiz-adv-x="631" d="M624 362h-495l9 56h495zM593 182h-495l10 56h495z" />
<glyph unicode="&#x3e;" horiz-adv-x="586" d="M563 270l-7 -40l-484 -208l9 58l404 170l-347 170l10 58z" />
<glyph unicode="?" horiz-adv-x="502" d="M245 174l32 192h30q70 0 112.5 42t52.5 101t-18.5 101t-98.5 42t-112.5 -42t-52.5 -101h-63q14 83 76 142t162 59t142 -59t28 -142q-12 -75 -65 -131.5t-138 -67.5l-27 -136h-60zM208 40q3 19 18 32t34 13t30 -13t8 -32q-4 -19 -19 -32t-34 -13t-30 13t-7 32z" />
<glyph unicode="@" horiz-adv-x="838" d="M557 251q7 44 -11.5 74t-65.5 30t-75.5 -30t-35.5 -74t11.5 -74t65.5 -30t75.5 30t35.5 74zM621 -5h68q-133 -120 -300 -120q-156 0 -236.5 106t-53.5 270q27 163 143.5 268.5t272.5 105.5q158 0 248.5 -105t65.5 -259q-14 -85 -68.5 -132.5t-121.5 -47.5q-34 0 -59.5 18 t-32.5 51q-47 -59 -121 -59q-72 0 -99.5 47.5t-16.5 112.5t54.5 112.5t115.5 47.5q66 0 96 -49l7 42h59l-36 -212q-5 -29 10.5 -46t40.5 -17q43 0 78.5 36t45.5 96q22 136 -57 228t-217 92q-137 0 -236.5 -92.5t-123.5 -237.5q-24 -146 44 -239t205 -93q120 0 225 76z" />
<glyph unicode="A" horiz-adv-x="656" d="M441 680l-226 -430h310l-82 430h-2zM84 0h-71l374 700h116l140 -700h-71l-36 190h-352z" />
<glyph unicode="B" horiz-adv-x="676" d="M441 334h-227l-46 -274h227q47 0 85.5 11.5t70 43.5t40.5 82q12 73 -32 105t-118 32zM475 640h-210l-41 -246h210q66 0 115.5 29t60.5 94q10 65 -29.5 94t-105.5 29zM387 0h-294l117 700h277q44 0 79.5 -9t64 -28.5t40.5 -55.5t4 -86q-18 -103 -118 -151q120 -48 98 -178 q-12 -70 -55 -115t-95.5 -61t-117.5 -16z" />
<glyph unicode="C" horiz-adv-x="702" d="M634 241h66q-41 -115 -123.5 -183t-212.5 -68q-109 0 -175.5 53t-85.5 132t-3 175q12 70 41.5 133t76 114.5t116 82t151.5 30.5q130 0 190 -67.5t62 -183.5h-66q-9 191 -196 191q-129 0 -209 -87.5t-101 -212.5q-12 -57 -4 -111t30 -96t69.5 -67.5t113.5 -25.5 q189 0 260 191z" />
<glyph unicode="D" horiz-adv-x="680" d="M438 700q81 0 139 -30t85 -79t38 -112t-3 -129q-12 -68 -41 -129t-74 -111.5t-112.5 -80t-148.5 -29.5h-228l117 700h228zM331 60q125 0 202.5 84.5t98.5 205.5q13 77 -1.5 140.5t-66 106.5t-136.5 43h-163l-97 -580h163z" />
<glyph unicode="E" horiz-adv-x="599" d="M212 325l-44 -265h390l-10 -60h-455l117 700h443l-10 -60h-378l-43 -255h354l-10 -60h-354z" />
<glyph unicode="F" horiz-adv-x="537" d="M211 316l-53 -316h-65l117 700h415l-10 -60h-350l-44 -264h312l-10 -60h-312z" />
<glyph unicode="G" horiz-adv-x="744" d="M100 350q12 70 41.5 133t76 114.5t116 82t151.5 30.5q131 0 191 -68t61 -183h-65q-7 191 -197 191q-129 0 -209 -87.5t-101 -212.5q-14 -80 0.5 -145.5t67 -110t139.5 -44.5q214 0 280 237h-238l10 60h303l-58 -347h-42l2 121q-88 -131 -265 -131q-109 0 -175.5 53 t-85.5 132t-3 175z" />
<glyph unicode="H" horiz-adv-x="707" d="M93 0l117 700h65l-52 -314h390l52 314h65l-117 -700h-65l55 326h-390l-55 -326h-65z" />
<glyph unicode="I" horiz-adv-x="252" d="M93 0l117 700h65l-117 -700h-65z" />
<glyph unicode="J" horiz-adv-x="543" d="M250 50q80 0 124 49.5t57 124.5l80 476h65l-80 -476q-17 -100 -79.5 -167t-176.5 -67q-59 0 -100 20t-58.5 53t-24 75t4.5 86l9 48h65l-9 -48q-13 -74 15 -124t108 -50z" />
<glyph unicode="K" horiz-adv-x="602" d="M275 700l-57 -344l397 344h91l-404 -350l302 -350h-94l-295 342l-57 -342h-65l117 700h65z" />
<glyph unicode="L" horiz-adv-x="541" d="M275 700l-107 -640h375l-10 -60h-440l117 700h65z" />
<glyph unicode="M" horiz-adv-x="887" d="M335 700l110 -680h2l338 680h125l-117 -700h-65l114 680h-2l-338 -680h-118l-110 680h-2l-114 -680h-65l117 700h125z" />
<glyph unicode="N" horiz-adv-x="742" d="M336 700l248 -680h2l114 680h65l-117 -700h-126l-248 680h-2l-114 -680h-65l117 700h126z" />
<glyph unicode="O" horiz-adv-x="733" d="M100 350q12 70 41.5 133t76 114.5t116 82t151.5 30.5q66 0 118 -20t82.5 -54.5t49.5 -80.5t20.5 -98t-5.5 -107q-12 -71 -42 -133.5t-76.5 -114t-116 -82t-151.5 -30.5q-109 0 -175.5 53t-85.5 132t-3 175zM685 350q13 80 -1.5 145.5t-67.5 110t-141 44.5 q-129 0 -209 -87.5t-101 -212.5q-12 -57 -4 -111t30 -96t69.5 -67.5t113.5 -25.5q129 0 209 87.5t102 212.5z" />
<glyph unicode="P" horiz-adv-x="625" d="M468 640h-203l-54 -324h203q70 0 123.5 45.5t65.5 116.5q12 70 -26 116t-109 46zM403 256h-202l-43 -256h-65l117 700h267q99 0 153 -63t38 -159q-16 -97 -91.5 -159.5t-173.5 -62.5z" />
<glyph unicode="Q" horiz-adv-x="769" d="M100 350q12 70 41.5 133t76 114.5t116 82t151.5 30.5q66 0 118 -20t82.5 -54.5t49.5 -80.5t20.5 -98t-5.5 -107q-23 -136 -105 -233l85 -102l-51 -43l-81 98q-98 -80 -234 -80q-109 0 -175.5 53t-85.5 132t-3 175zM685 350q14 80 -1 145.5t-68 110t-141 44.5 q-129 0 -209 -87.5t-101 -212.5q-12 -57 -4 -111t30 -96t69.5 -67.5t113.5 -25.5q110 0 186 65l-111 134l50 43l107 -129q61 77 79 187z" />
<glyph unicode="R" horiz-adv-x="661" d="M478 640h-213l-51 -306h213q66 0 116.5 43t60.5 110q11 67 -24.5 110t-101.5 43zM204 274l-46 -274h-65l117 700h277q95 0 146.5 -60t35.5 -153q-13 -81 -70.5 -138t-137.5 -71l136 -278h-76l-135 274h-182z" />
<glyph unicode="S" horiz-adv-x="614" d="M79 195h65q-5 -70 44.5 -107.5t126.5 -37.5q80 0 144.5 36t75.5 105q6 37 -8.5 62.5t-43.5 36.5t-67 20t-78.5 14t-78 17.5t-65.5 30t-40.5 52.5t-4.5 85q17 99 95.5 150t178.5 51q98 0 156.5 -52t48.5 -154h-65q5 72 -37 109t-113 37q-74 0 -131 -36.5t-68 -105.5 q-7 -41 13 -66.5t57 -36.5t82.5 -18t91 -17.5t81 -28t53.5 -55.5t8 -96q-16 -98 -101.5 -149t-193.5 -51q-105 0 -170.5 52.5t-55.5 152.5z" />
<glyph unicode="T" horiz-adv-x="566" d="M422 640l-107 -640h-65l107 640h-229l10 60h523l-10 -60h-229z" />
<glyph unicode="U" horiz-adv-x="717" d="M614 275l71 425h65l-72 -432q-7 -40 -21 -77t-40 -74.5t-60.5 -65t-86.5 -44.5t-114 -17t-108.5 17t-71 45t-39.5 64t-14 75t5 77l72 432h65l-71 -425q-9 -39 -3 -79t21.5 -72.5t55.5 -53t98 -20.5t104.5 20t75 54t45 71.5t23.5 79.5z" />
<glyph unicode="V" horiz-adv-x="673" d="M128 700h72l138 -680h2l366 680h72l-383 -700h-118z" />
<glyph unicode="W" horiz-adv-x="979" d="M212 700l56 -680h2l277 680h118l49 -680h2l284 680h68l-297 -700h-118l-49 680h-2l-277 -680h-118l-63 700h68z" />
<glyph unicode="X" horiz-adv-x="588" d="M668 700l-245 -334l149 -366h-76l-141 357h-2l-261 -357h-76l271 366l-133 334h74l128 -323h2l236 323h74z" />
<glyph unicode="Y" horiz-adv-x="601" d="M291 285l-156 415h73l143 -395h1l275 395h73l-294 -415h-25l-48 -285h-65l48 285h-25z" />
<glyph unicode="Z" horiz-adv-x="582" d="M657 700l-12 -70l-529 -570h440l-10 -60h-511l12 70l529 570h-422l10 60h493z" />
<glyph unicode="[" horiz-adv-x="289" d="M233 -150h-181l149 890h181l-9 -50h-130l-132 -790h130z" />
<glyph unicode="\" horiz-adv-x="365" d="M339 0h-51l-145 700h51z" />
<glyph unicode="]" horiz-adv-x="289" d="M6 -150l8 50h130l132 790h-130l9 50h181l-149 -890h-181z" />
<glyph unicode="^" horiz-adv-x="507" d="M118 395l213 305h78l111 -305h-57l-98 274l-190 -274h-57z" />
<glyph unicode="_" horiz-adv-x="594" d="M16 -95h530l-8 -50h-530z" />
<glyph unicode="`" horiz-adv-x="213" d="M145 715h83l56 -138h-47z" />
<glyph unicode="a" horiz-adv-x="606" d="M506 250q14 84 -20.5 143t-123.5 59t-143.5 -59t-68.5 -143t20.5 -143t123.5 -59t143.5 59t68.5 143zM527 0h-63l14 83q-78 -93 -201 -93q-117 0 -162.5 76.5t-27.5 183.5t89 183.5t188 76.5q123 0 170 -93l14 83h63z" />
<glyph unicode="b" horiz-adv-x="606" d="M183 250q-14 -84 20.5 -143t123.5 -59t143.5 59t68.5 143t-20.5 143t-123.5 59t-143.5 -59t-68.5 -143zM155 83l-14 -83h-63l117 700h63l-47 -283q78 93 200 93q61 0 104 -22.5t62.5 -59.5t27 -83.5t-2.5 -94.5q-9 -50 -30 -95t-54 -82.5t-83 -60t-111 -22.5 q-122 0 -169 93z" />
<glyph unicode="c" horiz-adv-x="548" d="M468 169h63q-64 -179 -247 -179q-61 0 -105 22.5t-65 59t-29.5 83t2.5 95.5q9 50 30.5 95.5t56 83t85.5 59.5t112 22q96 0 140.5 -48.5t46.5 -130.5h-63q-7 121 -133 121q-88 0 -143 -59t-69 -143t21 -143t123 -59q126 0 174 121z" />
<glyph unicode="d" horiz-adv-x="606" d="M506 250q14 84 -20.5 143t-123.5 59t-143.5 -59t-68.5 -143t20.5 -143t123.5 -59t143.5 59t68.5 143zM527 0h-63l14 83q-78 -93 -201 -93q-117 0 -162.5 76.5t-27.5 183.5t89 183.5t188 76.5q123 0 170 -93l47 283h63z" />
<glyph unicode="e" horiz-adv-x="553" d="M158 285h332q3 72 -31 119.5t-107 47.5q-74 0 -124 -47.5t-70 -119.5zM452 142h66q-69 -152 -244 -152q-58 0 -100.5 22.5t-62 59t-27.5 83t3 95.5q12 69 44 125.5t92.5 95.5t137.5 39q58 0 100.5 -22.5t62.5 -59t28 -83t-3 -95.5l-4 -23h-398q-7 -76 26.5 -127.5 t110.5 -51.5q117 0 168 94z" />
<glyph unicode="f" horiz-adv-x="329" d="M103 500h93l14 86q22 134 143 134q42 0 79 -14l-10 -59q-33 16 -74 16q-61 0 -74 -70l-15 -93h139l-9 -52h-139l-75 -448h-63l75 448h-93z" />
<glyph unicode="g" horiz-adv-x="596" d="M506 250q14 84 -20.5 143t-123.5 59t-143.5 -59t-68.5 -143t20.5 -143t123.5 -59t143.5 59t68.5 143zM468 21l10 62q-78 -93 -201 -93q-117 0 -162.5 76.5t-27.5 183.5t89 183.5t188 76.5q123 0 170 -93l14 83h63l-80 -479q-20 -116 -99.5 -171t-181.5 -55q-72 0 -128 29 t-74 88h79q31 -59 133 -59q76 0 135 40.5t73 127.5z" />
<glyph unicode="h" horiz-adv-x="561" d="M487 0h-63l51 307q12 76 -8.5 110.5t-85.5 34.5q-73 0 -126.5 -47t-67.5 -131l-46 -274h-63l117 700h63l-47 -280q63 90 180 90q182 0 148 -202z" />
<glyph unicode="i" horiz-adv-x="219" d="M177 666q4 19 18.5 31t32.5 12t28.5 -12t6.5 -31q-3 -19 -17.5 -31t-32.5 -12t-28.5 12t-7.5 31zM78 0l84 500h63l-84 -500h-63z" />
<glyph unicode="j" horiz-adv-x="219" d="M177 666q4 19 18.5 31t32.5 12t28.5 -12t6.5 -31q-3 -19 -17.5 -31t-32.5 -12t-28.5 12t-7.5 31zM-53 -203l9 56q13 -2 35 -2q63 0 74 70l97 579h63l-96 -571q-22 -134 -143 -134q-11 0 -39 2z" />
<glyph unicode="k" horiz-adv-x="509" d="M258 700l-74 -444l299 244h84l-307 -250l238 -250h-88l-229 242l-40 -242h-63l117 700h63z" />
<glyph unicode="l" horiz-adv-x="220" d="M78 0l117 700h63l-117 -700h-63z" />
<glyph unicode="m" horiz-adv-x="853" d="M460 0h-63l51 307q12 76 -6 110.5t-76 34.5q-66 0 -115.5 -47.5t-63.5 -130.5l-46 -274h-63l84 500h63l-14 -80q29 44 73 67t94 23q120 0 136 -101q31 48 79.5 74.5t103.5 26.5q168 0 134 -202l-52 -308h-63l51 307q12 76 -6 110.5t-76 34.5q-66 0 -115.5 -47.5 t-63.5 -130.5z" />
<glyph unicode="n" horiz-adv-x="561" d="M487 0h-63l51 307q12 76 -8.5 110.5t-85.5 34.5q-73 0 -126.5 -47t-67.5 -131l-46 -274h-63l84 500h63l-14 -80q63 90 180 90q182 0 148 -202z" />
<glyph unicode="o" horiz-adv-x="573" d="M87 250q9 50 30.5 95.5t56 83t85.5 59.5t112 22t105.5 -22.5t65.5 -59t29.5 -83t-2.5 -95.5q-9 -50 -30.5 -95.5t-56 -83t-86 -59.5t-112.5 -22t-105 22.5t-65 59t-29.5 83t2.5 95.5zM506 250q14 84 -21 143t-123 59t-143 -59t-69 -143t21 -143t123 -59t143 59t69 143z " />
<glyph unicode="p" horiz-adv-x="607" d="M184 250q-14 -84 20.5 -143t123.5 -59t143.5 59t68.5 143t-20.5 143t-123.5 59t-143.5 -59t-68.5 -143zM156 83l-47 -278h-63l117 695h63l-14 -83q78 93 200 93q61 0 104 -22.5t62.5 -59.5t27 -83.5t-2.5 -94.5q-9 -50 -30 -95t-54 -82.5t-83 -60t-111 -22.5 q-122 0 -169 93z" />
<glyph unicode="q" horiz-adv-x="606" d="M506 250q14 84 -20.5 143t-123.5 59t-143.5 -59t-68.5 -143t20.5 -143t123.5 -59t143.5 59t68.5 143zM494 -195h-63l47 278q-78 -93 -201 -93q-117 0 -162.5 76.5t-27.5 183.5t89 183.5t188 76.5q123 0 170 -93l14 83h63z" />
<glyph unicode="r" horiz-adv-x="338" d="M78 0l84 500h63l-14 -79h2q25 39 74.5 64t103.5 25h20l-9 -55q-2 -2 -21 -2q-66 0 -124.5 -53t-70.5 -129l-45 -271h-63z" />
<glyph unicode="s" horiz-adv-x="466" d="M66 141h63q-3 -45 28 -69t82 -24q54 0 95.5 22.5t49.5 66.5q6 38 -22.5 57t-72 26.5t-87 17.5t-70 40.5t-17.5 84.5q12 73 69 110t130 37t116.5 -38.5t36.5 -112.5h-63q4 46 -23.5 69.5t-74.5 23.5q-48 0 -84 -21t-44 -65q-5 -32 14.5 -50.5t52.5 -24.5t71.5 -15 t70.5 -19.5t50 -40.5t10 -76q-13 -73 -75.5 -111.5t-143.5 -38.5q-76 0 -123 39t-39 112z" />
<glyph unicode="t" horiz-adv-x="368" d="M315 4q-42 -14 -84 -14q-121 0 -98 134l54 324h-93l9 52h93l23 140h63l-23 -140h139l-9 -52h-139l-56 -332q-11 -70 51 -70q41 0 79 16z" />
<glyph unicode="u" horiz-adv-x="561" d="M157 500h63l-52 -307q-13 -76 8.5 -110.5t86.5 -34.5q73 0 126.5 47t67.5 131l46 274h63l-84 -500h-63l13 80q-29 -43 -77 -66.5t-103 -23.5q-181 0 -147 202z" />
<glyph unicode="v" horiz-adv-x="497" d="M569 500l-263 -500h-116l-95 500h66l89 -485h2l251 485h66z" />
<glyph unicode="w" horiz-adv-x="763" d="M175 500l43 -485h2l187 485h116l25 -485h2l205 485h65l-216 -500h-116l-25 485h-2l-187 -485h-116l-48 500h65z" />
<glyph unicode="x" horiz-adv-x="482" d="M223 257l-113 243h75l99 -236h2l179 236h75l-195 -243l121 -257h-76l-106 250h-2l-190 -250h-76z" />
<glyph unicode="y" horiz-adv-x="511" d="M577 500l-362 -695h-66l102 195h-55l-95 500h66l90 -485h2l252 485h66z" />
<glyph unicode="z" horiz-adv-x="468" d="M500 500l-11 -63l-361 -379h303l-10 -58h-375l11 63l361 379h-284l10 58h356z" />
<glyph unicode="{" horiz-adv-x="345" d="M216 159l-22 -132q-10 -59 16 -93t79 -34h9l-8 -50h-9q-76 0 -113.5 48.5t-24.5 130.5l22 130q10 59 -10 82t-75 23l11 62q55 0 82 23t37 82l22 130q13 81 67.5 130t130.5 49h9l-9 -50h-9q-53 0 -90.5 -34t-47.5 -93l-22 -132q-10 -59 -31 -90t-64 -46q37 -15 48 -46 t2 -90z" />
<glyph unicode="|" horiz-adv-x="242" d="M61 -195l157 935h54l-157 -935h-54z" />
<glyph unicode="}" horiz-adv-x="346" d="M161 27l22 132q9 58 30.5 89.5t63.5 46.5q-37 15 -48 46t-1 90l22 132q10 59 -16.5 93t-79.5 34h-9l9 50h9q76 0 113.5 -48.5t24.5 -130.5l-22 -130q-10 -59 10 -82t75 -23l-11 -62q-55 0 -82 -23t-37 -82l-22 -130q-13 -81 -67.5 -130t-130.5 -49h-9l8 50h9q53 0 91 34 t48 93z" />
<glyph unicode="~" horiz-adv-x="548" d="M224 362q42 0 110 -31.5t98 -31.5q37 0 63 43l54 -18q-23 -41 -51.5 -63t-73.5 -22q-42 0 -109 31.5t-98 31.5q-39 0 -65 -43l-53 18q23 41 51.5 63t73.5 22z" />
<glyph unicode="&#xa1;" horiz-adv-x="277" d="M260 460q-3 -19 -18.5 -32t-34.5 -13t-29.5 13t-7.5 32t18.5 32t34.5 13t29.5 -13t7.5 -32zM160 306h58l-79 -506h-68z" />
<glyph unicode="&#xa2;" horiz-adv-x="548" d="M264 50l67 400q-75 -11 -122 -67.5t-59 -132.5q-13 -76 15 -132.5t99 -67.5zM468 169h63q-59 -163 -217 -178l-15 -91h-60l15 91q-102 11 -143 85t-24 174q16 100 82 174t172 85l15 91h60l-15 -91q153 -15 157 -178h-63q-5 105 -104 119l-67 -400q104 14 144 119z" />
<glyph unicode="&#xa3;" horiz-adv-x="616" d="M646 453h-65q15 90 -18 143.5t-110 53.5t-128.5 -53.5t-66.5 -143.5l-20 -120h202l-9 -50h-202l-26 -156q-7 -46 -36 -67h413l-10 -60h-523l10 60q30 0 53 19.5t28 47.5l26 156h-70l9 50h70l20 120q20 118 91 187.5t179 69.5t155.5 -69.5t27.5 -187.5z" />
<glyph unicode="&#xa4;" horiz-adv-x="585" d="M508 300q12 72 -27 119t-111 47t-127 -47t-67 -119t27 -119t111 -47t127 47t67 119zM117 300q13 78 68 136l-33 40l51 44l34 -41q66 41 142 41q78 0 128 -41l48 41l37 -44l-47 -40q35 -58 22 -136t-68 -136l34 -40l-52 -44l-34 41q-65 -41 -142 -41q-76 0 -128 41 l-48 -41l-36 44l46 40q-35 58 -22 136z" />
<glyph unicode="&#xa5;" horiz-adv-x="602" d="M534 180l-8 -50h-171l-22 -130h-65l22 130h-171l8 50h171l13 75h-171l8 50h135l-148 395h73l143 -395h1l275 395h73l-280 -395h135l-8 -50h-171l-13 -75h171z" />
<glyph unicode="&#xa6;" horiz-adv-x="242" d="M154 360l64 380h54l-64 -380h-54zM125 185h54l-64 -380h-54z" />
<glyph unicode="&#xa7;" horiz-adv-x="529" d="M375 152q33 8 58 31.5t31 58.5q5 30 -16 56.5t-50 42t-76 39t-73 40.5q-33 -8 -58 -31.5t-31 -58.5q-7 -39 23.5 -67t98.5 -61t93 -50zM176 559q13 74 72.5 112.5t136.5 38.5q81 0 129.5 -42t42.5 -122h-64q5 52 -28 79t-90 27q-53 0 -91 -22.5t-46 -71.5 q-6 -34 15 -61.5t56 -45t76 -38.5t75.5 -41.5t54 -54t12.5 -75.5q-14 -88 -109 -125q41 -44 31 -104q-13 -74 -72.5 -112.5t-136.5 -38.5q-81 0 -130 42t-43 122h64q-4 -52 29.5 -79t89.5 -27q52 0 90 22.5t46 71.5q7 40 -23.5 71t-77 52.5t-92.5 44.5t-75 60.5t-21 87.5 q14 88 110 125q-41 44 -31 104z" />
<glyph unicode="&#xa8;" horiz-adv-x="311" d="M130 628q3 17 17 29t31 12t27 -12t7 -29t-17 -29t-31 -12t-27 12t-7 29zM308 628q3 17 17 29t31 12t27 -12t7 -29t-17 -29t-31 -12t-27 12t-7 29z" />
<glyph unicode="&#xa9;" horiz-adv-x="825" d="M157 350q-23 -131 53 -223t208 -92t238 91.5t129 223.5q22 132 -54 223.5t-208 91.5t-238 -91.5t-128 -223.5zM590 290h57q-25 -73 -78.5 -117.5t-135.5 -44.5q-100 0 -140.5 65t-24.5 157q15 92 77.5 157t162.5 65q82 0 120.5 -44.5t38.5 -117.5h-57q-3 109 -111 109 q-73 0 -118 -49t-57 -120t16.5 -120t101.5 -49q108 0 148 109zM111 350q25 150 147 255t273 105t238 -105t62 -255q-26 -150 -148 -255t-273 -105t-238 105t-61 255z" />
<glyph unicode="&#xaa;" horiz-adv-x="411" d="M405 591q9 52 -12.5 87t-75.5 35t-86.5 -35t-41.5 -87t12 -87t75 -35t87 35t42 87zM427 430h-49l7 42q-48 -50 -121 -50q-77 0 -106.5 50t-17.5 119q12 70 58 119.5t122 49.5q73 0 105 -50l7 42h49z" />
<glyph unicode="&#xab;" horiz-adv-x="491" d="M238 81l-145 140l10 58l191 140l-11 -67l-142 -102l108 -102zM448 81l-145 140l10 58l191 140l-11 -67l-142 -102l108 -102z" />
<glyph unicode="&#xac;" horiz-adv-x="632" d="M581 108h-55l28 164h-440l9 56h495z" />
<glyph unicode="&#xad;" horiz-adv-x="490" d="M119 253l10 60h337l-10 -60h-337z" />
<glyph unicode="&#xae;" horiz-adv-x="825" d="M157 350q-23 -131 53 -223t208 -92t238 91.5t129 223.5q22 132 -54 223.5t-208 91.5t-238 -91.5t-128 -223.5zM529 514h-119l-28 -168h119q37 0 64.5 23.5t33.5 60.5t-13.5 60.5t-56.5 23.5zM111 350q25 151 147 255.5t273 104.5t238 -104.5t62 -255.5 q-17 -99 -78.5 -182t-152.5 -130.5t-190 -47.5q-151 0 -238 104.5t-61 255.5zM469 295h-96l-26 -160h-56l72 430h174q62 0 95 -38t23 -97q-8 -48 -41 -83t-81 -47l79 -165h-66z" />
<glyph unicode="&#xaf;" horiz-adv-x="327" d="M399 588h-276l9 51h276z" />
<glyph unicode="&#xb0;" horiz-adv-x="351" d="M122 566q10 61 60 102.5t112 41.5t98 -41.5t26 -102.5t-60 -102.5t-112 -41.5t-98 41.5t-26 102.5zM177 566q-7 -39 15 -66t62 -27t71 27t38 66q6 39 -16 66t-62 27t-71 -27t-37 -66z" />
<glyph unicode="&#xb1;" horiz-adv-x="633" d="M349 358h-220l9 56h220l27 159h55l-27 -159h220l-9 -56h-220l-27 -159h-55zM573 54h-495l9 56h495z" />
<glyph unicode="&#xb2;" horiz-adv-x="347" d="M375 707q7 43 -13.5 66.5t-57.5 23.5q-35 0 -61.5 -19.5t-34.5 -51.5h-54q11 56 56.5 88.5t102.5 32.5q60 0 94 -36.5t23 -103.5q-7 -45 -39 -73.5t-84 -55.5q-9 -5 -34 -17t-36.5 -18t-28 -17t-26.5 -22.5t-15 -24.5h225l-8 -49h-279l5 31q3 16 10 31t13.5 26t21.5 24 t22 19.5t27 18t24.5 14t26.5 13.5l22 11q50 25 71.5 43t26.5 46z" />
<glyph unicode="&#xb3;" horiz-adv-x="338" d="M422 795l-122 -129q54 -6 77.5 -38t15.5 -77q-10 -56 -52.5 -92t-113.5 -36q-57 0 -90.5 32.5t-25.5 89.5h55q-3 -33 17 -53t57 -20q36 0 64 20t34 56q6 37 -14.5 57t-57.5 20h-11l-15 43l115 123h-190l9 49h256z" />
<glyph unicode="&#xb4;" horiz-adv-x="213" d="M307 715l-138 -138h-47l102 138h83z" />
<glyph unicode="&#xb5;" horiz-adv-x="562" d="M41 -195l117 695h63l-52 -307q-13 -76 8.5 -110.5t86.5 -34.5q73 0 126.5 47t67.5 131l46 274h63l-84 -500h-63l13 80q-29 -43 -77 -66.5t-103 -23.5q-74 0 -112 33l-37 -218h-63z" />
<glyph unicode="&#xb6;" horiz-adv-x="523" d="M341 -165l145 865h60l-145 -865h-60zM261 340q-79 0 -110 52.5t-19 127.5t61 127.5t128 52.5h60l-145 -865h-60z" />
<glyph unicode="&#xb7;" horiz-adv-x="193" d="M99 284q3 19 18 32t34 13t30 -13t8 -32q-4 -19 -19 -32t-34 -13t-30 13t-7 32z" />
<glyph unicode="&#xb8;" horiz-adv-x="254" d="M58 -78l-9 22l37 66h42l-27 -48h20q47 0 70.5 -23t16.5 -63q-8 -45 -47 -73t-96 -28q-32 0 -74 15l8 48q39 -17 72 -17q35 0 58 15.5t28 41.5q3 21 -9 32.5t-41 11.5h-49z" />
<glyph unicode="&#xb9;" horiz-adv-x="232" d="M182 430l51 306h-89l7 40q82 5 115 64h40l-69 -410h-55z" />
<glyph unicode="&#xba;" horiz-adv-x="395" d="M140 591q12 70 59.5 119.5t124.5 49.5t108.5 -49.5t19.5 -119.5t-59.5 -119.5t-124.5 -49.5t-108.5 49.5t-19.5 119.5zM403 591q8 51 -12.5 86.5t-74.5 35.5t-86.5 -35.5t-40.5 -86.5t12 -86.5t74 -35.5t87 35.5t41 86.5z" />
<glyph unicode="&#xbb;" horiz-adv-x="491" d="M280 81l11 67l142 102l-108 102l11 67l145 -140l-10 -58zM70 81l11 67l142 102l-108 102l11 67l145 -140l-10 -58z" />
<glyph unicode="&#xbc;" horiz-adv-x="696" d="M624 395l-173 -264h131l44 264h-2zM684 83h-55l-14 -83h-55l14 83h-188l7 42l188 285h103l-47 -279h55zM214 290h-55l51 306h-89l6 40q84 5 115 64h40zM212 -25h-52l398 750h52z" />
<glyph unicode="&#xbd;" horiz-adv-x="738" d="M212 -25h-52l398 750h52zM694 277q7 43 -13.5 66.5t-57.5 23.5q-35 0 -61 -19.5t-34 -51.5h-54q10 56 55.5 88.5t102.5 32.5q60 0 94 -36.5t23 -103.5q-7 -45 -39 -73.5t-84 -55.5q-9 -5 -34 -17t-36.5 -18t-28 -17t-26.5 -22.5t-15 -24.5h225l-8 -49h-279l5 31 q3 16 9.5 31t13.5 26t21.5 24t22 19.5t26.5 17.5t25 14l27 13.5t22 11.5q50 25 71.5 43t26.5 46zM214 290h-55l51 306h-89l6 40q84 5 115 64h40z" />
<glyph unicode="&#xbe;" horiz-adv-x="772" d="M700 395l-173 -264h131l44 264h-2zM760 83h-55l-14 -83h-55l14 83h-188l7 42l188 285h103l-47 -279h55zM406 700l-7 -45l-122 -129q54 -6 77 -38t16 -77q-10 -56 -53 -92t-114 -36q-57 0 -90 32.5t-25 89.5h55q-4 -33 16.5 -53t57.5 -20q36 0 63.5 20t33.5 56 q6 37 -14.5 57t-57.5 20h-11l-15 43l116 123h-190l8 49h256zM288 -25h-52l398 750h52z" />
<glyph unicode="&#xbf;" horiz-adv-x="502" d="M378 460q-3 -19 -18.5 -32t-34.5 -13t-29.5 13t-7.5 32t18.5 32t34.5 13t29.5 -13t7.5 -32zM341 326l-33 -192h-30q-69 0 -111.5 -41.5t-53.5 -101.5q-10 -59 19 -101t99 -42t112 41.5t52 101.5h63q-13 -83 -75 -142t-162 -59t-142.5 59t-28.5 142q12 75 65 131.5 t139 67.5l27 136h60z" />
<glyph unicode="&#xc0;" horiz-adv-x="656" d="M441 680l-226 -430h310l-82 430h-2zM84 0h-71l374 700h116l140 -700h-71l-36 190h-352zM435 777l-92 138h83l56 -138h-47z" />
<glyph unicode="&#xc1;" horiz-adv-x="656" d="M441 680l-226 -430h310l-82 430h-2zM84 0h-71l374 700h116l140 -700h-71l-36 190h-352zM536 915h83l-138 -138h-47z" />
<glyph unicode="&#xc2;" horiz-adv-x="656" d="M441 680l-226 -430h310l-82 430h-2zM84 0h-71l374 700h116l140 -700h-71l-36 190h-352zM441 914h80l84 -137h-63l-66 107l-102 -107h-63z" />
<glyph unicode="&#xc3;" horiz-adv-x="656" d="M441 680l-226 -430h310l-82 430h-2zM84 0h-71l374 700h116l140 -700h-71l-36 190h-352zM359 779h-45q8 36 34.5 62t65.5 26q18 0 58 -10t61 -10q31 0 41 34h45q-7 -36 -33.5 -62t-65.5 -26q-18 0 -58 10t-61 10q-30 0 -42 -34z" />
<glyph unicode="&#xc4;" horiz-adv-x="656" d="M441 680l-226 -430h310l-82 430h-2zM84 0h-71l374 700h116l140 -700h-71l-36 190h-352zM337 828q2 17 16 29t31 12t27 -12t8 -29q-3 -17 -17 -29t-31 -12t-27 12t-7 29zM515 828q2 17 16 29t31 12t27 -12t8 -29q-3 -17 -17 -29t-31 -12t-27 12t-7 29z" />
<glyph unicode="&#xc5;" horiz-adv-x="656" d="M441 680l-226 -430h310l-82 430h-2zM524 859q4 23 -8.5 38t-34.5 15t-39.5 -15t-21.5 -38t8.5 -38t34.5 -15t39.5 15t21.5 38zM84 0h-71l374 700h116l140 -700h-71l-36 190h-352zM373 859q7 42 39.5 69.5t75.5 27.5t66.5 -27.5t16.5 -69.5t-39.5 -69.5t-75.5 -27.5 t-66.5 27.5t-16.5 69.5z" />
<glyph unicode="&#xc6;" horiz-adv-x="1010" d="M616 680l-331 -430h261l72 430h-2zM92 0h-79l547 700h504l-10 -60h-378l-43 -255h354l-10 -60h-354l-44 -265h390l-10 -60h-455l32 190h-297z" />
<glyph unicode="&#xc7;" horiz-adv-x="701" d="M634 241h66q-40 -111 -118 -178.5t-200 -72.5l-15 -28h20q47 0 70.5 -23t16.5 -63q-8 -45 -47 -73t-96 -28q-32 0 -74 15l8 48q39 -17 72 -17q35 0 58 15.5t28 41.5q3 21 -9 32.5t-41 11.5h-49l-9 22l25 47q-75 4 -129.5 36t-80 82t-35 112.5t4.5 128.5q12 70 41.5 133 t76 114.5t116 82t151.5 30.5q130 0 190 -67.5t62 -183.5h-66q-9 191 -196 191q-129 0 -209 -87.5t-101 -212.5q-12 -57 -4 -111t30 -96t69.5 -67.5t113.5 -25.5q189 0 260 191z" />
<glyph unicode="&#xc8;" horiz-adv-x="599" d="M335 915h83l56 -138h-47zM212 325l-44 -265h390l-10 -60h-455l117 700h443l-10 -60h-378l-43 -255h354l-10 -60h-354z" />
<glyph unicode="&#xc9;" horiz-adv-x="599" d="M611 915l-138 -138h-47l102 138h83zM212 325l-44 -265h390l-10 -60h-455l117 700h443l-10 -60h-378l-43 -255h354l-10 -60h-354z" />
<glyph unicode="&#xca;" horiz-adv-x="599" d="M513 914l84 -137h-63l-66 107l-102 -107h-63l130 137h80zM212 325l-44 -265h390l-10 -60h-455l117 700h443l-10 -60h-378l-43 -255h354l-10 -60h-354z" />
<glyph unicode="&#xcb;" horiz-adv-x="599" d="M329 828q2 17 16 29t31 12t27 -12t8 -29q-3 -17 -17 -29t-31 -12t-27 12t-7 29zM507 828q2 17 16 29t31 12t27 -12t8 -29q-3 -17 -17 -29t-31 -12t-27 12t-7 29zM212 325l-44 -265h390l-10 -60h-455l117 700h443l-10 -60h-378l-43 -255h354l-10 -60h-354z" />
<glyph unicode="&#xcc;" horiz-adv-x="251" d="M141 915h83l56 -138h-47zM93 0l117 700h65l-117 -700h-65z" />
<glyph unicode="&#xcd;" horiz-adv-x="251" d="M417 915l-138 -138h-47l102 138h83zM93 0l117 700h65l-117 -700h-65z" />
<glyph unicode="&#xce;" horiz-adv-x="251" d="M319 914l84 -137h-63l-66 107l-102 -107h-63l130 137h80zM93 0l117 700h65l-117 -700h-65z" />
<glyph unicode="&#xcf;" horiz-adv-x="251" d="M135 828q2 17 16 29t31 12t27 -12t8 -29q-3 -17 -17 -29t-31 -12t-27 12t-7 29zM313 828q2 17 16 29t31 12t27 -12t8 -29q-3 -17 -17 -29t-31 -12t-27 12t-7 29zM93 0l117 700h65l-117 -700h-65z" />
<glyph unicode="&#xd0;" horiz-adv-x="700" d="M230 700h228q81 0 139 -30t85 -79t38 -112t-3 -129q-12 -68 -41 -129t-74 -111.5t-112.5 -80t-148.5 -29.5h-228l54 323h-78l9 54h78zM188 60h163q125 0 202.5 84.5t98.5 205.5q13 77 -1.5 140.5t-66 106.5t-136.5 43h-163l-44 -263h188l-9 -54h-188z" />
<glyph unicode="&#xd1;" horiz-adv-x="741" d="M401 779h-45q8 36 34.5 62t65.5 26q18 0 58 -10t61 -10q31 0 41 34h45q-7 -36 -33.5 -62t-65.5 -26q-17 0 -57.5 10t-61.5 10q-30 0 -42 -34zM336 700l248 -680h2l114 680h65l-117 -700h-126l-248 680h-2l-114 -680h-65l117 700h126z" />
<glyph unicode="&#xd2;" horiz-adv-x="732" d="M381 915h83l56 -138h-47zM100 350q12 70 41.5 133t76 114.5t116 82t151.5 30.5q66 0 118 -20t82.5 -54.5t49.5 -80.5t20.5 -98t-5.5 -107q-12 -71 -42 -133.5t-76.5 -114t-116 -82t-151.5 -30.5q-109 0 -175.5 53t-85.5 132t-3 175zM685 350q13 80 -1.5 145.5t-67.5 110 t-141 44.5q-129 0 -209 -87.5t-101 -212.5q-12 -57 -4 -111t30 -96t69.5 -67.5t113.5 -25.5q129 0 209 87.5t102 212.5z" />
<glyph unicode="&#xd3;" horiz-adv-x="732" d="M657 915l-138 -138h-47l102 138h83zM100 350q12 70 41.5 133t76 114.5t116 82t151.5 30.5q66 0 118 -20t82.5 -54.5t49.5 -80.5t20.5 -98t-5.5 -107q-12 -71 -42 -133.5t-76.5 -114t-116 -82t-151.5 -30.5q-109 0 -175.5 53t-85.5 132t-3 175zM685 350q13 80 -1.5 145.5 t-67.5 110t-141 44.5q-129 0 -209 -87.5t-101 -212.5q-12 -57 -4 -111t30 -96t69.5 -67.5t113.5 -25.5q129 0 209 87.5t102 212.5z" />
<glyph unicode="&#xd4;" horiz-adv-x="732" d="M685 350q13 80 -1.5 145.5t-67.5 110t-141 44.5q-129 0 -209 -87.5t-101 -212.5q-12 -57 -4 -111t30 -96t69.5 -67.5t113.5 -25.5q129 0 209 87.5t102 212.5zM100 350q12 70 41.5 133t76 114.5t116 82t151.5 30.5q66 0 118 -20t82.5 -54.5t49.5 -80.5t20.5 -98t-5.5 -107 q-12 -71 -42 -133.5t-76.5 -114t-116 -82t-151.5 -30.5q-109 0 -175.5 53t-85.5 132t-3 175zM479 914h80l84 -137h-63l-66 107l-102 -107h-63z" />
<glyph unicode="&#xd5;" horiz-adv-x="732" d="M685 350q13 80 -1.5 145.5t-67.5 110t-141 44.5q-129 0 -209 -87.5t-101 -212.5q-12 -57 -4 -111t30 -96t69.5 -67.5t113.5 -25.5q129 0 209 87.5t102 212.5zM100 350q12 70 41.5 133t76 114.5t116 82t151.5 30.5q66 0 118 -20t82.5 -54.5t49.5 -80.5t20.5 -98t-5.5 -107 q-12 -71 -42 -133.5t-76.5 -114t-116 -82t-151.5 -30.5q-109 0 -175.5 53t-85.5 132t-3 175zM397 779h-45q8 36 34.5 62t65.5 26q18 0 58 -10t61 -10q31 0 41 34h45q-7 -36 -33.5 -62t-65.5 -26q-18 0 -58 10t-61 10q-30 0 -42 -34z" />
<glyph unicode="&#xd6;" horiz-adv-x="732" d="M375 828q2 17 16 29t31 12t27 -12t8 -29q-3 -17 -17 -29t-31 -12t-27 12t-7 29zM553 828q2 17 16 29t31 12t27 -12t8 -29q-3 -17 -17 -29t-31 -12t-27 12t-7 29zM100 350q12 70 41.5 133t76 114.5t116 82t151.5 30.5q66 0 118 -20t82.5 -54.5t49.5 -80.5t20.5 -98 t-5.5 -107q-12 -71 -42 -133.5t-76.5 -114t-116 -82t-151.5 -30.5q-109 0 -175.5 53t-85.5 132t-3 175zM685 350q13 80 -1.5 145.5t-67.5 110t-141 44.5q-129 0 -209 -87.5t-101 -212.5q-12 -57 -4 -111t30 -96t69.5 -67.5t113.5 -25.5q129 0 209 87.5t102 212.5z" />
<glyph unicode="&#xd7;" horiz-adv-x="577" d="M332 260l-211 -180l-33 40l210 180l-150 180l47 40l150 -180l210 180l33 -40l-210 -180l150 -180l-47 -40z" />
<glyph unicode="&#xd8;" horiz-adv-x="733" d="M193 140l437 453q-55 57 -155 57q-129 0 -209 -87.5t-101 -212.5q-22 -128 28 -210zM685 350q21 127 -29 210l-437 -453q55 -57 155 -57q129 0 209.5 87.5t101.5 212.5zM774 743l32 -28l-101 -104q72 -99 45 -261q-12 -71 -42 -133.5t-76.5 -114t-116 -82t-151.5 -30.5 q-122 0 -192 67l-97 -100l-32 28l101 104q-71 98 -44 261q12 71 42 133.5t76.5 114t115.5 82t151 30.5q123 0 193 -67z" />
<glyph unicode="&#xd9;" horiz-adv-x="716" d="M373 915h83l56 -138h-47zM614 275l71 425h65l-72 -432q-7 -40 -21 -77t-40 -74.5t-60.5 -65t-86.5 -44.5t-114 -17t-108.5 17t-71 45t-39.5 64t-14 75t5 77l72 432h65l-71 -425q-9 -39 -3 -79t21.5 -72.5t55.5 -53t98 -20.5t104.5 20t75 54t45 71.5t23.5 79.5z" />
<glyph unicode="&#xda;" horiz-adv-x="716" d="M649 915l-138 -138h-47l102 138h83zM614 275l71 425h65l-72 -432q-7 -40 -21 -77t-40 -74.5t-60.5 -65t-86.5 -44.5t-114 -17t-108.5 17t-71 45t-39.5 64t-14 75t5 77l72 432h65l-71 -425q-9 -39 -3 -79t21.5 -72.5t55.5 -53t98 -20.5t104.5 20t75 54t45 71.5t23.5 79.5z " />
<glyph unicode="&#xdb;" horiz-adv-x="716" d="M551 914l84 -137h-63l-66 107l-102 -107h-63l130 137h80zM614 275l71 425h65l-72 -432q-7 -40 -21 -77t-40 -74.5t-60.5 -65t-86.5 -44.5t-114 -17t-108.5 17t-71 45t-39.5 64t-14 75t5 77l72 432h65l-71 -425q-9 -39 -3 -79t21.5 -72.5t55.5 -53t98 -20.5t104.5 20 t75 54t45 71.5t23.5 79.5z" />
<glyph unicode="&#xdc;" horiz-adv-x="716" d="M367 828q2 17 16 29t31 12t27 -12t8 -29q-3 -17 -17 -29t-31 -12t-27 12t-7 29zM545 828q2 17 16 29t31 12t27 -12t8 -29q-3 -17 -17 -29t-31 -12t-27 12t-7 29zM614 275l71 425h65l-72 -432q-7 -40 -21 -77t-40 -74.5t-60.5 -65t-86.5 -44.5t-114 -17t-108.5 17t-71 45 t-39.5 64t-14 75t5 77l72 432h65l-71 -425q-9 -39 -3 -79t21.5 -72.5t55.5 -53t98 -20.5t104.5 20t75 54t45 71.5t23.5 79.5z" />
<glyph unicode="&#xdd;" horiz-adv-x="601" d="M592 915l-138 -138h-47l102 138h83zM291 285l-156 415h73l143 -395h1l275 395h73l-294 -415h-25l-48 -285h-65l48 285h-25z" />
<glyph unicode="&#xde;" horiz-adv-x="625" d="M446 513h-202l-55 -326h202q71 0 125 46t66 117q11 71 -27 117t-109 46zM381 127h-202l-21 -127h-65l117 700h65l-21 -127h202q98 0 152.5 -63t38.5 -160t-91.5 -160t-174.5 -63z" />
<glyph unicode="&#xdf;" horiz-adv-x="582" d="M345 339l9 58q63 0 112.5 36t59.5 97q9 56 -25.5 89t-93.5 33q-77 0 -125.5 -53.5t-62.5 -138.5l-94 -560h-63l94 560q18 111 85 180.5t176 69.5q86 0 136 -48.5t36 -130.5q-18 -104 -121 -155q123 -48 101 -180q-9 -54 -36.5 -93.5t-67 -61t-83.5 -31.5t-94 -10h-81 l10 58h81q38 0 70.5 7t62 22.5t49.5 44t26 67.5q12 75 -34.5 107.5t-126.5 32.5z" />
<glyph unicode="&#xe0;" horiz-adv-x="606" d="M506 250q14 84 -20.5 143t-123.5 59t-143.5 -59t-68.5 -143t20.5 -143t123.5 -59t143.5 59t68.5 143zM527 0h-63l14 83q-78 -93 -201 -93q-117 0 -162.5 76.5t-27.5 183.5t89 183.5t188 76.5q123 0 170 -93l14 83h63zM360 577l-92 138h83l56 -138h-47z" />
<glyph unicode="&#xe1;" horiz-adv-x="606" d="M506 250q14 84 -20.5 143t-123.5 59t-143.5 -59t-68.5 -143t20.5 -143t123.5 -59t143.5 59t68.5 143zM527 0h-63l14 83q-78 -93 -201 -93q-117 0 -162.5 76.5t-27.5 183.5t89 183.5t188 76.5q123 0 170 -93l14 83h63zM460 714h83l-138 -138h-47z" />
<glyph unicode="&#xe2;" horiz-adv-x="606" d="M506 250q14 84 -20.5 143t-123.5 59t-143.5 -59t-68.5 -143t20.5 -143t123.5 -59t143.5 59t68.5 143zM527 0h-63l14 83q-78 -93 -201 -93q-117 0 -162.5 76.5t-27.5 183.5t89 183.5t188 76.5q123 0 170 -93l14 83h63zM365 714h80l85 -137h-63l-67 107l-101 -107h-63z" />
<glyph unicode="&#xe3;" horiz-adv-x="606" d="M506 250q14 84 -20.5 143t-123.5 59t-143.5 -59t-68.5 -143t20.5 -143t123.5 -59t143.5 59t68.5 143zM527 0h-63l14 83q-78 -93 -201 -93q-117 0 -162.5 76.5t-27.5 183.5t89 183.5t188 76.5q123 0 170 -93l14 83h63zM284 579h-45q7 36 34 62t66 26q17 0 57 -10t61 -10 q32 0 42 34h45q-7 -36 -34 -62t-66 -26q-18 0 -58 10t-60 10q-32 0 -42 -34z" />
<glyph unicode="&#xe4;" horiz-adv-x="606" d="M506 250q14 84 -20.5 143t-123.5 59t-143.5 -59t-68.5 -143t20.5 -143t123.5 -59t143.5 59t68.5 143zM527 0h-63l14 83q-78 -93 -201 -93q-117 0 -162.5 76.5t-27.5 183.5t89 183.5t188 76.5q123 0 170 -93l14 83h63zM261 628q3 17 17 29t31 12t27 -12t7 -29t-17 -29 t-31 -12t-27 12t-7 29zM439 628q3 17 17 29t31 12t27 -12t7 -29t-17 -29t-31 -12t-27 12t-7 29z" />
<glyph unicode="&#xe5;" horiz-adv-x="606" d="M506 250q14 84 -20.5 143t-123.5 59t-143.5 -59t-68.5 -143t20.5 -143t123.5 -59t143.5 59t68.5 143zM448 659q4 23 -8.5 38t-34.5 15t-39.5 -15t-21.5 -38t8.5 -38t34.5 -15t39.5 15t21.5 38zM527 0h-63l14 83q-78 -93 -201 -93q-117 0 -162.5 76.5t-27.5 183.5 t89 183.5t188 76.5q123 0 170 -93l14 83h63zM297 659q7 41 40 69t76 28t66 -27.5t16 -69.5t-39.5 -69.5t-75.5 -27.5t-66.5 27.5t-16.5 69.5z" />
<glyph unicode="&#xe6;" horiz-adv-x="971" d="M506 250q14 84 -20.5 143t-123.5 59t-143.5 -59t-68.5 -143t20.5 -143t123.5 -59t143.5 59t68.5 143zM576 285h332q2 72 -31.5 119.5t-106.5 47.5t-123.5 -47.5t-70.5 -119.5zM527 0h-63l14 83q-78 -93 -201 -93q-117 0 -162.5 76.5t-27.5 183.5t89 183.5t188 76.5 q123 0 170 -93l14 83h63l-14 -83q73 93 182 93q58 0 100.5 -22.5t62.5 -59t28 -83t-3 -95.5l-4 -23h-398q-7 -76 26.5 -127.5t110.5 -51.5q117 0 168 94h66q-69 -152 -244 -152q-109 0 -151 93z" />
<glyph unicode="&#xe7;" horiz-adv-x="548" d="M468 169h63q-62 -169 -229 -178l-15 -29h20q47 0 70.5 -23t16.5 -63q-8 -45 -47 -73t-96 -28q-32 0 -74 15l8 48q39 -17 72 -17q35 0 58 15.5t28 41.5q3 21 -9 32.5t-41 11.5h-49l-9 22l25 47q-71 6 -115 45t-56.5 94t-1.5 120q9 50 30.5 95.5t56 83t85.5 59.5t112 22 q96 0 140.5 -48.5t46.5 -130.5h-63q-7 121 -133 121q-88 0 -143 -59t-69 -143t21 -143t123 -59q126 0 174 121z" />
<glyph unicode="&#xe8;" horiz-adv-x="552" d="M158 285h332q3 72 -31 119.5t-107 47.5q-74 0 -124 -47.5t-70 -119.5zM452 142h66q-69 -152 -244 -152q-58 0 -100.5 22.5t-62 59t-27.5 83t3 95.5q12 69 44 125.5t92.5 95.5t137.5 39q58 0 100.5 -22.5t62.5 -59t28 -83t-3 -95.5l-4 -23h-398q-7 -76 26.5 -127.5 t110.5 -51.5q117 0 168 94zM350 577l-92 138h83l56 -138h-47z" />
<glyph unicode="&#xe9;" horiz-adv-x="552" d="M158 285h332q3 72 -31 119.5t-107 47.5q-74 0 -124 -47.5t-70 -119.5zM452 142h66q-69 -152 -244 -152q-58 0 -100.5 22.5t-62 59t-27.5 83t3 95.5q12 69 44 125.5t92.5 95.5t137.5 39q58 0 100.5 -22.5t62.5 -59t28 -83t-3 -95.5l-4 -23h-398q-7 -76 26.5 -127.5 t110.5 -51.5q117 0 168 94zM451 715h83l-138 -138h-47z" />
<glyph unicode="&#xea;" horiz-adv-x="552" d="M158 285h332q3 72 -31 119.5t-107 47.5q-74 0 -124 -47.5t-70 -119.5zM452 142h66q-69 -152 -244 -152q-58 0 -100.5 22.5t-62 59t-27.5 83t3 95.5q12 69 44 125.5t92.5 95.5t137.5 39q58 0 100.5 -22.5t62.5 -59t28 -83t-3 -95.5l-4 -23h-398q-7 -76 26.5 -127.5 t110.5 -51.5q117 0 168 94zM355 714h80l85 -137h-63l-67 107l-101 -107h-63z" />
<glyph unicode="&#xeb;" horiz-adv-x="552" d="M158 285h332q3 72 -31 119.5t-107 47.5q-74 0 -124 -47.5t-70 -119.5zM452 142h66q-69 -152 -244 -152q-58 0 -100.5 22.5t-62 59t-27.5 83t3 95.5q12 69 44 125.5t92.5 95.5t137.5 39q58 0 100.5 -22.5t62.5 -59t28 -83t-3 -95.5l-4 -23h-398q-7 -76 26.5 -127.5 t110.5 -51.5q117 0 168 94zM251 628q3 17 17 29t31 12t27 -12t7 -29t-17 -29t-31 -12t-27 12t-7 29zM429 628q3 17 17 29t31 12t27 -12t7 -29t-17 -29t-31 -12t-27 12t-7 29z" />
<glyph unicode="&#xec;" horiz-adv-x="219" d="M91 715h83l56 -138h-47zM78 0l84 500h63l-84 -500h-63z" />
<glyph unicode="&#xed;" horiz-adv-x="219" d="M367 715l-138 -138h-47l102 138h83zM78 0l84 500h63l-84 -500h-63z" />
<glyph unicode="&#xee;" horiz-adv-x="219" d="M268 714l85 -137h-63l-67 107l-101 -107h-63l129 137h80zM78 0l84 500h63l-84 -500h-63z" />
<glyph unicode="&#xef;" horiz-adv-x="219" d="M84 628q3 17 17 29t31 12t27 -12t7 -29t-17 -29t-31 -12t-27 12t-7 29zM262 628q3 17 17 29t31 12t27 -12t7 -29t-17 -29t-31 -12t-27 12t-7 29zM78 0l84 500h63l-84 -500h-63z" />
<glyph unicode="&#xf0;" horiz-adv-x="573" d="M506 250q14 84 -21 143t-123 59t-143 -59t-69 -143t21 -143t123 -59t143 59t69 143zM275 575l-31 37l128 60q-40 41 -88 77l54 32q47 -35 90 -83l116 55l31 -37l-116 -55q147 -191 110 -411q-9 -50 -30.5 -95.5t-56 -83t-86 -59.5t-112.5 -22t-105 22.5t-65 59t-29.5 83 t2.5 95.5q9 51 30.5 96t56 82.5t86.5 59.5t114 22q82 0 126 -54q-31 101 -96 180z" />
<glyph unicode="&#xf1;" horiz-adv-x="560" d="M281 579h-45q7 36 34 62t66 26q18 0 58 -10t60 -10q32 0 42 34h45q-7 -36 -34 -62t-66 -26q-17 0 -57 10t-61 10q-32 0 -42 -34zM487 0h-63l51 307q12 76 -8.5 110.5t-85.5 34.5q-73 0 -126.5 -47t-67.5 -131l-46 -274h-63l84 500h63l-14 -80q63 90 180 90 q182 0 148 -202z" />
<glyph unicode="&#xf2;" horiz-adv-x="572" d="M268 715h83l56 -138h-47zM87 250q9 50 30.5 95.5t56 83t85.5 59.5t112 22t105.5 -22.5t65.5 -59t29.5 -83t-2.5 -95.5q-9 -50 -30.5 -95.5t-56 -83t-86 -59.5t-112.5 -22t-105 22.5t-65 59t-29.5 83t2.5 95.5zM506 250q14 84 -21 143t-123 59t-143 -59t-69 -143t21 -143 t123 -59t143 59t69 143z" />
<glyph unicode="&#xf3;" horiz-adv-x="572" d="M544 715l-138 -138h-47l102 138h83zM87 250q9 50 30.5 95.5t56 83t85.5 59.5t112 22t105.5 -22.5t65.5 -59t29.5 -83t-2.5 -95.5q-9 -50 -30.5 -95.5t-56 -83t-86 -59.5t-112.5 -22t-105 22.5t-65 59t-29.5 83t2.5 95.5zM506 250q14 84 -21 143t-123 59t-143 -59 t-69 -143t21 -143t123 -59t143 59t69 143z" />
<glyph unicode="&#xf4;" horiz-adv-x="572" d="M506 250q14 84 -21 143t-123 59t-143 -59t-69 -143t21 -143t123 -59t143 59t69 143zM87 250q9 50 30.5 95.5t56 83t85.5 59.5t112 22t105.5 -22.5t65.5 -59t29.5 -83t-2.5 -95.5q-9 -50 -30.5 -95.5t-56 -83t-86 -59.5t-112.5 -22t-105 22.5t-65 59t-29.5 83t2.5 95.5z M365 714h80l85 -137h-63l-67 107l-101 -107h-63z" />
<glyph unicode="&#xf5;" horiz-adv-x="572" d="M506 250q14 84 -21 143t-123 59t-143 -59t-69 -143t21 -143t123 -59t143 59t69 143zM87 250q9 50 30.5 95.5t56 83t85.5 59.5t112 22t105.5 -22.5t65.5 -59t29.5 -83t-2.5 -95.5q-9 -50 -30.5 -95.5t-56 -83t-86 -59.5t-112.5 -22t-105 22.5t-65 59t-29.5 83t2.5 95.5z M284 579h-45q7 36 34 62t66 26q17 0 57 -10t61 -10q32 0 42 34h45q-7 -36 -34 -62t-66 -26q-18 0 -58 10t-60 10q-32 0 -42 -34z" />
<glyph unicode="&#xf6;" horiz-adv-x="572" d="M261 628q3 17 17 29t31 12t27 -12t7 -29t-17 -29t-31 -12t-27 12t-7 29zM439 628q3 17 17 29t31 12t27 -12t7 -29t-17 -29t-31 -12t-27 12t-7 29zM87 250q9 50 30.5 95.5t56 83t85.5 59.5t112 22t105.5 -22.5t65.5 -59t29.5 -83t-2.5 -95.5q-9 -50 -30.5 -95.5t-56 -83 t-86 -59.5t-112.5 -22t-105 22.5t-65 59t-29.5 83t2.5 95.5zM506 250q14 84 -21 143t-123 59t-143 -59t-69 -143t21 -143t123 -59t143 59t69 143z" />
<glyph unicode="&#xf7;" horiz-adv-x="632" d="M358 494q3 17 17 29t31 12t27 -12t7 -29t-17 -29t-31 -12t-27 12t-7 29zM609 272h-495l9 56h495zM293 106q3 17 17 29t31 12t27 -12t7 -29t-17 -29t-31 -12t-27 12t-7 29z" />
<glyph unicode="&#xf8;" horiz-adv-x="573" d="M168 112l291 309q-38 31 -97 31q-88 0 -143 -59t-69 -143q-14 -82 18 -138zM506 250q13 84 -18 138l-292 -309q39 -31 98 -31q88 0 143 59t69 143zM575 543l33 -27l-73 -78q53 -71 34 -188q-9 -50 -30.5 -95.5t-56 -83t-86 -59.5t-112.5 -22q-82 0 -134 41l-69 -74 l-34 27l73 78q-53 73 -33 188q9 50 30.5 95.5t56 83t85.5 59.5t112 22q83 0 134 -41z" />
<glyph unicode="&#xf9;" horiz-adv-x="560" d="M260 715h83l56 -138h-47zM157 500h63l-52 -307q-13 -76 8.5 -110.5t86.5 -34.5q73 0 126.5 47t67.5 131l46 274h63l-84 -500h-63l13 80q-29 -43 -77 -66.5t-103 -23.5q-181 0 -147 202z" />
<glyph unicode="&#xfa;" horiz-adv-x="560" d="M536 715l-138 -138h-47l102 138h83zM157 500h63l-52 -307q-13 -76 8.5 -110.5t86.5 -34.5q73 0 126.5 47t67.5 131l46 274h63l-84 -500h-63l13 80q-29 -43 -77 -66.5t-103 -23.5q-181 0 -147 202z" />
<glyph unicode="&#xfb;" horiz-adv-x="560" d="M437 714l85 -137h-63l-67 107l-101 -107h-63l129 137h80zM157 500h63l-52 -307q-13 -76 8.5 -110.5t86.5 -34.5q73 0 126.5 47t67.5 131l46 274h63l-84 -500h-63l13 80q-29 -43 -77 -66.5t-103 -23.5q-181 0 -147 202z" />
<glyph unicode="&#xfc;" horiz-adv-x="560" d="M253 628q3 17 17 29t31 12t27 -12t7 -29t-17 -29t-31 -12t-27 12t-7 29zM431 628q3 17 17 29t31 12t27 -12t7 -29t-17 -29t-31 -12t-27 12t-7 29zM157 500h63l-52 -307q-13 -76 8.5 -110.5t86.5 -34.5q73 0 126.5 47t67.5 131l46 274h63l-84 -500h-63l13 80 q-29 -43 -77 -66.5t-103 -23.5q-181 0 -147 202z" />
<glyph unicode="&#xfd;" horiz-adv-x="510" d="M513 715l-138 -138h-47l102 138h83zM577 500l-362 -695h-66l102 195h-55l-95 500h66l90 -485h2l252 485h66z" />
<glyph unicode="&#xfe;" horiz-adv-x="607" d="M184 250q-14 -84 20.5 -143t123.5 -59t143.5 59t68.5 143t-20.5 143t-123.5 59t-143.5 -59t-68.5 -143zM156 83l-47 -278h-63l150 895h63l-47 -283q78 93 200 93q61 0 104 -22.5t62.5 -59.5t27 -83.5t-2.5 -94.5q-9 -50 -30 -95t-54 -82.5t-83 -60t-111 -22.5 q-122 0 -169 93z" />
<glyph unicode="&#xff;" horiz-adv-x="510" d="M230 628q3 17 17 29t31 12t27 -12t7 -29t-17 -29t-31 -12t-27 12t-7 29zM408 628q3 17 17 29t31 12t27 -12t7 -29t-17 -29t-31 -12t-27 12t-7 29zM577 500l-362 -695h-66l102 195h-55l-95 500h66l90 -485h2l252 485h66z" />
<glyph unicode="&#x100;" horiz-adv-x="656" d="M441 680l-226 -430h310l-82 430h-2zM84 0h-71l374 700h116l140 -700h-71l-36 190h-352zM606 839l-8 -51h-276l8 51h276z" />
<glyph unicode="&#x101;" horiz-adv-x="606" d="M506 250q14 84 -20.5 143t-123.5 59t-143.5 -59t-68.5 -143t20.5 -143t123.5 -59t143.5 59t68.5 143zM527 0h-63l14 83q-78 -93 -201 -93q-117 0 -162.5 76.5t-27.5 183.5t89 183.5t188 76.5q123 0 170 -93l14 83h63zM531 639l-9 -51h-276l9 51h276z" />
<glyph unicode="&#x102;" horiz-adv-x="656" d="M441 680l-226 -430h310l-82 430h-2zM84 0h-71l374 700h116l140 -700h-71l-36 190h-352zM331 914h53q-6 -38 15.5 -62.5t66.5 -24.5t75.5 24.5t36.5 62.5h53q-10 -60 -57 -97.5t-116 -37.5t-103 37.5t-24 97.5z" />
<glyph unicode="&#x103;" horiz-adv-x="606" d="M506 250q14 84 -20.5 143t-123.5 59t-143.5 -59t-68.5 -143t20.5 -143t123.5 -59t143.5 59t68.5 143zM527 0h-63l14 83q-78 -93 -201 -93q-117 0 -162.5 76.5t-27.5 183.5t89 183.5t188 76.5q123 0 170 -93l14 83h63zM255 714h53q-6 -38 16 -62.5t67 -24.5t75 24.5 t36 62.5h53q-10 -60 -56.5 -97.5t-115.5 -37.5t-103.5 37.5t-24.5 97.5z" />
<glyph unicode="&#x104;" horiz-adv-x="656" d="M441 680l-226 -430h310l-82 430h-2zM84 0h-71l374 700h116l140 -700q-34 -24 -66 -60.5t-38 -71.5q-8 -44 34 -44q26 0 42 8l-8 -46q-20 -11 -52 -11q-38 0 -59.5 23.5t-14.5 63.5q13 77 105 138h-14l-36 190h-352z" />
<glyph unicode="&#x105;" horiz-adv-x="605" d="M506 250q14 84 -20.5 143t-123.5 59t-143.5 -59t-68.5 -143t20.5 -143t123.5 -59t143.5 59t68.5 143zM470 0h-6l14 83q-78 -93 -201 -93q-117 0 -162.5 76.5t-27.5 183.5t89 183.5t188 76.5q123 0 170 -93l14 83h63l-84 -500q-34 -24 -66 -60.5t-38 -71.5q-8 -44 34 -44 q26 0 42 8l-8 -46q-20 -11 -52 -11q-38 0 -59.5 23.5t-14.5 63.5q13 77 105 138z" />
<glyph unicode="&#x106;" horiz-adv-x="701" d="M657 915l-138 -138h-47l102 138h83zM634 241h66q-41 -115 -123.5 -183t-212.5 -68q-109 0 -175.5 53t-85.5 132t-3 175q12 70 41.5 133t76 114.5t116 82t151.5 30.5q130 0 190 -67.5t62 -183.5h-66q-9 191 -196 191q-129 0 -209 -87.5t-101 -212.5q-12 -57 -4 -111 t30 -96t69.5 -67.5t113.5 -25.5q189 0 260 191z" />
<glyph unicode="&#x107;" horiz-adv-x="548" d="M544 715l-138 -138h-47l102 138h83zM468 169h63q-64 -179 -247 -179q-61 0 -105 22.5t-65 59t-29.5 83t2.5 95.5q9 50 30.5 95.5t56 83t85.5 59.5t112 22q96 0 140.5 -48.5t46.5 -130.5h-63q-7 121 -133 121q-88 0 -143 -59t-69 -143t21 -143t123 -59q126 0 174 121z" />
<glyph unicode="&#x108;" horiz-adv-x="701" d="M559 914l84 -137h-63l-66 107l-102 -107h-63l130 137h80zM634 241h66q-41 -115 -123.5 -183t-212.5 -68q-109 0 -175.5 53t-85.5 132t-3 175q12 70 41.5 133t76 114.5t116 82t151.5 30.5q130 0 190 -67.5t62 -183.5h-66q-9 191 -196 191q-129 0 -209 -87.5t-101 -212.5 q-12 -57 -4 -111t30 -96t69.5 -67.5t113.5 -25.5q189 0 260 191z" />
<glyph unicode="&#x109;" horiz-adv-x="548" d="M445 714l85 -137h-63l-67 107l-101 -107h-63l129 137h80zM468 169h63q-64 -179 -247 -179q-61 0 -105 22.5t-65 59t-29.5 83t2.5 95.5q9 50 30.5 95.5t56 83t85.5 59.5t112 22q96 0 140.5 -48.5t46.5 -130.5h-63q-7 121 -133 121q-88 0 -143 -59t-69 -143t21 -143 t123 -59q126 0 174 121z" />
<glyph unicode="&#x10a;" horiz-adv-x="701" d="M464 829q3 17 17 29t31 12t27 -12t7 -29t-17 -29t-31 -12t-27 12t-7 29zM634 241h66q-41 -115 -123.5 -183t-212.5 -68q-109 0 -175.5 53t-85.5 132t-3 175q12 70 41.5 133t76 114.5t116 82t151.5 30.5q130 0 190 -67.5t62 -183.5h-66q-9 191 -196 191q-129 0 -209 -87.5 t-101 -212.5q-12 -57 -4 -111t30 -96t69.5 -67.5t113.5 -25.5q189 0 260 191z" />
<glyph unicode="&#x10b;" horiz-adv-x="548" d="M350 629q3 17 17 29t31 12t27 -12t7 -29t-17 -29t-31 -12t-27 12t-7 29zM468 169h63q-64 -179 -247 -179q-61 0 -105 22.5t-65 59t-29.5 83t2.5 95.5q9 50 30.5 95.5t56 83t85.5 59.5t112 22q96 0 140.5 -48.5t46.5 -130.5h-63q-7 121 -133 121q-88 0 -143 -59t-69 -143 t21 -143t123 -59q126 0 174 121z" />
<glyph unicode="&#x10c;" horiz-adv-x="701" d="M603 914h63l-130 -137h-80l-84 137h63l66 -107zM634 241h66q-41 -115 -123.5 -183t-212.5 -68q-109 0 -175.5 53t-85.5 132t-3 175q12 70 41.5 133t76 114.5t116 82t151.5 30.5q130 0 190 -67.5t62 -183.5h-66q-9 191 -196 191q-129 0 -209 -87.5t-101 -212.5 q-12 -57 -4 -111t30 -96t69.5 -67.5t113.5 -25.5q189 0 260 191z" />
<glyph unicode="&#x10d;" horiz-adv-x="548" d="M489 714h63l-129 -137h-80l-85 137h63l67 -107zM468 169h63q-64 -179 -247 -179q-61 0 -105 22.5t-65 59t-29.5 83t2.5 95.5q9 50 30.5 95.5t56 83t85.5 59.5t112 22q96 0 140.5 -48.5t46.5 -130.5h-63q-7 121 -133 121q-88 0 -143 -59t-69 -143t21 -143t123 -59 q126 0 174 121z" />
<glyph unicode="&#x10e;" horiz-adv-x="679" d="M168 60h163q125 0 202.5 84.5t98.5 205.5q13 77 -1.5 140.5t-66 106.5t-136.5 43h-163zM210 700h228q81 0 139 -30t85 -79t38 -112t-3 -129q-12 -68 -41 -129t-74 -111.5t-112.5 -80t-148.5 -29.5h-228zM456 807l102 107h63l-130 -137h-80l-84 137h63z" />
<glyph unicode="&#x10f;" horiz-adv-x="721" d="M506 250q14 84 -20.5 143t-123.5 59t-143.5 -59t-68.5 -143t20.5 -143t123.5 -59t143.5 59t68.5 143zM527 0h-63l14 83q-78 -93 -201 -93q-117 0 -162.5 76.5t-27.5 183.5t89 183.5t188 76.5q123 0 170 -93l47 283h63zM763 700h88l-100 -138h-52z" />
<glyph unicode="&#x110;" horiz-adv-x="700" d="M230 700h228q81 0 139 -30t85 -79t38 -112t-3 -129q-12 -68 -41 -129t-74 -111.5t-112.5 -80t-148.5 -29.5h-228l54 323h-78l9 54h78zM188 60h163q125 0 202.5 84.5t98.5 205.5q13 77 -1.5 140.5t-66 106.5t-136.5 43h-163l-44 -263h188l-9 -54h-188z" />
<glyph unicode="&#x111;" horiz-adv-x="689" d="M506 250q14 84 -20.5 143t-123.5 59t-143.5 -59t-68.5 -143t20.5 -143t123.5 -59t143.5 59t68.5 143zM527 0h-63l14 83q-78 -93 -201 -93q-117 0 -162.5 76.5t-27.5 183.5t89 183.5t188 76.5q123 0 170 -93l27 165h-155l9 50h155l11 68h63l-11 -68h49l-9 -50h-49z" />
<glyph unicode="&#x112;" horiz-adv-x="599" d="M590 788h-276l8 51h276zM212 325l-44 -265h390l-10 -60h-455l117 700h443l-10 -60h-378l-43 -255h354l-10 -60h-354z" />
<glyph unicode="&#x113;" horiz-adv-x="552" d="M158 285h332q3 72 -31 119.5t-107 47.5q-74 0 -124 -47.5t-70 -119.5zM452 142h66q-69 -152 -244 -152q-58 0 -100.5 22.5t-62 59t-27.5 83t3 95.5q12 69 44 125.5t92.5 95.5t137.5 39q58 0 100.5 -22.5t62.5 -59t28 -83t-3 -95.5l-4 -23h-398q-7 -76 26.5 -127.5 t110.5 -51.5q117 0 168 94zM521 639l-9 -51h-276l9 51h276z" />
<glyph unicode="&#x114;" horiz-adv-x="599" d="M323 914h53q-6 -38 15.5 -62.5t66.5 -24.5t75.5 24.5t36.5 62.5h53q-10 -60 -57 -97.5t-116 -37.5t-103 37.5t-24 97.5zM212 325l-44 -265h390l-10 -60h-455l117 700h443l-10 -60h-378l-43 -255h354l-10 -60h-354z" />
<glyph unicode="&#x115;" horiz-adv-x="552" d="M158 285h332q3 72 -31 119.5t-107 47.5q-74 0 -124 -47.5t-70 -119.5zM452 142h66q-69 -152 -244 -152q-58 0 -100.5 22.5t-62 59t-27.5 83t3 95.5q12 69 44 125.5t92.5 95.5t137.5 39q58 0 100.5 -22.5t62.5 -59t28 -83t-3 -95.5l-4 -23h-398q-7 -76 26.5 -127.5 t110.5 -51.5q117 0 168 94zM245 714h53q-6 -38 16 -62.5t67 -24.5t75 24.5t36 62.5h53q-10 -60 -56.5 -97.5t-115.5 -37.5t-103.5 37.5t-24.5 97.5z" />
<glyph unicode="&#x116;" horiz-adv-x="599" d="M418 829q3 17 17 29t31 12t27 -12t7 -29t-17 -29t-31 -12t-27 12t-7 29zM212 325l-44 -265h390l-10 -60h-455l117 700h443l-10 -60h-378l-43 -255h354l-10 -60h-354z" />
<glyph unicode="&#x117;" horiz-adv-x="552" d="M158 285h332q3 72 -31 119.5t-107 47.5q-74 0 -124 -47.5t-70 -119.5zM452 142h66q-69 -152 -244 -152q-58 0 -100.5 22.5t-62 59t-27.5 83t3 95.5q12 69 44 125.5t92.5 95.5t137.5 39q58 0 100.5 -22.5t62.5 -59t28 -83t-3 -95.5l-4 -23h-398q-7 -76 26.5 -127.5 t110.5 -51.5q117 0 168 94zM340 629q3 17 17 29t31 12t27 -12t7 -29t-17 -29t-31 -12t-27 12t-7 29z" />
<glyph unicode="&#x118;" horiz-adv-x="599" d="M212 325l-44 -265h390l-10 -60q-34 -24 -66 -60.5t-38 -71.5q-8 -44 34 -44q26 0 42 8l-8 -46q-20 -11 -52 -11q-38 0 -59.5 23.5t-14.5 63.5q13 77 105 138h-398l117 700h443l-10 -60h-378l-43 -255h354l-10 -60h-354z" />
<glyph unicode="&#x119;" horiz-adv-x="552" d="M158 285h332q3 72 -31 119.5t-107 47.5q-74 0 -124 -47.5t-70 -119.5zM452 142h66q-65 -142 -224 -151q-81 -65 -91 -123q-8 -44 34 -44q26 0 42 8l-8 -46q-20 -11 -52 -11q-38 0 -59.5 23.5t-14.5 63.5q13 72 94 130q-94 13 -131 86.5t-21 171.5q12 69 44 125.5 t92.5 95.5t137.5 39q58 0 100.5 -22.5t62.5 -59t28 -83t-3 -95.5l-4 -23h-398q-7 -76 26.5 -127.5t110.5 -51.5q117 0 168 94z" />
<glyph unicode="&#x11a;" horiz-adv-x="599" d="M557 914h63l-130 -137h-80l-84 137h63l66 -107zM212 325l-44 -265h390l-10 -60h-455l117 700h443l-10 -60h-378l-43 -255h354l-10 -60h-354z" />
<glyph unicode="&#x11b;" horiz-adv-x="552" d="M158 285h332q3 72 -31 119.5t-107 47.5q-74 0 -124 -47.5t-70 -119.5zM452 142h66q-69 -152 -244 -152q-58 0 -100.5 22.5t-62 59t-27.5 83t3 95.5q12 69 44 125.5t92.5 95.5t137.5 39q58 0 100.5 -22.5t62.5 -59t28 -83t-3 -95.5l-4 -23h-398q-7 -76 26.5 -127.5 t110.5 -51.5q117 0 168 94zM378 607l101 107h63l-129 -137h-80l-85 137h63z" />
<glyph unicode="&#x11c;" horiz-adv-x="744" d="M559 914l84 -137h-63l-66 107l-102 -107h-63l130 137h80zM100 350q12 70 41.5 133t76 114.5t116 82t151.5 30.5q131 0 191 -68t61 -183h-65q-7 191 -197 191q-129 0 -209 -87.5t-101 -212.5q-14 -80 0.5 -145.5t67 -110t139.5 -44.5q214 0 280 237h-238l10 60h303 l-58 -347h-42l2 121q-88 -131 -265 -131q-109 0 -175.5 53t-85.5 132t-3 175z" />
<glyph unicode="&#x11d;" horiz-adv-x="595" d="M506 250q14 84 -20.5 143t-123.5 59t-143.5 -59t-68.5 -143t20.5 -143t123.5 -59t143.5 59t68.5 143zM468 21l10 62q-78 -93 -201 -93q-117 0 -162.5 76.5t-27.5 183.5t89 183.5t188 76.5q123 0 170 -93l14 83h63l-80 -479q-20 -116 -99.5 -171t-181.5 -55q-72 0 -128 29 t-74 88h79q31 -59 133 -59q76 0 135 40.5t73 127.5zM365 714h80l85 -137h-63l-67 107l-101 -107h-63z" />
<glyph unicode="&#x11e;" horiz-adv-x="744" d="M369 914h53q-6 -38 15.5 -62.5t66.5 -24.5t75.5 24.5t36.5 62.5h53q-10 -60 -57 -97.5t-116 -37.5t-103 37.5t-24 97.5zM100 350q12 70 41.5 133t76 114.5t116 82t151.5 30.5q131 0 191 -68t61 -183h-65q-7 191 -197 191q-129 0 -209 -87.5t-101 -212.5 q-14 -80 0.5 -145.5t67 -110t139.5 -44.5q214 0 280 237h-238l10 60h303l-58 -347h-42l2 121q-88 -131 -265 -131q-109 0 -175.5 53t-85.5 132t-3 175z" />
<glyph unicode="&#x11f;" horiz-adv-x="595" d="M506 250q14 84 -20.5 143t-123.5 59t-143.5 -59t-68.5 -143t20.5 -143t123.5 -59t143.5 59t68.5 143zM468 21l10 62q-78 -93 -201 -93q-117 0 -162.5 76.5t-27.5 183.5t89 183.5t188 76.5q123 0 170 -93l14 83h63l-80 -479q-20 -116 -99.5 -171t-181.5 -55q-72 0 -128 29 t-74 88h79q31 -59 133 -59q76 0 135 40.5t73 127.5zM255 714h53q-6 -38 16 -62.5t67 -24.5t75 24.5t36 62.5h53q-10 -60 -56.5 -97.5t-115.5 -37.5t-103.5 37.5t-24.5 97.5z" />
<glyph unicode="&#x120;" horiz-adv-x="744" d="M464 829q3 17 17 29t31 12t27 -12t7 -29t-17 -29t-31 -12t-27 12t-7 29zM100 350q12 70 41.5 133t76 114.5t116 82t151.5 30.5q131 0 191 -68t61 -183h-65q-7 191 -197 191q-129 0 -209 -87.5t-101 -212.5q-14 -80 0.5 -145.5t67 -110t139.5 -44.5q214 0 280 237h-238 l10 60h303l-58 -347h-42l2 121q-88 -131 -265 -131q-109 0 -175.5 53t-85.5 132t-3 175z" />
<glyph unicode="&#x121;" horiz-adv-x="595" d="M506 250q14 84 -20.5 143t-123.5 59t-143.5 -59t-68.5 -143t20.5 -143t123.5 -59t143.5 59t68.5 143zM468 21l10 62q-78 -93 -201 -93q-117 0 -162.5 76.5t-27.5 183.5t89 183.5t188 76.5q123 0 170 -93l14 83h63l-80 -479q-20 -116 -99.5 -171t-181.5 -55q-72 0 -128 29 t-74 88h79q31 -59 133 -59q76 0 135 40.5t73 127.5zM350 629q3 17 17 29t31 12t27 -12t7 -29t-17 -29t-31 -12t-27 12t-7 29z" />
<glyph unicode="&#x122;" horiz-adv-x="744" d="M100 350q12 70 41.5 133t76 114.5t116 82t151.5 30.5q131 0 191 -68t61 -183h-65q-7 191 -197 191q-129 0 -209 -87.5t-101 -212.5q-14 -80 0.5 -145.5t67 -110t139.5 -44.5q214 0 280 237h-238l10 60h303l-58 -347h-42l2 121q-88 -131 -265 -131q-109 0 -175.5 53 t-85.5 132t-3 175zM273 -219l50 141h59l-63 -141h-46z" />
<glyph unicode="&#x123;" horiz-adv-x="595" d="M506 250q14 84 -20.5 143t-123.5 59t-143.5 -59t-68.5 -143t20.5 -143t123.5 -59t143.5 59t68.5 143zM468 21l10 62q-78 -93 -201 -93q-117 0 -162.5 76.5t-27.5 183.5t89 183.5t188 76.5q123 0 170 -93l14 83h63l-80 -479q-20 -116 -99.5 -171t-181.5 -55q-72 0 -128 29 t-74 88h79q33 -59 133 -59q76 0 135 40.5t73 127.5zM402 716h46l-50 -141h-59z" />
<glyph unicode="&#x124;" horiz-adv-x="706" d="M546 914l84 -137h-63l-66 107l-102 -107h-63l130 137h80zM93 0l117 700h65l-52 -314h390l52 314h65l-117 -700h-65l55 326h-390l-55 -326h-65z" />
<glyph unicode="&#x125;" horiz-adv-x="560" d="M476 914l84 -137h-63l-66 107l-102 -107h-63l130 137h80zM487 0h-63l51 307q12 76 -8.5 110.5t-85.5 34.5q-73 0 -126.5 -47t-67.5 -131l-46 -274h-63l117 700h63l-47 -280q63 90 180 90q182 0 148 -202z" />
<glyph unicode="&#x126;" horiz-adv-x="707" d="M244 516l-21 -130h390l21 130h-390zM158 0h-65l117 700h65l-22 -130h390l22 130h65l-117 -700h-65l55 326h-390z" />
<glyph unicode="&#x127;" horiz-adv-x="581" d="M161 0h-63l97 582h-49l9 50h49l11 68h63l-11 -68h155l-9 -50h-155l-27 -162q63 90 180 90q182 0 148 -202l-52 -308h-63l51 307q12 76 -8.5 110.5t-85.5 34.5q-73 0 -126.5 -47t-67.5 -131z" />
<glyph unicode="&#x128;" horiz-adv-x="251" d="M157 779h-45q8 36 34.5 62t65.5 26q17 0 57.5 -10t61.5 -10q31 0 41 34h45q-7 -36 -33.5 -62t-65.5 -26q-18 0 -58 10t-61 10q-30 0 -42 -34zM93 0l117 700h65l-117 -700h-65z" />
<glyph unicode="&#x129;" horiz-adv-x="219" d="M107 579h-45q7 36 34 62t66 26q18 0 58 -10t60 -10q32 0 42 34h45q-7 -36 -34 -62t-66 -26q-17 0 -57 10t-61 10q-32 0 -42 -34zM78 0l84 500h63l-84 -500h-63z" />
<glyph unicode="&#x12a;" horiz-adv-x="251" d="M396 788h-276l8 51h276zM93 0l117 700h65l-117 -700h-65z" />
<glyph unicode="&#x12b;" horiz-adv-x="219" d="M345 588h-276l9 51h276zM78 0l84 500h63l-84 -500h-63z" />
<glyph unicode="&#x12c;" horiz-adv-x="251" d="M129 914h53q-6 -38 15.5 -62.5t66.5 -24.5t75.5 24.5t36.5 62.5h53q-10 -60 -57 -97.5t-116 -37.5t-103 37.5t-24 97.5zM93 0l117 700h65l-117 -700h-65z" />
<glyph unicode="&#x12d;" horiz-adv-x="219" d="M78 714h53q-6 -38 16 -62.5t67 -24.5t75 24.5t36 62.5h53q-10 -60 -56.5 -97.5t-115.5 -37.5t-103.5 37.5t-24.5 97.5zM78 0l84 500h63l-84 -500h-63z" />
<glyph unicode="&#x12e;" horiz-adv-x="251" d="M93 0l117 700h65l-117 -700q-34 -24 -66 -60.5t-38 -71.5q-8 -44 34 -44q26 0 42 8l-8 -46q-20 -11 -52 -11q-38 0 -59.5 23.5t-14.5 63.5q13 77 105 138h-8z" />
<glyph unicode="&#x12f;" horiz-adv-x="219" d="M177 666q4 19 18.5 31t32.5 12t28.5 -12t6.5 -31q-3 -19 -17.5 -31t-32.5 -12t-28.5 12t-7.5 31zM78 0l84 500h63l-84 -500q-34 -24 -66 -60.5t-38 -71.5q-8 -44 34 -44q26 0 42 8l-8 -46q-20 -11 -52 -11q-38 0 -59.5 23.5t-14.5 63.5q13 77 105 138h-6z" />
<glyph unicode="&#x130;" horiz-adv-x="251" d="M224 829q3 17 17 29t31 12t27 -12t7 -29t-17 -29t-31 -12t-27 12t-7 29zM93 0l117 700h65l-117 -700h-65z" />
<glyph unicode="&#x131;" horiz-adv-x="220" d="M78 0l84 500h63l-84 -500h-63z" />
<glyph unicode="&#x132;" horiz-adv-x="793" d="M93 0l117 700h65l-117 -700h-65zM501 50q80 0 124 49.5t57 124.5l80 476h65l-80 -476q-17 -100 -79.5 -167t-176.5 -67q-59 0 -100 20t-58.5 53t-24 75t4.5 86l9 48h65l-9 -48q-13 -74 15 -124t108 -50z" />
<glyph unicode="&#x133;" horiz-adv-x="438" d="M177 666q4 19 18.5 31t32.5 12t28.5 -12t6.5 -31q-3 -19 -17.5 -31t-32.5 -12t-28.5 12t-7.5 31zM396 666q4 19 18.5 31t32.5 12t28.5 -12t6.5 -31q-3 -19 -17.5 -31t-32.5 -12t-28.5 12t-7.5 31zM78 0l84 500h63l-84 -500h-63zM166 -203l9 56q13 -2 35 -2q63 0 74 70 l97 579h63l-96 -571q-22 -134 -143 -134q-11 0 -39 2z" />
<glyph unicode="&#x134;" horiz-adv-x="542" d="M620 914l84 -137h-63l-66 107l-102 -107h-63l130 137h80zM250 50q80 0 124 49.5t57 124.5l80 476h65l-80 -476q-17 -100 -79.5 -167t-176.5 -67q-59 0 -100 20t-58.5 53t-24 75t4.5 86l9 48h65l-9 -48q-13 -74 15 -124t108 -50z" />
<glyph unicode="&#x135;" horiz-adv-x="219" d="M269 714l85 -137h-63l-67 107l-101 -107h-63l129 137h80zM-53 -203l9 56q13 -2 35 -2q63 0 74 70l97 579h63l-96 -571q-22 -134 -143 -134q-11 0 -39 2z" />
<glyph unicode="&#x136;" horiz-adv-x="602" d="M275 700l-57 -344l397 344h91l-404 -350l302 -350h-94l-295 342l-57 -342h-65l117 700h65zM256 -219l50 141h59l-63 -141h-46z" />
<glyph unicode="&#x137;" horiz-adv-x="509" d="M258 700l-74 -444l299 244h84l-307 -250l238 -250h-88l-229 242l-40 -242h-63l117 700h63zM195 -219l50 141h59l-63 -141h-46z" />
<glyph unicode="&#x138;" horiz-adv-x="509" d="M225 500l-41 -244l299 244h84l-307 -250l238 -250h-88l-229 242l-40 -242h-63l84 500h63z" />
<glyph unicode="&#x139;" horiz-adv-x="541" d="M417 915l-138 -138h-47l102 138h83zM275 700l-107 -640h375l-10 -60h-440l117 700h65z" />
<glyph unicode="&#x13a;" horiz-adv-x="219" d="M400 915l-138 -138h-47l102 138h83zM78 0l117 700h63l-117 -700h-63z" />
<glyph unicode="&#x13b;" horiz-adv-x="541" d="M275 700l-107 -640h375l-10 -60h-440l117 700h65zM220 -219l50 141h59l-63 -141h-46z" />
<glyph unicode="&#x13c;" horiz-adv-x="219" d="M78 0l117 700h63l-117 -700h-63zM16 -219l50 141h59l-63 -141h-46z" />
<glyph unicode="&#x13d;" horiz-adv-x="541" d="M275 700l-107 -640h375l-10 -60h-440l117 700h65zM527 700l-100 -138h-52l64 138h88z" />
<glyph unicode="&#x13e;" horiz-adv-x="335" d="M78 0l117 700h63l-117 -700h-63zM465 700l-100 -138h-52l64 138h88z" />
<glyph unicode="&#x13f;" horiz-adv-x="541" d="M275 700l-107 -640h375l-10 -60h-440l117 700h65zM369 380q2 17 16 29t31 12t27 -12t8 -29q-3 -17 -17 -29t-31 -12t-27 12t-7 29z" />
<glyph unicode="&#x140;" horiz-adv-x="283" d="M78 0l117 700h63l-117 -700h-63zM260 350q2 17 16 29t31 12t27 -12t8 -29q-3 -17 -17 -29t-31 -12t-27 12t-7 29z" />
<glyph unicode="&#x141;" horiz-adv-x="590" d="M72 260l127 80l60 360h65l-52 -314l153 96l19 -40l-182 -115l-45 -267h375l-10 -60h-440l47 282l-98 -62z" />
<glyph unicode="&#x142;" horiz-adv-x="324" d="M130 0l50 299l-103 -64l-18 39l131 82l57 344h63l-50 -300l103 64l18 -39l-131 -82l-57 -343h-63z" />
<glyph unicode="&#x143;" horiz-adv-x="741" d="M661 915l-138 -138h-47l102 138h83zM336 700l248 -680h2l114 680h65l-117 -700h-126l-248 680h-2l-114 -680h-65l117 700h126z" />
<glyph unicode="&#x144;" horiz-adv-x="560" d="M541 715l-138 -138h-47l102 138h83zM487 0h-63l51 307q12 76 -8.5 110.5t-85.5 34.5q-73 0 -126.5 -47t-67.5 -131l-46 -274h-63l84 500h63l-14 -80q63 90 180 90q182 0 148 -202z" />
<glyph unicode="&#x145;" horiz-adv-x="741" d="M336 700l248 -680h2l114 680h65l-117 -700h-126l-248 680h-2l-114 -680h-65l117 700h126zM277 -219l50 141h59l-63 -141h-46z" />
<glyph unicode="&#x146;" horiz-adv-x="560" d="M487 0h-63l51 307q12 76 -8.5 110.5t-85.5 34.5q-73 0 -126.5 -47t-67.5 -131l-46 -274h-63l84 500h63l-14 -80q63 90 180 90q182 0 148 -202zM190 -219l50 141h59l-63 -141h-46z" />
<glyph unicode="&#x147;" horiz-adv-x="741" d="M607 914h63l-130 -137h-80l-84 137h63l66 -107zM336 700l248 -680h2l114 680h65l-117 -700h-126l-248 680h-2l-114 -680h-65l117 700h126z" />
<glyph unicode="&#x148;" horiz-adv-x="560" d="M486 714h63l-129 -137h-80l-85 137h63l67 -107zM487 0h-63l51 307q12 76 -8.5 110.5t-85.5 34.5q-73 0 -126.5 -47t-67.5 -131l-46 -274h-63l84 500h63l-14 -80q63 90 180 90q182 0 148 -202z" />
<glyph unicode="&#x149;" horiz-adv-x="561" d="M260 700l-100 -138h-52l64 138h88zM487 0h-63l51 307q12 76 -8.5 110.5t-85.5 34.5q-73 0 -126.5 -47t-67.5 -131l-46 -274h-63l84 500h63l-14 -80q63 90 180 90q182 0 148 -202z" />
<glyph unicode="&#x14a;" horiz-adv-x="742" d="M570 -75l13 75h-61l-248 680h-2l-114 -680h-65l117 700h126l248 -680h2l114 680h65l-129 -771q-22 -134 -143 -134q-21 0 -41 4l10 59q20 -3 35 -3q31 0 48.5 16.5t24.5 53.5z" />
<glyph unicode="&#x14b;" horiz-adv-x="561" d="M293 -202l10 56q18 -3 34 -3q63 0 74 70l64 386q12 76 -8.5 110.5t-85.5 34.5q-73 0 -126.5 -47t-67.5 -131l-46 -274h-63l84 500h63l-14 -80q63 90 180 90q182 0 148 -202l-64 -379q-23 -134 -143 -134q-16 0 -39 3z" />
<glyph unicode="&#x14c;" horiz-adv-x="732" d="M636 788h-276l8 51h276zM100 350q12 70 41.5 133t76 114.5t116 82t151.5 30.5q66 0 118 -20t82.5 -54.5t49.5 -80.5t20.5 -98t-5.5 -107q-12 -71 -42 -133.5t-76.5 -114t-116 -82t-151.5 -30.5q-109 0 -175.5 53t-85.5 132t-3 175zM685 350q13 80 -1.5 145.5t-67.5 110 t-141 44.5q-129 0 -209 -87.5t-101 -212.5q-12 -57 -4 -111t30 -96t69.5 -67.5t113.5 -25.5q129 0 209 87.5t102 212.5z" />
<glyph unicode="&#x14d;" horiz-adv-x="572" d="M522 588h-276l9 51h276zM87 250q9 50 30.5 95.5t56 83t85.5 59.5t112 22t105.5 -22.5t65.5 -59t29.5 -83t-2.5 -95.5q-9 -50 -30.5 -95.5t-56 -83t-86 -59.5t-112.5 -22t-105 22.5t-65 59t-29.5 83t2.5 95.5zM506 250q14 84 -21 143t-123 59t-143 -59t-69 -143t21 -143 t123 -59t143 59t69 143z" />
<glyph unicode="&#x14e;" horiz-adv-x="732" d="M685 350q13 80 -1.5 145.5t-67.5 110t-141 44.5q-129 0 -209 -87.5t-101 -212.5q-12 -57 -4 -111t30 -96t69.5 -67.5t113.5 -25.5q129 0 209 87.5t102 212.5zM100 350q12 70 41.5 133t76 114.5t116 82t151.5 30.5q66 0 118 -20t82.5 -54.5t49.5 -80.5t20.5 -98t-5.5 -107 q-12 -71 -42 -133.5t-76.5 -114t-116 -82t-151.5 -30.5q-109 0 -175.5 53t-85.5 132t-3 175zM369 914h53q-6 -38 15.5 -62.5t66.5 -24.5t75.5 24.5t36.5 62.5h53q-10 -60 -57 -97.5t-116 -37.5t-103 37.5t-24 97.5z" />
<glyph unicode="&#x14f;" horiz-adv-x="572" d="M506 250q14 84 -21 143t-123 59t-143 -59t-69 -143t21 -143t123 -59t143 59t69 143zM87 250q9 50 30.5 95.5t56 83t85.5 59.5t112 22t105.5 -22.5t65.5 -59t29.5 -83t-2.5 -95.5q-9 -50 -30.5 -95.5t-56 -83t-86 -59.5t-112.5 -22t-105 22.5t-65 59t-29.5 83t2.5 95.5z M255 714h53q-6 -38 16 -62.5t67 -24.5t75 24.5t36 62.5h53q-10 -60 -56.5 -97.5t-115.5 -37.5t-103.5 37.5t-24.5 97.5z" />
<glyph unicode="&#x150;" horiz-adv-x="732" d="M574 915l-130 -138h-47l94 138h83zM725 915l-130 -138h-47l94 138h83zM100 350q12 70 41.5 133t76 114.5t116 82t151.5 30.5q66 0 118 -20t82.5 -54.5t49.5 -80.5t20.5 -98t-5.5 -107q-12 -71 -42 -133.5t-76.5 -114t-116 -82t-151.5 -30.5q-109 0 -175.5 53t-85.5 132 t-3 175zM685 350q13 80 -1.5 145.5t-67.5 110t-141 44.5q-129 0 -209 -87.5t-101 -212.5q-12 -57 -4 -111t30 -96t69.5 -67.5t113.5 -25.5q129 0 209 87.5t102 212.5z" />
<glyph unicode="&#x151;" horiz-adv-x="572" d="M461 715l-130 -138h-47l94 138h83zM612 715l-130 -138h-47l94 138h83zM87 250q9 50 30.5 95.5t56 83t85.5 59.5t112 22t105.5 -22.5t65.5 -59t29.5 -83t-2.5 -95.5q-9 -50 -30.5 -95.5t-56 -83t-86 -59.5t-112.5 -22t-105 22.5t-65 59t-29.5 83t2.5 95.5zM506 250 q14 84 -21 143t-123 59t-143 -59t-69 -143t21 -143t123 -59t143 59t69 143z" />
<glyph unicode="&#x152;" horiz-adv-x="937" d="M370 60h69l97 580h-69q-125 0 -202.5 -85t-97.5 -205q-12 -54 -4 -106.5t29.5 -93t67.5 -65.5t110 -25zM477 700h514l-10 -60h-378l-43 -255h354l-10 -60h-354l-44 -265h390l-10 -60h-526q-65 0 -115.5 19.5t-81 53t-49.5 78.5t-20 95.5t6 103.5q11 68 40 129t75 111.5 t113.5 80t148.5 29.5z" />
<glyph unicode="&#x153;" horiz-adv-x="972" d="M506 250q14 84 -21 143t-123 59t-143 -59t-69 -143t21 -143t123 -59t143 59t69 143zM577 285h332q3 72 -31 119.5t-107 47.5q-74 0 -124 -47.5t-70 -119.5zM87 250q9 50 30.5 95.5t56 83t85.5 59.5t112 22q148 0 189 -120q79 120 220 120q58 0 100.5 -22.5t62.5 -59 t28 -83t-3 -95.5l-4 -23h-398q-7 -76 26.5 -127.5t110.5 -51.5q117 0 168 94h66q-69 -152 -244 -152q-141 0 -180 120q-81 -120 -229 -120q-61 0 -105 22.5t-65 59t-29.5 83t2.5 95.5z" />
<glyph unicode="&#x154;" horiz-adv-x="661" d="M478 640h-213l-51 -306h213q66 0 116.5 43t60.5 110q11 67 -24.5 110t-101.5 43zM204 274l-46 -274h-65l117 700h277q95 0 146.5 -60t35.5 -153q-13 -81 -70.5 -138t-137.5 -71l136 -278h-76l-135 274h-182zM550 915h83l-138 -138h-47z" />
<glyph unicode="&#x155;" horiz-adv-x="338" d="M461 715l-138 -138h-47l102 138h83zM78 0l84 500h63l-14 -79h2q25 39 74.5 64t103.5 25h20l-9 -55q-2 -2 -21 -2q-66 0 -124.5 -53t-70.5 -129l-45 -271h-63z" />
<glyph unicode="&#x156;" horiz-adv-x="661" d="M478 640h-213l-51 -306h213q66 0 116.5 43t60.5 110q11 67 -24.5 110t-101.5 43zM204 274l-46 -274h-65l117 700h277q95 0 146.5 -60t35.5 -153q-13 -81 -70.5 -138t-137.5 -71l136 -278h-76l-135 274h-182zM299 -219h-46l50 141h59z" />
<glyph unicode="&#x157;" horiz-adv-x="338" d="M78 0l84 500h63l-14 -79h2q25 39 74.5 64t103.5 25h20l-9 -55q-2 -2 -21 -2q-66 0 -124.5 -53t-70.5 -129l-45 -271h-63zM16 -219l50 141h59l-63 -141h-46z" />
<glyph unicode="&#x158;" horiz-adv-x="661" d="M478 640h-213l-51 -306h213q66 0 116.5 43t60.5 110q11 67 -24.5 110t-101.5 43zM204 274l-46 -274h-65l117 700h277q95 0 146.5 -60t35.5 -153q-13 -81 -70.5 -138t-137.5 -71l136 -278h-76l-135 274h-182zM477 807l102 107h63l-130 -137h-80l-84 137h63z" />
<glyph unicode="&#x159;" horiz-adv-x="338" d="M406 714h63l-129 -137h-80l-85 137h63l67 -107zM78 0l84 500h63l-14 -79h2q25 39 74.5 64t103.5 25h20l-9 -55q-2 -2 -21 -2q-66 0 -124.5 -53t-70.5 -129l-45 -271h-63z" />
<glyph unicode="&#x15a;" horiz-adv-x="614" d="M595 915l-138 -138h-47l102 138h83zM79 195h65q-5 -70 44.5 -107.5t126.5 -37.5q80 0 144.5 36t75.5 105q6 37 -8.5 62.5t-43.5 36.5t-67 20t-78.5 14t-78 17.5t-65.5 30t-40.5 52.5t-4.5 85q17 99 95.5 150t178.5 51q98 0 156.5 -52t48.5 -154h-65q5 72 -37 109t-113 37 q-74 0 -131 -36.5t-68 -105.5q-7 -41 13 -66.5t57 -36.5t82.5 -18t91 -17.5t81 -28t53.5 -55.5t8 -96q-16 -98 -101.5 -149t-193.5 -51q-105 0 -170.5 52.5t-55.5 152.5z" />
<glyph unicode="&#x15b;" horiz-adv-x="466" d="M487 715l-138 -138h-47l102 138h83zM66 141h63q-3 -45 28 -69t82 -24q54 0 95.5 22.5t49.5 66.5q6 38 -22.5 57t-72 26.5t-87 17.5t-70 40.5t-17.5 84.5q12 73 69 110t130 37t116.5 -38.5t36.5 -112.5h-63q4 46 -23.5 69.5t-74.5 23.5q-48 0 -84 -21t-44 -65 q-5 -32 14.5 -50.5t52.5 -24.5t71.5 -15t70.5 -19.5t50 -40.5t10 -76q-13 -73 -75.5 -111.5t-143.5 -38.5q-76 0 -123 39t-39 112z" />
<glyph unicode="&#x15c;" horiz-adv-x="614" d="M497 914l84 -137h-63l-66 107l-102 -107h-63l130 137h80zM79 195h65q-5 -70 44.5 -107.5t126.5 -37.5q80 0 144.5 36t75.5 105q6 37 -8.5 62.5t-43.5 36.5t-67 20t-78.5 14t-78 17.5t-65.5 30t-40.5 52.5t-4.5 85q17 99 95.5 150t178.5 51q98 0 156.5 -52t48.5 -154h-65 q5 72 -37 109t-113 37q-74 0 -131 -36.5t-68 -105.5q-7 -41 13 -66.5t57 -36.5t82.5 -18t91 -17.5t81 -28t53.5 -55.5t8 -96q-16 -98 -101.5 -149t-193.5 -51q-105 0 -170.5 52.5t-55.5 152.5z" />
<glyph unicode="&#x15d;" horiz-adv-x="466" d="M388 714l85 -137h-63l-67 107l-101 -107h-63l129 137h80zM66 141h63q-3 -45 28 -69t82 -24q54 0 95.5 22.5t49.5 66.5q6 38 -22.5 57t-72 26.5t-87 17.5t-70 40.5t-17.5 84.5q12 73 69 110t130 37t116.5 -38.5t36.5 -112.5h-63q4 46 -23.5 69.5t-74.5 23.5q-48 0 -84 -21 t-44 -65q-5 -32 14.5 -50.5t52.5 -24.5t71.5 -15t70.5 -19.5t50 -40.5t10 -76q-13 -73 -75.5 -111.5t-143.5 -38.5q-76 0 -123 39t-39 112z" />
<glyph unicode="&#x15e;" horiz-adv-x="614" d="M79 195h65q-5 -70 44.5 -107.5t126.5 -37.5q80 0 144.5 36t75.5 105q6 37 -8.5 62.5t-43.5 36.5t-67 20t-78.5 14t-78 17.5t-65.5 30t-40.5 52.5t-4.5 85q17 99 95.5 150t178.5 51q98 0 156.5 -52t48.5 -154h-65q5 72 -37 109t-113 37q-74 0 -131 -36.5t-68 -105.5 q-7 -41 13 -66.5t57 -36.5t82.5 -18t90.5 -17.5t81 -28t54 -55.5t8 -96q-15 -93 -94.5 -144t-181.5 -56l-16 -28h20q47 0 70.5 -23t16.5 -63q-8 -45 -47 -73t-96 -28q-32 0 -74 15l8 48q39 -17 72 -17q35 0 58 15.5t28 41.5q3 21 -9 32.5t-41 11.5h-49l-9 22l26 47 q-96 6 -154 58t-49 146z" />
<glyph unicode="&#x15f;" horiz-adv-x="466" d="M66 141h63q-3 -45 28 -69t82 -24q54 0 95.5 22.5t49.5 66.5q6 38 -22.5 57t-72 26.5t-87 17.5t-70 40.5t-17.5 84.5q12 73 69 110t130 37t116.5 -38.5t36.5 -112.5h-63q4 46 -23.5 69.5t-74.5 23.5q-48 0 -84 -21t-44 -65q-5 -32 14.5 -50.5t52.5 -24.5t71.5 -15 t70.5 -19.5t50 -40.5t10 -76q-12 -69 -68.5 -107t-132.5 -42l-15 -29h20q47 0 70.5 -23t16.5 -63q-8 -45 -47 -73t-96 -28q-32 0 -74 15l8 48q39 -17 72 -17q35 0 58 15.5t28 41.5q3 21 -9 32.5t-41 11.5h-49l-9 22l26 47q-66 6 -106 44.5t-33 105.5z" />
<glyph unicode="&#x160;" horiz-adv-x="614" d="M541 914h63l-130 -137h-80l-84 137h63l66 -107zM79 195h65q-5 -70 44.5 -107.5t126.5 -37.5q80 0 144.5 36t75.5 105q6 37 -8.5 62.5t-43.5 36.5t-67 20t-78.5 14t-78 17.5t-65.5 30t-40.5 52.5t-4.5 85q17 99 95.5 150t178.5 51q98 0 156.5 -52t48.5 -154h-65 q5 72 -37 109t-113 37q-74 0 -131 -36.5t-68 -105.5q-7 -41 13 -66.5t57 -36.5t82.5 -18t91 -17.5t81 -28t53.5 -55.5t8 -96q-16 -98 -101.5 -149t-193.5 -51q-105 0 -170.5 52.5t-55.5 152.5z" />
<glyph unicode="&#x161;" horiz-adv-x="466" d="M432 714h63l-129 -137h-80l-85 137h63l67 -107zM66 141h63q-3 -45 28 -69t82 -24q54 0 95.5 22.5t49.5 66.5q6 38 -22.5 57t-72 26.5t-87 17.5t-70 40.5t-17.5 84.5q12 73 69 110t130 37t116.5 -38.5t36.5 -112.5h-63q4 46 -23.5 69.5t-74.5 23.5q-48 0 -84 -21t-44 -65 q-5 -32 14.5 -50.5t52.5 -24.5t71.5 -15t70.5 -19.5t50 -40.5t10 -76q-13 -73 -75.5 -111.5t-143.5 -38.5q-76 0 -123 39t-39 112z" />
<glyph unicode="&#x162;" horiz-adv-x="565" d="M422 640l-107 -640h-10l-21 -38h20q47 0 70.5 -23t16.5 -63q-8 -45 -47 -73t-96 -28q-32 0 -74 15l8 48q39 -17 72 -17q35 0 58 15.5t28 41.5q3 21 -9 32.5t-41 11.5h-49l-9 22l31 56h-13l107 640h-229l10 60h523l-10 -60h-229z" />
<glyph unicode="&#x163;" horiz-adv-x="367" d="M315 4q-42 -14 -84 -14q-22 0 -35 4l-18 -32h20q47 0 70.5 -23t16.5 -63q-8 -45 -47 -73t-96 -28q-32 0 -74 15l8 48q39 -17 72 -17q35 0 58 15.5t28 41.5q3 21 -9 32.5t-41 11.5h-49l-9 22l37 65q-44 32 -30 115l54 324h-93l9 52h93l23 140h63l-23 -140h139l-9 -52h-139 l-56 -332q-11 -70 51 -70q41 0 79 16z" />
<glyph unicode="&#x164;" horiz-adv-x="565" d="M520 914h63l-130 -137h-80l-84 137h63l66 -107zM422 640l-107 -640h-65l107 640h-229l10 60h523l-10 -60h-229z" />
<glyph unicode="&#x165;" horiz-adv-x="367" d="M509 700l-100 -138h-52l64 138h88zM315 4q-42 -14 -84 -14q-121 0 -98 134l54 324h-93l9 52h93l23 140h63l-23 -140h139l-9 -52h-139l-56 -332q-11 -70 51 -70q41 0 79 16z" />
<glyph unicode="&#x166;" horiz-adv-x="566" d="M514 323h-145l-54 -323h-65l54 323h-145l9 54h145l44 263h-229l10 60h523l-10 -60h-229l-44 -263h145z" />
<glyph unicode="&#x167;" horiz-adv-x="368" d="M315 4q-42 -14 -84 -14q-121 0 -98 134l23 140h-80l9 50h80l22 134h-93l9 52h93l23 140h63l-23 -140h139l-9 -52h-139l-22 -134h126l-9 -50h-126l-25 -148q-11 -70 51 -70q41 0 79 16z" />
<glyph unicode="&#x168;" horiz-adv-x="716" d="M389 779h-45q8 36 34.5 62t65.5 26q18 0 58 -10t61 -10q31 0 41 34h45q-7 -36 -33.5 -62t-65.5 -26q-18 0 -58 10t-61 10q-30 0 -42 -34zM614 275l71 425h65l-72 -432q-7 -40 -21 -77t-40 -74.5t-60.5 -65t-86.5 -44.5t-114 -17t-108.5 17t-71 45t-39.5 64t-14 75t5 77 l72 432h65l-71 -425q-9 -39 -3 -79t21.5 -72.5t55.5 -53t98 -20.5t104.5 20t75 54t45 71.5t23.5 79.5z" />
<glyph unicode="&#x169;" horiz-adv-x="560" d="M276 579h-45q7 36 34 62t66 26q17 0 57 -10t61 -10q32 0 42 34h45q-7 -36 -34 -62t-66 -26q-18 0 -58 10t-60 10q-32 0 -42 -34zM157 500h63l-52 -307q-13 -76 8.5 -110.5t86.5 -34.5q73 0 126.5 47t67.5 131l46 274h63l-84 -500h-63l13 80q-29 -43 -77 -66.5t-103 -23.5 q-181 0 -147 202z" />
<glyph unicode="&#x16a;" horiz-adv-x="716" d="M628 788h-276l8 51h276zM614 275l71 425h65l-72 -432q-7 -40 -21 -77t-40 -74.5t-60.5 -65t-86.5 -44.5t-114 -17t-108.5 17t-71 45t-39.5 64t-14 75t5 77l72 432h65l-71 -425q-9 -39 -3 -79t21.5 -72.5t55.5 -53t98 -20.5t104.5 20t75 54t45 71.5t23.5 79.5z" />
<glyph unicode="&#x16b;" horiz-adv-x="560" d="M514 588h-276l9 51h276zM157 500h63l-52 -307q-13 -76 8.5 -110.5t86.5 -34.5q73 0 126.5 47t67.5 131l46 274h63l-84 -500h-63l13 80q-29 -43 -77 -66.5t-103 -23.5q-181 0 -147 202z" />
<glyph unicode="&#x16c;" horiz-adv-x="716" d="M361 914h53q-6 -38 15.5 -62.5t66.5 -24.5t75.5 24.5t36.5 62.5h53q-10 -60 -57 -97.5t-116 -37.5t-103 37.5t-24 97.5zM614 275l71 425h65l-72 -432q-7 -40 -21 -77t-40 -74.5t-60.5 -65t-86.5 -44.5t-114 -17t-108.5 17t-71 45t-39.5 64t-14 75t5 77l72 432h65 l-71 -425q-9 -39 -3 -79t21.5 -72.5t55.5 -53t98 -20.5t104.5 20t75 54t45 71.5t23.5 79.5z" />
<glyph unicode="&#x16d;" horiz-adv-x="560" d="M247 714h53q-6 -38 16 -62.5t67 -24.5t75 24.5t36 62.5h53q-10 -60 -56.5 -97.5t-115.5 -37.5t-103.5 37.5t-24.5 97.5zM157 500h63l-52 -307q-13 -76 8.5 -110.5t86.5 -34.5q73 0 126.5 47t67.5 131l46 274h63l-84 -500h-63l13 80q-29 -43 -77 -66.5t-103 -23.5 q-181 0 -147 202z" />
<glyph unicode="&#x16e;" horiz-adv-x="716" d="M554 859q4 23 -8.5 38t-34.5 15t-39.5 -15t-21.5 -38t8.5 -38t34.5 -15t39.5 15t21.5 38zM614 275l71 425h65l-72 -432q-7 -40 -21 -77t-40 -74.5t-60.5 -65t-86.5 -44.5t-114 -17t-108.5 17t-71 45t-39.5 64t-14 75t5 77l72 432h65l-71 -425q-9 -39 -3 -79t21.5 -72.5 t55.5 -53t98 -20.5t104.5 20t75 54t45 71.5t23.5 79.5zM403 859q7 42 39.5 69.5t75.5 27.5t66.5 -27.5t16.5 -69.5t-39.5 -69.5t-75.5 -27.5t-66.5 27.5t-16.5 69.5z" />
<glyph unicode="&#x16f;" horiz-adv-x="560" d="M440 659q4 23 -8.5 38t-34.5 15t-39.5 -15t-21.5 -38t8.5 -38t34.5 -15t39.5 15t21.5 38zM105 192l52 308h63l-52 -307q-13 -76 8.5 -110.5t86.5 -34.5q73 0 126.5 47t67.5 131l46 274h63l-84 -500h-63l13 80q-29 -43 -77 -66.5t-103 -23.5q-181 0 -147 202zM289 659 q7 41 40 69t76 28t66 -27.5t16 -69.5t-39.5 -69.5t-75.5 -27.5t-66.5 27.5t-16.5 69.5z" />
<glyph unicode="&#x170;" horiz-adv-x="716" d="M566 915l-130 -138h-47l94 138h83zM717 915l-130 -138h-47l94 138h83zM614 275l71 425h65l-72 -432q-7 -40 -21 -77t-40 -74.5t-60.5 -65t-86.5 -44.5t-114 -17t-108.5 17t-71 45t-39.5 64t-14 75t5 77l72 432h65l-71 -425q-9 -39 -3 -79t21.5 -72.5t55.5 -53t98 -20.5 t104.5 20t75 54t45 71.5t23.5 79.5z" />
<glyph unicode="&#x171;" horiz-adv-x="560" d="M453 715l-130 -138h-47l94 138h83zM604 715l-130 -138h-47l94 138h83zM157 500h63l-52 -307q-13 -76 8.5 -110.5t86.5 -34.5q73 0 126.5 47t67.5 131l46 274h63l-84 -500h-63l13 80q-29 -43 -77 -66.5t-103 -23.5q-181 0 -147 202z" />
<glyph unicode="&#x172;" horiz-adv-x="716" d="M614 275l71 425h65l-72 -432q-8 -49 -28 -94t-54.5 -86.5t-91 -68t-128.5 -29.5q-81 -65 -91 -122q-8 -44 34 -44q26 0 42 8l-8 -46q-20 -11 -52 -11q-38 0 -59.5 23.5t-14.5 63.5q11 71 93 130q-53 5 -92 24t-60 46.5t-33.5 62t-11.5 71t5 72.5l72 432h65l-71 -425 q-9 -39 -3 -79t21.5 -72.5t55.5 -53t98 -20.5t104.5 20t75 54t45 71.5t23.5 79.5z" />
<glyph unicode="&#x173;" horiz-adv-x="560" d="M157 500h63l-52 -307q-13 -76 8.5 -110.5t86.5 -34.5q73 0 126.5 47t67.5 131l46 274h63l-84 -500q-34 -24 -66 -60.5t-38 -71.5q-8 -44 34 -44q26 0 42 8l-8 -46q-20 -11 -52 -11q-38 0 -59.5 23.5t-14.5 63.5q13 77 105 138h-6l13 80q-29 -43 -77 -66.5t-103 -23.5 q-181 0 -147 202z" />
<glyph unicode="&#x174;" horiz-adv-x="978" d="M682 914l84 -137h-63l-66 107l-102 -107h-63l130 137h80zM212 700l56 -680h2l277 680h118l49 -680h2l284 680h68l-297 -700h-118l-49 680h-2l-277 -680h-118l-63 700h68z" />
<glyph unicode="&#x175;" horiz-adv-x="762" d="M540 714l85 -137h-63l-67 107l-101 -107h-63l129 137h80zM175 500l43 -485h2l187 485h116l25 -485h2l205 485h65l-216 -500h-116l-25 485h-2l-187 -485h-116l-48 500h65z" />
<glyph unicode="&#x176;" horiz-adv-x="601" d="M494 914l84 -137h-63l-66 107l-102 -107h-63l130 137h80zM291 285l-156 415h73l143 -395h1l275 395h73l-294 -415h-25l-48 -285h-65l48 285h-25z" />
<glyph unicode="&#x177;" horiz-adv-x="511" d="M414 714l85 -137h-63l-67 107l-101 -107h-63l129 137h80zM577 500l-362 -695h-66l102 195h-55l-95 500h66l90 -485h2l252 485h66z" />
<glyph unicode="&#x178;" horiz-adv-x="601" d="M310 828q2 17 16 29t31 12t27 -12t8 -29q-3 -17 -17 -29t-31 -12t-27 12t-7 29zM488 828q2 17 16 29t31 12t27 -12t8 -29q-3 -17 -17 -29t-31 -12t-27 12t-7 29zM291 285l-156 415h73l143 -395h1l275 395h73l-294 -415h-25l-48 -285h-65l48 285h-25z" />
<glyph unicode="&#x179;" horiz-adv-x="581" d="M581 915l-138 -138h-47l102 138h83zM657 700l-12 -70l-529 -570h440l-10 -60h-511l12 70l529 570h-422l10 60h493z" />
<glyph unicode="&#x17a;" horiz-adv-x="467" d="M491 715l-138 -138h-47l102 138h83zM500 500l-11 -63l-361 -379h303l-10 -58h-375l11 63l361 379h-284l10 58h356z" />
<glyph unicode="&#x17b;" horiz-adv-x="581" d="M388 829q3 17 17 29t31 12t27 -12t7 -29t-17 -29t-31 -12t-27 12t-7 29zM657 700l-12 -70l-529 -570h440l-10 -60h-511l12 70l529 570h-422l10 60h493z" />
<glyph unicode="&#x17c;" horiz-adv-x="467" d="M297 629q3 17 17 29t31 12t27 -12t7 -29t-17 -29t-31 -12t-27 12t-7 29zM500 500l-11 -63l-361 -379h303l-10 -58h-375l11 63l361 379h-284l10 58h356z" />
<glyph unicode="&#x17d;" horiz-adv-x="581" d="M527 914h63l-130 -137h-80l-84 137h63l66 -107zM657 700l-12 -70l-529 -570h440l-10 -60h-511l12 70l529 570h-422l10 60h493z" />
<glyph unicode="&#x17e;" horiz-adv-x="467" d="M436 714h63l-129 -137h-80l-85 137h63l67 -107zM500 500l-11 -63l-361 -379h303l-10 -58h-375l11 63l361 379h-284l10 58h356z" />
<glyph unicode="&#x17f;" horiz-adv-x="329" d="M103 500h93l14 86q22 134 143 134q42 0 79 -14l-10 -59q-33 16 -74 16q-63 0 -74 -70l-99 -593h-63l75 448h-93z" />
<glyph unicode="&#x186;" horiz-adv-x="703" d="M344 50q129 0 209 87.5t102 212.5q13 80 -1.5 145.5t-67.5 110t-141 44.5q-186 0 -261 -191h-65q41 115 124 183t212 68q66 0 118 -20t82.5 -54.5t49.5 -80.5t20.5 -98t-5.5 -107q-12 -71 -42 -133.5t-76.5 -114t-116 -82t-151.5 -30.5q-129 0 -189 68t-63 183h65 q11 -191 197 -191z" />
<glyph unicode="&#x189;" horiz-adv-x="700" d="M230 700h228q81 0 139 -30t85 -79t38 -112t-3 -129q-12 -68 -41 -129t-74 -111.5t-112.5 -80t-148.5 -29.5h-228l54 323h-78l9 54h78zM188 60h163q125 0 202.5 84.5t98.5 205.5q13 77 -1.5 140.5t-66 106.5t-136.5 43h-163l-44 -263h188l-9 -54h-188z" />
<glyph unicode="&#x18e;" horiz-adv-x="599" d="M494 325h-354l10 60h354l43 255h-378l10 60h443l-117 -700h-455l10 60h390z" />
<glyph unicode="&#x18f;" horiz-adv-x="711" d="M648 286h-492q-15 -236 196 -236q112 0 187.5 66.5t108.5 169.5zM728 350q-12 -71 -42 -133.5t-76.5 -114t-116 -82t-151.5 -30.5q-66 0 -115 19t-77 52t-44 78t-15.5 97.5t8.5 109.5h563q22 131 -30 217.5t-179 86.5q-191 0 -261 -191h-65q40 116 122.5 183.5 t213.5 67.5q66 0 118 -20t82.5 -54.5t49.5 -80.5t20.5 -98t-5.5 -107z" />
<glyph unicode="&#x190;" horiz-adv-x="614" d="M359 319q-83 0 -144.5 -31.5t-72.5 -98.5q-12 -69 39.5 -104t132.5 -35q78 0 140 36.5t81 108.5h65q-24 -100 -107.5 -152.5t-188.5 -52.5q-107 0 -175 51.5t-52 147.5q19 116 149 164q-89 48 -71 157q16 97 95 148.5t178 51.5q98 0 156.5 -52t48.5 -154h-65 q6 74 -36 110t-114 36q-74 0 -130 -35t-68 -105q-11 -69 32.5 -100t119.5 -31h72l-10 -60h-75z" />
<glyph unicode="&#x192;" horiz-adv-x="518" d="M224 -79q-22 -66 -61 -96t-103 -30q-42 0 -75 14l20 59q27 -15 68 -15q65 0 88 68l132 404h-111l9 52h120l68 207q22 66 61 96t103 30q41 0 74 -14l-19 -59q-28 15 -69 15q-34 0 -54.5 -16t-32.5 -52l-68 -207h112l-9 -52h-121z" />
<glyph unicode="&#x197;" horiz-adv-x="291" d="M113 0l54 323h-78l9 54h78l54 323h65l-54 -323h78l-9 -54h-78l-54 -323h-65z" />
<glyph unicode="&#x19d;" horiz-adv-x="742" d="M210 700h126l248 -680h2l114 680h65l-117 -700h-126l-248 680h-2l-126 -751q-22 -134 -143 -134q-21 0 -41 4l10 59q19 -3 35 -3q62 0 73 70z" />
<glyph unicode="&#x1a0;" horiz-adv-x="733" d="M685 350q13 80 -1.5 145.5t-67.5 110t-141 44.5q-129 0 -209 -87.5t-101 -212.5q-12 -57 -4 -111t30 -96t69.5 -67.5t113.5 -25.5q129 0 209 87.5t102 212.5zM100 350q12 70 41.5 133t76 114.5t116 82t151.5 30.5t140 -30q33 0 54.5 12t30.5 34.5t11 43.5t1 50h60 q8 -148 -95 -186q93 -99 63 -284q-12 -71 -42 -133.5t-76.5 -114t-116 -82t-151.5 -30.5q-109 0 -175.5 53t-85.5 132t-3 175z" />
<glyph unicode="&#x1a1;" horiz-adv-x="577" d="M506 250q14 84 -21 143t-123 59t-143 -59t-69 -143t21 -143t123 -59t143 59t69 143zM87 250q9 50 30.5 95.5t56 83t85.5 59.5t112 22q72 0 119 -30q33 0 54.5 12t30.5 34t11.5 43.5t1.5 50.5h60q4 -73 -22 -122.5t-86 -66.5q47 -72 29 -181q-9 -50 -30.5 -95.5t-56 -83 t-86 -59.5t-112.5 -22t-105 22.5t-65 59t-29.5 83t2.5 95.5z" />
<glyph unicode="&#x1af;" horiz-adv-x="726" d="M614 275l71 425h33q34 0 55.5 12t30.5 34t11.5 43.5t1.5 50.5h60q4 -81 -29 -133.5t-107 -61.5l-63 -377q-7 -40 -21 -77t-40 -74.5t-60.5 -65t-86.5 -44.5t-114 -17t-108.5 17t-71 45t-39.5 64t-14 75t5 77l72 432h65l-71 -425q-9 -39 -3 -79t21.5 -72.5t55.5 -53 t98 -20.5t104.5 20t75 54t45 71.5t23.5 79.5z" />
<glyph unicode="&#x1b0;" horiz-adv-x="580" d="M157 500h63l-52 -307q-13 -76 8.5 -110.5t86.5 -34.5q73 0 126.5 47t67.5 131l46 274h31q34 0 55.5 12t30.5 34t11 43.5t1 50.5h60q5 -81 -28 -133.5t-108 -61.5l-74 -445h-63l13 80q-29 -43 -77 -66.5t-103 -23.5q-181 0 -147 202z" />
<glyph unicode="&#x1b5;" horiz-adv-x="581" d="M657 700l-12 -70l-235 -253h158l-9 -54h-199l-244 -263h440l-10 -60h-511l12 70l235 253h-158l9 54h199l244 263h-422l10 60h493z" />
<glyph unicode="&#x1b6;" horiz-adv-x="467" d="M500 500l-11 -63l-154 -162h97l-8 -50h-137l-159 -167h303l-10 -58h-375l11 63l154 162h-97l8 50h137l159 167h-284l10 58h356z" />
<glyph unicode="&#x1c4;" horiz-adv-x="1260" d="M168 60h163q125 0 202.5 84.5t98.5 205.5q13 77 -1.5 140.5t-66 106.5t-136.5 43h-163zM210 700h228q81 0 139 -30t85 -79t38 -112t-3 -129q-12 -68 -41 -129t-74 -111.5t-112.5 -80t-148.5 -29.5h-228zM843 700h493l-12 -70l-529 -570h440l-10 -60h-511l12 70l529 570 h-422zM1104 807l102 107h63l-130 -137h-80l-84 137h63z" />
<glyph unicode="&#x1c5;" horiz-adv-x="1146" d="M168 60h163q125 0 202.5 84.5t98.5 205.5q13 77 -1.5 140.5t-66 106.5t-136.5 43h-163zM210 700h228q81 0 139 -30t85 -79t38 -112t-3 -129q-12 -68 -41 -129t-74 -111.5t-112.5 -80t-148.5 -29.5h-228zM823 500h356l-11 -63l-361 -379h303l-10 -58h-375l11 63l361 379 h-284zM1014 607l101 107h63l-129 -137h-80l-85 137h63z" />
<glyph unicode="&#x1c6;" horiz-adv-x="1072" d="M506 250q14 84 -20.5 143t-123.5 59t-143.5 -59t-68.5 -143t20.5 -143t123.5 -59t143.5 59t68.5 143zM527 0h-63l14 83q-78 -93 -201 -93q-117 0 -162.5 76.5t-27.5 183.5t89 183.5t188 76.5q123 0 170 -93l47 283h63zM749 500h356l-11 -63l-361 -379h303l-10 -58h-375 l11 63l361 379h-284zM940 607l101 107h63l-129 -137h-80l-85 137h63z" />
<glyph unicode="&#x1c7;" horiz-adv-x="1083" d="M275 700l-107 -640h375l-10 -60h-440l117 700h65zM791 50q80 0 124 49.5t57 124.5l80 476h65l-80 -476q-17 -100 -79.5 -167t-176.5 -67q-59 0 -100 20t-58.5 53t-24 75t4.5 86l9 48h65l-9 -48q-13 -74 15 -124t108 -50z" />
<glyph unicode="&#x1c8;" horiz-adv-x="760" d="M718 666q4 19 18.5 31t32.5 12t28.5 -12t6.5 -31q-3 -19 -17.5 -31t-32.5 -12t-28.5 12t-7.5 31zM275 700l-107 -640h375l-10 -60h-440l117 700h65zM488 -203l9 56q13 -2 35 -2q63 0 74 70l97 579h63l-96 -571q-22 -134 -143 -134q-11 0 -39 2z" />
<glyph unicode="&#x1c9;" horiz-adv-x="438" d="M396 666q4 19 18.5 31t32.5 12t28.5 -12t6.5 -31q-3 -19 -17.5 -31t-32.5 -12t-28.5 12t-7.5 31zM78 0l117 700h63l-117 -700h-63zM166 -203l9 56q13 -2 35 -2q63 0 74 70l97 579h63l-96 -571q-22 -134 -143 -134q-11 0 -39 2z" />
<glyph unicode="&#x1ca;" horiz-adv-x="1283" d="M336 700l248 -680h2l114 680h65l-117 -700h-126l-248 680h-2l-114 -680h-65l117 700h126zM991 50q80 0 124 49.5t57 124.5l80 476h65l-80 -476q-17 -100 -79.5 -167t-176.5 -67q-59 0 -100 20t-58.5 53t-24 75t4.5 86l9 48h65l-9 -48q-13 -74 15 -124t108 -50z" />
<glyph unicode="&#x1cb;" horiz-adv-x="960" d="M918 666q4 19 18.5 31t32.5 12t28.5 -12t6.5 -31q-3 -19 -17.5 -31t-32.5 -12t-28.5 12t-7.5 31zM336 700l248 -680h2l114 680h65l-117 -700h-126l-248 680h-2l-114 -680h-65l117 700h126zM688 -203l9 56q13 -2 35 -2q63 0 74 70l97 579h63l-96 -571q-22 -134 -143 -134 q-11 0 -39 2z" />
<glyph unicode="&#x1cc;" horiz-adv-x="779" d="M737 666q4 19 18.5 31t32.5 12t28.5 -12t6.5 -31q-3 -19 -17.5 -31t-32.5 -12t-28.5 12t-7.5 31zM487 0h-63l51 307q12 76 -8.5 110.5t-85.5 34.5q-73 0 -126.5 -47t-67.5 -131l-46 -274h-63l84 500h63l-14 -80q63 90 180 90q182 0 148 -202zM507 -203l9 56q13 -2 35 -2 q63 0 74 70l97 579h63l-96 -571q-22 -134 -143 -134q-11 0 -39 2z" />
<glyph unicode="&#x1cd;" horiz-adv-x="656" d="M441 680l-226 -430h310l-82 430h-2zM84 0h-71l374 700h116l140 -700h-71l-36 190h-352zM463 807l102 107h63l-130 -137h-80l-84 137h63z" />
<glyph unicode="&#x1ce;" horiz-adv-x="606" d="M506 250q14 84 -20.5 143t-123.5 59t-143.5 -59t-68.5 -143t20.5 -143t123.5 -59t143.5 59t68.5 143zM527 0h-63l14 83q-78 -93 -201 -93q-117 0 -162.5 76.5t-27.5 183.5t89 183.5t188 76.5q123 0 170 -93l14 83h63zM388 607l101 107h63l-129 -137h-80l-85 137h63z" />
<glyph unicode="&#x1cf;" horiz-adv-x="251" d="M363 914h63l-130 -137h-80l-84 137h63l66 -107zM93 0l117 700h65l-117 -700h-65z" />
<glyph unicode="&#x1d0;" horiz-adv-x="219" d="M312 714h63l-129 -137h-80l-85 137h63l67 -107zM78 0l84 500h63l-84 -500h-63z" />
<glyph unicode="&#x1d1;" horiz-adv-x="732" d="M685 350q13 80 -1.5 145.5t-67.5 110t-141 44.5q-129 0 -209 -87.5t-101 -212.5q-12 -57 -4 -111t30 -96t69.5 -67.5t113.5 -25.5q129 0 209 87.5t102 212.5zM100 350q12 70 41.5 133t76 114.5t116 82t151.5 30.5q66 0 118 -20t82.5 -54.5t49.5 -80.5t20.5 -98t-5.5 -107 q-12 -71 -42 -133.5t-76.5 -114t-116 -82t-151.5 -30.5q-109 0 -175.5 53t-85.5 132t-3 175zM501 807l102 107h63l-130 -137h-80l-84 137h63z" />
<glyph unicode="&#x1d2;" horiz-adv-x="572" d="M506 250q14 84 -21 143t-123 59t-143 -59t-69 -143t21 -143t123 -59t143 59t69 143zM87 250q9 50 30.5 95.5t56 83t85.5 59.5t112 22t105.5 -22.5t65.5 -59t29.5 -83t-2.5 -95.5q-9 -50 -30.5 -95.5t-56 -83t-86 -59.5t-112.5 -22t-105 22.5t-65 59t-29.5 83t2.5 95.5z M388 607l101 107h63l-129 -137h-80l-85 137h63z" />
<glyph unicode="&#x1d3;" horiz-adv-x="716" d="M595 914h63l-130 -137h-80l-84 137h63l66 -107zM614 275l71 425h65l-72 -432q-7 -40 -21 -77t-40 -74.5t-60.5 -65t-86.5 -44.5t-114 -17t-108.5 17t-71 45t-39.5 64t-14 75t5 77l72 432h65l-71 -425q-9 -39 -3 -79t21.5 -72.5t55.5 -53t98 -20.5t104.5 20t75 54t45 71.5 t23.5 79.5z" />
<glyph unicode="&#x1d4;" horiz-adv-x="560" d="M481 714h63l-129 -137h-80l-85 137h63l67 -107zM157 500h63l-52 -307q-13 -76 8.5 -110.5t86.5 -34.5q73 0 126.5 47t67.5 131l46 274h63l-84 -500h-63l13 80q-29 -43 -77 -66.5t-103 -23.5q-181 0 -147 202z" />
<glyph unicode="&#x1d5;" horiz-adv-x="716" d="M628 788h-276l8 51h276zM339 664q3 17 17 29t31 12t27 -12t7 -29t-17 -29t-31 -12t-27 12t-7 29zM517 664q3 17 17 29t31 12t27 -12t7 -29t-17 -29t-31 -12t-27 12t-7 29zM614 275l71 425h65l-72 -432q-7 -40 -21 -77t-40 -74.5t-60.5 -65t-86.5 -44.5t-114 -17 t-108.5 17t-71 45t-39.5 64t-14 75t5 77l72 432h65l-71 -425q-9 -39 -3 -79t21.5 -72.5t55.5 -53t98 -20.5t104.5 20t75 54t45 71.5t23.5 79.5z" />
<glyph unicode="&#x1d6;" horiz-adv-x="560" d="M543 757h-276l8 51h276zM253 628q3 17 17 29t31 12t27 -12t7 -29t-17 -29t-31 -12t-27 12t-7 29zM431 628q3 17 17 29t31 12t27 -12t7 -29t-17 -29t-31 -12t-27 12t-7 29zM157 500h63l-52 -307q-13 -76 8.5 -110.5t86.5 -34.5q73 0 126.5 47t67.5 131l46 274h63l-84 -500 h-63l13 80q-29 -43 -77 -66.5t-103 -23.5q-181 0 -147 202z" />
<glyph unicode="&#x1d7;" horiz-adv-x="716" d="M649 915l-138 -138h-47l102 138h83zM339 664q3 17 17 29t31 12t27 -12t7 -29t-17 -29t-31 -12t-27 12t-7 29zM517 664q3 17 17 29t31 12t27 -12t7 -29t-17 -29t-31 -12t-27 12t-7 29zM614 275l71 425h65l-72 -432q-7 -40 -21 -77t-40 -74.5t-60.5 -65t-86.5 -44.5 t-114 -17t-108.5 17t-71 45t-39.5 64t-14 75t5 77l72 432h65l-71 -425q-9 -39 -3 -79t21.5 -72.5t55.5 -53t98 -20.5t104.5 20t75 54t45 71.5t23.5 79.5z" />
<glyph unicode="&#x1d8;" horiz-adv-x="560" d="M564 884l-138 -138h-47l102 138h83zM253 628q3 17 17 29t31 12t27 -12t7 -29t-17 -29t-31 -12t-27 12t-7 29zM431 628q3 17 17 29t31 12t27 -12t7 -29t-17 -29t-31 -12t-27 12t-7 29zM157 500h63l-52 -307q-13 -76 8.5 -110.5t86.5 -34.5q73 0 126.5 47t67.5 131l46 274 h63l-84 -500h-63l13 80q-29 -43 -77 -66.5t-103 -23.5q-181 0 -147 202z" />
<glyph unicode="&#x1d9;" horiz-adv-x="716" d="M595 914h63l-130 -137h-80l-84 137h63l66 -107zM339 664q3 17 17 29t31 12t27 -12t7 -29t-17 -29t-31 -12t-27 12t-7 29zM517 664q3 17 17 29t31 12t27 -12t7 -29t-17 -29t-31 -12t-27 12t-7 29zM614 275l71 425h65l-72 -432q-7 -40 -21 -77t-40 -74.5t-60.5 -65 t-86.5 -44.5t-114 -17t-108.5 17t-71 45t-39.5 64t-14 75t5 77l72 432h65l-71 -425q-9 -39 -3 -79t21.5 -72.5t55.5 -53t98 -20.5t104.5 20t75 54t45 71.5t23.5 79.5z" />
<glyph unicode="&#x1da;" horiz-adv-x="560" d="M510 883h63l-130 -137h-80l-84 137h63l66 -107zM253 628q3 17 17 29t31 12t27 -12t7 -29t-17 -29t-31 -12t-27 12t-7 29zM431 628q3 17 17 29t31 12t27 -12t7 -29t-17 -29t-31 -12t-27 12t-7 29zM157 500h63l-52 -307q-13 -76 8.5 -110.5t86.5 -34.5q73 0 126.5 47 t67.5 131l46 274h63l-84 -500h-63l13 80q-29 -43 -77 -66.5t-103 -23.5q-181 0 -147 202z" />
<glyph unicode="&#x1db;" horiz-adv-x="716" d="M373 915h83l56 -138h-47zM339 664q3 17 17 29t31 12t27 -12t7 -29t-17 -29t-31 -12t-27 12t-7 29zM517 664q3 17 17 29t31 12t27 -12t7 -29t-17 -29t-31 -12t-27 12t-7 29zM614 275l71 425h65l-72 -432q-7 -40 -21 -77t-40 -74.5t-60.5 -65t-86.5 -44.5t-114 -17 t-108.5 17t-71 45t-39.5 64t-14 75t5 77l72 432h65l-71 -425q-9 -39 -3 -79t21.5 -72.5t55.5 -53t98 -20.5t104.5 20t75 54t45 71.5t23.5 79.5z" />
<glyph unicode="&#x1dc;" horiz-adv-x="560" d="M288 884h83l56 -138h-47zM253 628q3 17 17 29t31 12t27 -12t7 -29t-17 -29t-31 -12t-27 12t-7 29zM431 628q3 17 17 29t31 12t27 -12t7 -29t-17 -29t-31 -12t-27 12t-7 29zM157 500h63l-52 -307q-13 -76 8.5 -110.5t86.5 -34.5q73 0 126.5 47t67.5 131l46 274h63 l-84 -500h-63l13 80q-29 -43 -77 -66.5t-103 -23.5q-181 0 -147 202z" />
<glyph unicode="&#x1de;" horiz-adv-x="656" d="M441 680l-226 -430h310l-82 430h-2zM84 0h-71l374 700h116l140 -700h-71l-36 190h-352zM230 664q3 17 17 29t31 12t27 -12t7 -29t-17 -29t-31 -12t-27 12t-7 29zM606 839l-8 -51h-276l8 51h276zM566 664q3 17 17 29t31 12t27 -12t7 -29t-17 -29t-31 -12t-27 12t-7 29z " />
<glyph unicode="&#x1df;" horiz-adv-x="605" d="M506 250q14 84 -20.5 143t-123.5 59t-143.5 -59t-68.5 -143t20.5 -143t123.5 -59t143.5 59t68.5 143zM527 0h-63l14 83q-78 -93 -201 -93q-117 0 -162.5 76.5t-27.5 183.5t89 183.5t188 76.5q123 0 170 -93l14 83h63zM261 628q3 17 17 29t31 12t27 -12t7 -29t-17 -29 t-31 -12t-27 12t-7 29zM559 808l-8 -51h-276l8 51h276zM439 628q3 17 17 29t31 12t27 -12t7 -29t-17 -29t-31 -12t-27 12t-7 29z" />
<glyph unicode="&#x1e2;" horiz-adv-x="1010" d="M616 680l-331 -430h261l72 430h-2zM92 0h-79l547 700h504l-10 -60h-378l-43 -255h354l-10 -60h-354l-44 -265h390l-10 -60h-455l32 190h-297zM815 839l-8 -51h-276l8 51h276z" />
<glyph unicode="&#x1e3;" horiz-adv-x="970" d="M506 250q14 84 -20.5 143t-123.5 59t-143.5 -59t-68.5 -143t20.5 -143t123.5 -59t143.5 59t68.5 143zM576 285h332q2 72 -31.5 119.5t-106.5 47.5t-123.5 -47.5t-70.5 -119.5zM527 0h-63l14 83q-78 -93 -201 -93q-117 0 -162.5 76.5t-27.5 183.5t89 183.5t188 76.5 q123 0 170 -93l14 83h63l-14 -83q73 93 182 93q58 0 100.5 -22.5t62.5 -59t28 -83t-3 -95.5l-4 -23h-398q-7 -76 26.5 -127.5t110.5 -51.5q117 0 168 94h66q-69 -152 -244 -152q-109 0 -151 93zM741 639l-9 -51h-276l9 51h276z" />
<glyph unicode="&#x1e6;" horiz-adv-x="744" d="M603 914h63l-130 -137h-80l-84 137h63l66 -107zM100 350q12 70 41.5 133t76 114.5t116 82t151.5 30.5q131 0 191 -68t61 -183h-65q-7 191 -197 191q-129 0 -209 -87.5t-101 -212.5q-14 -80 0.5 -145.5t67 -110t139.5 -44.5q214 0 280 237h-238l10 60h303l-58 -347h-42 l2 121q-88 -131 -265 -131q-109 0 -175.5 53t-85.5 132t-3 175z" />
<glyph unicode="&#x1e7;" horiz-adv-x="595" d="M506 250q14 84 -20.5 143t-123.5 59t-143.5 -59t-68.5 -143t20.5 -143t123.5 -59t143.5 59t68.5 143zM468 21l10 62q-78 -93 -201 -93q-117 0 -162.5 76.5t-27.5 183.5t89 183.5t188 76.5q123 0 170 -93l14 83h63l-80 -479q-20 -116 -99.5 -171t-181.5 -55q-72 0 -128 29 t-74 88h79q31 -59 133 -59q76 0 135 40.5t73 127.5zM388 607l101 107h63l-129 -137h-80l-85 137h63z" />
<glyph unicode="&#x1e8;" horiz-adv-x="602" d="M586 914h63l-130 -137h-80l-84 137h63l66 -107zM275 700l-57 -344l397 344h91l-404 -350l302 -350h-94l-295 342l-57 -342h-65l117 700h65z" />
<glyph unicode="&#x1e9;" horiz-adv-x="509" d="M346 914h63l-130 -137h-80l-84 137h63l66 -107zM258 700l-74 -444l299 244h84l-307 -250l238 -250h-88l-229 242l-40 -242h-63l117 700h63z" />
<glyph unicode="&#x1ea;" horiz-adv-x="732" d="M685 350q13 80 -1.5 145.5t-67.5 110t-141 44.5q-129 0 -209 -87.5t-101 -212.5q-12 -57 -4 -111t30 -96t69.5 -67.5t113.5 -25.5q129 0 209 87.5t102 212.5zM100 350q12 70 41.5 133t76 114.5t116 82t151.5 30.5q66 0 118 -20t82.5 -54.5t49.5 -80.5t20.5 -98t-5.5 -107 q-25 -145 -119.5 -249t-246.5 -111q-81 -65 -91 -122q-8 -44 34 -44q26 0 42 8l-8 -46q-20 -11 -52 -11q-38 0 -59.5 23.5t-14.5 63.5q11 71 93 130q-95 9 -153 63t-74 129.5t-1 165.5z" />
<glyph unicode="&#x1eb;" horiz-adv-x="572" d="M506 250q14 84 -21 143t-123 59t-143 -59t-69 -143t21 -143t123 -59t143 59t69 143zM87 250q9 50 30.5 95.5t56 83t85.5 59.5t112 22t105.5 -22.5t65.5 -59t29.5 -83t-2.5 -95.5q-17 -103 -85.5 -177.5t-179.5 -81.5q-81 -65 -91 -123q-8 -44 34 -44q26 0 42 8l-8 -46 q-20 -11 -52 -11q-38 0 -59.5 23.5t-14.5 63.5q13 72 94 130q-99 12 -138.5 86t-23.5 172z" />
<glyph unicode="&#x1ec;" horiz-adv-x="732" d="M685 350q13 80 -1.5 145.5t-67.5 110t-141 44.5q-129 0 -209 -87.5t-101 -212.5q-12 -57 -4 -111t30 -96t69.5 -67.5t113.5 -25.5q129 0 209 87.5t102 212.5zM100 350q12 70 41.5 133t76 114.5t116 82t151.5 30.5q66 0 118 -20t82.5 -54.5t49.5 -80.5t20.5 -98t-5.5 -107 q-25 -145 -119.5 -249t-246.5 -111q-81 -65 -91 -122q-8 -44 34 -44q26 0 42 8l-8 -46q-20 -11 -52 -11q-38 0 -59.5 23.5t-14.5 63.5q11 71 93 130q-95 9 -153 63t-74 129.5t-1 165.5zM644 839l-8 -51h-276l8 51h276z" />
<glyph unicode="&#x1ed;" horiz-adv-x="572" d="M506 250q14 84 -21 143t-123 59t-143 -59t-69 -143t21 -143t123 -59t143 59t69 143zM87 250q9 50 30.5 95.5t56 83t85.5 59.5t112 22t105.5 -22.5t65.5 -59t29.5 -83t-2.5 -95.5q-17 -103 -85.5 -177.5t-179.5 -81.5q-81 -65 -91 -123q-8 -44 34 -44q26 0 42 8l-8 -46 q-20 -11 -52 -11q-38 0 -59.5 23.5t-14.5 63.5q13 72 94 130q-99 12 -138.5 86t-23.5 172zM531 639l-9 -51h-276l9 51h276z" />
<glyph unicode="&#x1f0;" horiz-adv-x="219" d="M313 714h63l-129 -137h-80l-85 137h63l67 -107zM-53 -203l9 56q13 -2 35 -2q63 0 74 70l97 579h63l-96 -571q-22 -134 -143 -134q-11 0 -39 2z" />
<glyph unicode="&#x1f1;" horiz-adv-x="1260" d="M168 60h163q125 0 202.5 84.5t98.5 205.5q13 77 -1.5 140.5t-66 106.5t-136.5 43h-163zM210 700h228q81 0 139 -30t85 -79t38 -112t-3 -129q-12 -68 -41 -129t-74 -111.5t-112.5 -80t-148.5 -29.5h-228zM843 700h493l-12 -70l-529 -570h440l-10 -60h-511l12 70l529 570 h-422z" />
<glyph unicode="&#x1f2;" horiz-adv-x="1146" d="M168 60h163q125 0 202.5 84.5t98.5 205.5q13 77 -1.5 140.5t-66 106.5t-136.5 43h-163zM210 700h228q81 0 139 -30t85 -79t38 -112t-3 -129q-12 -68 -41 -129t-74 -111.5t-112.5 -80t-148.5 -29.5h-228zM823 500h356l-11 -63l-361 -379h303l-10 -58h-375l11 63l361 379 h-284z" />
<glyph unicode="&#x1f3;" horiz-adv-x="1072" d="M506 250q14 84 -20.5 143t-123.5 59t-143.5 -59t-68.5 -143t20.5 -143t123.5 -59t143.5 59t68.5 143zM527 0h-63l14 83q-78 -93 -201 -93q-117 0 -162.5 76.5t-27.5 183.5t89 183.5t188 76.5q123 0 170 -93l47 283h63zM749 500h356l-11 -63l-361 -379h303l-10 -58h-375 l11 63l361 379h-284z" />
<glyph unicode="&#x1f4;" horiz-adv-x="744" d="M657 915l-138 -138h-47l102 138h83zM100 350q12 70 41.5 133t76 114.5t116 82t151.5 30.5q131 0 191 -68t61 -183h-65q-7 191 -197 191q-129 0 -209 -87.5t-101 -212.5q-14 -80 0.5 -145.5t67 -110t139.5 -44.5q214 0 280 237h-238l10 60h303l-58 -347h-42l2 121 q-88 -131 -265 -131q-109 0 -175.5 53t-85.5 132t-3 175z" />
<glyph unicode="&#x1f5;" horiz-adv-x="595" d="M506 250q14 84 -20.5 143t-123.5 59t-143.5 -59t-68.5 -143t20.5 -143t123.5 -59t143.5 59t68.5 143zM468 21l10 62q-78 -93 -201 -93q-117 0 -162.5 76.5t-27.5 183.5t89 183.5t188 76.5q123 0 170 -93l14 83h63l-80 -479q-20 -116 -99.5 -171t-181.5 -55q-72 0 -128 29 t-74 88h79q31 -59 133 -59q76 0 135 40.5t73 127.5zM461 715h83l-138 -138h-47z" />
<glyph unicode="&#x1f8;" horiz-adv-x="741" d="M385 915h83l56 -138h-47zM336 700l248 -680h2l114 680h65l-117 -700h-126l-248 680h-2l-114 -680h-65l117 700h126z" />
<glyph unicode="&#x1f9;" horiz-adv-x="560" d="M265 715h83l56 -138h-47zM487 0h-63l51 307q12 76 -8.5 110.5t-85.5 34.5q-73 0 -126.5 -47t-67.5 -131l-46 -274h-63l84 500h63l-14 -80q63 90 180 90q182 0 148 -202z" />
<glyph unicode="&#x1fa;" horiz-adv-x="656" d="M441 680l-226 -430h310l-82 430h-2zM506 753q4 23 -8.5 38t-34.5 15t-39.5 -15t-21.5 -38t8.5 -38t34.5 -15t39.5 15t21.5 38zM553 753q-8 -46 -45 -74l135 -679h-71l-36 190h-352l-100 -190h-71l363 679q-29 29 -21 74q6 37 32.5 63t62.5 32l54 117h88l-87 -121 q27 -10 40 -34.5t8 -56.5z" />
<glyph unicode="&#x1fb;" horiz-adv-x="606" d="M506 250q14 84 -20.5 143t-123.5 59t-143.5 -59t-68.5 -143t20.5 -143t123.5 -59t143.5 59t68.5 143zM452 681q4 23 -8.5 38t-34.5 15t-39.5 -15t-21.5 -38t8.5 -38t34.5 -15t39.5 15t21.5 38zM527 0h-63l14 83q-78 -93 -201 -93q-117 0 -162.5 76.5t-27.5 183.5 t89 183.5t188 76.5q123 0 170 -93l14 83h63zM301 681q6 37 32.5 63t62.5 32l54 117h88l-87 -121q27 -10 40 -34.5t8 -56.5q-7 -42 -39.5 -69.5t-75.5 -27.5t-66.5 27.5t-16.5 69.5z" />
<glyph unicode="&#x1fc;" horiz-adv-x="1010" d="M616 680l-331 -430h261l72 430h-2zM92 0h-79l547 700h504l-10 -60h-378l-43 -255h354l-10 -60h-354l-44 -265h390l-10 -60h-455l32 190h-297zM745 915h83l-138 -138h-47z" />
<glyph unicode="&#x1fd;" horiz-adv-x="970" d="M506 250q14 84 -20.5 143t-123.5 59t-143.5 -59t-68.5 -143t20.5 -143t123.5 -59t143.5 59t68.5 143zM576 285h332q2 72 -31.5 119.5t-106.5 47.5t-123.5 -47.5t-70.5 -119.5zM527 0h-63l14 83q-78 -93 -201 -93q-117 0 -162.5 76.5t-27.5 183.5t89 183.5t188 76.5 q123 0 170 -93l14 83h63l-14 -83q73 93 182 93q58 0 100.5 -22.5t62.5 -59t28 -83t-3 -95.5l-4 -23h-398q-7 -76 26.5 -127.5t110.5 -51.5q117 0 168 94h66q-69 -152 -244 -152q-109 0 -151 93zM671 715h83l-138 -138h-47z" />
<glyph unicode="&#x1fe;" horiz-adv-x="732" d="M193 140l437 453q-57 57 -155 57q-129 0 -209 -87.5t-101 -212.5q-21 -127 28 -210zM685 350q21 126 -29 210l-437 -453q57 -57 155 -57q129 0 209.5 87.5t101.5 212.5zM774 743l32 -28l-101 -104q72 -99 45 -261q-12 -71 -42 -133.5t-76.5 -114t-116 -82t-151.5 -30.5 q-123 0 -192 67l-97 -100l-32 28l101 104q-71 98 -44 261q12 71 42 133.5t76.5 114t115.5 82t151 30.5q124 0 193 -67zM574 914h83l-138 -138h-47z" />
<glyph unicode="&#x1ff;" horiz-adv-x="572" d="M168 112l291 309q-38 31 -97 31q-88 0 -143 -59t-69 -143q-14 -82 18 -138zM506 250q13 84 -18 138l-292 -309q39 -31 98 -31q88 0 143 59t69 143zM575 543l33 -27l-73 -78q53 -71 34 -188q-9 -50 -30.5 -95.5t-56 -83t-86 -59.5t-112.5 -22q-82 0 -134 41l-69 -74 l-34 27l73 78q-53 73 -33 188q9 50 30.5 95.5t56 83t85.5 59.5t112 22q83 0 134 -41zM461 715h83l-138 -138h-47z" />
<glyph unicode="&#x200;" horiz-adv-x="656" d="M441 680l-226 -430h310l-82 430h-2zM84 0h-71l374 700h116l140 -700h-71l-36 190h-352zM359 777l-84 138h83l48 -138h-47zM510 777l-84 138h83l48 -138h-47z" />
<glyph unicode="&#x201;" horiz-adv-x="605" d="M506 250q14 84 -20.5 143t-123.5 59t-143.5 -59t-68.5 -143t20.5 -143t123.5 -59t143.5 59t68.5 143zM527 0h-63l14 83q-78 -93 -201 -93q-117 0 -162.5 76.5t-27.5 183.5t89 183.5t188 76.5q123 0 170 -93l14 83h63zM284 577l-84 138h83l48 -138h-47zM435 577l-84 138 h83l48 -138h-47z" />
<glyph unicode="&#x202;" horiz-adv-x="656" d="M441 680l-226 -430h310l-82 430h-2zM84 0h-71l374 700h116l140 -700h-71l-36 190h-352zM361 779h-53q10 60 57 97.5t116 37.5t103 -37.5t24 -97.5h-53q7 38 -15 62.5t-67 24.5t-75 -24.5t-37 -62.5z" />
<glyph unicode="&#x203;" horiz-adv-x="605" d="M506 250q14 84 -20.5 143t-123.5 59t-143.5 -59t-68.5 -143t20.5 -143t123.5 -59t143.5 59t68.5 143zM527 0h-63l14 83q-78 -93 -201 -93q-117 0 -162.5 76.5t-27.5 183.5t89 183.5t188 76.5q123 0 170 -93l14 83h63zM286 579h-53q10 60 56.5 97.5t115.5 37.5 t103.5 -37.5t24.5 -97.5h-53q6 38 -16 62.5t-67 24.5t-75 -24.5t-36 -62.5z" />
<glyph unicode="&#x204;" horiz-adv-x="599" d="M418 915h83l48 -138h-47zM267 915h83l48 -138h-47zM212 325l-44 -265h390l-10 -60h-455l117 700h443l-10 -60h-378l-43 -255h354l-10 -60h-354z" />
<glyph unicode="&#x205;" horiz-adv-x="552" d="M158 285h332q3 72 -31 119.5t-107 47.5q-74 0 -124 -47.5t-70 -119.5zM452 142h66q-69 -152 -244 -152q-58 0 -100.5 22.5t-62 59t-27.5 83t3 95.5q12 69 44 125.5t92.5 95.5t137.5 39q58 0 100.5 -22.5t62.5 -59t28 -83t-3 -95.5l-4 -23h-398q-7 -76 26.5 -127.5 t110.5 -51.5q117 0 168 94zM274 577l-84 138h83l48 -138h-47zM425 577l-84 138h83l48 -138h-47z" />
<glyph unicode="&#x206;" horiz-adv-x="599" d="M353 779h-53q10 60 57 97.5t116 37.5t103 -37.5t24 -97.5h-53q7 38 -15 62.5t-67 24.5t-75 -24.5t-37 -62.5zM212 325l-44 -265h390l-10 -60h-455l117 700h443l-10 -60h-378l-43 -255h354l-10 -60h-354z" />
<glyph unicode="&#x207;" horiz-adv-x="552" d="M158 285h332q3 72 -31 119.5t-107 47.5q-74 0 -124 -47.5t-70 -119.5zM452 142h66q-69 -152 -244 -152q-58 0 -100.5 22.5t-62 59t-27.5 83t3 95.5q12 69 44 125.5t92.5 95.5t137.5 39q58 0 100.5 -22.5t62.5 -59t28 -83t-3 -95.5l-4 -23h-398q-7 -76 26.5 -127.5 t110.5 -51.5q117 0 168 94zM276 579h-53q10 60 56.5 97.5t115.5 37.5t103.5 -37.5t24.5 -97.5h-53q6 38 -16 62.5t-67 24.5t-75 -24.5t-36 -62.5z" />
<glyph unicode="&#x208;" horiz-adv-x="251" d="M224 915h83l48 -138h-47zM73 915h83l48 -138h-47zM93 0l117 700h65l-117 -700h-65z" />
<glyph unicode="&#x209;" horiz-adv-x="219" d="M174 715h83l48 -138h-47zM23 715h83l48 -138h-47zM78 0l84 500h63l-84 -500h-63z" />
<glyph unicode="&#x20a;" horiz-adv-x="251" d="M159 779h-53q10 60 57 97.5t116 37.5t103 -37.5t24 -97.5h-53q7 38 -15 62.5t-67 24.5t-75 -24.5t-37 -62.5zM93 0l117 700h65l-117 -700h-65z" />
<glyph unicode="&#x20b;" horiz-adv-x="219" d="M144 788h-53q10 60 56.5 97.5t115.5 37.5t103.5 -37.5t24.5 -97.5h-53q6 38 -16 62.5t-67 24.5t-75 -24.5t-36 -62.5zM177 666q4 19 18.5 31t32.5 12t28.5 -12t6.5 -31q-3 -19 -17.5 -31t-32.5 -12t-28.5 12t-7.5 31zM78 0l84 500h63l-84 -500h-63z" />
<glyph unicode="&#x20c;" horiz-adv-x="732" d="M464 915h83l48 -138h-47zM313 915h83l48 -138h-47zM100 350q12 70 41.5 133t76 114.5t116 82t151.5 30.5q66 0 118 -20t82.5 -54.5t49.5 -80.5t20.5 -98t-5.5 -107q-12 -71 -42 -133.5t-76.5 -114t-116 -82t-151.5 -30.5q-109 0 -175.5 53t-85.5 132t-3 175zM685 350 q13 80 -1.5 145.5t-67.5 110t-141 44.5q-129 0 -209 -87.5t-101 -212.5q-12 -57 -4 -111t30 -96t69.5 -67.5t113.5 -25.5q129 0 209 87.5t102 212.5z" />
<glyph unicode="&#x20d;" horiz-adv-x="572" d="M351 715h83l48 -138h-47zM200 715h83l48 -138h-47zM87 250q9 50 30.5 95.5t56 83t85.5 59.5t112 22t105.5 -22.5t65.5 -59t29.5 -83t-2.5 -95.5q-9 -50 -30.5 -95.5t-56 -83t-86 -59.5t-112.5 -22t-105 22.5t-65 59t-29.5 83t2.5 95.5zM506 250q14 84 -21 143t-123 59 t-143 -59t-69 -143t21 -143t123 -59t143 59t69 143z" />
<glyph unicode="&#x20e;" horiz-adv-x="732" d="M685 350q13 80 -1.5 145.5t-67.5 110t-141 44.5q-129 0 -209 -87.5t-101 -212.5q-12 -57 -4 -111t30 -96t69.5 -67.5t113.5 -25.5q129 0 209 87.5t102 212.5zM100 350q12 70 41.5 133t76 114.5t116 82t151.5 30.5q66 0 118 -20t82.5 -54.5t49.5 -80.5t20.5 -98t-5.5 -107 q-12 -71 -42 -133.5t-76.5 -114t-116 -82t-151.5 -30.5q-109 0 -175.5 53t-85.5 132t-3 175zM399 779h-53q10 60 57 97.5t116 37.5t103 -37.5t24 -97.5h-53q7 38 -15 62.5t-67 24.5t-75 -24.5t-37 -62.5z" />
<glyph unicode="&#x20f;" horiz-adv-x="572" d="M506 250q14 84 -21 143t-123 59t-143 -59t-69 -143t21 -143t123 -59t143 59t69 143zM87 250q9 50 30.5 95.5t56 83t85.5 59.5t112 22t105.5 -22.5t65.5 -59t29.5 -83t-2.5 -95.5q-9 -50 -30.5 -95.5t-56 -83t-86 -59.5t-112.5 -22t-105 22.5t-65 59t-29.5 83t2.5 95.5z M286 579h-53q10 60 56.5 97.5t115.5 37.5t103.5 -37.5t24.5 -97.5h-53q6 38 -16 62.5t-67 24.5t-75 -24.5t-36 -62.5z" />
<glyph unicode="&#x210;" horiz-adv-x="661" d="M478 640h-213l-51 -306h213q66 0 116.5 43t60.5 110q11 67 -24.5 110t-101.5 43zM204 274l-46 -274h-65l117 700h277q95 0 146.5 -60t35.5 -153q-13 -81 -70.5 -138t-137.5 -71l136 -278h-76l-135 274h-182zM373 777l-84 138h83l48 -138h-47zM524 777l-84 138h83l48 -138 h-47z" />
<glyph unicode="&#x211;" horiz-adv-x="338" d="M268 715h83l48 -138h-47zM117 715h83l48 -138h-47zM78 0l84 500h63l-14 -79h2q25 39 74.5 64t103.5 25h20l-9 -55q-2 -2 -21 -2q-66 0 -124.5 -53t-70.5 -129l-45 -271h-63z" />
<glyph unicode="&#x212;" horiz-adv-x="661" d="M478 640h-213l-51 -306h213q66 0 116.5 43t60.5 110q11 67 -24.5 110t-101.5 43zM204 274l-46 -274h-65l117 700h277q95 0 146.5 -60t35.5 -153q-13 -81 -70.5 -138t-137.5 -71l136 -278h-76l-135 274h-182zM375 779h-53q10 60 57 97.5t116 37.5t103 -37.5t24 -97.5h-53 q7 38 -15 62.5t-67 24.5t-75 -24.5t-37 -62.5z" />
<glyph unicode="&#x213;" horiz-adv-x="338" d="M203 579h-53q10 60 56.5 97.5t115.5 37.5t103.5 -37.5t24.5 -97.5h-53q6 38 -16 62.5t-67 24.5t-75 -24.5t-36 -62.5zM78 0l84 500h63l-14 -79h2q25 39 74.5 64t103.5 25h20l-9 -55q-2 -2 -21 -2q-66 0 -124.5 -53t-70.5 -129l-45 -271h-63z" />
<glyph unicode="&#x214;" horiz-adv-x="716" d="M456 915h83l48 -138h-47zM305 915h83l48 -138h-47zM614 275l71 425h65l-72 -432q-7 -40 -21 -77t-40 -74.5t-60.5 -65t-86.5 -44.5t-114 -17t-108.5 17t-71 45t-39.5 64t-14 75t5 77l72 432h65l-71 -425q-9 -39 -3 -79t21.5 -72.5t55.5 -53t98 -20.5t104.5 20t75 54 t45 71.5t23.5 79.5z" />
<glyph unicode="&#x215;" horiz-adv-x="560" d="M343 715h83l48 -138h-47zM192 715h83l48 -138h-47zM157 500h63l-52 -307q-13 -76 8.5 -110.5t86.5 -34.5q73 0 126.5 47t67.5 131l46 274h63l-84 -500h-63l13 80q-29 -43 -77 -66.5t-103 -23.5q-181 0 -147 202z" />
<glyph unicode="&#x216;" horiz-adv-x="716" d="M391 779h-53q10 60 57 97.5t116 37.5t103 -37.5t24 -97.5h-53q7 38 -15 62.5t-67 24.5t-75 -24.5t-37 -62.5zM614 275l71 425h65l-72 -432q-7 -40 -21 -77t-40 -74.5t-60.5 -65t-86.5 -44.5t-114 -17t-108.5 17t-71 45t-39.5 64t-14 75t5 77l72 432h65l-71 -425 q-9 -39 -3 -79t21.5 -72.5t55.5 -53t98 -20.5t104.5 20t75 54t45 71.5t23.5 79.5z" />
<glyph unicode="&#x217;" horiz-adv-x="560" d="M278 579h-53q10 60 56.5 97.5t115.5 37.5t103.5 -37.5t24.5 -97.5h-53q6 38 -16 62.5t-67 24.5t-75 -24.5t-36 -62.5zM157 500h63l-52 -307q-13 -76 8.5 -110.5t86.5 -34.5q73 0 126.5 47t67.5 131l46 274h63l-84 -500h-63l13 80q-29 -43 -77 -66.5t-103 -23.5 q-181 0 -147 202z" />
<glyph unicode="&#x218;" horiz-adv-x="614" d="M79 195h65q-5 -70 44.5 -107.5t126.5 -37.5q80 0 144.5 36t75.5 105q6 37 -8.5 62.5t-43.5 36.5t-67 20t-78.5 14t-78 17.5t-65.5 30t-40.5 52.5t-4.5 85q17 99 95.5 150t178.5 51q98 0 156.5 -52t48.5 -154h-65q5 72 -37 109t-113 37q-74 0 -131 -36.5t-68 -105.5 q-7 -41 13 -66.5t57 -36.5t82.5 -18t91 -17.5t81 -28t53.5 -55.5t8 -96q-16 -98 -101.5 -149t-193.5 -51q-105 0 -170.5 52.5t-55.5 152.5zM214 -219l50 141h59l-63 -141h-46z" />
<glyph unicode="&#x219;" horiz-adv-x="466" d="M66 141h63q-3 -45 28 -69t82 -24q54 0 95.5 22.5t49.5 66.5q6 38 -22.5 57t-72 26.5t-87 17.5t-70 40.5t-17.5 84.5q12 73 69 110t130 37t116.5 -38.5t36.5 -112.5h-63q4 46 -23.5 69.5t-74.5 23.5q-48 0 -84 -21t-44 -65q-5 -32 14.5 -50.5t52.5 -24.5t71.5 -15 t70.5 -19.5t50 -40.5t10 -76q-13 -73 -75.5 -111.5t-143.5 -38.5q-76 0 -123 39t-39 112zM137 -219l50 141h59l-63 -141h-46z" />
<glyph unicode="&#x21a;" horiz-adv-x="565" d="M422 640l-107 -640h-65l107 640h-229l10 60h523l-10 -60h-229zM190 -219l50 141h59l-63 -141h-46z" />
<glyph unicode="&#x21b;" horiz-adv-x="367" d="M315 4q-42 -14 -84 -14q-121 0 -98 134l54 324h-93l9 52h93l23 140h63l-23 -140h139l-9 -52h-139l-56 -332q-11 -70 51 -70q41 0 79 16zM84 -219l50 141h59l-63 -141h-46z" />
<glyph unicode="&#x21e;" horiz-adv-x="706" d="M590 914h63l-130 -137h-80l-84 137h63l66 -107zM93 0l117 700h65l-52 -314h390l52 314h65l-117 -700h-65l55 326h-390l-55 -326h-65z" />
<glyph unicode="&#x21f;" horiz-adv-x="560" d="M517 914h63l-130 -137h-80l-84 137h63l66 -107zM487 0h-63l51 307q12 76 -8.5 110.5t-85.5 34.5q-73 0 -126.5 -47t-67.5 -131l-46 -274h-63l117 700h63l-47 -280q63 90 180 90q182 0 148 -202z" />
<glyph unicode="&#x226;" horiz-adv-x="656" d="M441 680l-226 -430h310l-82 430h-2zM84 0h-71l374 700h116l140 -700h-71l-36 190h-352zM426 829q3 17 17 29t31 12t27 -12t7 -29t-17 -29t-31 -12t-27 12t-7 29z" />
<glyph unicode="&#x227;" horiz-adv-x="605" d="M506 250q14 84 -20.5 143t-123.5 59t-143.5 -59t-68.5 -143t20.5 -143t123.5 -59t143.5 59t68.5 143zM527 0h-63l14 83q-78 -93 -201 -93q-117 0 -162.5 76.5t-27.5 183.5t89 183.5t188 76.5q123 0 170 -93l14 83h63zM350 629q3 17 17 29t31 12t27 -12t7 -29t-17 -29 t-31 -12t-27 12t-7 29z" />
<glyph unicode="&#x228;" horiz-adv-x="599" d="M212 325l-44 -265h390l-10 -60h-206l-21 -38h20q47 0 70.5 -23t16.5 -63q-8 -45 -47 -73t-96 -28q-32 0 -74 15l8 48q39 -17 72 -17q35 0 58 15.5t28 41.5q3 21 -9 32.5t-41 11.5h-49l-9 22l31 56h-207l117 700h443l-10 -60h-378l-43 -255h354l-10 -60h-354z" />
<glyph unicode="&#x229;" horiz-adv-x="552" d="M158 285h332q3 72 -31 119.5t-107 47.5q-74 0 -124 -47.5t-70 -119.5zM452 142h66q-66 -143 -226 -152l-15 -28h20q47 0 70.5 -23t16.5 -63q-8 -45 -47 -73t-96 -28q-32 0 -74 15l8 48q39 -17 72 -17q35 0 58 15.5t28 41.5q3 21 -9 32.5t-41 11.5h-49l-9 22l25 47 q-68 6 -109.5 45t-53 94t-0.5 120q12 69 44 125.5t92.5 95.5t137.5 39q58 0 100.5 -22.5t62.5 -59t28 -83t-3 -95.5l-4 -23h-398q-7 -76 26.5 -127.5t110.5 -51.5q117 0 168 94z" />
<glyph unicode="&#x22e;" horiz-adv-x="732" d="M464 829q3 17 17 29t31 12t27 -12t7 -29t-17 -29t-31 -12t-27 12t-7 29zM100 350q12 70 41.5 133t76 114.5t116 82t151.5 30.5q66 0 118 -20t82.5 -54.5t49.5 -80.5t20.5 -98t-5.5 -107q-12 -71 -42 -133.5t-76.5 -114t-116 -82t-151.5 -30.5q-109 0 -175.5 53t-85.5 132 t-3 175zM685 350q13 80 -1.5 145.5t-67.5 110t-141 44.5q-129 0 -209 -87.5t-101 -212.5q-12 -57 -4 -111t30 -96t69.5 -67.5t113.5 -25.5q129 0 209 87.5t102 212.5z" />
<glyph unicode="&#x22f;" horiz-adv-x="572" d="M350 629q3 17 17 29t31 12t27 -12t7 -29t-17 -29t-31 -12t-27 12t-7 29zM87 250q9 50 30.5 95.5t56 83t85.5 59.5t112 22t105.5 -22.5t65.5 -59t29.5 -83t-2.5 -95.5q-9 -50 -30.5 -95.5t-56 -83t-86 -59.5t-112.5 -22t-105 22.5t-65 59t-29.5 83t2.5 95.5zM506 250 q14 84 -21 143t-123 59t-143 -59t-69 -143t21 -143t123 -59t143 59t69 143z" />
<glyph unicode="&#x232;" horiz-adv-x="601" d="M571 788h-276l8 51h276zM291 285l-156 415h73l143 -395h1l275 395h73l-294 -415h-25l-48 -285h-65l48 285h-25z" />
<glyph unicode="&#x233;" horiz-adv-x="510" d="M491 588h-276l9 51h276zM577 500l-362 -695h-66l102 195h-55l-95 500h66l90 -485h2l252 485h66z" />
<glyph unicode="&#x237;" horiz-adv-x="219" d="M-53 -203l9 56q13 -2 35 -2q63 0 74 70l97 579h63l-96 -571q-22 -134 -143 -134q-11 0 -39 2z" />
<glyph unicode="&#x244;" horiz-adv-x="756" d="M634 275l8 48h-420l-8 -48q-9 -39 -3 -79t21.5 -72.5t55.5 -53t98 -20.5t104.5 20t75 54t45 71.5t23.5 79.5zM148 268l9 55h-78l9 54h78l54 323h65l-54 -323h420l54 323h65l-54 -323h78l-9 -54h-78l-9 -55q-7 -40 -21 -77t-40 -74.5t-60.5 -65t-86.5 -44.5t-114 -17 t-108.5 17t-71 45t-39.5 64t-14 75t5 77z" />
<glyph unicode="&#x254;" horiz-adv-x="549" d="M260 -10q-97 0 -141 50.5t-45 131.5h64q5 -124 132 -124q88 0 143 59t69 143t-21 143t-123 59q-127 0 -174 -124h-64q28 81 89 131.5t158 50.5q61 0 105.5 -22.5t65.5 -59t29.5 -83t-2.5 -95.5q-9 -50 -30.5 -95.5t-56 -83t-86 -59.5t-112.5 -22z" />
<glyph unicode="&#x256;" horiz-adv-x="605" d="M506 250q14 84 -20.5 143t-123.5 59t-143.5 -59t-68.5 -143t20.5 -143t123.5 -59t143.5 59t68.5 143zM452 -71l26 154q-78 -93 -201 -93q-117 0 -162.5 76.5t-27.5 183.5t89 183.5t188 76.5q123 0 170 -93l47 283h63l-130 -779q-6 -37 6.5 -53.5t43.5 -16.5q15 0 36 3 l-10 -56q-22 -3 -39 -3q-122 0 -99 134z" />
<glyph unicode="&#x258;" horiz-adv-x="552" d="M158 285h332q3 72 -31 119.5t-107 47.5q-74 0 -124 -47.5t-70 -119.5zM82 142h66q18 -94 136 -94q77 0 127.5 51t69.5 128h-398l4 23q9 51 30 96t54 82.5t82.5 59.5t107.5 22t100.5 -22.5t62.5 -59t28 -83t-3 -95.5q-9 -50 -30 -95.5t-54.5 -83t-83 -59.5t-107.5 -22 q-89 0 -136.5 40t-55.5 112z" />
<glyph unicode="&#x259;" horiz-adv-x="553" d="M478 215h-332q-4 -72 30 -119.5t108 -47.5q73 0 123.5 47.5t70.5 119.5zM184 358h-66q68 152 243 152q58 0 100.5 -22.5t62.5 -59t28 -83t-3 -95.5q-9 -50 -30 -95.5t-54.5 -83t-83 -59.5t-107.5 -22t-100.5 22.5t-62 59t-27.5 83t3 95.5l4 23h398q7 77 -26.5 128 t-110.5 51q-119 0 -168 -94z" />
<glyph unicode="&#x25b;" horiz-adv-x="466" d="M272 224q-54 0 -95.5 -22t-48.5 -65q-8 -44 26.5 -66.5t88.5 -22.5q51 0 90 24.5t52 68.5h63q-18 -74 -78.5 -112.5t-138.5 -38.5t-128 39t-38 110q14 81 97 116q-55 36 -42 110q12 70 69.5 107.5t129.5 37.5q73 0 116.5 -38.5t36.5 -112.5h-63q4 45 -23.5 69t-74.5 24 q-48 0 -84 -21t-44 -65q-7 -43 22 -63.5t77 -20.5h46l-10 -58h-46z" />
<glyph unicode="&#x268;" horiz-adv-x="219" d="M177 666q4 19 18.5 31t32.5 12t28.5 -12t6.5 -31q-3 -19 -17.5 -31t-32.5 -12t-28.5 12t-7.5 31zM78 0l54 325h-49l9 50h49l21 125h63l-21 -125h49l-9 -50h-49l-54 -325h-63z" />
<glyph unicode="&#x272;" horiz-adv-x="561" d="M187 274l-58 -345q-22 -134 -143 -134q-16 0 -39 3l10 56q18 -3 34 -3q63 0 74 70l97 579h63l-14 -80q63 90 180 90q182 0 148 -202l-52 -308h-63l51 307q12 76 -8.5 110.5t-85.5 34.5q-73 0 -126.5 -47t-67.5 -131z" />
<glyph unicode="&#x289;" horiz-adv-x="600" d="M477 226l16 99h-283l-22 -132q-12 -76 9 -110.5t86 -34.5q73 0 126.5 47t67.5 131zM156 375l21 125h63l-21 -125h283l21 125h63l-21 -125h49l-9 -50h-49l-54 -325h-63l13 80q-29 -43 -77 -66.5t-103 -23.5q-181 0 -147 202l22 133h-49l9 50h49z" />
<glyph unicode="&#x2bb;" horiz-adv-x="190" d="M265 700l-68 -200h-72l86 200h54z" />
<glyph unicode="&#x2bc;" horiz-adv-x="190" d="M125 500l68 200h72l-86 -200h-54z" />
<glyph unicode="&#x2c6;" horiz-adv-x="345" d="M331 714l85 -137h-63l-67 107l-101 -107h-63l129 137h80z" />
<glyph unicode="&#x2c7;" horiz-adv-x="345" d="M375 714h63l-129 -137h-80l-85 137h63l67 -107z" />
<glyph unicode="&#x2c9;" horiz-adv-x="327" d="M399 588h-276l9 51h276z" />
<glyph unicode="&#x2d8;" horiz-adv-x="351" d="M144 714h53q-6 -38 16 -62.5t67 -24.5t75 24.5t36 62.5h53q-10 -60 -56.5 -97.5t-115.5 -37.5t-103.5 37.5t-24.5 97.5z" />
<glyph unicode="&#x2d9;" horiz-adv-x="133" d="M130 629q3 17 17 29t31 12t27 -12t7 -29t-17 -29t-31 -12t-27 12t-7 29z" />
<glyph unicode="&#x2da;" horiz-adv-x="249" d="M135 659q7 41 40 69t76 28t66 -27.5t16 -69.5t-39.5 -69.5t-75.5 -27.5t-66.5 27.5t-16.5 69.5zM286 659q4 23 -8.5 38t-34.5 15t-39.5 -15t-21.5 -38t8.5 -38t34.5 -15t39.5 15t21.5 38z" />
<glyph unicode="&#x2db;" horiz-adv-x="190" d="M137 18l28 -18q-34 -24 -66 -60.5t-38 -71.5q-8 -44 34 -44q26 0 42 8l-8 -46q-20 -11 -52 -11q-38 0 -59.5 23.5t-14.5 63.5q14 89 134 156z" />
<glyph unicode="&#x2dc;" horiz-adv-x="339" d="M167 579h-45q7 36 34 62t66 26q18 0 58 -10t60 -10q32 0 42 34h45q-7 -36 -34 -62t-66 -26q-17 0 -57 10t-61 10q-32 0 -42 -34z" />
<glyph unicode="&#x2dd;" horiz-adv-x="356" d="M299 715l-130 -138h-47l94 138h83zM450 715l-130 -138h-47l94 138h83z" />
<glyph unicode="&#x300;" horiz-adv-x="0" d="M-338 915h83l56 -138h-47z" />
<glyph unicode="&#x301;" horiz-adv-x="0" d="M-62 915l-138 -138h-47l102 138h83z" />
<glyph unicode="&#x302;" horiz-adv-x="0" d="M-160 914l84 -137h-63l-66 107l-102 -107h-63l130 137h80z" />
<glyph unicode="&#x303;" horiz-adv-x="0" d="M-322 779h-45q8 36 34.5 62t65.5 26q17 0 58 -10t61 -10q31 0 41 34h45q-7 -36 -33.5 -62t-65.5 -26q-17 0 -58 10t-61 10q-30 0 -42 -34z" />
<glyph unicode="&#x304;" horiz-adv-x="0" d="M-83 788h-276l8 51h276z" />
<glyph unicode="&#x306;" horiz-adv-x="0" d="M-350 914h53q-6 -38 15.5 -62.5t66.5 -24.5t75.5 24.5t36.5 62.5h53q-10 -60 -57 -97.5t-116 -37.5t-103 37.5t-24 97.5z" />
<glyph unicode="&#x307;" horiz-adv-x="0" d="M-255 829q3 17 17 29t31 12t27 -12t7 -29t-17 -29t-31 -12t-27 12t-7 29z" />
<glyph unicode="&#x308;" horiz-adv-x="0" d="M-344 828q2 17 16 29t31 12t27 -12t8 -29q-3 -17 -17 -29t-31 -12t-27 12t-7 29zM-166 828q2 17 16 29t31 12t27 -12t8 -29q-3 -17 -17 -29t-31 -12t-27 12t-7 29z" />
<glyph unicode="&#x309;" horiz-adv-x="0" d="M-207 825q4 28 -13 44t-51 16q-15 0 -27 -3l8 49q20 2 29 2q56 0 85.5 -28t21.5 -73q-7 -44 -45 -69h-52q38 23 44 62z" />
<glyph unicode="&#x30a;" horiz-adv-x="0" d="M-308 859q7 42 39.5 69.5t75.5 27.5t66.5 -27.5t16.5 -69.5t-39.5 -69.5t-75.5 -27.5t-66.5 27.5t-16.5 69.5zM-157 859q4 23 -8.5 38t-34.5 15t-39.5 -15t-21.5 -38t8.5 -38t34.5 -15t39.5 15t21.5 38z" />
<glyph unicode="&#x30b;" horiz-adv-x="0" d="M-145 915l-130 -138h-47l94 138h83zM6 915l-130 -138h-47l94 138h83z" />
<glyph unicode="&#x30c;" horiz-adv-x="0" d="M-116 914h63l-130 -137h-80l-84 137h63l66 -107z" />
<glyph unicode="&#x30f;" horiz-adv-x="0" d="M-255 915h83l48 -138h-47zM-406 915h83l48 -138h-47z" />
<glyph unicode="&#x311;" horiz-adv-x="0" d="M-320 779h-53q10 60 57 97.5t116 37.5t103 -37.5t24 -97.5h-53q7 38 -15 62.5t-67 24.5t-75 -24.5t-37 -62.5z" />
<glyph unicode="&#x312;" horiz-adv-x="0" d="M-145 916l-49 -141h-59l62 141h46z" />
<glyph unicode="&#x323;" horiz-adv-x="0" d="M-334 -129q-2 -17 -16 -29t-31 -12t-27 12t-8 29q3 17 17 29t31 12t27 -12t7 -29z" />
<glyph unicode="&#x324;" horiz-adv-x="0" d="M-244 -128q-3 -17 -17 -29t-31 -12t-27 12t-7 29q2 17 16 29t31 12t27 -12t8 -29zM-422 -128q-3 -17 -17 -29t-31 -12t-27 12t-7 29q2 17 16 29t31 12t27 -12t8 -29z" />
<glyph unicode="&#x326;" horiz-adv-x="0" d="M-446 -219l50 141h59l-63 -141h-46z" />
<glyph unicode="&#x327;" horiz-adv-x="0" d="M-422 -78l-9 22l37 66h42l-27 -48h20q47 0 70.5 -23t16.5 -63q-8 -45 -47 -73t-96 -28q-32 0 -74 15l8 48q39 -17 72 -17q35 0 58 15.5t28 41.5q3 21 -9 32.5t-41 11.5h-49z" />
<glyph unicode="&#x328;" horiz-adv-x="0" d="M-311 18l28 -18q-34 -24 -66 -60.5t-38 -71.5q-8 -44 34 -44q26 0 42 8l-8 -46q-20 -11 -52 -11q-38 0 -59.5 23.5t-14.5 63.5q14 89 134 156z" />
<glyph unicode="&#x32d;" horiz-adv-x="0" d="M-326 -77l84 -137h-63l-66 107l-102 -107h-63l130 137h80z" />
<glyph unicode="&#x32e;" horiz-adv-x="0" d="M-269 -79h53q-10 -60 -57 -97.5t-116 -37.5t-103 37.5t-24 97.5h53q-7 -38 15 -62.5t67 -24.5t75 24.5t37 62.5z" />
<glyph unicode="&#x330;" horiz-adv-x="0" d="M-482 -181h-45q7 36 33.5 62t65.5 26q18 0 58 -10t61 -10q30 0 42 34h45q-8 -36 -34.5 -62t-65.5 -26q-18 0 -58 10t-61 10q-31 0 -41 -34z" />
<glyph unicode="&#x331;" horiz-adv-x="0" d="M-240 -150h-276l8 51h276z" />
<glyph unicode="&#x344;" horiz-adv-x="0" d="M-123 915l-108 -138h-47l72 138h83zM-371 828q2 17 16 29t31 12t27 -12t8 -29q-3 -17 -17 -29t-31 -12t-27 12t-7 29zM-139 828q2 17 16 29t31 12t27 -12t8 -29q-3 -17 -17 -29t-31 -12t-27 12t-7 29z" />
<glyph unicode="&#x37e;" horiz-adv-x="249" d="M158 460q3 19 18.5 32t34.5 13t29.5 -13t7.5 -32t-18.5 -32t-34.5 -13t-29.5 13t-7.5 32zM49 -129l69 200h72l-87 -200h-54z" />
<glyph unicode="&#x384;" horiz-adv-x="173" d="M267 715l-108 -138h-37l72 138h73z" />
<glyph unicode="&#x385;" horiz-adv-x="365" d="M379 715l-108 -138h-47l72 138h83zM130 628q3 17 17 29t31 12t27 -12t7 -29t-17 -29t-31 -12t-27 12t-7 29zM362 628q3 17 17 29t31 12t27 -12t7 -29t-17 -29t-31 -12t-27 12t-7 29z" />
<glyph unicode="&#x386;" horiz-adv-x="656" d="M441 680l-226 -430h310l-82 430h-2zM84 0h-71l374 700h116l140 -700h-71l-36 190h-352zM259 700h73l-108 -138h-37z" />
<glyph unicode="&#x387;" horiz-adv-x="193" d="M99 284q3 19 18 32t34 13t30 -13t8 -32q-4 -19 -19 -32t-34 -13t-30 13t-7 32z" />
<glyph unicode="&#x388;" horiz-adv-x="555" d="M168 325l-44 -265h390l-10 -60h-455l117 700h443l-10 -60h-378l-43 -255h354l-10 -60h-354zM131 700l-108 -138h-37l72 138h73z" />
<glyph unicode="&#x389;" horiz-adv-x="663" d="M49 0l117 700h65l-52 -314h390l52 314h65l-117 -700h-65l55 326h-390l-55 -326h-65zM131 700l-108 -138h-37l72 138h73z" />
<glyph unicode="&#x38a;" horiz-adv-x="207" d="M49 0l117 700h65l-117 -700h-65zM131 700l-108 -138h-37l72 138h73z" />
<glyph unicode="&#x38c;" horiz-adv-x="669" d="M36 350q12 70 41.5 133t76 114.5t116 82t151.5 30.5q66 0 118 -20t82.5 -54.5t49.5 -80.5t20.5 -98t-5.5 -107q-12 -71 -42 -133.5t-76.5 -114t-116 -82t-151.5 -30.5q-109 0 -175.5 53t-85.5 132t-3 175zM169 700l-108 -138h-37l72 138h73zM621 350q13 80 -1.5 145.5 t-67.5 110t-141 44.5q-129 0 -209 -87.5t-101 -212.5q-12 -57 -4 -111t30 -96t69.5 -67.5t113.5 -25.5q129 0 209 87.5t102 212.5z" />
<glyph unicode="&#x38e;" horiz-adv-x="607" d="M297 285l-156 415h73l143 -395h1l275 395h73l-294 -415h-25l-48 -285h-65l48 285h-25zM131 700l-108 -138h-37l72 138h73z" />
<glyph unicode="&#x38f;" horiz-adv-x="716" d="M83 350q12 69 41.5 132t76 115t116 82.5t151.5 30.5q66 0 118 -20.5t82.5 -55t50 -80.5t20.5 -98t-6 -106q-16 -97 -65.5 -173t-130.5 -117h147l-10 -60h-248l10 60q95 24 154.5 105t77.5 185q13 80 -1.5 145.5t-67.5 110t-141 44.5q-129 0 -209 -87.5t-101 -212.5 q-9 -66 -2 -124.5t42 -104t94 -61.5l-10 -60h-248l10 60h147q-67 41 -90.5 117t-7.5 173zM216 700l-108 -138h-37l72 138h73z" />
<glyph unicode="&#x390;" horiz-adv-x="262" d="M307 715l-108 -138h-47l72 138h83zM58 628q3 17 17 29t31 12t27 -12t7 -29t-17 -29t-31 -12t-27 12t-7 29zM290 628q3 17 17 29t31 12t27 -12t7 -29t-17 -29t-31 -12t-27 12t-7 29zM225 500l-64 -380q-13 -72 52 -72q22 0 35 2l-9 -58q-17 -2 -44 -2q-56 0 -81.5 35 t-15.5 95l64 380h63z" />
<glyph unicode="&#x391;" horiz-adv-x="656" d="M441 680l-226 -430h310l-82 430h-2zM84 0h-71l374 700h116l140 -700h-71l-36 190h-352z" />
<glyph unicode="&#x392;" horiz-adv-x="676" d="M441 334h-227l-46 -274h227q47 0 85.5 11.5t70 43.5t40.5 82q12 73 -32 105t-118 32zM475 640h-210l-41 -246h210q66 0 115.5 29t60.5 94q10 65 -29.5 94t-105.5 29zM387 0h-294l117 700h277q44 0 79.5 -9t64 -28.5t40.5 -55.5t4 -86q-18 -103 -118 -151q120 -48 98 -178 q-12 -70 -55 -115t-95.5 -61t-117.5 -16z" />
<glyph unicode="&#x393;" horiz-adv-x="541" d="M158 0h-65l117 700h440l-10 -60h-375z" />
<glyph unicode="&#x394;" horiz-adv-x="656" d="M13 0l374 700h116l140 -700h-630zM115 60h446l-118 620h-2z" />
<glyph unicode="&#x395;" horiz-adv-x="599" d="M212 325l-44 -265h390l-10 -60h-455l117 700h443l-10 -60h-378l-43 -255h354l-10 -60h-354z" />
<glyph unicode="&#x396;" horiz-adv-x="582" d="M657 700l-12 -70l-529 -570h440l-10 -60h-511l12 70l529 570h-422l10 60h493z" />
<glyph unicode="&#x397;" horiz-adv-x="707" d="M93 0l117 700h65l-52 -314h390l52 314h65l-117 -700h-65l55 326h-390l-55 -326h-65z" />
<glyph unicode="&#x398;" horiz-adv-x="733" d="M100 350q12 70 41.5 133t76 114.5t116 82t151.5 30.5q66 0 118 -20t82.5 -54.5t49.5 -80.5t20.5 -98t-5.5 -107q-12 -71 -42 -133.5t-76.5 -114t-116 -82t-151.5 -30.5q-109 0 -175.5 53t-85.5 132t-3 175zM685 350q13 80 -1.5 145.5t-67.5 110t-141 44.5 q-129 0 -209 -87.5t-101 -212.5q-12 -57 -4 -111t30 -96t69.5 -67.5t113.5 -25.5q129 0 209 87.5t102 212.5zM280 320l10 60h282l-10 -60h-282z" />
<glyph unicode="&#x399;" horiz-adv-x="252" d="M93 0l117 700h65l-117 -700h-65z" />
<glyph unicode="&#x39a;" horiz-adv-x="602" d="M275 700l-57 -344l397 344h91l-404 -350l302 -350h-94l-295 342l-57 -342h-65l117 700h65z" />
<glyph unicode="&#x39b;" horiz-adv-x="586" d="M13 0l339 700h116l105 -700h-71l-94 680h-2l-322 -680h-71z" />
<glyph unicode="&#x39c;" horiz-adv-x="887" d="M335 700l110 -680h2l338 680h125l-117 -700h-65l114 680h-2l-338 -680h-118l-110 680h-2l-114 -680h-65l117 700h125z" />
<glyph unicode="&#x39d;" horiz-adv-x="742" d="M336 700l248 -680h2l114 680h65l-117 -700h-126l-248 680h-2l-114 -680h-65l117 700h126z" />
<glyph unicode="&#x39e;" horiz-adv-x="556" d="M157 640l10 60h455l-10 -60h-455zM154 325l10 60h355l-10 -60h-355zM50 0l10 60h455l-10 -60h-455z" />
<glyph unicode="&#x39f;" horiz-adv-x="733" d="M100 350q12 70 41.5 133t76 114.5t116 82t151.5 30.5q66 0 118 -20t82.5 -54.5t49.5 -80.5t20.5 -98t-5.5 -107q-12 -71 -42 -133.5t-76.5 -114t-116 -82t-151.5 -30.5q-109 0 -175.5 53t-85.5 132t-3 175zM685 350q13 80 -1.5 145.5t-67.5 110t-141 44.5 q-129 0 -209 -87.5t-101 -212.5q-12 -57 -4 -111t30 -96t69.5 -67.5t113.5 -25.5q129 0 209 87.5t102 212.5z" />
<glyph unicode="&#x3a0;" horiz-adv-x="707" d="M93 0l117 700h520l-117 -700h-65l107 640h-390l-107 -640h-65z" />
<glyph unicode="&#x3a1;" horiz-adv-x="625" d="M468 640h-203l-54 -324h203q70 0 123.5 45.5t65.5 116.5q12 70 -26 116t-109 46zM403 256h-202l-43 -256h-65l117 700h267q99 0 153 -63t38 -159q-16 -97 -91.5 -159.5t-173.5 -62.5z" />
<glyph unicode="&#x3a3;" horiz-adv-x="571" d="M58 0l9 56l267 304l-168 284l9 56h460l-10 -60h-378l166 -280l-263 -300h378l-10 -60h-460z" />
<glyph unicode="&#x3a4;" horiz-adv-x="566" d="M422 640l-107 -640h-65l107 640h-229l10 60h523l-10 -60h-229z" />
<glyph unicode="&#x3a5;" horiz-adv-x="602" d="M291 285l-156 415h73l143 -395h1l275 395h73l-294 -415h-25l-48 -285h-65l48 285h-25z" />
<glyph unicode="&#x3a6;" horiz-adv-x="804" d="M155 350q-16 -93 44 -161t190 -68l77 458q-130 0 -213 -68t-98 -161zM766 350q15 94 -45 161.5t-190 67.5l-77 -458q130 0 213 67.5t99 161.5zM831 350q-20 -118 -123 -203.5t-264 -85.5l-13 -81h-65l13 81q-82 0 -144 24.5t-95.5 66t-46.5 92t-3 106.5 q20 118 122.5 203.5t263.5 85.5l13 81h65l-13 -81q108 0 180 -42.5t97 -107t13 -139.5z" />
<glyph unicode="&#x3a7;" horiz-adv-x="588" d="M668 700l-245 -334l149 -366h-76l-141 357h-2l-261 -357h-76l271 366l-133 334h74l128 -323h2l236 323h74z" />
<glyph unicode="&#x3a8;" horiz-adv-x="773" d="M354 0l33 195q-126 2 -193.5 76t-46.5 198l39 231h65l-39 -231q-16 -98 35.5 -155t149.5 -59l74 445h65l-74 -445q98 2 168.5 59t86.5 155l39 231h65l-39 -231q-21 -124 -112.5 -198t-217.5 -76l-33 -195h-65z" />
<glyph unicode="&#x3a9;" horiz-adv-x="733" d="M100 350q12 69 41.5 132t76 115t116 82.5t151.5 30.5q66 0 118 -20.5t82.5 -55t50 -80.5t20.5 -98t-6 -106q-16 -97 -65.5 -173t-130.5 -117h147l-10 -60h-248l10 60q95 24 154.5 105t77.5 185q13 80 -1.5 145.5t-67.5 110t-141 44.5q-129 0 -209 -87.5t-101 -212.5 q-9 -66 -2 -124.5t42 -104t94 -61.5l-10 -60h-248l10 60h147q-67 41 -90.5 117t-7.5 173z" />
<glyph unicode="&#x3aa;" horiz-adv-x="251" d="M135 828q2 17 16 29t31 12t27 -12t8 -29q-3 -17 -17 -29t-31 -12t-27 12t-7 29zM313 828q2 17 16 29t31 12t27 -12t8 -29q-3 -17 -17 -29t-31 -12t-27 12t-7 29zM93 0l117 700h65l-117 -700h-65z" />
<glyph unicode="&#x3ab;" horiz-adv-x="601" d="M310 828q2 17 16 29t31 12t27 -12t8 -29q-3 -17 -17 -29t-31 -12t-27 12t-7 29zM488 828q2 17 16 29t31 12t27 -12t8 -29q-3 -17 -17 -29t-31 -12t-27 12t-7 29zM291 285l-156 415h73l143 -395h1l275 395h73l-294 -415h-25l-48 -285h-65l48 285h-25z" />
<glyph unicode="&#x3ac;" horiz-adv-x="648" d="M506 250q14 84 -20.5 143t-123.5 59t-143.5 -59t-68.5 -143t20.5 -143t123.5 -59t143.5 59t68.5 143zM548 500h63l-64 -380q-13 -72 52 -72q22 0 35 2l-9 -58q-17 -2 -44 -2q-48 0 -73.5 26t-25.5 72q-79 -98 -205 -98q-117 0 -162.5 76.5t-27.5 183.5t89 183.5t188 76.5 q123 0 170 -93zM436 715h73l-108 -138h-37z" />
<glyph unicode="&#x3ad;" horiz-adv-x="466" d="M457 715l-108 -138h-37l72 138h73zM272 224q-54 0 -95.5 -22t-48.5 -65q-8 -44 26.5 -66.5t88.5 -22.5q51 0 90 24t52 69h63q-18 -74 -78.5 -112.5t-138.5 -38.5t-128 39t-38 110q14 81 97 116q-55 36 -42 110q12 70 69.5 107.5t129.5 37.5q73 0 116.5 -38.5t36.5 -112.5 h-63q4 46 -23 69.5t-75 23.5t-84 -21t-44 -65q-7 -43 22 -63.5t77 -20.5h46l-10 -58h-46z" />
<glyph unicode="&#x3ae;" horiz-adv-x="560" d="M506 715l-108 -138h-37l72 138h73zM454 -195h-63l84 502q13 76 -8 110.5t-86 34.5q-73 0 -126.5 -47t-67.5 -131l-46 -274h-63l84 500h63l-14 -80q63 90 180 90q182 0 148 -202z" />
<glyph unicode="&#x3af;" horiz-adv-x="262" d="M333 715l-108 -138h-37l72 138h73zM225 500l-64 -380q-13 -72 52 -72q22 0 35 2l-9 -58q-17 -2 -44 -2q-56 0 -81.5 35t-15.5 95l64 380h63z" />
<glyph unicode="&#x3b0;" horiz-adv-x="554" d="M474 715l-108 -138h-47l72 138h83zM225 628q3 17 17 29t31 12t27 -12t7 -29t-17 -29t-31 -12t-27 12t-7 29zM457 628q3 17 17 29t31 12t27 -12t7 -29t-17 -29t-31 -12t-27 12t-7 29zM285 48q66 0 110 40t55 105l52 307h63l-52 -308q-15 -90 -78.5 -146t-159.5 -56 t-140.5 56t-29.5 146l52 308h63l-52 -307q-11 -65 20 -105t97 -40z" />
<glyph unicode="&#x3b1;" horiz-adv-x="648" d="M506 250q14 84 -20.5 143t-123.5 59t-143.5 -59t-68.5 -143t20.5 -143t123.5 -59t143.5 59t68.5 143zM548 500h63l-64 -380q-13 -72 52 -72q22 0 35 2l-9 -58q-17 -2 -44 -2q-48 0 -73.5 26t-25.5 72q-79 -98 -205 -98q-117 0 -162.5 76.5t-27.5 183.5t89 183.5t188 76.5 q123 0 170 -93z" />
<glyph unicode="&#x3b2;" horiz-adv-x="577" d="M347 340l10 58q61 0 108.5 35.5t57.5 95.5q9 56 -26 89.5t-94 33.5q-75 0 -122 -52t-61 -134l-68 -408h148q80 0 135.5 40t65.5 101q11 60 -31.5 100.5t-122.5 40.5zM142 0l-33 -195h-63l111 661q18 110 83 177t173 67q88 0 138.5 -48.5t36.5 -130.5q-18 -105 -124 -158 q121 -51 100 -177q-14 -87 -89 -141.5t-185 -54.5h-148z" />
<glyph unicode="&#x3b3;" horiz-adv-x="496" d="M569 500l-263 -500h-26l-33 -195h-63l33 195h-27l-95 500h66l89 -485h2l251 485h66z" />
<glyph unicode="&#x3b4;" horiz-adv-x="573" d="M504 235q13 79 -22.5 133t-123.5 54q-89 0 -143 -54.5t-67 -132.5t22.5 -132.5t124.5 -54.5q88 0 142 54t67 133zM201 642l10 58h394l-10 -58h-276q130 -81 198.5 -187t49.5 -220q-17 -102 -90 -173.5t-192 -71.5q-61 0 -105.5 21t-65.5 55.5t-30 78.5t1 90 q17 102 91 173.5t197 71.5q30 0 54 -6q-82 100 -226 168z" />
<glyph unicode="&#x3b5;" horiz-adv-x="466" d="M272 224q-54 0 -95.5 -22t-48.5 -65q-8 -44 26.5 -66.5t88.5 -22.5q51 0 90 24t52 69h63q-18 -74 -78.5 -112.5t-138.5 -38.5t-128 39t-38 110q14 81 97 116q-55 36 -42 110q12 70 69.5 107.5t129.5 37.5q73 0 116.5 -38.5t36.5 -112.5h-63q4 46 -23 69.5t-75 23.5 t-84 -21t-44 -65q-7 -43 22 -63.5t77 -20.5h46l-10 -58h-46z" />
<glyph unicode="&#x3b6;" horiz-adv-x="492" d="M290 -10q-61 0 -105.5 21t-65.5 55.5t-30 78.5t1 90q19 111 120.5 216.5t256.5 190.5h-289l10 58h394l-10 -62q-174 -83 -287 -188t-132 -217q-13 -77 25.5 -131t135.5 -54q58 0 113 17l23 -37l-28 -168h-63l24 143q-34 -13 -93 -13z" />
<glyph unicode="&#x3b7;" horiz-adv-x="561" d="M454 -195h-63l84 502q13 76 -8 110.5t-86 34.5q-73 0 -126.5 -47t-67.5 -131l-46 -274h-63l84 500h63l-14 -80q63 90 180 90q182 0 148 -202z" />
<glyph unicode="&#x3b8;" horiz-adv-x="573" d="M517 321h-354q-17 -128 14 -200.5t117 -72.5t142 73t81 200zM172 379h354q18 127 -13.5 200t-117.5 73t-141.5 -72.5t-81.5 -200.5zM104 350q27 163 103.5 261.5t197.5 98.5t164.5 -98.5t16.5 -261.5q-28 -163 -104.5 -261.5t-197.5 -98.5t-164.5 98.5t-15.5 261.5z" />
<glyph unicode="&#x3b9;" horiz-adv-x="262" d="M225 500l-64 -380q-13 -72 52 -72q22 0 35 2l-9 -58q-17 -2 -44 -2q-56 0 -81.5 35t-15.5 95l64 380h63z" />
<glyph unicode="&#x3ba;" horiz-adv-x="509" d="M225 500l-41 -244l299 244h84l-307 -250l238 -250h-88l-229 242l-40 -242h-63l84 500h63z" />
<glyph unicode="&#x3bb;" horiz-adv-x="510" d="M493 0h-66l-90 485h-2l-252 -485h-66l263 500h55l-39 210h66z" />
<glyph unicode="&#x3bc;" horiz-adv-x="562" d="M41 -195l117 695h63l-52 -307q-13 -76 8.5 -110.5t86.5 -34.5q73 0 126.5 47t67.5 131l46 274h63l-84 -500h-63l13 80q-29 -43 -77 -66.5t-103 -23.5q-74 0 -112 33l-37 -218h-63z" />
<glyph unicode="&#x3bd;" horiz-adv-x="496" d="M569 500l-263 -500h-116l-95 500h66l89 -485h2l251 485h66z" />
<glyph unicode="&#x3be;" horiz-adv-x="492" d="M335 48q71 0 127 17l23 -37l-28 -168h-63l24 143q-34 -13 -93 -13q-131 0 -186.5 56.5t-40.5 148.5q7 41 26.5 75t41 53t46.5 33t37.5 18.5t19.5 5.5q-3 0 -13.5 4t-26 15t-28.5 27t-20 43t-1 60q12 76 79 128.5t163 52.5q41 0 85.5 -11t65.5 -33l-44 -49q-43 35 -117 35 q-71 0 -116 -34.5t-54 -89.5t25 -87t114 -32h98l-9 -58h-98q-88 0 -143.5 -43t-67.5 -112q-12 -68 31 -108t143 -40z" />
<glyph unicode="&#x3bf;" horiz-adv-x="572" d="M87 250q9 50 30.5 95.5t56 83t85.5 59.5t112 22t105.5 -22.5t65.5 -59t29.5 -83t-2.5 -95.5q-9 -50 -30.5 -95.5t-56 -83t-86 -59.5t-112.5 -22t-105 22.5t-65 59t-29.5 83t2.5 95.5zM506 250q14 84 -21 143t-123 59t-143 -59t-69 -143t21 -143t123 -59t143 59t69 143z " />
<glyph unicode="&#x3c0;" horiz-adv-x="636" d="M203 442h-99l10 58h575l-10 -58h-99l-54 -322q-13 -72 52 -72q22 0 35 2l-9 -58q-17 -2 -44 -2q-56 0 -81.5 35t-15.5 95l54 322h-251l-74 -442h-63z" />
<glyph unicode="&#x3c1;" horiz-adv-x="607" d="M184 250q-14 -84 20.5 -143t123.5 -59t143.5 59t68.5 143t-20.5 143t-123.5 59t-143.5 -59t-68.5 -143zM153 68l-44 -263h-63l75 445q18 108 91.5 184t192.5 76t167.5 -76t30.5 -184q-12 -70 -45 -127t-95 -95t-143 -38q-118 0 -167 78z" />
<glyph unicode="&#x3c2;" horiz-adv-x="548" d="M294 48q71 0 127 17l23 -37l-28 -168h-65l23 141q-38 -11 -90 -11q-61 0 -105 22.5t-65 59t-29.5 83t2.5 95.5q9 50 30.5 95.5t56 83t85.5 59.5t112 22q96 0 140.5 -48.5t46.5 -130.5h-63q-7 121 -133 121q-88 0 -143 -59t-69 -143t21 -143t123 -59z" />
<glyph unicode="&#x3c3;" horiz-adv-x="572" d="M505 245q14 82 -21.5 139.5t-123.5 57.5t-142.5 -57.5t-68.5 -139.5t21.5 -139.5t123.5 -57.5t142.5 57.5t68.5 139.5zM86 245q17 106 91 180.5t193 74.5h286l-10 -58h-129q71 -74 51 -197q-17 -106 -91 -180.5t-193 -74.5q-61 0 -105 22t-65 57.5t-29.5 81.5t1.5 94z " />
<glyph unicode="&#x3c4;" horiz-adv-x="456" d="M523 500l-10 -58h-180l-54 -322q-13 -72 52 -72q22 0 35 2l-9 -58q-17 -2 -44 -2q-56 0 -81.5 35t-15.5 95l54 322h-180l10 58h423z" />
<glyph unicode="&#x3c5;" horiz-adv-x="555" d="M285 48q66 0 110 40t55 105l52 307h63l-52 -308q-15 -90 -78.5 -146t-159.5 -56t-140.5 56t-29.5 146l52 308h63l-52 -307q-11 -65 20 -105t97 -40z" />
<glyph unicode="&#x3c6;" horiz-adv-x="716" d="M465 452l-68 -404q103 0 170.5 60t81.5 142t-33.5 142t-150.5 60zM295 492l15 -56q-66 -22 -108 -73.5t-52 -112.5q-14 -82 33.5 -142t150.5 -60l109 652h63l-32 -190q133 0 194.5 -77t43.5 -183t-105 -183t-220 -77l-31 -185h-63l31 185q-133 0 -194 77t-43 183 q13 79 68 146t140 96z" />
<glyph unicode="&#x3c7;" horiz-adv-x="482" d="M223 257l-113 243h75l99 -236h2l179 236h75l-195 -243l121 -257h-76l-106 250h-2l-190 -250h-76z" />
<glyph unicode="&#x3c8;" horiz-adv-x="716" d="M754 500l-42 -250q-18 -106 -105 -183t-220 -77l-31 -185h-63l31 185q-133 0 -194 77t-43 183l42 250h63l-42 -250q-14 -82 33.5 -142t150.5 -60l109 652h63l-109 -652q103 0 170.5 60t81.5 142l42 250h63z" />
<glyph unicode="&#x3c9;" horiz-adv-x="809" d="M423 300h62l-10 -60q-16 -93 12.5 -142.5t85.5 -49.5q56 0 98 44t57 134q26 154 -67 225l42 49q58 -42 80 -114t8 -160q-20 -118 -83 -177t-147 -59q-51 0 -88 28t-52 82q-34 -54 -80.5 -82t-97.5 -28q-84 0 -127 59t-23 177q15 88 61.5 160t118.5 114l24 -49 q-115 -71 -141 -225q-15 -90 12 -134t83 -44t101 49.5t61 142.5z" />
<glyph unicode="&#x3ca;" horiz-adv-x="262" d="M85 628q3 17 17 29t31 12t27 -12t7 -29t-17 -29t-31 -12t-27 12t-7 29zM263 628q3 17 17 29t31 12t27 -12t7 -29t-17 -29t-31 -12t-27 12t-7 29zM225 500l-64 -380q-13 -72 52 -72q22 0 35 2l-9 -58q-17 -2 -44 -2q-56 0 -81.5 35t-15.5 95l64 380h63z" />
<glyph unicode="&#x3cb;" horiz-adv-x="554" d="M252 628q3 17 17 29t31 12t27 -12t7 -29t-17 -29t-31 -12t-27 12t-7 29zM430 628q3 17 17 29t31 12t27 -12t7 -29t-17 -29t-31 -12t-27 12t-7 29zM285 48q66 0 110 40t55 105l52 307h63l-52 -308q-15 -90 -78.5 -146t-159.5 -56t-140.5 56t-29.5 146l52 308h63l-52 -307 q-11 -65 20 -105t97 -40z" />
<glyph unicode="&#x3cc;" horiz-adv-x="572" d="M509 715l-108 -138h-37l72 138h73zM87 250q9 50 30.5 95.5t56 83t85.5 59.5t112 22t105.5 -22.5t65.5 -59t29.5 -83t-2.5 -95.5q-9 -50 -30.5 -95.5t-56 -83t-86 -59.5t-112.5 -22t-105 22.5t-65 59t-29.5 83t2.5 95.5zM506 250q14 84 -21 143t-123 59t-143 -59t-69 -143 t21 -143t123 -59t143 59t69 143z" />
<glyph unicode="&#x3cd;" horiz-adv-x="554" d="M500 715l-108 -138h-37l72 138h73zM285 48q66 0 110 40t55 105l52 307h63l-52 -308q-15 -90 -78.5 -146t-159.5 -56t-140.5 56t-29.5 146l52 308h63l-52 -307q-11 -65 20 -105t97 -40z" />
<glyph unicode="&#x3ce;" horiz-adv-x="808" d="M627 715l-108 -138h-37l72 138h73zM423 300h62l-10 -60q-16 -93 12.5 -142.5t85.5 -49.5q56 0 98 44t57 134q26 154 -67 225l42 49q58 -42 80 -114t8 -160q-20 -118 -83 -177t-147 -59q-51 0 -88 28t-52 82q-34 -54 -80.5 -82t-97.5 -28q-84 0 -127 59t-23 177 q15 88 61.5 160t118.5 114l24 -49q-115 -71 -141 -225q-15 -90 12 -134t83 -44t101 49.5t61 142.5z" />
<glyph unicode="&#x400;" horiz-adv-x="599" d="M335 915h83l56 -138h-47zM212 325l-44 -265h390l-10 -60h-455l117 700h443l-10 -60h-378l-43 -255h354l-10 -60h-354z" />
<glyph unicode="&#x401;" horiz-adv-x="599" d="M329 828q2 17 16 29t31 12t27 -12t8 -29q-3 -17 -17 -29t-31 -12t-27 12t-7 29zM507 828q2 17 16 29t31 12t27 -12t8 -29q-3 -17 -17 -29t-31 -12t-27 12t-7 29zM212 325l-44 -265h390l-10 -60h-455l117 700h443l-10 -60h-378l-43 -255h354l-10 -60h-354z" />
<glyph unicode="&#x402;" horiz-adv-x="809" d="M773 227q-39 -237 -275 -237l10 60q94 0 140 46.5t60 130.5t-15.5 130.5t-121.5 46.5q-91 0 -195 -40l-61 -364h-65l107 640h-229l10 60h523l-10 -60h-229l-36 -213q101 37 188 37q115 0 166.5 -60.5t32.5 -176.5z" />
<glyph unicode="&#x403;" horiz-adv-x="541" d="M604 915l-138 -138h-47l102 138h83zM158 0h-65l117 700h440l-10 -60h-375z" />
<glyph unicode="&#x404;" horiz-adv-x="702" d="M374 50q186 0 261 191h65q-40 -115 -123.5 -183t-212.5 -68q-109 0 -175.5 53t-85.5 132t-3 175q12 70 41.5 133t76 114.5t116 82t151.5 30.5q129 0 189.5 -68t62.5 -183h-65q-11 191 -197 191q-121 0 -199 -77.5t-105 -192.5h341l-10 -60h-341q-5 -54 4 -101.5t32.5 -86 t69 -60.5t107.5 -22z" />
<glyph unicode="&#x405;" horiz-adv-x="614" d="M79 195h65q-5 -70 44.5 -107.5t126.5 -37.5q80 0 144.5 36t75.5 105q6 37 -8.5 62.5t-43.5 36.5t-67 20t-78.5 14t-78 17.5t-65.5 30t-40.5 52.5t-4.5 85q17 99 95.5 150t178.5 51q98 0 156.5 -52t48.5 -154h-65q5 72 -37 109t-113 37q-74 0 -131 -36.5t-68 -105.5 q-7 -41 13 -66.5t57 -36.5t82.5 -18t91 -17.5t81 -28t53.5 -55.5t8 -96q-16 -98 -101.5 -149t-193.5 -51q-105 0 -170.5 52.5t-55.5 152.5z" />
<glyph unicode="&#x406;" horiz-adv-x="252" d="M93 0l117 700h65l-117 -700h-65z" />
<glyph unicode="&#x407;" horiz-adv-x="251" d="M135 828q2 17 16 29t31 12t27 -12t8 -29q-3 -17 -17 -29t-31 -12t-27 12t-7 29zM313 828q2 17 16 29t31 12t27 -12t8 -29q-3 -17 -17 -29t-31 -12t-27 12t-7 29zM93 0l117 700h65l-117 -700h-65z" />
<glyph unicode="&#x408;" horiz-adv-x="543" d="M250 50q80 0 124 49.5t57 124.5l80 476h65l-80 -476q-17 -100 -79.5 -167t-176.5 -67q-59 0 -100 20t-58.5 53t-24 75t4.5 86l9 48h65l-9 -48q-13 -74 15 -124t108 -50z" />
<glyph unicode="&#x409;" horiz-adv-x="1035" d="M650 368l-52 -308h191q68 0 118.5 43.5t61.5 110.5q11 68 -25 111t-103 43h-191zM210 314l64 386h431l-45 -272h190q95 0 147.5 -60.5t36.5 -153.5t-88.5 -153.5t-167.5 -60.5h-255l107 640h-301l-54 -326q-5 -31 -9.5 -53t-14.5 -57.5t-21 -60.5t-30 -54t-41.5 -47 t-54.5 -30t-70 -12h-22l10 60h19q35 0 63.5 19t45 44.5t30 64.5t19 65t11.5 61z" />
<glyph unicode="&#x40a;" horiz-adv-x="1033" d="M596 60h191q68 0 118.5 43.5t61.5 110.5q11 68 -25 111t-103 43h-191zM158 0h-65l117 700h65l-45 -272h363l45 272h65l-45 -272h190q95 0 147.5 -60.5t36.5 -153.5t-88.5 -153.5t-167.5 -60.5h-255l62 368h-363z" />
<glyph unicode="&#x40b;" horiz-adv-x="808" d="M315 0h-65l107 640h-229l10 60h523l-10 -60h-229l-36 -216q99 37 187 37q116 0 168 -55.5t35 -158.5l-41 -247h-65l37 219q16 92 -13.5 137t-123.5 45q-90 0 -195 -40z" />
<glyph unicode="&#x40c;" horiz-adv-x="602" d="M640 915l-138 -138h-47l102 138h83zM275 700l-57 -344l397 344h91l-404 -350l302 -350h-94l-295 342l-57 -342h-65l117 700h65z" />
<glyph unicode="&#x40d;" horiz-adv-x="741" d="M386 915h83l56 -138h-47zM639 700h126l-117 -700h-65l114 680h-2l-476 -680h-126l117 700h65l-114 -680h2z" />
<glyph unicode="&#x40e;" horiz-adv-x="571" d="M291 914h53q-6 -38 15.5 -62.5t66.5 -24.5t75.5 24.5t36.5 62.5h53q-10 -60 -57 -97.5t-116 -37.5t-103 37.5t-24 97.5zM247 0h-68l124 206l-163 494h70l139 -419l253 419h68z" />
<glyph unicode="&#x40f;" horiz-adv-x="706" d="M210 700h65l-107 -640h389l107 640h65l-117 -700h-227l-23 -140h-65l23 140h-227z" />
<glyph unicode="&#x410;" horiz-adv-x="656" d="M441 680l-226 -430h310l-82 430h-2zM84 0h-71l374 700h116l140 -700h-71l-36 190h-352z" />
<glyph unicode="&#x411;" horiz-adv-x="625" d="M168 60h218q64 0 113 42.5t59 106.5q11 65 -23.5 107t-98.5 42h-218zM228 418h217q91 0 142 -59t36 -150t-86 -150t-162 -59h-282l117 700h430l-10 -60h-365z" />
<glyph unicode="&#x412;" horiz-adv-x="676" d="M441 334h-227l-46 -274h227q47 0 85.5 11.5t70 43.5t40.5 82q12 73 -32 105t-118 32zM475 640h-210l-41 -246h210q66 0 115.5 29t60.5 94q10 65 -29.5 94t-105.5 29zM387 0h-294l117 700h277q44 0 79.5 -9t64 -28.5t40.5 -55.5t4 -86q-18 -103 -118 -151q120 -48 98 -178 q-12 -70 -55 -115t-95.5 -61t-117.5 -16z" />
<glyph unicode="&#x413;" horiz-adv-x="541" d="M158 0h-65l117 700h440l-10 -60h-375z" />
<glyph unicode="&#x414;" horiz-adv-x="721" d="M166 60h381l97 580h-324l-46 -275q-32 -193 -108 -305zM-1 -140l33 200h60q83 102 117 305l56 335h454l-107 -640h75l-33 -200h-65l23 140h-525l-23 -140h-65z" />
<glyph unicode="&#x415;" horiz-adv-x="599" d="M212 325l-44 -265h390l-10 -60h-455l117 700h443l-10 -60h-378l-43 -255h354l-10 -60h-354z" />
<glyph unicode="&#x416;" horiz-adv-x="855" d="M577 700l-57 -344l356 344h82l-363 -350l261 -350h-84l-255 342l-57 -342h-65l57 342l-369 -342h-84l379 350l-247 350h82l242 -344l57 344h65z" />
<glyph unicode="&#x417;" horiz-adv-x="614" d="M359 319h-75l10 60h72q76 0 130.5 31.5t65.5 99.5q12 70 -32 105t-118 35q-72 0 -126 -36t-74 -110h-65q24 102 100.5 154t174.5 52q99 0 160 -51.5t45 -148.5q-18 -110 -123 -157q114 -47 95 -164q-11 -65 -58 -111.5t-108 -67t-129 -20.5q-105 0 -170.5 52.5 t-55.5 152.5h65q-5 -72 44 -108.5t127 -36.5q81 0 144.5 35t75.5 104q11 67 -40.5 98.5t-134.5 31.5z" />
<glyph unicode="&#x418;" horiz-adv-x="742" d="M639 700h126l-117 -700h-65l114 680h-2l-476 -680h-126l117 700h65l-114 -680h2z" />
<glyph unicode="&#x419;" horiz-adv-x="742" d="M374 914h53q-6 -38 15.5 -62.5t66.5 -24.5t75.5 24.5t36.5 62.5h53q-10 -60 -57 -97.5t-116 -37.5t-103 37.5t-24 97.5zM639 700h126l-117 -700h-65l114 680h-2l-476 -680h-126l117 700h65l-114 -680h2z" />
<glyph unicode="&#x41a;" horiz-adv-x="602" d="M275 700l-57 -344l397 344h91l-404 -350l302 -350h-94l-295 342l-57 -342h-65l117 700h65z" />
<glyph unicode="&#x41b;" horiz-adv-x="709" d="M34 0h-22l10 60h19q35 0 63.5 19t45 44.5t30 64.5t19 65t11.5 61l64 386h458l-117 -700h-65l107 640h-328l-54 -326q-5 -31 -9.5 -53t-14.5 -57.5t-21 -60.5t-30 -54t-41.5 -47t-54.5 -30t-70 -12z" />
<glyph unicode="&#x41c;" horiz-adv-x="887" d="M335 700l110 -680h2l338 680h125l-117 -700h-65l114 680h-2l-338 -680h-118l-110 680h-2l-114 -680h-65l117 700h125z" />
<glyph unicode="&#x41d;" horiz-adv-x="707" d="M93 0l117 700h65l-52 -314h390l52 314h65l-117 -700h-65l55 326h-390l-55 -326h-65z" />
<glyph unicode="&#x41e;" horiz-adv-x="733" d="M100 350q12 70 41.5 133t76 114.5t116 82t151.5 30.5q66 0 118 -20t82.5 -54.5t49.5 -80.5t20.5 -98t-5.5 -107q-12 -71 -42 -133.5t-76.5 -114t-116 -82t-151.5 -30.5q-109 0 -175.5 53t-85.5 132t-3 175zM685 350q13 80 -1.5 145.5t-67.5 110t-141 44.5 q-129 0 -209 -87.5t-101 -212.5q-12 -57 -4 -111t30 -96t69.5 -67.5t113.5 -25.5q129 0 209 87.5t102 212.5z" />
<glyph unicode="&#x41f;" horiz-adv-x="707" d="M93 0l117 700h520l-117 -700h-65l107 640h-390l-107 -640h-65z" />
<glyph unicode="&#x420;" horiz-adv-x="625" d="M468 640h-203l-54 -324h203q70 0 123.5 45.5t65.5 116.5q12 70 -26 116t-109 46zM403 256h-202l-43 -256h-65l117 700h267q99 0 153 -63t38 -159q-16 -97 -91.5 -159.5t-173.5 -62.5z" />
<glyph unicode="&#x421;" horiz-adv-x="702" d="M634 241h66q-41 -115 -123.5 -183t-212.5 -68q-109 0 -175.5 53t-85.5 132t-3 175q12 70 41.5 133t76 114.5t116 82t151.5 30.5q130 0 190 -67.5t62 -183.5h-66q-9 191 -196 191q-129 0 -209 -87.5t-101 -212.5q-12 -57 -4 -111t30 -96t69.5 -67.5t113.5 -25.5 q189 0 260 191z" />
<glyph unicode="&#x422;" horiz-adv-x="566" d="M422 640l-107 -640h-65l107 640h-229l10 60h523l-10 -60h-229z" />
<glyph unicode="&#x423;" horiz-adv-x="571" d="M247 0h-68l124 206l-163 494h70l139 -419l253 419h68z" />
<glyph unicode="&#x424;" horiz-adv-x="804" d="M155 350q-16 -93 44 -161t190 -68l77 458q-130 0 -213 -68t-98 -161zM766 350q15 94 -45 161.5t-190 67.5l-77 -458q130 0 213 67.5t99 161.5zM831 350q-20 -118 -123 -203.5t-264 -85.5l-13 -81h-65l13 81q-82 0 -144 24.5t-95.5 66t-46.5 92t-3 106.5 q20 118 122.5 203.5t263.5 85.5l13 81h65l-13 -81q108 0 180 -42.5t97 -107t13 -139.5z" />
<glyph unicode="&#x425;" horiz-adv-x="588" d="M668 700l-245 -334l149 -366h-76l-141 357h-2l-261 -357h-76l271 366l-133 334h74l128 -323h2l236 323h74z" />
<glyph unicode="&#x426;" horiz-adv-x="705" d="M210 700h65l-107 -640h370l107 640h65l-107 -640h68l-33 -200h-65l23 140h-503z" />
<glyph unicode="&#x427;" horiz-adv-x="652" d="M610 700h65l-117 -700h-65l47 282q-100 -36 -187 -36q-116 0 -168 55.5t-35 158.5l40 240h65l-35 -212q-15 -93 13.5 -137.5t122.5 -44.5q90 0 195 40z" />
<glyph unicode="&#x428;" horiz-adv-x="1018" d="M210 700h65l-107 -640h318l107 640h65l-107 -640h318l107 640h65l-117 -700h-831z" />
<glyph unicode="&#x429;" horiz-adv-x="1036" d="M210 700h65l-107 -640h318l107 640h65l-107 -640h318l107 640h65l-107 -640h68l-33 -200h-65l23 140h-834z" />
<glyph unicode="&#x42a;" horiz-adv-x="707" d="M250 60h203q70 0 123.5 45.5t65.5 116.5q12 70 -26 116t-109 46h-203zM122 700h235l-43 -256h202q99 0 153 -63t38 -159t-91 -159t-174 -63h-267l107 640h-170z" />
<glyph unicode="&#x42b;" horiz-adv-x="842" d="M168 60h203q70 0 123.5 45.5t65.5 116.5q12 70 -26 116t-109 46h-203zM232 444h202q99 0 153 -63t38 -159t-91 -159t-174 -63h-267l117 700h65zM748 0h-65l117 700h65z" />
<glyph unicode="&#x42c;" horiz-adv-x="625" d="M168 60h203q70 0 123.5 45.5t65.5 116.5q12 70 -26 116t-109 46h-203zM232 444h202q99 0 153 -63t38 -159t-91 -159t-174 -63h-267l117 700h65z" />
<glyph unicode="&#x42d;" horiz-adv-x="703" d="M344 50q121 0 199 77t106 193h-341l10 60h341q5 54 -4 101.5t-33 86t-69.5 60.5t-107.5 22q-186 0 -261 -191h-65q41 115 124 183t212 68q66 0 118 -20t82.5 -54.5t49.5 -80.5t20.5 -98t-5.5 -107q-12 -71 -42 -133.5t-76.5 -114t-116 -82t-151.5 -30.5q-129 0 -189 68 t-63 183h65q11 -191 197 -191z" />
<glyph unicode="&#x42e;" horiz-adv-x="999" d="M951 350q13 80 -1.5 145.5t-67.5 110t-141 44.5q-129 0 -209 -87.5t-101 -212.5q-12 -57 -4 -111t30 -96t69.5 -67.5t113.5 -25.5q129 0 209 87.5t102 212.5zM158 0h-65l117 700h65l-52 -314h150q33 138 130.5 231t247.5 93q66 0 118 -20t82.5 -54.5t49.5 -80.5t20.5 -98 t-5.5 -107q-12 -71 -42 -133.5t-76.5 -114t-116 -82t-151.5 -30.5q-79 0 -136.5 28t-87.5 75.5t-40.5 106.5t-2.5 126h-150z" />
<glyph unicode="&#x42f;" horiz-adv-x="662" d="M559 334l51 306h-213q-66 0 -116.5 -43t-61.5 -110t25 -110t102 -43h213zM408 700h277l-117 -700h-65l46 274h-182l-227 -274h-76l230 278q-76 14 -114.5 71t-25.5 138q16 93 87.5 153t166.5 60z" />
<glyph unicode="&#x430;" horiz-adv-x="606" d="M506 250q14 84 -20.5 143t-123.5 59t-143.5 -59t-68.5 -143t20.5 -143t123.5 -59t143.5 59t68.5 143zM527 0h-63l14 83q-78 -93 -201 -93q-117 0 -162.5 76.5t-27.5 183.5t89 183.5t188 76.5q123 0 170 -93l14 83h63z" />
<glyph unicode="&#x431;" horiz-adv-x="579" d="M152 235q-13 -78 22.5 -132.5t124.5 -54.5q88 0 142 54t67 133t-22.5 133t-123.5 54q-89 0 -143 -54.5t-67 -132.5zM658 750l-10 -57q-33 -9 -141 -25.5t-153 -36.5q-65 -28 -105 -86.5t-66 -151.5q70 87 188 87q81 0 131 -36.5t65 -90t4 -118.5q-16 -101 -89.5 -173 t-192.5 -72q-81 0 -130.5 37t-64 94t-2.5 129q8 49 15.5 83.5t20 81t29 81.5t39.5 70.5t55.5 63t72.5 45.5q58 27 180 46.5t154 28.5z" />
<glyph unicode="&#x432;" horiz-adv-x="519" d="M334 232h-154l-29 -174h154q117 0 131 87t-102 87zM360 442h-145l-25 -152h145q101 0 113 76q7 41 -17.5 58.5t-70.5 17.5zM312 0h-234l84 500h222q61 0 100.5 -31t27.5 -101q-13 -73 -80 -106q82 -35 67 -121q-8 -52 -40.5 -85t-69 -44.5t-77.5 -11.5z" />
<glyph unicode="&#x433;" horiz-adv-x="407" d="M482 500l-10 -58h-257l-74 -442h-63l84 500h320z" />
<glyph unicode="&#x434;" horiz-adv-x="572" d="M145 58h294l64 384h-254l-28 -167q-22 -133 -76 -217zM-1 -140l33 198h43q58 73 83 217l38 225h380l-74 -442h53l-33 -198h-63l23 140h-397l-23 -140h-63z" />
<glyph unicode="&#x435;" horiz-adv-x="553" d="M158 285h332q3 72 -31 119.5t-107 47.5q-74 0 -124 -47.5t-70 -119.5zM452 142h66q-69 -152 -244 -152q-58 0 -100.5 22.5t-62 59t-27.5 83t3 95.5q12 69 44 125.5t92.5 95.5t137.5 39q58 0 100.5 -22.5t62.5 -59t28 -83t-3 -95.5l-4 -23h-398q-7 -76 26.5 -127.5 t110.5 -51.5q117 0 168 94z" />
<glyph unicode="&#x436;" horiz-adv-x="701" d="M466 500l-41 -243l256 243h78l-263 -250l194 -250h-81l-186 243l-41 -243h-63l41 243l-268 -243h-81l278 250l-179 250h78l174 -243l41 243h63z" />
<glyph unicode="&#x437;" horiz-adv-x="466" d="M268 224h-46l10 58h46q49 0 84.5 20.5t42.5 63.5q8 44 -21 65t-77 21t-83.5 -23.5t-46.5 -69.5h-63q17 74 73.5 112.5t129.5 38.5t118 -37.5t33 -107.5q-13 -75 -78 -110q71 -35 57 -116q-12 -71 -75 -110t-141 -39t-125.5 39t-39.5 112h63q-3 -45 28 -69t82 -24 q54 0 95.5 22.5t49.5 66.5q7 43 -27.5 65t-88.5 22z" />
<glyph unicode="&#x438;" horiz-adv-x="569" d="M451 500h123l-84 -500h-63l81 485h-2l-305 -485h-123l84 500h63l-81 -485h2z" />
<glyph unicode="&#x439;" horiz-adv-x="568" d="M253 714h53q-6 -38 16 -62.5t67 -24.5t75 24.5t36 62.5h53q-10 -60 -56.5 -97.5t-115.5 -37.5t-103.5 37.5t-24.5 97.5zM451 500h123l-84 -500h-63l81 485h-2l-305 -485h-123l84 500h63l-81 -485h2z" />
<glyph unicode="&#x43a;" horiz-adv-x="509" d="M225 500l-41 -244l299 244h84l-307 -250l238 -250h-88l-229 242l-40 -242h-63l84 500h63z" />
<glyph unicode="&#x43b;" horiz-adv-x="559" d="M23 0h-18l10 58h15q23 0 41.5 11.5t28.5 25.5t19 39.5t12 39t7 38.5l49 288h377l-84 -500h-63l74 442h-251l-39 -230q-5 -31 -10 -52t-18.5 -54.5t-30.5 -54t-48 -36t-71 -15.5z" />
<glyph unicode="&#x43c;" horiz-adv-x="697" d="M141 0h-63l84 500h120l68 -485h2l230 485h120l-84 -500h-63l81 485h-2l-230 -485h-112l-68 485h-2z" />
<glyph unicode="&#x43d;" horiz-adv-x="566" d="M487 0h-63l37 221h-283l-37 -221h-63l84 500h63l-37 -221h283l37 221h63z" />
<glyph unicode="&#x43e;" horiz-adv-x="573" d="M87 250q9 50 30.5 95.5t56 83t85.5 59.5t112 22t105.5 -22.5t65.5 -59t29.5 -83t-2.5 -95.5q-9 -50 -30.5 -95.5t-56 -83t-86 -59.5t-112.5 -22t-105 22.5t-65 59t-29.5 83t2.5 95.5zM506 250q14 84 -21 143t-123 59t-143 -59t-69 -143t21 -143t123 -59t143 59t69 143z " />
<glyph unicode="&#x43f;" horiz-adv-x="566" d="M487 0h-63l74 442h-283l-74 -442h-63l84 500h409z" />
<glyph unicode="&#x440;" horiz-adv-x="607" d="M184 250q-14 -84 20.5 -143t123.5 -59t143.5 59t68.5 143t-20.5 143t-123.5 59t-143.5 -59t-68.5 -143zM156 83l-47 -278h-63l117 695h63l-14 -83q78 93 200 93q61 0 104 -22.5t62.5 -59.5t27 -83.5t-2.5 -94.5q-9 -50 -30 -95t-54 -82.5t-83 -60t-111 -22.5 q-122 0 -169 93z" />
<glyph unicode="&#x441;" horiz-adv-x="548" d="M468 169h63q-64 -179 -247 -179q-61 0 -105 22.5t-65 59t-29.5 83t2.5 95.5q9 50 30.5 95.5t56 83t85.5 59.5t112 22q96 0 140.5 -48.5t46.5 -130.5h-63q-7 121 -133 121q-88 0 -143 -59t-69 -143t21 -143t123 -59q126 0 174 121z" />
<glyph unicode="&#x442;" horiz-adv-x="456" d="M523 500l-10 -58h-180l-74 -442h-63l74 442h-180l10 58h423z" />
<glyph unicode="&#x443;" horiz-adv-x="511" d="M577 500l-362 -695h-66l102 195h-55l-95 500h66l90 -485h2l252 485h66z" />
<glyph unicode="&#x444;" horiz-adv-x="716" d="M334 48l68 404q-103 0 -170.5 -60t-81.5 -142t33.5 -142t150.5 -60zM465 452l-68 -404q103 0 170.5 60t81.5 142t-33.5 142t-150.5 60zM387 -10l-31 -185h-63l31 185q-133 0 -194 77t-43 183t104.5 183t219.5 77l32 190h63l-32 -190q133 0 194.5 -77t43.5 -183t-105 -183 t-220 -77z" />
<glyph unicode="&#x445;" horiz-adv-x="482" d="M223 257l-113 243h75l99 -236h2l179 236h75l-195 -243l121 -257h-76l-106 250h-2l-190 -250h-76z" />
<glyph unicode="&#x446;" horiz-adv-x="575" d="M424 58l74 442h63l-74 -442h71l-33 -198h-63l23 140h-407l84 500h63l-74 -442h273z" />
<glyph unicode="&#x447;" horiz-adv-x="538" d="M480 500h63l-84 -500h-63l31 188q-61 -22 -147 -22q-195 0 -162 189l25 145h63l-24 -144q-12 -70 13.5 -101t92.5 -31q87 0 149 22z" />
<glyph unicode="&#x448;" horiz-adv-x="862" d="M409 58l74 442h63l-74 -442h258l74 442h63l-84 -500h-705l84 500h63l-74 -442h258z" />
<glyph unicode="&#x449;" horiz-adv-x="881" d="M409 58l74 442h63l-74 -442h258l74 442h63l-74 -442h71l-33 -198h-63l23 140h-713l84 500h63l-74 -442h258z" />
<glyph unicode="&#x44a;" horiz-adv-x="553" d="M477 156q7 43 -15.5 70.5t-64.5 27.5h-150l-33 -196h150q42 0 74 27.5t39 70.5zM354 0h-213l74 442h-135l10 58h198l-32 -188h150q69 0 107 -44.5t27 -111.5t-64 -111.5t-122 -44.5z" />
<glyph unicode="&#x44b;" horiz-adv-x="678" d="M414 156q7 43 -15.5 70.5t-64.5 27.5h-150l-33 -196h150q42 0 74 27.5t39 70.5zM291 0h-213l84 500h63l-32 -188h150q69 0 107 -44.5t27 -111.5t-64 -111.5t-122 -44.5zM683 500l-84 -500h-63l84 500h63z" />
<glyph unicode="&#x44c;" horiz-adv-x="490" d="M414 156q7 43 -15.5 70.5t-64.5 27.5h-150l-33 -196h150q42 0 74 27.5t39 70.5zM291 0h-213l84 500h63l-32 -188h150q68 0 106.5 -44.5t27.5 -111.5t-64.5 -111.5t-121.5 -44.5z" />
<glyph unicode="&#x44d;" horiz-adv-x="550" d="M261 -10q-98 0 -142 50.5t-45 131.5h65q5 -124 132 -124q80 0 132.5 49t72.5 124h-232l10 58h232q5 75 -31 124t-116 49q-128 0 -174 -124h-65q28 82 89 132t159 50q61 0 105.5 -22.5t65.5 -59t29.5 -83t-2.5 -95.5q-9 -50 -30.5 -95.5t-56 -83t-86 -59.5t-112.5 -22z " />
<glyph unicode="&#x44e;" horiz-adv-x="788" d="M721 250q14 84 -21 143t-123 59t-143 -59t-69 -143t21 -143t123 -59t143 59t69 143zM141 0h-63l84 500h63l-37 -221h120q25 98 96.5 164.5t181.5 66.5q61 0 105.5 -22.5t65.5 -59t29.5 -83t-2.5 -95.5q-9 -50 -30.5 -95.5t-56 -83t-86 -59.5t-112.5 -22 q-110 0 -159.5 66.5t-41.5 164.5h-120z" />
<glyph unicode="&#x44f;" horiz-adv-x="499" d="M168 344q-8 -42 15 -70t65 -28h150l33 196h-150q-42 0 -74 -28t-39 -70zM291 500h213l-84 -500h-63l31 188h-131q-80 -83 -150 -188h-69q66 108 147 197q-45 16 -66.5 55.5t-13.5 91.5q11 66 65 111t121 45z" />
<glyph unicode="&#x450;" horiz-adv-x="552" d="M158 285h332q3 72 -31 119.5t-107 47.5q-74 0 -124 -47.5t-70 -119.5zM452 142h66q-69 -152 -244 -152q-58 0 -100.5 22.5t-62 59t-27.5 83t3 95.5q12 69 44 125.5t92.5 95.5t137.5 39q58 0 100.5 -22.5t62.5 -59t28 -83t-3 -95.5l-4 -23h-398q-7 -76 26.5 -127.5 t110.5 -51.5q117 0 168 94zM350 577l-92 138h83l56 -138h-47z" />
<glyph unicode="&#x451;" horiz-adv-x="552" d="M158 285h332q3 72 -31 119.5t-107 47.5q-74 0 -124 -47.5t-70 -119.5zM452 142h66q-69 -152 -244 -152q-58 0 -100.5 22.5t-62 59t-27.5 83t3 95.5q12 69 44 125.5t92.5 95.5t137.5 39q58 0 100.5 -22.5t62.5 -59t28 -83t-3 -95.5l-4 -23h-398q-7 -76 26.5 -127.5 t110.5 -51.5q117 0 168 94zM251 628q3 17 17 29t31 12t27 -12t7 -29t-17 -29t-31 -12t-27 12t-7 29zM429 628q3 17 17 29t31 12t27 -12t7 -29t-17 -29t-31 -12t-27 12t-7 29z" />
<glyph unicode="&#x452;" horiz-adv-x="581" d="M313 -202l10 56q18 -3 34 -3q63 0 74 70l64 386q12 76 -8.5 110.5t-85.5 34.5q-73 0 -126.5 -47t-67.5 -131l-46 -274h-63l97 582h-49l9 50h49l11 68h63l-11 -68h155l-9 -50h-155l-27 -162q63 90 180 90q182 0 148 -202l-64 -379q-23 -134 -143 -134q-16 0 -39 3z" />
<glyph unicode="&#x453;" horiz-adv-x="407" d="M496 715l-138 -138h-47l102 138h83zM482 500l-10 -58h-257l-74 -442h-63l84 500h320z" />
<glyph unicode="&#x454;" horiz-adv-x="550" d="M284 -10q-61 0 -105 22.5t-65 59t-29.5 83t2.5 95.5q9 50 30.5 95.5t56 83t85.5 59.5t112 22q98 0 142 -50t46 -132h-65q-7 124 -132 124q-80 0 -132.5 -49t-72.5 -124h232l-10 -58h-232q-5 -75 31 -124t116 -49q126 0 174 124h65q-65 -182 -249 -182z" />
<glyph unicode="&#x455;" horiz-adv-x="466" d="M66 141h63q-3 -45 28 -69t82 -24q54 0 95.5 22.5t49.5 66.5q6 38 -22.5 57t-72 26.5t-87 17.5t-70 40.5t-17.5 84.5q12 73 69 110t130 37t116.5 -38.5t36.5 -112.5h-63q4 46 -23.5 69.5t-74.5 23.5q-48 0 -84 -21t-44 -65q-5 -32 14.5 -50.5t52.5 -24.5t71.5 -15 t70.5 -19.5t50 -40.5t10 -76q-13 -73 -75.5 -111.5t-143.5 -38.5q-76 0 -123 39t-39 112z" />
<glyph unicode="&#x456;" horiz-adv-x="219" d="M177 666q4 19 18.5 31t32.5 12t28.5 -12t6.5 -31q-3 -19 -17.5 -31t-32.5 -12t-28.5 12t-7.5 31zM78 0l84 500h63l-84 -500h-63z" />
<glyph unicode="&#x457;" horiz-adv-x="219" d="M84 628q3 17 17 29t31 12t27 -12t7 -29t-17 -29t-31 -12t-27 12t-7 29zM262 628q3 17 17 29t31 12t27 -12t7 -29t-17 -29t-31 -12t-27 12t-7 29zM78 0l84 500h63l-84 -500h-63z" />
<glyph unicode="&#x458;" horiz-adv-x="219" d="M177 666q4 19 18.5 31t32.5 12t28.5 -12t6.5 -31q-3 -19 -17.5 -31t-32.5 -12t-28.5 12t-7.5 31zM-53 -203l9 56q13 -2 35 -2q63 0 74 70l97 579h63l-96 -571q-22 -134 -143 -134q-11 0 -39 2z" />
<glyph unicode="&#x459;" horiz-adv-x="796" d="M720 152q7 41 -14.5 67.5t-62.5 26.5h-144l-31 -188h144q41 0 71 26.5t37 67.5zM23 0h-18l10 58h15q23 0 41.5 11.5t28.5 25.5t19 39.5t12 39t7 38.5l49 288h355l-33 -196h144q67 0 104 -43t26 -109q-10 -66 -62 -109t-119 -43h-207l74 442h-229l-39 -230q-5 -31 -10 -52 t-18.5 -54.5t-30.5 -54t-48 -36t-71 -15.5z" />
<glyph unicode="&#x45a;" horiz-adv-x="803" d="M727 152q7 41 -14.5 67.5t-62.5 26.5h-144l-31 -188h144q41 0 71 26.5t37 67.5zM609 0h-207l41 246h-261l-41 -246h-63l84 500h63l-33 -196h261l33 196h63l-33 -196h144q67 0 104 -43t26 -109q-10 -66 -62 -109t-119 -43z" />
<glyph unicode="&#x45b;" horiz-adv-x="581" d="M161 0h-63l97 582h-49l9 50h49l11 68h63l-11 -68h155l-9 -50h-155l-27 -162q63 90 180 90q182 0 148 -202l-52 -308h-63l51 307q12 76 -8.5 110.5t-85.5 34.5q-73 0 -126.5 -47t-67.5 -131z" />
<glyph unicode="&#x45c;" horiz-adv-x="509" d="M546 715l-138 -138h-47l102 138h83zM225 500l-41 -244l299 244h84l-307 -250l238 -250h-88l-229 242l-40 -242h-63l84 500h63z" />
<glyph unicode="&#x45d;" horiz-adv-x="568" d="M266 715h83l56 -138h-47zM451 500h123l-84 -500h-63l81 485h-2l-305 -485h-123l84 500h63l-81 -485h2z" />
<glyph unicode="&#x45e;" horiz-adv-x="510" d="M224 714h53q-6 -38 16 -62.5t67 -24.5t75 24.5t36 62.5h53q-10 -60 -56.5 -97.5t-115.5 -37.5t-103.5 37.5t-24.5 97.5zM577 500l-362 -695h-66l102 195h-55l-95 500h66l90 -485h2l252 485h66z" />
<glyph unicode="&#x45f;" horiz-adv-x="566" d="M434 58l74 442h63l-84 -500h-172l-23 -140h-65l23 140h-172l84 500h63l-74 -442h283z" />
<glyph unicode="&#x462;" horiz-adv-x="632" d="M195 60h191q68 0 118.5 43.5t61.5 110.5q11 68 -25 111t-103 43h-191zM375 0h-255l97 580h-97l9 54h97l11 66h65l-11 -66h190l-9 -54h-190l-25 -152h190q95 0 147.5 -60.5t36.5 -153.5t-88.5 -153.5t-167.5 -60.5z" />
<glyph unicode="&#x463;" horiz-adv-x="516" d="M440 156q7 43 -15.5 70.5t-64.5 27.5h-150l-33 -196h150q42 0 74 27.5t39 70.5zM317 0h-213l79 470h-88l8 50h88l30 180h63l-30 -180h155l-8 -50h-155l-27 -158h150q68 0 106.5 -44.5t27.5 -111.5t-64.5 -111.5t-121.5 -44.5z" />
<glyph unicode="&#x48a;" horiz-adv-x="724" d="M364 914h43q-7 -42 16 -69.5t70 -27.5t79 27.5t39 69.5h43q-10 -59 -56 -97t-112 -38t-99 37.5t-23 97.5zM653 700h82l-107 -640h83l-112 -200h-65l77 140h-58l101 602h-2l-477 -602h-82l117 700h65l-101 -602h2z" />
<glyph unicode="&#x48b;" horiz-adv-x="584" d="M253 714h53q-6 -38 16 -62.5t67 -24.5t75 24.5t36 62.5h53q-10 -60 -56.5 -97.5t-115.5 -37.5t-103.5 37.5t-24.5 97.5zM451 500h123l-74 -441h83l-112 -199h-63l77 140h-58l81 485h-2l-305 -485h-123l84 500h63l-81 -485h2z" />
<glyph unicode="&#x48c;" horiz-adv-x="632" d="M195 60h191q68 0 118.5 43.5t61.5 110.5q11 68 -25 111t-103 43h-191zM375 0h-255l97 580h-97l9 54h97l11 66h65l-11 -66h190l-9 -54h-190l-25 -152h190q95 0 147.5 -60.5t36.5 -153.5t-88.5 -153.5t-167.5 -60.5z" />
<glyph unicode="&#x48d;" horiz-adv-x="516" d="M440 156q7 43 -15.5 70.5t-64.5 27.5h-150l-33 -196h150q42 0 74 27.5t39 70.5zM317 0h-213l79 470h-88l8 50h88l30 180h63l-30 -180h155l-8 -50h-155l-27 -158h150q68 0 106.5 -44.5t27.5 -111.5t-64.5 -111.5t-121.5 -44.5z" />
<glyph unicode="&#x48e;" horiz-adv-x="625" d="M468 640h-203l-54 -324h203q37 0 73 14l-61 74l43 37l67 -81q55 47 67 118q12 70 -26 116t-109 46zM403 256h-202l-43 -256h-65l117 700h267q99 0 153 -63t38 -159q-17 -100 -95 -162l57 -68l-44 -37l-61 74q-56 -29 -122 -29z" />
<glyph unicode="&#x48f;" horiz-adv-x="605" d="M183 250q-14 -84 20.5 -143t123.5 -59q48 0 92 21l-58 69l42 36l61 -73q60 57 75 149q14 84 -20.5 143t-123.5 59t-143.5 -59t-68.5 -143zM502 56l56 -68l-42 -36l-59 71q-58 -33 -133 -33q-122 0 -169 93l-47 -278h-63l117 695h63l-14 -83q78 93 200 93q61 0 104 -22.5 t62.5 -59.5t27 -83.5t-2.5 -94.5q-21 -122 -100 -194z" />
<glyph unicode="&#x490;" horiz-adv-x="541" d="M158 0h-65l117 700h375l22 130h65l-32 -190h-375z" />
<glyph unicode="&#x491;" horiz-adv-x="407" d="M500 610l-28 -168h-257l-74 -442h-63l84 500h257l18 110h63z" />
<glyph unicode="&#x492;" horiz-adv-x="568" d="M185 0h-65l54 323h-97l9 54h97l54 323h440l-10 -60h-375l-44 -263h190l-9 -54h-190z" />
<glyph unicode="&#x493;" horiz-adv-x="434" d="M509 500l-10 -58h-257l-27 -163h155l-9 -50h-155l-38 -229h-63l38 229h-88l9 50h88l37 221h320z" />
<glyph unicode="&#x494;" horiz-adv-x="614" d="M158 0h-65l117 700h440l-10 -60h-375l-42 -254q93 28 167 28q129 0 180 -78.5t29 -208.5q-22 -132 -104.5 -217.5t-213.5 -85.5l10 60q99 0 162 67.5t81 175.5q18 104 -22 165.5t-142 61.5q-73 0 -157 -28z" />
<glyph unicode="&#x495;" horiz-adv-x="460" d="M141 0h-63l84 500h320l-10 -60h-257l-28 -168q59 18 106 18q92 0 130.5 -58.5t23.5 -150.5q-18 -106 -81 -171.5t-158 -65.5l10 58q68 1 109.5 47.5t56.5 131.5q11 68 -15.5 109.5t-95.5 41.5q-48 0 -96 -17z" />
<glyph unicode="&#x496;" horiz-adv-x="905" d="M577 700l-57 -344l356 344h82l-363 -350l216 -290h104l-33 -200h-65l23 140h-68l-255 342l-57 -342h-65l57 342l-369 -342h-84l379 350l-247 350h82l242 -344l57 344h65z" />
<glyph unicode="&#x497;" horiz-adv-x="743" d="M466 500l-41 -243l256 243h78l-263 -250l149 -192h108l-33 -198h-63l23 140h-71l-186 243l-41 -243h-63l41 243l-268 -243h-81l278 250l-179 250h78l174 -243l41 243h63z" />
<glyph unicode="&#x498;" horiz-adv-x="614" d="M359 319h-75l10 60h72q76 0 130.5 31.5t65.5 99.5q12 70 -32 105t-118 35q-72 0 -126 -36t-74 -110h-65q24 102 100.5 154t174.5 52q99 0 160 -51.5t45 -148.5q-18 -110 -123 -157q114 -47 95 -164q-15 -88 -89.5 -139t-171.5 -59l-22 -131h-65l22 131q-93 8 -148.5 60 t-46.5 144h65q-5 -72 44 -108.5t127 -36.5q81 0 144.5 35t75.5 104q11 67 -40.5 98.5t-134.5 31.5z" />
<glyph unicode="&#x499;" horiz-adv-x="466" d="M268 224h-46l10 58h46q49 0 84.5 20.5t42.5 63.5q8 44 -21 65t-77 21t-83.5 -23.5t-46.5 -69.5h-63q17 74 73.5 112.5t129.5 38.5t118 -37.5t33 -107.5q-12 -73 -78 -110q71 -35 57 -116q-11 -64 -62.5 -101.5t-120.5 -45.5l-22 -132h-63l22 132q-66 7 -104 45t-31 104 h63q-3 -45 28 -69t82 -24q54 0 95.5 22.5t49.5 66.5q7 43 -27.5 65t-88.5 22z" />
<glyph unicode="&#x49a;" horiz-adv-x="643" d="M275 700l-57 -344l397 344h91l-404 -350l250 -290h101l-33 -200h-65l23 140h-68l-295 342l-57 -342h-65l117 700h65z" />
<glyph unicode="&#x49b;" horiz-adv-x="544" d="M258 700l-74 -444l299 244h84l-307 -250l183 -192h111l-33 -198h-63l23 140h-71l-229 242l-40 -242h-63l117 700h63z" />
<glyph unicode="&#x49c;" horiz-adv-x="641" d="M93 0l117 700h65l-54 -324h69l22 130h52l-22 -130h53l273 324h77l-293 -350l191 -350h-80l-177 324h-53l-22 -130h-52l22 130h-69l-54 -324h-65z" />
<glyph unicode="&#x49d;" horiz-adv-x="536" d="M78 0l84 500h63l-38 -223h57l16 93h50l-16 -93h43l186 223h71l-208 -250l139 -250h-75l-123 223h-42l-15 -93h-50l15 93h-57l-37 -223h-63z" />
<glyph unicode="&#x49e;" horiz-adv-x="629" d="M282 580l-37 -224l397 344h91l-404 -350l302 -350h-94l-295 342l-57 -342h-65l97 580h-97l9 54h97l11 66h65l-11 -66h125l-9 -54h-125z" />
<glyph unicode="&#x49f;" horiz-adv-x="535" d="M167 0h-63l97 582h-88l9 50h88l11 68h63l-11 -68h155l-9 -50h-155l-54 -326l299 244h84l-307 -250l238 -250h-88l-229 242z" />
<glyph unicode="&#x4a0;" horiz-adv-x="871" d="M427 0h-65l107 640h-355l10 60h420l-57 -344l397 344h91l-404 -350l302 -350h-94l-295 342z" />
<glyph unicode="&#x4a1;" horiz-adv-x="676" d="M348 242l-40 -242h-63l74 442h-237l10 58h300l-41 -244l299 244h84l-307 -250l238 -250h-88z" />
<glyph unicode="&#x4a2;" horiz-adv-x="706" d="M93 0l117 700h65l-52 -314h390l52 314h65l-107 -640h68l-33 -200h-65l23 140h-68l55 326h-390l-55 -326h-65z" />
<glyph unicode="&#x4a3;" horiz-adv-x="585" d="M495 0h-71l37 221h-283l-37 -221h-63l84 500h63l-37 -221h283l37 221h63l-74 -441h71l-33 -199h-63z" />
<glyph unicode="&#x4a4;" horiz-adv-x="949" d="M93 0l117 700h65l-52 -314h363l52 314h420l-10 -60h-355l-107 -640h-65l55 326h-363l-55 -326h-65z" />
<glyph unicode="&#x4a5;" horiz-adv-x="711" d="M465 0h-63l37 221h-261l-37 -221h-63l84 500h63l-37 -221h261l37 221h300l-10 -58h-237z" />
<glyph unicode="&#x4a6;" horiz-adv-x="1069" d="M93 0l117 700h520l-52 -314q93 28 167 28q129 0 180 -78.5t29 -208.5q-22 -132 -104.5 -217.5t-213.5 -85.5l10 60q99 0 162 67.5t81 175.5q18 104 -22 165.5t-142 61.5q-73 0 -157 -28l-55 -326h-65l107 640h-390l-107 -640h-65z" />
<glyph unicode="&#x4a7;" horiz-adv-x="806" d="M487 0h-63l74 442h-283l-74 -442h-63l84 500h409l-38 -228q59 18 106 18q92 0 130.5 -58.5t23.5 -150.5q-18 -106 -81 -171.5t-158 -65.5l10 58q68 1 109.5 47.5t56.5 131.5q11 68 -15.5 109.5t-95.5 41.5q-48 0 -96 -17z" />
<glyph unicode="&#x4aa;" horiz-adv-x="702" d="M634 241h66q-82 -232 -302 -250l-22 -131h-65l22 131q-97 8 -156 62t-75.5 130t-1.5 167q12 70 41.5 133t76 114.5t116 82t151.5 30.5q130 0 190 -67.5t62 -183.5h-66q-9 191 -196 191q-129 0 -209 -87.5t-101 -212.5q-12 -57 -4 -111t30 -96t69.5 -67.5t113.5 -25.5 q189 0 260 191z" />
<glyph unicode="&#x4ab;" horiz-adv-x="548" d="M468 169h63q-58 -161 -214 -177l-22 -132h-63l22 132q-102 11 -143 84.5t-24 173.5q9 50 30.5 95.5t56 83t85.5 59.5t112 22q96 0 140.5 -48.5t46.5 -130.5h-63q-7 121 -133 121q-88 0 -143 -59t-69 -143t21 -143t123 -59q126 0 174 121z" />
<glyph unicode="&#x4ac;" horiz-adv-x="566" d="M422 640l-97 -580h68l-33 -200h-65l23 140h-68l107 640h-229l10 60h523l-10 -60h-229z" />
<glyph unicode="&#x4ad;" horiz-adv-x="456" d="M523 500l-10 -58h-180l-64 -383h71l-33 -199h-63l23 140h-71l74 442h-180l10 58h423z" />
<glyph unicode="&#x4ae;" horiz-adv-x="602" d="M291 285l-156 415h73l143 -395h1l275 395h73l-294 -415h-25l-48 -285h-65l48 285h-25z" />
<glyph unicode="&#x4af;" horiz-adv-x="496" d="M569 500l-263 -500h-26l-33 -195h-63l33 195h-27l-95 500h66l89 -485h2l251 485h66z" />
<glyph unicode="&#x4b0;" horiz-adv-x="602" d="M291 285l-156 415h73l143 -395h1l275 395h73l-294 -415h146l-9 -50h-171l-39 -235h-65l39 235h-171l9 50h146z" />
<glyph unicode="&#x4b1;" horiz-adv-x="496" d="M569 500l-263 -500h135l-8 -50h-161l-25 -145h-63l25 145h-161l8 50h134l-95 500h66l89 -485h2l251 485h66z" />
<glyph unicode="&#x4b2;" horiz-adv-x="619" d="M668 700l-245 -334l125 -306h91l-33 -200h-65l23 140h-68l-141 357h-2l-261 -357h-76l271 366l-133 334h74l128 -323h2l236 323h74z" />
<glyph unicode="&#x4b3;" horiz-adv-x="524" d="M223 257l-113 243h75l99 -236h2l179 236h75l-195 -243l94 -199h95l-33 -198h-63l23 140h-71l-106 250h-2l-190 -250h-76z" />
<glyph unicode="&#x4b4;" horiz-adv-x="862" d="M422 640l-97 -580h370l107 640h65l-107 -640h68l-33 -200h-65l23 140h-503l107 640h-229l10 60h518l-10 -60h-224z" />
<glyph unicode="&#x4b5;" horiz-adv-x="693" d="M518 500l-10 -58h-175l-64 -384h273l74 442h63l-74 -442h71l-33 -198h-65l23 140h-405l74 442h-180l10 58h418z" />
<glyph unicode="&#x4b6;" horiz-adv-x="670" d="M610 700h65l-107 -640h68l-33 -200h-65l23 140h-68l47 282q-100 -36 -187 -36q-116 0 -168 55.5t-35 158.5l40 240h65l-35 -212q-15 -93 13.5 -137.5t122.5 -44.5q90 0 195 40z" />
<glyph unicode="&#x4b7;" horiz-adv-x="557" d="M480 500h63l-74 -442h71l-33 -198h-63l23 140h-71l31 188q-61 -22 -147 -22q-195 0 -162 189l25 145h63l-24 -144q-12 -70 13.5 -101t92.5 -31q87 0 149 22z" />
<glyph unicode="&#x4b8;" horiz-adv-x="651" d="M610 700h65l-117 -700h-65l47 283q-87 -32 -168 -37l-21 -125h-52l21 126q-99 8 -142.5 62.5t-27.5 150.5l40 240h65l-35 -212q-14 -86 9.5 -130.5t100.5 -50.5l21 124h52l-21 -124q79 5 169 39z" />
<glyph unicode="&#x4b9;" horiz-adv-x="536" d="M285 64h-50l17 103q-165 12 -135 188l25 145h63l-24 -144q-10 -63 9.5 -94.5t71.5 -36.5l18 109h50l-18 -110q71 3 124 22l43 254h63l-84 -500h-63l31 188q-53 -19 -124 -22z" />
<glyph unicode="&#x4ba;" horiz-adv-x="651" d="M158 0h-65l117 700h65l-46 -276q99 37 187 37q116 0 168 -55.5t35 -158.5l-41 -247h-65l37 219q16 92 -13.5 137t-123.5 45q-90 0 -195 -40z" />
<glyph unicode="&#x4bb;" horiz-adv-x="561" d="M487 0h-63l51 307q12 76 -8.5 110.5t-85.5 34.5q-73 0 -126.5 -47t-67.5 -131l-46 -274h-63l117 700h63l-47 -280q63 90 180 90q182 0 148 -202z" />
<glyph unicode="&#x4c0;" horiz-adv-x="252" d="M93 0l117 700h65l-117 -700h-65z" />
<glyph unicode="&#x4c1;" horiz-adv-x="855" d="M431 914h53q-6 -38 15.5 -62.5t66.5 -24.5t75.5 24.5t36.5 62.5h53q-10 -60 -57 -97.5t-116 -37.5t-103 37.5t-24 97.5zM577 700l-57 -344l356 344h82l-363 -350l261 -350h-84l-255 342l-57 -342h-65l57 342l-369 -342h-84l379 350l-247 350h82l242 -344l57 344h65z" />
<glyph unicode="&#x4c2;" horiz-adv-x="701" d="M320 714h53q-6 -38 16 -62.5t67 -24.5t75 24.5t36 62.5h53q-10 -60 -56.5 -97.5t-115.5 -37.5t-103.5 37.5t-24.5 97.5zM466 500l-41 -243l256 243h78l-263 -250l194 -250h-81l-186 243l-41 -243h-63l41 243l-268 -243h-81l278 250l-179 250h78l174 -243l41 243h63z" />
<glyph unicode="&#x4c5;" horiz-adv-x="721" d="M34 0h-22l10 60h19q35 0 63.5 19t45 44.5t30 64.5t19 65t11.5 61l64 386h458l-107 -640h83l-112 -200h-65l77 140h-58l107 640h-328l-54 -326q-5 -31 -9.5 -53t-14.5 -57.5t-21 -60.5t-30 -54t-41.5 -47t-54.5 -30t-70 -12z" />
<glyph unicode="&#x4c6;" horiz-adv-x="574" d="M23 0h-18l10 58h15q23 0 41.5 11.5t28.5 25.5t19 39.5t12 39t7 38.5l49 288h377l-74 -441h83l-112 -199h-63l77 140h-58l74 442h-251l-39 -230q-5 -31 -10 -52t-18.5 -54.5t-30.5 -54t-48 -36t-71 -15.5z" />
<glyph unicode="&#x4c7;" horiz-adv-x="707" d="M93 0l117 700h65l-52 -314h390l52 314h65l-129 -771q-22 -134 -143 -134q-21 0 -41 4l10 59q19 -3 35 -3q62 0 73 70l68 401h-390l-55 -326h-65z" />
<glyph unicode="&#x4c8;" horiz-adv-x="566" d="M571 500l-96 -571q-22 -134 -143 -134q-16 0 -39 3l10 56q18 -3 34 -3q63 0 74 70l50 300h-283l-37 -221h-63l84 500h63l-37 -221h283l37 221h63z" />
<glyph unicode="&#x4c9;" horiz-adv-x="719" d="M93 0l117 700h65l-52 -314h390l52 314h65l-107 -640h83l-112 -200h-65l77 140h-58l55 326h-390l-55 -326h-65z" />
<glyph unicode="&#x4ca;" horiz-adv-x="581" d="M482 0h-58l37 221h-283l-37 -221h-63l84 500h63l-37 -221h283l37 221h63l-74 -441h83l-112 -199h-63z" />
<glyph unicode="&#x4cb;" horiz-adv-x="652" d="M610 700h65l-117 -700h-68l-23 -140h-65l33 200h68l37 222q-100 -36 -187 -36q-116 0 -168 55.5t-35 158.5l40 240h65l-35 -212q-15 -93 13.5 -137.5t122.5 -44.5q90 0 195 40z" />
<glyph unicode="&#x4cc;" horiz-adv-x="538" d="M480 500h63l-84 -500h-71l-23 -140h-63l33 199h71l21 129q-61 -22 -147 -22q-195 0 -162 189l25 145h63l-24 -144q-12 -70 13.5 -101t92.5 -31q87 0 149 22z" />
<glyph unicode="&#x4cd;" horiz-adv-x="899" d="M785 700h125l-107 -640h83l-112 -200h-65l77 140h-58l114 680h-2l-338 -680h-118l-110 680h-2l-114 -680h-65l117 700h125l110 -680h2z" />
<glyph unicode="&#x4ce;" horiz-adv-x="712" d="M582 500h120l-74 -441h83l-112 -199h-63l77 140h-58l81 485h-2l-230 -485h-112l-68 485h-2l-81 -485h-63l84 500h120l68 -485h2z" />
<glyph unicode="&#x4cf;" horiz-adv-x="220" d="M78 0l117 700h63l-117 -700h-63z" />
<glyph unicode="&#x4d0;" horiz-adv-x="656" d="M441 680l-226 -430h310l-82 430h-2zM84 0h-71l374 700h116l140 -700h-71l-36 190h-352zM331 914h53q-6 -38 15.5 -62.5t66.5 -24.5t75.5 24.5t36.5 62.5h53q-10 -60 -57 -97.5t-116 -37.5t-103 37.5t-24 97.5z" />
<glyph unicode="&#x4d1;" horiz-adv-x="605" d="M506 250q14 84 -20.5 143t-123.5 59t-143.5 -59t-68.5 -143t20.5 -143t123.5 -59t143.5 59t68.5 143zM527 0h-63l14 83q-78 -93 -201 -93q-117 0 -162.5 76.5t-27.5 183.5t89 183.5t188 76.5q123 0 170 -93l14 83h63zM255 714h53q-6 -38 16 -62.5t67 -24.5t75 24.5 t36 62.5h53q-10 -60 -56.5 -97.5t-115.5 -37.5t-103.5 37.5t-24.5 97.5z" />
<glyph unicode="&#x4d2;" horiz-adv-x="656" d="M441 680l-226 -430h310l-82 430h-2zM84 0h-71l374 700h116l140 -700h-71l-36 190h-352zM337 828q2 17 16 29t31 12t27 -12t8 -29q-3 -17 -17 -29t-31 -12t-27 12t-7 29zM515 828q2 17 16 29t31 12t27 -12t8 -29q-3 -17 -17 -29t-31 -12t-27 12t-7 29z" />
<glyph unicode="&#x4d3;" horiz-adv-x="606" d="M506 250q14 84 -20.5 143t-123.5 59t-143.5 -59t-68.5 -143t20.5 -143t123.5 -59t143.5 59t68.5 143zM527 0h-63l14 83q-78 -93 -201 -93q-117 0 -162.5 76.5t-27.5 183.5t89 183.5t188 76.5q123 0 170 -93l14 83h63zM261 628q3 17 17 29t31 12t27 -12t7 -29t-17 -29 t-31 -12t-27 12t-7 29zM439 628q3 17 17 29t31 12t27 -12t7 -29t-17 -29t-31 -12t-27 12t-7 29z" />
<glyph unicode="&#x4d4;" horiz-adv-x="1010" d="M616 680l-331 -430h261l72 430h-2zM92 0h-79l547 700h504l-10 -60h-378l-43 -255h354l-10 -60h-354l-44 -265h390l-10 -60h-455l32 190h-297z" />
<glyph unicode="&#x4d5;" horiz-adv-x="971" d="M506 250q14 84 -20.5 143t-123.5 59t-143.5 -59t-68.5 -143t20.5 -143t123.5 -59t143.5 59t68.5 143zM576 285h332q2 72 -31.5 119.5t-106.5 47.5t-123.5 -47.5t-70.5 -119.5zM527 0h-63l14 83q-78 -93 -201 -93q-117 0 -162.5 76.5t-27.5 183.5t89 183.5t188 76.5 q123 0 170 -93l14 83h63l-14 -83q73 93 182 93q58 0 100.5 -22.5t62.5 -59t28 -83t-3 -95.5l-4 -23h-398q-7 -76 26.5 -127.5t110.5 -51.5q117 0 168 94h66q-69 -152 -244 -152q-109 0 -151 93z" />
<glyph unicode="&#x4d6;" horiz-adv-x="599" d="M323 914h53q-6 -38 15.5 -62.5t66.5 -24.5t75.5 24.5t36.5 62.5h53q-10 -60 -57 -97.5t-116 -37.5t-103 37.5t-24 97.5zM212 325l-44 -265h390l-10 -60h-455l117 700h443l-10 -60h-378l-43 -255h354l-10 -60h-354z" />
<glyph unicode="&#x4d7;" horiz-adv-x="552" d="M158 285h332q3 72 -31 119.5t-107 47.5q-74 0 -124 -47.5t-70 -119.5zM452 142h66q-69 -152 -244 -152q-58 0 -100.5 22.5t-62 59t-27.5 83t3 95.5q12 69 44 125.5t92.5 95.5t137.5 39q58 0 100.5 -22.5t62.5 -59t28 -83t-3 -95.5l-4 -23h-398q-7 -76 26.5 -127.5 t110.5 -51.5q117 0 168 94zM245 714h53q-6 -38 16 -62.5t67 -24.5t75 24.5t36 62.5h53q-10 -60 -56.5 -97.5t-115.5 -37.5t-103.5 37.5t-24.5 97.5z" />
<glyph unicode="&#x4d8;" horiz-adv-x="711" d="M647 286h-491q-15 -236 196 -236q112 0 187 66.5t108 169.5zM728 350q-12 -71 -42 -133.5t-76.5 -114t-116 -82t-151.5 -30.5q-66 0 -115 19t-77 52t-44 78t-15.5 97.5t8.5 109.5h563q22 131 -30 217.5t-179 86.5q-191 0 -261 -191h-65q40 116 122.5 183.5t213.5 67.5 q66 0 118 -20t82.5 -54.5t49.5 -80.5t20.5 -98t-5.5 -107z" />
<glyph unicode="&#x4d9;" horiz-adv-x="553" d="M478 215h-332q-4 -72 30 -119.5t108 -47.5q73 0 123.5 47.5t70.5 119.5zM184 358h-66q68 152 243 152q58 0 100.5 -22.5t62.5 -59t28 -83t-3 -95.5q-9 -50 -30 -95.5t-54.5 -83t-83 -59.5t-107.5 -22t-100.5 22.5t-62 59t-27.5 83t3 95.5l4 23h398q7 77 -26.5 128 t-110.5 51q-119 0 -168 -94z" />
<glyph unicode="&#x4da;" horiz-adv-x="710" d="M647 286h-491q-15 -236 196 -236q112 0 187 66.5t108 169.5zM728 350q-12 -71 -42 -133.5t-76.5 -114t-116 -82t-151.5 -30.5q-66 0 -115 19t-77 52t-44 78t-15.5 97.5t8.5 109.5h563q22 131 -30 217.5t-179 86.5q-191 0 -261 -191h-65q40 116 122.5 183.5t213.5 67.5 q66 0 118 -20t82.5 -54.5t49.5 -80.5t20.5 -98t-5.5 -107zM353 828q2 17 16 29t31 12t27 -12t8 -29q-3 -17 -17 -29t-31 -12t-27 12t-7 29zM531 828q2 17 16 29t31 12t27 -12t8 -29q-3 -17 -17 -29t-31 -12t-27 12t-7 29z" />
<glyph unicode="&#x4db;" horiz-adv-x="552" d="M478 215h-332q-4 -72 30 -119.5t108 -47.5q73 0 123.5 47.5t70.5 119.5zM184 358h-66q68 152 243 152q58 0 100.5 -22.5t62.5 -59t28 -83t-3 -95.5q-9 -50 -30 -95.5t-54.5 -83t-83 -59.5t-107.5 -22t-100.5 22.5t-62 59t-27.5 83t3 95.5l4 23h398q7 77 -26.5 128 t-110.5 51q-119 0 -168 -94zM251 628q3 17 17 29t31 12t27 -12t7 -29t-17 -29t-31 -12t-27 12t-7 29zM429 628q3 17 17 29t31 12t27 -12t7 -29t-17 -29t-31 -12t-27 12t-7 29z" />
<glyph unicode="&#x4dc;" horiz-adv-x="855" d="M437 828q2 17 16 29t31 12t27 -12t8 -29q-3 -17 -17 -29t-31 -12t-27 12t-7 29zM615 828q2 17 16 29t31 12t27 -12t8 -29q-3 -17 -17 -29t-31 -12t-27 12t-7 29zM577 700l-57 -344l356 344h82l-363 -350l261 -350h-84l-255 342l-57 -342h-65l57 342l-369 -342h-84 l379 350l-247 350h82l242 -344l57 344h65z" />
<glyph unicode="&#x4dd;" horiz-adv-x="701" d="M326 628q3 17 17 29t31 12t27 -12t7 -29t-17 -29t-31 -12t-27 12t-7 29zM504 628q3 17 17 29t31 12t27 -12t7 -29t-17 -29t-31 -12t-27 12t-7 29zM466 500l-41 -243l256 243h78l-263 -250l194 -250h-81l-186 243l-41 -243h-63l41 243l-268 -243h-81l278 250l-179 250h78 l174 -243l41 243h63z" />
<glyph unicode="&#x4de;" horiz-adv-x="614" d="M313 828q2 17 16 29t31 12t27 -12t8 -29q-3 -17 -17 -29t-31 -12t-27 12t-7 29zM491 828q2 17 16 29t31 12t27 -12t8 -29q-3 -17 -17 -29t-31 -12t-27 12t-7 29zM360 319h-75l10 60h72q76 0 130.5 31.5t65.5 99.5q12 70 -32 105t-118 35q-72 0 -126 -36t-74 -110h-65 q24 102 100.5 154t174.5 52q99 0 160 -51.5t45 -148.5q-18 -110 -123 -157q114 -47 95 -164q-11 -65 -58 -111.5t-108 -67t-129 -20.5q-105 0 -170.5 52.5t-55.5 152.5h65q-5 -72 44 -108.5t127 -36.5q81 0 144.5 35t75.5 104q11 67 -40.5 98.5t-134.5 31.5z" />
<glyph unicode="&#x4df;" horiz-adv-x="466" d="M207 628q3 17 17 29t31 12t27 -12t7 -29t-17 -29t-31 -12t-27 12t-7 29zM385 628q3 17 17 29t31 12t27 -12t7 -29t-17 -29t-31 -12t-27 12t-7 29zM268 224h-46l10 58h46q49 0 84.5 20.5t42.5 63.5q8 44 -21 65t-77 21q-47 0 -82.5 -24t-47.5 -69h-63q17 74 73.5 112.5 t129.5 38.5t118 -37.5t33 -107.5q-13 -75 -78 -110q71 -35 57 -116q-12 -71 -75 -110t-141 -39t-125.5 39t-39.5 112h63q-3 -44 28 -68.5t82 -24.5q54 0 95.5 22.5t49.5 66.5q7 43 -27.5 65t-88.5 22z" />
<glyph unicode="&#x4e2;" horiz-adv-x="741" d="M641 788h-276l8 51h276zM639 700h126l-117 -700h-65l114 680h-2l-476 -680h-126l117 700h65l-114 -680h2z" />
<glyph unicode="&#x4e3;" horiz-adv-x="568" d="M520 588h-276l9 51h276zM451 500h123l-84 -500h-63l81 485h-2l-305 -485h-123l84 500h63l-81 -485h2z" />
<glyph unicode="&#x4e4;" horiz-adv-x="741" d="M380 828q2 17 16 29t31 12t27 -12t8 -29q-3 -17 -17 -29t-31 -12t-27 12t-7 29zM558 828q2 17 16 29t31 12t27 -12t8 -29q-3 -17 -17 -29t-31 -12t-27 12t-7 29zM639 700h126l-117 -700h-65l114 680h-2l-476 -680h-126l117 700h65l-114 -680h2z" />
<glyph unicode="&#x4e5;" horiz-adv-x="568" d="M259 628q3 17 17 29t31 12t27 -12t7 -29t-17 -29t-31 -12t-27 12t-7 29zM437 628q3 17 17 29t31 12t27 -12t7 -29t-17 -29t-31 -12t-27 12t-7 29zM451 500h123l-84 -500h-63l81 485h-2l-305 -485h-123l84 500h63l-81 -485h2z" />
<glyph unicode="&#x4e6;" horiz-adv-x="732" d="M375 828q2 17 16 29t31 12t27 -12t8 -29q-3 -17 -17 -29t-31 -12t-27 12t-7 29zM553 828q2 17 16 29t31 12t27 -12t8 -29q-3 -17 -17 -29t-31 -12t-27 12t-7 29zM100 350q12 70 41.5 133t76 114.5t116 82t151.5 30.5q66 0 118 -20t82.5 -54.5t49.5 -80.5t20.5 -98 t-5.5 -107q-12 -71 -42 -133.5t-76.5 -114t-116 -82t-151.5 -30.5q-109 0 -175.5 53t-85.5 132t-3 175zM685 350q13 80 -1.5 145.5t-67.5 110t-141 44.5q-129 0 -209 -87.5t-101 -212.5q-12 -57 -4 -111t30 -96t69.5 -67.5t113.5 -25.5q129 0 209 87.5t102 212.5z" />
<glyph unicode="&#x4e7;" horiz-adv-x="572" d="M261 628q3 17 17 29t31 12t27 -12t7 -29t-17 -29t-31 -12t-27 12t-7 29zM439 628q3 17 17 29t31 12t27 -12t7 -29t-17 -29t-31 -12t-27 12t-7 29zM87 250q9 50 30.5 95.5t56 83t85.5 59.5t112 22t105.5 -22.5t65.5 -59t29.5 -83t-2.5 -95.5q-9 -50 -30.5 -95.5t-56 -83 t-86 -59.5t-112.5 -22t-105 22.5t-65 59t-29.5 83t2.5 95.5zM506 250q14 84 -21 143t-123 59t-143 -59t-69 -143t21 -143t123 -59t143 59t69 143z" />
<glyph unicode="&#x4e8;" horiz-adv-x="733" d="M679 320h-518q-5 -54 4 -101.5t32.5 -86t69 -60.5t107.5 -22q121 0 199 77t106 193zM171 380h518q5 54 -4 101.5t-33 86t-69.5 60.5t-107.5 22q-121 0 -199 -77.5t-105 -192.5zM100 350q12 70 41.5 133t76 114.5t116 82t151.5 30.5q66 0 118 -20t82.5 -54.5t49.5 -80.5 t20.5 -98t-5.5 -107q-12 -71 -42 -133.5t-76.5 -114t-116 -82t-151.5 -30.5q-109 0 -175.5 53t-85.5 132t-3 175z" />
<glyph unicode="&#x4e9;" horiz-adv-x="573" d="M501 225h-354q-7 -76 29 -126.5t118 -50.5t134.5 50.5t72.5 126.5zM155 275h354q7 76 -29 126.5t-118 50.5t-134.5 -50.5t-72.5 -126.5zM87 250q9 50 30.5 95.5t56 83t85.5 59.5t112 22t105.5 -22.5t65.5 -59t29.5 -83t-2.5 -95.5q-9 -50 -30.5 -95.5t-56 -83t-86 -59.5 t-112.5 -22t-105 22.5t-65 59t-29.5 83t2.5 95.5z" />
<glyph unicode="&#x4ea;" horiz-adv-x="732" d="M679 320h-518q-5 -54 4 -101.5t32.5 -86t69 -60.5t107.5 -22q121 0 199 77t106 193zM171 380h518q5 54 -4 101.5t-33 86t-69.5 60.5t-107.5 22q-121 0 -199 -77.5t-105 -192.5zM100 350q12 70 41.5 133t76 114.5t116 82t151.5 30.5q66 0 118 -20t82.5 -54.5t49.5 -80.5 t20.5 -98t-5.5 -107q-12 -71 -42 -133.5t-76.5 -114t-116 -82t-151.5 -30.5q-109 0 -175.5 53t-85.5 132t-3 175zM375 828q2 17 16 29t31 12t27 -12t8 -29q-3 -17 -17 -29t-31 -12t-27 12t-7 29zM553 828q2 17 16 29t31 12t27 -12t8 -29q-3 -17 -17 -29t-31 -12t-27 12 t-7 29z" />
<glyph unicode="&#x4eb;" horiz-adv-x="572" d="M501 225h-354q-7 -76 29 -126.5t118 -50.5t134.5 50.5t72.5 126.5zM155 275h354q7 76 -29 126.5t-118 50.5t-134.5 -50.5t-72.5 -126.5zM87 250q9 50 30.5 95.5t56 83t85.5 59.5t112 22t105.5 -22.5t65.5 -59t29.5 -83t-2.5 -95.5q-9 -50 -30.5 -95.5t-56 -83t-86 -59.5 t-112.5 -22t-105 22.5t-65 59t-29.5 83t2.5 95.5zM261 628q3 17 17 29t31 12t27 -12t7 -29t-17 -29t-31 -12t-27 12t-7 29zM439 628q3 17 17 29t31 12t27 -12t7 -29t-17 -29t-31 -12t-27 12t-7 29z" />
<glyph unicode="&#x4ec;" horiz-adv-x="701" d="M344 828q2 17 16 29t31 12t27 -12t8 -29q-3 -17 -17 -29t-31 -12t-27 12t-7 29zM522 828q2 17 16 29t31 12t27 -12t8 -29q-3 -17 -17 -29t-31 -12t-27 12t-7 29zM343 50q121 0 199 77t106 193h-341l10 60h341q5 54 -4 101.5t-33 86t-69.5 60.5t-107.5 22 q-186 0 -261 -191h-65q41 115 124 183t212 68q66 0 118 -20t82.5 -54.5t49.5 -80.5t20.5 -98t-5.5 -107q-12 -71 -42 -133.5t-76.5 -114t-116 -82t-151.5 -30.5q-129 0 -189 68t-63 183h65q11 -191 197 -191z" />
<glyph unicode="&#x4ed;" horiz-adv-x="549" d="M238 628q3 17 17 29t31 12t27 -12t7 -29t-17 -29t-31 -12t-27 12t-7 29zM416 628q3 17 17 29t31 12t27 -12t7 -29t-17 -29t-31 -12t-27 12t-7 29zM261 -10q-98 0 -142 50.5t-45 131.5h65q5 -124 132 -124q80 0 132.5 49t72.5 124h-232l10 58h232q5 75 -31 124t-116 49 q-128 0 -174 -124h-65q28 82 89 132t159 50q61 0 105.5 -22.5t65.5 -59t29.5 -83t-2.5 -95.5q-9 -50 -30.5 -95.5t-56 -83t-86 -59.5t-112.5 -22z" />
<glyph unicode="&#x4ee;" horiz-adv-x="571" d="M558 788h-276l8 51h276zM247 0h-68l124 206l-163 494h70l139 -419l253 419h68z" />
<glyph unicode="&#x4ef;" horiz-adv-x="510" d="M491 588h-276l9 51h276zM577 500l-362 -695h-66l102 195h-55l-95 500h66l90 -485h2l252 485h66z" />
<glyph unicode="&#x4f0;" horiz-adv-x="571" d="M297 828q2 17 16 29t31 12t27 -12t8 -29q-3 -17 -17 -29t-31 -12t-27 12t-7 29zM475 828q2 17 16 29t31 12t27 -12t8 -29q-3 -17 -17 -29t-31 -12t-27 12t-7 29zM247 0h-68l124 206l-163 494h70l139 -419l253 419h68z" />
<glyph unicode="&#x4f1;" horiz-adv-x="510" d="M230 628q3 17 17 29t31 12t27 -12t7 -29t-17 -29t-31 -12t-27 12t-7 29zM408 628q3 17 17 29t31 12t27 -12t7 -29t-17 -29t-31 -12t-27 12t-7 29zM577 500l-362 -695h-66l102 195h-55l-95 500h66l90 -485h2l252 485h66z" />
<glyph unicode="&#x4f2;" horiz-adv-x="571" d="M496 915l-130 -138h-47l94 138h83zM647 915l-130 -138h-47l94 138h83zM247 0h-68l124 206l-163 494h70l139 -419l253 419h68z" />
<glyph unicode="&#x4f3;" horiz-adv-x="510" d="M430 715l-130 -138h-47l94 138h83zM581 715l-130 -138h-47l94 138h83zM577 500l-362 -695h-66l102 195h-55l-95 500h66l90 -485h2l252 485h66z" />
<glyph unicode="&#x4f4;" horiz-adv-x="651" d="M325 828q2 17 16 29t31 12t27 -12t8 -29q-3 -17 -17 -29t-31 -12t-27 12t-7 29zM503 828q2 17 16 29t31 12t27 -12t8 -29q-3 -17 -17 -29t-31 -12t-27 12t-7 29zM610 700h65l-117 -700h-65l47 282q-100 -36 -187 -36q-116 0 -168 55.5t-35 158.5l40 240h65l-35 -212 q-15 -93 13.5 -137.5t122.5 -44.5q90 0 195 40z" />
<glyph unicode="&#x4f5;" horiz-adv-x="536" d="M233 628q3 17 17 29t31 12t27 -12t7 -29t-17 -29t-31 -12t-27 12t-7 29zM411 628q3 17 17 29t31 12t27 -12t7 -29t-17 -29t-31 -12t-27 12t-7 29zM479 500h63l-84 -500h-63l31 188q-61 -22 -147 -22q-195 0 -162 189l25 145h63l-24 -144q-12 -70 13.5 -101t92.5 -31 q87 0 149 22z" />
<glyph unicode="&#x4f6;" horiz-adv-x="541" d="M138 -140l23 140h-68l117 700h440l-10 -60h-375l-97 -580h68l-33 -200h-65z" />
<glyph unicode="&#x4f7;" horiz-adv-x="407" d="M482 500l-10 -58h-257l-64 -384h71l-33 -198h-63l23 140h-71l84 500h320z" />
<glyph unicode="&#x4f8;" horiz-adv-x="841" d="M168 60h203q70 0 123.5 45.5t65.5 116.5q12 70 -26 116t-109 46h-203zM232 444h202q99 0 153 -63t38 -159t-91 -159t-174 -63h-267l117 700h65zM748 0h-65l117 700h65zM430 828q2 17 16 29t31 12t27 -12t8 -29q-3 -17 -17 -29t-31 -12t-27 12t-7 29zM608 828q2 17 16 29 t31 12t27 -12t8 -29q-3 -17 -17 -29t-31 -12t-27 12t-7 29z" />
<glyph unicode="&#x4f9;" horiz-adv-x="677" d="M414 156q7 43 -15.5 70.5t-64.5 27.5h-150l-33 -196h150q42 0 74 27.5t39 70.5zM291 0h-213l84 500h63l-32 -188h150q69 0 107 -44.5t27 -111.5t-64 -111.5t-122 -44.5zM683 500l-84 -500h-63l84 500h63zM314 628q3 17 17 29t31 12t27 -12t7 -29t-17 -29t-31 -12t-27 12 t-7 29zM492 628q3 17 17 29t31 12t27 -12t7 -29t-17 -29t-31 -12t-27 12t-7 29z" />
<glyph unicode="&#x4fa;" horiz-adv-x="568" d="M237 700h440l-10 -60h-375l-44 -263h190l-9 -54h-190l-66 -394q-22 -134 -143 -134q-21 0 -41 4l10 59q19 -3 35 -3q62 0 73 70l67 398h-97l9 54h97z" />
<glyph unicode="&#x4fb;" horiz-adv-x="434" d="M509 500l-10 -58h-257l-27 -163h155l-9 -50h-155l-50 -300q-22 -134 -143 -134q-17 0 -39 3l10 56q18 -3 34 -3q63 0 74 70l51 308h-88l9 50h88l37 221h320z" />
<glyph unicode="&#x4fc;" horiz-adv-x="629" d="M668 700l-245 -334l125 -306h91l-22 -131q-22 -134 -143 -134q-21 0 -41 4l10 59q19 -3 35 -3q31 0 48.5 16.5t24.5 53.5l13 75h-68l-141 357h-2l-261 -357h-76l271 366l-133 334h74l128 -323h2l236 323h74z" />
<glyph unicode="&#x4fd;" horiz-adv-x="524" d="M223 257l-113 243h75l99 -236h2l179 236h75l-195 -243l94 -199h95l-22 -129q-23 -134 -143 -134q-17 0 -39 3l10 56q18 -3 34 -3q63 0 74 70l13 79h-71l-106 250h-2l-190 -250h-76z" />
<glyph unicode="&#x4fe;" horiz-adv-x="588" d="M443 393h121l-9 -54h-121l138 -339h-76l-141 357h-2l-261 -357h-76l252 339h-121l9 54h121l-123 307h74l128 -323h2l236 323h74z" />
<glyph unicode="&#x4ff;" horiz-adv-x="482" d="M365 282h116l-8 -50h-116l109 -232h-76l-106 250h-2l-190 -250h-76l187 232h-116l8 50h116l-101 218h75l99 -236h2l179 236h75z" />
<glyph unicode="&#x510;" horiz-adv-x="614" d="M359 319q-83 0 -144.5 -31.5t-72.5 -98.5q-12 -69 39.5 -104t132.5 -35q78 0 140 36.5t81 108.5h65q-24 -100 -107.5 -152.5t-188.5 -52.5q-107 0 -175 51.5t-52 147.5q19 116 149 164q-89 48 -71 157q16 97 95 148.5t178 51.5q98 0 156.5 -52t48.5 -154h-65 q6 74 -36 110t-114 36q-74 0 -130 -35t-68 -105q-11 -69 32.5 -100t119.5 -31h72l-10 -60h-75z" />
<glyph unicode="&#x511;" horiz-adv-x="466" d="M272 224q-54 0 -95.5 -22t-48.5 -65q-8 -44 26.5 -66.5t88.5 -22.5q51 0 90 24.5t52 68.5h63q-18 -74 -78.5 -112.5t-138.5 -38.5t-128 39t-38 110q14 81 97 116q-55 36 -42 110q12 70 69.5 107.5t129.5 37.5q73 0 116.5 -38.5t36.5 -112.5h-63q4 45 -23.5 69t-74.5 24 q-48 0 -84 -21t-44 -65q-7 -43 22 -63.5t77 -20.5h46l-10 -58h-46z" />
<glyph unicode="&#x512;" horiz-adv-x="709" d="M34 0h-22l10 60h19q35 0 63.5 19t45 44.5t30 64.5t19 65t11.5 61l64 386h458l-129 -771q-22 -134 -143 -134q-21 0 -41 4l10 59q19 -3 35 -3q62 0 73 70l120 715h-328l-54 -326q-5 -31 -9.5 -53t-14.5 -57.5t-21 -60.5t-30 -54t-41.5 -47t-54.5 -30t-70 -12z" />
<glyph unicode="&#x513;" horiz-adv-x="559" d="M23 0h-18l10 58h15q23 0 41.5 11.5t28.5 25.5t19 39.5t12 39t7 38.5l49 288h377l-96 -571q-22 -134 -143 -134q-17 0 -39 3l10 56q18 -3 34 -3q63 0 74 70l87 521h-251l-39 -230q-5 -31 -10 -52t-18.5 -54.5t-30.5 -54t-48 -36t-71 -15.5z" />
<glyph unicode="&#x51c;" horiz-adv-x="978" d="M212 700l56 -680h2l277 680h118l49 -680h2l284 680h68l-297 -700h-118l-49 680h-2l-277 -680h-118l-63 700h68z" />
<glyph unicode="&#x51d;" horiz-adv-x="762" d="M175 500l43 -485h2l187 485h116l25 -485h2l205 485h65l-216 -500h-116l-25 485h-2l-187 -485h-116l-48 500h65z" />
<glyph unicode="&#x524;" horiz-adv-x="725" d="M93 0l117 700h520l-107 -640h68l-33 -200h-65l23 140h-68l107 640h-390l-107 -640h-65z" />
<glyph unicode="&#x525;" horiz-adv-x="585" d="M495 0h-71l74 442h-283l-74 -442h-63l84 500h409l-74 -441h71l-33 -199h-63z" />
<glyph unicode="&#x526;" horiz-adv-x="670" d="M158 0h-65l117 700h65l-46 -276q99 37 187 37q116 0 168 -55.5t35 -158.5l-31 -187h68l-33 -200h-65l23 140h-68l37 219q16 92 -13.5 137t-123.5 45q-90 0 -195 -40z" />
<glyph unicode="&#x527;" horiz-adv-x="580" d="M495 0h-71l51 307q12 76 -8.5 110.5t-85.5 34.5q-73 0 -126.5 -47t-67.5 -131l-46 -274h-63l117 700h63l-47 -280q63 90 180 90q182 0 148 -202l-42 -250h71l-33 -198h-63z" />
<glyph unicode="&#x52e;" horiz-adv-x="727" d="M34 0h-22l10 60h19q35 0 63.5 19t45 44.5t30 64.5t19 65t11.5 61l64 386h458l-107 -640h68l-33 -200h-65l23 140h-68l107 640h-328l-54 -326q-5 -31 -9.5 -53t-14.5 -57.5t-21 -60.5t-30 -54t-41.5 -47t-54.5 -30t-70 -12z" />
<glyph unicode="&#x52f;" horiz-adv-x="578" d="M23 0h-18l10 58h15q23 0 41.5 11.5t28.5 25.5t19 39.5t12 39t7 38.5l49 288h377l-74 -442h71l-33 -198h-63l23 140h-71l74 442h-251l-39 -230q-5 -31 -10 -52t-18.5 -54.5t-30.5 -54t-48 -36t-71 -15.5z" />
<glyph unicode="&#xe3f;" horiz-adv-x="676" d="M368 334h-154l-46 -274h154zM420 334l-46 -274h21q47 0 85.5 11.5t70 43.5t40.5 82q12 73 -32 105t-118 32h-21zM265 640l-41 -246h154l41 246h-154zM475 640h-4l-41 -246h4q66 0 115.5 29t60.5 94q10 65 -29.5 94t-105.5 29zM312 0h-219l117 700h219l17 100h52l-17 -100 h6q44 0 79.5 -9t64 -28.5t40.5 -55.5t4 -86q-18 -103 -118 -151q120 -48 98 -178q-12 -70 -55 -115t-95.5 -61t-117.5 -16h-23l-17 -100h-52z" />
<glyph unicode="&#x1e02;" horiz-adv-x="676" d="M441 334h-227l-46 -274h227q47 0 85.5 11.5t70 43.5t40.5 82q12 73 -32 105t-118 32zM475 640h-210l-41 -246h210q66 0 115.5 29t60.5 94q10 65 -29.5 94t-105.5 29zM387 0h-294l117 700h277q44 0 79.5 -9t64 -28.5t40.5 -55.5t4 -86q-18 -103 -118 -151q120 -48 98 -178 q-12 -70 -55 -115t-95.5 -61t-117.5 -16zM436 829q3 17 17 29t31 12t27 -12t7 -29t-17 -29t-31 -12t-27 12t-7 29z" />
<glyph unicode="&#x1e03;" horiz-adv-x="605" d="M183 250q-14 -84 20.5 -143t123.5 -59t143.5 59t68.5 143t-20.5 143t-123.5 59t-143.5 -59t-68.5 -143zM155 83l-14 -83h-63l117 700h63l-47 -283q78 93 200 93q61 0 104 -22.5t62.5 -59.5t27 -83.5t-2.5 -94.5q-9 -50 -30 -95t-54 -82.5t-83 -60t-111 -22.5 q-122 0 -169 93zM388 613q2 17 16 29t31 12t27 -12t8 -29q-3 -17 -17 -29t-31 -12t-27 12t-7 29z" />
<glyph unicode="&#x1e04;" horiz-adv-x="676" d="M441 334h-227l-46 -274h227q47 0 85.5 11.5t70 43.5t40.5 82q12 73 -32 105t-118 32zM475 640h-210l-41 -246h210q66 0 115.5 29t60.5 94q10 65 -29.5 94t-105.5 29zM387 0h-294l117 700h277q44 0 79.5 -9t64 -28.5t40.5 -55.5t4 -86q-18 -103 -118 -151q120 -48 98 -178 q-12 -70 -55 -115t-95.5 -61t-117.5 -16zM357 -129q-2 -17 -16 -29t-31 -12t-27 12t-8 29q3 17 17 29t31 12t27 -12t7 -29z" />
<glyph unicode="&#x1e05;" horiz-adv-x="605" d="M183 250q-14 -84 20.5 -143t123.5 -59t143.5 59t68.5 143t-20.5 143t-123.5 59t-143.5 -59t-68.5 -143zM155 83l-14 -83h-63l117 700h63l-47 -283q78 93 200 93q61 0 104 -22.5t62.5 -59.5t27 -83.5t-2.5 -94.5q-9 -50 -30 -95t-54 -82.5t-83 -60t-111 -22.5 q-122 0 -169 93zM338 -129q-2 -17 -16 -29t-31 -12t-27 12t-8 29q3 17 17 29t31 12t27 -12t7 -29z" />
<glyph unicode="&#x1e06;" horiz-adv-x="676" d="M441 334h-227l-46 -274h227q47 0 85.5 11.5t70 43.5t40.5 82q12 73 -32 105t-118 32zM475 640h-210l-41 -246h210q66 0 115.5 29t60.5 94q10 65 -29.5 94t-105.5 29zM387 0h-294l117 700h277q44 0 79.5 -9t64 -28.5t40.5 -55.5t4 -86q-18 -103 -118 -151q120 -48 98 -178 q-12 -70 -55 -115t-95.5 -61t-117.5 -16zM459 -99l-8 -51h-276l8 51h276z" />
<glyph unicode="&#x1e07;" horiz-adv-x="605" d="M183 250q-14 -84 20.5 -143t123.5 -59t143.5 59t68.5 143t-20.5 143t-123.5 59t-143.5 -59t-68.5 -143zM155 83l-14 -83h-63l117 700h63l-47 -283q78 93 200 93q61 0 104 -22.5t62.5 -59.5t27 -83.5t-2.5 -94.5q-9 -50 -30 -95t-54 -82.5t-83 -60t-111 -22.5 q-122 0 -169 93zM158 -139l8 51h276l-8 -51h-276z" />
<glyph unicode="&#x1e08;" horiz-adv-x="701" d="M657 915l-138 -138h-47l102 138h83zM634 241h66q-40 -111 -118 -178.5t-200 -72.5l-15 -28h20q47 0 70.5 -23t16.5 -63q-8 -45 -47 -73t-96 -28q-32 0 -74 15l8 48q39 -17 72 -17q35 0 58 15.5t28 41.5q3 21 -9 32.5t-41 11.5h-49l-9 22l25 47q-75 4 -129.5 36t-80 82 t-35 112.5t4.5 128.5q12 70 41.5 133t76 114.5t116 82t151.5 30.5q130 0 190 -67.5t62 -183.5h-66q-9 191 -196 191q-129 0 -209 -87.5t-101 -212.5q-12 -57 -4 -111t30 -96t69.5 -67.5t113.5 -25.5q189 0 260 191z" />
<glyph unicode="&#x1e09;" horiz-adv-x="548" d="M544 715l-138 -138h-47l102 138h83zM468 169h63q-62 -169 -229 -178l-15 -29h20q47 0 70.5 -23t16.5 -63q-8 -45 -47 -73t-96 -28q-32 0 -74 15l8 48q39 -17 72 -17q35 0 58 15.5t28 41.5q3 21 -9 32.5t-41 11.5h-49l-9 22l25 47q-71 6 -115 45t-56.5 94t-1.5 120 q9 50 30.5 95.5t56 83t85.5 59.5t112 22q96 0 140.5 -48.5t46.5 -130.5h-63q-7 121 -133 121q-88 0 -143 -59t-69 -143t21 -143t123 -59q126 0 174 121z" />
<glyph unicode="&#x1e0a;" horiz-adv-x="679" d="M168 60h163q125 0 202.5 84.5t98.5 205.5q13 77 -1.5 140.5t-66 106.5t-136.5 43h-163zM210 700h228q81 0 139 -30t85 -79t38 -112t-3 -129q-12 -68 -41 -129t-74 -111.5t-112.5 -80t-148.5 -29.5h-228zM419 829q3 17 17 29t31 12t27 -12t7 -29t-17 -29t-31 -12t-27 12 t-7 29z" />
<glyph unicode="&#x1e0b;" horiz-adv-x="606" d="M506 250q14 84 -20.5 143t-123.5 59t-143.5 -59t-68.5 -143t20.5 -143t123.5 -59t143.5 59t68.5 143zM527 0h-63l14 83q-78 -93 -201 -93q-117 0 -162.5 76.5t-27.5 183.5t89 183.5t188 76.5q123 0 170 -93l47 283h63zM423 613q-3 -17 -17 -29t-31 -12t-27 12t-7 29 q2 17 16 29t31 12t27 -12t8 -29z" />
<glyph unicode="&#x1e0c;" horiz-adv-x="679" d="M168 60h163q125 0 202.5 84.5t98.5 205.5q13 77 -1.5 140.5t-66 106.5t-136.5 43h-163zM210 700h228q81 0 139 -30t85 -79t38 -112t-3 -129q-12 -68 -41 -129t-74 -111.5t-112.5 -80t-148.5 -29.5h-228zM340 -129q-2 -17 -16 -29t-31 -12t-27 12t-8 29q3 17 17 29t31 12 t27 -12t7 -29z" />
<glyph unicode="&#x1e0d;" horiz-adv-x="605" d="M506 250q14 84 -20.5 143t-123.5 59t-143.5 -59t-68.5 -143t20.5 -143t123.5 -59t143.5 59t68.5 143zM527 0h-63l14 83q-78 -93 -201 -93q-117 0 -162.5 76.5t-27.5 183.5t89 183.5t188 76.5q123 0 170 -93l47 283h63zM305 -129q-2 -17 -16 -29t-31 -12t-27 12t-8 29 q3 17 17 29t31 12t27 -12t7 -29z" />
<glyph unicode="&#x1e0e;" horiz-adv-x="679" d="M168 60h163q125 0 202.5 84.5t98.5 205.5q13 77 -1.5 140.5t-66 106.5t-136.5 43h-163zM210 700h228q81 0 139 -30t85 -79t38 -112t-3 -129q-12 -68 -41 -129t-74 -111.5t-112.5 -80t-148.5 -29.5h-228zM160 -139l8 51h276l-8 -51h-276z" />
<glyph unicode="&#x1e0f;" horiz-adv-x="605" d="M506 250q14 84 -20.5 143t-123.5 59t-143.5 -59t-68.5 -143t20.5 -143t123.5 -59t143.5 59t68.5 143zM527 0h-63l14 83q-78 -93 -201 -93q-117 0 -162.5 76.5t-27.5 183.5t89 183.5t188 76.5q123 0 170 -93l47 283h63zM125 -139l8 51h276l-8 -51h-276z" />
<glyph unicode="&#x1e10;" horiz-adv-x="679" d="M168 60h163q125 0 202.5 84.5t98.5 205.5q13 77 -1.5 140.5t-66 106.5t-136.5 43h-163zM210 700h228q81 0 139 -30t85 -79t38 -112t-3 -129q-24 -140 -115.5 -240.5t-238.5 -108.5l-21 -39h20q47 0 70.5 -23t16.5 -63q-8 -45 -47 -73t-96 -28q-32 0 -74 15l8 48 q39 -17 72 -17q35 0 58 15.5t28 41.5q3 21 -9 32.5t-41 11.5h-49l-9 22l31 56h-208z" />
<glyph unicode="&#x1e11;" horiz-adv-x="605" d="M506 250q14 84 -20.5 143t-123.5 59t-143.5 -59t-68.5 -143t20.5 -143t123.5 -59t143.5 59t68.5 143zM527 0h-63l14 83q-72 -85 -181 -92l-15 -29h20q47 0 70.5 -23t16.5 -63q-8 -45 -47 -73t-96 -28q-32 0 -74 15l8 48q39 -17 72 -17q35 0 58 15.5t28 41.5q3 21 -9 32.5 t-41 11.5h-49l-9 22l25 47q-105 8 -145 82.5t-23 176.5q18 107 89 183.5t188 76.5q123 0 170 -93l47 283h63z" />
<glyph unicode="&#x1e12;" horiz-adv-x="679" d="M168 60h163q125 0 202.5 84.5t98.5 205.5q13 77 -1.5 140.5t-66 106.5t-136.5 43h-163zM210 700h228q81 0 139 -30t85 -79t38 -112t-3 -129q-12 -68 -41 -129t-74 -111.5t-112.5 -80t-148.5 -29.5h-228zM268 -77h80l84 -137h-63l-66 107l-102 -107h-63z" />
<glyph unicode="&#x1e13;" horiz-adv-x="605" d="M506 250q14 84 -20.5 143t-123.5 59t-143.5 -59t-68.5 -143t20.5 -143t123.5 -59t143.5 59t68.5 143zM527 0h-63l14 83q-78 -93 -201 -93q-117 0 -162.5 76.5t-27.5 183.5t89 183.5t188 76.5q123 0 170 -93l47 283h63zM233 -77h80l84 -137h-63l-66 107l-102 -107h-63z " />
<glyph unicode="&#x1e18;" horiz-adv-x="599" d="M212 325l-44 -265h390l-10 -60h-455l117 700h443l-10 -60h-378l-43 -255h354l-10 -60h-354zM347 -77l84 -137h-63l-66 107l-102 -107h-63l130 137h80z" />
<glyph unicode="&#x1e19;" horiz-adv-x="552" d="M158 285h332q3 72 -31 119.5t-107 47.5q-74 0 -124 -47.5t-70 -119.5zM452 142h66q-69 -152 -244 -152q-58 0 -100.5 22.5t-62 59t-27.5 83t3 95.5q12 69 44 125.5t92.5 95.5t137.5 39q58 0 100.5 -22.5t62.5 -59t28 -83t-3 -95.5l-4 -23h-398q-7 -76 26.5 -127.5 t110.5 -51.5q117 0 168 94zM223 -77h80l84 -137h-63l-66 107l-102 -107h-63z" />
<glyph unicode="&#x1e1a;" horiz-adv-x="599" d="M212 325l-44 -265h390l-10 -60h-455l117 700h443l-10 -60h-378l-43 -255h354l-10 -60h-354zM191 -181h-45q7 36 33.5 62t65.5 26q17 0 58 -10t61 -10q30 0 42 34h45q-8 -36 -34.5 -62t-65.5 -26q-17 0 -58 10t-61 10q-31 0 -41 -34z" />
<glyph unicode="&#x1e1b;" horiz-adv-x="552" d="M158 285h332q3 72 -31 119.5t-107 47.5q-74 0 -124 -47.5t-70 -119.5zM452 142h66q-69 -152 -244 -152q-58 0 -100.5 22.5t-62 59t-27.5 83t3 95.5q12 69 44 125.5t92.5 95.5t137.5 39q58 0 100.5 -22.5t62.5 -59t28 -83t-3 -95.5l-4 -23h-398q-7 -76 26.5 -127.5 t110.5 -51.5q117 0 168 94zM147 -181h-45q7 36 33.5 62t65.5 26q17 0 58 -10t61 -10q30 0 42 34h45q-8 -36 -34.5 -62t-65.5 -26q-17 0 -58 10t-61 10q-31 0 -41 -34z" />
<glyph unicode="&#x1e1c;" horiz-adv-x="599" d="M323 914h53q-6 -38 15.5 -62.5t66.5 -24.5t75.5 24.5t36.5 62.5h53q-10 -60 -57 -97.5t-116 -37.5t-103 37.5t-24 97.5zM212 325l-44 -265h390l-10 -60h-206l-21 -38h20q47 0 70.5 -23t16.5 -63q-8 -45 -47 -73t-96 -28q-32 0 -74 15l8 48q39 -17 72 -17q35 0 58 15.5 t28 41.5q3 21 -9 32.5t-41 11.5h-49l-9 22l31 56h-207l117 700h443l-10 -60h-378l-43 -255h354l-10 -60h-354z" />
<glyph unicode="&#x1e1d;" horiz-adv-x="552" d="M158 285h332q3 72 -31 119.5t-107 47.5q-74 0 -124 -47.5t-70 -119.5zM452 142h66q-66 -143 -226 -152l-15 -28h20q47 0 70.5 -23t16.5 -63q-8 -45 -47 -73t-96 -28q-32 0 -74 15l8 48q39 -17 72 -17q35 0 58 15.5t28 41.5q3 21 -9 32.5t-41 11.5h-49l-9 22l25 47 q-68 6 -109.5 45t-53 94t-0.5 120q12 69 44 125.5t92.5 95.5t137.5 39q58 0 100.5 -22.5t62.5 -59t28 -83t-3 -95.5l-4 -23h-398q-7 -76 26.5 -127.5t110.5 -51.5q117 0 168 94zM245 714h53q-6 -38 16 -62.5t67 -24.5t75 24.5t36 62.5h53q-10 -60 -56.5 -97.5t-115.5 -37.5 t-103.5 37.5t-24.5 97.5z" />
<glyph unicode="&#x1e1e;" horiz-adv-x="537" d="M399 829q3 17 17 29t31 12t27 -12t7 -29t-17 -29t-31 -12t-27 12t-7 29zM211 316l-53 -316h-65l117 700h415l-10 -60h-350l-44 -264h312l-10 -60h-312z" />
</font>
</defs>
</svg>
