<?xml version="1.0" standalone="no"?>
<!DOCTYPE svg PUBLIC "-//W3C//DTD SVG 1.1//EN" "http://www.w3.org/Graphics/SVG/1.1/DTD/svg11.dtd" >
<svg xmlns="http://www.w3.org/2000/svg" xmlns:xlink="http://www.w3.org/1999/xlink" version="1.1">
<metadata></metadata>
<defs>
<font id="upmaxregular" horiz-adv-x="607" >
<font-face units-per-em="1000" ascent="800" descent="-200" />
<missing-glyph horiz-adv-x="264" />
<glyph unicode="ff" horiz-adv-x="686" d="M18 500h91v81q0 68 32.5 104t96.5 36q48 0 90 -15v-73q-36 15 -78 15q-59 0 -59 -67v-81h261v81q0 68 32.5 104t96.5 36q47 0 90 -15v-73q-36 15 -78 15q-59 0 -59 -67v-81h137v-69h-137v-431h-82v431h-261v-431h-82v431h-91v69z" />
<glyph unicode="fi" horiz-adv-x="571" d="M18 500h91v81q0 68 32.5 104t96.5 36q48 0 90 -15v-73q-36 15 -78 15q-59 0 -59 -67v-81h307v-500h-82v431h-225v-431h-82v431h-91v69zM405 664q0 22 15 37t37 15t37 -15t15 -37t-15 -37t-37 -15t-37 15t-15 37z" />
<glyph unicode="fl" horiz-adv-x="571" d="M18 500h91v81q0 68 32.5 104t96.5 36q48 0 90 -15v-73q-36 15 -78 15q-59 0 -59 -67v-81h225v200h82v-700h-82v431h-225v-431h-82v431h-91v69z" />
<glyph unicode="ffi" horiz-adv-x="914" d="M18 500h91v81q0 68 32.5 104t96.5 36q48 0 90 -15v-73q-36 15 -78 15q-59 0 -59 -67v-81h261v81q0 68 32.5 104t96.5 36q47 0 90 -15v-73q-36 15 -78 15q-59 0 -59 -67v-81h307v-500h-82v431h-225v-431h-82v431h-261v-431h-82v431h-91v69zM748 664q0 22 15 37t37 15 t37 -15t15 -37t-15 -37t-37 -15t-37 15t-15 37z" />
<glyph unicode="ffl" horiz-adv-x="914" d="M18 500h91v81q0 68 32.5 104t96.5 36q48 0 90 -15v-73q-36 15 -78 15q-59 0 -59 -67v-81h261v81q0 68 32.5 104t96.5 36q47 0 90 -15v-73q-36 15 -78 15q-59 0 -59 -67v-81h225v200h82v-700h-82v431h-225v-431h-82v431h-261v-431h-82v431h-91v69z" />
<glyph unicode="fft" horiz-adv-x="1062" d="M18 500h91v81q0 68 32.5 104t96.5 36q48 0 90 -15v-73q-36 15 -78 15q-59 0 -59 -67v-81h261v81q0 68 32.5 104t96.5 36q47 0 90 -15v-73q-36 15 -78 15q-59 0 -59 -67v-81h261v140h82v-140h137v-69h-137v-302q0 -67 59 -67q42 0 78 15v-73q-42 -15 -90 -15 q-64 0 -96.5 36t-32.5 104v302h-261v-431h-82v431h-261v-431h-82v431h-91v69z" />
<glyph horiz-adv-x="0" />
<glyph horiz-adv-x="0" />
<glyph unicode="&#xd;" horiz-adv-x="333" />
<glyph unicode=" "  horiz-adv-x="264" />
<glyph unicode="&#x09;" horiz-adv-x="264" />
<glyph unicode="&#xa0;" horiz-adv-x="264" />
<glyph unicode="!" horiz-adv-x="286" d="M179 204h-72l-10 496h92zM88 45q0 24 16 39.5t39 15.5t39 -15.5t16 -39.5t-16 -39.5t-39 -15.5t-39 15.5t-16 39.5z" />
<glyph unicode="&#x22;" horiz-adv-x="348" d="M59 460v240h70v-240h-70zM219 460v240h70v-240h-70z" />
<glyph unicode="#" horiz-adv-x="615" d="M398 438h-155l-26 -175h155zM145 263l26 175h-104v67h114l28 195h72l-28 -195h155l28 195h72l-28 -195h103v-67h-113l-26 -175h104v-67h-113l-29 -196h-72l29 196h-155l-29 -196h-72l29 196h-104v67h113z" />
<glyph unicode="$" horiz-adv-x="614" d="M336 307v-240q64 6 107.5 38t43.5 88q0 53 -38.5 76.5t-112.5 37.5zM272 401v231q-57 -7 -92.5 -38.5t-35.5 -86.5q0 -48 32.5 -70.5t95.5 -35.5zM336 -10v-90h-64v91q-95 9 -159.5 62t-70.5 146h85q6 -57 45.5 -90t99.5 -41v250q-38 7 -64 13.5t-56.5 20.5t-49 33 t-31 50t-12.5 71q0 93 60.5 144.5t152.5 59.5v90h64v-90q88 -8 147.5 -61t65.5 -148h-85q-6 58 -40 90.5t-88 40.5v-242q35 -6 57.5 -11t53.5 -14.5t50.5 -23t38 -33.5t27.5 -48.5t9 -65.5q0 -94 -67.5 -145.5t-168.5 -58.5z" />
<glyph unicode="%" horiz-adv-x="878" d="M57 535q0 73 42 124.5t124 51.5t124 -51.5t42 -124.5t-42 -124.5t-124 -51.5t-124 51.5t-42 124.5zM199 0l405 700h75l-405 -700h-75zM132 535q0 -45 23 -76t68 -31t68 31t23 76t-23 76t-68 31t-68 -31t-23 -76zM489 165q0 73 42 124.5t124 51.5t124 -51.5t42 -124.5 t-42 -124.5t-124 -51.5t-124 51.5t-42 124.5zM564 165q0 -45 23 -76t68 -31t68 31t23 76t-23 76t-68 31t-68 -31t-23 -76z" />
<glyph unicode="&#x26;" horiz-adv-x="631" d="M214 344q-87 -57 -87 -140q0 -65 43.5 -102.5t104.5 -37.5q76 0 143 55q-128 132 -204 225zM388 565q0 33 -24 54.5t-59 21.5q-42 0 -69.5 -32.5t-27.5 -80.5q0 -46 28 -90q91 41 114 60q38 29 38 67zM522 120l120 -120h-106l-67 67q-90 -78 -194 -78q-95 0 -164 59.5 t-69 160.5q0 123 126 195q-42 62 -42 124q0 78 51 130.5t129 52.5q66 0 115 -40t49 -104q0 -16 -3 -30.5t-11 -27.5t-15 -23.5t-21.5 -22t-23 -18t-28.5 -17.5t-28.5 -15.5t-31.5 -16t-30 -15.5q58 -72 192 -209q25 30 55 76l54 -54q-30 -41 -57 -74z" />
<glyph unicode="'" horiz-adv-x="188" d="M59 460v240h70v-240h-70z" />
<glyph unicode="(" horiz-adv-x="278" d="M118 270q0 -230 142 -417l-50 -35q-166 196 -166 452t166 452l50 -35q-142 -187 -142 -417z" />
<glyph unicode=")" horiz-adv-x="278" d="M160 270q0 230 -142 417l50 35q166 -196 166 -452t-166 -452l-50 35q142 187 142 417z" />
<glyph unicode="*" horiz-adv-x="400" d="M82 428l78 99l-121 35l18 55l119 -44l-5 127h58l-5 -127l119 44l18 -55l-121 -35l78 -99l-47 -34l-71 106l-71 -106z" />
<glyph unicode="+" horiz-adv-x="619" d="M273 264h-211v72h211v211h73v-211h211v-72h-211v-211h-73v211z" />
<glyph unicode="," horiz-adv-x="264" d="M65 -131l39 220h95l-64 -220h-70z" />
<glyph unicode="-" horiz-adv-x="486" d="M73 246v74h340v-74h-340z" />
<glyph unicode="." horiz-adv-x="240" d="M65 45q0 24 16 39.5t39 15.5t39 -15.5t16 -39.5t-16 -39.5t-39 -15.5t-39 15.5t-16 39.5z" />
<glyph unicode="/" horiz-adv-x="381" d="M24 0l269 700h64l-269 -700h-64z" />
<glyph unicode="0" horiz-adv-x="598" d="M49 350q0 73 11.5 133.5t38.5 114t78 83.5t122 30t122 -30t78 -83.5t38.5 -114t11.5 -133.5t-11.5 -133.5t-38.5 -114t-78 -83.5t-122 -30t-122 30t-78 83.5t-38.5 114t-11.5 133.5zM134 350q0 -283 165 -283t165 283t-165 283t-165 -283z" />
<glyph unicode="1" horiz-adv-x="347" d="M172 0v527h-152v63q60 4 107.5 31.5t66.5 78.5h63v-700h-85z" />
<glyph unicode="2" horiz-adv-x="559" d="M429 475q0 75 -43 116.5t-107 41.5q-63 0 -104 -35t-45 -90h-85q2 93 70 148t164 55q101 0 168 -61.5t67 -174.5q0 -78 -46 -127.5t-131 -96.5q-9 -5 -37.5 -20.5t-40 -22t-34.5 -20.5t-34 -24t-26 -24.5t-22.5 -29.5t-11.5 -32h383v-78h-469v49q0 22 5 42.5t11 37 t19.5 34t23 29.5t28.5 27.5t30 23.5t33 21.5t31 18.5t32.5 17.5t28.5 15.5q76 41 109 75t33 84z" />
<glyph unicode="3" horiz-adv-x="547" d="M481 632l-172 -229q95 -10 144.5 -64.5t49.5 -133.5q0 -95 -62 -155.5t-181 -60.5q-95 0 -159.5 55t-66.5 148h85q4 -55 45 -90t104 -35q65 0 107.5 34t42.5 100t-42.5 101t-108.5 35h-19l-32 68l163 217h-325v78h427v-68z" />
<glyph unicode="4" horiz-adv-x="570" d="M354 675l-228 -456h230v456h-2zM535 142h-94v-142h-85v142h-321v68l245 490h161v-481h94v-77z" />
<glyph unicode="5" horiz-adv-x="557" d="M483 700v-78h-336v-202q59 51 142 51q99 0 161.5 -64t62.5 -182q0 -98 -63 -167t-180 -69q-95 0 -159.5 55t-66.5 148h85q4 -55 45 -90t104 -35q65 0 107.5 42.5t42.5 122.5q0 78 -45.5 119.5t-114.5 41.5q-77 0 -132 -67h-73v374h420z" />
<glyph unicode="6" horiz-adv-x="558" d="M287 380q-63 0 -104.5 -41.5t-41.5 -116.5t41.5 -115t104.5 -40t104.5 39.5t41.5 114.5t-41.5 117t-104.5 42zM502 530h-85q-6 48 -37.5 75.5t-82.5 27.5q-165 0 -172 -271q57 96 175 96q101 0 159.5 -65.5t58.5 -164.5q0 -43 -12 -82.5t-37 -76t-72 -58.5t-111 -22 q-246 0 -246 340q0 79 13 144t41.5 120.5t81 86.5t124.5 31q89 0 141.5 -47t60.5 -134z" />
<glyph unicode="7" horiz-adv-x="503" d="M95 0l274 622h-335v78h430v-68l-278 -632h-91z" />
<glyph unicode="8" horiz-adv-x="564" d="M435 211q0 61 -38.5 103t-114.5 42t-114.5 -42t-38.5 -103t38.5 -103t114.5 -42t114.5 42t38.5 103zM390 532q0 43 -27.5 73t-80.5 30t-80.5 -30t-27.5 -73t27.5 -73t80.5 -30t80.5 30t27.5 73zM44 208q0 65 31 114t85 76q-69 48 -69 138q0 79 53.5 127t137.5 48 t137.5 -48t53.5 -127q0 -90 -69 -138q54 -27 85 -76t31 -114q0 -98 -67 -158.5t-171 -60.5t-171 60.5t-67 158.5z" />
<glyph unicode="9" horiz-adv-x="558" d="M271 320q63 0 104.5 41.5t41.5 116.5t-41.5 115t-104.5 40t-104.5 -39.5t-41.5 -114.5t41.5 -117t104.5 -42zM56 170h85q6 -48 37.5 -75.5t82.5 -27.5q165 0 172 271q-57 -96 -175 -96q-101 0 -159.5 65.5t-58.5 164.5q0 43 12 82.5t37 76t72 58.5t111 22q246 0 246 -340 q0 -79 -13 -144t-41.5 -120.5t-81 -86.5t-124.5 -31q-89 0 -141.5 47t-60.5 134z" />
<glyph unicode=":" horiz-adv-x="240" d="M65 455q0 24 16 39.5t39 15.5t39 -15.5t16 -39.5t-16 -39.5t-39 -15.5t-39 15.5t-16 39.5zM65 45q0 24 16 39.5t39 15.5t39 -15.5t16 -39.5t-16 -39.5t-39 -15.5t-39 15.5t-16 39.5z" />
<glyph unicode=";" horiz-adv-x="264" d="M82 455q0 24 16 39.5t39 15.5t39 -15.5t16 -39.5t-16 -39.5t-39 -15.5t-39 15.5t-16 39.5zM65 -131l39 220h95l-64 -220h-70z" />
<glyph unicode="&#x3c;" horiz-adv-x="574" d="M62 277l450 203v-72l-356 -158l356 -158v-72l-450 203v54z" />
<glyph unicode="=" horiz-adv-x="619" d="M557 358h-495v72h495v-72zM557 170h-495v72h495v-72z" />
<glyph unicode="&#x3e;" horiz-adv-x="574" d="M512 277v-54l-450 -203v72l356 158l-356 158v72z" />
<glyph unicode="?" horiz-adv-x="511" d="M214 183v191h37q64 0 96.5 38t32.5 93t-32.5 93t-96.5 38t-96.5 -38t-32.5 -93h-82q0 85 53.5 145.5t157.5 60.5t157.5 -60.5t53.5 -145.5q0 -76 -43 -133.5t-127 -69.5l-4 -119h-74zM196 45q0 24 16 39.5t39 15.5t39 -15.5t16 -39.5t-16 -39.5t-39 -15.5t-39 15.5 t-16 39.5z" />
<glyph unicode="@" horiz-adv-x="835" d="M507 251q0 41 -21.5 69.5t-65.5 28.5t-65.5 -28.5t-21.5 -69.5t21.5 -69.5t65.5 -28.5t65.5 28.5t21.5 69.5zM623 0h72q-110 -125 -285 -125q-158 0 -257 106t-99 270q0 163 99 268.5t257 105.5q160 0 268 -105t108 -259q0 -86 -46 -133.5t-115 -47.5q-37 0 -67 18 t-43 51q-36 -58 -109 -58q-72 0 -107 47.5t-35 112.5t35 112.5t107 47.5q66 0 101 -47v40h69v-212q0 -28 17.5 -44t41.5 -16q42 0 70.5 35t28.5 94q0 134 -93 225t-231 91q-136 0 -220 -91.5t-84 -234.5t84 -235.5t220 -92.5q123 0 213 77z" />
<glyph unicode="A" horiz-adv-x="660" d="M329 675l-142 -419h286l-142 419h-2zM101 0h-91l245 700h150l245 -700h-91l-60 178h-338z" />
<glyph unicode="B" horiz-adv-x="676" d="M381 327h-208v-250h208q70 0 116 29t46 96t-46 96t-116 29zM364 623h-191v-224h191q62 0 103 26t41 86t-41 86t-103 26zM382 0h-294v700h277q46 0 84.5 -9t72 -29t52.5 -57t19 -88q0 -99 -88 -147q123 -49 123 -174q0 -72 -37 -117.5t-89 -62t-120 -16.5z" />
<glyph unicode="C" horiz-adv-x="708" d="M582 250h86q-20 -119 -93 -190t-207 -71q-83 0 -147.5 30.5t-103 82t-58 114.5t-19.5 134t19.5 134t58 114.5t103 82t147.5 30.5q134 0 207 -71t93 -190h-86q-36 182 -214 182q-62 0 -110 -24t-76.5 -64.5t-42.5 -89.5t-14 -104t14 -104t42.5 -89.5t76.5 -64.5t110 -24 q178 0 214 182z" />
<glyph unicode="D" horiz-adv-x="688" d="M327 700q82 0 145 -29.5t100.5 -80t56.5 -111.5t19 -129t-19 -129t-56.5 -111.5t-100.5 -80t-145 -29.5h-239v700h239zM327 78q117 0 176.5 79.5t59.5 192.5t-59.5 192.5t-176.5 79.5h-154v-544h154z" />
<glyph unicode="E" d="M173 317v-239h385v-78h-470v700h458v-78h-373v-229h349v-76h-349z" />
<glyph unicode="F" horiz-adv-x="547" d="M173 306v-306h-85v700h430v-78h-345v-238h308v-78h-308z" />
<glyph unicode="G" horiz-adv-x="748" d="M40 350q0 71 19.5 134t58 114.5t103 82t147.5 30.5q132 0 205 -69t94 -185h-86q-38 175 -213 175q-62 0 -110 -24t-76.5 -64.5t-42.5 -89.5t-14 -104t14 -104t42.5 -89.5t76.5 -64.5t110 -24q197 0 222 214h-222v75h308v-357h-55l-18 111q-66 -122 -235 -122 q-83 0 -147.5 30.5t-103 82t-58 114.5t-19.5 134z" />
<glyph unicode="H" horiz-adv-x="711" d="M88 0v700h85v-305h365v305h85v-700h-85v317h-365v-317h-85z" />
<glyph unicode="I" horiz-adv-x="261" d="M88 0v700h85v-700h-85z" />
<glyph unicode="J" horiz-adv-x="552" d="M249 68q74 0 107 46t33 116v470h85v-470q0 -48 -11.5 -89.5t-36.5 -76.5t-70.5 -55t-106.5 -20t-106.5 20t-70.5 55t-36.5 76.5t-11.5 89.5v50h85v-50q0 -70 33 -116t107 -46z" />
<glyph unicode="K" horiz-adv-x="615" d="M173 700v-342l318 342h111l-325 -350l340 -350h-114l-330 340v-340h-85v700h85z" />
<glyph unicode="L" horiz-adv-x="548" d="M173 700v-622h365v-78h-450v700h85z" />
<glyph unicode="M" horiz-adv-x="896" d="M250 700l197 -675h2l197 675h162v-700h-85v675h-2l-197 -675h-152l-197 675h-2v-675h-85v700h162z" />
<glyph unicode="N" horiz-adv-x="746" d="M252 700l319 -675h2v675h85v-700h-164l-319 675h-2v-675h-85v700h164z" />
<glyph unicode="O" horiz-adv-x="736" d="M40 350q0 71 19.5 134t58 114.5t103 82t147.5 30.5t147.5 -30.5t103 -82t58 -114.5t19.5 -134t-19.5 -134t-58 -114.5t-103 -82t-147.5 -30.5t-147.5 30.5t-103 82t-58 114.5t-19.5 134zM611 350q0 55 -14 104t-42.5 89.5t-76.5 64.5t-110 24t-110 -24t-76.5 -64.5 t-42.5 -89.5t-14 -104t14 -104t42.5 -89.5t76.5 -64.5t110 -24t110 24t76.5 64.5t42.5 89.5t14 104z" />
<glyph unicode="P" horiz-adv-x="633" d="M363 622h-190v-300h190q65 0 107.5 42.5t42.5 107.5t-42.5 107.5t-107.5 42.5zM364 244h-191v-244h-85v700h276q101 0 167.5 -64.5t66.5 -163.5t-66.5 -163.5t-167.5 -64.5z" />
<glyph unicode="Q" horiz-adv-x="771" d="M40 350q0 71 19.5 134t58 114.5t103 82t147.5 30.5t147.5 -30.5t103 -82t58 -114.5t19.5 -134q0 -132 -64 -229l99 -99l-55 -55l-95 95q-84 -73 -213 -73q-83 0 -147.5 30.5t-103 82t-58 114.5t-19.5 134zM611 350q0 55 -14 104t-42.5 89.5t-76.5 64.5t-110 24t-110 -24 t-76.5 -64.5t-42.5 -89.5t-14 -104t14 -104t42.5 -89.5t76.5 -64.5t110 -24q93 0 154 53l-126 126l55 55l120 -120q40 73 40 168z" />
<glyph unicode="R" horiz-adv-x="665" d="M373 622h-200v-280h200q61 0 100.5 39.5t39.5 100.5t-39.5 100.5t-100.5 39.5zM173 265v-265h-85v700h286q97 0 160.5 -61.5t63.5 -156.5q0 -78 -45 -135t-119 -75l175 -272h-99l-170 265h-167z" />
<glyph unicode="S" horiz-adv-x="614" d="M42 199h85q6 -65 57 -99t123 -34q74 0 127 32t53 95q0 39 -23.5 63.5t-61.5 35t-83.5 18t-91 18t-83.5 28.5t-61.5 56t-23.5 94q0 101 71 153t174 52q100 0 169 -53.5t76 -156.5h-85q-6 66 -50 99.5t-110 33.5q-68 0 -114 -32t-46 -95q0 -38 23.5 -61.5t61.5 -34 t83.5 -17.5t91 -18t83.5 -29t61.5 -57t23.5 -96q0 -68 -39.5 -116t-97.5 -68.5t-128 -20.5q-107 0 -182.5 54t-82.5 156z" />
<glyph unicode="T" horiz-adv-x="573" d="M329 622v-622h-85v622h-223v78h531v-78h-223z" />
<glyph unicode="U" horiz-adv-x="716" d="M553 276v424h85v-431q0 -51 -13.5 -97t-43.5 -89t-87.5 -68.5t-135.5 -25.5t-135.5 25.5t-87.5 68.5t-43.5 89t-13.5 97v431h85v-424q0 -39 9.5 -74t31 -66.5t61 -50t93.5 -18.5t93.5 18.5t61 50t31 66.5t9.5 74z" />
<glyph unicode="V" horiz-adv-x="678" d="M9 700h92l237 -675h2l237 675h92l-254 -700h-152z" />
<glyph unicode="W" horiz-adv-x="980" d="M111 700l158 -675h2l143 675h152l143 -675h2l158 675h88l-171 -700h-152l-143 675h-2l-143 -675h-152l-171 700h88z" />
<glyph unicode="X" horiz-adv-x="600" d="M565 700l-178 -334l199 -366h-96l-189 354h-2l-189 -354h-96l199 366l-178 334h94l170 -321h2l170 321h94z" />
<glyph unicode="Y" horiz-adv-x="613" d="M233 280l-218 420h93l198 -395h1l198 395h93l-218 -420h-31v-280h-85v280h-31z" />
<glyph unicode="Z" horiz-adv-x="590" d="M549 700v-90l-417 -532h423v-78h-520v90l417 532h-406v78h503z" />
<glyph unicode="[" horiz-adv-x="303" d="M273 -150h-200v890h200v-68h-130v-754h130v-68z" />
<glyph unicode="\" horiz-adv-x="381" d="M357 0h-64l-269 700h64z" />
<glyph unicode="]" horiz-adv-x="303" d="M30 -150v68h130v754h-130v68h200v-890h-200z" />
<glyph unicode="^" horiz-adv-x="518" d="M48 385l161 315h100l161 -315h-73l-138 273l-138 -273h-73z" />
<glyph unicode="_" horiz-adv-x="590" d="M30 -90h530v-66h-530v66z" />
<glyph unicode="`" horiz-adv-x="231" d="M25 715h100l81 -140h-62z" />
<glyph unicode="a" d="M452 250q0 78 -41.5 132t-122.5 54t-122.5 -54t-41.5 -132t41.5 -132t122.5 -54t122.5 54t41.5 132zM534 0h-82v67q-61 -78 -174 -78q-62 0 -109 22.5t-73.5 60.5t-40 83t-13.5 95t13.5 95t40 83t73.5 60.5t109 22.5q113 0 174 -78v67h82v-500z" />
<glyph unicode="b" d="M155 250q0 -78 41.5 -132t122.5 -54t122.5 54t41.5 132t-41.5 132t-122.5 54t-122.5 -54t-41.5 -132zM155 67v-67h-82v700h82v-267q61 78 174 78q62 0 109 -22.5t73.5 -60.5t40 -83t13.5 -95t-13.5 -95t-40 -83t-73.5 -60.5t-109 -22.5q-113 0 -174 78z" />
<glyph unicode="c" horiz-adv-x="555" d="M430 175h83q-16 -84 -70.5 -135t-154.5 -51q-121 0 -183.5 76.5t-62.5 184.5t62.5 184.5t183.5 76.5q100 0 154.5 -51t70.5 -135h-83q-26 111 -142 111q-81 0 -122.5 -54t-41.5 -132t41.5 -132t122.5 -54q116 0 142 111z" />
<glyph unicode="d" d="M452 250q0 78 -41.5 132t-122.5 54t-122.5 -54t-41.5 -132t41.5 -132t122.5 -54t122.5 54t41.5 132zM534 0h-82v67q-61 -78 -174 -78q-62 0 -109 22.5t-73.5 60.5t-40 83t-13.5 95t13.5 95t40 83t73.5 60.5t109 22.5q113 0 174 -78v267h82v-700z" />
<glyph unicode="e" horiz-adv-x="556" d="M128 295h300q-11 62 -48.5 101.5t-101.5 39.5t-101.5 -39.5t-48.5 -101.5zM416 145h86q-43 -156 -224 -156q-116 0 -176 76.5t-60 184.5t60 184.5t176 76.5t176 -76.5t60 -184.5v-25h-389q6 -69 44.5 -115t108.5 -46q107 0 138 81z" />
<glyph unicode="f" horiz-adv-x="343" d="M18 500h91v81q0 68 32.5 104t96.5 36q48 0 90 -15v-73q-36 15 -78 15q-59 0 -59 -67v-81h137v-69h-137v-431h-82v431h-91v69z" />
<glyph unicode="g" horiz-adv-x="597" d="M452 250q0 78 -41.5 132t-122.5 54t-122.5 -54t-41.5 -132t41.5 -132t122.5 -54t122.5 54t41.5 132zM452 20v47q-61 -78 -174 -78q-62 0 -109 22.5t-73.5 60.5t-40 83t-13.5 95t13.5 95t40 83t73.5 60.5t109 22.5q113 0 174 -78v67h82v-480q0 -60 -21 -105t-56.5 -70.5 t-78 -38t-90.5 -12.5q-77 0 -139 31.5t-89 96.5h96q41 -53 132 -53q69 0 116.5 37t47.5 114z" />
<glyph unicode="h" horiz-adv-x="566" d="M498 0h-82v302q0 70 -25 102t-85 32q-67 0 -109 -44t-42 -121v-271h-82v700h82v-277q24 42 67 65t95 23q181 0 181 -207v-304z" />
<glyph unicode="i" horiz-adv-x="228" d="M62 664q0 22 15 37t37 15t37 -15t15 -37t-15 -37t-37 -15t-37 15t-15 37zM73 0v500h82v-500h-82z" />
<glyph unicode="j" horiz-adv-x="228" d="M62 664q0 22 15 37t37 15t37 -15t15 -37t-15 -37t-37 -15t-37 15t-15 37zM-20 -202v72q18 -3 34 -3q59 0 59 67v566h82v-566q0 -68 -32.5 -104t-96.5 -36q-23 0 -46 4z" />
<glyph unicode="k" horiz-adv-x="517" d="M155 700v-442l234 242h105l-242 -250l257 -250h-110l-244 240v-240h-82v700h82z" />
<glyph unicode="l" horiz-adv-x="228" d="M73 0v700h82v-700h-82z" />
<glyph unicode="m" horiz-adv-x="859" d="M473 0h-82v302q0 70 -22.5 102t-76.5 32q-61 0 -99 -44t-38 -121v-271h-82v500h82v-77q22 42 61.5 65t88.5 23q115 0 151 -97q24 47 68.5 72t98.5 25q168 0 168 -207v-304h-82v302q0 70 -22.5 102t-76.5 32q-61 0 -99 -44t-38 -121v-271z" />
<glyph unicode="n" horiz-adv-x="566" d="M498 0h-82v302q0 70 -25 102t-85 32q-67 0 -109 -44t-42 -121v-271h-82v500h82v-77q24 42 67 65t95 23q181 0 181 -207v-304z" />
<glyph unicode="o" horiz-adv-x="576" d="M42 250q0 108 62.5 184.5t183.5 76.5t183.5 -76.5t62.5 -184.5t-62.5 -184.5t-183.5 -76.5t-183.5 76.5t-62.5 184.5zM452 250q0 78 -41.5 132t-122.5 54t-122.5 -54t-41.5 -132t41.5 -132t122.5 -54t122.5 54t41.5 132z" />
<glyph unicode="p" d="M155 250q0 -78 41.5 -132t122.5 -54t122.5 54t41.5 132t-41.5 132t-122.5 54t-122.5 -54t-41.5 -132zM155 67v-262h-82v695h82v-67q61 78 174 78q62 0 109 -22.5t73.5 -60.5t40 -83t13.5 -95t-13.5 -95t-40 -83t-73.5 -60.5t-109 -22.5q-113 0 -174 78z" />
<glyph unicode="q" d="M452 250q0 78 -41.5 132t-122.5 54t-122.5 -54t-41.5 -132t41.5 -132t122.5 -54t122.5 54t41.5 132zM534 -195h-82v262q-61 -78 -174 -78q-62 0 -109 22.5t-73.5 60.5t-40 83t-13.5 95t13.5 95t40 83t73.5 60.5t109 22.5q113 0 174 -78v67h82v-695z" />
<glyph unicode="r" horiz-adv-x="347" d="M73 0v500h82v-78h2q16 38 59 63.5t97 25.5h21v-78q-4 1 -29 1q-60 0 -105 -47t-45 -117v-270h-82z" />
<glyph unicode="s" horiz-adv-x="480" d="M40 145h82q4 -41 37 -63t80 -22q50 0 84.5 20t34.5 59q0 28 -22.5 45t-57 22.5t-74 14.5t-74 20.5t-57 41.5t-22.5 77q0 75 54 113t132 38q77 0 129 -39.5t58 -115.5h-82q-4 42 -32.5 63t-72.5 21t-74 -18.5t-30 -57.5q0 -28 22.5 -44.5t57 -21.5t74 -14t74 -20.5t57 -42 t22.5 -78.5q0 -75 -58.5 -114.5t-142.5 -39.5q-80 0 -137 40t-62 116z" />
<glyph unicode="t" horiz-adv-x="376" d="M328 4q-42 -15 -90 -15q-64 0 -96.5 36t-32.5 104v302h-91v69h91v140h82v-140h137v-69h-137v-302q0 -67 59 -67q42 0 78 15v-73z" />
<glyph unicode="u" horiz-adv-x="566" d="M68 500h82v-302q0 -70 25 -102t85 -32q67 0 109 44t42 121v271h82v-500h-82v77q-24 -42 -67 -65t-95 -23q-181 0 -181 207v304z" />
<glyph unicode="v" horiz-adv-x="508" d="M499 500l-171 -500h-148l-171 500h86l158 -480h2l158 480h86z" />
<glyph unicode="w" horiz-adv-x="778" d="M108 500l114 -480h2l94 480h142l94 -480h2l114 480h84l-126 -500h-144l-94 480h-2l-94 -480h-144l-126 500h84z" />
<glyph unicode="x" horiz-adv-x="496" d="M171 257l-145 243h92l129 -234h2l129 234h92l-145 -243l157 -257h-94l-139 248h-2l-139 -248h-94z" />
<glyph unicode="y" horiz-adv-x="520" d="M506 500l-230 -695h-86l64 195h-70l-170 500h86l159 -480h2l159 480h86z" />
<glyph unicode="z" horiz-adv-x="478" d="M429 500v-75l-284 -350h289v-75h-390v75l284 350h-270v75h371z" />
<glyph unicode="{" horiz-adv-x="353" d="M203 159v-126q0 -53 30 -84t80 -31h11v-68h-11q-81 0 -130.5 49t-49.5 132v128q0 55 -22.5 77t-75.5 22v74q53 0 75.5 22t22.5 77v128q0 83 49.5 132t130.5 49h11v-68h-11q-50 0 -80 -31t-30 -84v-126q0 -58 -16.5 -89.5t-56.5 -46.5q40 -15 56.5 -46.5t16.5 -89.5z" />
<glyph unicode="|" horiz-adv-x="246" d="M88 -195v935h70v-935h-70z" />
<glyph unicode="}" horiz-adv-x="353" d="M150 33v126q0 58 16.5 89.5t56.5 46.5q-40 15 -56.5 46.5t-16.5 89.5v126q0 53 -30 84t-80 31h-11v68h11q81 0 130.5 -49t49.5 -132v-128q0 -55 22.5 -77t75.5 -22v-74q-53 0 -75.5 -22t-22.5 -77v-128q0 -83 -49.5 -132t-130.5 -49h-11v68h11q50 0 80 31t30 84z" />
<glyph unicode="~" horiz-adv-x="569" d="M173 370q45 0 116.5 -31t99.5 -31q39 0 59 47l73 -26q-19 -47 -47 -72.5t-78 -25.5q-45 0 -116.5 31t-99.5 31q-39 0 -59 -47l-73 26q19 47 47 72.5t78 25.5z" />
<glyph unicode="&#xa1;" horiz-adv-x="286" d="M198 455q0 -24 -16 -39.5t-39 -15.5t-39 15.5t-16 39.5t16 39.5t39 15.5t39 -15.5t16 -39.5zM107 296h72l10 -496h-92z" />
<glyph unicode="&#xa2;" horiz-adv-x="555" d="M257 66v368q-66 -11 -99.5 -62.5t-33.5 -121.5t33.5 -121.5t99.5 -62.5zM430 175h83q-15 -77 -62 -127t-132 -58v-90h-62v90q-106 11 -160.5 85.5t-54.5 174.5t54.5 174.5t160.5 85.5v90h62v-90q85 -8 132 -58t62 -127h-83q-22 95 -111 109v-368q89 14 111 109z" />
<glyph unicode="&#xa3;" horiz-adv-x="626" d="M581 448h-85q0 85 -38.5 135t-109.5 50t-110 -50t-39 -135v-114h192v-54h-192v-134q0 -49 -25 -68h407v-78h-537v78q33 0 51.5 18.5t18.5 49.5v134h-70v54h70v114q0 120 61.5 191.5t172.5 71.5t172 -71.5t61 -191.5z" />
<glyph unicode="&#xa4;" horiz-adv-x="578" d="M443 300q0 67 -43.5 110.5t-110.5 43.5t-110.5 -43.5t-43.5 -110.5t43.5 -110.5t110.5 -43.5t110.5 43.5t43.5 110.5zM63 300q0 78 44 135l-41 41l47 47l42 -42q57 40 134 40t134 -40l42 42l47 -47l-41 -41q44 -57 44 -135t-44 -135l41 -41l-47 -47l-42 42 q-57 -40 -134 -40t-134 40l-42 -42l-47 47l41 41q-44 57 -44 135z" />
<glyph unicode="&#xa5;" horiz-adv-x="613" d="M518 181v-54h-169v-127h-85v127h-169v54h169v70h-169v54h125l-205 395h93l198 -395h1l198 395h93l-205 -395h125v-54h-169v-70h169z" />
<glyph unicode="&#xa6;" horiz-adv-x="246" d="M88 360v380h70v-380h-70zM88 185h70v-380h-70v380z" />
<glyph unicode="&#xa7;" horiz-adv-x="540" d="M348 169q31 4 51.5 24t20.5 52q0 27 -23.5 50t-52.5 36.5t-77.5 35t-75.5 36.5q-31 -4 -51 -24t-20 -52q0 -27 23.5 -50t52 -36.5t77 -35t75.5 -36.5zM82 554q0 78 54.5 117.5t134.5 39.5q84 0 141.5 -44t64.5 -129h-83q-4 49 -38 74t-85 25q-46 0 -76.5 -20.5 t-30.5 -64.5q0 -37 34.5 -65.5t84 -49t99 -43t84 -60.5t34.5 -89q0 -87 -86 -123q44 -44 44 -104q0 -78 -54.5 -117.5t-134.5 -39.5q-84 0 -141.5 44t-64.5 129h83q4 -49 38 -74t85 -25q46 0 76.5 20.5t30.5 64.5q0 37 -34.5 65.5t-84 49t-99 43t-84 60.5t-34.5 89 q0 87 86 123q-44 44 -44 104z" />
<glyph unicode="&#xa8;" horiz-adv-x="332" d="M25 630q0 21 14.5 35.5t35.5 14.5t35.5 -14.5t14.5 -35.5t-14.5 -35.5t-35.5 -14.5t-35.5 14.5t-14.5 35.5zM207 630q0 21 14.5 35.5t35.5 14.5t35.5 -14.5t14.5 -35.5t-14.5 -35.5t-35.5 -14.5t-35.5 14.5t-14.5 35.5z" />
<glyph unicode="&#xa9;" horiz-adv-x="820" d="M101 350q0 -131 89.5 -221t219.5 -90t219.5 90t89.5 221t-89.5 221t-219.5 90t-219.5 -90t-89.5 -221zM528 296h63q-11 -73 -55.5 -116.5t-125.5 -43.5q-96 0 -146 62.5t-50 151.5t50 151.5t146 62.5q81 0 125.5 -43.5t55.5 -116.5h-63q-19 102 -118 102 q-67 0 -100.5 -45.5t-33.5 -110.5t33.5 -110.5t100.5 -45.5q99 0 118 102zM49 350q0 152 104.5 256.5t256.5 104.5t256.5 -104.5t104.5 -256.5t-104.5 -256.5t-256.5 -104.5t-256.5 104.5t-104.5 256.5z" />
<glyph unicode="&#xaa;" horiz-adv-x="416" d="M302 592q0 49 -25.5 82t-76.5 33t-76.5 -33t-25.5 -82t25.5 -82t76.5 -33t76.5 33t25.5 82zM361 430h-59v42q-40 -50 -111 -50q-77 0 -114.5 50t-37.5 120t37.5 120t114.5 50q71 0 111 -50v42h59v-324z" />
<glyph unicode="&#xab;" horiz-adv-x="488" d="M224 75l-170 138v74l170 138v-80l-119 -95l119 -95v-80zM434 75l-170 138v74l170 138v-80l-119 -95l119 -95v-80z" />
<glyph unicode="&#xac;" horiz-adv-x="619" d="M557 101h-73v163h-422v72h495v-235z" />
<glyph unicode="&#xad;" horiz-adv-x="486" d="M73 246v74h340v-74h-340z" />
<glyph unicode="&#xae;" horiz-adv-x="820" d="M101 350q0 -131 89.5 -221t219.5 -90t219.5 90t89.5 221t-89.5 221t-219.5 90t-219.5 -90t-89.5 -221zM439 501h-109v-152h109q33 0 54.5 21.5t21.5 54.5t-21.5 54.5t-54.5 21.5zM49 350q0 152 104.5 256.5t256.5 104.5t256.5 -104.5t104.5 -256.5t-104.5 -256.5 t-256.5 -104.5t-256.5 104.5t-104.5 256.5zM417 294h-87v-151h-62v414h172q60 0 98.5 -37.5t38.5 -94.5q0 -45 -25 -78.5t-67 -46.5l99 -157h-72z" />
<glyph unicode="&#xaf;" horiz-adv-x="330" d="M305 585h-280v61h280v-61z" />
<glyph unicode="&#xb0;" horiz-adv-x="358" d="M26 562q0 64 44 106.5t109 42.5t109 -42.5t44 -106.5t-44 -106.5t-109 -42.5t-109 42.5t-44 106.5zM91 562q0 -38 25.5 -63t62.5 -25t62.5 25t25.5 63t-25.5 63t-62.5 25t-62.5 -25t-25.5 -63z" />
<glyph unicode="&#xb1;" horiz-adv-x="619" d="M273 358h-211v72h211v154h73v-154h211v-72h-211v-154h-73v154zM557 46h-495v72h495v-72z" />
<glyph unicode="&#xb2;" horiz-adv-x="350" d="M252 706q0 40 -22.5 61.5t-57.5 21.5q-33 0 -54.5 -18.5t-23.5 -47.5h-64q1 57 42 90.5t100 33.5q62 0 103.5 -37t41.5 -104q0 -45 -26.5 -73.5t-74.5 -53.5q-5 -3 -30 -15t-33 -17t-24 -16t-23 -21.5t-10 -22.5h221v-57h-287v37q0 13 3 25.5t6.5 22t11 20t13 17.5 t17 15.5t17 13t19 12.5t18 10.5t19 10t16.5 8.5q46 23 64 39.5t18 44.5z" />
<glyph unicode="&#xb3;" horiz-adv-x="342" d="M294 787l-97 -117q54 -8 82.5 -40t28.5 -77q0 -57 -38 -93.5t-110 -36.5q-59 0 -99 33t-41 91h65q2 -30 24 -48.5t55 -18.5q34 0 56.5 18t22.5 52q0 35 -22.5 53.5t-57.5 18.5h-13l-24 50l87 109h-180v59h261v-53z" />
<glyph unicode="&#xb4;" horiz-adv-x="231" d="M206 715l-119 -140h-62l81 140h100z" />
<glyph unicode="&#xb5;" horiz-adv-x="566" d="M68 -195v695h82v-302q0 -70 25 -102t85 -32q67 0 109 44t42 121v271h82v-500h-82v77q-24 -42 -67 -65t-95 -23q-58 0 -99 22v-206h-82z" />
<glyph unicode="&#xb6;" horiz-adv-x="538" d="M378 -165v865h72v-865h-72zM206 328q-81 0 -122.5 54t-41.5 132t41.5 132t122.5 54h72v-865h-72v493z" />
<glyph unicode="&#xb7;" horiz-adv-x="208" d="M49 284q0 24 16 39.5t39 15.5t39 -15.5t16 -39.5t-16 -39.5t-39 -15.5t-39 15.5t-16 39.5z" />
<glyph unicode="&#xb8;" horiz-adv-x="259" d="M74 -82l-15 25l26 67h48l-19 -49h18q46 0 74 -24t28 -64q0 -46 -34.5 -74.5t-92.5 -28.5q-36 0 -82 16v56q42 -18 77 -18q33 0 52.5 14t19.5 37q0 43 -56 43h-44z" />
<glyph unicode="&#xb9;" horiz-adv-x="234" d="M107 430v299h-88v48q83 6 105 63h48v-410h-65z" />
<glyph unicode="&#xba;" horiz-adv-x="398" d="M39 592q0 70 40.5 120t119.5 50t119.5 -50t40.5 -120t-40.5 -120t-119.5 -50t-119.5 50t-40.5 120zM300 592q0 48 -25.5 81.5t-75.5 33.5t-75.5 -33.5t-25.5 -81.5t25.5 -81.5t75.5 -33.5t75.5 33.5t25.5 81.5z" />
<glyph unicode="&#xbb;" horiz-adv-x="488" d="M264 75v80l119 95l-119 95v80l170 -138v-74zM54 75v80l119 95l-119 95v80l170 -138v-74z" />
<glyph unicode="&#xbc;" horiz-adv-x="706" d="M562 390l-121 -254h123v254h-2zM682 80h-53v-80h-65v80h-187v51l133 279h119v-274h53v-56zM172 290h-65v299h-88v48q83 6 105 63h48v-410zM229 -25h-64l273 750h64z" />
<glyph unicode="&#xbd;" horiz-adv-x="748" d="M229 -25h-64l273 750h64zM650 276q0 40 -22.5 61.5t-57.5 21.5q-33 0 -54.5 -18.5t-23.5 -47.5h-64q1 57 42 90.5t100 33.5q62 0 103.5 -37t41.5 -104q0 -45 -26.5 -73.5t-74.5 -53.5q-5 -3 -30 -15t-33 -17t-24 -16t-23 -21.5t-10 -22.5h221v-57h-287v37q0 13 3 25.5 t6.5 22t11 20t13 17.5t17 15.5t17 13t19 12.5t18 10.5t19 10t16.5 8.5q46 23 64 39.5t18 44.5zM172 290h-65v299h-88v48q83 6 105 63h48v-410z" />
<glyph unicode="&#xbe;" horiz-adv-x="779" d="M635 390l-121 -254h123v254h-2zM755 80h-53v-80h-65v80h-187v51l133 279h119v-274h53v-56zM294 700v-53l-97 -117q54 -8 82.5 -40t28.5 -77q0 -57 -38 -93.5t-110 -36.5q-59 0 -99 33t-41 91h65q2 -30 24 -48.5t55 -18.5q34 0 56.5 18t22.5 52q0 35 -22.5 53.5 t-57.5 18.5h-13l-24 50l87 109h-180v59h261zM302 -25h-64l273 750h64z" />
<glyph unicode="&#xbf;" horiz-adv-x="511" d="M315 455q0 -24 -16 -39.5t-39 -15.5t-39 15.5t-16 39.5t16 39.5t39 15.5t39 -15.5t16 -39.5zM297 317v-191h-37q-64 0 -96.5 -38t-32.5 -93t32.5 -93t96.5 -38t96.5 38t32.5 93h82q0 -85 -53.5 -145.5t-157.5 -60.5t-157.5 60.5t-53.5 145.5q0 76 43 133.5t127 69.5 l4 119h74z" />
<glyph unicode="&#xc0;" horiz-adv-x="660" d="M329 675l-142 -419h286l-142 419h-2zM101 0h-91l245 700h150l245 -700h-91l-60 178h-338zM299 775l-119 140h100l81 -140h-62z" />
<glyph unicode="&#xc1;" horiz-adv-x="660" d="M329 675l-142 -419h286l-142 419h-2zM101 0h-91l245 700h150l245 -700h-91l-60 178h-338zM380 915h100l-119 -140h-62z" />
<glyph unicode="&#xc2;" horiz-adv-x="660" d="M329 675l-142 -419h286l-142 419h-2zM101 0h-91l245 700h150l245 -700h-91l-60 178h-338zM282 915h96l107 -140h-76l-79 103l-79 -103h-76z" />
<glyph unicode="&#xc3;" horiz-adv-x="660" d="M329 675l-142 -419h286l-142 419h-2zM101 0h-91l245 700h150l245 -700h-91l-60 178h-338zM230 776h-50q2 41 25 69t65 28q21 0 62 -11.5t61 -11.5q32 0 37 36h50q-2 -41 -25 -69t-65 -28q-21 0 -62 11.5t-61 11.5q-32 0 -37 -36z" />
<glyph unicode="&#xc4;" horiz-adv-x="660" d="M329 675l-142 -419h286l-142 419h-2zM101 0h-91l245 700h150l245 -700h-91l-60 178h-338zM189 830q0 21 14.5 35.5t35.5 14.5t35.5 -14.5t14.5 -35.5t-14.5 -35.5t-35.5 -14.5t-35.5 14.5t-14.5 35.5zM371 830q0 21 14.5 35.5t35.5 14.5t35.5 -14.5t14.5 -35.5 t-14.5 -35.5t-35.5 -14.5t-35.5 14.5t-14.5 35.5z" />
<glyph unicode="&#xc5;" horiz-adv-x="660" d="M329 675l-142 -419h286l-142 419h-2zM382 861q0 23 -15 38t-37 15t-37 -15t-15 -38t15 -38t37 -15t37 15t15 38zM101 0h-91l245 700h150l245 -700h-91l-60 178h-338zM227 861q0 43 29 72t74 29t74 -29t29 -72t-29 -72t-74 -29t-74 29t-29 72z" />
<glyph unicode="&#xc6;" horiz-adv-x="1018" d="M497 675l-240 -419h242v419h-2zM110 0h-100l411 700h536v-78h-373v-229h349v-76h-349v-239h385v-78h-470v178h-287z" />
<glyph unicode="&#xc7;" horiz-adv-x="708" d="M582 250h86q-19 -114 -87.5 -184.5t-191.5 -76.5l-11 -28h18q46 0 74 -24t28 -64q0 -46 -34.5 -74.5t-92.5 -28.5q-36 0 -82 16v56q42 -18 77 -18q33 0 52.5 14t19.5 37q0 43 -56 43h-44l-15 25l18 47q-101 6 -171 60.5t-100 131t-30 168.5q0 71 19.5 134t58 114.5 t103 82t147.5 30.5q134 0 207 -71t93 -190h-86q-36 182 -214 182q-62 0 -110 -24t-76.5 -64.5t-42.5 -89.5t-14 -104t14 -104t42.5 -89.5t76.5 -64.5t110 -24q178 0 214 182z" />
<glyph unicode="&#xc8;" d="M173 915h100l81 -140h-62zM173 317v-239h385v-78h-470v700h458v-78h-373v-229h349v-76h-349z" />
<glyph unicode="&#xc9;" d="M473 915l-119 -140h-62l81 140h100zM173 317v-239h385v-78h-470v700h458v-78h-373v-229h349v-76h-349z" />
<glyph unicode="&#xca;" d="M371 915l107 -140h-76l-79 103l-79 -103h-76l107 140h96zM173 317v-239h385v-78h-470v700h458v-78h-373v-229h349v-76h-349z" />
<glyph unicode="&#xcb;" d="M182 830q0 21 14.5 35.5t35.5 14.5t35.5 -14.5t14.5 -35.5t-14.5 -35.5t-35.5 -14.5t-35.5 14.5t-14.5 35.5zM364 830q0 21 14.5 35.5t35.5 14.5t35.5 -14.5t14.5 -35.5t-14.5 -35.5t-35.5 -14.5t-35.5 14.5t-14.5 35.5zM173 317v-239h385v-78h-470v700h458v-78h-373 v-229h349v-76h-349z" />
<glyph unicode="&#xcc;" horiz-adv-x="261" d="M-19 915h100l81 -140h-62zM88 0v700h85v-700h-85z" />
<glyph unicode="&#xcd;" horiz-adv-x="261" d="M281 915l-119 -140h-62l81 140h100zM88 0v700h85v-700h-85z" />
<glyph unicode="&#xce;" horiz-adv-x="261" d="M179 915l107 -140h-76l-79 103l-79 -103h-76l107 140h96zM88 0v700h85v-700h-85z" />
<glyph unicode="&#xcf;" horiz-adv-x="261" d="M-10 830q0 21 14.5 35.5t35.5 14.5t35.5 -14.5t14.5 -35.5t-14.5 -35.5t-35.5 -14.5t-35.5 14.5t-14.5 35.5zM172 830q0 21 14.5 35.5t35.5 14.5t35.5 -14.5t14.5 -35.5t-14.5 -35.5t-35.5 -14.5t-35.5 14.5t-14.5 35.5zM88 0v700h85v-700h-85z" />
<glyph unicode="&#xd0;" horiz-adv-x="708" d="M108 700h239q82 0 145 -29.5t100.5 -80t56.5 -111.5t19 -129t-19 -129t-56.5 -111.5t-100.5 -80t-145 -29.5h-239v316h-75v69h75v315zM193 78h154q117 0 176.5 79.5t59.5 192.5t-59.5 192.5t-176.5 79.5h-154v-237h180v-69h-180v-238z" />
<glyph unicode="&#xd1;" horiz-adv-x="746" d="M273 776h-50q2 41 25 69t65 28q21 0 62 -11.5t61 -11.5q32 0 37 36h50q-2 -41 -25 -69t-65 -28q-21 0 -62 11.5t-61 11.5q-32 0 -37 -36zM252 700l319 -675h2v675h85v-700h-164l-319 675h-2v-675h-85v700h164z" />
<glyph unicode="&#xd2;" horiz-adv-x="736" d="M218 915h100l81 -140h-62zM40 350q0 71 19.5 134t58 114.5t103 82t147.5 30.5t147.5 -30.5t103 -82t58 -114.5t19.5 -134t-19.5 -134t-58 -114.5t-103 -82t-147.5 -30.5t-147.5 30.5t-103 82t-58 114.5t-19.5 134zM611 350q0 55 -14 104t-42.5 89.5t-76.5 64.5t-110 24 t-110 -24t-76.5 -64.5t-42.5 -89.5t-14 -104t14 -104t42.5 -89.5t76.5 -64.5t110 -24t110 24t76.5 64.5t42.5 89.5t14 104z" />
<glyph unicode="&#xd3;" horiz-adv-x="736" d="M518 915l-119 -140h-62l81 140h100zM40 350q0 71 19.5 134t58 114.5t103 82t147.5 30.5t147.5 -30.5t103 -82t58 -114.5t19.5 -134t-19.5 -134t-58 -114.5t-103 -82t-147.5 -30.5t-147.5 30.5t-103 82t-58 114.5t-19.5 134zM611 350q0 55 -14 104t-42.5 89.5t-76.5 64.5 t-110 24t-110 -24t-76.5 -64.5t-42.5 -89.5t-14 -104t14 -104t42.5 -89.5t76.5 -64.5t110 -24t110 24t76.5 64.5t42.5 89.5t14 104z" />
<glyph unicode="&#xd4;" horiz-adv-x="736" d="M611 350q0 55 -14 104t-42.5 89.5t-76.5 64.5t-110 24t-110 -24t-76.5 -64.5t-42.5 -89.5t-14 -104t14 -104t42.5 -89.5t76.5 -64.5t110 -24t110 24t76.5 64.5t42.5 89.5t14 104zM40 350q0 71 19.5 134t58 114.5t103 82t147.5 30.5t147.5 -30.5t103 -82t58 -114.5 t19.5 -134t-19.5 -134t-58 -114.5t-103 -82t-147.5 -30.5t-147.5 30.5t-103 82t-58 114.5t-19.5 134zM320 915h96l107 -140h-76l-79 103l-79 -103h-76z" />
<glyph unicode="&#xd5;" horiz-adv-x="736" d="M611 350q0 55 -14 104t-42.5 89.5t-76.5 64.5t-110 24t-110 -24t-76.5 -64.5t-42.5 -89.5t-14 -104t14 -104t42.5 -89.5t76.5 -64.5t110 -24t110 24t76.5 64.5t42.5 89.5t14 104zM40 350q0 71 19.5 134t58 114.5t103 82t147.5 30.5t147.5 -30.5t103 -82t58 -114.5 t19.5 -134t-19.5 -134t-58 -114.5t-103 -82t-147.5 -30.5t-147.5 30.5t-103 82t-58 114.5t-19.5 134zM268 776h-50q2 41 25 69t65 28q21 0 62 -11.5t61 -11.5q32 0 37 36h50q-2 -41 -25 -69t-65 -28q-21 0 -62 11.5t-61 11.5q-32 0 -37 -36z" />
<glyph unicode="&#xd6;" horiz-adv-x="736" d="M227 830q0 21 14.5 35.5t35.5 14.5t35.5 -14.5t14.5 -35.5t-14.5 -35.5t-35.5 -14.5t-35.5 14.5t-14.5 35.5zM409 830q0 21 14.5 35.5t35.5 14.5t35.5 -14.5t14.5 -35.5t-14.5 -35.5t-35.5 -14.5t-35.5 14.5t-14.5 35.5zM40 350q0 71 19.5 134t58 114.5t103 82 t147.5 30.5t147.5 -30.5t103 -82t58 -114.5t19.5 -134t-19.5 -134t-58 -114.5t-103 -82t-147.5 -30.5t-147.5 30.5t-103 82t-58 114.5t-19.5 134zM611 350q0 55 -14 104t-42.5 89.5t-76.5 64.5t-110 24t-110 -24t-76.5 -64.5t-42.5 -89.5t-14 -104t14 -104t42.5 -89.5 t76.5 -64.5t110 -24t110 24t76.5 64.5t42.5 89.5t14 104z" />
<glyph unicode="&#xd7;" horiz-adv-x="576" d="M288 249l-175 -175l-51 51l175 175l-175 175l51 51l175 -175l175 175l51 -51l-175 -175l175 -175l-51 -51z" />
<glyph unicode="&#xd8;" horiz-adv-x="736" d="M181 157l337 425q-60 50 -150 50q-62 0 -110 -24t-76.5 -64.5t-42.5 -89.5t-14 -104q0 -117 56 -193zM611 350q0 117 -56 193l-337 -425q60 -50 150 -50q62 0 110 24t76.5 64.5t42.5 89.5t14 104zM649 747l42 -32l-83 -104q88 -101 88 -261q0 -71 -19.5 -134t-58 -114.5 t-103 -82t-147.5 -30.5q-120 0 -202 64l-79 -100l-42 32l83 104q-88 101 -88 261q0 71 19.5 134t58 114.5t103 82t147.5 30.5q120 0 202 -64z" />
<glyph unicode="&#xd9;" horiz-adv-x="716" d="M208 915h100l81 -140h-62zM553 276v424h85v-431q0 -51 -13.5 -97t-43.5 -89t-87.5 -68.5t-135.5 -25.5t-135.5 25.5t-87.5 68.5t-43.5 89t-13.5 97v431h85v-424q0 -39 9.5 -74t31 -66.5t61 -50t93.5 -18.5t93.5 18.5t61 50t31 66.5t9.5 74z" />
<glyph unicode="&#xda;" horiz-adv-x="716" d="M508 915l-119 -140h-62l81 140h100zM553 276v424h85v-431q0 -51 -13.5 -97t-43.5 -89t-87.5 -68.5t-135.5 -25.5t-135.5 25.5t-87.5 68.5t-43.5 89t-13.5 97v431h85v-424q0 -39 9.5 -74t31 -66.5t61 -50t93.5 -18.5t93.5 18.5t61 50t31 66.5t9.5 74z" />
<glyph unicode="&#xdb;" horiz-adv-x="716" d="M406 915l107 -140h-76l-79 103l-79 -103h-76l107 140h96zM553 276v424h85v-431q0 -51 -13.5 -97t-43.5 -89t-87.5 -68.5t-135.5 -25.5t-135.5 25.5t-87.5 68.5t-43.5 89t-13.5 97v431h85v-424q0 -39 9.5 -74t31 -66.5t61 -50t93.5 -18.5t93.5 18.5t61 50t31 66.5t9.5 74z " />
<glyph unicode="&#xdc;" horiz-adv-x="716" d="M217 830q0 21 14.5 35.5t35.5 14.5t35.5 -14.5t14.5 -35.5t-14.5 -35.5t-35.5 -14.5t-35.5 14.5t-14.5 35.5zM399 830q0 21 14.5 35.5t35.5 14.5t35.5 -14.5t14.5 -35.5t-14.5 -35.5t-35.5 -14.5t-35.5 14.5t-14.5 35.5zM553 276v424h85v-431q0 -51 -13.5 -97t-43.5 -89 t-87.5 -68.5t-135.5 -25.5t-135.5 25.5t-87.5 68.5t-43.5 89t-13.5 97v431h85v-424q0 -39 9.5 -74t31 -66.5t61 -50t93.5 -18.5t93.5 18.5t61 50t31 66.5t9.5 74z" />
<glyph unicode="&#xdd;" horiz-adv-x="613" d="M457 915l-119 -140h-62l81 140h100zM233 280l-218 420h93l198 -395h1l198 395h93l-218 -420h-31v-280h-85v280h-31z" />
<glyph unicode="&#xde;" horiz-adv-x="633" d="M363 500h-190v-300h190q65 0 107.5 42.5t42.5 107.5t-42.5 107.5t-107.5 42.5zM364 122h-191v-122h-85v700h85v-122h191q101 0 167.5 -64.5t66.5 -163.5t-66.5 -163.5t-167.5 -64.5z" />
<glyph unicode="&#xdf;" horiz-adv-x="587" d="M291 333v70q58 0 98 33t40 88q0 51 -37 81.5t-92 30.5q-72 0 -108.5 -49.5t-36.5 -127.5v-559h-82v559q0 112 57 182t170 70q90 0 150.5 -50t60.5 -133q0 -101 -92 -152q126 -46 126 -176q0 -73 -38 -119.5t-92 -63.5t-124 -17h-73v75h73q74 0 123 30t49 99t-49 99 t-123 30z" />
<glyph unicode="&#xe0;" d="M452 250q0 78 -41.5 132t-122.5 54t-122.5 -54t-41.5 -132t41.5 -132t122.5 -54t122.5 54t41.5 132zM534 0h-82v67q-61 -78 -174 -78q-62 0 -109 22.5t-73.5 60.5t-40 83t-13.5 95t13.5 95t40 83t73.5 60.5t109 22.5q113 0 174 -78v67h82v-500zM257 575l-119 140h100 l81 -140h-62z" />
<glyph unicode="&#xe1;" d="M452 250q0 78 -41.5 132t-122.5 54t-122.5 -54t-41.5 -132t41.5 -132t122.5 -54t122.5 54t41.5 132zM534 0h-82v67q-61 -78 -174 -78q-62 0 -109 22.5t-73.5 60.5t-40 83t-13.5 95t13.5 95t40 83t73.5 60.5t109 22.5q113 0 174 -78v67h82v-500zM338 715h100l-119 -140 h-62z" />
<glyph unicode="&#xe2;" d="M452 250q0 78 -41.5 132t-122.5 54t-122.5 -54t-41.5 -132t41.5 -132t122.5 -54t122.5 54t41.5 132zM534 0h-82v67q-61 -78 -174 -78q-62 0 -109 22.5t-73.5 60.5t-40 83t-13.5 95t13.5 95t40 83t73.5 60.5t109 22.5q113 0 174 -78v67h82v-500zM240 715h96l107 -140h-76 l-79 103l-79 -103h-76z" />
<glyph unicode="&#xe3;" d="M452 250q0 78 -41.5 132t-122.5 54t-122.5 -54t-41.5 -132t41.5 -132t122.5 -54t122.5 54t41.5 132zM534 0h-82v67q-61 -78 -174 -78q-62 0 -109 22.5t-73.5 60.5t-40 83t-13.5 95t13.5 95t40 83t73.5 60.5t109 22.5q113 0 174 -78v67h82v-500zM188 576h-50q2 41 25 69 t65 28q21 0 62 -11.5t61 -11.5q32 0 37 36h50q-2 -41 -25 -69t-65 -28q-21 0 -62 11.5t-61 11.5q-32 0 -37 -36z" />
<glyph unicode="&#xe4;" d="M452 250q0 78 -41.5 132t-122.5 54t-122.5 -54t-41.5 -132t41.5 -132t122.5 -54t122.5 54t41.5 132zM534 0h-82v67q-61 -78 -174 -78q-62 0 -109 22.5t-73.5 60.5t-40 83t-13.5 95t13.5 95t40 83t73.5 60.5t109 22.5q113 0 174 -78v67h82v-500zM147 630q0 21 14.5 35.5 t35.5 14.5t35.5 -14.5t14.5 -35.5t-14.5 -35.5t-35.5 -14.5t-35.5 14.5t-14.5 35.5zM329 630q0 21 14.5 35.5t35.5 14.5t35.5 -14.5t14.5 -35.5t-14.5 -35.5t-35.5 -14.5t-35.5 14.5t-14.5 35.5z" />
<glyph unicode="&#xe5;" d="M452 250q0 78 -41.5 132t-122.5 54t-122.5 -54t-41.5 -132t41.5 -132t122.5 -54t122.5 54t41.5 132zM340 661q0 23 -15 38t-37 15t-37 -15t-15 -38t15 -38t37 -15t37 15t15 38zM534 0h-82v67q-61 -78 -174 -78q-62 0 -109 22.5t-73.5 60.5t-40 83t-13.5 95t13.5 95t40 83 t73.5 60.5t109 22.5q113 0 174 -78v67h82v-500zM185 661q0 43 29 72t74 29t74 -29t29 -72t-29 -72t-74 -29t-74 29t-29 72z" />
<glyph unicode="&#xe6;" horiz-adv-x="965" d="M452 250q0 78 -41.5 132t-122.5 54t-122.5 -54t-41.5 -132t41.5 -132t122.5 -54t122.5 54t41.5 132zM537 295h300q-10 62 -48 101.5t-102 39.5t-102 -39.5t-48 -101.5zM534 0h-82v67q-61 -78 -174 -78q-62 0 -109 22.5t-73.5 60.5t-40 83t-13.5 95t13.5 95t40 83 t73.5 60.5t109 22.5q113 0 174 -78v67h82v-67q54 78 155 78q115 0 174.5 -76.5t59.5 -184.5v-25h-389q7 -70 45 -115.5t108 -45.5q107 0 138 81h86q-20 -73 -75.5 -114.5t-146.5 -41.5q-107 0 -155 78v-67z" />
<glyph unicode="&#xe7;" horiz-adv-x="555" d="M430 175h83q-15 -80 -64.5 -129.5t-139.5 -55.5l-11 -29h18q46 0 74 -24t28 -64q0 -46 -34.5 -74.5t-92.5 -28.5q-36 0 -82 16v56q42 -18 77 -18q33 0 52.5 14t19.5 37q0 43 -56 43h-44l-15 25l18 47q-108 9 -163.5 84t-55.5 176q0 108 62.5 184.5t183.5 76.5 q100 0 154.5 -51t70.5 -135h-83q-26 111 -142 111q-81 0 -122.5 -54t-41.5 -132t41.5 -132t122.5 -54q116 0 142 111z" />
<glyph unicode="&#xe8;" horiz-adv-x="556" d="M128 295h300q-11 62 -48.5 101.5t-101.5 39.5t-101.5 -39.5t-48.5 -101.5zM416 145h86q-43 -156 -224 -156q-116 0 -176 76.5t-60 184.5t60 184.5t176 76.5t176 -76.5t60 -184.5v-25h-389q6 -69 44.5 -115t108.5 -46q107 0 138 81zM247 575l-119 140h100l81 -140h-62z " />
<glyph unicode="&#xe9;" horiz-adv-x="556" d="M128 295h300q-11 62 -48.5 101.5t-101.5 39.5t-101.5 -39.5t-48.5 -101.5zM416 145h86q-43 -156 -224 -156q-116 0 -176 76.5t-60 184.5t60 184.5t176 76.5t176 -76.5t60 -184.5v-25h-389q6 -69 44.5 -115t108.5 -46q107 0 138 81zM328 715h100l-119 -140h-62z" />
<glyph unicode="&#xea;" horiz-adv-x="556" d="M128 295h300q-11 62 -48.5 101.5t-101.5 39.5t-101.5 -39.5t-48.5 -101.5zM416 145h86q-43 -156 -224 -156q-116 0 -176 76.5t-60 184.5t60 184.5t176 76.5t176 -76.5t60 -184.5v-25h-389q6 -69 44.5 -115t108.5 -46q107 0 138 81zM230 715h96l107 -140h-76l-79 103 l-79 -103h-76z" />
<glyph unicode="&#xeb;" horiz-adv-x="556" d="M128 295h300q-11 62 -48.5 101.5t-101.5 39.5t-101.5 -39.5t-48.5 -101.5zM416 145h86q-43 -156 -224 -156q-116 0 -176 76.5t-60 184.5t60 184.5t176 76.5t176 -76.5t60 -184.5v-25h-389q6 -69 44.5 -115t108.5 -46q107 0 138 81zM137 630q0 21 14.5 35.5t35.5 14.5 t35.5 -14.5t14.5 -35.5t-14.5 -35.5t-35.5 -14.5t-35.5 14.5t-14.5 35.5zM319 630q0 21 14.5 35.5t35.5 14.5t35.5 -14.5t14.5 -35.5t-14.5 -35.5t-35.5 -14.5t-35.5 14.5t-14.5 35.5z" />
<glyph unicode="&#xec;" horiz-adv-x="228" d="M-36 715h100l81 -140h-62zM73 0v500h82v-500h-82z" />
<glyph unicode="&#xed;" horiz-adv-x="228" d="M264 715l-119 -140h-62l81 140h100zM73 0v500h82v-500h-82z" />
<glyph unicode="&#xee;" horiz-adv-x="228" d="M162 715l107 -140h-76l-79 103l-79 -103h-76l107 140h96zM73 0v500h82v-500h-82z" />
<glyph unicode="&#xef;" horiz-adv-x="228" d="M-27 630q0 21 14.5 35.5t35.5 14.5t35.5 -14.5t14.5 -35.5t-14.5 -35.5t-35.5 -14.5t-35.5 14.5t-14.5 35.5zM155 630q0 21 14.5 35.5t35.5 14.5t35.5 -14.5t14.5 -35.5t-14.5 -35.5t-35.5 -14.5t-35.5 14.5t-14.5 35.5zM73 0v500h82v-500h-82z" />
<glyph unicode="&#xf0;" horiz-adv-x="576" d="M452 250q0 78 -41.5 132t-122.5 54t-122.5 -54t-41.5 -132t41.5 -132t122.5 -54t122.5 54t41.5 132zM183 568l-45 45l112 57q-43 37 -96 71l60 40q51 -33 100 -78l103 52l45 -45l-103 -52q175 -190 175 -408q0 -108 -62.5 -184.5t-183.5 -76.5t-183.5 76.5t-62.5 184.5 q0 50 14.5 95.5t43 83.5t76.5 60t110 22q72 0 122 -42q-43 85 -112 157z" />
<glyph unicode="&#xf1;" horiz-adv-x="566" d="M186 576h-50q2 41 25 69t65 28q21 0 62 -11.5t61 -11.5q32 0 37 36h50q-2 -41 -25 -69t-65 -28q-21 0 -62 11.5t-61 11.5q-32 0 -37 -36zM498 0h-82v302q0 70 -25 102t-85 32q-67 0 -109 -44t-42 -121v-271h-82v500h82v-77q24 42 67 65t95 23q181 0 181 -207v-304z" />
<glyph unicode="&#xf2;" horiz-adv-x="576" d="M138 715h100l81 -140h-62zM42 250q0 108 62.5 184.5t183.5 76.5t183.5 -76.5t62.5 -184.5t-62.5 -184.5t-183.5 -76.5t-183.5 76.5t-62.5 184.5zM452 250q0 78 -41.5 132t-122.5 54t-122.5 -54t-41.5 -132t41.5 -132t122.5 -54t122.5 54t41.5 132z" />
<glyph unicode="&#xf3;" horiz-adv-x="576" d="M438 715l-119 -140h-62l81 140h100zM42 250q0 108 62.5 184.5t183.5 76.5t183.5 -76.5t62.5 -184.5t-62.5 -184.5t-183.5 -76.5t-183.5 76.5t-62.5 184.5zM452 250q0 78 -41.5 132t-122.5 54t-122.5 -54t-41.5 -132t41.5 -132t122.5 -54t122.5 54t41.5 132z" />
<glyph unicode="&#xf4;" horiz-adv-x="576" d="M452 250q0 78 -41.5 132t-122.5 54t-122.5 -54t-41.5 -132t41.5 -132t122.5 -54t122.5 54t41.5 132zM42 250q0 108 62.5 184.5t183.5 76.5t183.5 -76.5t62.5 -184.5t-62.5 -184.5t-183.5 -76.5t-183.5 76.5t-62.5 184.5zM240 715h96l107 -140h-76l-79 103l-79 -103h-76z " />
<glyph unicode="&#xf5;" horiz-adv-x="576" d="M452 250q0 78 -41.5 132t-122.5 54t-122.5 -54t-41.5 -132t41.5 -132t122.5 -54t122.5 54t41.5 132zM42 250q0 108 62.5 184.5t183.5 76.5t183.5 -76.5t62.5 -184.5t-62.5 -184.5t-183.5 -76.5t-183.5 76.5t-62.5 184.5zM188 576h-50q2 41 25 69t65 28q21 0 62 -11.5 t61 -11.5q32 0 37 36h50q-2 -41 -25 -69t-65 -28q-21 0 -62 11.5t-61 11.5q-32 0 -37 -36z" />
<glyph unicode="&#xf6;" horiz-adv-x="576" d="M147 630q0 21 14.5 35.5t35.5 14.5t35.5 -14.5t14.5 -35.5t-14.5 -35.5t-35.5 -14.5t-35.5 14.5t-14.5 35.5zM329 630q0 21 14.5 35.5t35.5 14.5t35.5 -14.5t14.5 -35.5t-14.5 -35.5t-35.5 -14.5t-35.5 14.5t-14.5 35.5zM42 250q0 108 62.5 184.5t183.5 76.5t183.5 -76.5 t62.5 -184.5t-62.5 -184.5t-183.5 -76.5t-183.5 76.5t-62.5 184.5zM452 250q0 78 -41.5 132t-122.5 54t-122.5 -54t-41.5 -132t41.5 -132t122.5 -54t122.5 54t41.5 132z" />
<glyph unicode="&#xf7;" horiz-adv-x="619" d="M260 499q0 21 14.5 35.5t35.5 14.5t35.5 -14.5t14.5 -35.5t-14.5 -35.5t-35.5 -14.5t-35.5 14.5t-14.5 35.5zM557 264h-495v72h495v-72zM260 101q0 21 14.5 35.5t35.5 14.5t35.5 -14.5t14.5 -35.5t-14.5 -35.5t-35.5 -14.5t-35.5 14.5t-14.5 35.5z" />
<glyph unicode="&#xf8;" horiz-adv-x="576" d="M159 127l221 283q-39 26 -92 26q-81 0 -122.5 -54t-41.5 -132q0 -73 35 -123zM452 250q0 73 -35 123l-221 -283q39 -26 92 -26q81 0 122.5 54t41.5 132zM487 546l42 -30l-61 -78q66 -73 66 -188q0 -108 -62.5 -184.5t-183.5 -76.5q-81 0 -141 39l-58 -74l-42 30l61 78 q-66 73 -66 188q0 108 62.5 184.5t183.5 76.5q81 0 141 -39z" />
<glyph unicode="&#xf9;" horiz-adv-x="566" d="M131 715h100l81 -140h-62zM68 500h82v-302q0 -70 25 -102t85 -32q67 0 109 44t42 121v271h82v-500h-82v77q-24 -42 -67 -65t-95 -23q-181 0 -181 207v304z" />
<glyph unicode="&#xfa;" horiz-adv-x="566" d="M431 715l-119 -140h-62l81 140h100zM68 500h82v-302q0 -70 25 -102t85 -32q67 0 109 44t42 121v271h82v-500h-82v77q-24 -42 -67 -65t-95 -23q-181 0 -181 207v304z" />
<glyph unicode="&#xfb;" horiz-adv-x="566" d="M329 715l107 -140h-76l-79 103l-79 -103h-76l107 140h96zM68 500h82v-302q0 -70 25 -102t85 -32q67 0 109 44t42 121v271h82v-500h-82v77q-24 -42 -67 -65t-95 -23q-181 0 -181 207v304z" />
<glyph unicode="&#xfc;" horiz-adv-x="566" d="M140 630q0 21 14.5 35.5t35.5 14.5t35.5 -14.5t14.5 -35.5t-14.5 -35.5t-35.5 -14.5t-35.5 14.5t-14.5 35.5zM322 630q0 21 14.5 35.5t35.5 14.5t35.5 -14.5t14.5 -35.5t-14.5 -35.5t-35.5 -14.5t-35.5 14.5t-14.5 35.5zM68 500h82v-302q0 -70 25 -102t85 -32 q67 0 109 44t42 121v271h82v-500h-82v77q-24 -42 -67 -65t-95 -23q-181 0 -181 207v304z" />
<glyph unicode="&#xfd;" horiz-adv-x="520" d="M410 715l-119 -140h-62l81 140h100zM506 500l-230 -695h-86l64 195h-70l-170 500h86l159 -480h2l159 480h86z" />
<glyph unicode="&#xfe;" d="M155 250q0 -78 41.5 -132t122.5 -54t122.5 54t41.5 132t-41.5 132t-122.5 54t-122.5 -54t-41.5 -132zM155 67v-262h-82v895h82v-267q61 78 174 78q62 0 109 -22.5t73.5 -60.5t40 -83t13.5 -95t-13.5 -95t-40 -83t-73.5 -60.5t-109 -22.5q-113 0 -174 78z" />
<glyph unicode="&#xff;" horiz-adv-x="520" d="M119 630q0 21 14.5 35.5t35.5 14.5t35.5 -14.5t14.5 -35.5t-14.5 -35.5t-35.5 -14.5t-35.5 14.5t-14.5 35.5zM301 630q0 21 14.5 35.5t35.5 14.5t35.5 -14.5t14.5 -35.5t-14.5 -35.5t-35.5 -14.5t-35.5 14.5t-14.5 35.5zM506 500l-230 -695h-86l64 195h-70l-170 500h86 l159 -480h2l159 480h86z" />
<glyph unicode="&#x100;" horiz-adv-x="660" d="M329 675l-142 -419h286l-142 419h-2zM101 0h-91l245 700h150l245 -700h-91l-60 178h-338zM470 846v-61h-280v61h280z" />
<glyph unicode="&#x101;" d="M452 250q0 78 -41.5 132t-122.5 54t-122.5 -54t-41.5 -132t41.5 -132t122.5 -54t122.5 54t41.5 132zM534 0h-82v67q-61 -78 -174 -78q-62 0 -109 22.5t-73.5 60.5t-40 83t-13.5 95t13.5 95t40 83t73.5 60.5t109 22.5q113 0 174 -78v67h82v-500zM428 646v-61h-280v61h280z " />
<glyph unicode="&#x102;" horiz-adv-x="660" d="M329 675l-142 -419h286l-142 419h-2zM101 0h-91l245 700h150l245 -700h-91l-60 178h-338zM176 915h63q0 -37 24.5 -60t66.5 -23t66.5 23t24.5 60h63q0 -62 -41.5 -101t-112.5 -39t-112.5 39t-41.5 101z" />
<glyph unicode="&#x103;" d="M452 250q0 78 -41.5 132t-122.5 54t-122.5 -54t-41.5 -132t41.5 -132t122.5 -54t122.5 54t41.5 132zM534 0h-82v67q-61 -78 -174 -78q-62 0 -109 22.5t-73.5 60.5t-40 83t-13.5 95t13.5 95t40 83t73.5 60.5t109 22.5q113 0 174 -78v67h82v-500zM134 715h63 q0 -37 24.5 -60t66.5 -23t66.5 23t24.5 60h63q0 -62 -41.5 -101t-112.5 -39t-112.5 39t-41.5 101z" />
<glyph unicode="&#x104;" horiz-adv-x="660" d="M329 675l-142 -419h286l-142 419h-2zM101 0h-91l245 700h150l245 -700q-30 -24 -56 -60.5t-26 -71.5q0 -44 41 -44q24 0 41 8v-51q-20 -11 -53 -11q-41 0 -67.5 24.5t-26.5 65.5q0 77 83 140h-27l-60 178h-338z" />
<glyph unicode="&#x105;" d="M452 250q0 78 -41.5 132t-122.5 54t-122.5 -54t-41.5 -132t41.5 -132t122.5 -54t122.5 54t41.5 132zM470 0h-18v67q-61 -78 -174 -78q-62 0 -109 22.5t-73.5 60.5t-40 83t-13.5 95t13.5 95t40 83t73.5 60.5t109 22.5q113 0 174 -78v67h82v-500q-30 -24 -56 -60.5 t-26 -71.5q0 -44 41 -44q24 0 41 8v-51q-20 -11 -53 -11q-41 0 -67.5 24.5t-26.5 65.5q0 77 83 140z" />
<glyph unicode="&#x106;" horiz-adv-x="708" d="M518 915l-119 -140h-62l81 140h100zM582 250h86q-20 -119 -93 -190t-207 -71q-83 0 -147.5 30.5t-103 82t-58 114.5t-19.5 134t19.5 134t58 114.5t103 82t147.5 30.5q134 0 207 -71t93 -190h-86q-36 182 -214 182q-62 0 -110 -24t-76.5 -64.5t-42.5 -89.5t-14 -104 t14 -104t42.5 -89.5t76.5 -64.5t110 -24q178 0 214 182z" />
<glyph unicode="&#x107;" horiz-adv-x="555" d="M438 715l-119 -140h-62l81 140h100zM430 175h83q-16 -84 -70.5 -135t-154.5 -51q-121 0 -183.5 76.5t-62.5 184.5t62.5 184.5t183.5 76.5q100 0 154.5 -51t70.5 -135h-83q-26 111 -142 111q-81 0 -122.5 -54t-41.5 -132t41.5 -132t122.5 -54q116 0 142 111z" />
<glyph unicode="&#x108;" horiz-adv-x="708" d="M416 915l107 -140h-76l-79 103l-79 -103h-76l107 140h96zM582 250h86q-20 -119 -93 -190t-207 -71q-83 0 -147.5 30.5t-103 82t-58 114.5t-19.5 134t19.5 134t58 114.5t103 82t147.5 30.5q134 0 207 -71t93 -190h-86q-36 182 -214 182q-62 0 -110 -24t-76.5 -64.5 t-42.5 -89.5t-14 -104t14 -104t42.5 -89.5t76.5 -64.5t110 -24q178 0 214 182z" />
<glyph unicode="&#x109;" horiz-adv-x="555" d="M336 715l107 -140h-76l-79 103l-79 -103h-76l107 140h96zM430 175h83q-16 -84 -70.5 -135t-154.5 -51q-121 0 -183.5 76.5t-62.5 184.5t62.5 184.5t183.5 76.5q100 0 154.5 -51t70.5 -135h-83q-26 111 -142 111q-81 0 -122.5 -54t-41.5 -132t41.5 -132t122.5 -54 q116 0 142 111z" />
<glyph unicode="&#x10a;" horiz-adv-x="708" d="M318 831q0 21 14.5 35.5t35.5 14.5t35.5 -14.5t14.5 -35.5t-14.5 -35.5t-35.5 -14.5t-35.5 14.5t-14.5 35.5zM582 250h86q-20 -119 -93 -190t-207 -71q-83 0 -147.5 30.5t-103 82t-58 114.5t-19.5 134t19.5 134t58 114.5t103 82t147.5 30.5q134 0 207 -71t93 -190h-86 q-36 182 -214 182q-62 0 -110 -24t-76.5 -64.5t-42.5 -89.5t-14 -104t14 -104t42.5 -89.5t76.5 -64.5t110 -24q178 0 214 182z" />
<glyph unicode="&#x10b;" horiz-adv-x="555" d="M238 631q0 21 14.5 35.5t35.5 14.5t35.5 -14.5t14.5 -35.5t-14.5 -35.5t-35.5 -14.5t-35.5 14.5t-14.5 35.5zM430 175h83q-16 -84 -70.5 -135t-154.5 -51q-121 0 -183.5 76.5t-62.5 184.5t62.5 184.5t183.5 76.5q100 0 154.5 -51t70.5 -135h-83q-26 111 -142 111 q-81 0 -122.5 -54t-41.5 -132t41.5 -132t122.5 -54q116 0 142 111z" />
<glyph unicode="&#x10c;" horiz-adv-x="708" d="M447 915h76l-107 -140h-96l-107 140h76l79 -103zM582 250h86q-20 -119 -93 -190t-207 -71q-83 0 -147.5 30.5t-103 82t-58 114.5t-19.5 134t19.5 134t58 114.5t103 82t147.5 30.5q134 0 207 -71t93 -190h-86q-36 182 -214 182q-62 0 -110 -24t-76.5 -64.5t-42.5 -89.5 t-14 -104t14 -104t42.5 -89.5t76.5 -64.5t110 -24q178 0 214 182z" />
<glyph unicode="&#x10d;" horiz-adv-x="555" d="M367 715h76l-107 -140h-96l-107 140h76l79 -103zM430 175h83q-16 -84 -70.5 -135t-154.5 -51q-121 0 -183.5 76.5t-62.5 184.5t62.5 184.5t183.5 76.5q100 0 154.5 -51t70.5 -135h-83q-26 111 -142 111q-81 0 -122.5 -54t-41.5 -132t41.5 -132t122.5 -54q116 0 142 111z " />
<glyph unicode="&#x10e;" horiz-adv-x="688" d="M173 78h154q117 0 176.5 79.5t59.5 192.5t-59.5 192.5t-176.5 79.5h-154v-544zM88 700h239q82 0 145 -29.5t100.5 -80t56.5 -111.5t19 -129t-19 -129t-56.5 -111.5t-100.5 -80t-145 -29.5h-239v700zM327 812l79 103h76l-107 -140h-96l-107 140h76z" />
<glyph unicode="&#x10f;" horiz-adv-x="735" d="M452 250q0 78 -41.5 132t-122.5 54t-122.5 -54t-41.5 -132t41.5 -132t122.5 -54t122.5 54t41.5 132zM534 0h-82v67q-61 -78 -174 -78q-62 0 -109 22.5t-73.5 60.5t-40 83t-13.5 95t13.5 95t40 83t73.5 60.5t109 22.5q113 0 174 -78v267h82v-700zM647 700h100l-79 -140 h-62z" />
<glyph unicode="&#x110;" horiz-adv-x="708" d="M108 700h239q82 0 145 -29.5t100.5 -80t56.5 -111.5t19 -129t-19 -129t-56.5 -111.5t-100.5 -80t-145 -29.5h-239v316h-75v69h75v315zM193 78h154q117 0 176.5 79.5t59.5 192.5t-59.5 192.5t-176.5 79.5h-154v-237h180v-69h-180v-238z" />
<glyph unicode="&#x111;" horiz-adv-x="627" d="M452 250q0 78 -41.5 132t-122.5 54t-122.5 -54t-41.5 -132t41.5 -132t122.5 -54t122.5 54t41.5 132zM534 0h-82v67q-61 -78 -174 -78q-62 0 -109 22.5t-73.5 60.5t-40 83t-13.5 95t13.5 95t40 83t73.5 60.5t109 22.5q113 0 174 -78v141h-150v66h150v60h82v-60h50v-66h-50 v-574z" />
<glyph unicode="&#x112;" d="M463 785h-280v61h280v-61zM173 317v-239h385v-78h-470v700h458v-78h-373v-229h349v-76h-349z" />
<glyph unicode="&#x113;" horiz-adv-x="556" d="M128 295h300q-11 62 -48.5 101.5t-101.5 39.5t-101.5 -39.5t-48.5 -101.5zM416 145h86q-43 -156 -224 -156q-116 0 -176 76.5t-60 184.5t60 184.5t176 76.5t176 -76.5t60 -184.5v-25h-389q6 -69 44.5 -115t108.5 -46q107 0 138 81zM418 646v-61h-280v61h280z" />
<glyph unicode="&#x114;" d="M169 915h63q0 -37 24.5 -60t66.5 -23t66.5 23t24.5 60h63q0 -62 -41.5 -101t-112.5 -39t-112.5 39t-41.5 101zM173 317v-239h385v-78h-470v700h458v-78h-373v-229h349v-76h-349z" />
<glyph unicode="&#x115;" horiz-adv-x="556" d="M128 295h300q-11 62 -48.5 101.5t-101.5 39.5t-101.5 -39.5t-48.5 -101.5zM416 145h86q-43 -156 -224 -156q-116 0 -176 76.5t-60 184.5t60 184.5t176 76.5t176 -76.5t60 -184.5v-25h-389q6 -69 44.5 -115t108.5 -46q107 0 138 81zM124 715h63q0 -37 24.5 -60t66.5 -23 t66.5 23t24.5 60h63q0 -62 -41.5 -101t-112.5 -39t-112.5 39t-41.5 101z" />
<glyph unicode="&#x116;" d="M273 831q0 21 14.5 35.5t35.5 14.5t35.5 -14.5t14.5 -35.5t-14.5 -35.5t-35.5 -14.5t-35.5 14.5t-14.5 35.5zM173 317v-239h385v-78h-470v700h458v-78h-373v-229h349v-76h-349z" />
<glyph unicode="&#x117;" horiz-adv-x="556" d="M128 295h300q-11 62 -48.5 101.5t-101.5 39.5t-101.5 -39.5t-48.5 -101.5zM416 145h86q-43 -156 -224 -156q-116 0 -176 76.5t-60 184.5t60 184.5t176 76.5t176 -76.5t60 -184.5v-25h-389q6 -69 44.5 -115t108.5 -46q107 0 138 81zM228 631q0 21 14.5 35.5t35.5 14.5 t35.5 -14.5t14.5 -35.5t-14.5 -35.5t-35.5 -14.5t-35.5 14.5t-14.5 35.5z" />
<glyph unicode="&#x118;" d="M173 317v-239h385v-78q-30 -24 -56 -60.5t-26 -71.5q0 -44 41 -44q24 0 41 8v-51q-20 -11 -53 -11q-41 0 -67.5 24.5t-26.5 65.5q0 77 83 140h-406v700h458v-78h-373v-229h349v-76h-349z" />
<glyph unicode="&#x119;" horiz-adv-x="556" d="M128 295h300q-11 62 -48.5 101.5t-101.5 39.5t-101.5 -39.5t-48.5 -101.5zM416 145h86q-41 -145 -203 -155q-70 -63 -70 -122q0 -44 41 -44q24 0 41 8v-51q-20 -11 -53 -11q-41 0 -67.5 24.5t-26.5 65.5q0 71 73 132q-96 14 -145.5 87.5t-49.5 170.5q0 108 60 184.5 t176 76.5t176 -76.5t60 -184.5v-25h-389q6 -69 44.5 -115t108.5 -46q107 0 138 81z" />
<glyph unicode="&#x11a;" d="M402 915h76l-107 -140h-96l-107 140h76l79 -103zM173 317v-239h385v-78h-470v700h458v-78h-373v-229h349v-76h-349z" />
<glyph unicode="&#x11b;" horiz-adv-x="556" d="M128 295h300q-11 62 -48.5 101.5t-101.5 39.5t-101.5 -39.5t-48.5 -101.5zM416 145h86q-43 -156 -224 -156q-116 0 -176 76.5t-60 184.5t60 184.5t176 76.5t176 -76.5t60 -184.5v-25h-389q6 -69 44.5 -115t108.5 -46q107 0 138 81zM278 612l79 103h76l-107 -140h-96 l-107 140h76z" />
<glyph unicode="&#x11c;" horiz-adv-x="748" d="M416 915l107 -140h-76l-79 103l-79 -103h-76l107 140h96zM40 350q0 71 19.5 134t58 114.5t103 82t147.5 30.5q132 0 205 -69t94 -185h-86q-38 175 -213 175q-62 0 -110 -24t-76.5 -64.5t-42.5 -89.5t-14 -104t14 -104t42.5 -89.5t76.5 -64.5t110 -24q197 0 222 214h-222 v75h308v-357h-55l-18 111q-66 -122 -235 -122q-83 0 -147.5 30.5t-103 82t-58 114.5t-19.5 134z" />
<glyph unicode="&#x11d;" horiz-adv-x="597" d="M452 250q0 78 -41.5 132t-122.5 54t-122.5 -54t-41.5 -132t41.5 -132t122.5 -54t122.5 54t41.5 132zM452 20v47q-61 -78 -174 -78q-62 0 -109 22.5t-73.5 60.5t-40 83t-13.5 95t13.5 95t40 83t73.5 60.5t109 22.5q113 0 174 -78v67h82v-480q0 -60 -21 -105t-56.5 -70.5 t-78 -38t-90.5 -12.5q-77 0 -139 31.5t-89 96.5h96q41 -53 132 -53q69 0 116.5 37t47.5 114zM240 715h96l107 -140h-76l-79 103l-79 -103h-76z" />
<glyph unicode="&#x11e;" horiz-adv-x="748" d="M214 915h63q0 -37 24.5 -60t66.5 -23t66.5 23t24.5 60h63q0 -62 -41.5 -101t-112.5 -39t-112.5 39t-41.5 101zM40 350q0 71 19.5 134t58 114.5t103 82t147.5 30.5q132 0 205 -69t94 -185h-86q-38 175 -213 175q-62 0 -110 -24t-76.5 -64.5t-42.5 -89.5t-14 -104t14 -104 t42.5 -89.5t76.5 -64.5t110 -24q197 0 222 214h-222v75h308v-357h-55l-18 111q-66 -122 -235 -122q-83 0 -147.5 30.5t-103 82t-58 114.5t-19.5 134z" />
<glyph unicode="&#x11f;" horiz-adv-x="597" d="M452 250q0 78 -41.5 132t-122.5 54t-122.5 -54t-41.5 -132t41.5 -132t122.5 -54t122.5 54t41.5 132zM452 20v47q-61 -78 -174 -78q-62 0 -109 22.5t-73.5 60.5t-40 83t-13.5 95t13.5 95t40 83t73.5 60.5t109 22.5q113 0 174 -78v67h82v-480q0 -60 -21 -105t-56.5 -70.5 t-78 -38t-90.5 -12.5q-77 0 -139 31.5t-89 96.5h96q41 -53 132 -53q69 0 116.5 37t47.5 114zM134 715h63q0 -37 24.5 -60t66.5 -23t66.5 23t24.5 60h63q0 -62 -41.5 -101t-112.5 -39t-112.5 39t-41.5 101z" />
<glyph unicode="&#x120;" horiz-adv-x="748" d="M318 831q0 21 14.5 35.5t35.5 14.5t35.5 -14.5t14.5 -35.5t-14.5 -35.5t-35.5 -14.5t-35.5 14.5t-14.5 35.5zM40 350q0 71 19.5 134t58 114.5t103 82t147.5 30.5q132 0 205 -69t94 -185h-86q-38 175 -213 175q-62 0 -110 -24t-76.5 -64.5t-42.5 -89.5t-14 -104t14 -104 t42.5 -89.5t76.5 -64.5t110 -24q197 0 222 214h-222v75h308v-357h-55l-18 111q-66 -122 -235 -122q-83 0 -147.5 30.5t-103 82t-58 114.5t-19.5 134z" />
<glyph unicode="&#x121;" horiz-adv-x="597" d="M452 250q0 78 -41.5 132t-122.5 54t-122.5 -54t-41.5 -132t41.5 -132t122.5 -54t122.5 54t41.5 132zM452 20v47q-61 -78 -174 -78q-62 0 -109 22.5t-73.5 60.5t-40 83t-13.5 95t13.5 95t40 83t73.5 60.5t109 22.5q113 0 174 -78v67h82v-480q0 -60 -21 -105t-56.5 -70.5 t-78 -38t-90.5 -12.5q-77 0 -139 31.5t-89 96.5h96q41 -53 132 -53q69 0 116.5 37t47.5 114zM238 631q0 21 14.5 35.5t35.5 14.5t35.5 -14.5t14.5 -35.5t-14.5 -35.5t-35.5 -14.5t-35.5 14.5t-14.5 35.5z" />
<glyph unicode="&#x122;" horiz-adv-x="748" d="M40 350q0 71 19.5 134t58 114.5t103 82t147.5 30.5q132 0 205 -69t94 -185h-86q-38 175 -213 175q-62 0 -110 -24t-76.5 -64.5t-42.5 -89.5t-14 -104t14 -104t42.5 -89.5t76.5 -64.5t110 -24q197 0 222 214h-222v75h308v-357h-55l-18 111q-66 -122 -235 -122 q-83 0 -147.5 30.5t-103 82t-58 114.5t-19.5 134zM304 -219l26 144h76l-42 -144h-60z" />
<glyph unicode="&#x123;" horiz-adv-x="597" d="M452 250q0 78 -41.5 132t-122.5 54t-122.5 -54t-41.5 -132t41.5 -132t122.5 -54t122.5 54t41.5 132zM452 20v47q-61 -78 -174 -78q-62 0 -109 22.5t-73.5 60.5t-40 83t-13.5 95t13.5 95t40 83t73.5 60.5t109 22.5q113 0 174 -78v67h82v-480q0 -60 -21 -105t-56.5 -70.5 t-78 -38t-90.5 -12.5q-77 0 -139 31.5t-89 96.5h96q41 -53 132 -53q69 0 116.5 37t47.5 114zM279 719h60l-26 -144h-76z" />
<glyph unicode="&#x124;" horiz-adv-x="711" d="M404 915l107 -140h-76l-79 103l-79 -103h-76l107 140h96zM88 1v700h85v-305h365v305h85v-700h-85v317h-365v-317h-85z" />
<glyph unicode="&#x125;" horiz-adv-x="566" d="M334 915l107 -140h-76l-79 103l-79 -103h-76l107 140h96zM498 0h-82v302q0 70 -25 102t-85 32q-67 0 -109 -44t-42 -121v-271h-82v700h82v-277q24 42 67 65t95 23q181 0 181 -207v-304z" />
<glyph unicode="&#x126;" horiz-adv-x="711" d="M173 513v-118h365v118h-365zM173 0h-85v700h85v-118h365v118h85v-700h-85v317h-365v-317z" />
<glyph unicode="&#x127;" horiz-adv-x="586" d="M175 0h-82v574h-50v66h50v60h82v-60h150v-66h-150v-151q24 42 67 65t95 23q181 0 181 -207v-304h-82v302q0 70 -25 102t-85 32q-67 0 -109 -44t-42 -121v-271z" />
<glyph unicode="&#x128;" horiz-adv-x="261" d="M31 776h-50q2 41 25 69t65 28q21 0 62 -11.5t61 -11.5q32 0 37 36h50q-2 -41 -25 -69t-65 -28q-21 0 -62 11.5t-61 11.5q-32 0 -37 -36zM88 0v700h85v-700h-85z" />
<glyph unicode="&#x129;" horiz-adv-x="228" d="M14 576h-50q2 41 25 69t65 28q21 0 62 -11.5t61 -11.5q32 0 37 36h50q-2 -41 -25 -69t-65 -28q-21 0 -62 11.5t-61 11.5q-32 0 -37 -36zM73 0v500h82v-500h-82z" />
<glyph unicode="&#x12a;" horiz-adv-x="261" d="M271 785h-280v61h280v-61zM88 0v700h85v-700h-85z" />
<glyph unicode="&#x12b;" horiz-adv-x="228" d="M254 585h-280v61h280v-61zM73 0v500h82v-500h-82z" />
<glyph unicode="&#x12c;" horiz-adv-x="261" d="M-23 915h63q0 -37 24.5 -60t66.5 -23t66.5 23t24.5 60h63q0 -62 -41.5 -101t-112.5 -39t-112.5 39t-41.5 101zM88 0v700h85v-700h-85z" />
<glyph unicode="&#x12d;" horiz-adv-x="228" d="M-40 715h63q0 -37 24.5 -60t66.5 -23t66.5 23t24.5 60h63q0 -62 -41.5 -101t-112.5 -39t-112.5 39t-41.5 101zM73 0v500h82v-500h-82z" />
<glyph unicode="&#x12e;" horiz-adv-x="261" d="M88 0v700h85v-700q-30 -24 -56 -60.5t-26 -71.5q0 -44 41 -44q24 0 41 8v-51q-20 -11 -53 -11q-41 0 -67.5 24.5t-26.5 65.5q0 77 83 140h-21z" />
<glyph unicode="&#x12f;" horiz-adv-x="228" d="M62 664q0 22 15 37t37 15t37 -15t15 -37t-15 -37t-37 -15t-37 15t-15 37zM73 0v500h82v-500q-30 -24 -56 -60.5t-26 -71.5q0 -44 41 -44q24 0 41 8v-51q-20 -11 -53 -11q-41 0 -67.5 24.5t-26.5 65.5q0 77 83 140h-18z" />
<glyph unicode="&#x130;" horiz-adv-x="261" d="M81 831q0 21 14.5 35.5t35.5 14.5t35.5 -14.5t14.5 -35.5t-14.5 -35.5t-35.5 -14.5t-35.5 14.5t-14.5 35.5zM88 0v700h85v-700h-85z" />
<glyph unicode="&#x131;" horiz-adv-x="228" d="M73 0v500h82v-500h-82z" />
<glyph unicode="&#x132;" horiz-adv-x="813" d="M88 0v700h85v-700h-85zM510 68q74 0 107 46t33 116v470h85v-470q0 -48 -11.5 -89.5t-36.5 -76.5t-70.5 -55t-106.5 -20t-106.5 20t-70.5 55t-36.5 76.5t-11.5 89.5v50h85v-50q0 -70 33 -116t107 -46z" />
<glyph unicode="&#x133;" horiz-adv-x="456" d="M62 664q0 22 15 37t37 15t37 -15t15 -37t-15 -37t-37 -15t-37 15t-15 37zM290 664q0 22 15 37t37 15t37 -15t15 -37t-15 -37t-37 -15t-37 15t-15 37zM73 0v500h82v-500h-82zM208 -202v72q18 -3 34 -3q59 0 59 67v566h82v-566q0 -68 -32.5 -104t-96.5 -36q-23 0 -46 4z " />
<glyph unicode="&#x134;" horiz-adv-x="552" d="M480 915l107 -140h-76l-79 103l-79 -103h-76l107 140h96zM249 68q74 0 107 46t33 116v470h85v-470q0 -48 -11.5 -89.5t-36.5 -76.5t-70.5 -55t-106.5 -20t-106.5 20t-70.5 55t-36.5 76.5t-11.5 89.5v50h85v-50q0 -70 33 -116t107 -46z" />
<glyph unicode="&#x135;" horiz-adv-x="228" d="M162 715l107 -140h-76l-79 103l-79 -103h-76l107 140h96zM-20 -202v72q18 -3 34 -3q59 0 59 67v566h82v-566q0 -68 -32.5 -104t-96.5 -36q-23 0 -46 4z" />
<glyph unicode="&#x136;" horiz-adv-x="615" d="M173 700v-342l318 342h111l-325 -350l340 -350h-114l-330 340v-340h-85v700h85zM289 -219l26 144h76l-42 -144h-60z" />
<glyph unicode="&#x137;" horiz-adv-x="517" d="M155 700v-442l234 242h105l-242 -250l257 -250h-110l-244 240v-240h-82v700h82zM227 -219l26 144h76l-42 -144h-60z" />
<glyph unicode="&#x138;" horiz-adv-x="517" d="M155 500v-242l234 242h105l-242 -250l257 -250h-110l-244 240v-240h-82v500h82z" />
<glyph unicode="&#x139;" horiz-adv-x="548" d="M281 915l-119 -140h-62l81 140h100zM173 700v-622h365v-78h-450v700h85z" />
<glyph unicode="&#x13a;" horiz-adv-x="228" d="M264 915l-119 -140h-62l81 140h100zM73 0v700h82v-700h-82z" />
<glyph unicode="&#x13b;" horiz-adv-x="548" d="M173 700v-622h365v-78h-450v700h85zM249 -219l26 144h76l-42 -144h-60z" />
<glyph unicode="&#x13c;" horiz-adv-x="228" d="M73 0v700h82v-700h-82zM50 -219l26 144h76l-42 -144h-60z" />
<glyph unicode="&#x13d;" horiz-adv-x="548" d="M173 700v-622h365v-78h-450v700h85zM426 700l-79 -140h-62l41 140h100z" />
<glyph unicode="&#x13e;" horiz-adv-x="356" d="M73 0v700h82v-700h-82zM368 700l-79 -140h-62l41 140h100z" />
<glyph unicode="&#x13f;" horiz-adv-x="548" d="M173 700v-622h365v-78h-450v700h85zM306 389q0 21 14.5 35.5t35.5 14.5t35.5 -14.5t14.5 -35.5t-14.5 -35.5t-35.5 -14.5t-35.5 14.5t-14.5 35.5z" />
<glyph unicode="&#x140;" horiz-adv-x="311" d="M73 0v700h82v-700h-82zM212 350q0 21 14.5 35.5t35.5 14.5t35.5 -14.5t14.5 -35.5t-14.5 -35.5t-35.5 -14.5t-35.5 14.5t-14.5 35.5z" />
<glyph unicode="&#x141;" horiz-adv-x="599" d="M24 257l115 81v362h85v-303l131 92l29 -45l-160 -112v-254h365v-78h-450v272l-86 -60z" />
<glyph unicode="&#x142;" horiz-adv-x="338" d="M128 0v289l-89 -62l-29 44l118 82v347h82v-289l89 62l29 -44l-118 -82v-347h-82z" />
<glyph unicode="&#x143;" horiz-adv-x="746" d="M523 915l-119 -140h-62l81 140h100zM252 700l319 -675h2v675h85v-700h-164l-319 675h-2v-675h-85v700h164z" />
<glyph unicode="&#x144;" horiz-adv-x="566" d="M436 715l-119 -140h-62l81 140h100zM498 0h-82v302q0 70 -25 102t-85 32q-67 0 -109 -44t-42 -121v-271h-82v500h82v-77q24 42 67 65t95 23q181 0 181 -207v-304z" />
<glyph unicode="&#x145;" horiz-adv-x="746" d="M252 700l319 -675h2v675h85v-700h-164l-319 675h-2v-675h-85v700h164zM309 -219l26 144h76l-42 -144h-60z" />
<glyph unicode="&#x146;" horiz-adv-x="566" d="M498 0h-82v302q0 70 -25 102t-85 32q-67 0 -109 -44t-42 -121v-271h-82v500h82v-77q24 42 67 65t95 23q181 0 181 -207v-304zM222 -219l26 144h76l-42 -144h-60z" />
<glyph unicode="&#x147;" horiz-adv-x="746" d="M452 915h76l-107 -140h-96l-107 140h76l79 -103zM252 700l319 -675h2v675h85v-700h-164l-319 675h-2v-675h-85v700h164z" />
<glyph unicode="&#x148;" horiz-adv-x="566" d="M365 715h76l-107 -140h-96l-107 140h76l79 -103zM498 0h-82v302q0 70 -25 102t-85 32q-67 0 -109 -44t-42 -121v-271h-82v500h82v-77q24 42 67 65t95 23q181 0 181 -207v-304z" />
<glyph unicode="&#x149;" horiz-adv-x="566" d="M144 700l-79 -140h-62l41 140h100zM498 0h-82v302q0 70 -25 102t-85 32q-67 0 -109 -44t-42 -121v-271h-82v500h82v-77q24 42 67 65t95 23q181 0 181 -207v-304z" />
<glyph unicode="&#x14a;" horiz-adv-x="746" d="M573 -61v61h-79l-319 675h-2v-675h-85v700h164l319 -675h2v675h85v-766q0 -68 -32.5 -104t-96.5 -36q-27 0 -49 5v76q18 -3 34 -3q59 0 59 67z" />
<glyph unicode="&#x14b;" horiz-adv-x="566" d="M323 -202v72q18 -3 34 -3q59 0 59 67v368q0 70 -25 102t-85 32q-67 0 -109 -44t-42 -121v-271h-82v500h82v-77q24 42 67 65t95 23q181 0 181 -207v-370q0 -68 -32.5 -104t-96.5 -36q-23 0 -46 4z" />
<glyph unicode="&#x14c;" horiz-adv-x="736" d="M508 785h-280v61h280v-61zM40 350q0 71 19.5 134t58 114.5t103 82t147.5 30.5t147.5 -30.5t103 -82t58 -114.5t19.5 -134t-19.5 -134t-58 -114.5t-103 -82t-147.5 -30.5t-147.5 30.5t-103 82t-58 114.5t-19.5 134zM611 350q0 55 -14 104t-42.5 89.5t-76.5 64.5t-110 24 t-110 -24t-76.5 -64.5t-42.5 -89.5t-14 -104t14 -104t42.5 -89.5t76.5 -64.5t110 -24t110 24t76.5 64.5t42.5 89.5t14 104z" />
<glyph unicode="&#x14d;" horiz-adv-x="576" d="M428 585h-280v61h280v-61zM42 250q0 108 62.5 184.5t183.5 76.5t183.5 -76.5t62.5 -184.5t-62.5 -184.5t-183.5 -76.5t-183.5 76.5t-62.5 184.5zM452 250q0 78 -41.5 132t-122.5 54t-122.5 -54t-41.5 -132t41.5 -132t122.5 -54t122.5 54t41.5 132z" />
<glyph unicode="&#x14e;" horiz-adv-x="736" d="M611 350q0 55 -14 104t-42.5 89.5t-76.5 64.5t-110 24t-110 -24t-76.5 -64.5t-42.5 -89.5t-14 -104t14 -104t42.5 -89.5t76.5 -64.5t110 -24t110 24t76.5 64.5t42.5 89.5t14 104zM40 350q0 71 19.5 134t58 114.5t103 82t147.5 30.5t147.5 -30.5t103 -82t58 -114.5 t19.5 -134t-19.5 -134t-58 -114.5t-103 -82t-147.5 -30.5t-147.5 30.5t-103 82t-58 114.5t-19.5 134zM214 915h63q0 -37 24.5 -60t66.5 -23t66.5 23t24.5 60h63q0 -62 -41.5 -101t-112.5 -39t-112.5 39t-41.5 101z" />
<glyph unicode="&#x14f;" horiz-adv-x="576" d="M452 250q0 78 -41.5 132t-122.5 54t-122.5 -54t-41.5 -132t41.5 -132t122.5 -54t122.5 54t41.5 132zM42 250q0 108 62.5 184.5t183.5 76.5t183.5 -76.5t62.5 -184.5t-62.5 -184.5t-183.5 -76.5t-183.5 76.5t-62.5 184.5zM134 715h63q0 -37 24.5 -60t66.5 -23t66.5 23 t24.5 60h63q0 -62 -41.5 -101t-112.5 -39t-112.5 39t-41.5 101z" />
<glyph unicode="&#x150;" horiz-adv-x="736" d="M426 915l-109 -140h-62l71 140h100zM590 915l-109 -140h-62l71 140h100zM40 350q0 71 19.5 134t58 114.5t103 82t147.5 30.5t147.5 -30.5t103 -82t58 -114.5t19.5 -134t-19.5 -134t-58 -114.5t-103 -82t-147.5 -30.5t-147.5 30.5t-103 82t-58 114.5t-19.5 134zM611 350 q0 55 -14 104t-42.5 89.5t-76.5 64.5t-110 24t-110 -24t-76.5 -64.5t-42.5 -89.5t-14 -104t14 -104t42.5 -89.5t76.5 -64.5t110 -24t110 24t76.5 64.5t42.5 89.5t14 104z" />
<glyph unicode="&#x151;" horiz-adv-x="576" d="M346 715l-109 -140h-62l71 140h100zM510 715l-109 -140h-62l71 140h100zM42 250q0 108 62.5 184.5t183.5 76.5t183.5 -76.5t62.5 -184.5t-62.5 -184.5t-183.5 -76.5t-183.5 76.5t-62.5 184.5zM452 250q0 78 -41.5 132t-122.5 54t-122.5 -54t-41.5 -132t41.5 -132 t122.5 -54t122.5 54t41.5 132z" />
<glyph unicode="&#x152;" horiz-adv-x="949" d="M362 78h67v544h-67q-117 0 -176.5 -79.5t-59.5 -192.5t59.5 -192.5t176.5 -79.5zM362 700h526v-78h-373v-229h349v-76h-349v-239h385v-78h-538q-82 0 -145.5 29.5t-101 80t-56.5 111.5t-19 129t19 129t56.5 111.5t101 80t145.5 29.5z" />
<glyph unicode="&#x153;" horiz-adv-x="966" d="M452 250q0 78 -41.5 132t-122.5 54t-122.5 -54t-41.5 -132t41.5 -132t122.5 -54t122.5 54t41.5 132zM538 295h300q-11 62 -48.5 101.5t-101.5 39.5t-101.5 -39.5t-48.5 -101.5zM42 250q0 108 62.5 184.5t183.5 76.5q139 0 204 -104q63 104 196 104q116 0 176 -76.5 t60 -184.5v-25h-389q6 -69 44.5 -115t108.5 -46q107 0 138 81h86q-43 -156 -224 -156q-133 0 -196 104q-65 -104 -204 -104q-121 0 -183.5 76.5t-62.5 184.5z" />
<glyph unicode="&#x154;" horiz-adv-x="665" d="M373 622h-200v-280h200q61 0 100.5 39.5t39.5 100.5t-39.5 100.5t-100.5 39.5zM173 265v-265h-85v700h286q97 0 160.5 -61.5t63.5 -156.5q0 -78 -45 -135t-119 -75l175 -272h-99l-170 265h-167zM391 915h100l-119 -140h-62z" />
<glyph unicode="&#x155;" horiz-adv-x="347" d="M354 715l-119 -140h-62l81 140h100zM73 0v500h82v-78h2q16 38 59 63.5t97 25.5h21v-78q-4 1 -29 1q-60 0 -105 -47t-45 -117v-270h-82z" />
<glyph unicode="&#x156;" horiz-adv-x="665" d="M373 622h-200v-280h200q61 0 100.5 39.5t39.5 100.5t-39.5 100.5t-100.5 39.5zM173 265v-265h-85v700h286q97 0 160.5 -61.5t63.5 -156.5q0 -78 -45 -135t-119 -75l175 -272h-99l-170 265h-167zM345 -219h-60l26 144h76z" />
<glyph unicode="&#x157;" horiz-adv-x="347" d="M73 0v500h82v-78h2q16 38 59 63.5t97 25.5h21v-78q-4 1 -29 1q-60 0 -105 -47t-45 -117v-270h-82zM50 -219l26 144h76l-42 -144h-60z" />
<glyph unicode="&#x158;" horiz-adv-x="665" d="M373 622h-200v-280h200q61 0 100.5 39.5t39.5 100.5t-39.5 100.5t-100.5 39.5zM173 265v-265h-85v700h286q97 0 160.5 -61.5t63.5 -156.5q0 -78 -45 -135t-119 -75l175 -272h-99l-170 265h-167zM341 812l79 103h76l-107 -140h-96l-107 140h76z" />
<glyph unicode="&#x159;" horiz-adv-x="347" d="M283 715h76l-107 -140h-96l-107 140h76l79 -103zM73 0v500h82v-78h2q16 38 59 63.5t97 25.5h21v-78q-4 1 -29 1q-60 0 -105 -47t-45 -117v-270h-82z" />
<glyph unicode="&#x15a;" horiz-adv-x="614" d="M454 915l-119 -140h-62l81 140h100zM42 199h85q6 -65 57 -99t123 -34q74 0 127 32t53 95q0 39 -23.5 63.5t-61.5 35t-83.5 18t-91 18t-83.5 28.5t-61.5 56t-23.5 94q0 101 71 153t174 52q100 0 169 -53.5t76 -156.5h-85q-6 66 -50 99.5t-110 33.5q-68 0 -114 -32t-46 -95 q0 -38 23.5 -61.5t61.5 -34t83.5 -17.5t91 -18t83.5 -29t61.5 -57t23.5 -96q0 -68 -39.5 -116t-97.5 -68.5t-128 -20.5q-107 0 -182.5 54t-82.5 156z" />
<glyph unicode="&#x15b;" horiz-adv-x="480" d="M387 715l-119 -140h-62l81 140h100zM40 145h82q4 -41 37 -63t80 -22q50 0 84.5 20t34.5 59q0 28 -22.5 45t-57 22.5t-74 14.5t-74 20.5t-57 41.5t-22.5 77q0 75 54 113t132 38q77 0 129 -39.5t58 -115.5h-82q-4 42 -32.5 63t-72.5 21t-74 -18.5t-30 -57.5 q0 -28 22.5 -44.5t57 -21.5t74 -14t74 -20.5t57 -42t22.5 -78.5q0 -75 -58.5 -114.5t-142.5 -39.5q-80 0 -137 40t-62 116z" />
<glyph unicode="&#x15c;" horiz-adv-x="614" d="M352 915l107 -140h-76l-79 103l-79 -103h-76l107 140h96zM42 199h85q6 -65 57 -99t123 -34q74 0 127 32t53 95q0 39 -23.5 63.5t-61.5 35t-83.5 18t-91 18t-83.5 28.5t-61.5 56t-23.5 94q0 101 71 153t174 52q100 0 169 -53.5t76 -156.5h-85q-6 66 -50 99.5t-110 33.5 q-68 0 -114 -32t-46 -95q0 -38 23.5 -61.5t61.5 -34t83.5 -17.5t91 -18t83.5 -29t61.5 -57t23.5 -96q0 -68 -39.5 -116t-97.5 -68.5t-128 -20.5q-107 0 -182.5 54t-82.5 156z" />
<glyph unicode="&#x15d;" horiz-adv-x="480" d="M285 715l107 -140h-76l-79 103l-79 -103h-76l107 140h96zM40 145h82q4 -41 37 -63t80 -22q50 0 84.5 20t34.5 59q0 28 -22.5 45t-57 22.5t-74 14.5t-74 20.5t-57 41.5t-22.5 77q0 75 54 113t132 38q77 0 129 -39.5t58 -115.5h-82q-4 42 -32.5 63t-72.5 21t-74 -18.5 t-30 -57.5q0 -28 22.5 -44.5t57 -21.5t74 -14t74 -20.5t57 -42t22.5 -78.5q0 -75 -58.5 -114.5t-142.5 -39.5q-80 0 -137 40t-62 116z" />
<glyph unicode="&#x15e;" horiz-adv-x="614" d="M42 199h85q6 -65 57 -99t123 -34q74 0 127 32t53 95q0 39 -23.5 63.5t-61.5 35t-83.5 18t-91 18t-83.5 28.5t-61.5 56t-23.5 94q0 101 71 153t174 52q100 0 169 -53.5t76 -156.5h-85q-6 66 -50 99.5t-110 33.5q-68 0 -114 -32t-46 -95q0 -38 23.5 -61.5t61.5 -34 t83.5 -17.5t91 -18t83.5 -29t61.5 -57t23.5 -96q0 -95 -70.5 -147t-173.5 -57l-11 -29h18q46 0 74 -24t28 -64q0 -46 -34.5 -74.5t-92.5 -28.5q-36 0 -82 16v56q42 -18 77 -18q33 0 52.5 14t19.5 37q0 43 -56 43h-44l-15 25l18 47q-98 6 -165 59.5t-73 149.5z" />
<glyph unicode="&#x15f;" horiz-adv-x="480" d="M40 145h82q4 -41 37 -63t80 -22q50 0 84.5 20t34.5 59q0 28 -22.5 45t-57 22.5t-74 14.5t-74 20.5t-57 41.5t-22.5 77q0 75 54 113t132 38q77 0 129 -39.5t58 -115.5h-82q-4 42 -32.5 63t-72.5 21t-74 -18.5t-30 -57.5q0 -28 22.5 -44.5t57 -21.5t74 -14t74 -20.5t57 -42 t22.5 -78.5q0 -71 -51.5 -109.5t-128.5 -43.5l-11 -29h18q46 0 74 -24t28 -64q0 -46 -34.5 -74.5t-92.5 -28.5q-36 0 -82 16v56q42 -18 77 -18q33 0 52.5 14t19.5 37q0 43 -56 43h-44l-15 25l18 47q-71 6 -119.5 46t-52.5 109z" />
<glyph unicode="&#x160;" horiz-adv-x="614" d="M383 915h76l-107 -140h-96l-107 140h76l79 -103zM42 199h85q6 -65 57 -99t123 -34q74 0 127 32t53 95q0 39 -23.5 63.5t-61.5 35t-83.5 18t-91 18t-83.5 28.5t-61.5 56t-23.5 94q0 101 71 153t174 52q100 0 169 -53.5t76 -156.5h-85q-6 66 -50 99.5t-110 33.5 q-68 0 -114 -32t-46 -95q0 -38 23.5 -61.5t61.5 -34t83.5 -17.5t91 -18t83.5 -29t61.5 -57t23.5 -96q0 -68 -39.5 -116t-97.5 -68.5t-128 -20.5q-107 0 -182.5 54t-82.5 156z" />
<glyph unicode="&#x161;" horiz-adv-x="480" d="M316 715h76l-107 -140h-96l-107 140h76l79 -103zM40 145h82q4 -41 37 -63t80 -22q50 0 84.5 20t34.5 59q0 28 -22.5 45t-57 22.5t-74 14.5t-74 20.5t-57 41.5t-22.5 77q0 75 54 113t132 38q77 0 129 -39.5t58 -115.5h-82q-4 42 -32.5 63t-72.5 21t-74 -18.5t-30 -57.5 q0 -28 22.5 -44.5t57 -21.5t74 -14t74 -20.5t57 -42t22.5 -78.5q0 -75 -58.5 -114.5t-142.5 -39.5q-80 0 -137 40t-62 116z" />
<glyph unicode="&#x162;" horiz-adv-x="573" d="M329 622v-622h-17l-15 -39h18q46 0 74 -24t28 -64q0 -46 -34.5 -74.5t-92.5 -28.5q-36 0 -82 16v56q42 -18 77 -18q33 0 52.5 14t19.5 37q0 43 -56 43h-44l-15 25l22 57h-20v622h-223v78h531v-78h-223z" />
<glyph unicode="&#x163;" horiz-adv-x="376" d="M328 4q-42 -15 -90 -15q-16 0 -31 3l-12 -31h18q46 0 74 -24t28 -64q0 -46 -34.5 -74.5t-92.5 -28.5q-36 0 -82 16v56q42 -18 77 -18q33 0 52.5 14t19.5 37q0 43 -56 43h-44l-15 25l25 64q-56 33 -56 122v302h-91v69h91v140h82v-140h137v-69h-137v-302q0 -67 59 -67 q42 0 78 15v-73z" />
<glyph unicode="&#x164;" horiz-adv-x="573" d="M366 915h76l-107 -140h-96l-107 140h76l79 -103zM329 622v-622h-85v622h-223v78h531v-78h-223z" />
<glyph unicode="&#x165;" horiz-adv-x="393" d="M418 700l-79 -140h-62l41 140h100zM328 4q-42 -15 -90 -15q-64 0 -96.5 36t-32.5 104v302h-91v69h91v140h82v-140h137v-69h-137v-302q0 -67 59 -67q42 0 78 15v-73z" />
<glyph unicode="&#x166;" horiz-adv-x="573" d="M469 315h-140v-315h-85v315h-140v70h140v237h-223v78h531v-78h-223v-237h140v-70z" />
<glyph unicode="&#x167;" horiz-adv-x="376" d="M328 4q-42 -15 -90 -15q-64 0 -96.5 36t-32.5 104v123h-79v66h79v113h-91v69h91v140h82v-140h137v-69h-137v-113h125v-66h-125v-123q0 -67 59 -67q42 0 78 15v-73z" />
<glyph unicode="&#x168;" horiz-adv-x="716" d="M258 776h-50q2 41 25 69t65 28q21 0 62 -11.5t61 -11.5q32 0 37 36h50q-2 -41 -25 -69t-65 -28q-21 0 -62 11.5t-61 11.5q-32 0 -37 -36zM553 276v424h85v-431q0 -51 -13.5 -97t-43.5 -89t-87.5 -68.5t-135.5 -25.5t-135.5 25.5t-87.5 68.5t-43.5 89t-13.5 97v431h85 v-424q0 -39 9.5 -74t31 -66.5t61 -50t93.5 -18.5t93.5 18.5t61 50t31 66.5t9.5 74z" />
<glyph unicode="&#x169;" horiz-adv-x="566" d="M181 576h-50q2 41 25 69t65 28q21 0 62 -11.5t61 -11.5q32 0 37 36h50q-2 -41 -25 -69t-65 -28q-21 0 -62 11.5t-61 11.5q-32 0 -37 -36zM68 500h82v-302q0 -70 25 -102t85 -32q67 0 109 44t42 121v271h82v-500h-82v77q-24 -42 -67 -65t-95 -23q-181 0 -181 207v304z" />
<glyph unicode="&#x16a;" horiz-adv-x="716" d="M498 785h-280v61h280v-61zM553 276v424h85v-431q0 -51 -13.5 -97t-43.5 -89t-87.5 -68.5t-135.5 -25.5t-135.5 25.5t-87.5 68.5t-43.5 89t-13.5 97v431h85v-424q0 -39 9.5 -74t31 -66.5t61 -50t93.5 -18.5t93.5 18.5t61 50t31 66.5t9.5 74z" />
<glyph unicode="&#x16b;" horiz-adv-x="566" d="M421 585h-280v61h280v-61zM68 500h82v-302q0 -70 25 -102t85 -32q67 0 109 44t42 121v271h82v-500h-82v77q-24 -42 -67 -65t-95 -23q-181 0 -181 207v304z" />
<glyph unicode="&#x16c;" horiz-adv-x="716" d="M204 915h63q0 -37 24.5 -60t66.5 -23t66.5 23t24.5 60h63q0 -62 -41.5 -101t-112.5 -39t-112.5 39t-41.5 101zM553 276v424h85v-431q0 -51 -13.5 -97t-43.5 -89t-87.5 -68.5t-135.5 -25.5t-135.5 25.5t-87.5 68.5t-43.5 89t-13.5 97v431h85v-424q0 -39 9.5 -74t31 -66.5 t61 -50t93.5 -18.5t93.5 18.5t61 50t31 66.5t9.5 74z" />
<glyph unicode="&#x16d;" horiz-adv-x="566" d="M127 715h63q0 -37 24.5 -60t66.5 -23t66.5 23t24.5 60h63q0 -62 -41.5 -101t-112.5 -39t-112.5 39t-41.5 101zM68 500h82v-302q0 -70 25 -102t85 -32q67 0 109 44t42 121v271h82v-500h-82v77q-24 -42 -67 -65t-95 -23q-181 0 -181 207v304z" />
<glyph unicode="&#x16e;" horiz-adv-x="716" d="M410 861q0 23 -15 38t-37 15t-37 -15t-15 -38t15 -38t37 -15t37 15t15 38zM553 276v424h85v-431q0 -51 -13.5 -97t-43.5 -89t-87.5 -68.5t-135.5 -25.5t-135.5 25.5t-87.5 68.5t-43.5 89t-13.5 97v431h85v-424q0 -39 9.5 -74t31 -66.5t61 -50t93.5 -18.5t93.5 18.5t61 50 t31 66.5t9.5 74zM255 861q0 43 29 72t74 29t74 -29t29 -72t-29 -72t-74 -29t-74 29t-29 72z" />
<glyph unicode="&#x16f;" horiz-adv-x="566" d="M333 661q0 23 -15 38t-37 15t-37 -15t-15 -38t15 -38t37 -15t37 15t15 38zM68 196v304h82v-302q0 -70 25 -102t85 -32q67 0 109 44t42 121v271h82v-500h-82v77q-24 -42 -67 -65t-95 -23q-181 0 -181 207zM178 661q0 43 29 72t74 29t74 -29t29 -72t-29 -72t-74 -29t-74 29 t-29 72z" />
<glyph unicode="&#x170;" horiz-adv-x="716" d="M416 915l-109 -140h-62l71 140h100zM580 915l-109 -140h-62l71 140h100zM553 276v424h85v-431q0 -51 -13.5 -97t-43.5 -89t-87.5 -68.5t-135.5 -25.5t-135.5 25.5t-87.5 68.5t-43.5 89t-13.5 97v431h85v-424q0 -39 9.5 -74t31 -66.5t61 -50t93.5 -18.5t93.5 18.5t61 50 t31 66.5t9.5 74z" />
<glyph unicode="&#x171;" horiz-adv-x="566" d="M339 715l-109 -140h-62l71 140h100zM503 715l-109 -140h-62l71 140h100zM68 500h82v-302q0 -70 25 -102t85 -32q67 0 109 44t42 121v271h82v-500h-82v77q-24 -42 -67 -65t-95 -23q-181 0 -181 207v304z" />
<glyph unicode="&#x172;" horiz-adv-x="716" d="M553 276v424h85v-431q0 -49 -12.5 -94t-40.5 -87t-81 -68.5t-125 -30.5q-70 -63 -70 -121q0 -44 41 -44q24 0 41 8v-51q-20 -11 -53 -11q-41 0 -67.5 24.5t-26.5 65.5q0 71 72 131q-66 7 -114.5 34.5t-74.5 68.5t-37.5 84.5t-11.5 90.5v431h85v-424q0 -39 9.5 -74 t31 -66.5t61 -50t93.5 -18.5t93.5 18.5t61 50t31 66.5t9.5 74z" />
<glyph unicode="&#x173;" horiz-adv-x="566" d="M68 500h82v-302q0 -70 25 -102t85 -32q67 0 109 44t42 121v271h82v-500q-30 -24 -56 -60.5t-26 -71.5q0 -44 41 -44q24 0 41 8v-51q-20 -11 -53 -11q-41 0 -67.5 24.5t-26.5 65.5q0 77 83 140h-18v77q-24 -42 -67 -65t-95 -23q-181 0 -181 207v304z" />
<glyph unicode="&#x174;" horiz-adv-x="980" d="M538 915l107 -140h-76l-79 103l-79 -103h-76l107 140h96zM111 700l158 -675h2l143 675h152l143 -675h2l158 675h88l-171 -700h-152l-143 675h-2l-143 -675h-152l-171 700h88z" />
<glyph unicode="&#x175;" horiz-adv-x="778" d="M437 715l107 -140h-76l-79 103l-79 -103h-76l107 140h96zM108 500l114 -480h2l94 480h142l94 -480h2l114 480h84l-126 -500h-144l-94 480h-2l-94 -480h-144l-126 500h84z" />
<glyph unicode="&#x176;" horiz-adv-x="613" d="M355 915l107 -140h-76l-79 103l-79 -103h-76l107 140h96zM233 280l-218 420h93l198 -395h1l198 395h93l-218 -420h-31v-280h-85v280h-31z" />
<glyph unicode="&#x177;" horiz-adv-x="520" d="M308 715l107 -140h-76l-79 103l-79 -103h-76l107 140h96zM506 500l-230 -695h-86l64 195h-70l-170 500h86l159 -480h2l159 480h86z" />
<glyph unicode="&#x178;" horiz-adv-x="613" d="M166 830q0 21 14.5 35.5t35.5 14.5t35.5 -14.5t14.5 -35.5t-14.5 -35.5t-35.5 -14.5t-35.5 14.5t-14.5 35.5zM348 830q0 21 14.5 35.5t35.5 14.5t35.5 -14.5t14.5 -35.5t-14.5 -35.5t-35.5 -14.5t-35.5 14.5t-14.5 35.5zM233 280l-218 420h93l198 -395h1l198 395h93 l-218 -420h-31v-280h-85v280h-31z" />
<glyph unicode="&#x179;" horiz-adv-x="590" d="M445 915l-119 -140h-62l81 140h100zM549 700v-90l-417 -532h423v-78h-520v90l417 532h-406v78h503z" />
<glyph unicode="&#x17a;" horiz-adv-x="478" d="M389 715l-119 -140h-62l81 140h100zM429 500v-75l-284 -350h289v-75h-390v75l284 350h-270v75h371z" />
<glyph unicode="&#x17b;" horiz-adv-x="590" d="M245 831q0 21 14.5 35.5t35.5 14.5t35.5 -14.5t14.5 -35.5t-14.5 -35.5t-35.5 -14.5t-35.5 14.5t-14.5 35.5zM549 700v-90l-417 -532h423v-78h-520v90l417 532h-406v78h503z" />
<glyph unicode="&#x17c;" horiz-adv-x="478" d="M189 631q0 21 14.5 35.5t35.5 14.5t35.5 -14.5t14.5 -35.5t-14.5 -35.5t-35.5 -14.5t-35.5 14.5t-14.5 35.5zM429 500v-75l-284 -350h289v-75h-390v75l284 350h-270v75h371z" />
<glyph unicode="&#x17d;" horiz-adv-x="590" d="M374 915h76l-107 -140h-96l-107 140h76l79 -103zM549 700v-90l-417 -532h423v-78h-520v90l417 532h-406v78h503z" />
<glyph unicode="&#x17e;" horiz-adv-x="478" d="M318 715h76l-107 -140h-96l-107 140h76l79 -103zM429 500v-75l-284 -350h289v-75h-390v75l284 350h-270v75h371z" />
<glyph unicode="&#x17f;" horiz-adv-x="343" d="M18 500h91v81q0 68 32.5 104t96.5 36q48 0 90 -15v-73q-36 15 -78 15q-59 0 -59 -67v-581h-82v431h-91v69z" />
<glyph unicode="&#x186;" horiz-adv-x="707" d="M339 68q62 0 110 24t76.5 64.5t42.5 89.5t14 104t-14 104t-42.5 89.5t-76.5 64.5t-110 24q-173 0 -213 -175h-86q21 115 94.5 184.5t204.5 69.5q83 0 147.5 -30.5t103 -82t58 -114.5t19.5 -134t-19.5 -134t-58 -114.5t-103 -82t-147.5 -30.5q-131 0 -204.5 69.5 t-94.5 184.5h86q40 -175 213 -175z" />
<glyph unicode="&#x189;" horiz-adv-x="708" d="M108 700h239q82 0 145 -29.5t100.5 -80t56.5 -111.5t19 -129t-19 -129t-56.5 -111.5t-100.5 -80t-145 -29.5h-239v316h-75v69h75v315zM193 78h154q117 0 176.5 79.5t59.5 192.5t-59.5 192.5t-176.5 79.5h-154v-237h180v-69h-180v-238z" />
<glyph unicode="&#x18e;" d="M434 317h-349v76h349v229h-373v78h458v-700h-470v78h385v239z" />
<glyph unicode="&#x18f;" horiz-adv-x="716" d="M585 280h-456q27 -212 219 -212q101 0 161 59.5t76 152.5zM676 350q0 -71 -19.5 -134t-58 -114.5t-103 -82t-147.5 -30.5t-144.5 29t-96 80t-51 114t-16.5 138h551q0 55 -14 104t-42.5 89.5t-76.5 64.5t-110 24q-175 0 -213 -175h-86q21 116 94 185t205 69 q83 0 147.5 -30.5t103 -82t58 -114.5t19.5 -134z" />
<glyph unicode="&#x190;" horiz-adv-x="614" d="M307 312q-76 0 -128 -28.5t-52 -90.5q0 -63 53 -95t127 -32q72 0 123 34t57 99h85q-7 -102 -82.5 -156t-182.5 -54q-70 0 -128 20.5t-97.5 68.5t-39.5 116q0 114 115 160q-91 47 -91 152q0 101 71 153t173 52q100 0 169 -53.5t76 -156.5h-85q-6 66 -50 99.5t-110 33.5 q-68 0 -113.5 -32t-45.5 -95q0 -62 44.5 -90t114.5 -28h70v-77h-73z" />
<glyph unicode="&#x192;" horiz-adv-x="532" d="M256 -66q-22 -140 -155 -140q-45 0 -85 15l12 74q32 -15 72 -15q32 0 49.5 15.5t23.5 50.5l62 382h-108v69h119l30 186q22 140 155 140q45 0 85 -15l-12 -74q-32 15 -72 15q-32 0 -49.5 -15.5t-23.5 -50.5l-30 -186h108v-69h-119z" />
<glyph unicode="&#x197;" horiz-adv-x="301" d="M108 0v316h-75v69h75v315h85v-315h75v-69h-75v-316h-85z" />
<glyph unicode="&#x19d;" horiz-adv-x="746" d="M88 700h164l319 -675h2v675h85v-700h-164l-319 675h-2v-741q0 -68 -32.5 -104t-96.5 -36q-26 0 -49 5v76q18 -3 34 -3q59 0 59 67v761z" />
<glyph unicode="&#x1a0;" horiz-adv-x="736" d="M611 350q0 55 -14 104t-42.5 89.5t-76.5 64.5t-110 24t-110 -24t-76.5 -64.5t-42.5 -89.5t-14 -104t14 -104t42.5 -89.5t76.5 -64.5t110 -24t110 24t76.5 64.5t42.5 89.5t14 104zM40 350q0 71 19.5 134t58 114.5t103 82t147.5 30.5q84 0 149 -31q42 0 61 22t16.5 53 t-7.5 65h68q32 -151 -65 -190q106 -100 106 -280q0 -71 -19.5 -134t-58 -114.5t-103 -82t-147.5 -30.5t-147.5 30.5t-103 82t-58 114.5t-19.5 134z" />
<glyph unicode="&#x1a1;" horiz-adv-x="581" d="M452 250q0 78 -41.5 132t-122.5 54t-122.5 -54t-41.5 -132t41.5 -132t122.5 -54t122.5 54t41.5 132zM42 250q0 108 62.5 184.5t183.5 76.5q75 0 128 -31q42 0 61.5 22t17 53t-7.5 65h68q34 -161 -76 -194q55 -71 55 -176q0 -108 -62.5 -184.5t-183.5 -76.5t-183.5 76.5 t-62.5 184.5z" />
<glyph unicode="&#x1af;" horiz-adv-x="726" d="M553 276v424h43q42 0 62 22t17.5 53t-7.5 65h68q38 -175 -98 -200v-371q0 -51 -13.5 -97t-43.5 -89t-87.5 -68.5t-135.5 -25.5t-135.5 25.5t-87.5 68.5t-43.5 89t-13.5 97v431h85v-424q0 -39 9.5 -74t31 -66.5t61 -50t93.5 -18.5t93.5 18.5t61 50t31 66.5t9.5 74z" />
<glyph unicode="&#x1b0;" horiz-adv-x="586" d="M68 500h82v-302q0 -70 25 -102t85 -32q67 0 109 44t42 121v271h41q42 0 62 22t17.5 53t-7.5 65h68q18 -81 -5.5 -134.5t-93.5 -65.5v-440h-82v77q-24 -42 -67 -65t-95 -23q-181 0 -181 207v304z" />
<glyph unicode="&#x1b5;" horiz-adv-x="590" d="M549 700v-90l-176 -225h141v-69h-195l-187 -238h423v-78h-520v90l177 226h-142v69h196l186 237h-406v78h503z" />
<glyph unicode="&#x1b6;" horiz-adv-x="478" d="M429 500v-75l-115 -142h85v-66h-139l-115 -142h289v-75h-390v75l115 142h-85v66h139l115 142h-270v75h371z" />
<glyph unicode="&#x1c4;" horiz-adv-x="1278" d="M173 78h154q117 0 176.5 79.5t59.5 192.5t-59.5 192.5t-176.5 79.5h-154v-544zM88 700h239q82 0 145 -29.5t100.5 -80t56.5 -111.5t19 -129t-19 -129t-56.5 -111.5t-100.5 -80t-145 -29.5h-239v700zM734 700h503v-90l-417 -532h423v-78h-520v90l417 532h-406v78zM983 812 l79 103h76l-107 -140h-96l-107 140h76z" />
<glyph unicode="&#x1c5;" horiz-adv-x="1166" d="M173 78h154q117 0 176.5 79.5t59.5 192.5t-59.5 192.5t-176.5 79.5h-154v-544zM88 700h239q82 0 145 -29.5t100.5 -80t56.5 -111.5t19 -129t-19 -129t-56.5 -111.5t-100.5 -80t-145 -29.5h-239v700zM746 500h371v-75l-284 -350h289v-75h-390v75l284 350h-270v75zM927 612 l79 103h76l-107 -140h-96l-107 140h76z" />
<glyph unicode="&#x1c6;" horiz-adv-x="1085" d="M452 250q0 78 -41.5 132t-122.5 54t-122.5 -54t-41.5 -132t41.5 -132t122.5 -54t122.5 54t41.5 132zM534 0h-82v67q-61 -78 -174 -78q-62 0 -109 22.5t-73.5 60.5t-40 83t-13.5 95t13.5 95t40 83t73.5 60.5t109 22.5q113 0 174 -78v267h82v-700zM665 500h371v-75 l-284 -350h289v-75h-390v75l284 350h-270v75zM846 612l79 103h76l-107 -140h-96l-107 140h76z" />
<glyph unicode="&#x1c7;" horiz-adv-x="1100" d="M173 700v-622h365v-78h-450v700h85zM797 68q74 0 107 46t33 116v470h85v-470q0 -48 -11.5 -89.5t-36.5 -76.5t-70.5 -55t-106.5 -20t-106.5 20t-70.5 55t-36.5 76.5t-11.5 89.5v50h85v-50q0 -70 33 -116t107 -46z" />
<glyph unicode="&#x1c8;" horiz-adv-x="776" d="M610 664q0 22 15 37t37 15t37 -15t15 -37t-15 -37t-37 -15t-37 15t-15 37zM173 700v-622h365v-78h-450v700h85zM528 -202v72q18 -3 34 -3q59 0 59 67v566h82v-566q0 -68 -32.5 -104t-96.5 -36q-23 0 -46 4z" />
<glyph unicode="&#x1c9;" horiz-adv-x="456" d="M290 664q0 22 15 37t37 15t37 -15t15 -37t-15 -37t-37 -15t-37 15t-15 37zM73 0v700h82v-700h-82zM208 -202v72q18 -3 34 -3q59 0 59 67v566h82v-566q0 -68 -32.5 -104t-96.5 -36q-23 0 -46 4z" />
<glyph unicode="&#x1ca;" horiz-adv-x="1298" d="M252 700l319 -675h2v675h85v-700h-164l-319 675h-2v-675h-85v700h164zM995 68q74 0 107 46t33 116v470h85v-470q0 -48 -11.5 -89.5t-36.5 -76.5t-70.5 -55t-106.5 -20t-106.5 20t-70.5 55t-36.5 76.5t-11.5 89.5v50h85v-50q0 -70 33 -116t107 -46z" />
<glyph unicode="&#x1cb;" horiz-adv-x="974" d="M808 664q0 22 15 37t37 15t37 -15t15 -37t-15 -37t-37 -15t-37 15t-15 37zM252 700l319 -675h2v675h85v-700h-164l-319 675h-2v-675h-85v700h164zM726 -202v72q18 -3 34 -3q59 0 59 67v566h82v-566q0 -68 -32.5 -104t-96.5 -36q-23 0 -46 4z" />
<glyph unicode="&#x1cc;" horiz-adv-x="794" d="M628 664q0 22 15 37t37 15t37 -15t15 -37t-15 -37t-37 -15t-37 15t-15 37zM498 0h-82v302q0 70 -25 102t-85 32q-67 0 -109 -44t-42 -121v-271h-82v500h82v-77q24 42 67 65t95 23q181 0 181 -207v-304zM546 -202v72q18 -3 34 -3q59 0 59 67v566h82v-566q0 -68 -32.5 -104 t-96.5 -36q-23 0 -46 4z" />
<glyph unicode="&#x1cd;" horiz-adv-x="660" d="M329 675l-142 -419h286l-142 419h-2zM101 0h-91l245 700h150l245 -700h-91l-60 178h-338zM330 812l79 103h76l-107 -140h-96l-107 140h76z" />
<glyph unicode="&#x1ce;" d="M452 250q0 78 -41.5 132t-122.5 54t-122.5 -54t-41.5 -132t41.5 -132t122.5 -54t122.5 54t41.5 132zM534 0h-82v67q-61 -78 -174 -78q-62 0 -109 22.5t-73.5 60.5t-40 83t-13.5 95t13.5 95t40 83t73.5 60.5t109 22.5q113 0 174 -78v67h82v-500zM288 612l79 103h76 l-107 -140h-96l-107 140h76z" />
<glyph unicode="&#x1cf;" horiz-adv-x="261" d="M210 915h76l-107 -140h-96l-107 140h76l79 -103zM88 0v700h85v-700h-85z" />
<glyph unicode="&#x1d0;" horiz-adv-x="228" d="M193 715h76l-107 -140h-96l-107 140h76l79 -103zM73 0v500h82v-500h-82z" />
<glyph unicode="&#x1d1;" horiz-adv-x="736" d="M611 350q0 55 -14 104t-42.5 89.5t-76.5 64.5t-110 24t-110 -24t-76.5 -64.5t-42.5 -89.5t-14 -104t14 -104t42.5 -89.5t76.5 -64.5t110 -24t110 24t76.5 64.5t42.5 89.5t14 104zM40 350q0 71 19.5 134t58 114.5t103 82t147.5 30.5t147.5 -30.5t103 -82t58 -114.5 t19.5 -134t-19.5 -134t-58 -114.5t-103 -82t-147.5 -30.5t-147.5 30.5t-103 82t-58 114.5t-19.5 134zM368 812l79 103h76l-107 -140h-96l-107 140h76z" />
<glyph unicode="&#x1d2;" horiz-adv-x="576" d="M452 250q0 78 -41.5 132t-122.5 54t-122.5 -54t-41.5 -132t41.5 -132t122.5 -54t122.5 54t41.5 132zM42 250q0 108 62.5 184.5t183.5 76.5t183.5 -76.5t62.5 -184.5t-62.5 -184.5t-183.5 -76.5t-183.5 76.5t-62.5 184.5zM288 612l79 103h76l-107 -140h-96l-107 140h76z " />
<glyph unicode="&#x1d3;" horiz-adv-x="716" d="M437 915h76l-107 -140h-96l-107 140h76l79 -103zM553 276v424h85v-431q0 -51 -13.5 -97t-43.5 -89t-87.5 -68.5t-135.5 -25.5t-135.5 25.5t-87.5 68.5t-43.5 89t-13.5 97v431h85v-424q0 -39 9.5 -74t31 -66.5t61 -50t93.5 -18.5t93.5 18.5t61 50t31 66.5t9.5 74z" />
<glyph unicode="&#x1d4;" horiz-adv-x="566" d="M360 715h76l-107 -140h-96l-107 140h76l79 -103zM68 500h82v-302q0 -70 25 -102t85 -32q67 0 109 44t42 121v271h82v-500h-82v77q-24 -42 -67 -65t-95 -23q-181 0 -181 207v304z" />
<glyph unicode="&#x1d5;" horiz-adv-x="716" d="M498 785h-280v61h280v-61zM217 660q0 21 14.5 35.5t35.5 14.5t35.5 -14.5t14.5 -35.5t-14.5 -35.5t-35.5 -14.5t-35.5 14.5t-14.5 35.5zM399 660q0 21 14.5 35.5t35.5 14.5t35.5 -14.5t14.5 -35.5t-14.5 -35.5t-35.5 -14.5t-35.5 14.5t-14.5 35.5zM553 276v424h85v-431 q0 -51 -13.5 -97t-43.5 -89t-87.5 -68.5t-135.5 -25.5t-135.5 25.5t-87.5 68.5t-43.5 89t-13.5 97v431h85v-424q0 -39 9.5 -74t31 -66.5t61 -50t93.5 -18.5t93.5 18.5t61 50t31 66.5t9.5 74z" />
<glyph unicode="&#x1d6;" horiz-adv-x="566" d="M421 765h-280v61h280v-61zM140 630q0 21 14.5 35.5t35.5 14.5t35.5 -14.5t14.5 -35.5t-14.5 -35.5t-35.5 -14.5t-35.5 14.5t-14.5 35.5zM322 630q0 21 14.5 35.5t35.5 14.5t35.5 -14.5t14.5 -35.5t-14.5 -35.5t-35.5 -14.5t-35.5 14.5t-14.5 35.5zM68 500h82v-302 q0 -70 25 -102t85 -32q67 0 109 44t42 121v271h82v-500h-82v77q-24 -42 -67 -65t-95 -23q-181 0 -181 207v304z" />
<glyph unicode="&#x1d7;" horiz-adv-x="716" d="M508 915l-119 -140h-62l81 140h100zM217 660q0 21 14.5 35.5t35.5 14.5t35.5 -14.5t14.5 -35.5t-14.5 -35.5t-35.5 -14.5t-35.5 14.5t-14.5 35.5zM399 660q0 21 14.5 35.5t35.5 14.5t35.5 -14.5t14.5 -35.5t-14.5 -35.5t-35.5 -14.5t-35.5 14.5t-14.5 35.5zM553 276v424 h85v-431q0 -51 -13.5 -97t-43.5 -89t-87.5 -68.5t-135.5 -25.5t-135.5 25.5t-87.5 68.5t-43.5 89t-13.5 97v431h85v-424q0 -39 9.5 -74t31 -66.5t61 -50t93.5 -18.5t93.5 18.5t61 50t31 66.5t9.5 74z" />
<glyph unicode="&#x1d8;" horiz-adv-x="566" d="M431 895l-119 -140h-62l81 140h100zM140 630q0 21 14.5 35.5t35.5 14.5t35.5 -14.5t14.5 -35.5t-14.5 -35.5t-35.5 -14.5t-35.5 14.5t-14.5 35.5zM322 630q0 21 14.5 35.5t35.5 14.5t35.5 -14.5t14.5 -35.5t-14.5 -35.5t-35.5 -14.5t-35.5 14.5t-14.5 35.5zM68 500h82 v-302q0 -70 25 -102t85 -32q67 0 109 44t42 121v271h82v-500h-82v77q-24 -42 -67 -65t-95 -23q-181 0 -181 207v304z" />
<glyph unicode="&#x1d9;" horiz-adv-x="716" d="M437 915h76l-107 -140h-96l-107 140h76l79 -103zM217 660q0 21 14.5 35.5t35.5 14.5t35.5 -14.5t14.5 -35.5t-14.5 -35.5t-35.5 -14.5t-35.5 14.5t-14.5 35.5zM399 660q0 21 14.5 35.5t35.5 14.5t35.5 -14.5t14.5 -35.5t-14.5 -35.5t-35.5 -14.5t-35.5 14.5t-14.5 35.5z M553 276v424h85v-431q0 -51 -13.5 -97t-43.5 -89t-87.5 -68.5t-135.5 -25.5t-135.5 25.5t-87.5 68.5t-43.5 89t-13.5 97v431h85v-424q0 -39 9.5 -74t31 -66.5t61 -50t93.5 -18.5t93.5 18.5t61 50t31 66.5t9.5 74z" />
<glyph unicode="&#x1da;" horiz-adv-x="566" d="M360 895h76l-107 -140h-96l-107 140h76l79 -103zM140 630q0 21 14.5 35.5t35.5 14.5t35.5 -14.5t14.5 -35.5t-14.5 -35.5t-35.5 -14.5t-35.5 14.5t-14.5 35.5zM322 630q0 21 14.5 35.5t35.5 14.5t35.5 -14.5t14.5 -35.5t-14.5 -35.5t-35.5 -14.5t-35.5 14.5t-14.5 35.5z M68 500h82v-302q0 -70 25 -102t85 -32q67 0 109 44t42 121v271h82v-500h-82v77q-24 -42 -67 -65t-95 -23q-181 0 -181 207v304z" />
<glyph unicode="&#x1db;" horiz-adv-x="716" d="M208 915h100l81 -140h-62zM217 660q0 21 14.5 35.5t35.5 14.5t35.5 -14.5t14.5 -35.5t-14.5 -35.5t-35.5 -14.5t-35.5 14.5t-14.5 35.5zM399 660q0 21 14.5 35.5t35.5 14.5t35.5 -14.5t14.5 -35.5t-14.5 -35.5t-35.5 -14.5t-35.5 14.5t-14.5 35.5zM553 276v424h85v-431 q0 -51 -13.5 -97t-43.5 -89t-87.5 -68.5t-135.5 -25.5t-135.5 25.5t-87.5 68.5t-43.5 89t-13.5 97v431h85v-424q0 -39 9.5 -74t31 -66.5t61 -50t93.5 -18.5t93.5 18.5t61 50t31 66.5t9.5 74z" />
<glyph unicode="&#x1dc;" horiz-adv-x="566" d="M131 895h100l81 -140h-62zM140 630q0 21 14.5 35.5t35.5 14.5t35.5 -14.5t14.5 -35.5t-14.5 -35.5t-35.5 -14.5t-35.5 14.5t-14.5 35.5zM322 630q0 21 14.5 35.5t35.5 14.5t35.5 -14.5t14.5 -35.5t-14.5 -35.5t-35.5 -14.5t-35.5 14.5t-14.5 35.5zM68 500h82v-302 q0 -70 25 -102t85 -32q67 0 109 44t42 121v271h82v-500h-82v77q-24 -42 -67 -65t-95 -23q-181 0 -181 207v304z" />
<glyph unicode="&#x1de;" horiz-adv-x="660" d="M329 675l-142 -419h286l-142 419h-2zM101 0h-91l245 700h150l245 -700h-91l-60 178h-338zM90 660q0 21 14.5 35.5t35.5 14.5t35.5 -14.5t14.5 -35.5t-14.5 -35.5t-35.5 -14.5t-35.5 14.5t-14.5 35.5zM470 846v-61h-280v61h280zM470 660q0 21 14.5 35.5t35.5 14.5 t35.5 -14.5t14.5 -35.5t-14.5 -35.5t-35.5 -14.5t-35.5 14.5t-14.5 35.5z" />
<glyph unicode="&#x1df;" d="M452 250q0 78 -41.5 132t-122.5 54t-122.5 -54t-41.5 -132t41.5 -132t122.5 -54t122.5 54t41.5 132zM534 0h-82v67q-61 -78 -174 -78q-62 0 -109 22.5t-73.5 60.5t-40 83t-13.5 95t13.5 95t40 83t73.5 60.5t109 22.5q113 0 174 -78v67h82v-500zM147 630q0 21 14.5 35.5 t35.5 14.5t35.5 -14.5t14.5 -35.5t-14.5 -35.5t-35.5 -14.5t-35.5 14.5t-14.5 35.5zM428 826v-61h-280v61h280zM329 630q0 21 14.5 35.5t35.5 14.5t35.5 -14.5t14.5 -35.5t-14.5 -35.5t-35.5 -14.5t-35.5 14.5t-14.5 35.5z" />
<glyph unicode="&#x1e2;" horiz-adv-x="1018" d="M497 675l-240 -419h242v419h-2zM110 0h-100l411 700h536v-78h-373v-229h349v-76h-349v-239h385v-78h-470v178h-287zM682 846v-61h-280v61h280z" />
<glyph unicode="&#x1e3;" horiz-adv-x="965" d="M452 250q0 78 -41.5 132t-122.5 54t-122.5 -54t-41.5 -132t41.5 -132t122.5 -54t122.5 54t41.5 132zM537 295h300q-10 62 -48 101.5t-102 39.5t-102 -39.5t-48 -101.5zM534 0h-82v67q-61 -78 -174 -78q-62 0 -109 22.5t-73.5 60.5t-40 83t-13.5 95t13.5 95t40 83 t73.5 60.5t109 22.5q113 0 174 -78v67h82v-67q54 78 155 78q115 0 174.5 -76.5t59.5 -184.5v-25h-389q7 -70 45 -115.5t108 -45.5q107 0 138 81h86q-20 -73 -75.5 -114.5t-146.5 -41.5q-107 0 -155 78v-67zM633 646v-61h-280v61h280z" />
<glyph unicode="&#x1e6;" horiz-adv-x="748" d="M447 915h76l-107 -140h-96l-107 140h76l79 -103zM40 350q0 71 19.5 134t58 114.5t103 82t147.5 30.5q132 0 205 -69t94 -185h-86q-38 175 -213 175q-62 0 -110 -24t-76.5 -64.5t-42.5 -89.5t-14 -104t14 -104t42.5 -89.5t76.5 -64.5t110 -24q197 0 222 214h-222v75h308 v-357h-55l-18 111q-66 -122 -235 -122q-83 0 -147.5 30.5t-103 82t-58 114.5t-19.5 134z" />
<glyph unicode="&#x1e7;" horiz-adv-x="597" d="M452 250q0 78 -41.5 132t-122.5 54t-122.5 -54t-41.5 -132t41.5 -132t122.5 -54t122.5 54t41.5 132zM452 20v47q-61 -78 -174 -78q-62 0 -109 22.5t-73.5 60.5t-40 83t-13.5 95t13.5 95t40 83t73.5 60.5t109 22.5q113 0 174 -78v67h82v-480q0 -60 -21 -105t-56.5 -70.5 t-78 -38t-90.5 -12.5q-77 0 -139 31.5t-89 96.5h96q41 -53 132 -53q69 0 116.5 37t47.5 114zM288 612l79 103h76l-107 -140h-96l-107 140h76z" />
<glyph unicode="&#x1e8;" horiz-adv-x="615" d="M432 915h76l-107 -140h-96l-107 140h76l79 -103zM173 700v-342l318 342h111l-325 -350l340 -350h-114l-330 340v-340h-85v700h85z" />
<glyph unicode="&#x1e9;" horiz-adv-x="517" d="M193 915h76l-107 -140h-96l-107 140h76l79 -103zM155 700v-442l234 242h105l-242 -250l257 -250h-110l-244 240v-240h-82v700h82z" />
<glyph unicode="&#x1ea;" horiz-adv-x="736" d="M611 350q0 55 -14 104t-42.5 89.5t-76.5 64.5t-110 24t-110 -24t-76.5 -64.5t-42.5 -89.5t-14 -104t14 -104t42.5 -89.5t76.5 -64.5t110 -24t110 24t76.5 64.5t42.5 89.5t14 104zM40 350q0 71 19.5 134t58 114.5t103 82t147.5 30.5t147.5 -30.5t103 -82t58 -114.5 t19.5 -134q0 -145 -78 -248.5t-229 -111.5q-70 -63 -70 -122q0 -44 41 -44q24 0 41 8v-51q-20 -11 -53 -11q-41 0 -67.5 24.5t-26.5 65.5q0 71 72 131q-141 15 -213.5 117.5t-72.5 241.5z" />
<glyph unicode="&#x1eb;" horiz-adv-x="576" d="M452 250q0 78 -41.5 132t-122.5 54t-122.5 -54t-41.5 -132t41.5 -132t122.5 -54t122.5 54t41.5 132zM42 250q0 108 62.5 184.5t183.5 76.5t183.5 -76.5t62.5 -184.5q0 -103 -57 -178t-168 -82q-70 -63 -70 -122q0 -44 41 -44q24 0 41 8v-51q-20 -11 -53 -11 q-41 0 -67.5 24.5t-26.5 65.5q0 72 72 132q-101 13 -152.5 87t-51.5 171z" />
<glyph unicode="&#x1ec;" horiz-adv-x="736" d="M611 350q0 55 -14 104t-42.5 89.5t-76.5 64.5t-110 24t-110 -24t-76.5 -64.5t-42.5 -89.5t-14 -104t14 -104t42.5 -89.5t76.5 -64.5t110 -24t110 24t76.5 64.5t42.5 89.5t14 104zM40 350q0 71 19.5 134t58 114.5t103 82t147.5 30.5t147.5 -30.5t103 -82t58 -114.5 t19.5 -134q0 -145 -78 -248.5t-229 -111.5q-70 -63 -70 -122q0 -44 41 -44q24 0 41 8v-51q-20 -11 -53 -11q-41 0 -67.5 24.5t-26.5 65.5q0 71 72 131q-141 15 -213.5 117.5t-72.5 241.5zM508 846v-61h-280v61h280z" />
<glyph unicode="&#x1ed;" horiz-adv-x="576" d="M452 250q0 78 -41.5 132t-122.5 54t-122.5 -54t-41.5 -132t41.5 -132t122.5 -54t122.5 54t41.5 132zM42 250q0 108 62.5 184.5t183.5 76.5t183.5 -76.5t62.5 -184.5q0 -103 -57 -178t-168 -82q-70 -63 -70 -122q0 -44 41 -44q24 0 41 8v-51q-20 -11 -53 -11 q-41 0 -67.5 24.5t-26.5 65.5q0 72 72 132q-101 13 -152.5 87t-51.5 171zM428 646v-61h-280v61h280z" />
<glyph unicode="&#x1f0;" horiz-adv-x="228" d="M193 715h76l-107 -140h-96l-107 140h76l79 -103zM-20 -202v72q18 -3 34 -3q59 0 59 67v566h82v-566q0 -68 -32.5 -104t-96.5 -36q-23 0 -46 4z" />
<glyph unicode="&#x1f1;" horiz-adv-x="1278" d="M173 78h154q117 0 176.5 79.5t59.5 192.5t-59.5 192.5t-176.5 79.5h-154v-544zM88 700h239q82 0 145 -29.5t100.5 -80t56.5 -111.5t19 -129t-19 -129t-56.5 -111.5t-100.5 -80t-145 -29.5h-239v700zM734 700h503v-90l-417 -532h423v-78h-520v90l417 532h-406v78z" />
<glyph unicode="&#x1f2;" horiz-adv-x="1166" d="M173 78h154q117 0 176.5 79.5t59.5 192.5t-59.5 192.5t-176.5 79.5h-154v-544zM88 700h239q82 0 145 -29.5t100.5 -80t56.5 -111.5t19 -129t-19 -129t-56.5 -111.5t-100.5 -80t-145 -29.5h-239v700zM746 500h371v-75l-284 -350h289v-75h-390v75l284 350h-270v75z" />
<glyph unicode="&#x1f3;" horiz-adv-x="1085" d="M452 250q0 78 -41.5 132t-122.5 54t-122.5 -54t-41.5 -132t41.5 -132t122.5 -54t122.5 54t41.5 132zM534 0h-82v67q-61 -78 -174 -78q-62 0 -109 22.5t-73.5 60.5t-40 83t-13.5 95t13.5 95t40 83t73.5 60.5t109 22.5q113 0 174 -78v267h82v-700zM665 500h371v-75 l-284 -350h289v-75h-390v75l284 350h-270v75z" />
<glyph unicode="&#x1f4;" horiz-adv-x="748" d="M518 915l-119 -140h-62l81 140h100zM40 350q0 71 19.5 134t58 114.5t103 82t147.5 30.5q132 0 205 -69t94 -185h-86q-38 175 -213 175q-62 0 -110 -24t-76.5 -64.5t-42.5 -89.5t-14 -104t14 -104t42.5 -89.5t76.5 -64.5t110 -24q197 0 222 214h-222v75h308v-357h-55 l-18 111q-66 -122 -235 -122q-83 0 -147.5 30.5t-103 82t-58 114.5t-19.5 134z" />
<glyph unicode="&#x1f5;" horiz-adv-x="597" d="M452 250q0 78 -41.5 132t-122.5 54t-122.5 -54t-41.5 -132t41.5 -132t122.5 -54t122.5 54t41.5 132zM452 20v47q-61 -78 -174 -78q-62 0 -109 22.5t-73.5 60.5t-40 83t-13.5 95t13.5 95t40 83t73.5 60.5t109 22.5q113 0 174 -78v67h82v-480q0 -60 -21 -105t-56.5 -70.5 t-78 -38t-90.5 -12.5q-77 0 -139 31.5t-89 96.5h96q41 -53 132 -53q69 0 116.5 37t47.5 114zM338 715h100l-119 -140h-62z" />
<glyph unicode="&#x1f8;" horiz-adv-x="746" d="M223 915h100l81 -140h-62zM252 700l319 -675h2v675h85v-700h-164l-319 675h-2v-675h-85v700h164z" />
<glyph unicode="&#x1f9;" horiz-adv-x="566" d="M136 715h100l81 -140h-62zM498 0h-82v302q0 70 -25 102t-85 32q-67 0 -109 -44t-42 -121v-271h-82v500h82v-77q24 42 67 65t95 23q181 0 181 -207v-304z" />
<glyph unicode="&#x1fa;" horiz-adv-x="660" d="M329 675l-142 -419h286l-142 419h-2zM382 753q0 23 -15 38t-37 15t-37 -15t-15 -38t15 -38t37 -15t37 15t15 38zM433 753q0 -38 -23 -66l240 -687h-91l-60 178h-338l-60 -178h-91l240 687q-23 28 -23 66q0 37 21.5 64t56.5 34l35 119h100l-70 -123q29 -11 46 -36.5 t17 -57.5z" />
<glyph unicode="&#x1fb;" d="M452 250q0 78 -41.5 132t-122.5 54t-122.5 -54t-41.5 -132t41.5 -132t122.5 -54t122.5 54t41.5 132zM340 672q0 23 -15 38t-37 15t-37 -15t-15 -38t15 -38t37 -15t37 15t15 38zM534 0h-82v67q-61 -78 -174 -78q-62 0 -109 22.5t-73.5 60.5t-40 83t-13.5 95t13.5 95t40 83 t73.5 60.5t109 22.5q113 0 174 -78v67h82v-500zM185 672q0 37 21.5 64t56.5 34l35 119h100l-70 -123q29 -11 46 -36.5t17 -57.5q0 -43 -29 -72t-74 -29t-74 29t-29 72z" />
<glyph unicode="&#x1fc;" horiz-adv-x="1018" d="M497 675l-240 -419h242v419h-2zM110 0h-100l411 700h536v-78h-373v-229h349v-76h-349v-239h385v-78h-470v178h-287zM592 915h100l-119 -140h-62z" />
<glyph unicode="&#x1fd;" horiz-adv-x="965" d="M452 250q0 78 -41.5 132t-122.5 54t-122.5 -54t-41.5 -132t41.5 -132t122.5 -54t122.5 54t41.5 132zM537 295h300q-10 62 -48 101.5t-102 39.5t-102 -39.5t-48 -101.5zM534 0h-82v67q-61 -78 -174 -78q-62 0 -109 22.5t-73.5 60.5t-40 83t-13.5 95t13.5 95t40 83 t73.5 60.5t109 22.5q113 0 174 -78v67h82v-67q54 78 155 78q115 0 174.5 -76.5t59.5 -184.5v-25h-389q7 -70 45 -115.5t108 -45.5q107 0 138 81h86q-20 -73 -75.5 -114.5t-146.5 -41.5q-107 0 -155 78v-67zM543 715h100l-119 -140h-62z" />
<glyph unicode="&#x1fe;" horiz-adv-x="736" d="M181 157l337 425q-60 50 -150 50q-62 0 -110 -24t-76.5 -64.5t-42.5 -89.5t-14 -104q0 -116 56 -193zM611 350q0 116 -56 193l-337 -425q60 -50 150 -50q62 0 110 24t76.5 64.5t42.5 89.5t14 104zM649 747l42 -32l-83 -104q88 -101 88 -261q0 -71 -19.5 -134t-58 -114.5 t-103 -82t-147.5 -30.5q-120 0 -202 64l-79 -100l-42 32l83 104q-88 101 -88 261q0 71 19.5 134t58 114.5t103 82t147.5 30.5q120 0 202 -64zM418 915h100l-119 -140h-62z" />
<glyph unicode="&#x1ff;" horiz-adv-x="576" d="M159 127l221 283q-39 26 -92 26q-81 0 -122.5 -54t-41.5 -132q0 -73 35 -123zM452 250q0 73 -35 123l-221 -283q39 -26 92 -26q81 0 122.5 54t41.5 132zM487 546l42 -30l-61 -78q66 -73 66 -188q0 -108 -62.5 -184.5t-183.5 -76.5q-81 0 -141 39l-58 -74l-42 30l61 78 q-66 73 -66 188q0 108 62.5 184.5t183.5 76.5q81 0 141 -39zM338 715h100l-119 -140h-62z" />
<glyph unicode="&#x200;" horiz-adv-x="660" d="M329 675l-142 -419h286l-142 419h-2zM101 0h-91l245 700h150l245 -700h-91l-60 178h-338zM217 775l-109 140h100l71 -140h-62zM381 775l-109 140h100l71 -140h-62z" />
<glyph unicode="&#x201;" d="M452 250q0 78 -41.5 132t-122.5 54t-122.5 -54t-41.5 -132t41.5 -132t122.5 -54t122.5 54t41.5 132zM534 0h-82v67q-61 -78 -174 -78q-62 0 -109 22.5t-73.5 60.5t-40 83t-13.5 95t13.5 95t40 83t73.5 60.5t109 22.5q113 0 174 -78v67h82v-500zM175 575l-109 140h100 l71 -140h-62zM339 575l-109 140h100l71 -140h-62z" />
<glyph unicode="&#x202;" horiz-adv-x="660" d="M329 675l-142 -419h286l-142 419h-2zM101 0h-91l245 700h150l245 -700h-91l-60 178h-338zM239 775h-63q0 62 41.5 101t112.5 39t112.5 -39t41.5 -101h-63q0 37 -24.5 60t-66.5 23t-66.5 -23t-24.5 -60z" />
<glyph unicode="&#x203;" d="M452 250q0 78 -41.5 132t-122.5 54t-122.5 -54t-41.5 -132t41.5 -132t122.5 -54t122.5 54t41.5 132zM534 0h-82v67q-61 -78 -174 -78q-62 0 -109 22.5t-73.5 60.5t-40 83t-13.5 95t13.5 95t40 83t73.5 60.5t109 22.5q113 0 174 -78v67h82v-500zM197 575h-63 q0 62 41.5 101t112.5 39t112.5 -39t41.5 -101h-63q0 37 -24.5 60t-66.5 23t-66.5 -23t-24.5 -60z" />
<glyph unicode="&#x204;" d="M265 915h100l71 -140h-62zM101 915h100l71 -140h-62zM173 317v-239h385v-78h-470v700h458v-78h-373v-229h349v-76h-349z" />
<glyph unicode="&#x205;" horiz-adv-x="556" d="M128 295h300q-11 62 -48.5 101.5t-101.5 39.5t-101.5 -39.5t-48.5 -101.5zM416 145h86q-43 -156 -224 -156q-116 0 -176 76.5t-60 184.5t60 184.5t176 76.5t176 -76.5t60 -184.5v-25h-389q6 -69 44.5 -115t108.5 -46q107 0 138 81zM165 575l-109 140h100l71 -140h-62z M329 575l-109 140h100l71 -140h-62z" />
<glyph unicode="&#x206;" d="M232 775h-63q0 62 41.5 101t112.5 39t112.5 -39t41.5 -101h-63q0 37 -24.5 60t-66.5 23t-66.5 -23t-24.5 -60zM173 317v-239h385v-78h-470v700h458v-78h-373v-229h349v-76h-349z" />
<glyph unicode="&#x207;" horiz-adv-x="556" d="M128 295h300q-11 62 -48.5 101.5t-101.5 39.5t-101.5 -39.5t-48.5 -101.5zM416 145h86q-43 -156 -224 -156q-116 0 -176 76.5t-60 184.5t60 184.5t176 76.5t176 -76.5t60 -184.5v-25h-389q6 -69 44.5 -115t108.5 -46q107 0 138 81zM187 575h-63q0 62 41.5 101t112.5 39 t112.5 -39t41.5 -101h-63q0 37 -24.5 60t-66.5 23t-66.5 -23t-24.5 -60z" />
<glyph unicode="&#x208;" horiz-adv-x="261" d="M73 915h100l71 -140h-62zM-91 915h100l71 -140h-62zM88 0v700h85v-700h-85z" />
<glyph unicode="&#x209;" horiz-adv-x="228" d="M56 715h100l71 -140h-62zM-108 715h100l71 -140h-62zM73 0v500h82v-500h-82z" />
<glyph unicode="&#x20a;" horiz-adv-x="261" d="M40 775h-63q0 62 41.5 101t112.5 39t112.5 -39t41.5 -101h-63q0 37 -24.5 60t-66.5 23t-66.5 -23t-24.5 -60zM88 0v700h85v-700h-85z" />
<glyph unicode="&#x20b;" horiz-adv-x="228" d="M155 0h-82v500h82v-500zM23 791h-63q0 62 41.5 101t112.5 39t112.5 -39t41.5 -101h-63q0 37 -24.5 60t-66.5 23t-66.5 -23t-24.5 -60zM62 664q0 22 15 37t37 15t37 -15t15 -37t-15 -37t-37 -15t-37 15t-15 37z" />
<glyph unicode="&#x20c;" horiz-adv-x="736" d="M310 915h100l71 -140h-62zM146 915h100l71 -140h-62zM40 350q0 71 19.5 134t58 114.5t103 82t147.5 30.5t147.5 -30.5t103 -82t58 -114.5t19.5 -134t-19.5 -134t-58 -114.5t-103 -82t-147.5 -30.5t-147.5 30.5t-103 82t-58 114.5t-19.5 134zM611 350q0 55 -14 104 t-42.5 89.5t-76.5 64.5t-110 24t-110 -24t-76.5 -64.5t-42.5 -89.5t-14 -104t14 -104t42.5 -89.5t76.5 -64.5t110 -24t110 24t76.5 64.5t42.5 89.5t14 104z" />
<glyph unicode="&#x20d;" horiz-adv-x="576" d="M230 715h100l71 -140h-62zM66 715h100l71 -140h-62zM42 250q0 108 62.5 184.5t183.5 76.5t183.5 -76.5t62.5 -184.5t-62.5 -184.5t-183.5 -76.5t-183.5 76.5t-62.5 184.5zM452 250q0 78 -41.5 132t-122.5 54t-122.5 -54t-41.5 -132t41.5 -132t122.5 -54t122.5 54 t41.5 132z" />
<glyph unicode="&#x20e;" horiz-adv-x="736" d="M611 350q0 55 -14 104t-42.5 89.5t-76.5 64.5t-110 24t-110 -24t-76.5 -64.5t-42.5 -89.5t-14 -104t14 -104t42.5 -89.5t76.5 -64.5t110 -24t110 24t76.5 64.5t42.5 89.5t14 104zM40 350q0 71 19.5 134t58 114.5t103 82t147.5 30.5t147.5 -30.5t103 -82t58 -114.5 t19.5 -134t-19.5 -134t-58 -114.5t-103 -82t-147.5 -30.5t-147.5 30.5t-103 82t-58 114.5t-19.5 134zM277 775h-63q0 62 41.5 101t112.5 39t112.5 -39t41.5 -101h-63q0 37 -24.5 60t-66.5 23t-66.5 -23t-24.5 -60z" />
<glyph unicode="&#x20f;" horiz-adv-x="576" d="M452 250q0 78 -41.5 132t-122.5 54t-122.5 -54t-41.5 -132t41.5 -132t122.5 -54t122.5 54t41.5 132zM42 250q0 108 62.5 184.5t183.5 76.5t183.5 -76.5t62.5 -184.5t-62.5 -184.5t-183.5 -76.5t-183.5 76.5t-62.5 184.5zM197 575h-63q0 62 41.5 101t112.5 39t112.5 -39 t41.5 -101h-63q0 37 -24.5 60t-66.5 23t-66.5 -23t-24.5 -60z" />
<glyph unicode="&#x210;" horiz-adv-x="665" d="M373 622h-200v-280h200q61 0 100.5 39.5t39.5 100.5t-39.5 100.5t-100.5 39.5zM173 265v-265h-85v700h286q97 0 160.5 -61.5t63.5 -156.5q0 -78 -45 -135t-119 -75l175 -272h-99l-170 265h-167zM228 775l-109 140h100l71 -140h-62zM392 775l-109 140h100l71 -140h-62z " />
<glyph unicode="&#x211;" horiz-adv-x="347" d="M146 715h100l71 -140h-62zM-18 715h100l71 -140h-62zM73 0v500h82v-78h2q16 38 59 63.5t97 25.5h21v-78q-4 1 -29 1q-60 0 -105 -47t-45 -117v-270h-82z" />
<glyph unicode="&#x212;" horiz-adv-x="665" d="M373 622h-200v-280h200q61 0 100.5 39.5t39.5 100.5t-39.5 100.5t-100.5 39.5zM173 265v-265h-85v700h286q97 0 160.5 -61.5t63.5 -156.5q0 -78 -45 -135t-119 -75l175 -272h-99l-170 265h-167zM250 775h-63q0 62 41.5 101t112.5 39t112.5 -39t41.5 -101h-63 q0 37 -24.5 60t-66.5 23t-66.5 -23t-24.5 -60z" />
<glyph unicode="&#x213;" horiz-adv-x="347" d="M113 575h-63q0 62 41.5 101t112.5 39t112.5 -39t41.5 -101h-63q0 37 -24.5 60t-66.5 23t-66.5 -23t-24.5 -60zM73 0v500h82v-78h2q16 38 59 63.5t97 25.5h21v-78q-4 1 -29 1q-60 0 -105 -47t-45 -117v-270h-82z" />
<glyph unicode="&#x214;" horiz-adv-x="716" d="M300 915h100l71 -140h-62zM136 915h100l71 -140h-62zM553 276v424h85v-431q0 -51 -13.5 -97t-43.5 -89t-87.5 -68.5t-135.5 -25.5t-135.5 25.5t-87.5 68.5t-43.5 89t-13.5 97v431h85v-424q0 -39 9.5 -74t31 -66.5t61 -50t93.5 -18.5t93.5 18.5t61 50t31 66.5t9.5 74z" />
<glyph unicode="&#x215;" horiz-adv-x="566" d="M223 715h100l71 -140h-62zM59 715h100l71 -140h-62zM68 500h82v-302q0 -70 25 -102t85 -32q67 0 109 44t42 121v271h82v-500h-82v77q-24 -42 -67 -65t-95 -23q-181 0 -181 207v304z" />
<glyph unicode="&#x216;" horiz-adv-x="716" d="M267 775h-63q0 62 41.5 101t112.5 39t112.5 -39t41.5 -101h-63q0 37 -24.5 60t-66.5 23t-66.5 -23t-24.5 -60zM553 276v424h85v-431q0 -51 -13.5 -97t-43.5 -89t-87.5 -68.5t-135.5 -25.5t-135.5 25.5t-87.5 68.5t-43.5 89t-13.5 97v431h85v-424q0 -39 9.5 -74t31 -66.5 t61 -50t93.5 -18.5t93.5 18.5t61 50t31 66.5t9.5 74z" />
<glyph unicode="&#x217;" horiz-adv-x="566" d="M190 575h-63q0 62 41.5 101t112.5 39t112.5 -39t41.5 -101h-63q0 37 -24.5 60t-66.5 23t-66.5 -23t-24.5 -60zM68 500h82v-302q0 -70 25 -102t85 -32q67 0 109 44t42 121v271h82v-500h-82v77q-24 -42 -67 -65t-95 -23q-181 0 -181 207v304z" />
<glyph unicode="&#x218;" horiz-adv-x="614" d="M42 199h85q6 -65 57 -99t123 -34q74 0 127 32t53 95q0 39 -23.5 63.5t-61.5 35t-83.5 18t-91 18t-83.5 28.5t-61.5 56t-23.5 94q0 101 71 153t174 52q100 0 169 -53.5t76 -156.5h-85q-6 66 -50 99.5t-110 33.5q-68 0 -114 -32t-46 -95q0 -38 23.5 -61.5t61.5 -34 t83.5 -17.5t91 -18t83.5 -29t61.5 -57t23.5 -96q0 -68 -39.5 -116t-97.5 -68.5t-128 -20.5q-107 0 -182.5 54t-82.5 156zM243 -219l26 144h76l-42 -144h-60z" />
<glyph unicode="&#x219;" horiz-adv-x="480" d="M40 145h82q4 -41 37 -63t80 -22q50 0 84.5 20t34.5 59q0 28 -22.5 45t-57 22.5t-74 14.5t-74 20.5t-57 41.5t-22.5 77q0 75 54 113t132 38q77 0 129 -39.5t58 -115.5h-82q-4 42 -32.5 63t-72.5 21t-74 -18.5t-30 -57.5q0 -28 22.5 -44.5t57 -21.5t74 -14t74 -20.5t57 -42 t22.5 -78.5q0 -75 -58.5 -114.5t-142.5 -39.5q-80 0 -137 40t-62 116zM175 -219l26 144h76l-42 -144h-60z" />
<glyph unicode="&#x21a;" horiz-adv-x="573" d="M329 622v-622h-85v622h-223v78h531v-78h-223zM223 -219l26 144h76l-42 -144h-60z" />
<glyph unicode="&#x21b;" horiz-adv-x="376" d="M328 4q-42 -15 -90 -15q-64 0 -96.5 36t-32.5 104v302h-91v69h91v140h82v-140h137v-69h-137v-302q0 -67 59 -67q42 0 78 15v-73zM121 -219l26 144h76l-42 -144h-60z" />
<glyph unicode="&#x21e;" horiz-adv-x="711" d="M435 915h76l-107 -140h-96l-107 140h76l79 -103zM88 0v700h85v-305h365v305h85v-700h-85v317h-365v-317h-85z" />
<glyph unicode="&#x21f;" horiz-adv-x="566" d="M362 915h76l-107 -140h-96l-107 140h76l79 -103zM498 0h-82v302q0 70 -25 102t-85 32q-67 0 -109 -44t-42 -121v-271h-82v700h82v-277q24 42 67 65t95 23q181 0 181 -207v-304z" />
<glyph unicode="&#x226;" horiz-adv-x="660" d="M329 675l-142 -419h286l-142 419h-2zM101 0h-91l245 700h150l245 -700h-91l-60 178h-338zM280 831q0 21 14.5 35.5t35.5 14.5t35.5 -14.5t14.5 -35.5t-14.5 -35.5t-35.5 -14.5t-35.5 14.5t-14.5 35.5z" />
<glyph unicode="&#x227;" d="M452 250q0 78 -41.5 132t-122.5 54t-122.5 -54t-41.5 -132t41.5 -132t122.5 -54t122.5 54t41.5 132zM534 0h-82v67q-61 -78 -174 -78q-62 0 -109 22.5t-73.5 60.5t-40 83t-13.5 95t13.5 95t40 83t73.5 60.5t109 22.5q113 0 174 -78v67h82v-500zM238 631q0 21 14.5 35.5 t35.5 14.5t35.5 -14.5t14.5 -35.5t-14.5 -35.5t-35.5 -14.5t-35.5 14.5t-14.5 35.5z" />
<glyph unicode="&#x228;" d="M173 317v-239h385v-78h-210l-15 -39h18q46 0 74 -24t28 -64q0 -46 -34.5 -74.5t-92.5 -28.5q-36 0 -82 16v56q42 -18 77 -18q33 0 52.5 14t19.5 37q0 43 -56 43h-44l-15 25l22 57h-212v700h458v-78h-373v-229h349v-76h-349z" />
<glyph unicode="&#x229;" horiz-adv-x="556" d="M128 295h300q-11 62 -48.5 101.5t-101.5 39.5t-101.5 -39.5t-48.5 -101.5zM416 145h86q-41 -145 -203 -155l-11 -29h18q46 0 74 -24t28 -64q0 -46 -34.5 -74.5t-92.5 -28.5q-36 0 -82 16v56q42 -18 77 -18q33 0 52.5 14t19.5 37q0 43 -56 43h-44l-15 25l18 47 q-103 9 -156 84t-53 176q0 108 60 184.5t176 76.5t176 -76.5t60 -184.5v-25h-389q6 -69 44.5 -115t108.5 -46q107 0 138 81z" />
<glyph unicode="&#x22e;" horiz-adv-x="736" d="M318 831q0 21 14.5 35.5t35.5 14.5t35.5 -14.5t14.5 -35.5t-14.5 -35.5t-35.5 -14.5t-35.5 14.5t-14.5 35.5zM40 350q0 71 19.5 134t58 114.5t103 82t147.5 30.5t147.5 -30.5t103 -82t58 -114.5t19.5 -134t-19.5 -134t-58 -114.5t-103 -82t-147.5 -30.5t-147.5 30.5 t-103 82t-58 114.5t-19.5 134zM611 350q0 55 -14 104t-42.5 89.5t-76.5 64.5t-110 24t-110 -24t-76.5 -64.5t-42.5 -89.5t-14 -104t14 -104t42.5 -89.5t76.5 -64.5t110 -24t110 24t76.5 64.5t42.5 89.5t14 104z" />
<glyph unicode="&#x22f;" horiz-adv-x="576" d="M238 631q0 21 14.5 35.5t35.5 14.5t35.5 -14.5t14.5 -35.5t-14.5 -35.5t-35.5 -14.5t-35.5 14.5t-14.5 35.5zM42 250q0 108 62.5 184.5t183.5 76.5t183.5 -76.5t62.5 -184.5t-62.5 -184.5t-183.5 -76.5t-183.5 76.5t-62.5 184.5zM452 250q0 78 -41.5 132t-122.5 54 t-122.5 -54t-41.5 -132t41.5 -132t122.5 -54t122.5 54t41.5 132z" />
<glyph unicode="&#x232;" horiz-adv-x="613" d="M447 785h-280v61h280v-61zM233 280l-218 420h93l198 -395h1l198 395h93l-218 -420h-31v-280h-85v280h-31z" />
<glyph unicode="&#x233;" horiz-adv-x="520" d="M400 585h-280v61h280v-61zM506 500l-230 -695h-86l64 195h-70l-170 500h86l159 -480h2l159 480h86z" />
<glyph unicode="&#x237;" horiz-adv-x="228" d="M-20 -202v72q18 -3 34 -3q59 0 59 67v566h82v-566q0 -68 -32.5 -104t-96.5 -36q-23 0 -46 4z" />
<glyph unicode="&#x244;" horiz-adv-x="756" d="M573 276v40h-390v-40q0 -39 9.5 -74t31 -66.5t61 -50t93.5 -18.5t93.5 18.5t61 50t31 66.5t9.5 74zM98 269v47h-75v69h75v315h85v-315h390v315h85v-315h75v-69h-75v-47q0 -51 -13.5 -97t-43.5 -89t-87.5 -68.5t-135.5 -25.5t-135.5 25.5t-87.5 68.5t-43.5 89t-13.5 97z " />
<glyph unicode="&#x254;" horiz-adv-x="554" d="M266 -11q-100 0 -154.5 51.5t-69.5 134.5h83q25 -111 141 -111q81 0 122.5 54.5t41.5 131.5t-41.5 131.5t-122.5 54.5q-116 0 -141 -111h-83q15 83 69.5 134.5t154.5 51.5q121 0 183.5 -76.5t62.5 -184.5t-62.5 -184.5t-183.5 -76.5z" />
<glyph unicode="&#x256;" d="M452 250q0 78 -41.5 132t-122.5 54t-122.5 -54t-41.5 -132t41.5 -132t122.5 -54t122.5 54t41.5 132zM452 -66v133q-61 -78 -174 -78q-62 0 -109 22.5t-73.5 60.5t-40 83t-13.5 95t13.5 95t40 83t73.5 60.5t109 22.5q113 0 174 -78v267h82v-766q0 -67 59 -67q16 0 34 3 v-72q-23 -4 -46 -4q-64 0 -96.5 36t-32.5 104z" />
<glyph unicode="&#x258;" horiz-adv-x="556" d="M128 295h300q-11 62 -48.5 101.5t-101.5 39.5t-101.5 -39.5t-48.5 -101.5zM54 145h86q31 -81 138 -81q70 0 108.5 46t44.5 115h-389v25q0 108 60 184.5t176 76.5t176 -76.5t60 -184.5t-60 -184.5t-176 -76.5q-181 0 -224 156z" />
<glyph unicode="&#x259;" horiz-adv-x="556" d="M428 205h-300q11 -62 48.5 -101.5t101.5 -39.5t101.5 39.5t48.5 101.5zM140 355h-86q43 156 224 156q116 0 176 -76.5t60 -184.5t-60 -184.5t-176 -76.5t-176 76.5t-60 184.5v25h389q-6 69 -44.5 115t-108.5 46q-107 0 -138 -81z" />
<glyph unicode="&#x25b;" horiz-adv-x="480" d="M241 218q-50 0 -84.5 -20t-34.5 -59t34.5 -59t84.5 -20q47 0 80 22t37 63h82q-5 -76 -62.5 -116t-139.5 -40q-81 0 -139.5 38.5t-58.5 111.5q0 81 79 116q-63 35 -63 110q0 71 54 108.5t130 37.5q78 0 130.5 -39.5t58.5 -115.5h-82q-4 42 -32.5 63t-72.5 21t-74 -18.5 t-30 -57.5t30 -57.5t74 -18.5h45v-70h-46z" />
<glyph unicode="&#x268;" horiz-adv-x="228" d="M62 664q0 22 15 37t37 15t37 -15t15 -37t-15 -37t-37 -15t-37 15t-15 37zM73 0v317h-50v66h50v117h82v-117h50v-66h-50v-317h-82z" />
<glyph unicode="&#x272;" horiz-adv-x="566" d="M155 271v-337q0 -68 -32.5 -104t-96.5 -36q-23 0 -46 4v72q18 -3 34 -3q59 0 59 67v566h82v-77q24 42 67 65t95 23q181 0 181 -207v-304h-82v302q0 70 -25 102t-85 32q-67 0 -109 -44t-42 -121z" />
<glyph unicode="&#x289;" horiz-adv-x="606" d="M431 229v88h-261v-119q0 -70 25 -102t85 -32q67 0 109 44t42 121zM88 383v117h82v-117h261v117h82v-117h50v-66h-50v-317h-82v77q-24 -42 -67 -65t-95 -23q-181 0 -181 207v121h-50v66h50z" />
<glyph unicode="&#x2bb;" horiz-adv-x="212" d="M173 700l-39 -220h-95l64 220h70z" />
<glyph unicode="&#x2bc;" horiz-adv-x="212" d="M39 480l39 220h95l-64 -220h-70z" />
<glyph unicode="&#x2c6;" horiz-adv-x="360" d="M228 715l107 -140h-76l-79 103l-79 -103h-76l107 140h96z" />
<glyph unicode="&#x2c7;" horiz-adv-x="360" d="M259 715h76l-107 -140h-96l-107 140h76l79 -103z" />
<glyph unicode="&#x2c9;" horiz-adv-x="330" d="M305 585h-280v61h280v-61z" />
<glyph unicode="&#x2d8;" horiz-adv-x="358" d="M25 715h63q0 -37 24.5 -60t66.5 -23t66.5 23t24.5 60h63q0 -62 -41.5 -101t-112.5 -39t-112.5 39t-41.5 101z" />
<glyph unicode="&#x2d9;" horiz-adv-x="150" d="M25 631q0 21 14.5 35.5t35.5 14.5t35.5 -14.5t14.5 -35.5t-14.5 -35.5t-35.5 -14.5t-35.5 14.5t-14.5 35.5z" />
<glyph unicode="&#x2da;" horiz-adv-x="256" d="M25 661q0 43 29 72t74 29t74 -29t29 -72t-29 -72t-74 -29t-74 29t-29 72zM180 661q0 23 -15 38t-37 15t-37 -15t-15 -38t15 -38t37 -15t37 15t15 38z" />
<glyph unicode="&#x2db;" horiz-adv-x="197" d="M139 21l33 -21q-30 -24 -56 -60.5t-26 -71.5q0 -44 41 -44q24 0 41 8v-51q-20 -11 -53 -11q-41 0 -67.5 24.5t-26.5 65.5q0 92 114 161z" />
<glyph unicode="&#x2dc;" horiz-adv-x="350" d="M75 576h-50q2 41 25 69t65 28q21 0 62 -11.5t61 -11.5q32 0 37 36h50q-2 -41 -25 -69t-65 -28q-21 0 -62 11.5t-61 11.5q-32 0 -37 -36z" />
<glyph unicode="&#x2dd;" horiz-adv-x="385" d="M196 715l-109 -140h-62l71 140h100zM360 715l-109 -140h-62l71 140h100z" />
<glyph unicode="&#x300;" horiz-adv-x="0" d="M-505 915h100l81 -140h-62z" />
<glyph unicode="&#x301;" horiz-adv-x="0" d="M-205 915l-119 -140h-62l81 140h100z" />
<glyph unicode="&#x302;" horiz-adv-x="0" d="M-307 915l107 -140h-76l-79 103l-79 -103h-76l107 140h96z" />
<glyph unicode="&#x303;" horiz-adv-x="0" d="M-455 776h-50q2 41 25 69t65 28q21 0 62 -11.5t61 -11.5q32 0 37 36h50q-2 -41 -25 -69t-65 -28q-21 0 -62 11.5t-61 11.5q-32 0 -37 -36z" />
<glyph unicode="&#x304;" horiz-adv-x="0" d="M-215 785h-280v61h280v-61z" />
<glyph unicode="&#x306;" horiz-adv-x="0" d="M-509 915h63q0 -37 24.5 -60t66.5 -23t66.5 23t24.5 60h63q0 -62 -41.5 -101t-112.5 -39t-112.5 39t-41.5 101z" />
<glyph unicode="&#x307;" horiz-adv-x="0" d="M-405 831q0 21 14.5 35.5t35.5 14.5t35.5 -14.5t14.5 -35.5t-14.5 -35.5t-35.5 -14.5t-35.5 14.5t-14.5 35.5z" />
<glyph unicode="&#x308;" horiz-adv-x="0" d="M-496 830q0 21 14.5 35.5t35.5 14.5t35.5 -14.5t14.5 -35.5t-14.5 -35.5t-35.5 -14.5t-35.5 14.5t-14.5 35.5zM-314 830q0 21 14.5 35.5t35.5 14.5t35.5 -14.5t14.5 -35.5t-14.5 -35.5t-35.5 -14.5t-35.5 14.5t-14.5 35.5z" />
<glyph unicode="&#x309;" horiz-adv-x="0" d="M-355 822q0 27 -19 42t-52 15q-14 0 -28 -3v54q18 3 35 3q57 0 91.5 -28.5t34.5 -74.5q0 -42 -31 -67h-62q31 23 31 59z" />
<glyph unicode="&#x30a;" horiz-adv-x="0" d="M-458 861q0 43 29 72t74 29t74 -29t29 -72t-29 -72t-74 -29t-74 29t-29 72zM-303 861q0 23 -15 38t-37 15t-37 -15t-15 -38t15 -38t37 -15t37 15t15 38z" />
<glyph unicode="&#x30b;" horiz-adv-x="0" d="M-297 915l-109 -140h-62l71 140h100zM-133 915l-109 -140h-62l71 140h100z" />
<glyph unicode="&#x30c;" horiz-adv-x="0" d="M-276 915h76l-107 -140h-96l-107 140h76l79 -103z" />
<glyph unicode="&#x30f;" horiz-adv-x="0" d="M-413 915h100l71 -140h-62zM-577 915h100l71 -140h-62z" />
<glyph unicode="&#x311;" horiz-adv-x="0" d="M-446 775h-63q0 62 41.5 101t112.5 39t112.5 -39t41.5 -101h-63q0 37 -24.5 60t-66.5 23t-66.5 -23t-24.5 -60z" />
<glyph unicode="&#x312;" horiz-adv-x="0" d="M-291 919l-26 -144h-76l42 144h60z" />
<glyph unicode="&#x323;" horiz-adv-x="0" d="M-306 -131q0 -21 -14.5 -35.5t-35.5 -14.5t-35.5 14.5t-14.5 35.5t14.5 35.5t35.5 14.5t35.5 -14.5t14.5 -35.5z" />
<glyph unicode="&#x324;" horiz-adv-x="0" d="M-215 -130q0 -21 -14.5 -35.5t-35.5 -14.5t-35.5 14.5t-14.5 35.5t14.5 35.5t35.5 14.5t35.5 -14.5t14.5 -35.5zM-397 -130q0 -21 -14.5 -35.5t-35.5 -14.5t-35.5 14.5t-14.5 35.5t14.5 35.5t35.5 14.5t35.5 -14.5t14.5 -35.5z" />
<glyph unicode="&#x326;" horiz-adv-x="0" d="M-419 -219l26 144h76l-42 -144h-60z" />
<glyph unicode="&#x327;" horiz-adv-x="0" d="M-411 -82l-15 25l26 67h48l-19 -49h18q46 0 74 -24t28 -64q0 -46 -34.5 -74.5t-92.5 -28.5q-36 0 -82 16v56q42 -18 77 -18q33 0 52.5 14t19.5 37q0 43 -56 43h-44z" />
<glyph unicode="&#x328;" horiz-adv-x="0" d="M-315 21l33 -21q-30 -24 -56 -60.5t-26 -71.5q0 -44 41 -44q24 0 41 8v-51q-20 -11 -53 -11q-41 0 -67.5 24.5t-26.5 65.5q0 92 114 161z" />
<glyph unicode="&#x32d;" horiz-adv-x="0" d="M-307 -75l107 -140h-76l-79 103l-79 -103h-76l107 140h96z" />
<glyph unicode="&#x32e;" horiz-adv-x="0" d="M-264 -75h63q0 -62 -41.5 -101t-112.5 -39t-112.5 39t-41.5 101h63q0 -37 24.5 -60t66.5 -23t66.5 23t24.5 60z" />
<glyph unicode="&#x330;" horiz-adv-x="0" d="M-455 -186h-50q2 41 25 69t65 28q21 0 62 -11.5t61 -11.5q32 0 37 36h50q-2 -41 -25 -69t-65 -28q-21 0 -62 11.5t-61 11.5q-32 0 -37 -36z" />
<glyph unicode="&#x331;" horiz-adv-x="0" d="M-215 -156h-280v61h280v-61z" />
<glyph unicode="&#x344;" horiz-adv-x="0" d="M-275 915l-88 -140h-52l50 140h90zM-534 830q0 21 14.5 35.5t35.5 14.5t35.5 -14.5t14.5 -35.5t-14.5 -35.5t-35.5 -14.5t-35.5 14.5t-14.5 35.5zM-276 830q0 21 14.5 35.5t35.5 14.5t35.5 -14.5t14.5 -35.5t-14.5 -35.5t-35.5 -14.5t-35.5 14.5t-14.5 35.5z" />
<glyph unicode="&#x37e;" horiz-adv-x="264" d="M82 455q0 24 16 39.5t39 15.5t39 -15.5t16 -39.5t-16 -39.5t-39 -15.5t-39 15.5t-16 39.5zM65 -131l39 220h95l-64 -220h-70z" />
<glyph unicode="&#x384;" horiz-adv-x="190" d="M165 715l-88 -140h-52l50 140h90z" />
<glyph unicode="&#x385;" horiz-adv-x="408" d="M284 715l-88 -140h-52l50 140h90zM25 630q0 21 14.5 35.5t35.5 14.5t35.5 -14.5t14.5 -35.5t-14.5 -35.5t-35.5 -14.5t-35.5 14.5t-14.5 35.5zM283 630q0 21 14.5 35.5t35.5 14.5t35.5 -14.5t14.5 -35.5t-14.5 -35.5t-35.5 -14.5t-35.5 14.5t-14.5 35.5z" />
<glyph unicode="&#x386;" horiz-adv-x="660" d="M329 675l-142 -419h286l-142 419h-2zM101 0h-91l245 700h150l245 -700h-91l-60 178h-338zM115 700h90l-88 -140h-52z" />
<glyph unicode="&#x387;" horiz-adv-x="208" d="M49 284q0 24 16 39.5t39 15.5t39 -15.5t16 -39.5t-16 -39.5t-39 -15.5t-39 15.5t-16 39.5z" />
<glyph unicode="&#x388;" horiz-adv-x="677" d="M243 317v-239h385v-78h-470v700h458v-78h-373v-229h349v-76h-349zM128 700l-88 -140h-52l50 140h90z" />
<glyph unicode="&#x389;" horiz-adv-x="781" d="M158 0v700h85v-305h365v305h85v-700h-85v317h-365v-317h-85zM128 700l-88 -140h-52l50 140h90z" />
<glyph unicode="&#x38a;" horiz-adv-x="331" d="M158 0v700h85v-700h-85zM128 700l-88 -140h-52l50 140h90z" />
<glyph unicode="&#x38c;" horiz-adv-x="766" d="M70 350q0 71 19.5 134t58 114.5t103 82t147.5 30.5t147.5 -30.5t103 -82t58 -114.5t19.5 -134t-19.5 -134t-58 -114.5t-103 -82t-147.5 -30.5t-147.5 30.5t-103 82t-58 114.5t-19.5 134zM148 700l-88 -140h-52l50 140h90zM641 350q0 55 -14 104t-42.5 89.5t-76.5 64.5 t-110 24t-110 -24t-76.5 -64.5t-42.5 -89.5t-14 -104t14 -104t42.5 -89.5t76.5 -64.5t110 -24t110 24t76.5 64.5t42.5 89.5t14 104z" />
<glyph unicode="&#x38e;" horiz-adv-x="733" d="M353 280l-218 420h93l198 -395h1l198 395h93l-218 -420h-31v-280h-85v280h-31zM127 700l-88 -140h-52l50 140h90z" />
<glyph unicode="&#x38f;" horiz-adv-x="766" d="M70 350q0 71 19.5 134t58 114.5t103 82t147.5 30.5t147.5 -30.5t103 -82t58 -114.5t19.5 -134q0 -191 -138 -272h138v-78h-251v78q82 26 124 101t42 171q0 55 -14 104t-42.5 89.5t-76.5 64.5t-110 24t-110 -24t-76.5 -64.5t-42.5 -89.5t-14 -104q0 -96 42 -171t124 -101 v-78h-251v78h138q-138 81 -138 272zM148 700l-88 -140h-52l50 140h90z" />
<glyph unicode="&#x390;" horiz-adv-x="270" d="M194 715l-88 -140h-52l50 140h90zM-65 630q0 21 14.5 35.5t35.5 14.5t35.5 -14.5t14.5 -35.5t-14.5 -35.5t-35.5 -14.5t-35.5 14.5t-14.5 35.5zM193 630q0 21 14.5 35.5t35.5 14.5t35.5 -14.5t14.5 -35.5t-14.5 -35.5t-35.5 -14.5t-35.5 14.5t-14.5 35.5zM155 500v-368 q0 -68 61 -68q16 0 34 3v-74q-25 -4 -52 -4q-59 0 -92 36.5t-33 99.5v375h82z" />
<glyph unicode="&#x391;" horiz-adv-x="660" d="M329 675l-142 -419h286l-142 419h-2zM101 0h-91l245 700h150l245 -700h-91l-60 178h-338z" />
<glyph unicode="&#x392;" horiz-adv-x="676" d="M381 327h-208v-250h208q70 0 116 29t46 96t-46 96t-116 29zM364 623h-191v-224h191q62 0 103 26t41 86t-41 86t-103 26zM382 0h-294v700h277q46 0 84.5 -9t72 -29t52.5 -57t19 -88q0 -99 -88 -147q123 -49 123 -174q0 -72 -37 -117.5t-89 -62t-120 -16.5z" />
<glyph unicode="&#x393;" horiz-adv-x="548" d="M173 0h-85v700h450v-78h-365v-622z" />
<glyph unicode="&#x394;" horiz-adv-x="660" d="M10 0l245 700h150l245 -700h-640zM127 78h406l-202 597h-2z" />
<glyph unicode="&#x395;" d="M173 317v-239h385v-78h-470v700h458v-78h-373v-229h349v-76h-349z" />
<glyph unicode="&#x396;" horiz-adv-x="590" d="M549 700v-90l-417 -532h423v-78h-520v90l417 532h-406v78h503z" />
<glyph unicode="&#x397;" horiz-adv-x="711" d="M88 0v700h85v-305h365v305h85v-700h-85v317h-365v-317h-85z" />
<glyph unicode="&#x398;" horiz-adv-x="736" d="M40 350q0 71 19.5 134t58 114.5t103 82t147.5 30.5t147.5 -30.5t103 -82t58 -114.5t19.5 -134t-19.5 -134t-58 -114.5t-103 -82t-147.5 -30.5t-147.5 30.5t-103 82t-58 114.5t-19.5 134zM611 350q0 55 -14 104t-42.5 89.5t-76.5 64.5t-110 24t-110 -24t-76.5 -64.5 t-42.5 -89.5t-14 -104t14 -104t42.5 -89.5t76.5 -64.5t110 -24t110 24t76.5 64.5t42.5 89.5t14 104zM237 315v70h262v-70h-262z" />
<glyph unicode="&#x399;" horiz-adv-x="261" d="M88 0v700h85v-700h-85z" />
<glyph unicode="&#x39a;" horiz-adv-x="615" d="M173 700v-342l318 342h111l-325 -350l340 -350h-114l-330 340v-340h-85v700h85z" />
<glyph unicode="&#x39b;" horiz-adv-x="600" d="M10 0l215 700h150l215 -700h-91l-198 675h-2l-198 -675h-91z" />
<glyph unicode="&#x39c;" horiz-adv-x="896" d="M250 700l197 -675h2l197 675h162v-700h-85v675h-2l-197 -675h-152l-197 675h-2v-675h-85v700h162z" />
<glyph unicode="&#x39d;" horiz-adv-x="746" d="M252 700l319 -675h2v675h85v-700h-164l-319 675h-2v-675h-85v700h164z" />
<glyph unicode="&#x39e;" horiz-adv-x="568" d="M49 622v78h470v-78h-470zM104 317v76h360v-76h-360zM49 0v78h470v-78h-470z" />
<glyph unicode="&#x39f;" horiz-adv-x="736" d="M40 350q0 71 19.5 134t58 114.5t103 82t147.5 30.5t147.5 -30.5t103 -82t58 -114.5t19.5 -134t-19.5 -134t-58 -114.5t-103 -82t-147.5 -30.5t-147.5 30.5t-103 82t-58 114.5t-19.5 134zM611 350q0 55 -14 104t-42.5 89.5t-76.5 64.5t-110 24t-110 -24t-76.5 -64.5 t-42.5 -89.5t-14 -104t14 -104t42.5 -89.5t76.5 -64.5t110 -24t110 24t76.5 64.5t42.5 89.5t14 104z" />
<glyph unicode="&#x3a0;" horiz-adv-x="711" d="M88 0v700h535v-700h-85v622h-365v-622h-85z" />
<glyph unicode="&#x3a1;" horiz-adv-x="633" d="M363 622h-190v-300h190q65 0 107.5 42.5t42.5 107.5t-42.5 107.5t-107.5 42.5zM364 244h-191v-244h-85v700h276q101 0 167.5 -64.5t66.5 -163.5t-66.5 -163.5t-167.5 -64.5z" />
<glyph unicode="&#x3a3;" horiz-adv-x="575" d="M55 0v71l207 289l-207 269v71h470v-78h-362l201 -262l-201 -282h362v-78h-470z" />
<glyph unicode="&#x3a4;" horiz-adv-x="573" d="M329 622v-622h-85v622h-223v78h531v-78h-223z" />
<glyph unicode="&#x3a5;" horiz-adv-x="613" d="M233 280l-218 420h93l198 -395h1l198 395h93l-218 -420h-31v-280h-85v280h-31z" />
<glyph unicode="&#x3a6;" horiz-adv-x="811" d="M115 350q0 -86 65.5 -149t182.5 -63v424q-117 0 -182.5 -63t-65.5 -149zM696 350q0 86 -65 149t-183 63v-424q118 0 183 63t65 149zM781 350q0 -56 -21 -107t-61 -92.5t-105 -66t-146 -24.5v-80h-85v80q-81 0 -146 24.5t-105 66t-61 92.5t-21 107t21 107t61 92.5t105 66 t146 24.5v80h85v-80q81 0 146 -24.5t105 -66t61 -92.5t21 -107z" />
<glyph unicode="&#x3a7;" horiz-adv-x="600" d="M565 700l-178 -334l199 -366h-96l-189 354h-2l-189 -354h-96l199 366l-178 334h94l170 -321h2l170 321h94z" />
<glyph unicode="&#x3a8;" horiz-adv-x="781" d="M348 0v190q-126 2 -205.5 75t-79.5 195v240h85v-240q0 -88 55.5 -139t144.5 -53v432h85v-432q89 2 144.5 53t55.5 139v240h85v-240q0 -122 -79.5 -195t-205.5 -75v-190h-85z" />
<glyph unicode="&#x3a9;" horiz-adv-x="736" d="M40 350q0 71 19.5 134t58 114.5t103 82t147.5 30.5t147.5 -30.5t103 -82t58 -114.5t19.5 -134q0 -191 -138 -272h138v-78h-251v78q82 26 124 101t42 171q0 55 -14 104t-42.5 89.5t-76.5 64.5t-110 24t-110 -24t-76.5 -64.5t-42.5 -89.5t-14 -104q0 -96 42 -171t124 -101 v-78h-251v78h138q-138 81 -138 272z" />
<glyph unicode="&#x3aa;" horiz-adv-x="261" d="M-10 830q0 21 14.5 35.5t35.5 14.5t35.5 -14.5t14.5 -35.5t-14.5 -35.5t-35.5 -14.5t-35.5 14.5t-14.5 35.5zM172 830q0 21 14.5 35.5t35.5 14.5t35.5 -14.5t14.5 -35.5t-14.5 -35.5t-35.5 -14.5t-35.5 14.5t-14.5 35.5zM88 0v700h85v-700h-85z" />
<glyph unicode="&#x3ab;" horiz-adv-x="613" d="M166 830q0 21 14.5 35.5t35.5 14.5t35.5 -14.5t14.5 -35.5t-14.5 -35.5t-35.5 -14.5t-35.5 14.5t-14.5 35.5zM348 830q0 21 14.5 35.5t35.5 14.5t35.5 -14.5t14.5 -35.5t-14.5 -35.5t-35.5 -14.5t-35.5 14.5t-14.5 35.5zM233 280l-218 420h93l198 -395h1l198 395h93 l-218 -420h-31v-280h-85v280h-31z" />
<glyph unicode="&#x3ac;" horiz-adv-x="649" d="M452 250q0 78 -41.5 132t-122.5 54t-122.5 -54t-41.5 -132t41.5 -132t122.5 -54t122.5 54t41.5 132zM452 500h82v-368q0 -68 61 -68q16 0 34 3v-74q-25 -4 -52 -4q-94 0 -118 86q-61 -86 -181 -86q-62 0 -109 22.5t-73.5 60.5t-40 83t-13.5 95t13.5 95t40 83t73.5 60.5 t109 22.5q113 0 174 -78v67zM312 715h90l-88 -140h-52z" />
<glyph unicode="&#x3ad;" horiz-adv-x="480" d="M354 715l-88 -140h-52l50 140h90zM241 218q-50 0 -84.5 -20t-34.5 -59t34.5 -59t84.5 -20q47 0 80 22t37 63h82q-5 -76 -62.5 -116t-139.5 -40q-81 0 -139.5 38.5t-58.5 111.5q0 81 79 116q-63 35 -63 110q0 71 54 108.5t130 37.5q78 0 130.5 -39.5t58.5 -115.5h-82 q-4 42 -32.5 63t-72.5 21t-74 -18.5t-30 -57.5t30 -57.5t74 -18.5h45v-70h-46z" />
<glyph unicode="&#x3ae;" horiz-adv-x="566" d="M400 715l-88 -140h-52l50 140h90zM498 -195h-82v497q0 70 -25 102t-85 32q-67 0 -109 -44t-42 -121v-271h-82v500h82v-77q24 42 67 65t95 23q181 0 181 -207v-499z" />
<glyph unicode="&#x3af;" horiz-adv-x="270" d="M228 715l-88 -140h-52l50 140h90zM155 500v-368q0 -68 61 -68q16 0 34 3v-74q-25 -4 -52 -4q-59 0 -92 36.5t-33 99.5v375h82z" />
<glyph unicode="&#x3b0;" horiz-adv-x="560" d="M360 715l-88 -140h-52l50 140h90zM101 630q0 21 14.5 35.5t35.5 14.5t35.5 -14.5t14.5 -35.5t-14.5 -35.5t-35.5 -14.5t-35.5 14.5t-14.5 35.5zM359 630q0 21 14.5 35.5t35.5 14.5t35.5 -14.5t14.5 -35.5t-14.5 -35.5t-35.5 -14.5t-35.5 14.5t-14.5 35.5zM280 64 q61 0 95.5 37t34.5 97v302h82v-304q0 -92 -56 -149.5t-156 -57.5t-156 57.5t-56 149.5v304h82v-302q0 -60 34.5 -97t95.5 -37z" />
<glyph unicode="&#x3b1;" horiz-adv-x="649" d="M452 250q0 78 -41.5 132t-122.5 54t-122.5 -54t-41.5 -132t41.5 -132t122.5 -54t122.5 54t41.5 132zM452 500h82v-368q0 -68 61 -68q16 0 34 3v-74q-25 -4 -52 -4q-94 0 -118 86q-61 -86 -181 -86q-62 0 -109 22.5t-73.5 60.5t-40 83t-13.5 95t13.5 95t40 83t73.5 60.5 t109 22.5q113 0 174 -78v67z" />
<glyph unicode="&#x3b2;" horiz-adv-x="587" d="M291 333v70q58 0 98 33t40 88q0 51 -37 81.5t-92 30.5q-72 0 -108.5 -49.5t-36.5 -127.5v-384h136q79 0 125.5 36.5t46.5 92.5t-46.5 92.5t-125.5 36.5zM155 0v-195h-82v654q0 112 57 182t170 70q90 0 150.5 -50t60.5 -133q0 -101 -92 -153q60 -24 93 -69.5t33 -105.5 q0 -89 -68 -144.5t-186 -55.5h-136z" />
<glyph unicode="&#x3b3;" horiz-adv-x="508" d="M499 500l-171 -500h-33v-195h-82v195h-33l-171 500h86l158 -480h2l158 480h86z" />
<glyph unicode="&#x3b4;" horiz-adv-x="576" d="M452 235q0 71 -41.5 121t-122.5 50t-122.5 -50t-41.5 -121t41.5 -121t122.5 -50t122.5 50t41.5 121zM92 625v75h402v-75h-253q134 -81 213.5 -181.5t79.5 -208.5q0 -102 -62.5 -174t-183.5 -72t-183.5 72t-62.5 174t62 174t182 72q15 0 39 -2q-93 85 -233 146z" />
<glyph unicode="&#x3b5;" horiz-adv-x="480" d="M241 218q-50 0 -84.5 -20t-34.5 -59t34.5 -59t84.5 -20q47 0 80 22t37 63h82q-5 -76 -62.5 -116t-139.5 -40q-81 0 -139.5 38.5t-58.5 111.5q0 81 79 116q-63 35 -63 110q0 71 54 108.5t130 37.5q78 0 130.5 -39.5t58.5 -115.5h-82q-4 42 -32.5 63t-72.5 21t-74 -18.5 t-30 -57.5t30 -57.5t74 -18.5h45v-70h-46z" />
<glyph unicode="&#x3b6;" horiz-adv-x="494" d="M293 -11q-121 0 -183.5 72t-62.5 174q0 107 77.5 208t209.5 182h-267v75h402v-75q-156 -81 -248 -181.5t-92 -207.5q0 -72 44 -122t133 -50q55 0 105 17l39 -48v-173h-82v139q-29 -10 -75 -10z" />
<glyph unicode="&#x3b7;" horiz-adv-x="566" d="M498 -195h-82v497q0 70 -25 102t-85 32q-67 0 -109 -44t-42 -121v-271h-82v500h82v-77q24 42 67 65t95 23q181 0 181 -207v-499z" />
<glyph unicode="&#x3b8;" horiz-adv-x="576" d="M451 315h-326q5 -118 45 -184.5t118 -66.5t118 66.5t45 184.5zM125 385h326q-5 118 -45 184.5t-118 66.5t-118 -66.5t-45 -184.5zM42 350q0 163 61 262t185 99t185 -99t61 -262t-61 -262t-185 -99t-185 99t-61 262z" />
<glyph unicode="&#x3b9;" horiz-adv-x="270" d="M155 500v-368q0 -68 61 -68q16 0 34 3v-74q-25 -4 -52 -4q-59 0 -92 36.5t-33 99.5v375h82z" />
<glyph unicode="&#x3ba;" horiz-adv-x="517" d="M155 500v-242l234 242h105l-242 -250l257 -250h-110l-244 240v-240h-82v500h82z" />
<glyph unicode="&#x3bb;" horiz-adv-x="520" d="M506 0h-86l-159 480h-2l-159 -480h-86l170 500h70l-69 210h86z" />
<glyph unicode="&#x3bc;" horiz-adv-x="566" d="M68 -195v695h82v-302q0 -70 25 -102t85 -32q67 0 109 44t42 121v271h82v-500h-82v77q-24 -42 -67 -65t-95 -23q-58 0 -99 22v-206h-82z" />
<glyph unicode="&#x3bd;" horiz-adv-x="508" d="M499 500l-171 -500h-148l-171 500h86l158 -480h2l158 480h86z" />
<glyph unicode="&#x3be;" horiz-adv-x="496" d="M329 64q67 0 118 17l39 -48v-174h-82v140q-29 -10 -75 -10q-135 0 -202 56.5t-67 149.5q0 40 13.5 73.5t31 52t40.5 33t33 18.5t19 6q-3 0 -14 4t-28.5 15t-33 27t-27 43.5t-11.5 60.5q0 76 60 129.5t159 53.5q43 0 89 -11.5t73 -35.5l-46 -63q-46 35 -116 35 q-65 0 -101 -31t-36 -81q0 -49 36.5 -79t110.5 -30h101v-74h-101q-81 0 -125.5 -39.5t-44.5 -102.5q0 -61 46.5 -98t140.5 -37z" />
<glyph unicode="&#x3bf;" horiz-adv-x="576" d="M42 250q0 108 62.5 184.5t183.5 76.5t183.5 -76.5t62.5 -184.5t-62.5 -184.5t-183.5 -76.5t-183.5 76.5t-62.5 184.5zM452 250q0 78 -41.5 132t-122.5 54t-122.5 -54t-41.5 -132t41.5 -132t122.5 -54t122.5 54t41.5 132z" />
<glyph unicode="&#x3c0;" horiz-adv-x="647" d="M126 425h-95v75h585v-75h-95v-293q0 -68 61 -68q16 0 34 3v-74q-25 -4 -52 -4q-59 0 -92 36.5t-33 99.5v300h-231v-425h-82v425z" />
<glyph unicode="&#x3c1;" d="M155 250q0 -78 41.5 -132t122.5 -54t122.5 54t41.5 132t-41.5 132t-122.5 54t-122.5 -54t-41.5 -132zM155 67v-262h-82v445q0 69 24 126t81.5 96t140.5 39t140.5 -39t81.5 -96t24 -126q0 -50 -13.5 -95t-40 -83t-73.5 -60.5t-109 -22.5q-113 0 -174 78z" />
<glyph unicode="&#x3c2;" horiz-adv-x="555" d="M288 64q68 0 118 17l39 -48v-173h-82v139q-29 -10 -75 -10q-121 0 -183.5 76.5t-62.5 184.5t62.5 184.5t183.5 76.5q100 0 154.5 -51t70.5 -135h-83q-26 111 -142 111q-81 0 -122.5 -54t-41.5 -132t41.5 -132t122.5 -54z" />
<glyph unicode="&#x3c3;" horiz-adv-x="579" d="M452 245q0 75 -41.5 128t-122.5 53t-122.5 -53t-41.5 -128t41.5 -128t122.5 -53t122.5 53t41.5 128zM42 245q0 105 62.5 180t183.5 75h291v-74h-116q71 -74 71 -181q0 -106 -62.5 -181t-183.5 -75t-183.5 75t-62.5 181z" />
<glyph unicode="&#x3c4;" horiz-adv-x="460" d="M445 500v-75h-174v-293q0 -68 61 -68q16 0 34 3v-74q-25 -4 -52 -4q-59 0 -92 36.5t-33 99.5v300h-174v75h430z" />
<glyph unicode="&#x3c5;" horiz-adv-x="560" d="M280 64q61 0 95.5 37t34.5 97v302h82v-304q0 -92 -56 -149.5t-156 -57.5t-156 57.5t-56 149.5v304h82v-302q0 -60 34.5 -97t95.5 -37z" />
<glyph unicode="&#x3c6;" horiz-adv-x="728" d="M405 436v-372q94 0 146.5 55t52.5 131t-52.5 131t-146.5 55zM211 493l31 -71q-57 -21 -87.5 -68.5t-30.5 -103.5q0 -76 52.5 -131t146.5 -55v636h82v-189q133 0 207 -77.5t74 -183.5t-74 -183.5t-207 -77.5v-184h-82v184q-133 0 -207 77.5t-74 183.5q0 79 44 146.5 t125 96.5z" />
<glyph unicode="&#x3c7;" horiz-adv-x="496" d="M171 257l-145 243h92l129 -234h2l129 234h92l-145 -243l157 -257h-94l-139 248h-2l-139 -248h-94z" />
<glyph unicode="&#x3c8;" horiz-adv-x="728" d="M686 500v-250q0 -106 -74 -183.5t-207 -77.5v-184h-82v184q-133 0 -207 77.5t-74 183.5v250h82v-250q0 -76 52.5 -131t146.5 -55v636h82v-636q94 0 146.5 55t52.5 131v250h82z" />
<glyph unicode="&#x3c9;" horiz-adv-x="814" d="M366 310h82v-70q0 -86 33.5 -131t85.5 -45q50 0 81.5 40.5t31.5 122.5q0 144 -97 211l45 62q65 -42 99.5 -113.5t34.5 -159.5q0 -118 -54.5 -178t-140.5 -60q-109 0 -160 100q-51 -100 -160 -100q-86 0 -140.5 60t-54.5 178q0 88 34.5 159.5t99.5 113.5l45 -62 q-97 -67 -97 -211q0 -82 31.5 -122.5t81.5 -40.5q52 0 85.5 45t33.5 131v70z" />
<glyph unicode="&#x3ca;" horiz-adv-x="270" d="M-27 630q0 21 14.5 35.5t35.5 14.5t35.5 -14.5t14.5 -35.5t-14.5 -35.5t-35.5 -14.5t-35.5 14.5t-14.5 35.5zM155 630q0 21 14.5 35.5t35.5 14.5t35.5 -14.5t14.5 -35.5t-14.5 -35.5t-35.5 -14.5t-35.5 14.5t-14.5 35.5zM155 500v-368q0 -68 61 -68q16 0 34 3v-74 q-25 -4 -52 -4q-59 0 -92 36.5t-33 99.5v375h82z" />
<glyph unicode="&#x3cb;" horiz-adv-x="560" d="M139 630q0 21 14.5 35.5t35.5 14.5t35.5 -14.5t14.5 -35.5t-14.5 -35.5t-35.5 -14.5t-35.5 14.5t-14.5 35.5zM321 630q0 21 14.5 35.5t35.5 14.5t35.5 -14.5t14.5 -35.5t-14.5 -35.5t-35.5 -14.5t-35.5 14.5t-14.5 35.5zM280 64q61 0 95.5 37t34.5 97v302h82v-304 q0 -92 -56 -149.5t-156 -57.5t-156 57.5t-56 149.5v304h82v-302q0 -60 34.5 -97t95.5 -37z" />
<glyph unicode="&#x3cc;" horiz-adv-x="576" d="M402 715l-88 -140h-52l50 140h90zM42 250q0 108 62.5 184.5t183.5 76.5t183.5 -76.5t62.5 -184.5t-62.5 -184.5t-183.5 -76.5t-183.5 76.5t-62.5 184.5zM452 250q0 78 -41.5 132t-122.5 54t-122.5 -54t-41.5 -132t41.5 -132t122.5 -54t122.5 54t41.5 132z" />
<glyph unicode="&#x3cd;" horiz-adv-x="560" d="M394 715l-88 -140h-52l50 140h90zM280 64q61 0 95.5 37t34.5 97v302h82v-304q0 -92 -56 -149.5t-156 -57.5t-156 57.5t-56 149.5v304h82v-302q0 -60 34.5 -97t95.5 -37z" />
<glyph unicode="&#x3ce;" horiz-adv-x="814" d="M521 715l-88 -140h-52l50 140h90zM366 310h82v-70q0 -86 33.5 -131t85.5 -45q50 0 81.5 40.5t31.5 122.5q0 144 -97 211l45 62q65 -42 99.5 -113.5t34.5 -159.5q0 -118 -54.5 -178t-140.5 -60q-109 0 -160 100q-51 -100 -160 -100q-86 0 -140.5 60t-54.5 178 q0 88 34.5 159.5t99.5 113.5l45 -62q-97 -67 -97 -211q0 -82 31.5 -122.5t81.5 -40.5q52 0 85.5 45t33.5 131v70z" />
<glyph unicode="&#x400;" d="M173 915h100l81 -140h-62zM173 317v-239h385v-78h-470v700h458v-78h-373v-229h349v-76h-349z" />
<glyph unicode="&#x401;" d="M182 830q0 21 14.5 35.5t35.5 14.5t35.5 -14.5t14.5 -35.5t-14.5 -35.5t-35.5 -14.5t-35.5 14.5t-14.5 35.5zM364 830q0 21 14.5 35.5t35.5 14.5t35.5 -14.5t14.5 -35.5t-14.5 -35.5t-35.5 -14.5t-35.5 14.5t-14.5 35.5zM173 317v-239h385v-78h-470v700h458v-78h-373 v-229h349v-76h-349z" />
<glyph unicode="&#x402;" horiz-adv-x="812" d="M744 225q0 -116 -62 -176t-182 -60v78q88 0 123.5 41.5t35.5 116.5q0 76 -35 118t-121 42q-84 0 -174 -37v-348h-85v622h-223v78h531v-78h-223v-193q89 34 172 34q118 0 180.5 -61t62.5 -177z" />
<glyph unicode="&#x403;" horiz-adv-x="548" d="M463 915l-119 -140h-62l81 140h100zM173 0h-85v700h450v-78h-365v-622z" />
<glyph unicode="&#x404;" horiz-adv-x="707" d="M368 68q173 0 213 175h86q-21 -115 -94.5 -184.5t-204.5 -69.5q-83 0 -147.5 30.5t-103 82t-58 114.5t-19.5 134t19.5 134t58 114.5t103 82t147.5 30.5q131 0 204.5 -69.5t94.5 -184.5h-86q-40 175 -213 175q-110 0 -170.5 -69t-70.5 -174h321v-78h-321 q10 -105 70.5 -174t170.5 -69z" />
<glyph unicode="&#x405;" horiz-adv-x="614" d="M42 199h85q6 -65 57 -99t123 -34q74 0 127 32t53 95q0 39 -23.5 63.5t-61.5 35t-83.5 18t-91 18t-83.5 28.5t-61.5 56t-23.5 94q0 101 71 153t174 52q100 0 169 -53.5t76 -156.5h-85q-6 66 -50 99.5t-110 33.5q-68 0 -114 -32t-46 -95q0 -38 23.5 -61.5t61.5 -34 t83.5 -17.5t91 -18t83.5 -29t61.5 -57t23.5 -96q0 -68 -39.5 -116t-97.5 -68.5t-128 -20.5q-107 0 -182.5 54t-82.5 156z" />
<glyph unicode="&#x406;" horiz-adv-x="261" d="M88 0v700h85v-700h-85z" />
<glyph unicode="&#x407;" horiz-adv-x="261" d="M-10 830q0 21 14.5 35.5t35.5 14.5t35.5 -14.5t14.5 -35.5t-14.5 -35.5t-35.5 -14.5t-35.5 14.5t-14.5 35.5zM172 830q0 21 14.5 35.5t35.5 14.5t35.5 -14.5t14.5 -35.5t-14.5 -35.5t-35.5 -14.5t-35.5 14.5t-14.5 35.5zM88 0v700h85v-700h-85z" />
<glyph unicode="&#x408;" horiz-adv-x="552" d="M249 68q74 0 107 46t33 116v470h85v-470q0 -48 -11.5 -89.5t-36.5 -76.5t-70.5 -55t-106.5 -20t-106.5 20t-70.5 55t-36.5 76.5t-11.5 89.5v50h85v-50q0 -70 33 -116t107 -46z" />
<glyph unicode="&#x409;" horiz-adv-x="1038" d="M598 360v-282h179q61 0 101 40t40 101t-40 101t-101 40h-179zM148 308v392h450v-262h180q98 0 161.5 -62t63.5 -157t-63.5 -157t-161.5 -62h-265v622h-280v-314q0 -31 -0.5 -52.5t-5 -56t-11.5 -59.5t-21.5 -53t-35 -45.5t-51.5 -29.5t-71 -12h-27v78h20q33 0 56.5 17 t35 39.5t18 58.5t7.5 59t1 56z" />
<glyph unicode="&#x40a;" horiz-adv-x="1038" d="M598 78h179q61 0 101 40t40 101t-40 101t-101 40h-179v-282zM173 0h-85v700h85v-262h340v262h85v-262h180q98 0 161.5 -62t63.5 -157t-63.5 -157t-161.5 -62h-265v360h-340v-360z" />
<glyph unicode="&#x40b;" horiz-adv-x="812" d="M329 0h-85v622h-223v78h531v-78h-223v-193q89 34 172 34q117 0 180 -57.5t63 -166.5v-239h-85v215q0 86 -34.5 128t-121.5 42q-84 0 -174 -37v-348z" />
<glyph unicode="&#x40c;" horiz-adv-x="615" d="M503 915l-119 -140h-62l81 140h100zM173 700v-342l318 342h111l-325 -350l340 -350h-114l-330 340v-340h-85v700h85z" />
<glyph unicode="&#x40d;" horiz-adv-x="746" d="M223 915h100l81 -140h-62zM494 700h164v-700h-85v675h-2l-319 -675h-164v700h85v-675h2z" />
<glyph unicode="&#x40e;" horiz-adv-x="585" d="M141 915h63q0 -37 24.5 -60t66.5 -23t66.5 23t24.5 60h63q0 -62 -41.5 -101t-112.5 -39t-112.5 39t-41.5 101zM265 0h-89l87 200l-243 500h91l195 -402l175 402h89z" />
<glyph unicode="&#x40f;" horiz-adv-x="711" d="M88 700h85v-622h365v622h85v-700h-225v-140h-85v140h-225v700z" />
<glyph unicode="&#x410;" horiz-adv-x="660" d="M329 675l-142 -419h286l-142 419h-2zM101 0h-91l245 700h150l245 -700h-91l-60 178h-338z" />
<glyph unicode="&#x411;" horiz-adv-x="633" d="M173 78h205q58 0 96.5 38t38.5 97t-38.5 97t-96.5 38h-205v-270zM173 426h206q94 0 156.5 -60t62.5 -153t-62.5 -153t-156.5 -60h-291v700h445v-78h-360v-196z" />
<glyph unicode="&#x412;" horiz-adv-x="676" d="M381 327h-208v-250h208q70 0 116 29t46 96t-46 96t-116 29zM364 623h-191v-224h191q62 0 103 26t41 86t-41 86t-103 26zM382 0h-294v700h277q46 0 84.5 -9t72 -29t52.5 -57t19 -88q0 -99 -88 -147q123 -49 123 -174q0 -72 -37 -117.5t-89 -62t-120 -16.5z" />
<glyph unicode="&#x413;" horiz-adv-x="548" d="M173 0h-85v700h450v-78h-365v-622z" />
<glyph unicode="&#x414;" horiz-adv-x="730" d="M175 78h355v544h-300v-244q0 -190 -55 -300zM20 -140v218h60q65 102 65 300v322h470v-622h75v-218h-85v140h-500v-140h-85z" />
<glyph unicode="&#x415;" d="M173 317v-239h385v-78h-470v700h458v-78h-373v-229h349v-76h-349z" />
<glyph unicode="&#x416;" horiz-adv-x="869" d="M477 700v-342l275 342h104l-281 -350l296 -350h-107l-287 340v-340h-85v340l-287 -340h-107l296 350l-281 350h104l275 -342v342h85z" />
<glyph unicode="&#x417;" horiz-adv-x="614" d="M307 312h-73v77h70q70 0 114.5 28t44.5 90q0 63 -45.5 95t-113.5 32q-66 0 -110 -33.5t-50 -99.5h-85q7 103 76 156.5t169 53.5q102 0 173 -52t71 -153q0 -105 -91 -152q115 -46 115 -160q0 -68 -39.5 -116t-97.5 -68.5t-128 -20.5q-107 0 -182.5 54t-82.5 156h85 q6 -65 57 -99t123 -34q74 0 127 32t53 95q0 62 -52 90.5t-128 28.5z" />
<glyph unicode="&#x418;" horiz-adv-x="746" d="M494 700h164v-700h-85v675h-2l-319 -675h-164v700h85v-675h2z" />
<glyph unicode="&#x419;" horiz-adv-x="746" d="M219 915h63q0 -37 24.5 -60t66.5 -23t66.5 23t24.5 60h63q0 -62 -41.5 -101t-112.5 -39t-112.5 39t-41.5 101zM494 700h164v-700h-85v675h-2l-319 -675h-164v700h85v-675h2z" />
<glyph unicode="&#x41a;" horiz-adv-x="615" d="M173 700v-342l318 342h111l-325 -350l340 -350h-114l-330 340v-340h-85v700h85z" />
<glyph unicode="&#x41b;" horiz-adv-x="711" d="M37 0h-27v78h20q33 0 56.5 17t35 39.5t18 58.5t7.5 59t1 56v392h475v-700h-85v622h-305v-314q0 -31 -0.5 -52.5t-5 -56t-11.5 -59.5t-21.5 -53t-35 -45.5t-51.5 -29.5t-71 -12z" />
<glyph unicode="&#x41c;" horiz-adv-x="896" d="M250 700l197 -675h2l197 675h162v-700h-85v675h-2l-197 -675h-152l-197 675h-2v-675h-85v700h162z" />
<glyph unicode="&#x41d;" horiz-adv-x="711" d="M88 0v700h85v-305h365v305h85v-700h-85v317h-365v-317h-85z" />
<glyph unicode="&#x41e;" horiz-adv-x="736" d="M40 350q0 71 19.5 134t58 114.5t103 82t147.5 30.5t147.5 -30.5t103 -82t58 -114.5t19.5 -134t-19.5 -134t-58 -114.5t-103 -82t-147.5 -30.5t-147.5 30.5t-103 82t-58 114.5t-19.5 134zM611 350q0 55 -14 104t-42.5 89.5t-76.5 64.5t-110 24t-110 -24t-76.5 -64.5 t-42.5 -89.5t-14 -104t14 -104t42.5 -89.5t76.5 -64.5t110 -24t110 24t76.5 64.5t42.5 89.5t14 104z" />
<glyph unicode="&#x41f;" horiz-adv-x="711" d="M88 0v700h535v-700h-85v622h-365v-622h-85z" />
<glyph unicode="&#x420;" horiz-adv-x="633" d="M363 622h-190v-300h190q65 0 107.5 42.5t42.5 107.5t-42.5 107.5t-107.5 42.5zM364 244h-191v-244h-85v700h276q101 0 167.5 -64.5t66.5 -163.5t-66.5 -163.5t-167.5 -64.5z" />
<glyph unicode="&#x421;" horiz-adv-x="708" d="M582 250h86q-20 -119 -93 -190t-207 -71q-83 0 -147.5 30.5t-103 82t-58 114.5t-19.5 134t19.5 134t58 114.5t103 82t147.5 30.5q134 0 207 -71t93 -190h-86q-36 182 -214 182q-62 0 -110 -24t-76.5 -64.5t-42.5 -89.5t-14 -104t14 -104t42.5 -89.5t76.5 -64.5t110 -24 q178 0 214 182z" />
<glyph unicode="&#x422;" horiz-adv-x="573" d="M329 622v-622h-85v622h-223v78h531v-78h-223z" />
<glyph unicode="&#x423;" horiz-adv-x="585" d="M265 0h-89l87 200l-243 500h91l195 -402l175 402h89z" />
<glyph unicode="&#x424;" horiz-adv-x="811" d="M115 350q0 -86 65.5 -149t182.5 -63v424q-117 0 -182.5 -63t-65.5 -149zM696 350q0 86 -65 149t-183 63v-424q118 0 183 63t65 149zM781 350q0 -56 -21 -107t-61 -92.5t-105 -66t-146 -24.5v-80h-85v80q-81 0 -146 24.5t-105 66t-61 92.5t-21 107t21 107t61 92.5t105 66 t146 24.5v80h85v-80q81 0 146 -24.5t105 -66t61 -92.5t21 -107z" />
<glyph unicode="&#x425;" horiz-adv-x="600" d="M565 700l-178 -334l199 -366h-96l-189 354h-2l-189 -354h-96l199 366l-178 334h94l170 -321h2l170 321h94z" />
<glyph unicode="&#x426;" horiz-adv-x="713" d="M88 700h85v-622h345v622h85v-622h70v-218h-85v140h-500v700z" />
<glyph unicode="&#x427;" horiz-adv-x="656" d="M483 700h85v-700h-85v271q-89 -34 -172 -34q-117 0 -180 57.5t-63 166.5v239h85v-215q0 -86 34.5 -128t121.5 -42q84 0 174 37v348z" />
<glyph unicode="&#x428;" horiz-adv-x="1021" d="M88 700h85v-622h295v622h85v-622h295v622h85v-700h-845v700z" />
<glyph unicode="&#x429;" horiz-adv-x="1043" d="M88 700h85v-622h295v622h85v-622h295v622h85v-622h70v-218h-85v140h-830v700z" />
<glyph unicode="&#x42a;" horiz-adv-x="715" d="M255 78h190q65 0 107.5 42.5t42.5 107.5t-42.5 107.5t-107.5 42.5h-190v-300zM5 700h250v-244h191q101 0 167.5 -64.5t66.5 -163.5t-66.5 -163.5t-167.5 -64.5h-276v622h-165v78z" />
<glyph unicode="&#x42b;" horiz-adv-x="861" d="M173 78h190q65 0 107.5 42.5t42.5 107.5t-42.5 107.5t-107.5 42.5h-190v-300zM173 456h191q101 0 167.5 -64.5t66.5 -163.5t-66.5 -163.5t-167.5 -64.5h-276v700h85v-244zM773 0h-85v700h85v-700z" />
<glyph unicode="&#x42c;" horiz-adv-x="633" d="M173 78h190q65 0 107.5 42.5t42.5 107.5t-42.5 107.5t-107.5 42.5h-190v-300zM173 456h191q101 0 167.5 -64.5t66.5 -163.5t-66.5 -163.5t-167.5 -64.5h-276v700h85v-244z" />
<glyph unicode="&#x42d;" horiz-adv-x="707" d="M339 68q110 0 170.5 69t70.5 174h-321v78h321q-10 105 -70.5 174t-170.5 69q-173 0 -213 -175h-86q21 115 94.5 184.5t204.5 69.5q83 0 147.5 -30.5t103 -82t58 -114.5t19.5 -134t-19.5 -134t-58 -114.5t-103 -82t-147.5 -30.5q-131 0 -204.5 69.5t-94.5 184.5h86 q40 -175 213 -175z" />
<glyph unicode="&#x42e;" horiz-adv-x="1007" d="M882 350q0 55 -14 104t-42.5 89.5t-76.5 64.5t-110 24t-110 -24t-76.5 -64.5t-42.5 -89.5t-14 -104t14 -104t42.5 -89.5t76.5 -64.5t110 -24t110 24t76.5 64.5t42.5 89.5t14 104zM173 0h-85v700h85v-305h140q8 87 43.5 156t108.5 114.5t174 45.5q83 0 147.5 -30.5 t103 -82t58 -114.5t19.5 -134t-19.5 -134t-58 -114.5t-103 -82t-147.5 -30.5q-152 0 -235 94.5t-92 233.5h-139v-317z" />
<glyph unicode="&#x42f;" horiz-adv-x="665" d="M492 342v280h-200q-61 0 -100.5 -39.5t-39.5 -100.5t39.5 -100.5t100.5 -39.5h200zM291 700h286v-700h-85v265h-167l-170 -265h-99l175 272q-74 18 -119 75t-45 135q0 95 63.5 156.5t160.5 61.5z" />
<glyph unicode="&#x430;" d="M452 250q0 78 -41.5 132t-122.5 54t-122.5 -54t-41.5 -132t41.5 -132t122.5 -54t122.5 54t41.5 132zM534 0h-82v67q-61 -78 -174 -78q-62 0 -109 22.5t-73.5 60.5t-40 83t-13.5 95t13.5 95t40 83t73.5 60.5t109 22.5q113 0 174 -78v67h82v-500z" />
<glyph unicode="&#x431;" horiz-adv-x="581" d="M129 235q0 -71 41.5 -121t122.5 -50t122.5 50t41.5 121t-41.5 121t-122.5 50t-122.5 -50t-41.5 -121zM538 750v-74q-32 -8 -135.5 -23.5t-144.5 -34.5q-104 -47 -126 -214q46 77 163 77q120 0 182 -72t62 -174t-62.5 -174t-183.5 -72q-123 0 -184.5 76t-61.5 195 q0 55 2 95.5t12 94t26.5 92.5t48.5 76t77 59q54 26 174.5 45.5t150.5 27.5z" />
<glyph unicode="&#x432;" horiz-adv-x="527" d="M303 227h-148v-152h148q102 0 102 76t-102 76zM292 425h-137v-132h137q88 0 88 66t-88 66zM303 0h-230v500h218q73 0 122 -31t49 -105q0 -65 -56 -100q81 -36 81 -118q0 -78 -53 -112t-131 -34z" />
<glyph unicode="&#x433;" horiz-adv-x="413" d="M403 500v-75h-248v-425h-82v500h330z" />
<glyph unicode="&#x434;" horiz-adv-x="580" d="M154 75h266v350h-229v-141q0 -129 -37 -209zM20 -140v215h43q46 72 46 209v216h393v-425h53v-215h-82v140h-371v-140h-82z" />
<glyph unicode="&#x435;" horiz-adv-x="556" d="M128 295h300q-11 62 -48.5 101.5t-101.5 39.5t-101.5 -39.5t-48.5 -101.5zM416 145h86q-43 -156 -224 -156q-116 0 -176 76.5t-60 184.5t60 184.5t176 76.5t176 -76.5t60 -184.5v-25h-389q6 -69 44.5 -115t108.5 -46q107 0 138 81z" />
<glyph unicode="&#x436;" horiz-adv-x="716" d="M399 500v-242l196 242h98l-204 -250l219 -250h-102l-207 240v-240h-82v240l-207 -240h-102l219 250l-204 250h98l196 -242v242h82z" />
<glyph unicode="&#x437;" horiz-adv-x="480" d="M239 218h-46v70h45q44 0 74 18.5t30 57.5t-30 57.5t-74 18.5t-72.5 -21t-32.5 -63h-82q6 76 58.5 115.5t130.5 39.5q76 0 130 -37.5t54 -108.5q0 -75 -63 -110q79 -36 79 -116q0 -73 -58.5 -111.5t-139.5 -38.5q-82 0 -139.5 40t-62.5 116h82q4 -41 37 -63t80 -22 q50 0 84.5 20t34.5 59t-34.5 59t-84.5 20z" />
<glyph unicode="&#x438;" horiz-adv-x="586" d="M355 500h158v-500h-82v480h-2l-198 -480h-158v500h82v-480h2z" />
<glyph unicode="&#x439;" horiz-adv-x="586" d="M139 715h63q0 -37 24.5 -60t66.5 -23t66.5 23t24.5 60h63q0 -62 -41.5 -101t-112.5 -39t-112.5 39t-41.5 101zM355 500h158v-500h-82v480h-2l-198 -480h-158v500h82v-480h2z" />
<glyph unicode="&#x43a;" horiz-adv-x="517" d="M155 500v-242l234 242h105l-242 -250l257 -250h-110l-244 240v-240h-82v500h82z" />
<glyph unicode="&#x43b;" horiz-adv-x="563" d="M28 0h-23v75h16q21 0 36 10.5t22.5 24t12 35.5t5 36t0.5 34v285h393v-500h-82v425h-229v-210q0 -31 -1.5 -53t-9.5 -55.5t-23 -54t-45 -36.5t-72 -16z" />
<glyph unicode="&#x43c;" horiz-adv-x="716" d="M155 0h-82v500h154l130 -480h2l130 480h154v-500h-82v480h-2l-130 -480h-142l-130 480h-2v-480z" />
<glyph unicode="&#x43d;" horiz-adv-x="571" d="M498 0h-82v213h-261v-213h-82v500h82v-212h261v212h82v-500z" />
<glyph unicode="&#x43e;" horiz-adv-x="576" d="M42 250q0 108 62.5 184.5t183.5 76.5t183.5 -76.5t62.5 -184.5t-62.5 -184.5t-183.5 -76.5t-183.5 76.5t-62.5 184.5zM452 250q0 78 -41.5 132t-122.5 54t-122.5 -54t-41.5 -132t41.5 -132t122.5 -54t122.5 54t41.5 132z" />
<glyph unicode="&#x43f;" horiz-adv-x="571" d="M498 0h-82v425h-261v-425h-82v500h425v-500z" />
<glyph unicode="&#x440;" d="M155 250q0 -78 41.5 -132t122.5 -54t122.5 54t41.5 132t-41.5 132t-122.5 54t-122.5 -54t-41.5 -132zM155 67v-262h-82v695h82v-67q61 78 174 78q62 0 109 -22.5t73.5 -60.5t40 -83t13.5 -95t-13.5 -95t-40 -83t-73.5 -60.5t-109 -22.5q-113 0 -174 78z" />
<glyph unicode="&#x441;" horiz-adv-x="555" d="M430 175h83q-16 -84 -70.5 -135t-154.5 -51q-121 0 -183.5 76.5t-62.5 184.5t62.5 184.5t183.5 76.5q100 0 154.5 -51t70.5 -135h-83q-26 111 -142 111q-81 0 -122.5 -54t-41.5 -132t41.5 -132t122.5 -54q116 0 142 111z" />
<glyph unicode="&#x442;" horiz-adv-x="460" d="M445 500v-75h-174v-425h-82v425h-174v75h430z" />
<glyph unicode="&#x443;" horiz-adv-x="520" d="M506 500l-230 -695h-86l64 195h-70l-170 500h86l159 -480h2l159 480h86z" />
<glyph unicode="&#x444;" horiz-adv-x="728" d="M323 64v372q-94 0 -146.5 -55t-52.5 -131t52.5 -131t146.5 -55zM405 436v-372q94 0 146.5 55t52.5 131t-52.5 131t-146.5 55zM405 -11v-184h-82v184q-133 0 -207 77.5t-74 183.5t74 183.5t207 77.5v189h82v-189q133 0 207 -77.5t74 -183.5t-74 -183.5t-207 -77.5z" />
<glyph unicode="&#x445;" horiz-adv-x="496" d="M171 257l-145 243h92l129 -234h2l129 234h92l-145 -243l157 -257h-94l-139 248h-2l-139 -248h-94z" />
<glyph unicode="&#x446;" horiz-adv-x="585" d="M406 75v425h82v-425h72v-215h-82v140h-405v500h82v-425h251z" />
<glyph unicode="&#x447;" horiz-adv-x="541" d="M386 500h82v-500h-82v180q-52 -20 -137 -20q-196 0 -196 190v150h82v-147q0 -62 28.5 -90t89.5 -28q82 0 133 20v245z" />
<glyph unicode="&#x448;" horiz-adv-x="864" d="M391 75v425h82v-425h236v425h82v-500h-718v500h82v-425h236z" />
<glyph unicode="&#x449;" horiz-adv-x="888" d="M391 75v425h82v-425h236v425h82v-425h72v-215h-82v140h-708v500h82v-425h236z" />
<glyph unicode="&#x44a;" horiz-adv-x="560" d="M443 160q0 37 -24 61t-61 24h-141v-170h141q37 0 61 24t24 61zM358 0h-223v425h-130v75h212v-180h141q72 0 119.5 -45.5t47.5 -114.5t-47.5 -114.5t-119.5 -45.5z" />
<glyph unicode="&#x44b;" horiz-adv-x="698" d="M381 160q0 37 -24 61t-61 24h-141v-170h141q37 0 61 24t24 61zM296 0h-223v500h82v-180h141q72 0 119.5 -45.5t47.5 -114.5t-47.5 -114.5t-119.5 -45.5zM625 500v-500h-82v500h82z" />
<glyph unicode="&#x44c;" horiz-adv-x="498" d="M381 160q0 37 -24 61t-61 24h-141v-170h141q37 0 61 24t24 61zM296 0h-223v500h82v-180h141q72 0 119.5 -45.5t47.5 -114.5t-47.5 -114.5t-119.5 -45.5z" />
<glyph unicode="&#x44d;" horiz-adv-x="555" d="M267 -11q-100 0 -155 51t-70 135h84q25 -111 141 -111q71 0 111.5 42t49.5 107h-216v74h216q-9 65 -49.5 107t-111.5 42q-116 0 -141 -111h-84q15 84 70 135t155 51q121 0 183.5 -76.5t62.5 -184.5t-62.5 -184.5t-183.5 -76.5z" />
<glyph unicode="&#x44e;" horiz-adv-x="797" d="M673 250q0 78 -41.5 132t-122.5 54t-122.5 -54t-41.5 -132t41.5 -132t122.5 -54t122.5 54t41.5 132zM155 0h-82v500h82v-212h110q11 95 72.5 159t171.5 64q121 0 183.5 -76.5t62.5 -184.5t-62.5 -184.5t-183.5 -76.5q-111 0 -172 64t-72 160h-110v-213z" />
<glyph unicode="&#x44f;" horiz-adv-x="508" d="M127 340q0 -37 24 -61t61 -24h141v170h-141q-37 0 -61 -24t-24 -61zM212 500h223v-500h-82v181h-115q-68 -87 -113 -181h-90q46 108 110 193q-45 17 -72.5 57t-27.5 90q0 69 47.5 114.5t119.5 45.5z" />
<glyph unicode="&#x450;" horiz-adv-x="556" d="M128 295h300q-11 62 -48.5 101.5t-101.5 39.5t-101.5 -39.5t-48.5 -101.5zM416 145h86q-43 -156 -224 -156q-116 0 -176 76.5t-60 184.5t60 184.5t176 76.5t176 -76.5t60 -184.5v-25h-389q6 -69 44.5 -115t108.5 -46q107 0 138 81zM247 575l-119 140h100l81 -140h-62z " />
<glyph unicode="&#x451;" horiz-adv-x="556" d="M128 295h300q-11 62 -48.5 101.5t-101.5 39.5t-101.5 -39.5t-48.5 -101.5zM416 145h86q-43 -156 -224 -156q-116 0 -176 76.5t-60 184.5t60 184.5t176 76.5t176 -76.5t60 -184.5v-25h-389q6 -69 44.5 -115t108.5 -46q107 0 138 81zM137 630q0 21 14.5 35.5t35.5 14.5 t35.5 -14.5t14.5 -35.5t-14.5 -35.5t-35.5 -14.5t-35.5 14.5t-14.5 35.5zM319 630q0 21 14.5 35.5t35.5 14.5t35.5 -14.5t14.5 -35.5t-14.5 -35.5t-35.5 -14.5t-35.5 14.5t-14.5 35.5z" />
<glyph unicode="&#x452;" horiz-adv-x="586" d="M343 -202v72q18 -3 34 -3q59 0 59 67v368q0 70 -25 102t-85 32q-67 0 -109 -44t-42 -121v-271h-82v574h-50v66h50v60h82v-60h150v-66h-150v-151q24 42 67 65t95 23q181 0 181 -207v-370q0 -68 -32.5 -104t-96.5 -36q-23 0 -46 4z" />
<glyph unicode="&#x453;" horiz-adv-x="413" d="M388 715l-119 -140h-62l81 140h100zM403 500v-75h-248v-425h-82v500h330z" />
<glyph unicode="&#x454;" horiz-adv-x="555" d="M288 -11q-121 0 -183.5 76.5t-62.5 184.5t62.5 184.5t183.5 76.5q100 0 155 -51t70 -135h-84q-25 111 -141 111q-71 0 -111.5 -42t-49.5 -107h216v-74h-216q9 -65 49.5 -107t111.5 -42q116 0 141 111h84q-15 -84 -70 -135t-155 -51z" />
<glyph unicode="&#x455;" horiz-adv-x="480" d="M40 145h82q4 -41 37 -63t80 -22q50 0 84.5 20t34.5 59q0 28 -22.5 45t-57 22.5t-74 14.5t-74 20.5t-57 41.5t-22.5 77q0 75 54 113t132 38q77 0 129 -39.5t58 -115.5h-82q-4 42 -32.5 63t-72.5 21t-74 -18.5t-30 -57.5q0 -28 22.5 -44.5t57 -21.5t74 -14t74 -20.5t57 -42 t22.5 -78.5q0 -75 -58.5 -114.5t-142.5 -39.5q-80 0 -137 40t-62 116z" />
<glyph unicode="&#x456;" horiz-adv-x="228" d="M62 664q0 22 15 37t37 15t37 -15t15 -37t-15 -37t-37 -15t-37 15t-15 37zM73 0v500h82v-500h-82z" />
<glyph unicode="&#x457;" horiz-adv-x="228" d="M-27 630q0 21 14.5 35.5t35.5 14.5t35.5 -14.5t14.5 -35.5t-14.5 -35.5t-35.5 -14.5t-35.5 14.5t-14.5 35.5zM155 630q0 21 14.5 35.5t35.5 14.5t35.5 -14.5t14.5 -35.5t-14.5 -35.5t-35.5 -14.5t-35.5 14.5t-14.5 35.5zM73 0v500h82v-500h-82z" />
<glyph unicode="&#x458;" horiz-adv-x="228" d="M62 664q0 22 15 37t37 15t37 -15t15 -37t-15 -37t-37 -15t-37 15t-15 37zM-20 -202v72q18 -3 34 -3q59 0 59 67v566h82v-566q0 -68 -32.5 -104t-96.5 -36q-23 0 -46 4z" />
<glyph unicode="&#x459;" horiz-adv-x="803" d="M686 156q0 35 -23 58t-58 23h-135v-162h135q35 0 58 23t23 58zM28 0h-23v75h16q21 0 36 10.5t22.5 24t12 35.5t5 36t0.5 34v285h373v-188h135q70 0 116.5 -44t46.5 -112t-46.5 -112t-116.5 -44h-217v425h-209v-210q0 -31 -1.5 -53t-9.5 -55.5t-23 -54t-45 -36.5t-72 -16z " />
<glyph unicode="&#x45a;" horiz-adv-x="811" d="M694 156q0 35 -23 58t-58 23h-135v-162h135q35 0 58 23t23 58zM613 0h-217v237h-241v-237h-82v500h82v-188h241v188h82v-188h135q70 0 116.5 -44t46.5 -112t-46.5 -112t-116.5 -44z" />
<glyph unicode="&#x45b;" horiz-adv-x="586" d="M175 0h-82v574h-50v66h50v60h82v-60h150v-66h-150v-151q24 42 67 65t95 23q181 0 181 -207v-304h-82v302q0 70 -25 102t-85 32q-67 0 -109 -44t-42 -121v-271z" />
<glyph unicode="&#x45c;" horiz-adv-x="517" d="M441 715l-119 -140h-62l81 140h100zM155 500v-242l234 242h105l-242 -250l257 -250h-110l-244 240v-240h-82v500h82z" />
<glyph unicode="&#x45d;" horiz-adv-x="586" d="M143 715h100l81 -140h-62zM355 500h158v-500h-82v480h-2l-198 -480h-158v500h82v-480h2z" />
<glyph unicode="&#x45e;" horiz-adv-x="520" d="M106 715h63q0 -37 24.5 -60t66.5 -23t66.5 23t24.5 60h63q0 -62 -41.5 -101t-112.5 -39t-112.5 39t-41.5 101zM506 500l-230 -695h-86l64 195h-70l-170 500h86l159 -480h2l159 480h86z" />
<glyph unicode="&#x45f;" horiz-adv-x="571" d="M416 75v425h82v-500h-171v-140h-82v140h-172v500h82v-425h261z" />
<glyph unicode="&#x462;" horiz-adv-x="640" d="M200 78h179q61 0 101 40t40 101t-40 101t-101 40h-179v-282zM380 0h-265v572h-95v70h95v58h85v-58h185v-70h-185v-134h180q98 0 161.5 -62t63.5 -157t-63.5 -157t-161.5 -62z" />
<glyph unicode="&#x463;" horiz-adv-x="525" d="M408 160q0 37 -24 61t-61 24h-141v-170h141q37 0 61 24t24 61zM323 0h-223v471h-85v66h85v163h82v-163h150v-66h-150v-151h141q72 0 119.5 -45.5t47.5 -114.5t-47.5 -114.5t-119.5 -45.5z" />
<glyph unicode="&#x48a;" horiz-adv-x="737" d="M208 915h54q0 -41 26 -66.5t70 -25.5t70 25.5t26 66.5h54q0 -62 -40.5 -101t-109.5 -39t-109.5 39t-40.5 101zM528 700h100v-622h89l-80 -218h-85l51 140h-60v566h-2l-353 -566h-100v700h85v-566h2z" />
<glyph unicode="&#x48b;" horiz-adv-x="611" d="M139 715h63q0 -37 24.5 -60t66.5 -23t66.5 23t24.5 60h63q0 -62 -41.5 -101t-112.5 -39t-112.5 39t-41.5 101zM355 500h158v-425h88l-79 -215h-82l51 140h-60v480h-2l-198 -480h-158v500h82v-480h2z" />
<glyph unicode="&#x48c;" horiz-adv-x="640" d="M200 78h179q61 0 101 40t40 101t-40 101t-101 40h-179v-282zM380 0h-265v572h-95v70h95v58h85v-58h185v-70h-185v-134h180q98 0 161.5 -62t63.5 -157t-63.5 -157t-161.5 -62z" />
<glyph unicode="&#x48d;" horiz-adv-x="525" d="M408 160q0 37 -24 61t-61 24h-141v-170h141q37 0 61 24t24 61zM323 0h-223v471h-85v66h85v163h82v-163h150v-66h-150v-151h141q72 0 119.5 -45.5t47.5 -114.5t-47.5 -114.5t-119.5 -45.5z" />
<glyph unicode="&#x48e;" horiz-adv-x="633" d="M363 622h-190v-300h190q22 0 50 7l-67 67l47 47l78 -78q42 42 42 107t-42.5 107.5t-107.5 42.5zM364 244h-191v-244h-85v700h276q101 0 167.5 -64.5t66.5 -163.5q0 -101 -69 -165l69 -69l-47 -47l-77 77q-51 -24 -110 -24z" />
<glyph unicode="&#x48f;" d="M155 250q0 -78 41.5 -132t122.5 -54q36 0 67 13l-64 64l45 45l72 -72q44 53 44 136q0 78 -41.5 132t-122.5 54t-122.5 -54t-41.5 -132zM498 55l67 -67l-45 -45l-73 73q-51 -27 -118 -27q-113 0 -174 78v-262h-82v695h82v-67q61 78 174 78q62 0 109 -22.5t73.5 -60.5 t40 -83t13.5 -95q0 -122 -67 -195z" />
<glyph unicode="&#x490;" horiz-adv-x="548" d="M173 0h-85v700h365v130h85v-208h-365v-622z" />
<glyph unicode="&#x491;" horiz-adv-x="413" d="M403 610v-185h-248v-425h-82v500h248v110h82z" />
<glyph unicode="&#x492;" horiz-adv-x="575" d="M200 0h-85v315h-95v70h95v315h450v-78h-365v-237h185v-70h-185v-315z" />
<glyph unicode="&#x493;" horiz-adv-x="440" d="M430 500v-75h-248v-144h150v-66h-150v-215h-82v215h-85v66h85v219h330z" />
<glyph unicode="&#x494;" horiz-adv-x="623" d="M173 0h-85v700h450v-78h-365v-235q84 26 156 26q129 0 194 -80.5t65 -210.5q0 -133 -70.5 -218t-205.5 -85v78q94 0 142.5 62t48.5 163q0 97 -47 155t-143 58q-68 0 -140 -25v-310z" />
<glyph unicode="&#x495;" horiz-adv-x="473" d="M155 0h-82v500h330v-75h-248v-154q55 18 103 18q93 0 141.5 -60.5t48.5 -153.5q0 -108 -53 -172t-153 -64v75q61 1 92.5 43.5t31.5 117.5q0 62 -31 100.5t-94 38.5q-44 0 -86 -16v-198z" />
<glyph unicode="&#x496;" horiz-adv-x="919" d="M477 700v-342l275 342h104l-281 -350l230 -272h114v-218h-85v140h-70l-287 340v-340h-85v340l-287 -340h-107l296 350l-281 350h104l275 -342v342h85z" />
<glyph unicode="&#x497;" horiz-adv-x="760" d="M399 500v-242l196 242h98l-204 -250l153 -175h118v-215h-82v140h-72l-207 240v-240h-82v240l-207 -240h-102l219 250l-204 250h98l196 -242v242h82z" />
<glyph unicode="&#x498;" horiz-adv-x="614" d="M307 312h-73v77h70q70 0 114.5 28t44.5 90q0 63 -45.5 95t-113.5 32q-66 0 -110 -33.5t-50 -99.5h-85q7 103 76 156.5t169 53.5q102 0 173 -52t71 -153q0 -105 -91 -152q115 -46 115 -160q0 -90 -63 -141.5t-159 -61.5v-131h-85v131q-93 10 -155 63t-68 145h85 q6 -65 57 -99t123 -34q74 0 127 32t53 95q0 62 -52 90.5t-128 28.5z" />
<glyph unicode="&#x499;" horiz-adv-x="480" d="M239 218h-46v70h45q44 0 74 18.5t30 57.5t-30 57.5t-74 18.5t-72.5 -21t-32.5 -63h-82q6 76 58.5 115.5t130.5 39.5q76 0 130 -37.5t54 -108.5q0 -75 -63 -110q79 -35 79 -116q0 -63 -44.5 -100.5t-112.5 -46.5v-132h-82v132q-68 10 -112.5 48.5t-48.5 104.5h82 q4 -41 37 -63t80 -22q50 0 84.5 20t34.5 59t-34.5 59t-84.5 20z" />
<glyph unicode="&#x49a;" horiz-adv-x="658" d="M173 700v-342l318 342h111l-325 -350l264 -272h117v-218h-85v140h-70l-330 340v-340h-85v700h85z" />
<glyph unicode="&#x49b;" horiz-adv-x="553" d="M155 700v-442l234 242h105l-242 -250l180 -175h121v-215h-82v140h-72l-244 240v-240h-82v700h82z" />
<glyph unicode="&#x49c;" horiz-adv-x="656" d="M88 0v700h85v-316h60v131h66v-131h44l203 316h97l-225 -350l240 -350h-100l-215 315h-44v-131h-66v131h-60v-315h-85z" />
<glyph unicode="&#x49d;" horiz-adv-x="552" d="M73 0v500h82v-217h50v95h60v-95h36l139 217h89l-160 -250l175 -250h-94l-150 216h-35v-95h-60v95h-50v-216h-82z" />
<glyph unicode="&#x49e;" horiz-adv-x="642" d="M200 572v-214l318 342h111l-325 -350l340 -350h-114l-330 340v-340h-85v572h-95v70h95v58h85v-58h120v-70h-120z" />
<glyph unicode="&#x49f;" horiz-adv-x="544" d="M182 0h-82v574h-85v66h85v60h82v-60h150v-66h-150v-316l234 242h105l-242 -250l257 -250h-110l-244 240v-240z" />
<glyph unicode="&#x4a0;" horiz-adv-x="877" d="M435 0h-85v622h-340v78h425v-342l318 342h111l-325 -350l340 -350h-114l-330 340v-340z" />
<glyph unicode="&#x4a1;" horiz-adv-x="682" d="M320 240v-240h-82v425h-228v75h310v-242l234 242h105l-242 -250l257 -250h-110z" />
<glyph unicode="&#x4a2;" horiz-adv-x="716" d="M88 0v700h85v-305h365v305h85v-622h70v-218h-85v140h-70v317h-365v-317h-85z" />
<glyph unicode="&#x4a3;" horiz-adv-x="594" d="M488 0h-72v213h-261v-213h-82v500h82v-212h261v212h82v-425h72v-215h-82v140z" />
<glyph unicode="&#x4a4;" horiz-adv-x="948" d="M88 0v700h85v-305h340v305h425v-78h-340v-622h-85v317h-340v-317h-85z" />
<glyph unicode="&#x4a5;" horiz-adv-x="716" d="M478 0h-82v213h-241v-213h-82v500h82v-212h241v212h310v-75h-228v-425z" />
<glyph unicode="&#x4a6;" horiz-adv-x="1073" d="M88 0v700h535v-313q84 26 156 26q129 0 194 -80.5t65 -210.5q0 -133 -70.5 -218t-205.5 -85v78q94 0 142.5 62t48.5 163q0 97 -47 155t-143 58q-68 0 -140 -25v-310h-85v622h-365v-622h-85z" />
<glyph unicode="&#x4a7;" horiz-adv-x="816" d="M498 0h-82v425h-261v-425h-82v500h425v-229q56 18 103 18q93 0 141.5 -60.5t48.5 -153.5q0 -108 -53 -172t-153 -64v75q61 1 92.5 43.5t31.5 117.5q0 62 -31 100.5t-94 38.5q-44 0 -86 -16v-198z" />
<glyph unicode="&#x4aa;" horiz-adv-x="708" d="M582 250h86q-19 -109 -81.5 -178.5t-175.5 -80.5v-131h-85v131q-141 15 -213.5 117t-72.5 242q0 71 19.5 134t58 114.5t103 82t147.5 30.5q134 0 207 -71t93 -190h-86q-36 182 -214 182q-62 0 -110 -24t-76.5 -64.5t-42.5 -89.5t-14 -104t14 -104t42.5 -89.5t76.5 -64.5 t110 -24q178 0 214 182z" />
<glyph unicode="&#x4ab;" horiz-adv-x="555" d="M430 175h83q-30 -163 -184 -183v-132h-82v132q-69 9 -116.5 49t-68 93.5t-20.5 115.5q0 108 62.5 184.5t183.5 76.5q100 0 154.5 -51t70.5 -135h-83q-26 111 -142 111q-81 0 -122.5 -54t-41.5 -132t41.5 -132t122.5 -54q116 0 142 111z" />
<glyph unicode="&#x4ac;" horiz-adv-x="573" d="M329 622v-544h70v-218h-85v140h-70v622h-223v78h531v-78h-223z" />
<glyph unicode="&#x4ad;" horiz-adv-x="460" d="M445 500v-75h-174v-350h72v-215h-82v140h-72v425h-174v75h430z" />
<glyph unicode="&#x4ae;" horiz-adv-x="613" d="M233 280l-218 420h93l198 -395h1l198 395h93l-218 -420h-31v-280h-85v280h-31z" />
<glyph unicode="&#x4af;" horiz-adv-x="508" d="M499 500l-171 -500h-33v-195h-82v195h-33l-171 500h86l158 -480h2l158 480h86z" />
<glyph unicode="&#x4b0;" horiz-adv-x="613" d="M233 280l-218 420h93l198 -395h1l198 395h93l-218 -420h138v-54h-169v-226h-85v226h-169v54h138z" />
<glyph unicode="&#x4b1;" horiz-adv-x="508" d="M499 500l-171 -500h126v-54h-159v-141h-82v141h-159v54h126l-171 500h86l158 -480h2l158 480h86z" />
<glyph unicode="&#x4b2;" horiz-adv-x="635" d="M565 700l-178 -334l157 -288h101v-218h-85v140h-70l-189 354h-2l-189 -354h-96l199 366l-178 334h94l170 -321h2l170 321h94z" />
<glyph unicode="&#x4b3;" horiz-adv-x="542" d="M171 257l-145 243h92l129 -234h2l129 234h92l-145 -243l111 -182h106v-215h-82v140h-72l-139 248h-2l-139 -248h-94z" />
<glyph unicode="&#x4b4;" horiz-adv-x="869" d="M329 622v-544h345v622h85v-622h70v-218h-85v140h-500v622h-223v78h516v-78h-208z" />
<glyph unicode="&#x4b5;" horiz-adv-x="701" d="M430 500v-75h-159v-350h251v425h82v-425h72v-215h-82v140h-405v425h-174v75h415z" />
<glyph unicode="&#x4b6;" horiz-adv-x="678" d="M483 700h85v-622h70v-218h-85v140h-70v271q-89 -34 -172 -34q-117 0 -180 57.5t-63 166.5v239h85v-215q0 -86 34.5 -128t121.5 -42q84 0 174 37v348z" />
<glyph unicode="&#x4b7;" horiz-adv-x="565" d="M386 500h82v-425h72v-215h-82v140h-72v180q-52 -20 -137 -20q-196 0 -196 190v150h82v-147q0 -62 28.5 -90t89.5 -28q82 0 133 20v245z" />
<glyph unicode="&#x4b8;" horiz-adv-x="656" d="M483 700h85v-700h-85v271q-68 -27 -141 -33v-127h-66v127q-101 9 -154.5 65.5t-53.5 157.5v239h85v-215q0 -78 27.5 -119.5t95.5 -48.5v124h66v-125q68 6 141 36v348z" />
<glyph unicode="&#x4b9;" horiz-adv-x="541" d="M285 61h-64v100q-168 13 -168 189v150h82v-147q0 -103 86 -116v104h64v-105q61 3 101 19v245h82v-500h-82v180q-40 -16 -101 -19v-100z" />
<glyph unicode="&#x4ba;" horiz-adv-x="656" d="M173 0h-85v700h85v-271q89 34 172 34q117 0 180 -57.5t63 -166.5v-239h-85v215q0 86 -34.5 128t-121.5 42q-84 0 -174 -37v-348z" />
<glyph unicode="&#x4bb;" horiz-adv-x="566" d="M498 0h-82v302q0 70 -25 102t-85 32q-67 0 -109 -44t-42 -121v-271h-82v700h82v-277q24 42 67 65t95 23q181 0 181 -207v-304z" />
<glyph unicode="&#x4c0;" horiz-adv-x="261" d="M88 0v700h85v-700h-85z" />
<glyph unicode="&#x4c1;" horiz-adv-x="869" d="M281 915h63q0 -37 24.5 -60t66.5 -23t66.5 23t24.5 60h63q0 -62 -41.5 -101t-112.5 -39t-112.5 39t-41.5 101zM477 700v-342l275 342h104l-281 -350l296 -350h-107l-287 340v-340h-85v340l-287 -340h-107l296 350l-281 350h104l275 -342v342h85z" />
<glyph unicode="&#x4c2;" horiz-adv-x="716" d="M204 715h63q0 -37 24.5 -60t66.5 -23t66.5 23t24.5 60h63q0 -62 -41.5 -101t-112.5 -39t-112.5 39t-41.5 101zM399 500v-242l196 242h98l-204 -250l219 -250h-102l-207 240v-240h-82v240l-207 -240h-102l219 250l-204 250h98l196 -242v242h82z" />
<glyph unicode="&#x4c5;" horiz-adv-x="732" d="M37 0h-27v78h20q33 0 56.5 17t35 39.5t18 58.5t7.5 59t1 56v392h475v-622h89l-80 -218h-85l51 140h-60v622h-305v-314q0 -31 -0.5 -52.5t-5 -56t-11.5 -59.5t-21.5 -53t-35 -45.5t-51.5 -29.5t-71 -12z" />
<glyph unicode="&#x4c6;" horiz-adv-x="588" d="M28 0h-23v75h16q21 0 36 10.5t22.5 24t12 35.5t5 36t0.5 34v285h393v-425h88l-79 -215h-82l51 140h-60v425h-229v-210q0 -31 -1.5 -53t-9.5 -55.5t-23 -54t-45 -36.5t-72 -16z" />
<glyph unicode="&#x4c7;" horiz-adv-x="711" d="M88 0v700h85v-305h365v305h85v-766q0 -68 -32.5 -104t-96.5 -36q-26 0 -49 5v76q18 -3 34 -3q59 0 59 67v378h-365v-317h-85z" />
<glyph unicode="&#x4c8;" horiz-adv-x="571" d="M498 500v-566q0 -68 -32.5 -104t-96.5 -36q-23 0 -46 4v72q18 -3 34 -3q59 0 59 67v279h-261v-213h-82v500h82v-212h261v212h82z" />
<glyph unicode="&#x4c9;" horiz-adv-x="732" d="M88 0v700h85v-305h365v305h85v-622h89l-80 -218h-85l51 140h-60v317h-365v-317h-85z" />
<glyph unicode="&#x4ca;" horiz-adv-x="596" d="M476 0h-60v213h-261v-213h-82v500h82v-212h261v212h82v-425h88l-79 -215h-82z" />
<glyph unicode="&#x4cb;" horiz-adv-x="656" d="M483 700h85v-700h-70v-140h-85v218h70v193q-89 -34 -172 -34q-117 0 -180 57.5t-63 166.5v239h85v-215q0 -86 34.5 -128t121.5 -42q84 0 174 37v348z" />
<glyph unicode="&#x4cc;" horiz-adv-x="541" d="M386 500h82v-500h-72v-140h-82v215h72v105q-52 -20 -137 -20q-196 0 -196 190v150h82v-147q0 -62 28.5 -90t89.5 -28q82 0 133 20v245z" />
<glyph unicode="&#x4cd;" horiz-adv-x="917" d="M646 700h162v-622h89l-80 -218h-85l51 140h-60v675h-2l-197 -675h-152l-197 675h-2v-675h-85v700h162l197 -675h2z" />
<glyph unicode="&#x4ce;" horiz-adv-x="741" d="M489 500h154v-425h88l-79 -215h-82l51 140h-60v480h-2l-130 -480h-142l-130 480h-2v-480h-82v500h154l130 -480h2z" />
<glyph unicode="&#x4cf;" horiz-adv-x="228" d="M73 0v700h82v-700h-82z" />
<glyph unicode="&#x4d0;" horiz-adv-x="660" d="M329 675l-142 -419h286l-142 419h-2zM101 0h-91l245 700h150l245 -700h-91l-60 178h-338zM176 915h63q0 -37 24.5 -60t66.5 -23t66.5 23t24.5 60h63q0 -62 -41.5 -101t-112.5 -39t-112.5 39t-41.5 101z" />
<glyph unicode="&#x4d1;" d="M452 250q0 78 -41.5 132t-122.5 54t-122.5 -54t-41.5 -132t41.5 -132t122.5 -54t122.5 54t41.5 132zM534 0h-82v67q-61 -78 -174 -78q-62 0 -109 22.5t-73.5 60.5t-40 83t-13.5 95t13.5 95t40 83t73.5 60.5t109 22.5q113 0 174 -78v67h82v-500zM134 715h63 q0 -37 24.5 -60t66.5 -23t66.5 23t24.5 60h63q0 -62 -41.5 -101t-112.5 -39t-112.5 39t-41.5 101z" />
<glyph unicode="&#x4d2;" horiz-adv-x="660" d="M329 675l-142 -419h286l-142 419h-2zM101 0h-91l245 700h150l245 -700h-91l-60 178h-338zM189 830q0 21 14.5 35.5t35.5 14.5t35.5 -14.5t14.5 -35.5t-14.5 -35.5t-35.5 -14.5t-35.5 14.5t-14.5 35.5zM371 830q0 21 14.5 35.5t35.5 14.5t35.5 -14.5t14.5 -35.5 t-14.5 -35.5t-35.5 -14.5t-35.5 14.5t-14.5 35.5z" />
<glyph unicode="&#x4d3;" d="M452 250q0 78 -41.5 132t-122.5 54t-122.5 -54t-41.5 -132t41.5 -132t122.5 -54t122.5 54t41.5 132zM534 0h-82v67q-61 -78 -174 -78q-62 0 -109 22.5t-73.5 60.5t-40 83t-13.5 95t13.5 95t40 83t73.5 60.5t109 22.5q113 0 174 -78v67h82v-500zM147 630q0 21 14.5 35.5 t35.5 14.5t35.5 -14.5t14.5 -35.5t-14.5 -35.5t-35.5 -14.5t-35.5 14.5t-14.5 35.5zM329 630q0 21 14.5 35.5t35.5 14.5t35.5 -14.5t14.5 -35.5t-14.5 -35.5t-35.5 -14.5t-35.5 14.5t-14.5 35.5z" />
<glyph unicode="&#x4d4;" horiz-adv-x="1018" d="M497 675l-240 -419h242v419h-2zM110 0h-100l411 700h536v-78h-373v-229h349v-76h-349v-239h385v-78h-470v178h-287z" />
<glyph unicode="&#x4d5;" horiz-adv-x="965" d="M452 250q0 78 -41.5 132t-122.5 54t-122.5 -54t-41.5 -132t41.5 -132t122.5 -54t122.5 54t41.5 132zM537 295h300q-10 62 -48 101.5t-102 39.5t-102 -39.5t-48 -101.5zM534 0h-82v67q-61 -78 -174 -78q-62 0 -109 22.5t-73.5 60.5t-40 83t-13.5 95t13.5 95t40 83 t73.5 60.5t109 22.5q113 0 174 -78v67h82v-67q54 78 155 78q115 0 174.5 -76.5t59.5 -184.5v-25h-389q7 -70 45 -115.5t108 -45.5q107 0 138 81h86q-20 -73 -75.5 -114.5t-146.5 -41.5q-107 0 -155 78v-67z" />
<glyph unicode="&#x4d6;" d="M169 915h63q0 -37 24.5 -60t66.5 -23t66.5 23t24.5 60h63q0 -62 -41.5 -101t-112.5 -39t-112.5 39t-41.5 101zM173 317v-239h385v-78h-470v700h458v-78h-373v-229h349v-76h-349z" />
<glyph unicode="&#x4d7;" horiz-adv-x="556" d="M128 295h300q-11 62 -48.5 101.5t-101.5 39.5t-101.5 -39.5t-48.5 -101.5zM416 145h86q-43 -156 -224 -156q-116 0 -176 76.5t-60 184.5t60 184.5t176 76.5t176 -76.5t60 -184.5v-25h-389q6 -69 44.5 -115t108.5 -46q107 0 138 81zM124 715h63q0 -37 24.5 -60t66.5 -23 t66.5 23t24.5 60h63q0 -62 -41.5 -101t-112.5 -39t-112.5 39t-41.5 101z" />
<glyph unicode="&#x4d8;" horiz-adv-x="716" d="M585 280h-456q27 -212 219 -212q101 0 161 59.5t76 152.5zM676 350q0 -71 -19.5 -134t-58 -114.5t-103 -82t-147.5 -30.5t-144.5 29t-96 80t-51 114t-16.5 138h551q0 55 -14 104t-42.5 89.5t-76.5 64.5t-110 24q-175 0 -213 -175h-86q21 116 94 185t205 69 q83 0 147.5 -30.5t103 -82t58 -114.5t19.5 -134z" />
<glyph unicode="&#x4d9;" horiz-adv-x="556" d="M428 205h-300q11 -62 48.5 -101.5t101.5 -39.5t101.5 39.5t48.5 101.5zM140 355h-86q43 156 224 156q116 0 176 -76.5t60 -184.5t-60 -184.5t-176 -76.5t-176 76.5t-60 184.5v25h389q-6 69 -44.5 115t-108.5 46q-107 0 -138 -81z" />
<glyph unicode="&#x4da;" horiz-adv-x="716" d="M585 280h-456q27 -212 219 -212q101 0 161 59.5t76 152.5zM676 350q0 -71 -19.5 -134t-58 -114.5t-103 -82t-147.5 -30.5t-144.5 29t-96 80t-51 114t-16.5 138h551q0 55 -14 104t-42.5 89.5t-76.5 64.5t-110 24q-175 0 -213 -175h-86q21 116 94 185t205 69 q83 0 147.5 -30.5t103 -82t58 -114.5t19.5 -134zM207 830q0 21 14.5 35.5t35.5 14.5t35.5 -14.5t14.5 -35.5t-14.5 -35.5t-35.5 -14.5t-35.5 14.5t-14.5 35.5zM389 830q0 21 14.5 35.5t35.5 14.5t35.5 -14.5t14.5 -35.5t-14.5 -35.5t-35.5 -14.5t-35.5 14.5t-14.5 35.5z" />
<glyph unicode="&#x4db;" horiz-adv-x="556" d="M428 205h-300q11 -62 48.5 -101.5t101.5 -39.5t101.5 39.5t48.5 101.5zM140 355h-86q43 156 224 156q116 0 176 -76.5t60 -184.5t-60 -184.5t-176 -76.5t-176 76.5t-60 184.5v25h389q-6 69 -44.5 115t-108.5 46q-107 0 -138 -81zM137 630q0 21 14.5 35.5t35.5 14.5 t35.5 -14.5t14.5 -35.5t-14.5 -35.5t-35.5 -14.5t-35.5 14.5t-14.5 35.5zM319 630q0 21 14.5 35.5t35.5 14.5t35.5 -14.5t14.5 -35.5t-14.5 -35.5t-35.5 -14.5t-35.5 14.5t-14.5 35.5z" />
<glyph unicode="&#x4dc;" horiz-adv-x="869" d="M294 830q0 21 14.5 35.5t35.5 14.5t35.5 -14.5t14.5 -35.5t-14.5 -35.5t-35.5 -14.5t-35.5 14.5t-14.5 35.5zM476 830q0 21 14.5 35.5t35.5 14.5t35.5 -14.5t14.5 -35.5t-14.5 -35.5t-35.5 -14.5t-35.5 14.5t-14.5 35.5zM477 700v-342l275 342h104l-281 -350l296 -350 h-107l-287 340v-340h-85v340l-287 -340h-107l296 350l-281 350h104l275 -342v342h85z" />
<glyph unicode="&#x4dd;" horiz-adv-x="716" d="M217 630q0 21 14.5 35.5t35.5 14.5t35.5 -14.5t14.5 -35.5t-14.5 -35.5t-35.5 -14.5t-35.5 14.5t-14.5 35.5zM399 630q0 21 14.5 35.5t35.5 14.5t35.5 -14.5t14.5 -35.5t-14.5 -35.5t-35.5 -14.5t-35.5 14.5t-14.5 35.5zM399 500v-242l196 242h98l-204 -250l219 -250 h-102l-207 240v-240h-82v240l-207 -240h-102l219 250l-204 250h98l196 -242v242h82z" />
<glyph unicode="&#x4de;" horiz-adv-x="614" d="M163 830q0 21 14.5 35.5t35.5 14.5t35.5 -14.5t14.5 -35.5t-14.5 -35.5t-35.5 -14.5t-35.5 14.5t-14.5 35.5zM345 830q0 21 14.5 35.5t35.5 14.5t35.5 -14.5t14.5 -35.5t-14.5 -35.5t-35.5 -14.5t-35.5 14.5t-14.5 35.5zM307 312h-73v77h70q70 0 114.5 28t44.5 90 q0 63 -45.5 95t-113.5 32q-66 0 -110 -33.5t-50 -99.5h-85q7 103 76 156.5t169 53.5q102 0 173 -52t71 -153q0 -105 -91 -152q115 -46 115 -160q0 -68 -39.5 -116t-97.5 -68.5t-128 -20.5q-107 0 -182.5 54t-82.5 156h85q6 -65 57 -99t123 -34q74 0 127 32t53 95 q0 62 -52 90.5t-128 28.5z" />
<glyph unicode="&#x4df;" horiz-adv-x="480" d="M99 630q0 21 14.5 35.5t35.5 14.5t35.5 -14.5t14.5 -35.5t-14.5 -35.5t-35.5 -14.5t-35.5 14.5t-14.5 35.5zM281 630q0 21 14.5 35.5t35.5 14.5t35.5 -14.5t14.5 -35.5t-14.5 -35.5t-35.5 -14.5t-35.5 14.5t-14.5 35.5zM239 218h-46v70h45q44 0 74 18.5t30 57.5t-30 57.5 t-74 18.5t-72.5 -21t-32.5 -63h-82q6 76 58.5 115.5t130.5 39.5q76 0 130 -37.5t54 -108.5q0 -75 -63 -110q79 -36 79 -116q0 -73 -58.5 -111.5t-139.5 -38.5q-82 0 -139.5 40t-62.5 116h82q4 -41 37 -63t80 -22q50 0 84.5 20t34.5 59t-34.5 59t-84.5 20z" />
<glyph unicode="&#x4e2;" horiz-adv-x="746" d="M513 785h-280v61h280v-61zM494 700h164v-700h-85v675h-2l-319 -675h-164v700h85v-675h2z" />
<glyph unicode="&#x4e3;" horiz-adv-x="586" d="M433 585h-280v61h280v-61zM355 500h158v-500h-82v480h-2l-198 -480h-158v500h82v-480h2z" />
<glyph unicode="&#x4e4;" horiz-adv-x="746" d="M232 830q0 21 14.5 35.5t35.5 14.5t35.5 -14.5t14.5 -35.5t-14.5 -35.5t-35.5 -14.5t-35.5 14.5t-14.5 35.5zM414 830q0 21 14.5 35.5t35.5 14.5t35.5 -14.5t14.5 -35.5t-14.5 -35.5t-35.5 -14.5t-35.5 14.5t-14.5 35.5zM494 700h164v-700h-85v675h-2l-319 -675h-164v700 h85v-675h2z" />
<glyph unicode="&#x4e5;" horiz-adv-x="586" d="M152 630q0 21 14.5 35.5t35.5 14.5t35.5 -14.5t14.5 -35.5t-14.5 -35.5t-35.5 -14.5t-35.5 14.5t-14.5 35.5zM334 630q0 21 14.5 35.5t35.5 14.5t35.5 -14.5t14.5 -35.5t-14.5 -35.5t-35.5 -14.5t-35.5 14.5t-14.5 35.5zM355 500h158v-500h-82v480h-2l-198 -480h-158v500 h82v-480h2z" />
<glyph unicode="&#x4e6;" horiz-adv-x="736" d="M227 830q0 21 14.5 35.5t35.5 14.5t35.5 -14.5t14.5 -35.5t-14.5 -35.5t-35.5 -14.5t-35.5 14.5t-14.5 35.5zM409 830q0 21 14.5 35.5t35.5 14.5t35.5 -14.5t14.5 -35.5t-14.5 -35.5t-35.5 -14.5t-35.5 14.5t-14.5 35.5zM40 350q0 71 19.5 134t58 114.5t103 82 t147.5 30.5t147.5 -30.5t103 -82t58 -114.5t19.5 -134t-19.5 -134t-58 -114.5t-103 -82t-147.5 -30.5t-147.5 30.5t-103 82t-58 114.5t-19.5 134zM611 350q0 55 -14 104t-42.5 89.5t-76.5 64.5t-110 24t-110 -24t-76.5 -64.5t-42.5 -89.5t-14 -104t14 -104t42.5 -89.5 t76.5 -64.5t110 -24t110 24t76.5 64.5t42.5 89.5t14 104z" />
<glyph unicode="&#x4e7;" horiz-adv-x="576" d="M147 630q0 21 14.5 35.5t35.5 14.5t35.5 -14.5t14.5 -35.5t-14.5 -35.5t-35.5 -14.5t-35.5 14.5t-14.5 35.5zM329 630q0 21 14.5 35.5t35.5 14.5t35.5 -14.5t14.5 -35.5t-14.5 -35.5t-35.5 -14.5t-35.5 14.5t-14.5 35.5zM42 250q0 108 62.5 184.5t183.5 76.5t183.5 -76.5 t62.5 -184.5t-62.5 -184.5t-183.5 -76.5t-183.5 76.5t-62.5 184.5zM452 250q0 78 -41.5 132t-122.5 54t-122.5 -54t-41.5 -132t41.5 -132t122.5 -54t122.5 54t41.5 132z" />
<glyph unicode="&#x4e8;" horiz-adv-x="736" d="M610 315h-484q9 -106 70 -176.5t172 -70.5t172 70.5t70 176.5zM126 385h484q-9 106 -70 176.5t-172 70.5t-172 -70.5t-70 -176.5zM40 350q0 71 19.5 134t58 114.5t103 82t147.5 30.5t147.5 -30.5t103 -82t58 -114.5t19.5 -134t-19.5 -134t-58 -114.5t-103 -82 t-147.5 -30.5t-147.5 30.5t-103 82t-58 114.5t-19.5 134z" />
<glyph unicode="&#x4e9;" horiz-adv-x="576" d="M450 217h-324q8 -66 49 -109.5t113 -43.5t113 43.5t49 109.5zM126 283h324q-8 66 -49 109.5t-113 43.5t-113 -43.5t-49 -109.5zM42 250q0 108 62.5 184.5t183.5 76.5t183.5 -76.5t62.5 -184.5t-62.5 -184.5t-183.5 -76.5t-183.5 76.5t-62.5 184.5z" />
<glyph unicode="&#x4ea;" horiz-adv-x="736" d="M610 315h-484q9 -106 70 -176.5t172 -70.5t172 70.5t70 176.5zM126 385h484q-9 106 -70 176.5t-172 70.5t-172 -70.5t-70 -176.5zM40 350q0 71 19.5 134t58 114.5t103 82t147.5 30.5t147.5 -30.5t103 -82t58 -114.5t19.5 -134t-19.5 -134t-58 -114.5t-103 -82 t-147.5 -30.5t-147.5 30.5t-103 82t-58 114.5t-19.5 134zM227 830q0 21 14.5 35.5t35.5 14.5t35.5 -14.5t14.5 -35.5t-14.5 -35.5t-35.5 -14.5t-35.5 14.5t-14.5 35.5zM409 830q0 21 14.5 35.5t35.5 14.5t35.5 -14.5t14.5 -35.5t-14.5 -35.5t-35.5 -14.5t-35.5 14.5 t-14.5 35.5z" />
<glyph unicode="&#x4eb;" horiz-adv-x="576" d="M450 217h-324q8 -66 49 -109.5t113 -43.5t113 43.5t49 109.5zM126 283h324q-8 66 -49 109.5t-113 43.5t-113 -43.5t-49 -109.5zM42 250q0 108 62.5 184.5t183.5 76.5t183.5 -76.5t62.5 -184.5t-62.5 -184.5t-183.5 -76.5t-183.5 76.5t-62.5 184.5zM147 630 q0 21 14.5 35.5t35.5 14.5t35.5 -14.5t14.5 -35.5t-14.5 -35.5t-35.5 -14.5t-35.5 14.5t-14.5 35.5zM329 630q0 21 14.5 35.5t35.5 14.5t35.5 -14.5t14.5 -35.5t-14.5 -35.5t-35.5 -14.5t-35.5 14.5t-14.5 35.5z" />
<glyph unicode="&#x4ec;" horiz-adv-x="707" d="M198 830q0 21 14.5 35.5t35.5 14.5t35.5 -14.5t14.5 -35.5t-14.5 -35.5t-35.5 -14.5t-35.5 14.5t-14.5 35.5zM380 830q0 21 14.5 35.5t35.5 14.5t35.5 -14.5t14.5 -35.5t-14.5 -35.5t-35.5 -14.5t-35.5 14.5t-14.5 35.5zM339 68q110 0 170.5 69t70.5 174h-321v78h321 q-10 105 -70.5 174t-170.5 69q-173 0 -213 -175h-86q21 115 94.5 184.5t204.5 69.5q83 0 147.5 -30.5t103 -82t58 -114.5t19.5 -134t-19.5 -134t-58 -114.5t-103 -82t-147.5 -30.5q-131 0 -204.5 69.5t-94.5 184.5h86q40 -175 213 -175z" />
<glyph unicode="&#x4ed;" horiz-adv-x="555" d="M126 630q0 21 14.5 35.5t35.5 14.5t35.5 -14.5t14.5 -35.5t-14.5 -35.5t-35.5 -14.5t-35.5 14.5t-14.5 35.5zM308 630q0 21 14.5 35.5t35.5 14.5t35.5 -14.5t14.5 -35.5t-14.5 -35.5t-35.5 -14.5t-35.5 14.5t-14.5 35.5zM267 -11q-100 0 -155 51t-70 135h84 q25 -111 141 -111q71 0 111.5 42t49.5 107h-216v74h216q-9 65 -49.5 107t-111.5 42q-116 0 -141 -111h-84q15 84 70 135t155 51q121 0 183.5 -76.5t62.5 -184.5t-62.5 -184.5t-183.5 -76.5z" />
<glyph unicode="&#x4ee;" horiz-adv-x="585" d="M435 785h-280v61h280v-61zM265 0h-89l87 200l-243 500h91l195 -402l175 402h89z" />
<glyph unicode="&#x4ef;" horiz-adv-x="520" d="M400 585h-280v61h280v-61zM506 500l-230 -695h-86l64 195h-70l-170 500h86l159 -480h2l159 480h86z" />
<glyph unicode="&#x4f0;" horiz-adv-x="585" d="M154 830q0 21 14.5 35.5t35.5 14.5t35.5 -14.5t14.5 -35.5t-14.5 -35.5t-35.5 -14.5t-35.5 14.5t-14.5 35.5zM336 830q0 21 14.5 35.5t35.5 14.5t35.5 -14.5t14.5 -35.5t-14.5 -35.5t-35.5 -14.5t-35.5 14.5t-14.5 35.5zM265 0h-89l87 200l-243 500h91l195 -402l175 402 h89z" />
<glyph unicode="&#x4f1;" horiz-adv-x="520" d="M119 630q0 21 14.5 35.5t35.5 14.5t35.5 -14.5t14.5 -35.5t-14.5 -35.5t-35.5 -14.5t-35.5 14.5t-14.5 35.5zM301 630q0 21 14.5 35.5t35.5 14.5t35.5 -14.5t14.5 -35.5t-14.5 -35.5t-35.5 -14.5t-35.5 14.5t-14.5 35.5zM506 500l-230 -695h-86l64 195h-70l-170 500h86 l159 -480h2l159 480h86z" />
<glyph unicode="&#x4f2;" horiz-adv-x="585" d="M353 915l-109 -140h-62l71 140h100zM517 915l-109 -140h-62l71 140h100zM265 0h-89l87 200l-243 500h91l195 -402l175 402h89z" />
<glyph unicode="&#x4f3;" horiz-adv-x="520" d="M318 715l-109 -140h-62l71 140h100zM482 715l-109 -140h-62l71 140h100zM506 500l-230 -695h-86l64 195h-70l-170 500h86l159 -480h2l159 480h86z" />
<glyph unicode="&#x4f4;" horiz-adv-x="656" d="M177 830q0 21 14.5 35.5t35.5 14.5t35.5 -14.5t14.5 -35.5t-14.5 -35.5t-35.5 -14.5t-35.5 14.5t-14.5 35.5zM359 830q0 21 14.5 35.5t35.5 14.5t35.5 -14.5t14.5 -35.5t-14.5 -35.5t-35.5 -14.5t-35.5 14.5t-14.5 35.5zM483 700h85v-700h-85v271q-89 -34 -172 -34 q-117 0 -180 57.5t-63 166.5v239h85v-215q0 -86 34.5 -128t121.5 -42q84 0 174 37v348z" />
<glyph unicode="&#x4f5;" horiz-adv-x="541" d="M120 630q0 21 14.5 35.5t35.5 14.5t35.5 -14.5t14.5 -35.5t-14.5 -35.5t-35.5 -14.5t-35.5 14.5t-14.5 35.5zM302 630q0 21 14.5 35.5t35.5 14.5t35.5 -14.5t14.5 -35.5t-14.5 -35.5t-35.5 -14.5t-35.5 14.5t-14.5 35.5zM386 500h82v-500h-82v180q-52 -20 -137 -20 q-196 0 -196 190v150h82v-147q0 -62 28.5 -90t89.5 -28q82 0 133 20v245z" />
<glyph unicode="&#x4f6;" horiz-adv-x="548" d="M158 -140v140h-70v700h450v-78h-365v-544h70v-218h-85z" />
<glyph unicode="&#x4f7;" horiz-adv-x="413" d="M403 500v-75h-248v-350h72v-215h-82v140h-72v500h330z" />
<glyph unicode="&#x4f8;" horiz-adv-x="861" d="M173 78h190q65 0 107.5 42.5t42.5 107.5t-42.5 107.5t-107.5 42.5h-190v-300zM173 456h191q101 0 167.5 -64.5t66.5 -163.5t-66.5 -163.5t-167.5 -64.5h-276v700h85v-244zM773 0h-85v700h85v-700zM290 830q0 21 14.5 35.5t35.5 14.5t35.5 -14.5t14.5 -35.5t-14.5 -35.5 t-35.5 -14.5t-35.5 14.5t-14.5 35.5zM472 830q0 21 14.5 35.5t35.5 14.5t35.5 -14.5t14.5 -35.5t-14.5 -35.5t-35.5 -14.5t-35.5 14.5t-14.5 35.5z" />
<glyph unicode="&#x4f9;" horiz-adv-x="698" d="M381 160q0 37 -24 61t-61 24h-141v-170h141q37 0 61 24t24 61zM296 0h-223v500h82v-180h141q72 0 119.5 -45.5t47.5 -114.5t-47.5 -114.5t-119.5 -45.5zM625 500v-500h-82v500h82zM208 630q0 21 14.5 35.5t35.5 14.5t35.5 -14.5t14.5 -35.5t-14.5 -35.5t-35.5 -14.5 t-35.5 14.5t-14.5 35.5zM390 630q0 21 14.5 35.5t35.5 14.5t35.5 -14.5t14.5 -35.5t-14.5 -35.5t-35.5 -14.5t-35.5 14.5t-14.5 35.5z" />
<glyph unicode="&#x4fa;" horiz-adv-x="575" d="M115 700h450v-78h-365v-237h185v-70h-185v-381q0 -68 -32.5 -104t-96.5 -36q-26 0 -49 5v76q18 -3 34 -3q59 0 59 67v376h-95v70h95v315z" />
<glyph unicode="&#x4fb;" horiz-adv-x="440" d="M430 500v-75h-248v-144h150v-66h-150v-281q0 -68 -32.5 -104t-96.5 -36q-23 0 -46 4v72q18 -3 34 -3q59 0 59 67v281h-85v66h85v219h330z" />
<glyph unicode="&#x4fc;" horiz-adv-x="645" d="M565 700l-178 -334l157 -288h101v-144q0 -68 -32.5 -104t-96.5 -36q-26 0 -49 5v76q18 -3 34 -3q59 0 59 67v61h-70l-189 354h-2l-189 -354h-96l199 366l-178 334h94l170 -321h2l170 321h94z" />
<glyph unicode="&#x4fd;" horiz-adv-x="542" d="M171 257l-145 243h92l129 -234h2l129 234h92l-145 -243l111 -182h106v-141q0 -68 -32.5 -104t-96.5 -36q-23 0 -46 4v72q18 -3 34 -3q59 0 59 67v66h-72l-139 248h-2l-139 -248h-94z" />
<glyph unicode="&#x4fe;" horiz-adv-x="600" d="M406 401h106v-70h-106l180 -331h-96l-189 354h-2l-189 -354h-96l180 331h-106v70h106l-159 299h94l170 -321h2l170 321h94z" />
<glyph unicode="&#x4ff;" horiz-adv-x="496" d="M341 284h107v-54h-107l141 -230h-94l-139 248h-2l-139 -248h-94l141 230h-107v54h107l-129 216h92l129 -234h2l129 234h92z" />
<glyph unicode="&#x510;" horiz-adv-x="614" d="M307 312q-76 0 -128 -28.5t-52 -90.5q0 -63 53 -95t127 -32q72 0 123 34t57 99h85q-7 -102 -82.5 -156t-182.5 -54q-70 0 -128 20.5t-97.5 68.5t-39.5 116q0 114 115 160q-91 47 -91 152q0 101 71 153t173 52q100 0 169 -53.5t76 -156.5h-85q-6 66 -50 99.5t-110 33.5 q-68 0 -113.5 -32t-45.5 -95q0 -62 44.5 -90t114.5 -28h70v-77h-73z" />
<glyph unicode="&#x511;" horiz-adv-x="480" d="M241 218q-50 0 -84.5 -20t-34.5 -59t34.5 -59t84.5 -20q47 0 80 22t37 63h82q-5 -76 -62.5 -116t-139.5 -40q-81 0 -139.5 38.5t-58.5 111.5q0 81 79 116q-63 35 -63 110q0 71 54 108.5t130 37.5q78 0 130.5 -39.5t58.5 -115.5h-82q-4 42 -32.5 63t-72.5 21t-74 -18.5 t-30 -57.5t30 -57.5t74 -18.5h45v-70h-46z" />
<glyph unicode="&#x512;" horiz-adv-x="711" d="M37 0h-27v78h20q33 0 56.5 17t35 39.5t18 58.5t7.5 59t1 56v392h475v-766q0 -68 -32.5 -104t-96.5 -36q-26 0 -49 5v76q18 -3 34 -3q59 0 59 67v683h-305v-314q0 -31 -0.5 -52.5t-5 -56t-11.5 -59.5t-21.5 -53t-35 -45.5t-51.5 -29.5t-71 -12z" />
<glyph unicode="&#x513;" horiz-adv-x="563" d="M28 0h-23v75h16q21 0 36 10.5t22.5 24t12 35.5t5 36t0.5 34v285h393v-566q0 -68 -32.5 -104t-96.5 -36q-23 0 -46 4v72q18 -3 34 -3q59 0 59 67v491h-229v-210q0 -31 -1.5 -53t-9.5 -55.5t-23 -54t-45 -36.5t-72 -16z" />
<glyph unicode="&#x51c;" horiz-adv-x="980" d="M111 700l158 -675h2l143 675h152l143 -675h2l158 675h88l-171 -700h-152l-143 675h-2l-143 -675h-152l-171 700h88z" />
<glyph unicode="&#x51d;" horiz-adv-x="778" d="M108 500l114 -480h2l94 480h142l94 -480h2l114 480h84l-126 -500h-144l-94 480h-2l-94 -480h-144l-126 500h84z" />
<glyph unicode="&#x524;" horiz-adv-x="733" d="M88 0v700h535v-622h70v-218h-85v140h-70v622h-365v-622h-85z" />
<glyph unicode="&#x525;" horiz-adv-x="595" d="M488 0h-72v425h-261v-425h-82v500h425v-425h72v-215h-82v140z" />
<glyph unicode="&#x526;" horiz-adv-x="678" d="M173 0h-85v700h85v-271q89 34 172 34q117 0 180 -57.5t63 -166.5v-161h70v-218h-85v140h-70v215q0 86 -34.5 128t-121.5 42q-84 0 -174 -37v-348z" />
<glyph unicode="&#x527;" horiz-adv-x="590" d="M488 0h-72v302q0 70 -25 102t-85 32q-67 0 -109 -44t-42 -121v-271h-82v700h82v-277q24 42 67 65t95 23q181 0 181 -207v-229h72v-215h-82v140z" />
<glyph unicode="&#x52e;" horiz-adv-x="733" d="M37 0h-27v78h20q33 0 56.5 17t35 39.5t18 58.5t7.5 59t1 56v392h475v-622h70v-218h-85v140h-70v622h-305v-314q0 -31 -0.5 -52.5t-5 -56t-11.5 -59.5t-21.5 -53t-35 -45.5t-51.5 -29.5t-71 -12z" />
<glyph unicode="&#x52f;" horiz-adv-x="587" d="M28 0h-23v75h16q21 0 36 10.5t22.5 24t12 35.5t5 36t0.5 34v285h393v-425h72v-215h-82v140h-72v425h-229v-210q0 -31 -1.5 -53t-9.5 -55.5t-23 -54t-45 -36.5t-72 -16z" />
<glyph unicode="&#xe3f;" horiz-adv-x="676" d="M306 327h-133v-250h133v250zM370 327v-250h11q70 0 116 29t46 96t-46 96t-116 29h-11zM173 623v-224h133v224h-133zM370 623v-224q60 1 99 27.5t39 84.5t-39 84.5t-99 27.5zM306 0h-218v700h218v100h64v-100q45 0 83 -9.5t70.5 -29.5t51 -57t18.5 -87q0 -99 -88 -147 q123 -49 123 -174q0 -72 -37 -117.5t-89 -62t-120 -16.5h-12v-100h-64v100z" />
<glyph unicode="&#x1e02;" horiz-adv-x="676" d="M381 327h-208v-250h208q70 0 116 29t46 96t-46 96t-116 29zM364 623h-191v-224h191q62 0 103 26t41 86t-41 86t-103 26zM382 0h-294v700h277q46 0 84.5 -9t72 -29t52.5 -57t19 -88q0 -99 -88 -147q123 -49 123 -174q0 -72 -37 -117.5t-89 -62t-120 -16.5zM288 831 q0 21 14.5 35.5t35.5 14.5t35.5 -14.5t14.5 -35.5t-14.5 -35.5t-35.5 -14.5t-35.5 14.5t-14.5 35.5z" />
<glyph unicode="&#x1e03;" d="M155 250q0 -78 41.5 -132t122.5 -54t122.5 54t41.5 132t-41.5 132t-122.5 54t-122.5 -54t-41.5 -132zM155 67v-67h-82v700h82v-267q61 78 174 78q62 0 109 -22.5t73.5 -60.5t40 -83t13.5 -95t-13.5 -95t-40 -83t-73.5 -60.5t-109 -22.5q-113 0 -174 78zM279 623 q0 21 14.5 35.5t35.5 14.5t35.5 -14.5t14.5 -35.5t-14.5 -35.5t-35.5 -14.5t-35.5 14.5t-14.5 35.5z" />
<glyph unicode="&#x1e04;" horiz-adv-x="676" d="M381 327h-208v-250h208q70 0 116 29t46 96t-46 96t-116 29zM364 623h-191v-224h191q62 0 103 26t41 86t-41 86t-103 26zM382 0h-294v700h277q46 0 84.5 -9t72 -29t52.5 -57t19 -88q0 -99 -88 -147q123 -49 123 -174q0 -72 -37 -117.5t-89 -62t-120 -16.5zM388 -131 q0 -21 -14.5 -35.5t-35.5 -14.5t-35.5 14.5t-14.5 35.5t14.5 35.5t35.5 14.5t35.5 -14.5t14.5 -35.5z" />
<glyph unicode="&#x1e05;" d="M155 250q0 -78 41.5 -132t122.5 -54t122.5 54t41.5 132t-41.5 132t-122.5 54t-122.5 -54t-41.5 -132zM155 67v-67h-82v700h82v-267q61 78 174 78q62 0 109 -22.5t73.5 -60.5t40 -83t13.5 -95t-13.5 -95t-40 -83t-73.5 -60.5t-109 -22.5q-113 0 -174 78zM369 -131 q0 -21 -14.5 -35.5t-35.5 -14.5t-35.5 14.5t-14.5 35.5t14.5 35.5t35.5 14.5t35.5 -14.5t14.5 -35.5z" />
<glyph unicode="&#x1e06;" horiz-adv-x="676" d="M381 327h-208v-250h208q70 0 116 29t46 96t-46 96t-116 29zM364 623h-191v-224h191q62 0 103 26t41 86t-41 86t-103 26zM382 0h-294v700h277q46 0 84.5 -9t72 -29t52.5 -57t19 -88q0 -99 -88 -147q123 -49 123 -174q0 -72 -37 -117.5t-89 -62t-120 -16.5zM478 -95v-61 h-280v61h280z" />
<glyph unicode="&#x1e07;" d="M155 250q0 -78 41.5 -132t122.5 -54t122.5 54t41.5 132t-41.5 132t-122.5 54t-122.5 -54t-41.5 -132zM155 67v-67h-82v700h82v-267q61 78 174 78q62 0 109 -22.5t73.5 -60.5t40 -83t13.5 -95t-13.5 -95t-40 -83t-73.5 -60.5t-109 -22.5q-113 0 -174 78zM179 -146v61h280 v-61h-280z" />
<glyph unicode="&#x1e08;" horiz-adv-x="708" d="M518 915l-119 -140h-62l81 140h100zM582 250h86q-19 -114 -87.5 -184.5t-191.5 -76.5l-11 -28h18q46 0 74 -24t28 -64q0 -46 -34.5 -74.5t-92.5 -28.5q-36 0 -82 16v56q42 -18 77 -18q33 0 52.5 14t19.5 37q0 43 -56 43h-44l-15 25l18 47q-101 6 -171 60.5t-100 131 t-30 168.5q0 71 19.5 134t58 114.5t103 82t147.5 30.5q134 0 207 -71t93 -190h-86q-36 182 -214 182q-62 0 -110 -24t-76.5 -64.5t-42.5 -89.5t-14 -104t14 -104t42.5 -89.5t76.5 -64.5t110 -24q178 0 214 182z" />
<glyph unicode="&#x1e09;" horiz-adv-x="555" d="M438 715l-119 -140h-62l81 140h100zM430 175h83q-15 -80 -64.5 -129.5t-139.5 -55.5l-11 -29h18q46 0 74 -24t28 -64q0 -46 -34.5 -74.5t-92.5 -28.5q-36 0 -82 16v56q42 -18 77 -18q33 0 52.5 14t19.5 37q0 43 -56 43h-44l-15 25l18 47q-108 9 -163.5 84t-55.5 176 q0 108 62.5 184.5t183.5 76.5q100 0 154.5 -51t70.5 -135h-83q-26 111 -142 111q-81 0 -122.5 -54t-41.5 -132t41.5 -132t122.5 -54q116 0 142 111z" />
<glyph unicode="&#x1e0a;" horiz-adv-x="688" d="M173 78h154q117 0 176.5 79.5t59.5 192.5t-59.5 192.5t-176.5 79.5h-154v-544zM88 700h239q82 0 145 -29.5t100.5 -80t56.5 -111.5t19 -129t-19 -129t-56.5 -111.5t-100.5 -80t-145 -29.5h-239v700zM277 831q0 21 14.5 35.5t35.5 14.5t35.5 -14.5t14.5 -35.5t-14.5 -35.5 t-35.5 -14.5t-35.5 14.5t-14.5 35.5z" />
<glyph unicode="&#x1e0b;" d="M452 250q0 78 -41.5 132t-122.5 54t-122.5 -54t-41.5 -132t41.5 -132t122.5 -54t122.5 54t41.5 132zM534 0h-82v67q-61 -78 -174 -78q-62 0 -109 22.5t-73.5 60.5t-40 83t-13.5 95t13.5 95t40 83t73.5 60.5t109 22.5q113 0 174 -78v267h82v-700zM328 623 q0 -21 -14.5 -35.5t-35.5 -14.5t-35.5 14.5t-14.5 35.5t14.5 35.5t35.5 14.5t35.5 -14.5t14.5 -35.5z" />
<glyph unicode="&#x1e0c;" horiz-adv-x="688" d="M173 78h154q117 0 176.5 79.5t59.5 192.5t-59.5 192.5t-176.5 79.5h-154v-544zM88 700h239q82 0 145 -29.5t100.5 -80t56.5 -111.5t19 -129t-19 -129t-56.5 -111.5t-100.5 -80t-145 -29.5h-239v700zM377 -131q0 -21 -14.5 -35.5t-35.5 -14.5t-35.5 14.5t-14.5 35.5 t14.5 35.5t35.5 14.5t35.5 -14.5t14.5 -35.5z" />
<glyph unicode="&#x1e0d;" d="M452 250q0 78 -41.5 132t-122.5 54t-122.5 -54t-41.5 -132t41.5 -132t122.5 -54t122.5 54t41.5 132zM534 0h-82v67q-61 -78 -174 -78q-62 0 -109 22.5t-73.5 60.5t-40 83t-13.5 95t13.5 95t40 83t73.5 60.5t109 22.5q113 0 174 -78v267h82v-700zM338 -131 q0 -21 -14.5 -35.5t-35.5 -14.5t-35.5 14.5t-14.5 35.5t14.5 35.5t35.5 14.5t35.5 -14.5t14.5 -35.5z" />
<glyph unicode="&#x1e0e;" horiz-adv-x="688" d="M173 78h154q117 0 176.5 79.5t59.5 192.5t-59.5 192.5t-176.5 79.5h-154v-544zM88 700h239q82 0 145 -29.5t100.5 -80t56.5 -111.5t19 -129t-19 -129t-56.5 -111.5t-100.5 -80t-145 -29.5h-239v700zM187 -146v61h280v-61h-280z" />
<glyph unicode="&#x1e0f;" d="M452 250q0 78 -41.5 132t-122.5 54t-122.5 -54t-41.5 -132t41.5 -132t122.5 -54t122.5 54t41.5 132zM534 0h-82v67q-61 -78 -174 -78q-62 0 -109 22.5t-73.5 60.5t-40 83t-13.5 95t13.5 95t40 83t73.5 60.5t109 22.5q113 0 174 -78v267h82v-700zM148 -146v61h280v-61 h-280z" />
<glyph unicode="&#x1e10;" horiz-adv-x="688" d="M173 78h154q117 0 176.5 79.5t59.5 192.5t-59.5 192.5t-176.5 79.5h-154v-544zM88 700h239q82 0 145 -29.5t100.5 -80t56.5 -111.5t19 -129q0 -65 -17.5 -124t-52 -108.5t-93 -80.5t-133.5 -36l-15 -40h18q46 0 74 -24t28 -64q0 -46 -34.5 -74.5t-92.5 -28.5 q-36 0 -82 16v56q42 -18 77 -18q33 0 52.5 14t19.5 37q0 43 -56 43h-44l-15 25l22 57h-216v700z" />
<glyph unicode="&#x1e11;" d="M452 250q0 78 -41.5 132t-122.5 54t-122.5 -54t-41.5 -132t41.5 -132t122.5 -54t122.5 54t41.5 132zM534 0h-82v67q-54 -68 -150 -77l-11 -29h18q46 0 74 -24t28 -64q0 -46 -34.5 -74.5t-92.5 -28.5q-36 0 -82 16v56q42 -18 77 -18q33 0 52.5 14t19.5 37q0 43 -56 43h-44 l-15 25l18 47q-73 6 -122.5 46t-69.5 94.5t-20 119.5q0 50 13.5 95t40 83t73.5 60.5t109 22.5q113 0 174 -78v267h82v-700z" />
<glyph unicode="&#x1e12;" horiz-adv-x="688" d="M173 78h154q117 0 176.5 79.5t59.5 192.5t-59.5 192.5t-176.5 79.5h-154v-544zM88 700h239q82 0 145 -29.5t100.5 -80t56.5 -111.5t19 -129t-19 -129t-56.5 -111.5t-100.5 -80t-145 -29.5h-239v700zM279 -75h96l107 -140h-76l-79 103l-79 -103h-76z" />
<glyph unicode="&#x1e13;" d="M452 250q0 78 -41.5 132t-122.5 54t-122.5 -54t-41.5 -132t41.5 -132t122.5 -54t122.5 54t41.5 132zM534 0h-82v67q-61 -78 -174 -78q-62 0 -109 22.5t-73.5 60.5t-40 83t-13.5 95t13.5 95t40 83t73.5 60.5t109 22.5q113 0 174 -78v267h82v-700zM240 -75h96l107 -140h-76 l-79 103l-79 -103h-76z" />
<glyph unicode="&#x1e18;" d="M173 317v-239h385v-78h-470v700h458v-78h-373v-229h349v-76h-349zM371 -75l107 -140h-76l-79 103l-79 -103h-76l107 140h96z" />
<glyph unicode="&#x1e19;" horiz-adv-x="556" d="M128 295h300q-11 62 -48.5 101.5t-101.5 39.5t-101.5 -39.5t-48.5 -101.5zM416 145h86q-43 -156 -224 -156q-116 0 -176 76.5t-60 184.5t60 184.5t176 76.5t176 -76.5t60 -184.5v-25h-389q6 -69 44.5 -115t108.5 -46q107 0 138 81zM230 -75h96l107 -140h-76l-79 103 l-79 -103h-76z" />
<glyph unicode="&#x1e1a;" d="M173 317v-239h385v-78h-470v700h458v-78h-373v-229h349v-76h-349zM223 -186h-50q2 41 25 69t65 28q21 0 62 -11.5t61 -11.5q32 0 37 36h50q-2 -41 -25 -69t-65 -28q-21 0 -62 11.5t-61 11.5q-32 0 -37 -36z" />
<glyph unicode="&#x1e1b;" horiz-adv-x="556" d="M128 295h300q-11 62 -48.5 101.5t-101.5 39.5t-101.5 -39.5t-48.5 -101.5zM416 145h86q-43 -156 -224 -156q-116 0 -176 76.5t-60 184.5t60 184.5t176 76.5t176 -76.5t60 -184.5v-25h-389q6 -69 44.5 -115t108.5 -46q107 0 138 81zM178 -186h-50q2 41 25 69t65 28 q21 0 62 -11.5t61 -11.5q32 0 37 36h50q-2 -41 -25 -69t-65 -28q-21 0 -62 11.5t-61 11.5q-32 0 -37 -36z" />
<glyph unicode="&#x1e1c;" d="M169 915h63q0 -37 24.5 -60t66.5 -23t66.5 23t24.5 60h63q0 -62 -41.5 -101t-112.5 -39t-112.5 39t-41.5 101zM173 317v-239h385v-78h-210l-15 -39h18q46 0 74 -24t28 -64q0 -46 -34.5 -74.5t-92.5 -28.5q-36 0 -82 16v56q42 -18 77 -18q33 0 52.5 14t19.5 37 q0 43 -56 43h-44l-15 25l22 57h-212v700h458v-78h-373v-229h349v-76h-349z" />
<glyph unicode="&#x1e1d;" horiz-adv-x="556" d="M128 295h300q-11 62 -48.5 101.5t-101.5 39.5t-101.5 -39.5t-48.5 -101.5zM416 145h86q-41 -145 -203 -155l-11 -29h18q46 0 74 -24t28 -64q0 -46 -34.5 -74.5t-92.5 -28.5q-36 0 -82 16v56q42 -18 77 -18q33 0 52.5 14t19.5 37q0 43 -56 43h-44l-15 25l18 47 q-103 9 -156 84t-53 176q0 108 60 184.5t176 76.5t176 -76.5t60 -184.5v-25h-389q6 -69 44.5 -115t108.5 -46q107 0 138 81zM124 715h63q0 -37 24.5 -60t66.5 -23t66.5 23t24.5 60h63q0 -62 -41.5 -101t-112.5 -39t-112.5 39t-41.5 101z" />
<glyph unicode="&#x1e1e;" horiz-adv-x="547" d="M253 831q0 21 14.5 35.5t35.5 14.5t35.5 -14.5t14.5 -35.5t-14.5 -35.5t-35.5 -14.5t-35.5 14.5t-14.5 35.5zM173 306v-306h-85v700h430v-78h-345v-238h308v-78h-308z" />
<glyph unicode="&#x1e1f;" horiz-adv-x="343" d="M123 841q0 21 14.5 35.5t35.5 14.5t35.5 -14.5t14.5 -35.5t-14.5 -35.5t-35.5 -14.5t-35.5 14.5t-14.5 35.5zM18 500h91v81q0 68 32.5 104t96.5 36q48 0 90 -15v-73q-36 15 -78 15q-59 0 -59 -67v-81h137v-69h-137v-431h-82v431h-91v69z" />
<glyph unicode="&#x1e20;" horiz-adv-x="748" d="M508 785h-280v61h280v-61zM40 350q0 71 19.5 134t58 114.5t103 82t147.5 30.5q132 0 205 -69t94 -185h-86q-38 175 -213 175q-62 0 -110 -24t-76.5 -64.5t-42.5 -89.5t-14 -104t14 -104t42.5 -89.5t76.5 -64.5t110 -24q197 0 222 214h-222v75h308v-357h-55l-18 111 q-66 -122 -235 -122q-83 0 -147.5 30.5t-103 82t-58 114.5t-19.5 134z" />
<glyph unicode="&#x1e21;" horiz-adv-x="597" d="M452 250q0 78 -41.5 132t-122.5 54t-122.5 -54t-41.5 -132t41.5 -132t122.5 -54t122.5 54t41.5 132zM452 20v47q-61 -78 -174 -78q-62 0 -109 22.5t-73.5 60.5t-40 83t-13.5 95t13.5 95t40 83t73.5 60.5t109 22.5q113 0 174 -78v67h82v-480q0 -60 -21 -105t-56.5 -70.5 t-78 -38t-90.5 -12.5q-77 0 -139 31.5t-89 96.5h96q41 -53 132 -53q69 0 116.5 37t47.5 114zM428 646v-61h-280v61h280z" />
<glyph unicode="&#x1e22;" horiz-adv-x="711" d="M306 831q0 21 14.5 35.5t35.5 14.5t35.5 -14.5t14.5 -35.5t-14.5 -35.5t-35.5 -14.5t-35.5 14.5t-14.5 35.5zM88 0v700h85v-305h365v305h85v-700h-85v317h-365v-317h-85z" />
<glyph unicode="&#x1e23;" horiz-adv-x="566" d="M236 831q0 21 14.5 35.5t35.5 14.5t35.5 -14.5t14.5 -35.5t-14.5 -35.5t-35.5 -14.5t-35.5 14.5t-14.5 35.5zM498 0h-82v302q0 70 -25 102t-85 32q-67 0 -109 -44t-42 -121v-271h-82v700h82v-277q24 42 67 65t95 23q181 0 181 -207v-304z" />
<glyph unicode="&#x1e24;" horiz-adv-x="711" d="M88 0v700h85v-305h365v305h85v-700h-85v317h-365v-317h-85zM406 -131q0 -21 -14.5 -35.5t-35.5 -14.5t-35.5 14.5t-14.5 35.5t14.5 35.5t35.5 14.5t35.5 -14.5t14.5 -35.5z" />
<glyph unicode="&#x1e25;" horiz-adv-x="566" d="M498 0h-82v302q0 70 -25 102t-85 32q-67 0 -109 -44t-42 -121v-271h-82v700h82v-277q24 42 67 65t95 23q181 0 181 -207v-304zM336 -131q0 -21 -14.5 -35.5t-35.5 -14.5t-35.5 14.5t-14.5 35.5t14.5 35.5t35.5 14.5t35.5 -14.5t14.5 -35.5z" />
<glyph unicode="&#x1e26;" horiz-adv-x="711" d="M215 830q0 21 14.5 35.5t35.5 14.5t35.5 -14.5t14.5 -35.5t-14.5 -35.5t-35.5 -14.5t-35.5 14.5t-14.5 35.5zM397 830q0 21 14.5 35.5t35.5 14.5t35.5 -14.5t14.5 -35.5t-14.5 -35.5t-35.5 -14.5t-35.5 14.5t-14.5 35.5zM88 0v700h85v-305h365v305h85v-700h-85v317h-365 v-317h-85z" />
<glyph unicode="&#x1e27;" horiz-adv-x="566" d="M145 830q0 21 14.5 35.5t35.5 14.5t35.5 -14.5t14.5 -35.5t-14.5 -35.5t-35.5 -14.5t-35.5 14.5t-14.5 35.5zM327 830q0 21 14.5 35.5t35.5 14.5t35.5 -14.5t14.5 -35.5t-14.5 -35.5t-35.5 -14.5t-35.5 14.5t-14.5 35.5zM498 0h-82v302q0 70 -25 102t-85 32 q-67 0 -109 -44t-42 -121v-271h-82v700h82v-277q24 42 67 65t95 23q181 0 181 -207v-304z" />
<glyph unicode="&#x1e28;" horiz-adv-x="711" d="M88 0v700h85v-305h365v305h85v-700h-85v317h-365v-317h-17l-15 -39h18q46 0 74 -24t28 -64q0 -46 -34.5 -74.5t-92.5 -28.5q-36 0 -82 16v56q42 -18 77 -18q33 0 52.5 14t19.5 37q0 43 -56 43h-44l-15 25l22 57h-20z" />
<glyph unicode="&#x1e29;" horiz-adv-x="566" d="M498 0h-82v302q0 70 -25 102t-85 32q-67 0 -109 -44t-42 -121v-271h-16l-15 -39h18q46 0 74 -24t28 -64q0 -46 -34.5 -74.5t-92.5 -28.5q-36 0 -82 16v56q42 -18 77 -18q33 0 52.5 14t19.5 37q0 43 -56 43h-44l-15 25l22 57h-18v700h82v-277q24 42 67 65t95 23 q181 0 181 -207v-304z" />
<glyph unicode="&#x1e2a;" horiz-adv-x="711" d="M88 0v700h85v-305h365v305h85v-700h-85v317h-365v-317h-85zM447 -75h63q0 -62 -41.5 -101t-112.5 -39t-112.5 39t-41.5 101h63q0 -37 24.5 -60t66.5 -23t66.5 23t24.5 60z" />
<glyph unicode="&#x1e2b;" horiz-adv-x="566" d="M498 0h-82v302q0 70 -25 102t-85 32q-67 0 -109 -44t-42 -121v-271h-82v700h82v-277q24 42 67 65t95 23q181 0 181 -207v-304zM377 -75h63q0 -62 -41.5 -101t-112.5 -39t-112.5 39t-41.5 101h63q0 -37 24.5 -60t66.5 -23t66.5 23t24.5 60z" />
<glyph unicode="&#x1e2c;" horiz-adv-x="261" d="M88 0v700h85v-700h-85zM31 -186h-50q2 41 25 69t65 28q21 0 62 -11.5t61 -11.5q32 0 37 36h50q-2 -41 -25 -69t-65 -28q-21 0 -62 11.5t-61 11.5q-32 0 -37 -36z" />
<glyph unicode="&#x1e2d;" horiz-adv-x="228" d="M62 664q0 22 15 37t37 15t37 -15t15 -37t-15 -37t-37 -15t-37 15t-15 37zM73 0v500h82v-500h-82zM14 -186h-50q2 41 25 69t65 28q21 0 62 -11.5t61 -11.5q32 0 37 36h50q-2 -41 -25 -69t-65 -28q-21 0 -62 11.5t-61 11.5q-32 0 -37 -36z" />
<glyph unicode="&#x1e30;" horiz-adv-x="615" d="M503 915l-119 -140h-62l81 140h100zM173 700v-342l318 342h111l-325 -350l340 -350h-114l-330 340v-340h-85v700h85z" />
<glyph unicode="&#x1e31;" horiz-adv-x="517" d="M264 915l-119 -140h-62l81 140h100zM155 700v-442l234 242h105l-242 -250l257 -250h-110l-244 240v-240h-82v700h82z" />
<glyph unicode="&#x1e32;" horiz-adv-x="615" d="M173 700v-342l318 342h111l-325 -350l340 -350h-114l-330 340v-340h-85v700h85zM403 -131q0 -21 -14.5 -35.5t-35.5 -14.5t-35.5 14.5t-14.5 35.5t14.5 35.5t35.5 14.5t35.5 -14.5t14.5 -35.5z" />
<glyph unicode="&#x1e33;" horiz-adv-x="517" d="M155 700v-442l234 242h105l-242 -250l257 -250h-110l-244 240v-240h-82v700h82zM341 -131q0 -21 -14.5 -35.5t-35.5 -14.5t-35.5 14.5t-14.5 35.5t14.5 35.5t35.5 14.5t35.5 -14.5t14.5 -35.5z" />
<glyph unicode="&#x1e34;" horiz-adv-x="615" d="M173 700v-342l318 342h111l-325 -350l340 -350h-114l-330 340v-340h-85v700h85zM493 -156h-280v61h280v-61z" />
<glyph unicode="&#x1e35;" horiz-adv-x="517" d="M155 700v-442l234 242h105l-242 -250l257 -250h-110l-244 240v-240h-82v700h82zM431 -156h-280v61h280v-61z" />
<glyph unicode="&#x1e36;" horiz-adv-x="548" d="M173 700v-622h365v-78h-450v700h85zM363 -131q0 -21 -14.5 -35.5t-35.5 -14.5t-35.5 14.5t-14.5 35.5t14.5 35.5t35.5 14.5t35.5 -14.5t14.5 -35.5z" />
<glyph unicode="&#x1e37;" horiz-adv-x="228" d="M73 0v700h82v-700h-82zM164 -131q0 -21 -14.5 -35.5t-35.5 -14.5t-35.5 14.5t-14.5 35.5t14.5 35.5t35.5 14.5t35.5 -14.5t14.5 -35.5z" />
<glyph unicode="&#x1e38;" horiz-adv-x="548" d="M271 785h-280v61h280v-61zM173 700v-622h365v-78h-450v700h85zM363 -131q0 -21 -14.5 -35.5t-35.5 -14.5t-35.5 14.5t-14.5 35.5t14.5 35.5t35.5 14.5t35.5 -14.5t14.5 -35.5z" />
<glyph unicode="&#x1e39;" horiz-adv-x="228" d="M254 785h-280v61h280v-61zM73 0v700h82v-700h-82zM164 -131q0 -21 -14.5 -35.5t-35.5 -14.5t-35.5 14.5t-14.5 35.5t14.5 35.5t35.5 14.5t35.5 -14.5t14.5 -35.5z" />
<glyph unicode="&#x1e3a;" horiz-adv-x="548" d="M173 700v-622h365v-78h-450v700h85zM173 -85h280v-61h-280v61z" />
<glyph unicode="&#x1e3b;" horiz-adv-x="228" d="M73 0v700h82v-700h-82zM-26 -85h280v-61h-280v61z" />
<glyph unicode="&#x1e3c;" horiz-adv-x="548" d="M173 700v-622h365v-78h-450v700h85zM361 -75l107 -140h-76l-79 103l-79 -103h-76l107 140h96z" />
<glyph unicode="&#x1e3d;" horiz-adv-x="228" d="M73 0v700h82v-700h-82zM162 -75l107 -140h-76l-79 103l-79 -103h-76l107 140h96z" />
<glyph unicode="&#x1e3e;" horiz-adv-x="896" d="M598 915l-119 -140h-62l81 140h100zM250 700l197 -675h2l197 675h162v-700h-85v675h-2l-197 -675h-152l-197 675h-2v-675h-85v700h162z" />
<glyph unicode="&#x1e3f;" horiz-adv-x="859" d="M582 715l-119 -140h-62l81 140h100zM473 0h-82v302q0 70 -22.5 102t-76.5 32q-61 0 -99 -44t-38 -121v-271h-82v500h82v-77q22 42 61.5 65t88.5 23q115 0 151 -97q24 47 68.5 72t98.5 25q168 0 168 -207v-304h-82v302q0 70 -22.5 102t-76.5 32q-61 0 -99 -44t-38 -121 v-271z" />
<glyph unicode="&#x1e40;" horiz-adv-x="896" d="M398 831q0 21 14.5 35.5t35.5 14.5t35.5 -14.5t14.5 -35.5t-14.5 -35.5t-35.5 -14.5t-35.5 14.5t-14.5 35.5zM250 700l197 -675h2l197 675h162v-700h-85v675h-2l-197 -675h-152l-197 675h-2v-675h-85v700h162z" />
<glyph unicode="&#x1e41;" horiz-adv-x="859" d="M382 631q0 21 14.5 35.5t35.5 14.5t35.5 -14.5t14.5 -35.5t-14.5 -35.5t-35.5 -14.5t-35.5 14.5t-14.5 35.5zM473 0h-82v302q0 70 -22.5 102t-76.5 32q-61 0 -99 -44t-38 -121v-271h-82v500h82v-77q22 42 61.5 65t88.5 23q115 0 151 -97q24 47 68.5 72t98.5 25 q168 0 168 -207v-304h-82v302q0 70 -22.5 102t-76.5 32q-61 0 -99 -44t-38 -121v-271z" />
</font>
</defs>
</svg>
