<?xml version="1.0" standalone="no"?>
<!DOCTYPE svg PUBLIC "-//W3C//DTD SVG 1.1//EN" "http://www.w3.org/Graphics/SVG/1.1/DTD/svg11.dtd" >
<svg xmlns="http://www.w3.org/2000/svg" xmlns:xlink="http://www.w3.org/1999/xlink" version="1.1">
<metadata></metadata>
<defs>
<font id="upmaxmedium_italic" horiz-adv-x="630" >
<font-face units-per-em="1000" ascent="800" descent="-200" />
<missing-glyph horiz-adv-x="259" />
<glyph unicode="ff" horiz-adv-x="714" d="M101 500h89l12 76q11 70 52.5 108t109.5 38q53 0 96 -16l-14 -87q-36 14 -77 14q-56 0 -67 -64l-11 -69h256l12 76q12 70 53.5 108t108.5 38q53 0 96 -16l-14 -87q-36 14 -77 14q-56 0 -67 -64l-11 -69h135l-15 -86h-135l-69 -414h-101l69 414h-256l-69 -414h-101l69 414 h-89z" />
<glyph unicode="fi" horiz-adv-x="594" d="M526 662q4 26 24.5 43.5t46.5 17.5t40.5 -17.5t10.5 -43.5t-24.5 -43.5t-46.5 -17.5t-40.5 17.5t-10.5 43.5zM101 500h89l12 76q11 70 52.5 108t109.5 38q53 0 96 -16l-14 -87q-36 14 -77 14q-56 0 -67 -64l-11 -69h319l-84 -500h-101l69 414h-218l-69 -414h-101l69 414 h-89z" />
<glyph unicode="fl" horiz-adv-x="595" d="M101 500h89l12 76q11 70 52.5 108t109.5 38q53 0 96 -16l-14 -87q-36 14 -77 14q-56 0 -67 -64l-11 -69h218l33 200h101l-117 -700h-101l69 414h-218l-69 -414h-101l69 414h-89z" />
<glyph unicode="ffi" horiz-adv-x="951" d="M883 662q4 26 24.5 43.5t46.5 17.5t40.5 -17.5t10.5 -43.5t-24.5 -43.5t-46.5 -17.5t-40.5 17.5t-10.5 43.5zM101 500h89l12 76q11 70 52.5 108t109.5 38q53 0 96 -16l-14 -87q-36 14 -77 14q-56 0 -67 -64l-11 -69h256l12 76q11 70 52.5 108t109.5 38q53 0 96 -16 l-14 -87q-36 14 -77 14q-56 0 -67 -64l-11 -69h319l-84 -500h-101l69 414h-218l-69 -414h-101l69 414h-256l-69 -414h-101l69 414h-89z" />
<glyph unicode="ffl" horiz-adv-x="952" d="M101 500h89l12 76q11 70 52.5 108t109.5 38q53 0 96 -16l-14 -87q-36 14 -77 14q-56 0 -67 -64l-11 -69h256l12 76q11 70 52.5 108t109.5 38q53 0 96 -16l-14 -87q-36 14 -77 14q-56 0 -67 -64l-11 -69h218l33 200h101l-117 -700h-101l69 414h-218l-69 -414h-101l69 414 h-256l-69 -414h-101l69 414h-89z" />
<glyph unicode="fft" horiz-adv-x="1099" d="M101 500h89l12 76q11 70 52.5 108t109.5 38q53 0 96 -16l-14 -87q-36 14 -77 14q-56 0 -67 -64l-11 -69h256l12 76q11 70 52.5 108t109.5 38q53 0 96 -16l-14 -87q-36 14 -77 14q-56 0 -67 -64l-11 -69h256l23 140h101l-23 -140h135l-15 -86h-135l-45 -272 q-11 -64 45 -64q43 0 81 14l-14 -88q-49 -16 -102 -16q-67 0 -95.5 38t-17.5 108l47 280h-256l-69 -414h-101l69 414h-256l-69 -414h-101l69 414h-89z" />
<glyph horiz-adv-x="0" />
<glyph horiz-adv-x="0" />
<glyph unicode="&#xd;" horiz-adv-x="333" />
<glyph unicode=" "  horiz-adv-x="259" />
<glyph unicode="&#x09;" horiz-adv-x="259" />
<glyph unicode="&#xa0;" horiz-adv-x="259" />
<glyph unicode="!" horiz-adv-x="295" d="M226 214h-86l66 486h116zM92 54q4 28 26 46t49 18t42 -18t11 -46t-26 -46t-49 -18t-42 18t-11 46z" />
<glyph unicode="&#x22;" horiz-adv-x="370" d="M132 450l42 250h85l-42 -250h-85zM302 450l42 250h85l-42 -250h-85z" />
<glyph unicode="#" horiz-adv-x="620" d="M466 433h-145l-51 -165h145zM185 268l51 165h-98l13 77h109l60 190h85l-60 -190h145l60 190h85l-60 -190h98l-13 -77h-109l-51 -165h98l-13 -77h-109l-60 -191h-85l60 191h-145l-60 -191h-85l60 191h-98l13 77h109z" />
<glyph unicode="$" horiz-adv-x="614" d="M387 298l-36 -216q59 6 102 34.5t51 78.5q8 46 -23 68t-94 35zM340 411l34 207q-51 -7 -86.5 -35t-43.5 -77q-7 -41 18 -62t78 -33zM335 -11l-15 -89h-66l15 90q-95 9 -150.5 63t-46.5 150h105q-4 -51 26 -81.5t82 -38.5l38 227q-37 7 -62 14t-54 21.5t-45 34t-23.5 51 t-0.5 72.5q16 94 86.5 147t165.5 61l15 89h66l-15 -90q89 -9 140 -62.5t41 -149.5h-105q7 102 -92 119l-36 -219q54 -10 84 -19t67 -29.5t50 -58.5t4 -93q-16 -95 -93 -148.5t-181 -60.5z" />
<glyph unicode="%" horiz-adv-x="883" d="M141 534q12 74 63.5 126t135.5 52t117.5 -52t21.5 -126t-63.5 -126t-134.5 -52q-84 0 -118 52t-22 126zM197 0l525 700h80l-525 -700h-80zM224 534q-7 -42 10 -71.5t59 -29.5t69 29.5t34 71.5t-10 71.5t-59 29.5t-69 -29.5t-34 -71.5zM520 166q12 74 64 126t135 52 t117 -52t22 -126t-64 -126t-135 -52t-117 52t-22 126zM603 166q-7 -42 10 -71.5t59 -29.5t69 29.5t34 71.5t-10 71.5t-59 29.5t-69 -29.5t-34 -71.5z" />
<glyph unicode="&#x26;" horiz-adv-x="643" d="M274 332q-85 -52 -96 -124q-10 -60 24.5 -94.5t90.5 -34.5q69 0 138 46q-104 128 -157 207zM482 559q5 31 -14 51.5t-52 20.5q-41 0 -72 -31.5t-39 -76.5q-6 -41 11 -84q99 41 126 62q34 25 40 58zM482 62q-101 -74 -204 -74q-100 0 -161 59t-44 161q19 120 157 192 q-31 61 -20 123q13 83 76 136t143 53q72 0 115.5 -42.5t32.5 -108.5q-3 -15 -8.5 -29.5t-11 -25.5t-18 -23t-19 -19.5t-24.5 -18.5t-24.5 -16t-28.5 -15.5t-28 -13.5t-31 -14t-29 -13q44 -64 147 -190q25 25 71 81l53 -64q-34 -41 -73 -79q32 -36 102 -121h-121 q-19 24 -52 62z" />
<glyph unicode="'" horiz-adv-x="200" d="M132 450l42 250h85l-42 -250h-85z" />
<glyph unicode="(" horiz-adv-x="294" d="M180 270q-38 -227 76 -408l-75 -47q-136 196 -94 455q44 259 246 455l59 -47q-175 -183 -212 -408z" />
<glyph unicode=")" horiz-adv-x="295" d="M204 270q38 227 -76 408l75 47q138 -198 94 -455q-42 -257 -246 -455l-59 47q175 183 212 408z" />
<glyph unicode="*" horiz-adv-x="405" d="M150 425l96 98l-116 33l31 63l110 -45l15 126h66l-27 -126l126 45l9 -63l-126 -33l62 -98l-59 -39l-53 107l-87 -107z" />
<glyph unicode="+" horiz-adv-x="608" d="M301 256h-202l15 88h202l33 202h91l-33 -202h202l-15 -88h-202l-34 -202h-91z" />
<glyph unicode="," horiz-adv-x="274" d="M38 -133l83 240h110l-110 -240h-83z" />
<glyph unicode="-" horiz-adv-x="482" d="M109 239l15 88h343l-15 -88h-343z" />
<glyph unicode="." horiz-adv-x="249" d="M69 54q4 28 26 46t49 18t42 -18t11 -46t-26 -46t-49 -18t-42 18t-11 46z" />
<glyph unicode="/" horiz-adv-x="398" d="M22 0l393 700h77l-393 -700h-77z" />
<glyph unicode="0" horiz-adv-x="607" d="M106 350q10 58 25 107.5t41 97.5t60 82t82.5 54.5t107.5 20.5t101 -20.5t64.5 -54.5t32.5 -82t9 -97.5t-11 -107.5t-25.5 -107.5t-41.5 -97.5t-60 -82t-82.5 -54.5t-107.5 -20.5t-101 20.5t-64.5 54.5t-32.5 82t-8.5 97.5t11.5 107.5zM211 350q-46 -266 106 -266 q150 0 196 266q44 266 -107 266t-195 -266z" />
<glyph unicode="1" horiz-adv-x="359" d="M168 0l86 514h-150l13 78q62 4 114.5 31t80.5 77h78l-117 -700h-105z" />
<glyph unicode="2" horiz-adv-x="573" d="M504 473q12 70 -21.5 108t-93.5 38q-59 0 -102 -32t-56 -84h-103q18 96 97.5 152.5t178.5 56.5q104 0 163 -62.5t40 -176.5q-13 -78 -66.5 -127t-144.5 -93q-8 -4 -54 -25.5t-61 -30t-45 -27.5t-45 -37t-24 -39h377l-16 -94h-484l10 59q4 22 12 43t16.5 37.5t25.5 34.5 t27.5 29.5t33.5 27t32.5 22.5t36.5 21.5t34 18t35.5 17t30.5 14.5q85 41 121.5 71t44.5 78z" />
<glyph unicode="3" horiz-adv-x="558" d="M596 616l-203 -208q92 -12 131.5 -67t26.5 -133q-16 -97 -90.5 -158.5t-196.5 -61.5q-99 0 -156 55.5t-43 153.5h103q-5 -52 27.5 -84.5t91.5 -32.5q60 0 105 31.5t55 92.5q11 61 -23.5 93.5t-96.5 32.5h-22l-24 81l185 195h-313l16 94h441z" />
<glyph unicode="4" horiz-adv-x="583" d="M463 670l-286 -441h214l74 441h-2zM572 137h-91l-23 -137h-105l23 137h-320l14 83l310 480h195l-79 -471h91z" />
<glyph unicode="5" horiz-adv-x="569" d="M610 700l-16 -94h-328l-29 -178q65 44 143 44q97 0 150.5 -63.5t33.5 -181.5q-16 -99 -92.5 -169t-197.5 -70q-99 0 -156 55.5t-43 153.5h103q-5 -52 27 -84.5t91 -32.5q61 0 107.5 39.5t58.5 113.5q12 73 -24 111.5t-99 38.5q-73 0 -133 -62h-89l63 379h430z" />
<glyph unicode="6" horiz-adv-x="565" d="M352 370q-58 0 -103 -38t-57 -108q-11 -70 21 -107t90 -37q59 0 103.5 36.5t55.5 106.5q12 70 -20 108.5t-90 38.5zM601 527h-101q2 44 -23.5 69.5t-72.5 25.5q-152 0 -202 -251q71 88 184 88q101 0 148.5 -65.5t31.5 -164.5q-7 -43 -26 -83t-51 -77t-84.5 -59 t-117.5 -22q-252 0 -195 340q13 79 37 144.5t62.5 121t97.5 87t133 31.5q93 0 139.5 -48t39.5 -137z" />
<glyph unicode="7" horiz-adv-x="508" d="M92 0l364 605h-323l16 95h439l-14 -83l-371 -617h-111z" />
<glyph unicode="8" horiz-adv-x="573" d="M461 213q9 55 -19.5 93.5t-97.5 38.5t-110.5 -38.5t-50.5 -93.5q-10 -55 19 -93.5t98 -38.5t110 38t51 94zM474 526q7 40 -14 68t-70 28t-79 -28t-37 -68t14 -68t70 -28t79 28t37 68zM77 207q10 63 48.5 110.5t96.5 74.5q-62 49 -47 138q13 82 77.5 132t152.5 50 t135.5 -50t34.5 -132q-15 -89 -93 -138q49 -27 71 -74.5t12 -110.5q-17 -99 -95.5 -159t-185.5 -60t-165.5 60t-41.5 159z" />
<glyph unicode="9" horiz-adv-x="566" d="M330 330q58 0 103 38t57 108q11 70 -21 107t-90 37q-59 0 -103.5 -36.5t-55.5 -106.5q-12 -70 20 -108.5t90 -38.5zM81 173h101q-2 -44 23.5 -69.5t72.5 -25.5q152 0 202 251q-71 -88 -184 -88q-101 0 -149 65.5t-31 164.5q7 43 26 83t51 77t84.5 59t117.5 22 q252 0 195 -340q-13 -79 -37 -144.5t-62.5 -121t-97.5 -87t-133 -31.5q-93 0 -139.5 48t-39.5 137z" />
<glyph unicode=":" horiz-adv-x="249" d="M135 446q4 28 25.5 46t48.5 18t42.5 -18t11.5 -46q-5 -28 -26.5 -46t-48.5 -18t-42.5 18.5t-10.5 45.5zM69 54q4 28 26 46t49 18t42 -18t11 -46t-26 -46t-49 -18t-42 18t-11 46z" />
<glyph unicode=";" horiz-adv-x="274" d="M153 446q4 28 25.5 46t48.5 18t42.5 -18t11.5 -46q-5 -28 -26.5 -46t-48.5 -18t-42.5 18.5t-10.5 45.5zM38 -133l83 240h110l-110 -240h-83z" />
<glyph unicode="&#x3c;" horiz-adv-x="563" d="M104 284l483 198l-15 -86l-361 -146l312 -146l-14 -86l-417 198z" />
<glyph unicode="=" horiz-adv-x="607" d="M610 354h-495l15 88h495zM577 158h-495l15 88h495z" />
<glyph unicode="&#x3e;" horiz-adv-x="562" d="M554 284l-12 -68l-483 -198l14 86l362 146l-313 146l15 86z" />
<glyph unicode="?" horiz-adv-x="520" d="M244 194l32 188h44q58 0 93.5 34.5t43.5 84.5t-15.5 84.5t-81.5 34.5t-93.5 -34.5t-43.5 -84.5h-101q14 87 79.5 149t173.5 62t152.5 -62t30.5 -149q-13 -76 -65 -132.5t-138 -69.5l-23 -105h-88zM201 54q4 28 26 46t49 18t42 -18t11 -46t-26 -46t-49 -18t-42 18t-11 46z " />
<glyph unicode="@" horiz-adv-x="834" d="M541 251q7 39 -9 65.5t-56 26.5t-64 -26.5t-31 -65.5t9 -65.5t56 -26.5t64 26.5t31 65.5zM625 5h76q-130 -130 -312 -130q-160 0 -241.5 106t-54.5 270t144 269t278 105q162 0 252 -105t64 -259q-14 -86 -68.5 -134t-124.5 -48q-39 0 -68.5 18.5t-37.5 51.5 q-47 -58 -116 -58q-72 0 -98.5 47.5t-15.5 112.5t53.5 112.5t114.5 47.5q63 0 90 -46l7 39h79l-36 -212q-4 -26 10.5 -41.5t37.5 -15.5q41 0 74.5 34t42.5 92q23 132 -54.5 222t-214.5 90q-136 0 -234.5 -90.5t-122.5 -231.5t44.5 -232.5t204.5 -91.5q127 0 227 78z" />
<glyph unicode="A" horiz-adv-x="664" d="M443 670l-198 -408h262l-62 408h-2zM118 0h-111l350 700h184l116 -700h-111l-25 166h-322z" />
<glyph unicode="B" horiz-adv-x="676" d="M431 322h-189l-39 -230h189q151 0 171 115q10 61 -28 88t-104 27zM462 608h-172l-34 -204h172q133 0 150 102q9 54 -24.5 78t-91.5 24zM377 0h-294l117 700h277q48 0 87 -9t70.5 -29.5t45 -58t4.5 -90.5q-15 -94 -107 -143q109 -50 89 -170q-12 -73 -58 -119.5 t-103.5 -63.5t-127.5 -17z" />
<glyph unicode="C" horiz-adv-x="716" d="M613 259h106q-39 -123 -126 -197t-225 -74q-67 0 -120 20t-84.5 55t-51 81t-20.5 98.5t6 107.5q12 70 42 133.5t77 115.5t117.5 82.5t154.5 30.5q138 0 200.5 -74t60.5 -197h-106q-3 173 -171 173q-112 0 -182 -77t-88 -187q-19 -110 25 -187t156 -77q168 0 229 173z" />
<glyph unicode="D" horiz-adv-x="698" d="M450 700q67 0 118.5 -19.5t82.5 -53t50.5 -78.5t21 -95.5t-5.5 -103.5q-12 -68 -41 -129t-75.5 -111.5t-115.5 -80t-152 -29.5h-250l117 700h250zM349 96q109 0 177 74t86 180q17 106 -26 180t-152 74h-145l-85 -508h145z" />
<glyph unicode="E" horiz-adv-x="615" d="M240 309l-36 -214h380l-16 -95h-485l117 700h473l-16 -95h-368l-34 -204h344l-15 -92h-344z" />
<glyph unicode="F" horiz-adv-x="557" d="M238 296l-50 -296h-105l117 700h445l-16 -96h-340l-36 -213h304l-15 -95h-304z" />
<glyph unicode="G" horiz-adv-x="752" d="M98 350q12 70 42 133.5t77 115.5t117.5 82.5t154.5 30.5q133 0 196 -70t65 -187h-107q-10 159 -170 159q-112 0 -182 -77t-88 -187q-11 -50 -4 -97.5t26 -85t61 -60t100 -22.5q184 0 239 192h-209l15 87h313l-61 -364h-68v103q-85 -115 -247 -115q-67 0 -120 20t-84.5 55 t-51 81t-20.5 98.5t6 107.5z" />
<glyph unicode="H" horiz-adv-x="717" d="M83 0l117 700h105l-49 -296h340l49 296h105l-117 -700h-105l52 308h-340l-52 -308h-105z" />
<glyph unicode="I" horiz-adv-x="272" d="M83 0l117 700h105l-117 -700h-105z" />
<glyph unicode="J" horiz-adv-x="563" d="M270 85q67 0 104.5 43t48.5 108l78 464h105l-78 -464q-18 -107 -85 -177.5t-189 -70.5q-63 0 -107 21t-63 55.5t-26 79.5t4 92l9 52h105l-9 -52q-11 -65 12.5 -108t90.5 -43z" />
<glyph unicode="K" horiz-adv-x="627" d="M305 700l-57 -340l353 340h131l-363 -350l261 -350h-134l-251 338l-57 -338h-105l117 700h105z" />
<glyph unicode="L" horiz-adv-x="555" d="M305 700l-101 -604h355l-16 -96h-460l117 700h105z" />
<glyph unicode="M" horiz-adv-x="907" d="M394 700l63 -670h2l287 670h194l-117 -700h-105l112 670h-2l-287 -670h-176l-63 670h-2l-112 -670h-105l117 700h194z" />
<glyph unicode="N" horiz-adv-x="752" d="M396 700l170 -670h2l112 670h105l-117 -700h-196l-170 670h-2l-112 -670h-105l117 700h196z" />
<glyph unicode="O" horiz-adv-x="741" d="M98 350q12 70 42 133.5t77 115.5t117.5 82.5t154.5 30.5q67 0 120 -20t84.5 -55t51 -81t21 -98.5t-5.5 -107.5q-12 -71 -42.5 -134t-77.5 -115t-117.5 -82.5t-154.5 -30.5q-67 0 -120 20t-84.5 55t-51 81t-20.5 98.5t6 107.5zM655 350q18 110 -26 187t-156 77t-182 -77 t-88 -187q-19 -110 25 -187t156 -77t182 77t89 187z" />
<glyph unicode="P" horiz-adv-x="641" d="M466 605h-177l-46 -276h177q60 0 105.5 39t55.5 99t-22.5 99t-92.5 39zM407 234h-180l-39 -234h-105l117 700h285q104 0 161 -66t40 -167t-96 -167t-183 -66z" />
<glyph unicode="Q" horiz-adv-x="770" d="M98 350q12 70 42 133.5t77 115.5t117.5 82.5t154.5 30.5q67 0 120 -20t84.5 -55t51 -81t21 -98.5t-5.5 -107.5q-23 -134 -104 -230l79 -95l-69 -59l-76 92q-96 -70 -222 -70q-67 0 -120 20t-84.5 55t-51 81t-20.5 98.5t6 107.5zM655 350q19 110 -25.5 187t-156.5 77 t-182 -77t-88 -187q-19 -110 25 -187t156 -77q81 0 145 45l-98 118l69 59l93 -112q48 70 62 154z" />
<glyph unicode="R" horiz-adv-x="669" d="M476 605h-187l-43 -256h187q55 0 97.5 36t52.5 92q9 56 -21.5 92t-85.5 36zM231 256l-43 -256h-105l117 700h295q100 0 154.5 -63.5t38.5 -159.5q-13 -76 -64.5 -132.5t-125.5 -77.5l122 -267h-119l-117 256h-153z" />
<glyph unicode="S" horiz-adv-x="614" d="M72 203h105q-4 -60 36.5 -91.5t106.5 -31.5q69 0 122 29t62 86q5 32 -9 53t-42 31t-64 18.5t-74 14t-73.5 19t-61.5 32.5t-38 54.5t-4 85.5q18 103 99 156t186 53q102 0 163.5 -54.5t50.5 -159.5h-105q4 60 -30 91t-94 31q-62 0 -108.5 -28.5t-55.5 -85.5 q-7 -40 20 -63.5t72 -30.5t97 -19t95.5 -28t67.5 -58.5t13 -108.5q-11 -70 -59 -119t-111 -70t-134 -21q-109 0 -176.5 55t-56.5 160z" />
<glyph unicode="T" horiz-adv-x="582" d="M444 604l-101 -604h-105l101 604h-217l16 96h539l-16 -96h-217z" />
<glyph unicode="U" horiz-adv-x="717" d="M584 277l71 423h105l-72 -430q-9 -51 -30.5 -97.5t-59 -89.5t-100 -69t-142.5 -26q-64 0 -112.5 17.5t-74 46t-41 65.5t-15 76t4.5 77l72 430h105l-71 -423q-13 -79 20 -136t128 -57t147 56.5t65 136.5z" />
<glyph unicode="V" horiz-adv-x="685" d="M124 700h112l110 -670h2l334 670h112l-359 -700h-186z" />
<glyph unicode="W" horiz-adv-x="983" d="M244 700l34 -670h2l241 670h174l17 -670h2l258 670h108l-279 -700h-180l-17 670h-2l-241 -670h-180l-45 700h108z" />
<glyph unicode="X" horiz-adv-x="612" d="M696 700l-226 -334l130 -366h-116l-118 351h-2l-236 -351h-116l252 366l-114 334h114l105 -319h2l211 319h114z" />
<glyph unicode="Y" horiz-adv-x="625" d="M269 275l-140 425h113l121 -395h1l253 395h113l-282 -425h-37l-46 -275h-105l46 275h-37z" />
<glyph unicode="Z" horiz-adv-x="599" d="M675 700l-18 -110l-483 -494h406l-16 -96h-529l18 110l483 494h-390l16 96h513z" />
<glyph unicode="[" horiz-adv-x="317" d="M263 -150h-219l149 890h219l-14 -85h-130l-121 -720h130z" />
<glyph unicode="\" horiz-adv-x="397" d="M375 0h-77l-159 700h77z" />
<glyph unicode="]" horiz-adv-x="317" d="M4 -150l14 85h130l121 720h-130l14 85h219l-149 -890h-219z" />
<glyph unicode="^" horiz-adv-x="531" d="M107 375l214 325h122l106 -325h-89l-87 272l-177 -272h-89z" />
<glyph unicode="_" horiz-adv-x="586" d="M14 -85h530l-14 -82h-530z" />
<glyph unicode="`" horiz-adv-x="251" d="M145 715h117l59 -142h-77z" />
<glyph unicode="a" horiz-adv-x="610" d="M482 250q12 72 -18 121.5t-104 49.5q-75 0 -120.5 -49.5t-57.5 -121.5t17 -121.5t104 -49.5q74 0 120.5 49.5t58.5 121.5zM541 0h-101l11 66q-75 -78 -181 -78q-62 0 -105 23.5t-61.5 61t-26 84.5t3.5 93q8 49 28 93.5t53 83.5t83.5 62t112.5 23q106 0 155 -78l11 66h101 z" />
<glyph unicode="b" horiz-adv-x="610" d="M211 250q-12 -72 17 -121.5t104 -49.5q74 0 120.5 49.5t58.5 121.5t-18 121.5t-104 49.5q-75 0 -120.5 -49.5t-57.5 -121.5zM180 66l-11 -66h-101l117 700h101l-44 -266q73 78 181 78q50 0 87.5 -15.5t59 -41.5t34.5 -60t12.5 -70.5t-4.5 -74.5q-8 -49 -28.5 -93.5 t-53 -83.5t-83 -62t-112.5 -23q-108 0 -155 78z" />
<glyph unicode="c" horiz-adv-x="562" d="M576 319h-103q-7 101 -113 101q-74 0 -120 -49.5t-58 -120.5t17 -120.5t104 -49.5q106 0 147 101h103q-29 -87 -94.5 -140t-170.5 -53q-64 0 -110 22.5t-68 59.5t-31 84t2 96q18 108 94.5 185t200.5 77q104 0 152 -53t48 -140z" />
<glyph unicode="d" horiz-adv-x="610" d="M482 250q12 72 -18 121.5t-104 49.5q-75 0 -120.5 -49.5t-57.5 -121.5t17 -121.5t104 -49.5q74 0 120.5 49.5t58.5 121.5zM541 0h-101l11 66q-75 -78 -181 -78q-62 0 -105 23.5t-61.5 61t-26 84.5t3.5 93q8 49 28 93.5t53 83.5t83.5 62t112.5 23q106 0 155 -78l44 266 h101z" />
<glyph unicode="e" horiz-adv-x="561" d="M194 297h272q0 59 -28 94.5t-87 35.5q-114 0 -157 -130zM432 148h103q-70 -160 -257 -160q-61 0 -105.5 22.5t-65 59.5t-29 84t2.5 96q18 108 92 185t193 77q61 0 105.5 -22.5t65 -59.5t29 -84t-2.5 -96l-5 -27h-380q-5 -66 22.5 -107.5t91.5 -41.5q98 0 140 74z" />
<glyph unicode="f" horiz-adv-x="357" d="M101 500h89l12 76q12 70 53.5 108t108.5 38q53 0 96 -16l-14 -87q-36 14 -77 14q-56 0 -67 -64l-11 -69h135l-15 -86h-135l-69 -414h-101l69 414h-89z" />
<glyph unicode="g" horiz-adv-x="600" d="M482 252q12 71 -17 120.5t-104 49.5q-74 0 -120.5 -49.5t-58.5 -120.5t18 -120.5t104 -49.5t120 49.5t58 120.5zM443 19l9 50q-74 -77 -181 -77q-62 0 -105 23.5t-62 61t-26 83.5t3 92q8 48 28.5 92.5t53 83t83 61.5t112.5 23q106 0 155 -77l11 65h101l-81 -481 q-20 -116 -101 -171t-186 -55q-82 0 -140 34t-71 105h113q31 -53 112 -53q63 0 111 34t61 106z" />
<glyph unicode="h" horiz-adv-x="573" d="M509 0h-101l50 297q11 64 -8 93.5t-73 29.5q-62 0 -106.5 -40.5t-56.5 -111.5l-45 -268h-101l117 700h101l-46 -274q66 86 174 86q180 0 145 -212z" />
<glyph unicode="i" horiz-adv-x="237" d="M169 662q4 26 24.5 43.5t46.5 17.5t40.5 -17.5t10.5 -43.5t-24.5 -43.5t-46.5 -17.5t-40.5 17.5t-10.5 43.5zM68 0l84 500h101l-84 -500h-101z" />
<glyph unicode="j" horiz-adv-x="237" d="M169 662q4 26 24.5 43.5t46.5 17.5t40.5 -17.5t10.5 -43.5t-24.5 -43.5t-46.5 -17.5t-40.5 17.5t-10.5 43.5zM-55 -202l15 88q16 -3 32 -3q56 0 67 64l93 553h101l-94 -561q-11 -70 -52.5 -108t-109.5 -38q-28 0 -52 5z" />
<glyph unicode="k" horiz-adv-x="525" d="M286 700l-74 -442l255 242h122l-265 -250l196 -250h-127l-185 236l-39 -236h-101l117 700h101z" />
<glyph unicode="l" horiz-adv-x="238" d="M68 0l117 700h101l-117 -700h-101z" />
<glyph unicode="m" horiz-adv-x="867" d="M486 0h-101l50 297q11 64 -5.5 93.5t-65.5 29.5q-56 0 -97 -40.5t-53 -111.5l-45 -268h-101l84 500h101l-13 -74q63 86 163 86q113 0 134 -94q71 94 183 94q168 0 133 -212l-50 -300h-101l50 297q11 64 -5.5 93.5t-65.5 29.5q-56 0 -97 -40.5t-53 -111.5z" />
<glyph unicode="n" horiz-adv-x="573" d="M509 0h-101l50 297q11 64 -8 93.5t-73 29.5q-62 0 -106.5 -40.5t-56.5 -111.5l-45 -268h-101l84 500h101l-13 -74q66 86 174 86q180 0 145 -212z" />
<glyph unicode="o" horiz-adv-x="581" d="M81 250q18 108 94.5 185t200.5 77q64 0 110 -22.5t68 -59.5t31 -84t-2 -96q-18 -108 -94.5 -185t-200.5 -77q-64 0 -110 22.5t-68 59.5t-31 84t2 96zM482 250q12 71 -18 120.5t-104 49.5t-120 -49.5t-58 -120.5t17 -120.5t104 -49.5q74 0 120.5 49.5t58.5 120.5z" />
<glyph unicode="p" horiz-adv-x="611" d="M212 250q-12 -72 17 -121.5t104 -49.5q74 0 120.5 49.5t58.5 121.5t-18 121.5t-104 49.5q-75 0 -120.5 -49.5t-57.5 -121.5zM181 66l-44 -261h-101l117 695h101l-11 -66q73 78 181 78q50 0 87.5 -15.5t59 -41.5t34.5 -60t12.5 -70.5t-4.5 -74.5q-8 -49 -28.5 -93.5 t-53 -83.5t-83 -62t-112.5 -23q-108 0 -155 78z" />
<glyph unicode="q" horiz-adv-x="610" d="M482 250q12 72 -18 121.5t-104 49.5q-75 0 -120.5 -49.5t-57.5 -121.5t17 -121.5t104 -49.5q74 0 120.5 49.5t58.5 121.5zM508 -195h-101l44 261q-75 -78 -181 -78q-62 0 -105 23.5t-61.5 61t-26 84.5t3.5 93q8 49 28 93.5t53 83.5t83.5 62t112.5 23q106 0 155 -78l11 66 h101z" />
<glyph unicode="r" horiz-adv-x="356" d="M68 0l84 500h101l-13 -77h2q20 37 65 63t99 26h22l-17 -101q-9 4 -37 4q-55 0 -102 -41t-58 -105l-45 -269h-101z" />
<glyph unicode="s" horiz-adv-x="494" d="M63 149h101q-3 -39 24 -59.5t71 -20.5q45 0 79.5 18t40.5 54q5 31 -24 46t-73 22t-87.5 18t-69.5 43t-17 87q13 77 76.5 116t146.5 39q80 0 127.5 -40.5t41.5 -118.5h-99q3 39 -20.5 58.5t-64.5 19.5q-40 0 -70 -16.5t-36 -52.5q-5 -30 24 -45t73 -21.5t87 -17.5 t69 -43.5t17 -88.5q-13 -77 -80.5 -117.5t-153.5 -40.5q-85 0 -138 41.5t-45 119.5z" />
<glyph unicode="t" horiz-adv-x="386" d="M343 4q-49 -16 -102 -16q-67 0 -95.5 38t-17.5 108l47 280h-89l15 86h89l23 140h101l-23 -140h135l-15 -86h-135l-45 -272q-11 -64 45 -64q43 0 81 14z" />
<glyph unicode="u" horiz-adv-x="574" d="M148 500h101l-50 -297q-11 -64 7.5 -93.5t72.5 -29.5q62 0 107 40.5t57 111.5l45 268h101l-84 -500h-101l12 74q-66 -86 -173 -86q-182 0 -146 212z" />
<glyph unicode="v" horiz-adv-x="521" d="M597 500l-247 -500h-180l-79 500h106l66 -475h2l226 475h106z" />
<glyph unicode="w" horiz-adv-x="795" d="M209 500l24 -475h2l164 475h164l4 -475h2l184 475h103l-204 -500h-170l-5 475h-2l-163 -475h-170l-36 500h103z" />
<glyph unicode="x" horiz-adv-x="510" d="M205 257l-95 243h109l80 -232h2l158 232h109l-177 -243l107 -257h-112l-89 246h-2l-171 -246h-112z" />
<glyph unicode="y" horiz-adv-x="531" d="M602 500l-333 -695h-104l93 195h-86l-76 500h105l67 -475h2l227 475h105z" />
<glyph unicode="z" horiz-adv-x="488" d="M526 500l-15 -86l-324 -323h275l-15 -91h-405l14 86l324 323h-256l16 91h386z" />
<glyph unicode="{" horiz-adv-x="361" d="M244 159l-20 -120q-8 -48 15 -76t70 -28h13l-14 -85h-13q-87 0 -131 49.5t-30 133.5l21 126q9 51 -9.5 72t-69.5 21l15 86q50 0 75 20.5t34 72.5l21 126q14 84 75 133.5t148 49.5h13l-14 -85h-13q-47 0 -80 -28t-41 -76l-20 -120q-9 -56 -31 -88t-66 -48q39 -16 50 -48 t2 -88z" />
<glyph unicode="|" horiz-adv-x="254" d="M51 -195l157 935h86l-157 -935h-86z" />
<glyph unicode="}" horiz-adv-x="362" d="M151 39l20 120q9 56 31 88t65 48q-38 16 -49 48t-2 88l20 120q8 48 -15 76t-70 28h-13l14 85h13q87 0 131 -49.5t30 -133.5l-21 -126q-9 -51 9.5 -72t69.5 -21l-15 -86q-50 0 -75 -20.5t-34 -72.5l-21 -126q-14 -84 -75 -133.5t-148 -49.5h-13l14 85h13q47 0 80 28t41 76 z" />
<glyph unicode="~" horiz-adv-x="588" d="M244 376q47 0 112.5 -30.5t91.5 -30.5q24 0 39 12.5t30 37.5l82 -32q-29 -52 -65 -80.5t-91 -28.5q-47 0 -112 30.5t-91 30.5q-40 0 -70 -50l-81 32q29 52 64.5 80.5t90.5 28.5z" />
<glyph unicode="&#xa1;" horiz-adv-x="295" d="M286 446q-5 -28 -26.5 -46t-48.5 -18t-42.5 18.5t-10.5 45.5q4 28 25.5 46t48.5 18t42.5 -18t11.5 -46zM152 286h86l-66 -486h-116z" />
<glyph unicode="&#xa2;" horiz-adv-x="562" d="M272 83l56 334q-61 -11 -98 -57.5t-48 -109.5t11 -109.5t79 -57.5zM450 181h103q-27 -80 -84.5 -132t-148.5 -60l-15 -89h-64l15 90q-106 11 -149 85.5t-26 174.5q16 100 84 174.5t178 85.5l15 90h64l-14 -89q88 -8 128 -60t40 -132h-103q-5 84 -81 98l-56 -334 q80 14 114 98z" />
<glyph unicode="&#xa3;" horiz-adv-x="636" d="M666 443h-105q14 80 -13.5 126.5t-92.5 46.5q-66 0 -109 -46.5t-56 -126.5l-18 -108h182l-10 -58h-182l-18 -112q-9 -50 -37 -69h401l-16 -96h-551l16 96q70 0 82 69l18 112h-70l10 58h70l18 108q21 123 96 196t190 73t165.5 -73t29.5 -196z" />
<glyph unicode="&#xa4;" horiz-adv-x="573" d="M478 300q10 61 -23 101.5t-95 40.5q-61 0 -108 -40t-58 -102q-10 -61 23 -101.5t95 -40.5q61 0 108 40t58 102zM109 300q14 77 66 134l-35 42l58 50l37 -44q66 40 138 40q73 0 126 -40l51 44l42 -50l-49 -42q34 -57 20 -134q-12 -76 -65 -134l35 -42l-59 -50l-36 44 q-66 -40 -139 -40q-72 0 -125 40l-52 -44l-41 50l49 42q-33 57 -21 134z" />
<glyph unicode="&#xa5;" horiz-adv-x="626" d="M562 182l-9 -58h-167l-21 -124h-105l21 124h-167l9 58h167l11 65h-167l10 58h115l-130 395h113l121 -395h1l253 395h113l-262 -395h115l-10 -58h-167l-11 -65h167z" />
<glyph unicode="&#xa6;" horiz-adv-x="254" d="M144 360l64 380h86l-64 -380h-86zM115 185h86l-64 -380h-86z" />
<glyph unicode="&#xa7;" horiz-adv-x="548" d="M379 181q30 2 52.5 20t26.5 46q5 31 -19.5 53t-88 50t-85.5 41q-29 -2 -51.5 -20t-27.5 -46q-4 -24 14.5 -45t43.5 -33.5t68 -32t67 -33.5zM174 550q13 80 76 121t144 41q87 0 138 -45.5t43 -134.5h-98q4 46 -23 69.5t-74 23.5q-41 0 -71.5 -19t-37.5 -59 q-6 -35 23.5 -61.5t75 -46t90 -41.5t72.5 -60.5t19 -90.5q-15 -86 -103 -122q33 -44 23 -103q-13 -80 -76 -121t-144 -41q-87 0 -138 45.5t-43 134.5h98q-4 -46 23 -69.5t74 -23.5q41 0 71.5 19t37.5 59q6 35 -23.5 61.5t-75 46t-90.5 41.5t-73 60.5t-19 90.5q15 86 104 122 q-33 42 -23 103z" />
<glyph unicode="&#xa8;" horiz-adv-x="349" d="M131 632q4 24 22.5 40t42.5 16t37.5 -16t9.5 -40q-5 -24 -23.5 -40t-42.5 -16t-37 16t-9 40zM317 632q4 24 22.5 40t42.5 16t37.5 -16t9.5 -40q-5 -24 -23.5 -40t-42.5 -16t-37 16t-9 40z" />
<glyph unicode="&#xa9;" horiz-adv-x="817" d="M163 350q-22 -130 50.5 -218.5t201.5 -88.5t231.5 88.5t124.5 218.5t-51 218.5t-202 88.5t-231 -88.5t-124 -218.5zM566 302h69q-50 -158 -203 -158q-93 0 -131 60t-23 146q14 86 72 146t151 60q152 0 150 -158h-69q-2 95 -92 95q-60 0 -97 -41.5t-47 -101.5t13.5 -101.5 t83.5 -41.5q88 0 123 95zM105 350q26 152 148 257t274 105t239.5 -105t62.5 -257t-148 -257t-275 -105t-239.5 105t-61.5 257z" />
<glyph unicode="&#xaa;" horiz-adv-x="421" d="M397 593q7 46 -11.5 77.5t-66.5 31.5t-77.5 -31.5t-36.5 -77.5t11.5 -77.5t66.5 -31.5t77.5 31.5t36.5 77.5zM439 430h-69l7 42q-47 -50 -117 -50q-77 0 -106 50.5t-18 120.5q12 70 57.5 120.5t123.5 50.5q72 0 100 -50l8 42h69z" />
<glyph unicode="&#xab;" horiz-adv-x="486" d="M236 69l-150 136l15 90l195 136l-15 -93l-128 -88l98 -88zM446 69l-150 136l15 90l195 136l-15 -93l-128 -88l98 -88z" />
<glyph unicode="&#xac;" horiz-adv-x="608" d="M567 94h-91l27 162h-404l15 88h495z" />
<glyph unicode="&#xad;" horiz-adv-x="482" d="M109 239l15 88h343l-15 -88h-343z" />
<glyph unicode="&#xae;" horiz-adv-x="817" d="M163 350q-22 -130 50.5 -218.5t201.5 -88.5t231.5 88.5t124.5 218.5t-51 218.5t-202 88.5t-231 -88.5t-124 -218.5zM517 488h-99l-23 -136h99q29 0 52 19.5t27 48.5q5 29 -11 48.5t-45 19.5zM105 350q26 152 148 257t274 105t239.5 -105t62.5 -257t-148 -257t-275 -105 t-239.5 105t-61.5 257zM464 293h-79l-24 -142h-68l67 398h170q58 0 89 -37t22 -92q-7 -42 -35 -73.5t-69 -45.5l67 -150h-77z" />
<glyph unicode="&#xaf;" horiz-adv-x="335" d="M406 582h-284l12 71h284z" />
<glyph unicode="&#xb0;" horiz-adv-x="367" d="M118 558q11 66 64 110t120 44t105 -44t27 -110t-63.5 -110t-119.5 -44t-105.5 44t-27.5 110zM193 558q-6 -36 14 -59.5t55 -23.5t63 23.5t34 59.5t-14 59.5t-55 23.5t-63 -23.5t-34 -59.5z" />
<glyph unicode="&#xb1;" horiz-adv-x="609" d="M319 358h-202l15 88h202l25 149h91l-25 -149h202l-15 -88h-202l-25 -149h-91zM558 38h-495l15 88h495z" />
<glyph unicode="&#xb2;" horiz-adv-x="353" d="M365 705q6 37 -11.5 56.5t-49.5 19.5q-30 0 -52.5 -17t-30.5 -44h-74q12 59 60 93t108 34q64 0 100 -37t25 -105q-7 -46 -38 -73.5t-83 -51.5q-8 -4 -31.5 -14t-34 -15.5t-26.5 -15t-25 -19.5t-13 -21h216l-11 -65h-295l7 43q4 26 18.5 48.5t28 36t40.5 29.5t38.5 21 t39.5 18q35 16 49.5 24t28 22t16.5 33z" />
<glyph unicode="&#xb3;" horiz-adv-x="346" d="M430 780l-113 -107q51 -9 74 -41t16 -77q-9 -58 -54 -95t-118 -37q-61 0 -96.5 33t-26.5 93h74q-2 -27 14.5 -44.5t47.5 -17.5q32 0 55.5 16.5t28.5 48.5q6 33 -12 50t-51 17h-15l-17 57l97 97h-172l12 67h266z" />
<glyph unicode="&#xb4;" horiz-adv-x="251" d="M345 715l-147 -142h-77l107 142h117z" />
<glyph unicode="&#xb5;" horiz-adv-x="574" d="M31 -195l117 695h101l-50 -297q-11 -64 7.5 -93.5t72.5 -29.5q62 0 107 40.5t57 111.5l45 268h101l-84 -500h-101l12 74q-66 -86 -173 -86q-45 0 -78 14l-33 -197h-101z" />
<glyph unicode="&#xb6;" horiz-adv-x="555" d="M359 -165l145 865h84l-145 -865h-84zM261 316q-84 0 -117 56t-20 136t65 136t136 56h84l-145 -865h-84z" />
<glyph unicode="&#xb7;" horiz-adv-x="223" d="M95 284q4 28 25.5 46t48.5 18t42.5 -18t11.5 -46q-5 -28 -26.5 -46t-48.5 -18t-42.5 18.5t-10.5 45.5z" />
<glyph unicode="&#xb8;" horiz-adv-x="265" d="M64 -86l-13 28l38 68h54l-28 -50h16q45 0 69.5 -24.5t17.5 -65.5q-8 -47 -47 -76t-98 -29q-39 0 -84 17l10 60q38 -19 75 -19q31 0 52 13.5t25 35.5q3 21 -8.5 31.5t-39.5 10.5h-39z" />
<glyph unicode="&#xb9;" horiz-adv-x="236" d="M176 430l49 292h-87l9 56q85 6 117 62h56l-69 -410h-75z" />
<glyph unicode="&#xba;" horiz-adv-x="403" d="M136 593q12 70 62 120.5t131 50.5t114 -50t21 -121q-12 -70 -61.5 -120.5t-130.5 -50.5t-114.5 50.5t-21.5 120.5zM395 593q7 45 -11.5 76.5t-65.5 31.5t-76.5 -31.5t-36.5 -76.5t11.5 -76.5t65.5 -31.5t76.5 31.5t36.5 76.5z" />
<glyph unicode="&#xbb;" horiz-adv-x="486" d="M274 69l15 93l128 88l-98 88l15 93l149 -136l-15 -90zM64 69l15 93l128 88l-98 88l15 93l149 -136l-15 -90z" />
<glyph unicode="&#xbc;" horiz-adv-x="716" d="M630 385l-152 -244h114l40 244h-2zM707 77h-51l-13 -77h-75l13 77h-186l10 60l171 273h136l-45 -269h51zM228 290h-75l48 292h-87l10 56q84 6 116 62h56zM238 -25h-76l398 750h76z" />
<glyph unicode="&#xbd;" horiz-adv-x="758" d="M238 -25h-76l398 750h76zM698 275q6 37 -11.5 56.5t-49.5 19.5q-30 0 -52.5 -17t-29.5 -44h-74q11 59 59 93t108 34q64 0 100 -37t25 -105q-7 -46 -38 -73.5t-83 -51.5q-8 -4 -31.5 -14t-34 -15.5t-26.5 -15t-25 -19.5t-13 -21h216l-11 -65h-295l7 43q4 26 18.5 48.5 t28 36t40.5 29.5t38.5 21t39.5 18q35 16 49.5 24t28 22t16.5 33zM228 290h-75l48 292h-87l10 56q84 6 116 62h56z" />
<glyph unicode="&#xbe;" horiz-adv-x="786" d="M700 385l-152 -244h114l40 244h-2zM777 77h-51l-13 -77h-75l13 77h-186l10 60l171 273h136l-45 -269h51zM416 700l-10 -60l-113 -107q52 -9 75 -41.5t15 -76.5q-9 -58 -54 -95t-118 -37q-61 0 -96 33t-27 93h74q-2 -27 15 -44.5t48 -17.5q32 0 55.5 16.5t28.5 48.5 q6 33 -12.5 50t-51.5 17h-15l-16 57l97 97h-172l11 67h266zM308 -25h-76l398 750h76z" />
<glyph unicode="&#xbf;" horiz-adv-x="520" d="M402 446q-5 -28 -26.5 -46t-48.5 -18t-42.5 18.5t-10.5 45.5q4 28 25.5 46t48.5 18t42.5 -18t11.5 -46zM358 306l-31 -188h-44q-58 0 -93.5 -34.5t-43.5 -84.5t15.5 -84.5t81.5 -34.5t93.5 34.5t43.5 84.5h101q-15 -87 -80 -149t-173 -62t-153 62t-30 149q12 76 64 132.5 t139 69.5l22 105h88z" />
<glyph unicode="&#xc0;" horiz-adv-x="664" d="M443 670l-198 -408h262l-62 408h-2zM118 0h-111l350 700h184l116 -700h-111l-25 166h-322zM422 773l-99 142h117l59 -142h-77z" />
<glyph unicode="&#xc1;" horiz-adv-x="664" d="M443 670l-198 -408h262l-62 408h-2zM118 0h-111l350 700h184l116 -700h-111l-25 166h-322zM530 915h117l-147 -142h-77z" />
<glyph unicode="&#xc2;" horiz-adv-x="664" d="M443 670l-198 -408h262l-62 408h-2zM118 0h-111l350 700h184l116 -700h-111l-25 166h-322zM429 916h112l83 -143h-89l-57 99l-91 -99h-89z" />
<glyph unicode="&#xc3;" horiz-adv-x="664" d="M443 670l-198 -408h262l-62 408h-2zM118 0h-111l350 700h184l116 -700h-111l-25 166h-322zM360 772h-55q10 45 39 75.5t74 30.5q24 0 62.5 -13t57.5 -13q32 0 44 38h55q-9 -45 -38.5 -75.5t-74.5 -30.5q-24 0 -62 13t-57 13q-33 0 -45 -38z" />
<glyph unicode="&#xc4;" horiz-adv-x="664" d="M443 670l-198 -408h262l-62 408h-2zM118 0h-111l350 700h184l116 -700h-111l-25 166h-322zM322 832q5 24 23.5 40t42.5 16t37 -16t9 -40t-22.5 -40t-42.5 -16t-37.5 16t-9.5 40zM508 832q5 24 23.5 40t42.5 16t37 -16t9 -40t-22.5 -40t-42.5 -16t-37.5 16t-9.5 40z" />
<glyph unicode="&#xc5;" horiz-adv-x="664" d="M443 670l-198 -408h262l-62 408h-2zM528 863q4 22 -8 37.5t-35 15.5t-40 -15.5t-21 -37.5q-3 -22 9 -37.5t35 -15.5t40 15.5t20 37.5zM118 0h-111l350 700h184l116 -700h-111l-25 166h-322zM369 863q8 45 43.5 75t81.5 30t71.5 -30t17.5 -75q-7 -44 -42.5 -74.5 t-81.5 -30.5t-71.5 30t-18.5 75z" />
<glyph unicode="&#xc6;" horiz-adv-x="1026" d="M604 670l-290 -408h224l68 408h-2zM128 0h-121l509 700h568l-16 -95h-368l-34 -204h344l-15 -92h-344l-36 -214h380l-16 -95h-485l28 166h-276z" />
<glyph unicode="&#xc7;" horiz-adv-x="715" d="M613 259h106q-37 -118 -118.5 -191t-209.5 -79l-16 -29h16q45 0 69.5 -24.5t17.5 -65.5q-8 -47 -47 -76t-98 -29q-39 0 -84 17l10 60q38 -19 75 -19q31 0 52 13.5t25 35.5q3 21 -8.5 31.5t-39.5 10.5h-39l-13 28l26 47q-99 7 -159.5 62t-77.5 131.5t-2 167.5 q12 71 42 134t77.5 115t117.5 82.5t154 30.5q138 0 200.5 -74t60.5 -197h-106q-3 173 -171 173q-112 0 -182 -77t-88 -187q-19 -110 25 -187t156 -77q168 0 229 173z" />
<glyph unicode="&#xc8;" horiz-adv-x="615" d="M317 915h117l59 -142h-77zM240 309l-36 -214h380l-16 -95h-485l117 700h473l-16 -95h-368l-34 -204h344l-15 -92h-344z" />
<glyph unicode="&#xc9;" horiz-adv-x="615" d="M641 915l-147 -142h-77l107 142h117zM240 309l-36 -214h380l-16 -95h-485l117 700h473l-16 -95h-368l-34 -204h344l-15 -92h-344z" />
<glyph unicode="&#xca;" horiz-adv-x="615" d="M535 916l83 -143h-89l-57 99l-91 -99h-89l131 143h112zM240 309l-36 -214h380l-16 -95h-485l117 700h473l-16 -95h-368l-34 -204h344l-15 -92h-344z" />
<glyph unicode="&#xcb;" horiz-adv-x="615" d="M316 832q5 24 23.5 40t42.5 16t37 -16t9 -40t-22.5 -40t-42.5 -16t-37.5 16t-9.5 40zM502 832q5 24 23.5 40t42.5 16t37 -16t9 -40t-22.5 -40t-42.5 -16t-37.5 16t-9.5 40zM240 309l-36 -214h380l-16 -95h-485l117 700h473l-16 -95h-368l-34 -204h344l-15 -92h-344z" />
<glyph unicode="&#xcc;" horiz-adv-x="271" d="M127 915h117l59 -142h-77zM83 0l117 700h105l-117 -700h-105z" />
<glyph unicode="&#xcd;" horiz-adv-x="271" d="M451 915l-147 -142h-77l107 142h117zM83 0l117 700h105l-117 -700h-105z" />
<glyph unicode="&#xce;" horiz-adv-x="271" d="M345 916l83 -143h-89l-57 99l-91 -99h-89l131 143h112zM83 0l117 700h105l-117 -700h-105z" />
<glyph unicode="&#xcf;" horiz-adv-x="271" d="M126 832q5 24 23.5 40t42.5 16t37 -16t9 -40t-22.5 -40t-42.5 -16t-37.5 16t-9.5 40zM312 832q5 24 23.5 40t42.5 16t37 -16t9 -40t-22.5 -40t-42.5 -16t-37.5 16t-9.5 40zM83 0l117 700h105l-117 -700h-105z" />
<glyph unicode="&#xd0;" horiz-adv-x="718" d="M220 700h250q67 0 118.5 -19.5t82.5 -53t50.5 -78.5t21 -95.5t-5.5 -103.5q-12 -68 -41 -129t-75.5 -111.5t-115.5 -80t-152 -29.5h-250l53 315h-72l12 71h72zM224 96h145q109 0 177 74t86 180q17 106 -26 180t-152 74h-145l-36 -218h172l-12 -71h-172z" />
<glyph unicode="&#xd1;" horiz-adv-x="751" d="M404 772h-55q10 45 39 75.5t74 30.5q24 0 62.5 -13t57.5 -13q32 0 44 38h55q-9 -45 -38.5 -75.5t-74.5 -30.5q-24 0 -62 13t-57 13q-33 0 -45 -38zM396 700l170 -670h2l112 670h105l-117 -700h-196l-170 670h-2l-112 -670h-105l117 700h196z" />
<glyph unicode="&#xd2;" horiz-adv-x="740" d="M361 915h117l59 -142h-77zM98 350q12 70 42 133.5t77 115.5t117.5 82.5t154.5 30.5q67 0 120 -20t84.5 -55t51 -81t21 -98.5t-5.5 -107.5q-12 -71 -42.5 -134t-77.5 -115t-117.5 -82.5t-154.5 -30.5q-67 0 -120 20t-84.5 55t-51 81t-20.5 98.5t6 107.5zM655 350 q18 110 -26 187t-156 77t-182 -77t-88 -187q-19 -110 25 -187t156 -77t182 77t89 187z" />
<glyph unicode="&#xd3;" horiz-adv-x="740" d="M685 915l-147 -142h-77l107 142h117zM98 350q12 70 42 133.5t77 115.5t117.5 82.5t154.5 30.5q67 0 120 -20t84.5 -55t51 -81t21 -98.5t-5.5 -107.5q-12 -71 -42.5 -134t-77.5 -115t-117.5 -82.5t-154.5 -30.5q-67 0 -120 20t-84.5 55t-51 81t-20.5 98.5t6 107.5z M655 350q18 110 -26 187t-156 77t-182 -77t-88 -187q-19 -110 25 -187t156 -77t182 77t89 187z" />
<glyph unicode="&#xd4;" horiz-adv-x="740" d="M655 350q18 110 -26 187t-156 77t-182 -77t-88 -187q-19 -110 25 -187t156 -77t182 77t89 187zM98 350q12 70 42 133.5t77 115.5t117.5 82.5t154.5 30.5q67 0 120 -20t84.5 -55t51 -81t21 -98.5t-5.5 -107.5q-12 -71 -42.5 -134t-77.5 -115t-117.5 -82.5t-154.5 -30.5 q-67 0 -120 20t-84.5 55t-51 81t-20.5 98.5t6 107.5zM467 916h112l83 -143h-89l-57 99l-91 -99h-89z" />
<glyph unicode="&#xd5;" horiz-adv-x="740" d="M655 350q18 110 -26 187t-156 77t-182 -77t-88 -187q-19 -110 25 -187t156 -77t182 77t89 187zM98 350q12 70 42 133.5t77 115.5t117.5 82.5t154.5 30.5q67 0 120 -20t84.5 -55t51 -81t21 -98.5t-5.5 -107.5q-12 -71 -42.5 -134t-77.5 -115t-117.5 -82.5t-154.5 -30.5 q-67 0 -120 20t-84.5 55t-51 81t-20.5 98.5t6 107.5zM398 772h-55q10 45 39 75.5t74 30.5q24 0 62.5 -13t57.5 -13q32 0 44 38h55q-9 -45 -38.5 -75.5t-74.5 -30.5q-24 0 -62 13t-57 13q-33 0 -45 -38z" />
<glyph unicode="&#xd6;" horiz-adv-x="740" d="M360 832q5 24 23.5 40t42.5 16t37 -16t9 -40t-22.5 -40t-42.5 -16t-37.5 16t-9.5 40zM546 832q5 24 23.5 40t42.5 16t37 -16t9 -40t-22.5 -40t-42.5 -16t-37.5 16t-9.5 40zM98 350q12 70 42 133.5t77 115.5t117.5 82.5t154.5 30.5q67 0 120 -20t84.5 -55t51 -81t21 -98.5 t-5.5 -107.5q-12 -71 -42.5 -134t-77.5 -115t-117.5 -82.5t-154.5 -30.5q-67 0 -120 20t-84.5 55t-51 81t-20.5 98.5t6 107.5zM655 350q18 110 -26 187t-156 77t-182 -77t-88 -187q-19 -110 25 -187t156 -77t182 77t89 187z" />
<glyph unicode="&#xd7;" horiz-adv-x="577" d="M328 238l-199 -170l-51 62l198 170l-141 170l72 62l142 -170l198 170l52 -62l-199 -170l142 -170l-73 -62z" />
<glyph unicode="&#xd8;" horiz-adv-x="741" d="M222 174l380 397q-48 43 -129 43q-112 0 -182 -77t-88 -187q-18 -106 19 -176zM655 350q18 104 -20 176l-379 -397q46 -43 128 -43q112 0 182.5 77t88.5 187zM774 751l42 -36l-101 -105q72 -101 45 -260q-12 -71 -42.5 -134t-77.5 -115t-117.5 -82.5t-154.5 -30.5 q-118 0 -189 61l-96 -100l-42 36l101 105q-70 101 -44 260q12 70 42 133.5t77 115.5t117.5 82.5t154.5 30.5q118 0 189 -61z" />
<glyph unicode="&#xd9;" horiz-adv-x="716" d="M349 915h117l59 -142h-77zM584 277l71 423h105l-72 -430q-9 -51 -30.5 -97.5t-59 -89.5t-100 -69t-142.5 -26q-64 0 -112.5 17.5t-74 46t-41 65.5t-15 76t4.5 77l72 430h105l-71 -423q-13 -79 20 -136t128 -57t147 56.5t65 136.5z" />
<glyph unicode="&#xda;" horiz-adv-x="716" d="M673 915l-147 -142h-77l107 142h117zM584 277l71 423h105l-72 -430q-9 -51 -30.5 -97.5t-59 -89.5t-100 -69t-142.5 -26q-64 0 -112.5 17.5t-74 46t-41 65.5t-15 76t4.5 77l72 430h105l-71 -423q-13 -79 20 -136t128 -57t147 56.5t65 136.5z" />
<glyph unicode="&#xdb;" horiz-adv-x="716" d="M567 916l83 -143h-89l-57 99l-91 -99h-89l131 143h112zM584 277l71 423h105l-72 -430q-9 -51 -30.5 -97.5t-59 -89.5t-100 -69t-142.5 -26q-64 0 -112.5 17.5t-74 46t-41 65.5t-15 76t4.5 77l72 430h105l-71 -423q-13 -79 20 -136t128 -57t147 56.5t65 136.5z" />
<glyph unicode="&#xdc;" horiz-adv-x="716" d="M348 832q5 24 23.5 40t42.5 16t37 -16t9 -40t-22.5 -40t-42.5 -16t-37.5 16t-9.5 40zM534 832q5 24 23.5 40t42.5 16t37 -16t9 -40t-22.5 -40t-42.5 -16t-37.5 16t-9.5 40zM584 277l71 423h105l-72 -430q-9 -51 -30.5 -97.5t-59 -89.5t-100 -69t-142.5 -26 q-64 0 -112.5 17.5t-74 46t-41 65.5t-15 76t4.5 77l72 430h105l-71 -423q-13 -79 20 -136t128 -57t147 56.5t65 136.5z" />
<glyph unicode="&#xdd;" horiz-adv-x="625" d="M628 915l-147 -142h-77l107 142h117zM269 275l-140 425h113l121 -395h1l253 395h113l-282 -425h-37l-46 -275h-105l46 275h-37z" />
<glyph unicode="&#xde;" horiz-adv-x="641" d="M447 488h-177l-47 -276h177q60 0 105.5 39t56.5 99q10 60 -22.5 99t-92.5 39zM388 117h-180l-20 -117h-105l117 700h105l-19 -117h180q104 0 161 -66t40 -167t-96 -167t-183 -66z" />
<glyph unicode="&#xdf;" horiz-adv-x="596" d="M351 328l13 78q54 0 95.5 30.5t50.5 81.5q8 47 -21.5 75.5t-80.5 28.5q-66 0 -107.5 -46t-53.5 -118l-94 -558h-101l94 558q19 113 89.5 183.5t187.5 70.5q93 0 147 -51t40 -136q-17 -100 -112 -149q113 -44 92 -172q-12 -74 -59 -121.5t-105.5 -65t-129.5 -17.5h-65 l15 90h65q68 0 118.5 28t60.5 91t-30.5 91t-108.5 28z" />
<glyph unicode="&#xe0;" horiz-adv-x="610" d="M482 250q12 72 -18 121.5t-104 49.5q-75 0 -120.5 -49.5t-57.5 -121.5t17 -121.5t104 -49.5q74 0 120.5 49.5t58.5 121.5zM541 0h-101l11 66q-75 -78 -181 -78q-62 0 -105 23.5t-61.5 61t-26 84.5t3.5 93q8 49 28 93.5t53 83.5t83.5 62t112.5 23q106 0 155 -78l11 66h101 zM347 573l-99 142h117l59 -142h-77z" />
<glyph unicode="&#xe1;" horiz-adv-x="610" d="M482 250q12 72 -18 121.5t-104 49.5q-75 0 -120.5 -49.5t-57.5 -121.5t17 -121.5t104 -49.5q74 0 120.5 49.5t58.5 121.5zM541 0h-101l11 66q-75 -78 -181 -78q-62 0 -105 23.5t-61.5 61t-26 84.5t3.5 93q8 49 28 93.5t53 83.5t83.5 62t112.5 23q106 0 155 -78l11 66h101 zM455 716h117l-147 -142h-77z" />
<glyph unicode="&#xe2;" horiz-adv-x="610" d="M482 250q12 72 -18 121.5t-104 49.5q-75 0 -120.5 -49.5t-57.5 -121.5t17 -121.5t104 -49.5q74 0 120.5 49.5t58.5 121.5zM541 0h-101l11 66q-75 -78 -181 -78q-62 0 -105 23.5t-61.5 61t-26 84.5t3.5 93q8 49 28 93.5t53 83.5t83.5 62t112.5 23q106 0 155 -78l11 66h101 zM354 716h112l83 -143h-89l-58 99l-90 -99h-89z" />
<glyph unicode="&#xe3;" horiz-adv-x="610" d="M482 250q12 72 -18 121.5t-104 49.5q-75 0 -120.5 -49.5t-57.5 -121.5t17 -121.5t104 -49.5q74 0 120.5 49.5t58.5 121.5zM541 0h-101l11 66q-75 -78 -181 -78q-62 0 -105 23.5t-61.5 61t-26 84.5t3.5 93q8 49 28 93.5t53 83.5t83.5 62t112.5 23q106 0 155 -78l11 66h101 zM285 572h-55q9 45 38 75.5t74 30.5q24 0 62.5 -13t57.5 -13q34 0 44 38h55q-9 -45 -38 -75.5t-74 -30.5q-24 0 -62.5 13t-57.5 13q-34 0 -44 -38z" />
<glyph unicode="&#xe4;" horiz-adv-x="610" d="M482 250q12 72 -18 121.5t-104 49.5q-75 0 -120.5 -49.5t-57.5 -121.5t17 -121.5t104 -49.5q74 0 120.5 49.5t58.5 121.5zM541 0h-101l11 66q-75 -78 -181 -78q-62 0 -105 23.5t-61.5 61t-26 84.5t3.5 93q8 49 28 93.5t53 83.5t83.5 62t112.5 23q106 0 155 -78l11 66h101 zM247 632q4 24 22.5 40t42.5 16t37.5 -16t9.5 -40q-5 -24 -23.5 -40t-42.5 -16t-37 16t-9 40zM433 632q4 24 22.5 40t42.5 16t37.5 -16t9.5 -40q-5 -24 -23.5 -40t-42.5 -16t-37 16t-9 40z" />
<glyph unicode="&#xe5;" horiz-adv-x="610" d="M482 250q12 72 -18 121.5t-104 49.5q-75 0 -120.5 -49.5t-57.5 -121.5t17 -121.5t104 -49.5q74 0 120.5 49.5t58.5 121.5zM453 663q4 22 -8 37.5t-35 15.5t-40 -15.5t-21 -37.5t8 -37.5t35 -15.5t40 15.5t21 37.5zM541 0h-101l11 66q-75 -78 -181 -78q-62 0 -105 23.5 t-61.5 61t-26 84.5t3.5 93q8 49 28 93.5t53 83.5t83.5 62t112.5 23q106 0 155 -78l11 66h101zM294 663q8 45 43.5 75t81.5 30t71.5 -30t17.5 -75t-43.5 -75t-81.5 -30t-71.5 30t-17.5 75z" />
<glyph unicode="&#xe6;" horiz-adv-x="961" d="M482 250q12 72 -18 121.5t-104 49.5q-75 0 -120.5 -49.5t-57.5 -121.5t17 -121.5t104 -49.5q74 0 120.5 49.5t58.5 121.5zM594 297h272q1 59 -27.5 94.5t-87.5 35.5t-99 -35.5t-58 -94.5zM541 0h-101l11 66q-75 -78 -181 -78q-62 0 -105 23.5t-61.5 61t-26 84.5t3.5 93 q8 49 28 93.5t53 83.5t83.5 62t112.5 23q106 0 155 -78l11 66h101l-11 -66q63 78 167 78q74 0 120 -39t60 -97t2 -126l-5 -27h-380q-4 -66 23 -107.5t91 -41.5q98 0 140 74h103q-33 -75 -95 -117.5t-149 -42.5q-111 0 -139 78z" />
<glyph unicode="&#xe7;" horiz-adv-x="562" d="M450 181h103q-27 -81 -87 -133.5t-155 -58.5l-16 -29h16q45 0 69.5 -24.5t17.5 -65.5q-8 -47 -47 -76t-98 -29q-39 0 -84 17l10 60q38 -19 75 -19q31 0 52 13.5t25 35.5q3 21 -8.5 31.5t-39.5 10.5h-39l-13 28l26 47q-107 10 -150 85.5t-26 175.5q18 108 94.5 185 t200.5 77q104 0 152 -53t48 -140h-103q-7 101 -113 101q-74 0 -120 -49.5t-58 -120.5t17 -120.5t104 -49.5q106 0 147 101z" />
<glyph unicode="&#xe8;" horiz-adv-x="560" d="M194 297h272q0 59 -28 94.5t-87 35.5q-114 0 -157 -130zM432 148h103q-70 -160 -257 -160q-61 0 -105.5 22.5t-65 59.5t-29 84t2.5 96q18 108 92 185t193 77q61 0 105.5 -22.5t65 -59.5t29 -84t-2.5 -96l-5 -27h-380q-5 -66 22.5 -107.5t91.5 -41.5q98 0 140 74zM337 573 l-99 142h117l59 -142h-77z" />
<glyph unicode="&#xe9;" horiz-adv-x="560" d="M194 297h272q0 59 -28 94.5t-87 35.5q-114 0 -157 -130zM432 148h103q-70 -160 -257 -160q-61 0 -105.5 22.5t-65 59.5t-29 84t2.5 96q18 108 92 185t193 77q61 0 105.5 -22.5t65 -59.5t29 -84t-2.5 -96l-5 -27h-380q-5 -66 22.5 -107.5t91.5 -41.5q98 0 140 74zM445 715 h117l-147 -142h-77z" />
<glyph unicode="&#xea;" horiz-adv-x="560" d="M194 297h272q0 59 -28 94.5t-87 35.5q-114 0 -157 -130zM432 148h103q-70 -160 -257 -160q-61 0 -105.5 22.5t-65 59.5t-29 84t2.5 96q18 108 92 185t193 77q61 0 105.5 -22.5t65 -59.5t29 -84t-2.5 -96l-5 -27h-380q-5 -66 22.5 -107.5t91.5 -41.5q98 0 140 74zM344 716 h112l83 -143h-89l-58 99l-90 -99h-89z" />
<glyph unicode="&#xeb;" horiz-adv-x="560" d="M194 297h272q0 59 -28 94.5t-87 35.5q-114 0 -157 -130zM432 148h103q-70 -160 -257 -160q-61 0 -105.5 22.5t-65 59.5t-29 84t2.5 96q18 108 92 185t193 77q61 0 105.5 -22.5t65 -59.5t29 -84t-2.5 -96l-5 -27h-380q-5 -66 22.5 -107.5t91.5 -41.5q98 0 140 74zM237 632 q4 24 22.5 40t42.5 16t37.5 -16t9.5 -40q-5 -24 -23.5 -40t-42.5 -16t-37 16t-9 40zM423 632q4 24 22.5 40t42.5 16t37.5 -16t9.5 -40q-5 -24 -23.5 -40t-42.5 -16t-37 16t-9 40z" />
<glyph unicode="&#xec;" horiz-adv-x="237" d="M77 715h117l59 -142h-77zM68 0l84 500h101l-84 -500h-101z" />
<glyph unicode="&#xed;" horiz-adv-x="237" d="M401 715l-147 -142h-77l107 142h117zM68 0l84 500h101l-84 -500h-101z" />
<glyph unicode="&#xee;" horiz-adv-x="237" d="M295 716l83 -143h-89l-58 99l-90 -99h-89l131 143h112zM68 0l84 500h101l-84 -500h-101z" />
<glyph unicode="&#xef;" horiz-adv-x="237" d="M76 632q4 24 22.5 40t42.5 16t37.5 -16t9.5 -40q-5 -24 -23.5 -40t-42.5 -16t-37 16t-9 40zM262 632q4 24 22.5 40t42.5 16t37.5 -16t9.5 -40q-5 -24 -23.5 -40t-42.5 -16t-37 16t-9 40zM68 0l84 500h101l-84 -500h-101z" />
<glyph unicode="&#xf0;" horiz-adv-x="581" d="M482 250q12 71 -18 120.5t-104 49.5t-120 -49.5t-58 -120.5t17 -120.5t104 -49.5q74 0 120.5 49.5t58.5 120.5zM281 561l-44 53l114 53q-35 35 -79 66l80 48q45 -33 83 -74l108 50l44 -53l-107 -50q139 -184 103 -404q-18 -108 -94.5 -185t-200.5 -77q-64 0 -110 22.5 t-68 59.5t-31 84t2 96q18 108 93.5 185t194.5 77q66 0 105 -33q-29 74 -77 136z" />
<glyph unicode="&#xf1;" horiz-adv-x="572" d="M284 572h-55q9 45 38 75.5t74 30.5q24 0 62.5 -13t57.5 -13q34 0 44 38h55q-9 -45 -38 -75.5t-74 -30.5q-24 0 -62.5 13t-57.5 13q-34 0 -44 -38zM509 0h-101l50 297q11 64 -8 93.5t-73 29.5q-62 0 -106.5 -40.5t-56.5 -111.5l-45 -268h-101l84 500h101l-13 -74 q66 86 174 86q180 0 145 -212z" />
<glyph unicode="&#xf2;" horiz-adv-x="580" d="M248 715h117l59 -142h-77zM81 250q18 108 94.5 185t200.5 77q64 0 110 -22.5t68 -59.5t31 -84t-2 -96q-18 -108 -94.5 -185t-200.5 -77q-64 0 -110 22.5t-68 59.5t-31 84t2 96zM482 250q12 71 -18 120.5t-104 49.5t-120 -49.5t-58 -120.5t17 -120.5t104 -49.5 q74 0 120.5 49.5t58.5 120.5z" />
<glyph unicode="&#xf3;" horiz-adv-x="580" d="M572 715l-147 -142h-77l107 142h117zM81 250q18 108 94.5 185t200.5 77q64 0 110 -22.5t68 -59.5t31 -84t-2 -96q-18 -108 -94.5 -185t-200.5 -77q-64 0 -110 22.5t-68 59.5t-31 84t2 96zM482 250q12 71 -18 120.5t-104 49.5t-120 -49.5t-58 -120.5t17 -120.5t104 -49.5 q74 0 120.5 49.5t58.5 120.5z" />
<glyph unicode="&#xf4;" horiz-adv-x="580" d="M482 250q12 71 -18 120.5t-104 49.5t-120 -49.5t-58 -120.5t17 -120.5t104 -49.5q74 0 120.5 49.5t58.5 120.5zM81 250q18 108 94.5 185t200.5 77q64 0 110 -22.5t68 -59.5t31 -84t-2 -96q-18 -108 -94.5 -185t-200.5 -77q-64 0 -110 22.5t-68 59.5t-31 84t2 96zM354 716 h112l83 -143h-89l-58 99l-90 -99h-89z" />
<glyph unicode="&#xf5;" horiz-adv-x="580" d="M482 250q12 71 -18 120.5t-104 49.5t-120 -49.5t-58 -120.5t17 -120.5t104 -49.5q74 0 120.5 49.5t58.5 120.5zM81 250q18 108 94.5 185t200.5 77q64 0 110 -22.5t68 -59.5t31 -84t-2 -96q-18 -108 -94.5 -185t-200.5 -77q-64 0 -110 22.5t-68 59.5t-31 84t2 96zM285 572 h-55q9 45 38 75.5t74 30.5q24 0 62.5 -13t57.5 -13q34 0 44 38h55q-9 -45 -38 -75.5t-74 -30.5q-24 0 -62.5 13t-57.5 13q-34 0 -44 -38z" />
<glyph unicode="&#xf6;" horiz-adv-x="580" d="M247 632q4 24 22.5 40t42.5 16t37.5 -16t9.5 -40q-5 -24 -23.5 -40t-42.5 -16t-37 16t-9 40zM433 632q4 24 22.5 40t42.5 16t37.5 -16t9.5 -40q-5 -24 -23.5 -40t-42.5 -16t-37 16t-9 40zM81 250q18 108 94.5 185t200.5 77q64 0 110 -22.5t68 -59.5t31 -84t-2 -96 q-18 -108 -94.5 -185t-200.5 -77q-64 0 -110 22.5t-68 59.5t-31 84t2 96zM482 250q12 71 -18 120.5t-104 49.5t-120 -49.5t-58 -120.5t17 -120.5t104 -49.5q74 0 120.5 49.5t58.5 120.5z" />
<glyph unicode="&#xf7;" horiz-adv-x="608" d="M331 502q4 24 23.5 40.5t43.5 16.5t37.5 -16.5t9.5 -40.5t-23.5 -40.5t-43.5 -16.5t-37.5 16.5t-9.5 40.5zM594 256h-495l15 88h495zM263 98q5 24 24 40.5t43 16.5t37.5 -16.5t9.5 -40.5t-23 -40.5t-43 -16.5t-38 16.5t-10 40.5z" />
<glyph unicode="&#xf8;" horiz-adv-x="581" d="M193 142l245 256q-30 22 -78 22q-74 0 -120 -49.5t-58 -120.5q-11 -62 11 -108zM482 250q11 62 -11 108l-245 -256q30 -22 77 -22q75 0 121 49.5t58 120.5zM582 549l40 -33l-74 -78q54 -71 35 -188q-18 -108 -94.5 -185t-200.5 -77q-82 0 -135 37l-71 -74l-41 33l74 78 q-54 73 -34 188q18 108 94.5 185t200.5 77q81 0 134 -37z" />
<glyph unicode="&#xf9;" horiz-adv-x="572" d="M242 715h117l59 -142h-77zM147 500h101l-50 -297q-11 -64 7.5 -93.5t72.5 -29.5q62 0 107 40.5t57 111.5l45 268h101l-84 -500h-101l12 74q-66 -86 -173 -86q-182 0 -146 212z" />
<glyph unicode="&#xfa;" horiz-adv-x="572" d="M566 715l-147 -142h-77l107 142h117zM147 500h101l-50 -297q-11 -64 7.5 -93.5t72.5 -29.5q62 0 107 40.5t57 111.5l45 268h101l-84 -500h-101l12 74q-66 -86 -173 -86q-182 0 -146 212z" />
<glyph unicode="&#xfb;" horiz-adv-x="572" d="M460 716l83 -143h-89l-58 99l-90 -99h-89l131 143h112zM147 500h101l-50 -297q-11 -64 7.5 -93.5t72.5 -29.5q62 0 107 40.5t57 111.5l45 268h101l-84 -500h-101l12 74q-66 -86 -173 -86q-182 0 -146 212z" />
<glyph unicode="&#xfc;" horiz-adv-x="572" d="M241 632q4 24 22.5 40t42.5 16t37.5 -16t9.5 -40q-5 -24 -23.5 -40t-42.5 -16t-37 16t-9 40zM427 632q4 24 22.5 40t42.5 16t37.5 -16t9.5 -40q-5 -24 -23.5 -40t-42.5 -16t-37 16t-9 40zM147 500h101l-50 -297q-11 -64 7.5 -93.5t72.5 -29.5q62 0 107 40.5t57 111.5 l45 268h101l-84 -500h-101l12 74q-66 -86 -173 -86q-182 0 -146 212z" />
<glyph unicode="&#xfd;" horiz-adv-x="530" d="M547 715l-147 -142h-77l107 142h117zM602 500l-333 -695h-104l93 195h-86l-76 500h105l67 -475h2l227 475h105z" />
<glyph unicode="&#xfe;" horiz-adv-x="611" d="M212 250q-12 -72 17 -121.5t104 -49.5q74 0 120.5 49.5t58.5 121.5t-18 121.5t-104 49.5q-75 0 -120.5 -49.5t-57.5 -121.5zM181 66l-44 -261h-101l150 895h101l-44 -266q73 78 181 78q50 0 87.5 -15.5t59 -41.5t34.5 -60t12.5 -70.5t-4.5 -74.5q-8 -49 -28.5 -93.5 t-53 -83.5t-83 -62t-112.5 -23q-108 0 -155 78z" />
<glyph unicode="&#xff;" horiz-adv-x="530" d="M222 632q4 24 22.5 40t42.5 16t37.5 -16t9.5 -40q-5 -24 -23.5 -40t-42.5 -16t-37 16t-9 40zM408 632q4 24 22.5 40t42.5 16t37.5 -16t9.5 -40q-5 -24 -23.5 -40t-42.5 -16t-37 16t-9 40zM602 500l-333 -695h-104l93 195h-86l-76 500h105l67 -475h2l227 475h105z" />
<glyph unicode="&#x100;" horiz-adv-x="664" d="M443 670l-198 -408h262l-62 408h-2zM118 0h-111l350 700h184l116 -700h-111l-25 166h-322zM617 853l-12 -71h-284l12 71h284z" />
<glyph unicode="&#x101;" horiz-adv-x="610" d="M482 250q12 72 -18 121.5t-104 49.5q-75 0 -120.5 -49.5t-57.5 -121.5t17 -121.5t104 -49.5q74 0 120.5 49.5t58.5 121.5zM541 0h-101l11 66q-75 -78 -181 -78q-62 0 -105 23.5t-61.5 61t-26 84.5t3.5 93q8 49 28 93.5t53 83.5t83.5 62t112.5 23q106 0 155 -78l11 66h101 zM541 653l-12 -71h-284l12 71h284z" />
<glyph unicode="&#x102;" horiz-adv-x="664" d="M443 670l-198 -408h262l-62 408h-2zM118 0h-111l350 700h184l116 -700h-111l-25 166h-322zM327 916h73q-5 -35 14 -57t58 -22t66 22t32 57h73q-11 -64 -60.5 -104.5t-121.5 -40.5t-108.5 40.5t-25.5 104.5z" />
<glyph unicode="&#x103;" horiz-adv-x="610" d="M482 250q12 72 -18 121.5t-104 49.5q-75 0 -120.5 -49.5t-57.5 -121.5t17 -121.5t104 -49.5q74 0 120.5 49.5t58.5 121.5zM541 0h-101l11 66q-75 -78 -181 -78q-62 0 -105 23.5t-61.5 61t-26 84.5t3.5 93q8 49 28 93.5t53 83.5t83.5 62t112.5 23q106 0 155 -78l11 66h101 zM252 716h73q-6 -35 13.5 -57t58.5 -22t65.5 22t32.5 57h73q-11 -64 -60.5 -104.5t-121.5 -40.5t-108.5 40.5t-25.5 104.5z" />
<glyph unicode="&#x104;" horiz-adv-x="664" d="M443 670l-198 -408h262l-62 408h-2zM118 0h-111l350 700h184l116 -700q-34 -24 -66 -60.5t-38 -71.5q-8 -44 34 -44q24 0 42 8l-9 -56q-23 -11 -58 -11q-44 0 -67.5 25t-16.5 68q13 78 108 142h-40l-25 166h-322z" />
<glyph unicode="&#x105;" horiz-adv-x="609" d="M482 250q12 72 -18 121.5t-104 49.5q-75 0 -120.5 -49.5t-57.5 -121.5t17 -121.5t104 -49.5q74 0 120.5 49.5t58.5 121.5zM470 0h-30l11 66q-75 -78 -181 -78q-62 0 -105 23.5t-61.5 61t-26 84.5t3.5 93q8 49 28 93.5t53 83.5t83.5 62t112.5 23q106 0 155 -78l11 66h101 l-84 -500q-34 -24 -66 -60.5t-38 -71.5q-8 -44 34 -44q24 0 42 8l-9 -56q-23 -11 -58 -11q-44 0 -67.5 25t-16.5 68q13 78 108 142z" />
<glyph unicode="&#x106;" horiz-adv-x="715" d="M685 915l-147 -142h-77l107 142h117zM613 259h106q-39 -123 -126 -197t-225 -74q-67 0 -120 20t-84.5 55t-51 81t-20.5 98.5t6 107.5q12 70 42 133.5t77 115.5t117.5 82.5t154.5 30.5q138 0 200.5 -74t60.5 -197h-106q-3 173 -171 173q-112 0 -182 -77t-88 -187 q-19 -110 25 -187t156 -77q168 0 229 173z" />
<glyph unicode="&#x107;" horiz-adv-x="562" d="M572 715l-147 -142h-77l107 142h117zM576 319h-103q-7 101 -113 101q-74 0 -120 -49.5t-58 -120.5t17 -120.5t104 -49.5q106 0 147 101h103q-29 -87 -94.5 -140t-170.5 -53q-64 0 -110 22.5t-68 59.5t-31 84t2 96q18 108 94.5 185t200.5 77q104 0 152 -53t48 -140z" />
<glyph unicode="&#x108;" horiz-adv-x="715" d="M579 916l83 -143h-89l-57 99l-91 -99h-89l131 143h112zM613 259h106q-39 -123 -126 -197t-225 -74q-67 0 -120 20t-84.5 55t-51 81t-20.5 98.5t6 107.5q12 70 42 133.5t77 115.5t117.5 82.5t154.5 30.5q138 0 200.5 -74t60.5 -197h-106q-3 173 -171 173q-112 0 -182 -77 t-88 -187q-19 -110 25 -187t156 -77q168 0 229 173z" />
<glyph unicode="&#x109;" horiz-adv-x="562" d="M466 716l83 -143h-89l-58 99l-90 -99h-89l131 143h112zM576 319h-103q-7 101 -113 101q-74 0 -120 -49.5t-58 -120.5t17 -120.5t104 -49.5q106 0 147 101h103q-29 -87 -94.5 -140t-170.5 -53q-64 0 -110 22.5t-68 59.5t-31 84t2 96q18 108 94.5 185t200.5 77 q104 0 152 -53t48 -140z" />
<glyph unicode="&#x10a;" horiz-adv-x="715" d="M452 833q5 24 24 40.5t43 16.5t37.5 -16.5t9.5 -40.5t-23 -40.5t-43 -16.5t-38 16.5t-10 40.5zM613 259h106q-39 -123 -126 -197t-225 -74q-67 0 -120 20t-84.5 55t-51 81t-20.5 98.5t6 107.5q12 70 42 133.5t77 115.5t117.5 82.5t154.5 30.5q138 0 200.5 -74t60.5 -197 h-106q-3 173 -171 173q-112 0 -182 -77t-88 -187q-19 -110 25 -187t156 -77q168 0 229 173z" />
<glyph unicode="&#x10b;" horiz-adv-x="562" d="M339 633q4 24 23 40.5t43 16.5t38 -16.5t10 -40.5t-23.5 -40.5t-43.5 -16.5t-37.5 16.5t-9.5 40.5zM576 319h-103q-7 101 -113 101q-74 0 -120 -49.5t-58 -120.5t17 -120.5t104 -49.5q106 0 147 101h103q-29 -87 -94.5 -140t-170.5 -53q-64 0 -110 22.5t-68 59.5t-31 84 t2 96q18 108 94.5 185t200.5 77q104 0 152 -53t48 -140z" />
<glyph unicode="&#x10c;" horiz-adv-x="715" d="M597 916h89l-131 -143h-112l-83 143h89l58 -99zM613 259h106q-39 -123 -126 -197t-225 -74q-67 0 -120 20t-84.5 55t-51 81t-20.5 98.5t6 107.5q12 70 42 133.5t77 115.5t117.5 82.5t154.5 30.5q138 0 200.5 -74t60.5 -197h-106q-3 173 -171 173q-112 0 -182 -77 t-88 -187q-19 -110 25 -187t156 -77q168 0 229 173z" />
<glyph unicode="&#x10d;" horiz-adv-x="562" d="M484 716h89l-131 -143h-112l-83 143h89l57 -99zM576 319h-103q-7 101 -113 101q-74 0 -120 -49.5t-58 -120.5t17 -120.5t104 -49.5q106 0 147 101h103q-29 -87 -94.5 -140t-170.5 -53q-64 0 -110 22.5t-68 59.5t-31 84t2 96q18 108 94.5 185t200.5 77q104 0 152 -53 t48 -140z" />
<glyph unicode="&#x10e;" horiz-adv-x="697" d="M204 96h145q109 0 177 74t86 180q17 106 -26 180t-152 74h-145zM200 700h250q67 0 118.5 -19.5t82.5 -53t50.5 -78.5t21 -95.5t-5.5 -103.5q-12 -68 -41 -129t-75.5 -111.5t-115.5 -80t-152 -29.5h-250zM470 817l90 99h89l-131 -143h-112l-83 143h89z" />
<glyph unicode="&#x10f;" horiz-adv-x="749" d="M482 250q12 72 -18 121.5t-104 49.5q-75 0 -120.5 -49.5t-57.5 -121.5t17 -121.5t104 -49.5q74 0 120.5 49.5t58.5 121.5zM541 0h-101l11 66q-75 -78 -181 -78q-62 0 -105 23.5t-61.5 61t-26 84.5t3.5 93q8 49 28 93.5t53 83.5t83.5 62t112.5 23q106 0 155 -78l44 266 h101zM765 700h112l-105 -142h-72z" />
<glyph unicode="&#x110;" horiz-adv-x="718" d="M220 700h250q67 0 118.5 -19.5t82.5 -53t50.5 -78.5t21 -95.5t-5.5 -103.5q-12 -68 -41 -129t-75.5 -111.5t-115.5 -80t-152 -29.5h-250l53 315h-72l12 71h72zM224 96h145q109 0 177 74t86 180q17 106 -26 180t-152 74h-145l-36 -218h172l-12 -71h-172z" />
<glyph unicode="&#x111;" horiz-adv-x="737" d="M482 250q12 72 -18 121.5t-104 49.5q-75 0 -120.5 -49.5t-57.5 -121.5t17 -121.5t104 -49.5q74 0 120.5 49.5t58.5 121.5zM541 0h-101l11 66q-75 -78 -181 -78q-62 0 -105 23.5t-61.5 61t-26 84.5t3.5 93q8 49 28 93.5t53 83.5t83.5 62t112.5 23q106 0 155 -78l23 139 h-145l11 68h145l10 59h101l-10 -59h51l-11 -68h-51z" />
<glyph unicode="&#x112;" horiz-adv-x="615" d="M599 782h-284l12 71h284zM240 309l-36 -214h380l-16 -95h-485l117 700h473l-16 -95h-368l-34 -204h344l-15 -92h-344z" />
<glyph unicode="&#x113;" horiz-adv-x="560" d="M194 297h272q0 59 -28 94.5t-87 35.5q-114 0 -157 -130zM432 148h103q-70 -160 -257 -160q-61 0 -105.5 22.5t-65 59.5t-29 84t2.5 96q18 108 92 185t193 77q61 0 105.5 -22.5t65 -59.5t29 -84t-2.5 -96l-5 -27h-380q-5 -66 22.5 -107.5t91.5 -41.5q98 0 140 74zM531 653 l-12 -71h-284l12 71h284z" />
<glyph unicode="&#x114;" horiz-adv-x="615" d="M321 916h73q-5 -35 14 -57t58 -22t66 22t32 57h73q-11 -64 -60.5 -104.5t-121.5 -40.5t-108.5 40.5t-25.5 104.5zM240 309l-36 -214h380l-16 -95h-485l117 700h473l-16 -95h-368l-34 -204h344l-15 -92h-344z" />
<glyph unicode="&#x115;" horiz-adv-x="560" d="M194 297h272q0 59 -28 94.5t-87 35.5q-114 0 -157 -130zM432 148h103q-70 -160 -257 -160q-61 0 -105.5 22.5t-65 59.5t-29 84t2.5 96q18 108 92 185t193 77q61 0 105.5 -22.5t65 -59.5t29 -84t-2.5 -96l-5 -27h-380q-5 -66 22.5 -107.5t91.5 -41.5q98 0 140 74zM242 716 h73q-6 -35 13.5 -57t58.5 -22t65.5 22t32.5 57h73q-11 -64 -60.5 -104.5t-121.5 -40.5t-108.5 40.5t-25.5 104.5z" />
<glyph unicode="&#x116;" horiz-adv-x="615" d="M408 833q5 24 24 40.5t43 16.5t37.5 -16.5t9.5 -40.5t-23 -40.5t-43 -16.5t-38 16.5t-10 40.5zM240 309l-36 -214h380l-16 -95h-485l117 700h473l-16 -95h-368l-34 -204h344l-15 -92h-344z" />
<glyph unicode="&#x117;" horiz-adv-x="560" d="M194 297h272q0 59 -28 94.5t-87 35.5q-114 0 -157 -130zM432 148h103q-70 -160 -257 -160q-61 0 -105.5 22.5t-65 59.5t-29 84t2.5 96q18 108 92 185t193 77q61 0 105.5 -22.5t65 -59.5t29 -84t-2.5 -96l-5 -27h-380q-5 -66 22.5 -107.5t91.5 -41.5q98 0 140 74zM329 633 q4 24 23 40.5t43 16.5t38 -16.5t10 -40.5t-23.5 -40.5t-43.5 -16.5t-37.5 16.5t-9.5 40.5z" />
<glyph unicode="&#x118;" horiz-adv-x="615" d="M240 309l-36 -214h380l-16 -95q-34 -24 -66 -60.5t-38 -71.5q-8 -44 34 -44q24 0 42 8l-9 -56q-23 -11 -58 -11q-44 0 -67.5 25t-16.5 68q13 78 108 142h-414l117 700h473l-16 -95h-368l-34 -204h344l-15 -92h-344z" />
<glyph unicode="&#x119;" horiz-adv-x="560" d="M194 297h272q0 59 -28 94.5t-87 35.5q-114 0 -157 -130zM432 148h103q-66 -149 -235 -159q-80 -64 -89 -121q-8 -44 34 -44q24 0 42 8l-9 -56q-23 -11 -58 -11q-44 0 -67.5 25t-16.5 68q13 74 96 134q-94 16 -130.5 89t-20.5 169q18 108 92 185t193 77q61 0 105.5 -22.5 t65 -59.5t29 -84t-2.5 -96l-5 -27h-380q-5 -66 22.5 -107.5t91.5 -41.5q98 0 140 74z" />
<glyph unicode="&#x11a;" horiz-adv-x="615" d="M553 916h89l-131 -143h-112l-83 143h89l58 -99zM240 309l-36 -214h380l-16 -95h-485l117 700h473l-16 -95h-368l-34 -204h344l-15 -92h-344z" />
<glyph unicode="&#x11b;" horiz-adv-x="560" d="M194 297h272q0 59 -28 94.5t-87 35.5q-114 0 -157 -130zM432 148h103q-70 -160 -257 -160q-61 0 -105.5 22.5t-65 59.5t-29 84t2.5 96q18 108 92 185t193 77q61 0 105.5 -22.5t65 -59.5t29 -84t-2.5 -96l-5 -27h-380q-5 -66 22.5 -107.5t91.5 -41.5q98 0 140 74zM383 617 l91 99h89l-131 -143h-112l-83 143h89z" />
<glyph unicode="&#x11c;" horiz-adv-x="752" d="M579 916l83 -143h-89l-57 99l-91 -99h-89l131 143h112zM98 350q12 70 42 133.5t77 115.5t117.5 82.5t154.5 30.5q133 0 196 -70t65 -187h-107q-10 159 -170 159q-112 0 -182 -77t-88 -187q-11 -50 -4 -97.5t26 -85t61 -60t100 -22.5q184 0 239 192h-209l15 87h313 l-61 -364h-68v103q-85 -115 -247 -115q-67 0 -120 20t-84.5 55t-51 81t-20.5 98.5t6 107.5z" />
<glyph unicode="&#x11d;" horiz-adv-x="599" d="M482 252q12 71 -17 120.5t-104 49.5q-74 0 -120.5 -49.5t-58.5 -120.5t18 -120.5t104 -49.5t120 49.5t58 120.5zM443 19l9 50q-74 -77 -181 -77q-62 0 -105 23.5t-62 61t-26 83.5t3 92q8 48 28.5 92.5t53 83t83 61.5t112.5 23q106 0 155 -77l11 65h101l-81 -481 q-20 -116 -101 -171t-186 -55q-82 0 -140 34t-71 105h113q31 -53 112 -53q63 0 111 34t61 106zM354 716h112l83 -143h-89l-58 99l-90 -99h-89z" />
<glyph unicode="&#x11e;" horiz-adv-x="752" d="M365 916h73q-5 -35 14 -57t58 -22t66 22t32 57h73q-11 -64 -60.5 -104.5t-121.5 -40.5t-108.5 40.5t-25.5 104.5zM98 350q12 70 42 133.5t77 115.5t117.5 82.5t154.5 30.5q133 0 196 -70t65 -187h-107q-10 159 -170 159q-112 0 -182 -77t-88 -187q-11 -50 -4 -97.5 t26 -85t61 -60t100 -22.5q184 0 239 192h-209l15 87h313l-61 -364h-68v103q-85 -115 -247 -115q-67 0 -120 20t-84.5 55t-51 81t-20.5 98.5t6 107.5z" />
<glyph unicode="&#x11f;" horiz-adv-x="599" d="M482 252q12 71 -17 120.5t-104 49.5q-74 0 -120.5 -49.5t-58.5 -120.5t18 -120.5t104 -49.5t120 49.5t58 120.5zM443 19l9 50q-74 -77 -181 -77q-62 0 -105 23.5t-62 61t-26 83.5t3 92q8 48 28.5 92.5t53 83t83 61.5t112.5 23q106 0 155 -77l11 65h101l-81 -481 q-20 -116 -101 -171t-186 -55q-82 0 -140 34t-71 105h113q31 -53 112 -53q63 0 111 34t61 106zM252 716h73q-6 -35 13.5 -57t58.5 -22t65.5 22t32.5 57h73q-11 -64 -60.5 -104.5t-121.5 -40.5t-108.5 40.5t-25.5 104.5z" />
<glyph unicode="&#x120;" horiz-adv-x="752" d="M452 833q5 24 24 40.5t43 16.5t37.5 -16.5t9.5 -40.5t-23 -40.5t-43 -16.5t-38 16.5t-10 40.5zM98 350q12 70 42 133.5t77 115.5t117.5 82.5t154.5 30.5q133 0 196 -70t65 -187h-107q-10 159 -170 159q-112 0 -182 -77t-88 -187q-11 -50 -4 -97.5t26 -85t61 -60 t100 -22.5q184 0 239 192h-209l15 87h313l-61 -364h-68v103q-85 -115 -247 -115q-67 0 -120 20t-84.5 55t-51 81t-20.5 98.5t6 107.5z" />
<glyph unicode="&#x121;" horiz-adv-x="599" d="M482 252q12 71 -17 120.5t-104 49.5q-74 0 -120.5 -49.5t-58.5 -120.5t18 -120.5t104 -49.5t120 49.5t58 120.5zM443 19l9 50q-74 -77 -181 -77q-62 0 -105 23.5t-62 61t-26 83.5t3 92q8 48 28.5 92.5t53 83t83 61.5t112.5 23q106 0 155 -77l11 65h101l-81 -481 q-20 -116 -101 -171t-186 -55q-82 0 -140 34t-71 105h113q31 -53 112 -53q63 0 111 34t61 106zM339 633q4 24 23 40.5t43 16.5t38 -16.5t10 -40.5t-23.5 -40.5t-43.5 -16.5t-37.5 16.5t-9.5 40.5z" />
<glyph unicode="&#x122;" horiz-adv-x="752" d="M98 350q12 70 42 133.5t77 115.5t117.5 82.5t154.5 30.5q133 0 196 -70t65 -187h-107q-10 159 -170 159q-112 0 -182 -77t-88 -187q-11 -50 -4 -97.5t26 -85t61 -60t100 -22.5q184 0 239 192h-209l15 87h313l-61 -364h-68v103q-85 -115 -247 -115q-67 0 -120 20t-84.5 55 t-51 81t-20.5 98.5t6 107.5zM261 -219l51 147h92l-68 -147h-75z" />
<glyph unicode="&#x123;" horiz-adv-x="599" d="M482 252q12 71 -17 120.5t-104 49.5q-74 0 -120.5 -49.5t-58.5 -120.5t18 -120.5t104 -49.5t120 49.5t58 120.5zM443 19l9 50q-74 -77 -181 -77q-62 0 -105 23.5t-62 61t-26 83.5t3 92q8 48 28.5 92.5t53 83t83 61.5t112.5 23q106 0 155 -77l11 65h101l-81 -481 q-20 -116 -101 -171t-186 -55q-82 0 -140 34t-71 105h113q31 -53 112 -53q63 0 111 34t61 106zM395 722h75l-51 -147h-92z" />
<glyph unicode="&#x124;" horiz-adv-x="716" d="M567 916l83 -143h-89l-57 99l-91 -99h-89l131 143h112zM83 0l117 700h105l-49 -296h340l49 296h105l-117 -700h-105l52 308h-340l-52 -308h-105z" />
<glyph unicode="&#x125;" horiz-adv-x="572" d="M498 916l83 -143h-89l-57 99l-91 -99h-89l131 143h112zM509 0h-101l50 297q11 64 -8 93.5t-73 29.5q-62 0 -106.5 -40.5t-56.5 -111.5l-45 -268h-101l117 700h101l-46 -274q66 86 174 86q180 0 145 -212z" />
<glyph unicode="&#x126;" horiz-adv-x="717" d="M275 517l-19 -113h340l19 113h-340zM188 0h-105l117 700h105l-19 -112h340l19 112h105l-117 -700h-105l52 308h-340z" />
<glyph unicode="&#x127;" horiz-adv-x="593" d="M189 0h-101l96 573h-51l11 68h51l10 59h101l-10 -59h145l-11 -68h-145l-25 -147q66 86 174 86q180 0 145 -212l-50 -300h-101l50 297q11 64 -8 93.5t-73 29.5q-62 0 -106.5 -40.5t-56.5 -111.5z" />
<glyph unicode="&#x128;" horiz-adv-x="271" d="M164 772h-55q10 45 39 75.5t74 30.5q24 0 62.5 -13t57.5 -13q32 0 44 38h55q-9 -45 -38.5 -75.5t-74.5 -30.5q-24 0 -62 13t-57 13q-33 0 -45 -38zM83 0l117 700h105l-117 -700h-105z" />
<glyph unicode="&#x129;" horiz-adv-x="237" d="M114 572h-55q9 45 38 75.5t74 30.5q24 0 62.5 -13t57.5 -13q34 0 44 38h55q-9 -45 -38 -75.5t-74 -30.5q-24 0 -62.5 13t-57.5 13q-34 0 -44 -38zM68 0l84 500h101l-84 -500h-101z" />
<glyph unicode="&#x12a;" horiz-adv-x="271" d="M409 782h-284l12 71h284zM83 0l117 700h105l-117 -700h-105z" />
<glyph unicode="&#x12b;" horiz-adv-x="237" d="M358 582h-284l12 71h284zM68 0l84 500h101l-84 -500h-101z" />
<glyph unicode="&#x12c;" horiz-adv-x="271" d="M131 916h73q-5 -35 14 -57t58 -22t66 22t32 57h73q-11 -64 -60.5 -104.5t-121.5 -40.5t-108.5 40.5t-25.5 104.5zM83 0l117 700h105l-117 -700h-105z" />
<glyph unicode="&#x12d;" horiz-adv-x="237" d="M81 716h73q-6 -35 13.5 -57t58.5 -22t65.5 22t32.5 57h73q-11 -64 -60.5 -104.5t-121.5 -40.5t-108.5 40.5t-25.5 104.5zM68 0l84 500h101l-84 -500h-101z" />
<glyph unicode="&#x12e;" horiz-adv-x="271" d="M83 0l117 700h105l-117 -700q-34 -24 -66 -60.5t-38 -71.5q-8 -44 34 -44q24 0 42 8l-9 -56q-23 -11 -58 -11q-44 0 -67.5 25t-16.5 68q13 78 108 142h-34z" />
<glyph unicode="&#x12f;" horiz-adv-x="237" d="M169 662q4 26 24.5 43.5t46.5 17.5t40.5 -17.5t10.5 -43.5t-24.5 -43.5t-46.5 -17.5t-40.5 17.5t-10.5 43.5zM68 0l84 500h101l-84 -500q-34 -24 -66 -60.5t-38 -71.5q-8 -44 34 -44q24 0 42 8l-9 -56q-23 -11 -58 -11q-44 0 -67.5 25t-16.5 68q13 78 108 142h-30z" />
<glyph unicode="&#x130;" horiz-adv-x="271" d="M218 833q5 24 24 40.5t43 16.5t37.5 -16.5t9.5 -40.5t-23 -40.5t-43 -16.5t-38 16.5t-10 40.5zM83 0l117 700h105l-117 -700h-105z" />
<glyph unicode="&#x131;" horiz-adv-x="238" d="M68 0l84 500h101l-84 -500h-101z" />
<glyph unicode="&#x132;" horiz-adv-x="833" d="M83 0l117 700h105l-117 -700h-105zM541 85q67 0 104.5 43t48.5 108l78 464h105l-78 -464q-18 -107 -85 -177.5t-189 -70.5q-63 0 -107 21t-63 55.5t-26 79.5t4 92l9 52h105l-9 -52q-11 -65 12.5 -108t90.5 -43z" />
<glyph unicode="&#x133;" horiz-adv-x="474" d="M169 662q4 26 24.5 43.5t46.5 17.5t40.5 -17.5t10.5 -43.5t-24.5 -43.5t-46.5 -17.5t-40.5 17.5t-10.5 43.5zM406 662q4 26 24.5 43.5t46.5 17.5t40.5 -17.5t10.5 -43.5t-24.5 -43.5t-46.5 -17.5t-40.5 17.5t-10.5 43.5zM68 0l84 500h101l-84 -500h-101zM182 -202l15 88 q16 -3 32 -3q56 0 67 64l93 553h101l-94 -561q-11 -70 -52.5 -108t-109.5 -38q-28 0 -52 5z" />
<glyph unicode="&#x134;" horiz-adv-x="562" d="M646 916l83 -143h-89l-57 99l-91 -99h-89l131 143h112zM270 85q67 0 104.5 43t48.5 108l78 464h105l-78 -464q-18 -107 -85 -177.5t-189 -70.5q-63 0 -107 21t-63 55.5t-26 79.5t4 92l9 52h105l-9 -52q-11 -65 12.5 -108t90.5 -43z" />
<glyph unicode="&#x135;" horiz-adv-x="237" d="M295 716l83 -143h-89l-58 99l-90 -99h-89l131 143h112zM-55 -202l15 88q16 -3 32 -3q56 0 67 64l93 553h101l-94 -561q-11 -70 -52.5 -108t-109.5 -38q-28 0 -52 5z" />
<glyph unicode="&#x136;" horiz-adv-x="627" d="M305 700l-57 -340l353 340h131l-363 -350l261 -350h-134l-251 338l-57 -338h-105l117 700h105zM248 -219l51 147h92l-68 -147h-75z" />
<glyph unicode="&#x137;" horiz-adv-x="525" d="M286 700l-74 -442l255 242h122l-265 -250l196 -250h-127l-185 236l-39 -236h-101l117 700h101zM185 -219l51 147h92l-68 -147h-75z" />
<glyph unicode="&#x138;" horiz-adv-x="525" d="M253 500l-41 -242l255 242h122l-265 -250l196 -250h-127l-185 236l-39 -236h-101l84 500h101z" />
<glyph unicode="&#x139;" horiz-adv-x="555" d="M451 915l-147 -142h-77l107 142h117zM305 700l-101 -604h355l-16 -96h-460l117 700h105z" />
<glyph unicode="&#x13a;" horiz-adv-x="237" d="M434 915l-147 -142h-77l107 142h117zM68 0l117 700h101l-117 -700h-101z" />
<glyph unicode="&#x13b;" horiz-adv-x="555" d="M305 700l-101 -604h355l-16 -96h-460l117 700h105zM204 -219l51 147h92l-68 -147h-75z" />
<glyph unicode="&#x13c;" horiz-adv-x="237" d="M68 0l117 700h101l-117 -700h-101zM10 -219l51 147h92l-68 -147h-75z" />
<glyph unicode="&#x13d;" horiz-adv-x="555" d="M305 700l-101 -604h355l-16 -96h-460l117 700h105zM559 700l-105 -142h-72l65 142h112z" />
<glyph unicode="&#x13e;" horiz-adv-x="377" d="M68 0l117 700h101l-117 -700h-101zM505 700l-105 -142h-72l65 142h112z" />
<glyph unicode="&#x13f;" horiz-adv-x="555" d="M305 700l-101 -604h355l-16 -96h-460l117 700h105zM376 398q4 24 23 40.5t43 16.5t38 -16.5t10 -40.5q-5 -24 -24 -40.5t-43 -16.5t-37.5 16.5t-9.5 40.5z" />
<glyph unicode="&#x140;" horiz-adv-x="335" d="M68 0l117 700h101l-117 -700h-101zM282 350q4 24 23 40.5t43 16.5t38 -16.5t10 -40.5q-5 -24 -24 -40.5t-43 -16.5t-37.5 16.5t-9.5 40.5z" />
<glyph unicode="&#x141;" horiz-adv-x="608" d="M63 254l129 81l61 365h105l-49 -291l140 87l24 -50l-176 -110l-40 -240h355l-16 -96h-460l44 263l-94 -59z" />
<glyph unicode="&#x142;" horiz-adv-x="353" d="M126 0l47 279l-96 -60l-25 49l133 83l58 349h101l-46 -278l96 60l24 -49l-132 -83l-59 -350h-101z" />
<glyph unicode="&#x143;" horiz-adv-x="751" d="M691 915l-147 -142h-77l107 142h117zM396 700l170 -670h2l112 670h105l-117 -700h-196l-170 670h-2l-112 -670h-105l117 700h196z" />
<glyph unicode="&#x144;" horiz-adv-x="572" d="M571 715l-147 -142h-77l107 142h117zM509 0h-101l50 297q11 64 -8 93.5t-73 29.5q-62 0 -106.5 -40.5t-56.5 -111.5l-45 -268h-101l84 500h101l-13 -74q66 86 174 86q180 0 145 -212z" />
<glyph unicode="&#x145;" horiz-adv-x="751" d="M396 700l170 -670h2l112 670h105l-117 -700h-196l-170 670h-2l-112 -670h-105l117 700h196zM267 -219l51 147h92l-68 -147h-75z" />
<glyph unicode="&#x146;" horiz-adv-x="572" d="M509 0h-101l50 297q11 64 -8 93.5t-73 29.5q-62 0 -106.5 -40.5t-56.5 -111.5l-45 -268h-101l84 500h101l-13 -74q66 86 174 86q180 0 145 -212zM180 -219l51 147h92l-68 -147h-75z" />
<glyph unicode="&#x147;" horiz-adv-x="751" d="M603 916h89l-131 -143h-112l-83 143h89l58 -99zM396 700l170 -670h2l112 670h105l-117 -700h-196l-170 670h-2l-112 -670h-105l117 700h196z" />
<glyph unicode="&#x148;" horiz-adv-x="572" d="M483 716h89l-131 -143h-112l-83 143h89l57 -99zM509 0h-101l50 297q11 64 -8 93.5t-73 29.5q-62 0 -106.5 -40.5t-56.5 -111.5l-45 -268h-101l84 500h101l-13 -74q66 86 174 86q180 0 145 -212z" />
<glyph unicode="&#x149;" horiz-adv-x="573" d="M262 700l-105 -142h-73l66 142h112zM509 0h-101l50 297q11 64 -8 93.5t-73 29.5q-62 0 -106.5 -40.5t-56.5 -111.5l-45 -268h-101l84 500h101l-13 -74q66 86 174 86q180 0 145 -212z" />
<glyph unicode="&#x14a;" horiz-adv-x="752" d="M555 -50l8 50h-91l-170 670h-2l-112 -670h-105l117 700h196l170 -670h2l112 670h105l-127 -761q-11 -70 -52.5 -108t-109.5 -38q-31 0 -56 6l15 90q17 -3 33 -3q57 0 67 64z" />
<glyph unicode="&#x14b;" horiz-adv-x="573" d="M285 -201l15 85q15 -3 32 -3q56 0 67 64l59 352q11 64 -8 93.5t-73 29.5q-62 0 -106.5 -40.5t-56.5 -111.5l-45 -268h-101l84 500h101l-13 -74q66 86 174 86q180 0 145 -212l-60 -360q-11 -70 -52.5 -108t-108.5 -38q-29 0 -53 5z" />
<glyph unicode="&#x14c;" horiz-adv-x="740" d="M643 782h-284l12 71h284zM98 350q12 70 42 133.5t77 115.5t117.5 82.5t154.5 30.5q67 0 120 -20t84.5 -55t51 -81t21 -98.5t-5.5 -107.5q-12 -71 -42.5 -134t-77.5 -115t-117.5 -82.5t-154.5 -30.5q-67 0 -120 20t-84.5 55t-51 81t-20.5 98.5t6 107.5zM655 350 q18 110 -26 187t-156 77t-182 -77t-88 -187q-19 -110 25 -187t156 -77t182 77t89 187z" />
<glyph unicode="&#x14d;" horiz-adv-x="580" d="M529 582h-284l12 71h284zM81 250q18 108 94.5 185t200.5 77q64 0 110 -22.5t68 -59.5t31 -84t-2 -96q-18 -108 -94.5 -185t-200.5 -77q-64 0 -110 22.5t-68 59.5t-31 84t2 96zM482 250q12 71 -18 120.5t-104 49.5t-120 -49.5t-58 -120.5t17 -120.5t104 -49.5 q74 0 120.5 49.5t58.5 120.5z" />
<glyph unicode="&#x14e;" horiz-adv-x="740" d="M655 350q18 110 -26 187t-156 77t-182 -77t-88 -187q-19 -110 25 -187t156 -77t182 77t89 187zM98 350q12 70 42 133.5t77 115.5t117.5 82.5t154.5 30.5q67 0 120 -20t84.5 -55t51 -81t21 -98.5t-5.5 -107.5q-12 -71 -42.5 -134t-77.5 -115t-117.5 -82.5t-154.5 -30.5 q-67 0 -120 20t-84.5 55t-51 81t-20.5 98.5t6 107.5zM365 916h73q-5 -35 14 -57t58 -22t66 22t32 57h73q-11 -64 -60.5 -104.5t-121.5 -40.5t-108.5 40.5t-25.5 104.5z" />
<glyph unicode="&#x14f;" horiz-adv-x="580" d="M482 250q12 71 -18 120.5t-104 49.5t-120 -49.5t-58 -120.5t17 -120.5t104 -49.5q74 0 120.5 49.5t58.5 120.5zM81 250q18 108 94.5 185t200.5 77q64 0 110 -22.5t68 -59.5t31 -84t-2 -96q-18 -108 -94.5 -185t-200.5 -77q-64 0 -110 22.5t-68 59.5t-31 84t2 96zM252 716 h73q-6 -35 13.5 -57t58.5 -22t65.5 22t32.5 57h73q-11 -64 -60.5 -104.5t-121.5 -40.5t-108.5 40.5t-25.5 104.5z" />
<glyph unicode="&#x150;" horiz-adv-x="740" d="M584 915l-135 -142h-71l95 142h111zM755 915l-135 -142h-71l95 142h111zM98 350q12 70 42 133.5t77 115.5t117.5 82.5t154.5 30.5q67 0 120 -20t84.5 -55t51 -81t21 -98.5t-5.5 -107.5q-12 -71 -42.5 -134t-77.5 -115t-117.5 -82.5t-154.5 -30.5q-67 0 -120 20t-84.5 55 t-51 81t-20.5 98.5t6 107.5zM655 350q18 110 -26 187t-156 77t-182 -77t-88 -187q-19 -110 25 -187t156 -77t182 77t89 187z" />
<glyph unicode="&#x151;" horiz-adv-x="580" d="M471 715l-135 -142h-71l95 142h111zM642 715l-135 -142h-71l95 142h111zM81 250q18 108 94.5 185t200.5 77q64 0 110 -22.5t68 -59.5t31 -84t-2 -96q-18 -108 -94.5 -185t-200.5 -77q-64 0 -110 22.5t-68 59.5t-31 84t2 96zM482 250q12 71 -18 120.5t-104 49.5 t-120 -49.5t-58 -120.5t17 -120.5t104 -49.5q74 0 120.5 49.5t58.5 120.5z" />
<glyph unicode="&#x152;" horiz-adv-x="961" d="M380 95h65l85 510h-65q-56 0 -103 -21.5t-79 -58t-52 -81t-28 -94.5q-10 -48 -3.5 -94t25 -82t59 -57.5t96.5 -21.5zM481 700h538l-16 -95h-368l-34 -204h344l-15 -92h-344l-36 -214h380l-16 -95h-550q-67 0 -118.5 19.5t-82.5 53t-50.5 78.5t-20.5 95.5t6 103.5 q11 68 40.5 129t75.5 111.5t115 80t152 29.5z" />
<glyph unicode="&#x153;" horiz-adv-x="962" d="M482 250q12 71 -18 120.5t-104 49.5t-120 -49.5t-58 -120.5t17 -120.5t104 -49.5q74 0 120.5 49.5t58.5 120.5zM595 297h272q0 59 -28 94.5t-87 35.5q-114 0 -157 -130zM81 250q18 108 94.5 185t200.5 77q131 0 183 -92q80 92 208 92q61 0 105.5 -22.5t65 -59.5t29 -84 t-2.5 -96l-5 -27h-380q-5 -66 22.5 -107.5t91.5 -41.5q98 0 140 74h103q-70 -160 -257 -160q-127 0 -177 92q-82 -92 -214 -92q-64 0 -110 22.5t-68 59.5t-31 84t2 96z" />
<glyph unicode="&#x154;" horiz-adv-x="669" d="M476 605h-187l-43 -256h187q55 0 97.5 36t52.5 92q9 56 -21.5 92t-85.5 36zM231 256l-43 -256h-105l117 700h295q100 0 154.5 -63.5t38.5 -159.5q-13 -76 -64.5 -132.5t-125.5 -77.5l122 -267h-119l-117 256h-153zM538 915h117l-147 -142h-77z" />
<glyph unicode="&#x155;" horiz-adv-x="356" d="M487 715l-147 -142h-77l107 142h117zM68 0l84 500h101l-13 -77h2q20 37 65 63t99 26h22l-17 -101q-9 4 -37 4q-55 0 -102 -41t-58 -105l-45 -269h-101z" />
<glyph unicode="&#x156;" horiz-adv-x="669" d="M476 605h-187l-43 -256h187q55 0 97.5 36t52.5 92q9 56 -21.5 92t-85.5 36zM231 256l-43 -256h-105l117 700h295q100 0 154.5 -63.5t38.5 -159.5q-13 -76 -64.5 -132.5t-125.5 -77.5l122 -267h-119l-117 256h-153zM318 -219h-75l51 147h92z" />
<glyph unicode="&#x157;" horiz-adv-x="356" d="M68 0l84 500h101l-13 -77h2q20 37 65 63t99 26h22l-17 -101q-9 4 -37 4q-55 0 -102 -41t-58 -105l-45 -269h-101zM10 -219l51 147h92l-68 -147h-75z" />
<glyph unicode="&#x158;" horiz-adv-x="669" d="M476 605h-187l-43 -256h187q55 0 97.5 36t52.5 92q9 56 -21.5 92t-85.5 36zM231 256l-43 -256h-105l117 700h295q100 0 154.5 -63.5t38.5 -159.5q-13 -76 -64.5 -132.5t-125.5 -77.5l122 -267h-119l-117 256h-153zM477 817l90 99h89l-131 -143h-112l-83 143h89z" />
<glyph unicode="&#x159;" horiz-adv-x="356" d="M399 716h89l-131 -143h-112l-83 143h89l57 -99zM68 0l84 500h101l-13 -77h2q20 37 65 63t99 26h22l-17 -101q-9 4 -37 4q-55 0 -102 -41t-58 -105l-45 -269h-101z" />
<glyph unicode="&#x15a;" horiz-adv-x="614" d="M619 915l-147 -142h-77l107 142h117zM72 203h105q-4 -60 36.5 -91.5t106.5 -31.5q69 0 122 29t62 86q5 32 -9 53t-42 31t-64 18.5t-74 14t-73.5 19t-61.5 32.5t-38 54.5t-4 85.5q18 103 99 156t186 53q102 0 163.5 -54.5t50.5 -159.5h-105q4 60 -30 91t-94 31 q-62 0 -108.5 -28.5t-55.5 -85.5q-7 -40 20 -63.5t72 -30.5t97 -19t95.5 -28t67.5 -58.5t13 -108.5q-11 -70 -59 -119t-111 -70t-134 -21q-109 0 -176.5 55t-56.5 160z" />
<glyph unicode="&#x15b;" horiz-adv-x="494" d="M527 715l-147 -142h-77l107 142h117zM63 149h101q-3 -39 24 -59.5t71 -20.5q45 0 79.5 18t40.5 54q5 31 -24 46t-73 22t-87.5 18t-69.5 43t-17 87q13 77 76.5 116t146.5 39q80 0 127.5 -40.5t41.5 -118.5h-99q3 39 -20.5 58.5t-64.5 19.5q-40 0 -70 -16.5t-36 -52.5 q-5 -30 24 -45t73 -21.5t87 -17.5t69 -43.5t17 -88.5q-13 -77 -80.5 -117.5t-153.5 -40.5q-85 0 -138 41.5t-45 119.5z" />
<glyph unicode="&#x15c;" horiz-adv-x="614" d="M513 916l83 -143h-89l-57 99l-91 -99h-89l131 143h112zM72 203h105q-4 -60 36.5 -91.5t106.5 -31.5q69 0 122 29t62 86q5 32 -9 53t-42 31t-64 18.5t-74 14t-73.5 19t-61.5 32.5t-38 54.5t-4 85.5q18 103 99 156t186 53q102 0 163.5 -54.5t50.5 -159.5h-105q4 60 -30 91 t-94 31q-62 0 -108.5 -28.5t-55.5 -85.5q-7 -40 20 -63.5t72 -30.5t97 -19t95.5 -28t67.5 -58.5t13 -108.5q-11 -70 -59 -119t-111 -70t-134 -21q-109 0 -176.5 55t-56.5 160z" />
<glyph unicode="&#x15d;" horiz-adv-x="494" d="M421 716l83 -143h-89l-58 99l-90 -99h-89l131 143h112zM63 149h101q-3 -39 24 -59.5t71 -20.5q45 0 79.5 18t40.5 54q5 31 -24 46t-73 22t-87.5 18t-69.5 43t-17 87q13 77 76.5 116t146.5 39q80 0 127.5 -40.5t41.5 -118.5h-99q3 39 -20.5 58.5t-64.5 19.5 q-40 0 -70 -16.5t-36 -52.5q-5 -30 24 -45t73 -21.5t87 -17.5t69 -43.5t17 -88.5q-13 -77 -80.5 -117.5t-153.5 -40.5q-85 0 -138 41.5t-45 119.5z" />
<glyph unicode="&#x15e;" horiz-adv-x="614" d="M72 203h105q-4 -60 36.5 -91.5t106.5 -31.5q69 0 122 29t62 86q5 32 -9 53t-42 31t-64 18.5t-74 14t-73.5 19t-61.5 32.5t-38 54.5t-4 85.5q18 103 99 156t186 53q102 0 163.5 -54.5t50.5 -159.5h-105q4 60 -30 91t-94 31q-62 0 -108.5 -28.5t-55.5 -85.5 q-7 -40 20 -63.5t72 -30.5t97 -19t95.5 -28t67.5 -58.5t13 -108.5t-54.5 -113.5t-101.5 -70t-125 -25.5l-16 -29h16q45 0 69.5 -24.5t17.5 -65.5q-8 -47 -47 -76t-98 -29q-39 0 -84 17l10 60q38 -19 75 -19q31 0 52 13.5t25 35.5q3 21 -8.5 31.5t-39.5 10.5h-39l-13 28 l26 47q-97 8 -154.5 62.5t-47.5 151.5z" />
<glyph unicode="&#x15f;" horiz-adv-x="494" d="M63 149h101q-3 -39 24 -59.5t71 -20.5q45 0 79.5 18t40.5 54q5 31 -24 46t-73 22t-87.5 18t-69.5 43t-17 87q13 77 76.5 116t146.5 39q80 0 127.5 -40.5t41.5 -118.5h-99q3 39 -20.5 58.5t-64.5 19.5q-40 0 -70 -16.5t-36 -52.5q-5 -30 24 -45t73 -21.5t87 -17.5 t69 -43.5t17 -88.5q-12 -72 -71.5 -111.5t-139.5 -45.5l-16 -29h16q45 0 69.5 -24.5t17.5 -65.5q-8 -47 -47 -76t-98 -29q-39 0 -84 17l10 60q38 -19 75 -19q31 0 52 13.5t25 35.5q3 21 -8.5 31.5t-39.5 10.5h-39l-13 28l26 48q-73 7 -116 48t-36 111z" />
<glyph unicode="&#x160;" horiz-adv-x="614" d="M531 916h89l-131 -143h-112l-83 143h89l58 -99zM72 203h105q-4 -60 36.5 -91.5t106.5 -31.5q69 0 122 29t62 86q5 32 -9 53t-42 31t-64 18.5t-74 14t-73.5 19t-61.5 32.5t-38 54.5t-4 85.5q18 103 99 156t186 53q102 0 163.5 -54.5t50.5 -159.5h-105q4 60 -30 91t-94 31 q-62 0 -108.5 -28.5t-55.5 -85.5q-7 -40 20 -63.5t72 -30.5t97 -19t95.5 -28t67.5 -58.5t13 -108.5q-11 -70 -59 -119t-111 -70t-134 -21q-109 0 -176.5 55t-56.5 160z" />
<glyph unicode="&#x161;" horiz-adv-x="494" d="M439 716h89l-131 -143h-112l-83 143h89l57 -99zM63 149h101q-3 -39 24 -59.5t71 -20.5q45 0 79.5 18t40.5 54q5 31 -24 46t-73 22t-87.5 18t-69.5 43t-17 87q13 77 76.5 116t146.5 39q80 0 127.5 -40.5t41.5 -118.5h-99q3 39 -20.5 58.5t-64.5 19.5q-40 0 -70 -16.5 t-36 -52.5q-5 -30 24 -45t73 -21.5t87 -17.5t69 -43.5t17 -88.5q-13 -77 -80.5 -117.5t-153.5 -40.5q-85 0 -138 41.5t-45 119.5z" />
<glyph unicode="&#x162;" horiz-adv-x="581" d="M444 604l-101 -604h-25l-22 -40h16q45 0 69.5 -24.5t17.5 -65.5q-8 -47 -47 -76t-98 -29q-39 0 -84 17l10 60q38 -19 75 -19q31 0 52 13.5t25 35.5q3 21 -8.5 31.5t-39.5 10.5h-39l-13 28l32 58h-26l101 604h-217l16 96h539l-16 -96h-217z" />
<glyph unicode="&#x163;" horiz-adv-x="385" d="M343 4q-49 -16 -102 -16q-11 0 -27 2l-16 -30h16q45 0 69.5 -24.5t17.5 -65.5q-8 -47 -47 -76t-98 -29q-39 0 -84 17l10 60q38 -19 75 -19q31 0 52 13.5t25 35.5q3 21 -8.5 31.5t-39.5 10.5h-39l-13 28l35 63q-56 35 -41 129l47 280h-89l15 86h89l23 140h101l-23 -140 h135l-15 -86h-135l-45 -272q-11 -64 45 -64q43 0 81 14z" />
<glyph unicode="&#x164;" horiz-adv-x="581" d="M518 916h89l-131 -143h-112l-83 143h89l58 -99zM444 604l-101 -604h-105l101 604h-217l16 96h539l-16 -96h-217z" />
<glyph unicode="&#x165;" horiz-adv-x="419" d="M561 700l-105 -142h-72l65 142h112zM343 4q-49 -16 -102 -16q-67 0 -95.5 38t-17.5 108l47 280h-89l15 86h89l23 140h101l-23 -140h135l-15 -86h-135l-45 -272q-11 -64 45 -64q43 0 81 14z" />
<glyph unicode="&#x166;" horiz-adv-x="582" d="M531 314h-135l-53 -314h-105l53 314h-135l12 72h135l36 218h-217l16 96h539l-16 -96h-217l-36 -218h135z" />
<glyph unicode="&#x167;" horiz-adv-x="386" d="M343 4q-49 -16 -102 -16q-67 0 -95.5 38t-17.5 108l19 113h-78l12 68h78l16 99h-89l15 86h89l23 140h101l-23 -140h135l-15 -86h-135l-16 -99h124l-12 -68h-124l-17 -105q-10 -64 45 -64q43 0 81 14z" />
<glyph unicode="&#x168;" horiz-adv-x="716" d="M386 772h-55q10 45 39 75.5t74 30.5q24 0 62.5 -13t57.5 -13q32 0 44 38h55q-9 -45 -38.5 -75.5t-74.5 -30.5q-24 0 -62 13t-57 13q-33 0 -45 -38zM584 277l71 423h105l-72 -430q-9 -51 -30.5 -97.5t-59 -89.5t-100 -69t-142.5 -26q-64 0 -112.5 17.5t-74 46t-41 65.5 t-15 76t4.5 77l72 430h105l-71 -423q-13 -79 20 -136t128 -57t147 56.5t65 136.5z" />
<glyph unicode="&#x169;" horiz-adv-x="572" d="M279 572h-55q9 45 38 75.5t74 30.5q24 0 62.5 -13t57.5 -13q34 0 44 38h55q-9 -45 -38 -75.5t-74 -30.5q-24 0 -62.5 13t-57.5 13q-34 0 -44 -38zM147 500h101l-50 -297q-11 -64 7.5 -93.5t72.5 -29.5q62 0 107 40.5t57 111.5l45 268h101l-84 -500h-101l12 74 q-66 -86 -173 -86q-182 0 -146 212z" />
<glyph unicode="&#x16a;" horiz-adv-x="716" d="M631 782h-284l12 71h284zM584 277l71 423h105l-72 -430q-9 -51 -30.5 -97.5t-59 -89.5t-100 -69t-142.5 -26q-64 0 -112.5 17.5t-74 46t-41 65.5t-15 76t4.5 77l72 430h105l-71 -423q-13 -79 20 -136t128 -57t147 56.5t65 136.5z" />
<glyph unicode="&#x16b;" horiz-adv-x="572" d="M523 582h-284l12 71h284zM147 500h101l-50 -297q-11 -64 7.5 -93.5t72.5 -29.5q62 0 107 40.5t57 111.5l45 268h101l-84 -500h-101l12 74q-66 -86 -173 -86q-182 0 -146 212z" />
<glyph unicode="&#x16c;" horiz-adv-x="716" d="M353 916h73q-5 -35 14 -57t58 -22t66 22t32 57h73q-11 -64 -60.5 -104.5t-121.5 -40.5t-108.5 40.5t-25.5 104.5zM584 277l71 423h105l-72 -430q-9 -51 -30.5 -97.5t-59 -89.5t-100 -69t-142.5 -26q-64 0 -112.5 17.5t-74 46t-41 65.5t-15 76t4.5 77l72 430h105l-71 -423 q-13 -79 20 -136t128 -57t147 56.5t65 136.5z" />
<glyph unicode="&#x16d;" horiz-adv-x="572" d="M246 716h73q-6 -35 13.5 -57t58.5 -22t65.5 22t32.5 57h73q-11 -64 -60.5 -104.5t-121.5 -40.5t-108.5 40.5t-25.5 104.5zM147 500h101l-50 -297q-11 -64 7.5 -93.5t72.5 -29.5q62 0 107 40.5t57 111.5l45 268h101l-84 -500h-101l12 74q-66 -86 -173 -86q-182 0 -146 212 z" />
<glyph unicode="&#x16e;" horiz-adv-x="716" d="M554 863q4 22 -8 37.5t-35 15.5t-40 -15.5t-21 -37.5q-3 -22 9 -37.5t35 -15.5t40 15.5t20 37.5zM584 277l71 423h105l-72 -430q-9 -51 -30.5 -97.5t-59 -89.5t-100 -69t-142.5 -26q-64 0 -112.5 17.5t-74 46t-41 65.5t-15 76t4.5 77l72 430h105l-71 -423 q-13 -79 20 -136t128 -57t147 56.5t65 136.5zM395 863q8 45 43.5 75t81.5 30t71.5 -30t17.5 -75q-7 -44 -42.5 -74.5t-81.5 -30.5t-71.5 30t-18.5 75z" />
<glyph unicode="&#x16f;" horiz-adv-x="572" d="M447 663q4 22 -8 37.5t-35 15.5t-40 -15.5t-21 -37.5t8 -37.5t35 -15.5t40 15.5t21 37.5zM96 200l51 300h101l-50 -297q-11 -64 7.5 -93.5t72.5 -29.5q62 0 107 40.5t57 111.5l45 268h101l-84 -500h-101l12 74q-66 -86 -173 -86q-182 0 -146 212zM288 663q8 45 43.5 75 t81.5 30t71.5 -30t17.5 -75t-43.5 -75t-81.5 -30t-71.5 30t-17.5 75z" />
<glyph unicode="&#x170;" horiz-adv-x="716" d="M572 915l-135 -142h-71l95 142h111zM743 915l-135 -142h-71l95 142h111zM584 277l71 423h105l-72 -430q-9 -51 -30.5 -97.5t-59 -89.5t-100 -69t-142.5 -26q-64 0 -112.5 17.5t-74 46t-41 65.5t-15 76t4.5 77l72 430h105l-71 -423q-13 -79 20 -136t128 -57t147 56.5 t65 136.5z" />
<glyph unicode="&#x171;" horiz-adv-x="572" d="M465 715l-135 -142h-71l95 142h111zM636 715l-135 -142h-71l95 142h111zM147 500h101l-50 -297q-11 -64 7.5 -93.5t72.5 -29.5q62 0 107 40.5t57 111.5l45 268h101l-84 -500h-101l12 74q-66 -86 -173 -86q-182 0 -146 212z" />
<glyph unicode="&#x172;" horiz-adv-x="716" d="M584 277l71 423h105l-72 -430q-6 -39 -19.5 -75t-38.5 -73t-59 -65t-83.5 -46.5t-109.5 -21.5q-80 -64 -89 -121q-8 -44 34 -44q24 0 42 8l-9 -56q-23 -11 -58 -11q-44 0 -67.5 25t-16.5 68q12 73 94 133q-64 8 -108 36.5t-61.5 67.5t-24 85.5t3.5 89.5l72 430h105 l-71 -423q-13 -79 20 -136t128 -57t147 56.5t65 136.5z" />
<glyph unicode="&#x173;" horiz-adv-x="572" d="M147 500h101l-50 -297q-11 -64 7.5 -93.5t72.5 -29.5q62 0 107 40.5t57 111.5l45 268h101l-84 -500q-34 -24 -66 -60.5t-38 -71.5q-8 -44 34 -44q24 0 42 8l-9 -56q-23 -11 -58 -11q-44 0 -67.5 25t-16.5 68q13 78 108 142h-30l12 74q-66 -86 -173 -86q-182 0 -146 212z " />
<glyph unicode="&#x174;" horiz-adv-x="982" d="M700 916l83 -143h-89l-57 99l-91 -99h-89l131 143h112zM244 700l34 -670h2l241 670h174l17 -670h2l258 670h108l-279 -700h-180l-17 670h-2l-241 -670h-180l-45 700h108z" />
<glyph unicode="&#x175;" horiz-adv-x="794" d="M573 716l83 -143h-89l-58 99l-90 -99h-89l131 143h112zM209 500l24 -475h2l164 475h164l4 -475h2l184 475h103l-204 -500h-170l-5 475h-2l-163 -475h-170l-36 500h103z" />
<glyph unicode="&#x176;" horiz-adv-x="625" d="M522 916l83 -143h-89l-57 99l-91 -99h-89l131 143h112zM269 275l-140 425h113l121 -395h1l253 395h113l-282 -425h-37l-46 -275h-105l46 275h-37z" />
<glyph unicode="&#x177;" horiz-adv-x="531" d="M441 716l83 -143h-89l-58 99l-90 -99h-89l131 143h112zM602 500l-333 -695h-104l93 195h-86l-76 500h105l67 -475h2l227 475h105z" />
<glyph unicode="&#x178;" horiz-adv-x="625" d="M303 832q5 24 23.5 40t42.5 16t37 -16t9 -40t-22.5 -40t-42.5 -16t-37.5 16t-9.5 40zM489 832q5 24 23.5 40t42.5 16t37 -16t9 -40t-22.5 -40t-42.5 -16t-37.5 16t-9.5 40zM269 275l-140 425h113l121 -395h1l253 395h113l-282 -425h-37l-46 -275h-105l46 275h-37z" />
<glyph unicode="&#x179;" horiz-adv-x="599" d="M615 915l-147 -142h-77l107 142h117zM675 700l-18 -110l-483 -494h406l-16 -96h-529l18 110l483 494h-390l16 96h513z" />
<glyph unicode="&#x17a;" horiz-adv-x="489" d="M527 715l-147 -142h-77l107 142h117zM526 500l-15 -86l-324 -323h275l-15 -91h-405l14 86l324 323h-256l16 91h386z" />
<glyph unicode="&#x17b;" horiz-adv-x="599" d="M382 833q5 24 24 40.5t43 16.5t37.5 -16.5t9.5 -40.5t-23 -40.5t-43 -16.5t-38 16.5t-10 40.5zM675 700l-18 -110l-483 -494h406l-16 -96h-529l18 110l483 494h-390l16 96h513z" />
<glyph unicode="&#x17c;" horiz-adv-x="489" d="M294 633q4 24 23 40.5t43 16.5t38 -16.5t10 -40.5t-23.5 -40.5t-43.5 -16.5t-37.5 16.5t-9.5 40.5zM526 500l-15 -86l-324 -323h275l-15 -91h-405l14 86l324 323h-256l16 91h386z" />
<glyph unicode="&#x17d;" horiz-adv-x="599" d="M527 916h89l-131 -143h-112l-83 143h89l58 -99zM675 700l-18 -110l-483 -494h406l-16 -96h-529l18 110l483 494h-390l16 96h513z" />
<glyph unicode="&#x17e;" horiz-adv-x="489" d="M439 716h89l-131 -143h-112l-83 143h89l57 -99zM526 500l-15 -86l-324 -323h275l-15 -91h-405l14 86l324 323h-256l16 91h386z" />
<glyph unicode="&#x17f;" horiz-adv-x="357" d="M101 500h89l12 76q11 70 52.5 108t109.5 38q53 0 96 -16l-14 -87q-36 14 -77 14q-56 0 -67 -64l-95 -569h-101l69 414h-89z" />
<glyph unicode="&#x186;" horiz-adv-x="714" d="M357 85q112 0 182 77t89 188q18 111 -26 188t-156 77q-160 0 -224 -160h-107q39 116 127 186.5t220 70.5q67 0 120 -20t84.5 -55t51 -81t21 -98.5t-5.5 -107.5q-12 -71 -42.5 -134t-77.5 -115t-117.5 -82.5t-154.5 -30.5q-132 0 -196 70.5t-65 186.5h107q9 -160 170 -160 z" />
<glyph unicode="&#x189;" horiz-adv-x="718" d="M220 700h250q67 0 118.5 -19.5t82.5 -53t50.5 -78.5t21 -95.5t-5.5 -103.5q-12 -68 -41 -129t-75.5 -111.5t-115.5 -80t-152 -29.5h-250l53 315h-72l12 71h72zM224 96h145q109 0 177 74t86 180q17 106 -26 180t-152 74h-145l-36 -218h172l-12 -71h-172z" />
<glyph unicode="&#x18e;" horiz-adv-x="615" d="M478 309h-344l15 92h344l34 204h-368l16 95h473l-117 -700h-485l16 95h380z" />
<glyph unicode="&#x18f;" horiz-adv-x="723" d="M616 274h-420q-4 -189 170 -189q91 0 155 52.5t95 136.5zM742 350q-12 -71 -42.5 -134t-77.5 -115t-117.5 -82.5t-154.5 -30.5t-142 29.5t-83.5 79t-33.5 115.5t7 138v4h539q17 109 -27 184.5t-155 75.5q-159 0 -224 -159h-107q41 117 127.5 187t219.5 70q67 0 120 -20 t84.5 -55t51 -81t21 -98.5t-5.5 -107.5z" />
<glyph unicode="&#x190;" horiz-adv-x="614" d="M357 306q-70 0 -121 -26.5t-61 -82.5q-10 -58 33 -87.5t111 -29.5q67 0 118 31.5t67 91.5h105q-25 -105 -110.5 -160t-194.5 -55q-112 0 -181.5 52.5t-52.5 154.5q19 112 139 160q-82 49 -64 151q17 102 97.5 154t185.5 52q102 0 163.5 -54.5t50.5 -159.5h-105 q4 60 -30 91t-94 31q-62 0 -108 -29.5t-56 -86.5q-9 -56 27 -81.5t99 -25.5h68l-15 -91h-71z" />
<glyph unicode="&#x192;" horiz-adv-x="546" d="M264 -61q-48 -146 -191 -146q-48 0 -90 16l29 89q32 -15 70 -15q59 0 81 64l119 360h-105l15 86h118l57 173q48 146 190 146q49 0 90 -16l-28 -89q-32 15 -71 15q-60 0 -81 -64l-54 -165h104l-15 -86h-117z" />
<glyph unicode="&#x197;" horiz-adv-x="311" d="M103 0l53 315h-72l12 71h72l52 314h105l-52 -314h72l-12 -71h-72l-53 -315h-105z" />
<glyph unicode="&#x19d;" horiz-adv-x="752" d="M200 700h196l170 -670h2l112 670h105l-117 -700h-196l-170 670h-2l-122 -731q-11 -70 -52.5 -108t-109.5 -38q-31 0 -56 6l15 90q17 -3 33 -3q56 0 67 64z" />
<glyph unicode="&#x1a0;" horiz-adv-x="741" d="M655 350q18 110 -26 187t-156 77t-182 -77t-88 -187q-19 -110 25 -187t156 -77t182 77t89 187zM98 350q12 70 42 133.5t77 115.5t117.5 82.5t154.5 30.5q85 0 146 -32q31 0 51 12.5t28 35t10.5 43t1.5 49.5h76q7 -153 -98 -195q85 -101 56 -275q-12 -71 -42.5 -134 t-77.5 -115t-117.5 -82.5t-154.5 -30.5q-67 0 -120 20t-84.5 55t-51 81t-20.5 98.5t6 107.5z" />
<glyph unicode="&#x1a1;" horiz-adv-x="585" d="M482 250q12 71 -18 120.5t-104 49.5t-120 -49.5t-58 -120.5t17 -120.5t104 -49.5q74 0 120.5 49.5t58.5 120.5zM81 250q18 108 94.5 185t200.5 77q76 0 127 -32q31 0 50.5 12.5t28 35t10.5 43t2 49.5h76q7 -163 -111 -199q41 -70 24 -171q-18 -108 -94.5 -185t-200.5 -77 q-64 0 -110 22.5t-68 59.5t-31 84t2 96z" />
<glyph unicode="&#x1af;" horiz-adv-x="726" d="M584 277l71 423h53q31 0 51.5 12t29 35t10.5 43.5t2 49.5h76q3 -81 -28 -135t-100 -69l-61 -366q-9 -51 -30.5 -97.5t-59 -89.5t-100 -69t-142.5 -26q-64 0 -112.5 17.5t-74 46t-41 65.5t-15 76t4.5 77l72 430h105l-71 -423q-13 -79 20 -136t128 -57t147 56.5t65 136.5z " />
<glyph unicode="&#x1b0;" horiz-adv-x="593" d="M148 500h101l-50 -297q-11 -64 7.5 -93.5t72.5 -29.5q62 0 107 40.5t57 111.5l45 268h51q31 0 51 12t28.5 35t10.5 43t2 50h76q4 -81 -27.5 -135.5t-101.5 -68.5l-73 -436h-101l12 74q-66 -86 -173 -86q-182 0 -146 212z" />
<glyph unicode="&#x1b5;" horiz-adv-x="599" d="M675 700l-18 -110l-200 -204h131l-12 -71h-188l-214 -219h406l-16 -96h-529l18 110l201 205h-131l12 71h188l213 218h-390l16 96h513z" />
<glyph unicode="&#x1b6;" horiz-adv-x="489" d="M526 500l-15 -86l-131 -131h79l-11 -66h-134l-127 -126h275l-15 -91h-405l14 86l132 131h-80l11 66h135l126 126h-256l16 91h386z" />
<glyph unicode="&#x1c4;" horiz-adv-x="1296" d="M204 96h145q109 0 177 74t86 180q17 106 -26 180t-152 74h-145zM200 700h250q67 0 118.5 -19.5t82.5 -53t50.5 -78.5t21 -95.5t-5.5 -103.5q-12 -68 -41 -129t-75.5 -111.5t-115.5 -80t-152 -29.5h-250zM859 700h513l-18 -110l-483 -494h406l-16 -96h-529l18 110l483 494 h-390zM1134 817l90 99h89l-131 -143h-112l-83 143h89z" />
<glyph unicode="&#x1c5;" horiz-adv-x="1186" d="M204 96h145q109 0 177 74t86 180q17 106 -26 180t-152 74h-145zM200 700h250q67 0 118.5 -19.5t82.5 -53t50.5 -78.5t21 -95.5t-5.5 -103.5q-12 -68 -41 -129t-75.5 -111.5t-115.5 -80t-152 -29.5h-250zM837 500h386l-15 -86l-324 -323h275l-15 -91h-405l14 86l324 323 h-256zM1045 617l91 99h89l-131 -143h-112l-83 143h89z" />
<glyph unicode="&#x1c6;" horiz-adv-x="1098" d="M482 250q12 72 -18 121.5t-104 49.5q-75 0 -120.5 -49.5t-57.5 -121.5t17 -121.5t104 -49.5q74 0 120.5 49.5t58.5 121.5zM541 0h-101l11 66q-75 -78 -181 -78q-62 0 -105 23.5t-61.5 61t-26 84.5t3.5 93q8 49 28 93.5t53 83.5t83.5 62t112.5 23q106 0 155 -78l44 266 h101zM749 500h386l-15 -86l-324 -323h275l-15 -91h-405l14 86l324 323h-256zM957 617l91 99h89l-131 -143h-112l-83 143h89z" />
<glyph unicode="&#x1c7;" horiz-adv-x="1117" d="M305 700l-101 -604h355l-16 -96h-460l117 700h105zM825 85q67 0 104.5 43t48.5 108l78 464h105l-78 -464q-18 -107 -85 -177.5t-189 -70.5q-63 0 -107 21t-63 55.5t-26 79.5t4 92l9 52h105l-9 -52q-11 -65 12.5 -108t90.5 -43z" />
<glyph unicode="&#x1c8;" horiz-adv-x="792" d="M724 662q4 26 24.5 43.5t46.5 17.5t40.5 -17.5t10.5 -43.5t-24.5 -43.5t-46.5 -17.5t-40.5 17.5t-10.5 43.5zM305 700l-101 -604h355l-16 -96h-460l117 700h105zM500 -202l15 88q17 -3 32 -3q56 0 67 64l93 553h101l-94 -561q-11 -70 -52.5 -108t-109.5 -38q-28 0 -52 5z " />
<glyph unicode="&#x1c9;" horiz-adv-x="474" d="M406 662q4 26 24.5 43.5t46.5 17.5t40.5 -17.5t10.5 -43.5t-24.5 -43.5t-46.5 -17.5t-40.5 17.5t-10.5 43.5zM68 0l117 700h101l-117 -700h-101zM182 -202l15 88q16 -3 32 -3q56 0 67 64l93 553h101l-94 -561q-11 -70 -52.5 -108t-109.5 -38q-28 0 -52 5z" />
<glyph unicode="&#x1ca;" horiz-adv-x="1313" d="M396 700l170 -670h2l112 670h105l-117 -700h-196l-170 670h-2l-112 -670h-105l117 700h196zM1021 85q67 0 104.5 43t48.5 108l78 464h105l-78 -464q-18 -107 -85 -177.5t-189 -70.5q-63 0 -107 21t-63 55.5t-26 79.5t4 92l9 52h105l-9 -52q-11 -65 12.5 -108t90.5 -43z " />
<glyph unicode="&#x1cb;" horiz-adv-x="988" d="M920 662q4 26 24.5 43.5t46.5 17.5t40.5 -17.5t10.5 -43.5t-24.5 -43.5t-46.5 -17.5t-40.5 17.5t-10.5 43.5zM396 700l170 -670h2l112 670h105l-117 -700h-196l-170 670h-2l-112 -670h-105l117 700h196zM696 -202l15 88q17 -3 32 -3q56 0 67 64l93 553h101l-94 -561 q-11 -70 -52.5 -108t-109.5 -38q-28 0 -52 5z" />
<glyph unicode="&#x1cc;" horiz-adv-x="809" d="M741 662q4 26 24.5 43.5t46.5 17.5t40.5 -17.5t10.5 -43.5t-24.5 -43.5t-46.5 -17.5t-40.5 17.5t-10.5 43.5zM509 0h-101l50 297q11 64 -8 93.5t-73 29.5q-62 0 -106.5 -40.5t-56.5 -111.5l-45 -268h-101l84 500h101l-13 -74q66 86 174 86q180 0 145 -212zM517 -202 l15 88q16 -3 32 -3q56 0 67 64l93 553h101l-94 -561q-11 -70 -52.5 -108t-109.5 -38q-28 0 -52 5z" />
<glyph unicode="&#x1cd;" horiz-adv-x="664" d="M443 670l-198 -408h262l-62 408h-2zM118 0h-111l350 700h184l116 -700h-111l-25 166h-322zM469 817l90 99h89l-131 -143h-112l-83 143h89z" />
<glyph unicode="&#x1ce;" horiz-adv-x="610" d="M482 250q12 72 -18 121.5t-104 49.5q-75 0 -120.5 -49.5t-57.5 -121.5t17 -121.5t104 -49.5q74 0 120.5 49.5t58.5 121.5zM541 0h-101l11 66q-75 -78 -181 -78q-62 0 -105 23.5t-61.5 61t-26 84.5t3.5 93q8 49 28 93.5t53 83.5t83.5 62t112.5 23q106 0 155 -78l11 66h101 zM393 617l91 99h89l-131 -143h-112l-83 143h89z" />
<glyph unicode="&#x1cf;" horiz-adv-x="271" d="M363 916h89l-131 -143h-112l-83 143h89l58 -99zM83 0l117 700h105l-117 -700h-105z" />
<glyph unicode="&#x1d0;" horiz-adv-x="237" d="M313 716h89l-131 -143h-112l-83 143h89l57 -99zM68 0l84 500h101l-84 -500h-101z" />
<glyph unicode="&#x1d1;" horiz-adv-x="740" d="M655 350q18 110 -26 187t-156 77t-182 -77t-88 -187q-19 -110 25 -187t156 -77t182 77t89 187zM98 350q12 70 42 133.5t77 115.5t117.5 82.5t154.5 30.5q67 0 120 -20t84.5 -55t51 -81t21 -98.5t-5.5 -107.5q-12 -71 -42.5 -134t-77.5 -115t-117.5 -82.5t-154.5 -30.5 q-67 0 -120 20t-84.5 55t-51 81t-20.5 98.5t6 107.5zM507 817l90 99h89l-131 -143h-112l-83 143h89z" />
<glyph unicode="&#x1d2;" horiz-adv-x="580" d="M482 250q12 71 -18 120.5t-104 49.5t-120 -49.5t-58 -120.5t17 -120.5t104 -49.5q74 0 120.5 49.5t58.5 120.5zM81 250q18 108 94.5 185t200.5 77q64 0 110 -22.5t68 -59.5t31 -84t-2 -96q-18 -108 -94.5 -185t-200.5 -77q-64 0 -110 22.5t-68 59.5t-31 84t2 96zM393 617 l91 99h89l-131 -143h-112l-83 143h89z" />
<glyph unicode="&#x1d3;" horiz-adv-x="716" d="M585 916h89l-131 -143h-112l-83 143h89l58 -99zM584 277l71 423h105l-72 -430q-9 -51 -30.5 -97.5t-59 -89.5t-100 -69t-142.5 -26q-64 0 -112.5 17.5t-74 46t-41 65.5t-15 76t4.5 77l72 430h105l-71 -423q-13 -79 20 -136t128 -57t147 56.5t65 136.5z" />
<glyph unicode="&#x1d4;" horiz-adv-x="572" d="M478 716h89l-131 -143h-112l-83 143h89l57 -99zM147 500h101l-50 -297q-11 -64 7.5 -93.5t72.5 -29.5q62 0 107 40.5t57 111.5l45 268h101l-84 -500h-101l12 74q-66 -86 -173 -86q-182 0 -146 212z" />
<glyph unicode="&#x1d5;" horiz-adv-x="716" d="M631 782h-284l12 71h284zM318 654q5 24 23.5 40t42.5 16t37 -16t9 -40t-22.5 -40t-42.5 -16t-37.5 16t-9.5 40zM504 654q5 24 23.5 40t42.5 16t37 -16t9 -40t-22.5 -40t-42.5 -16t-37.5 16t-9.5 40zM584 277l71 423h105l-72 -430q-9 -51 -30.5 -97.5t-59 -89.5t-100 -69 t-142.5 -26q-64 0 -112.5 17.5t-74 46t-41 65.5t-15 76t4.5 77l72 430h105l-71 -423q-13 -79 20 -136t128 -57t147 56.5t65 136.5z" />
<glyph unicode="&#x1d6;" horiz-adv-x="572" d="M555 770h-284l12 71h284zM241 632q4 24 22.5 40t42.5 16t37.5 -16t9.5 -40q-5 -24 -23.5 -40t-42.5 -16t-37 16t-9 40zM427 632q4 24 22.5 40t42.5 16t37.5 -16t9.5 -40q-5 -24 -23.5 -40t-42.5 -16t-37 16t-9 40zM147 500h101l-50 -297q-11 -64 7.5 -93.5t72.5 -29.5 q62 0 107 40.5t57 111.5l45 268h101l-84 -500h-101l12 74q-66 -86 -173 -86q-182 0 -146 212z" />
<glyph unicode="&#x1d7;" horiz-adv-x="716" d="M673 915l-147 -142h-77l107 142h117zM318 654q5 24 23.5 40t42.5 16t37 -16t9 -40t-22.5 -40t-42.5 -16t-37.5 16t-9.5 40zM504 654q5 24 23.5 40t42.5 16t37 -16t9 -40t-22.5 -40t-42.5 -16t-37.5 16t-9.5 40zM584 277l71 423h105l-72 -430q-9 -51 -30.5 -97.5 t-59 -89.5t-100 -69t-142.5 -26q-64 0 -112.5 17.5t-74 46t-41 65.5t-15 76t4.5 77l72 430h105l-71 -423q-13 -79 20 -136t128 -57t147 56.5t65 136.5z" />
<glyph unicode="&#x1d8;" horiz-adv-x="572" d="M597 903l-147 -142h-77l107 142h117zM241 632q4 24 22.5 40t42.5 16t37.5 -16t9.5 -40q-5 -24 -23.5 -40t-42.5 -16t-37 16t-9 40zM427 632q4 24 22.5 40t42.5 16t37.5 -16t9.5 -40q-5 -24 -23.5 -40t-42.5 -16t-37 16t-9 40zM147 500h101l-50 -297q-11 -64 7.5 -93.5 t72.5 -29.5q62 0 107 40.5t57 111.5l45 268h101l-84 -500h-101l12 74q-66 -86 -173 -86q-182 0 -146 212z" />
<glyph unicode="&#x1d9;" horiz-adv-x="716" d="M585 916h89l-131 -143h-112l-83 143h89l58 -99zM318 654q5 24 23.5 40t42.5 16t37 -16t9 -40t-22.5 -40t-42.5 -16t-37.5 16t-9.5 40zM504 654q5 24 23.5 40t42.5 16t37 -16t9 -40t-22.5 -40t-42.5 -16t-37.5 16t-9.5 40zM584 277l71 423h105l-72 -430 q-9 -51 -30.5 -97.5t-59 -89.5t-100 -69t-142.5 -26q-64 0 -112.5 17.5t-74 46t-41 65.5t-15 76t4.5 77l72 430h105l-71 -423q-13 -79 20 -136t128 -57t147 56.5t65 136.5z" />
<glyph unicode="&#x1da;" horiz-adv-x="572" d="M509 904h89l-131 -143h-112l-83 143h89l58 -99zM241 632q4 24 22.5 40t42.5 16t37.5 -16t9.5 -40q-5 -24 -23.5 -40t-42.5 -16t-37 16t-9 40zM427 632q4 24 22.5 40t42.5 16t37.5 -16t9.5 -40q-5 -24 -23.5 -40t-42.5 -16t-37 16t-9 40zM147 500h101l-50 -297 q-11 -64 7.5 -93.5t72.5 -29.5q62 0 107 40.5t57 111.5l45 268h101l-84 -500h-101l12 74q-66 -86 -173 -86q-182 0 -146 212z" />
<glyph unicode="&#x1db;" horiz-adv-x="716" d="M349 915h117l59 -142h-77zM318 654q5 24 23.5 40t42.5 16t37 -16t9 -40t-22.5 -40t-42.5 -16t-37.5 16t-9.5 40zM504 654q5 24 23.5 40t42.5 16t37 -16t9 -40t-22.5 -40t-42.5 -16t-37.5 16t-9.5 40zM584 277l71 423h105l-72 -430q-9 -51 -30.5 -97.5t-59 -89.5t-100 -69 t-142.5 -26q-64 0 -112.5 17.5t-74 46t-41 65.5t-15 76t4.5 77l72 430h105l-71 -423q-13 -79 20 -136t128 -57t147 56.5t65 136.5z" />
<glyph unicode="&#x1dc;" horiz-adv-x="572" d="M273 903h117l59 -142h-77zM241 632q4 24 22.5 40t42.5 16t37.5 -16t9.5 -40q-5 -24 -23.5 -40t-42.5 -16t-37 16t-9 40zM427 632q4 24 22.5 40t42.5 16t37.5 -16t9.5 -40q-5 -24 -23.5 -40t-42.5 -16t-37 16t-9 40zM147 500h101l-50 -297q-11 -64 7.5 -93.5t72.5 -29.5 q62 0 107 40.5t57 111.5l45 268h101l-84 -500h-101l12 74q-66 -86 -173 -86q-182 0 -146 212z" />
<glyph unicode="&#x1de;" horiz-adv-x="664" d="M443 670l-198 -408h262l-62 408h-2zM118 0h-111l350 700h184l116 -700h-111l-25 166h-322zM173 654q5 24 23.5 40t42.5 16t37 -16t9 -40t-22.5 -40t-42.5 -16t-37.5 16t-9.5 40zM617 853l-12 -71h-284l12 71h284zM597 654q5 24 23.5 40t42.5 16t37 -16t9 -40t-22.5 -40 t-42.5 -16t-37.5 16t-9.5 40z" />
<glyph unicode="&#x1df;" horiz-adv-x="609" d="M482 250q12 72 -18 121.5t-104 49.5q-75 0 -120.5 -49.5t-57.5 -121.5t17 -121.5t104 -49.5q74 0 120.5 49.5t58.5 121.5zM541 0h-101l11 66q-75 -78 -181 -78q-62 0 -105 23.5t-61.5 61t-26 84.5t3.5 93q8 49 28 93.5t53 83.5t83.5 62t112.5 23q106 0 155 -78l11 66h101 zM247 632q4 24 22.5 40t42.5 16t37.5 -16t9.5 -40q-5 -24 -23.5 -40t-42.5 -16t-37 16t-9 40zM573 841l-12 -71h-284l12 71h284zM433 632q4 24 22.5 40t42.5 16t37.5 -16t9.5 -40q-5 -24 -23.5 -40t-42.5 -16t-37 16t-9 40z" />
<glyph unicode="&#x1e2;" horiz-adv-x="1026" d="M604 670l-290 -408h224l68 408h-2zM128 0h-121l509 700h568l-16 -95h-368l-34 -204h344l-15 -92h-344l-36 -214h380l-16 -95h-485l28 166h-276zM832 853l-12 -71h-284l12 71h284z" />
<glyph unicode="&#x1e3;" horiz-adv-x="960" d="M482 250q12 72 -18 121.5t-104 49.5q-75 0 -120.5 -49.5t-57.5 -121.5t17 -121.5t104 -49.5q74 0 120.5 49.5t58.5 121.5zM594 297h272q1 59 -27.5 94.5t-87.5 35.5t-99 -35.5t-58 -94.5zM541 0h-101l11 66q-75 -78 -181 -78q-62 0 -105 23.5t-61.5 61t-26 84.5t3.5 93 q8 49 28 93.5t53 83.5t83.5 62t112.5 23q106 0 155 -78l11 66h101l-11 -66q63 78 167 78q74 0 120 -39t60 -97t2 -126l-5 -27h-380q-4 -66 23 -107.5t91 -41.5q98 0 140 74h103q-33 -75 -95 -117.5t-149 -42.5q-111 0 -139 78zM742 653l-12 -71h-284l12 71h284z" />
<glyph unicode="&#x1e6;" horiz-adv-x="752" d="M597 916h89l-131 -143h-112l-83 143h89l58 -99zM98 350q12 70 42 133.5t77 115.5t117.5 82.5t154.5 30.5q133 0 196 -70t65 -187h-107q-10 159 -170 159q-112 0 -182 -77t-88 -187q-11 -50 -4 -97.5t26 -85t61 -60t100 -22.5q184 0 239 192h-209l15 87h313l-61 -364h-68 v103q-85 -115 -247 -115q-67 0 -120 20t-84.5 55t-51 81t-20.5 98.5t6 107.5z" />
<glyph unicode="&#x1e7;" horiz-adv-x="599" d="M482 252q12 71 -17 120.5t-104 49.5q-74 0 -120.5 -49.5t-58.5 -120.5t18 -120.5t104 -49.5t120 49.5t58 120.5zM443 19l9 50q-74 -77 -181 -77q-62 0 -105 23.5t-62 61t-26 83.5t3 92q8 48 28.5 92.5t53 83t83 61.5t112.5 23q106 0 155 -77l11 65h101l-81 -481 q-20 -116 -101 -171t-186 -55q-82 0 -140 34t-71 105h113q31 -53 112 -53q63 0 111 34t61 106zM393 617l91 99h89l-131 -143h-112l-83 143h89z" />
<glyph unicode="&#x1e8;" horiz-adv-x="627" d="M584 916h89l-131 -143h-112l-83 143h89l58 -99zM305 700l-57 -340l353 340h131l-363 -350l261 -350h-134l-251 338l-57 -338h-105l117 700h105z" />
<glyph unicode="&#x1e9;" horiz-adv-x="525" d="M346 916h89l-131 -143h-112l-83 143h89l58 -99zM286 700l-74 -442l255 242h122l-265 -250l196 -250h-127l-185 236l-39 -236h-101l117 700h101z" />
<glyph unicode="&#x1ea;" horiz-adv-x="740" d="M655 350q18 110 -26 187t-156 77t-182 -77t-88 -187q-19 -110 25 -187t156 -77t182 77t89 187zM98 350q12 71 42 134t77.5 115t117.5 82.5t154 30.5q67 0 120 -20t84.5 -55t51 -81t21 -98.5t-5.5 -107.5q-16 -92 -60 -169.5t-125 -132t-185 -59.5q-80 -64 -89 -121 q-8 -44 34 -44q24 0 42 8l-9 -56q-23 -11 -58 -11q-44 0 -67.5 25t-16.5 68q12 73 94 133q-93 11 -149 66t-72 129.5t-1 163.5z" />
<glyph unicode="&#x1eb;" horiz-adv-x="580" d="M482 250q12 71 -18 120.5t-104 49.5t-120 -49.5t-58 -120.5t17 -120.5t104 -49.5q74 0 120.5 49.5t58.5 120.5zM81 250q18 108 94.5 185t200.5 77q64 0 110 -22.5t68 -59.5t31 -84t-2 -96q-17 -102 -87.5 -177.5t-185.5 -83.5q-80 -64 -89 -121q-8 -44 34 -44q24 0 42 8 l-9 -56q-23 -11 -58 -11q-44 0 -67.5 25t-16.5 68q12 73 95 133q-98 15 -137 88.5t-23 170.5z" />
<glyph unicode="&#x1ec;" horiz-adv-x="740" d="M655 350q18 110 -26 187t-156 77t-182 -77t-88 -187q-19 -110 25 -187t156 -77t182 77t89 187zM98 350q12 71 42 134t77.5 115t117.5 82.5t154 30.5q67 0 120 -20t84.5 -55t51 -81t21 -98.5t-5.5 -107.5q-16 -92 -60 -169.5t-125 -132t-185 -59.5q-80 -64 -89 -121 q-8 -44 34 -44q24 0 42 8l-9 -56q-23 -11 -58 -11q-44 0 -67.5 25t-16.5 68q12 73 94 133q-93 11 -149 66t-72 129.5t-1 163.5zM655 853l-12 -71h-284l12 71h284z" />
<glyph unicode="&#x1ed;" horiz-adv-x="580" d="M482 250q12 71 -18 120.5t-104 49.5t-120 -49.5t-58 -120.5t17 -120.5t104 -49.5q74 0 120.5 49.5t58.5 120.5zM81 250q18 108 94.5 185t200.5 77q64 0 110 -22.5t68 -59.5t31 -84t-2 -96q-17 -102 -87.5 -177.5t-185.5 -83.5q-80 -64 -89 -121q-8 -44 34 -44q24 0 42 8 l-9 -56q-23 -11 -58 -11q-44 0 -67.5 25t-16.5 68q12 73 95 133q-98 15 -137 88.5t-23 170.5zM541 653l-12 -71h-284l12 71h284z" />
<glyph unicode="&#x1f0;" horiz-adv-x="237" d="M313 716h89l-131 -143h-112l-83 143h89l57 -99zM-55 -202l15 88q16 -3 32 -3q56 0 67 64l93 553h101l-94 -561q-11 -70 -52.5 -108t-109.5 -38q-28 0 -52 5z" />
<glyph unicode="&#x1f1;" horiz-adv-x="1296" d="M204 96h145q109 0 177 74t86 180q17 106 -26 180t-152 74h-145zM200 700h250q67 0 118.5 -19.5t82.5 -53t50.5 -78.5t21 -95.5t-5.5 -103.5q-12 -68 -41 -129t-75.5 -111.5t-115.5 -80t-152 -29.5h-250zM859 700h513l-18 -110l-483 -494h406l-16 -96h-529l18 110l483 494 h-390z" />
<glyph unicode="&#x1f2;" horiz-adv-x="1186" d="M204 96h145q109 0 177 74t86 180q17 106 -26 180t-152 74h-145zM200 700h250q67 0 118.5 -19.5t82.5 -53t50.5 -78.5t21 -95.5t-5.5 -103.5q-12 -68 -41 -129t-75.5 -111.5t-115.5 -80t-152 -29.5h-250zM837 500h386l-15 -86l-324 -323h275l-15 -91h-405l14 86l324 323 h-256z" />
<glyph unicode="&#x1f3;" horiz-adv-x="1098" d="M482 250q12 72 -18 121.5t-104 49.5q-75 0 -120.5 -49.5t-57.5 -121.5t17 -121.5t104 -49.5q74 0 120.5 49.5t58.5 121.5zM541 0h-101l11 66q-75 -78 -181 -78q-62 0 -105 23.5t-61.5 61t-26 84.5t3.5 93q8 49 28 93.5t53 83.5t83.5 62t112.5 23q106 0 155 -78l44 266 h101zM749 500h386l-15 -86l-324 -323h275l-15 -91h-405l14 86l324 323h-256z" />
<glyph unicode="&#x1f4;" horiz-adv-x="752" d="M685 915l-147 -142h-77l107 142h117zM98 350q12 70 42 133.5t77 115.5t117.5 82.5t154.5 30.5q133 0 196 -70t65 -187h-107q-10 159 -170 159q-112 0 -182 -77t-88 -187q-11 -50 -4 -97.5t26 -85t61 -60t100 -22.5q184 0 239 192h-209l15 87h313l-61 -364h-68v103 q-85 -115 -247 -115q-67 0 -120 20t-84.5 55t-51 81t-20.5 98.5t6 107.5z" />
<glyph unicode="&#x1f5;" horiz-adv-x="599" d="M482 252q12 71 -17 120.5t-104 49.5q-74 0 -120.5 -49.5t-58.5 -120.5t18 -120.5t104 -49.5t120 49.5t58 120.5zM443 19l9 50q-74 -77 -181 -77q-62 0 -105 23.5t-62 61t-26 83.5t3 92q8 48 28.5 92.5t53 83t83 61.5t112.5 23q106 0 155 -77l11 65h101l-81 -481 q-20 -116 -101 -171t-186 -55q-82 0 -140 34t-71 105h113q31 -53 112 -53q63 0 111 34t61 106zM455 715h117l-147 -142h-77z" />
<glyph unicode="&#x1f8;" horiz-adv-x="751" d="M367 915h117l59 -142h-77zM396 700l170 -670h2l112 670h105l-117 -700h-196l-170 670h-2l-112 -670h-105l117 700h196z" />
<glyph unicode="&#x1f9;" horiz-adv-x="572" d="M247 715h117l59 -142h-77zM509 0h-101l50 297q11 64 -8 93.5t-73 29.5q-62 0 -106.5 -40.5t-56.5 -111.5l-45 -268h-101l84 500h101l-13 -74q66 86 174 86q180 0 145 -212z" />
<glyph unicode="&#x1fa;" horiz-adv-x="664" d="M443 670l-198 -408h262l-62 408h-2zM510 753q4 22 -8 37.5t-35 15.5t-40 -15.5t-21 -37.5t8 -37.5t35 -15.5t40 15.5t21 37.5zM565 753q-4 -27 -24 -54l116 -699h-111l-25 166h-322l-81 -166h-111l350 699q-10 27 -6 54q6 37 32 64.5t62 36.5l55 121h112l-93 -126 q26 -12 38.5 -38t7.5 -58z" />
<glyph unicode="&#x1fb;" horiz-adv-x="610" d="M482 250q12 72 -18 121.5t-104 49.5q-75 0 -120.5 -49.5t-57.5 -121.5t17 -121.5t104 -49.5q74 0 120.5 49.5t58.5 121.5zM453 663q4 22 -8 37.5t-35 15.5t-40 -15.5t-21 -37.5t8 -37.5t35 -15.5t40 15.5t21 37.5zM541 0h-101l11 66q-75 -78 -181 -78q-62 0 -105 23.5 t-61.5 61t-26 84.5t3.5 93q8 49 28 93.5t53 83.5t83.5 62t112.5 23q106 0 155 -78l11 66h101zM294 663q6 37 32 64.5t62 36.5l55 121h112l-93 -126q26 -12 38.5 -38t7.5 -58q-8 -45 -43.5 -75t-81.5 -30t-71.5 30t-17.5 75z" />
<glyph unicode="&#x1fc;" horiz-adv-x="1026" d="M604 670l-290 -408h224l68 408h-2zM128 0h-121l509 700h568l-16 -95h-368l-34 -204h344l-15 -92h-344l-36 -214h380l-16 -95h-485l28 166h-276zM745 915h117l-147 -142h-77z" />
<glyph unicode="&#x1fd;" horiz-adv-x="960" d="M482 250q12 72 -18 121.5t-104 49.5q-75 0 -120.5 -49.5t-57.5 -121.5t17 -121.5t104 -49.5q74 0 120.5 49.5t58.5 121.5zM594 297h272q1 59 -27.5 94.5t-87.5 35.5t-99 -35.5t-58 -94.5zM541 0h-101l11 66q-75 -78 -181 -78q-62 0 -105 23.5t-61.5 61t-26 84.5t3.5 93 q8 49 28 93.5t53 83.5t83.5 62t112.5 23q106 0 155 -78l11 66h101l-11 -66q63 78 167 78q74 0 120 -39t60 -97t2 -126l-5 -27h-380q-4 -66 23 -107.5t91 -41.5q98 0 140 74h103q-33 -75 -95 -117.5t-149 -42.5q-111 0 -139 78zM656 715h117l-147 -142h-77z" />
<glyph unicode="&#x1fe;" horiz-adv-x="740" d="M222 174l380 397q-49 43 -129 43q-112 0 -182 -77t-88 -187q-18 -106 19 -176zM655 350q18 104 -20 176l-379 -397q48 -43 128 -43q112 0 182.5 77t88.5 187zM774 751l42 -36l-101 -105q72 -101 45 -260q-12 -71 -42.5 -134t-77.5 -115t-117.5 -82.5t-154.5 -30.5 q-118 0 -189 61l-96 -100l-42 36l101 105q-70 101 -44 260q12 70 42 133.5t77 115.5t117.5 82.5t154.5 30.5q118 0 189 -61zM568 916h117l-146 -142h-77z" />
<glyph unicode="&#x1ff;" horiz-adv-x="580" d="M193 142l245 256q-30 22 -78 22q-74 0 -120 -49.5t-58 -120.5q-11 -62 11 -108zM482 250q11 62 -11 108l-245 -256q30 -22 77 -22q75 0 121 49.5t58 120.5zM582 549l40 -33l-74 -78q54 -71 35 -188q-18 -108 -94.5 -185t-200.5 -77q-82 0 -135 37l-71 -74l-41 33l74 78 q-54 73 -34 188q18 108 94.5 185t200.5 77q81 0 134 -37zM455 715h117l-147 -142h-77z" />
<glyph unicode="&#x200;" horiz-adv-x="664" d="M443 670l-198 -408h262l-62 408h-2zM118 0h-111l350 700h184l116 -700h-111l-25 166h-322zM340 773l-87 142h111l47 -142h-71zM511 773l-87 142h111l47 -142h-71z" />
<glyph unicode="&#x201;" horiz-adv-x="609" d="M482 250q12 72 -18 121.5t-104 49.5q-75 0 -120.5 -49.5t-57.5 -121.5t17 -121.5t104 -49.5q74 0 120.5 49.5t58.5 121.5zM541 0h-101l11 66q-75 -78 -181 -78q-62 0 -105 23.5t-61.5 61t-26 84.5t3.5 93q8 49 28 93.5t53 83.5t83.5 62t112.5 23q106 0 155 -78l11 66h101 zM265 573l-87 142h111l47 -142h-71zM436 573l-87 142h111l47 -142h-71z" />
<glyph unicode="&#x202;" horiz-adv-x="664" d="M443 670l-198 -408h262l-62 408h-2zM118 0h-111l350 700h184l116 -700h-111l-25 166h-322zM376 771h-73q11 64 60.5 104.5t121.5 40.5t108.5 -40.5t25.5 -104.5h-73q6 35 -13.5 57t-58.5 22t-65.5 -22t-32.5 -57z" />
<glyph unicode="&#x203;" horiz-adv-x="609" d="M482 250q12 72 -18 121.5t-104 49.5q-75 0 -120.5 -49.5t-57.5 -121.5t17 -121.5t104 -49.5q74 0 120.5 49.5t58.5 121.5zM541 0h-101l11 66q-75 -78 -181 -78q-62 0 -105 23.5t-61.5 61t-26 84.5t3.5 93q8 49 28 93.5t53 83.5t83.5 62t112.5 23q106 0 155 -78l11 66h101 zM301 571h-73q11 64 60.5 104.5t121.5 40.5t108.5 -40.5t25.5 -104.5h-73q5 35 -14 57t-58 22t-66 -22t-32 -57z" />
<glyph unicode="&#x204;" horiz-adv-x="615" d="M418 915h111l47 -142h-71zM247 915h111l47 -142h-71zM240 309l-36 -214h380l-16 -95h-485l117 700h473l-16 -95h-368l-34 -204h344l-15 -92h-344z" />
<glyph unicode="&#x205;" horiz-adv-x="560" d="M194 297h272q0 59 -28 94.5t-87 35.5q-114 0 -157 -130zM432 148h103q-70 -160 -257 -160q-61 0 -105.5 22.5t-65 59.5t-29 84t2.5 96q18 108 92 185t193 77q61 0 105.5 -22.5t65 -59.5t29 -84t-2.5 -96l-5 -27h-380q-5 -66 22.5 -107.5t91.5 -41.5q98 0 140 74zM255 573 l-87 142h111l47 -142h-71zM426 573l-87 142h111l47 -142h-71z" />
<glyph unicode="&#x206;" horiz-adv-x="615" d="M370 771h-73q11 64 60.5 104.5t121.5 40.5t108.5 -40.5t25.5 -104.5h-73q6 35 -13.5 57t-58.5 22t-65.5 -22t-32.5 -57zM240 309l-36 -214h380l-16 -95h-485l117 700h473l-16 -95h-368l-34 -204h344l-15 -92h-344z" />
<glyph unicode="&#x207;" horiz-adv-x="560" d="M194 297h272q0 59 -28 94.5t-87 35.5q-114 0 -157 -130zM432 148h103q-70 -160 -257 -160q-61 0 -105.5 22.5t-65 59.5t-29 84t2.5 96q18 108 92 185t193 77q61 0 105.5 -22.5t65 -59.5t29 -84t-2.5 -96l-5 -27h-380q-5 -66 22.5 -107.5t91.5 -41.5q98 0 140 74zM291 571 h-73q11 64 60.5 104.5t121.5 40.5t108.5 -40.5t25.5 -104.5h-73q5 35 -14 57t-58 22t-66 -22t-32 -57z" />
<glyph unicode="&#x208;" horiz-adv-x="271" d="M228 915h111l47 -142h-71zM57 915h111l47 -142h-71zM83 0l117 700h105l-117 -700h-105z" />
<glyph unicode="&#x209;" horiz-adv-x="237" d="M178 715h111l47 -142h-71zM7 715h111l47 -142h-71zM68 0l84 500h101l-84 -500h-101z" />
<glyph unicode="&#x20a;" horiz-adv-x="271" d="M180 771h-73q11 64 60.5 104.5t121.5 40.5t108.5 -40.5t25.5 -104.5h-73q6 35 -13.5 57t-58.5 22t-65.5 -22t-32.5 -57zM83 0l117 700h105l-117 -700h-105z" />
<glyph unicode="&#x20b;" horiz-adv-x="237" d="M167 794h-73q11 64 60.5 104.5t121.5 40.5t108.5 -40.5t25.5 -104.5h-73q6 35 -13.5 57t-58.5 22t-65.5 -22t-32.5 -57zM169 662q4 26 24.5 43.5t46.5 17.5t40.5 -17.5t10.5 -43.5t-24.5 -43.5t-46.5 -17.5t-40.5 17.5t-10.5 43.5zM68 0l84 500h101l-84 -500h-101z" />
<glyph unicode="&#x20c;" horiz-adv-x="740" d="M462 915h111l47 -142h-71zM291 915h111l47 -142h-71zM98 350q12 70 42 133.5t77 115.5t117.5 82.5t154.5 30.5q67 0 120 -20t84.5 -55t51 -81t21 -98.5t-5.5 -107.5q-12 -71 -42.5 -134t-77.5 -115t-117.5 -82.5t-154.5 -30.5q-67 0 -120 20t-84.5 55t-51 81t-20.5 98.5 t6 107.5zM655 350q18 110 -26 187t-156 77t-182 -77t-88 -187q-19 -110 25 -187t156 -77t182 77t89 187z" />
<glyph unicode="&#x20d;" horiz-adv-x="580" d="M349 715h111l47 -142h-71zM178 715h111l47 -142h-71zM81 250q18 108 94.5 185t200.5 77q64 0 110 -22.5t68 -59.5t31 -84t-2 -96q-18 -108 -94.5 -185t-200.5 -77q-64 0 -110 22.5t-68 59.5t-31 84t2 96zM482 250q12 71 -18 120.5t-104 49.5t-120 -49.5t-58 -120.5 t17 -120.5t104 -49.5q74 0 120.5 49.5t58.5 120.5z" />
<glyph unicode="&#x20e;" horiz-adv-x="740" d="M655 350q18 110 -26 187t-156 77t-182 -77t-88 -187q-19 -110 25 -187t156 -77t182 77t89 187zM98 350q12 70 42 133.5t77 115.5t117.5 82.5t154.5 30.5q67 0 120 -20t84.5 -55t51 -81t21 -98.5t-5.5 -107.5q-12 -71 -42.5 -134t-77.5 -115t-117.5 -82.5t-154.5 -30.5 q-67 0 -120 20t-84.5 55t-51 81t-20.5 98.5t6 107.5zM414 771h-73q11 64 60.5 104.5t121.5 40.5t108.5 -40.5t25.5 -104.5h-73q6 35 -13.5 57t-58.5 22t-65.5 -22t-32.5 -57z" />
<glyph unicode="&#x20f;" horiz-adv-x="580" d="M482 250q12 71 -18 120.5t-104 49.5t-120 -49.5t-58 -120.5t17 -120.5t104 -49.5q74 0 120.5 49.5t58.5 120.5zM81 250q18 108 94.5 185t200.5 77q64 0 110 -22.5t68 -59.5t31 -84t-2 -96q-18 -108 -94.5 -185t-200.5 -77q-64 0 -110 22.5t-68 59.5t-31 84t2 96zM301 571 h-73q11 64 60.5 104.5t121.5 40.5t108.5 -40.5t25.5 -104.5h-73q5 35 -14 57t-58 22t-66 -22t-32 -57z" />
<glyph unicode="&#x210;" horiz-adv-x="669" d="M476 605h-187l-43 -256h187q55 0 97.5 36t52.5 92q9 56 -21.5 92t-85.5 36zM231 256l-43 -256h-105l117 700h295q100 0 154.5 -63.5t38.5 -159.5q-13 -76 -64.5 -132.5t-125.5 -77.5l122 -267h-119l-117 256h-153zM348 773l-87 142h111l47 -142h-71zM519 773l-87 142h111 l47 -142h-71z" />
<glyph unicode="&#x211;" horiz-adv-x="356" d="M264 715h111l47 -142h-71zM93 715h111l47 -142h-71zM68 0l84 500h101l-13 -77h2q20 37 65 63t99 26h22l-17 -101q-9 4 -37 4q-55 0 -102 -41t-58 -105l-45 -269h-101z" />
<glyph unicode="&#x212;" horiz-adv-x="669" d="M476 605h-187l-43 -256h187q55 0 97.5 36t52.5 92q9 56 -21.5 92t-85.5 36zM231 256l-43 -256h-105l117 700h295q100 0 154.5 -63.5t38.5 -159.5q-13 -76 -64.5 -132.5t-125.5 -77.5l122 -267h-119l-117 256h-153zM384 771h-73q11 64 60.5 104.5t121.5 40.5t108.5 -40.5 t25.5 -104.5h-73q6 35 -13.5 57t-58.5 22t-65.5 -22t-32.5 -57z" />
<glyph unicode="&#x213;" horiz-adv-x="356" d="M216 571h-73q11 64 60.5 104.5t121.5 40.5t108.5 -40.5t25.5 -104.5h-73q5 35 -14 57t-58 22t-66 -22t-32 -57zM68 0l84 500h101l-13 -77h2q20 37 65 63t99 26h22l-17 -101q-9 4 -37 4q-55 0 -102 -41t-58 -105l-45 -269h-101z" />
<glyph unicode="&#x214;" horiz-adv-x="716" d="M450 915h111l47 -142h-71zM279 915h111l47 -142h-71zM584 277l71 423h105l-72 -430q-9 -51 -30.5 -97.5t-59 -89.5t-100 -69t-142.5 -26q-64 0 -112.5 17.5t-74 46t-41 65.5t-15 76t4.5 77l72 430h105l-71 -423q-13 -79 20 -136t128 -57t147 56.5t65 136.5z" />
<glyph unicode="&#x215;" horiz-adv-x="572" d="M343 715h111l47 -142h-71zM172 715h111l47 -142h-71zM147 500h101l-50 -297q-11 -64 7.5 -93.5t72.5 -29.5q62 0 107 40.5t57 111.5l45 268h101l-84 -500h-101l12 74q-66 -86 -173 -86q-182 0 -146 212z" />
<glyph unicode="&#x216;" horiz-adv-x="716" d="M402 771h-73q11 64 60.5 104.5t121.5 40.5t108.5 -40.5t25.5 -104.5h-73q6 35 -13.5 57t-58.5 22t-65.5 -22t-32.5 -57zM584 277l71 423h105l-72 -430q-9 -51 -30.5 -97.5t-59 -89.5t-100 -69t-142.5 -26q-64 0 -112.5 17.5t-74 46t-41 65.5t-15 76t4.5 77l72 430h105 l-71 -423q-13 -79 20 -136t128 -57t147 56.5t65 136.5z" />
<glyph unicode="&#x217;" horiz-adv-x="572" d="M295 571h-73q11 64 60.5 104.5t121.5 40.5t108.5 -40.5t25.5 -104.5h-73q5 35 -14 57t-58 22t-66 -22t-32 -57zM147 500h101l-50 -297q-11 -64 7.5 -93.5t72.5 -29.5q62 0 107 40.5t57 111.5l45 268h101l-84 -500h-101l12 74q-66 -86 -173 -86q-182 0 -146 212z" />
<glyph unicode="&#x218;" horiz-adv-x="614" d="M72 203h105q-4 -60 36.5 -91.5t106.5 -31.5q69 0 122 29t62 86q5 32 -9 53t-42 31t-64 18.5t-74 14t-73.5 19t-61.5 32.5t-38 54.5t-4 85.5q18 103 99 156t186 53q102 0 163.5 -54.5t50.5 -159.5h-105q4 60 -30 91t-94 31q-62 0 -108.5 -28.5t-55.5 -85.5 q-7 -40 20 -63.5t72 -30.5t97 -19t95.5 -28t67.5 -58.5t13 -108.5q-11 -70 -59 -119t-111 -70t-134 -21q-109 0 -176.5 55t-56.5 160zM198 -219l51 147h92l-68 -147h-75z" />
<glyph unicode="&#x219;" horiz-adv-x="494" d="M63 149h101q-3 -39 24 -59.5t71 -20.5q45 0 79.5 18t40.5 54q5 31 -24 46t-73 22t-87.5 18t-69.5 43t-17 87q13 77 76.5 116t146.5 39q80 0 127.5 -40.5t41.5 -118.5h-99q3 39 -20.5 58.5t-64.5 19.5q-40 0 -70 -16.5t-36 -52.5q-5 -30 24 -45t73 -21.5t87 -17.5 t69 -43.5t17 -88.5q-13 -77 -80.5 -117.5t-153.5 -40.5q-85 0 -138 41.5t-45 119.5zM139 -219l51 147h92l-68 -147h-75z" />
<glyph unicode="&#x21a;" horiz-adv-x="581" d="M444 604l-101 -604h-105l101 604h-217l16 96h539l-16 -96h-217zM182 -219l51 147h92l-68 -147h-75z" />
<glyph unicode="&#x21b;" horiz-adv-x="385" d="M343 4q-49 -16 -102 -16q-67 0 -95.5 38t-17.5 108l47 280h-89l15 86h89l23 140h101l-23 -140h135l-15 -86h-135l-45 -272q-11 -64 45 -64q43 0 81 14zM84 -219l51 147h92l-68 -147h-75z" />
<glyph unicode="&#x21e;" horiz-adv-x="716" d="M585 916h89l-131 -143h-112l-83 143h89l58 -99zM83 0l117 700h105l-49 -296h340l49 296h105l-117 -700h-105l52 308h-340l-52 -308h-105z" />
<glyph unicode="&#x21f;" horiz-adv-x="572" d="M513 916h89l-131 -143h-112l-83 143h89l58 -99zM509 0h-101l50 297q11 64 -8 93.5t-73 29.5q-62 0 -106.5 -40.5t-56.5 -111.5l-45 -268h-101l117 700h101l-46 -274q66 86 174 86q180 0 145 -212z" />
<glyph unicode="&#x226;" horiz-adv-x="664" d="M443 670l-198 -408h262l-62 408h-2zM118 0h-111l350 700h184l116 -700h-111l-25 166h-322zM414 833q5 24 24 40.5t43 16.5t37.5 -16.5t9.5 -40.5t-23 -40.5t-43 -16.5t-38 16.5t-10 40.5z" />
<glyph unicode="&#x227;" horiz-adv-x="609" d="M482 250q12 72 -18 121.5t-104 49.5q-75 0 -120.5 -49.5t-57.5 -121.5t17 -121.5t104 -49.5q74 0 120.5 49.5t58.5 121.5zM541 0h-101l11 66q-75 -78 -181 -78q-62 0 -105 23.5t-61.5 61t-26 84.5t3.5 93q8 49 28 93.5t53 83.5t83.5 62t112.5 23q106 0 155 -78l11 66h101 zM339 633q4 24 23 40.5t43 16.5t38 -16.5t10 -40.5t-23.5 -40.5t-43.5 -16.5t-37.5 16.5t-9.5 40.5z" />
<glyph unicode="&#x228;" horiz-adv-x="615" d="M240 309l-36 -214h380l-16 -95h-215l-22 -40h16q45 0 69.5 -24.5t17.5 -65.5q-8 -47 -47 -76t-98 -29q-39 0 -84 17l10 60q38 -19 75 -19q31 0 52 13.5t25 35.5q3 21 -8.5 31.5t-39.5 10.5h-39l-13 28l32 58h-216l117 700h473l-16 -95h-368l-34 -204h344l-15 -92h-344z " />
<glyph unicode="&#x229;" horiz-adv-x="560" d="M194 297h272q0 59 -28 94.5t-87 35.5q-114 0 -157 -130zM432 148h103q-65 -149 -234 -159l-16 -29h16q45 0 69.5 -24.5t17.5 -65.5q-8 -47 -47 -76t-98 -29q-39 0 -84 17l10 60q38 -19 75 -19q31 0 52 13.5t25 35.5q3 21 -8.5 31.5t-39.5 10.5h-39l-13 28l26 48 q-102 11 -142.5 85.5t-23.5 174.5q18 108 92 185t193 77q61 0 105.5 -22.5t65 -59.5t29 -84t-2.5 -96l-5 -27h-380q-5 -66 22.5 -107.5t91.5 -41.5q98 0 140 74z" />
<glyph unicode="&#x22e;" horiz-adv-x="740" d="M452 833q5 24 24 40.5t43 16.5t37.5 -16.5t9.5 -40.5t-23 -40.5t-43 -16.5t-38 16.5t-10 40.5zM98 350q12 70 42 133.5t77 115.5t117.5 82.5t154.5 30.5q67 0 120 -20t84.5 -55t51 -81t21 -98.5t-5.5 -107.5q-12 -71 -42.5 -134t-77.5 -115t-117.5 -82.5t-154.5 -30.5 q-67 0 -120 20t-84.5 55t-51 81t-20.5 98.5t6 107.5zM655 350q18 110 -26 187t-156 77t-182 -77t-88 -187q-19 -110 25 -187t156 -77t182 77t89 187z" />
<glyph unicode="&#x22f;" horiz-adv-x="580" d="M339 633q4 24 23 40.5t43 16.5t38 -16.5t10 -40.5t-23.5 -40.5t-43.5 -16.5t-37.5 16.5t-9.5 40.5zM81 250q18 108 94.5 185t200.5 77q64 0 110 -22.5t68 -59.5t31 -84t-2 -96q-18 -108 -94.5 -185t-200.5 -77q-64 0 -110 22.5t-68 59.5t-31 84t2 96zM482 250 q12 71 -18 120.5t-104 49.5t-120 -49.5t-58 -120.5t17 -120.5t104 -49.5q74 0 120.5 49.5t58.5 120.5z" />
<glyph unicode="&#x232;" horiz-adv-x="625" d="M586 782h-284l12 71h284zM269 275l-140 425h113l121 -395h1l253 395h113l-282 -425h-37l-46 -275h-105l46 275h-37z" />
<glyph unicode="&#x233;" horiz-adv-x="530" d="M504 582h-284l12 71h284zM602 500l-333 -695h-104l93 195h-86l-76 500h105l67 -475h2l227 475h105z" />
<glyph unicode="&#x237;" horiz-adv-x="237" d="M-55 -202l15 88q16 -3 32 -3q56 0 67 64l93 553h101l-94 -561q-11 -70 -52.5 -108t-109.5 -38q-28 0 -52 5z" />
<glyph unicode="&#x244;" horiz-adv-x="756" d="M604 277l7 38h-360l-7 -38q-13 -79 20 -136t128 -57t147 56.5t65 136.5zM138 270l8 45h-72l12 71h72l52 314h105l-52 -314h360l52 314h105l-52 -314h72l-12 -71h-72l-8 -45q-9 -51 -30.5 -97.5t-59 -89.5t-100 -69t-142.5 -26q-64 0 -112.5 17.5t-74 46t-41 65.5t-15 76 t4.5 77z" />
<glyph unicode="&#x254;" horiz-adv-x="561" d="M268 -12q-102 0 -150.5 52t-48.5 138h102q7 -100 112 -100q74 0 120.5 50.5t58.5 121.5t-17.5 121.5t-103.5 50.5q-105 0 -146 -100h-102q29 86 95 138t168 52q64 0 110 -22.5t68 -59.5t31 -84t-2 -96q-18 -108 -94.5 -185t-200.5 -77z" />
<glyph unicode="&#x256;" horiz-adv-x="609" d="M482 250q12 72 -18 121.5t-104 49.5q-75 0 -120.5 -49.5t-57.5 -121.5t17 -121.5t104 -49.5q74 0 120.5 49.5t58.5 121.5zM430 -60l21 126q-75 -78 -181 -78q-62 0 -105 23.5t-61.5 61t-26 84.5t3.5 93q8 49 28 93.5t53 83.5t83.5 62t112.5 23q106 0 155 -78l44 266h101 l-126 -755q-11 -64 45 -64q16 0 34 3l-15 -85q-24 -5 -53 -5q-67 0 -95.5 38t-17.5 108z" />
<glyph unicode="&#x258;" horiz-adv-x="560" d="M194 297h272q0 59 -28 94.5t-87 35.5q-114 0 -157 -130zM75 148h103q16 -74 114 -74q64 0 106 42t58 107h-380l5 27q13 69 46 126t95.5 96.5t143.5 39.5q61 0 105.5 -22.5t65 -59.5t29 -84t-2.5 -96q-18 -108 -92 -185t-193 -77q-186 0 -203 160z" />
<glyph unicode="&#x259;" horiz-adv-x="562" d="M451 203h-272q0 -59 27.5 -94.5t86.5 -35.5t99 35.5t59 94.5zM213 352h-103q70 160 257 160q61 0 105.5 -22.5t65 -59.5t29 -84t-2.5 -96q-18 -108 -92 -185t-193 -77q-61 0 -105.5 22.5t-65 59.5t-29 84t2.5 96l4 27h380q6 66 -22 107.5t-92 41.5q-98 0 -139 -74z" />
<glyph unicode="&#x25b;" horiz-adv-x="494" d="M283 213q-46 0 -80 -18t-40 -54t22 -54t74 -18q44 0 77.5 20.5t43.5 59.5h101q-18 -78 -85.5 -119.5t-154.5 -41.5q-84 0 -138 38.5t-42 112.5q14 80 100 116q-60 35 -47 110q12 72 75 109.5t143 37.5q83 0 131 -40.5t42 -118.5h-99q3 39 -20.5 58.5t-64.5 19.5 q-40 0 -70 -16.5t-36 -52.5t18.5 -52.5t64.5 -16.5h44l-13 -80h-46z" />
<glyph unicode="&#x268;" horiz-adv-x="237" d="M169 662q4 26 24.5 43.5t46.5 17.5t40.5 -17.5t10.5 -43.5t-24.5 -43.5t-46.5 -17.5t-40.5 17.5t-10.5 43.5zM68 0l53 316h-51l11 68h51l20 116h101l-20 -116h51l-11 -68h-51l-53 -316h-101z" />
<glyph unicode="&#x272;" horiz-adv-x="573" d="M214 268l-55 -328q-11 -70 -52.5 -108t-108.5 -38q-29 0 -53 5l15 85q15 -3 32 -3q56 0 67 64l93 555h101l-13 -74q66 86 174 86q180 0 145 -212l-50 -300h-101l50 297q11 64 -8 93.5t-73 29.5q-62 0 -106.5 -40.5t-56.5 -111.5z" />
<glyph unicode="&#x289;" horiz-adv-x="612" d="M462 232l14 84h-239l-19 -113q-11 -64 7.5 -93.5t72.5 -29.5q62 0 107 40.5t57 111.5zM147 384l20 116h101l-20 -116h239l20 116h101l-20 -116h51l-11 -68h-51l-53 -316h-101l12 74q-66 -86 -173 -86q-182 0 -146 212l20 116h-51l11 68h51z" />
<glyph unicode="&#x2bb;" horiz-adv-x="228" d="M307 700l-83 -240h-110l110 240h83z" />
<glyph unicode="&#x2bc;" horiz-adv-x="228" d="M114 460l83 240h110l-110 -240h-83z" />
<glyph unicode="&#x2c6;" horiz-adv-x="377" d="M364 716l83 -143h-89l-58 99l-90 -99h-89l131 143h112z" />
<glyph unicode="&#x2c7;" horiz-adv-x="377" d="M382 716h89l-131 -143h-112l-83 143h89l57 -99z" />
<glyph unicode="&#x2c9;" horiz-adv-x="335" d="M406 582h-284l12 71h284z" />
<glyph unicode="&#x2d8;" horiz-adv-x="367" d="M145 716h73q-6 -35 13.5 -57t58.5 -22t65.5 22t32.5 57h73q-11 -64 -60.5 -104.5t-121.5 -40.5t-108.5 40.5t-25.5 104.5z" />
<glyph unicode="&#x2d9;" horiz-adv-x="165" d="M131 633q4 24 23 40.5t43 16.5t38 -16.5t10 -40.5t-23.5 -40.5t-43.5 -16.5t-37.5 16.5t-9.5 40.5z" />
<glyph unicode="&#x2da;" horiz-adv-x="265" d="M136 663q8 45 43.5 75t81.5 30t71.5 -30t17.5 -75t-43.5 -75t-81.5 -30t-71.5 30t-17.5 75zM295 663q4 22 -8 37.5t-35 15.5t-40 -15.5t-21 -37.5t8 -37.5t35 -15.5t40 15.5t21 37.5z" />
<glyph unicode="&#x2db;" horiz-adv-x="207" d="M153 -168l-9 -56q-23 -11 -58 -11q-44 0 -67.5 25t-16.5 68q16 95 148 166l31 -24q-34 -24 -66 -60.5t-38 -71.5q-8 -44 34 -44q24 0 42 8z" />
<glyph unicode="&#x2dc;" horiz-adv-x="363" d="M176 572h-55q9 45 38 75.5t74 30.5q24 0 62.5 -13t57.5 -13q34 0 44 38h55q-9 -45 -38 -75.5t-74 -30.5q-24 0 -62.5 13t-57.5 13q-34 0 -44 -38z" />
<glyph unicode="&#x2dd;" horiz-adv-x="404" d="M327 715l-135 -142h-71l95 142h111zM498 715l-135 -142h-71l95 142h111z" />
<glyph unicode="&#x300;" horiz-adv-x="0" d="M-367 915h117l59 -142h-77z" />
<glyph unicode="&#x301;" horiz-adv-x="0" d="M-43 915l-147 -142h-77l107 142h117z" />
<glyph unicode="&#x302;" horiz-adv-x="0" d="M-149 916l83 -143h-89l-57 99l-91 -99h-89l131 143h112z" />
<glyph unicode="&#x303;" horiz-adv-x="0" d="M-330 772h-55q10 45 39 75.5t74 30.5q24 0 62.5 -13t57.5 -13q32 0 44 38h55q-9 -45 -38.5 -75.5t-74.5 -30.5q-24 0 -62 13t-57 13q-33 0 -45 -38z" />
<glyph unicode="&#x304;" horiz-adv-x="0" d="M-85 782h-284l12 71h284z" />
<glyph unicode="&#x306;" horiz-adv-x="0" d="M-363 916h73q-5 -35 14 -57t58 -22t66 22t32 57h73q-11 -64 -60.5 -104.5t-121.5 -40.5t-108.5 40.5t-25.5 104.5z" />
<glyph unicode="&#x307;" horiz-adv-x="0" d="M-276 833q5 24 24 40.5t43 16.5t37.5 -16.5t9.5 -40.5t-23 -40.5t-43 -16.5t-38 16.5t-10 40.5z" />
<glyph unicode="&#x308;" horiz-adv-x="0" d="M-368 832q5 24 23.5 40t42.5 16t37 -16t9 -40t-22.5 -40t-42.5 -16t-37.5 16t-9.5 40zM-182 832q5 24 23.5 40t42.5 16t37 -16t9 -40t-22.5 -40t-42.5 -16t-37.5 16t-9.5 40z" />
<glyph unicode="&#x309;" horiz-adv-x="0" d="M-229 819q4 26 -12 40t-47 14q-14 0 -29 -3l9 59q20 4 42 4q59 0 89 -29t22 -76q-6 -40 -39 -65h-72q32 24 37 56z" />
<glyph unicode="&#x30a;" horiz-adv-x="0" d="M-321 863q8 45 43.5 75t81.5 30t71.5 -30t17.5 -75q-7 -44 -42.5 -74.5t-81.5 -30.5t-71.5 30t-18.5 75zM-162 863q4 22 -8 37.5t-35 15.5t-40 -15.5t-21 -37.5q-3 -22 9 -37.5t35 -15.5t40 15.5t20 37.5z" />
<glyph unicode="&#x30b;" horiz-adv-x="0" d="M-144 915l-135 -142h-71l95 142h111zM27 915l-135 -142h-71l95 142h111z" />
<glyph unicode="&#x30c;" horiz-adv-x="0" d="M-131 916h89l-131 -143h-112l-83 143h89l58 -99z" />
<glyph unicode="&#x30f;" horiz-adv-x="0" d="M-266 915h111l47 -142h-71zM-437 915h111l47 -142h-71z" />
<glyph unicode="&#x311;" horiz-adv-x="0" d="M-314 771h-73q11 64 60.5 104.5t121.5 40.5t108.5 -40.5t25.5 -104.5h-73q6 35 -13.5 57t-58.5 22t-65.5 -22t-32.5 -57z" />
<glyph unicode="&#x312;" horiz-adv-x="0" d="M-132 922l-50 -147h-92l67 147h75z" />
<glyph unicode="&#x323;" horiz-adv-x="0" d="M-323 -133q-5 -24 -24 -40.5t-43 -16.5t-37.5 16.5t-9.5 40.5t23 40.5t43 16.5t38 -16.5t10 -40.5z" />
<glyph unicode="&#x324;" horiz-adv-x="0" d="M-231 -132q-4 -24 -22.5 -40t-42.5 -16t-37.5 16t-9.5 40t22.5 40t42.5 16t37.5 -16t9.5 -40zM-417 -132q-4 -24 -22.5 -40t-42.5 -16t-37.5 16t-9.5 40t22.5 40t42.5 16t37.5 -16t9.5 -40z" />
<glyph unicode="&#x326;" horiz-adv-x="0" d="M-467 -219l51 147h92l-68 -147h-75z" />
<glyph unicode="&#x327;" horiz-adv-x="0" d="M-426 -86l-13 28l38 68h54l-28 -50h16q45 0 69.5 -24.5t17.5 -65.5q-8 -47 -47 -76t-98 -29q-39 0 -84 17l10 60q38 -19 75 -19q31 0 52 13.5t25 35.5q3 21 -8.5 31.5t-39.5 10.5h-39z" />
<glyph unicode="&#x328;" horiz-adv-x="0" d="M-308 -168l-9 -56q-23 -11 -58 -11q-44 0 -67.5 25t-16.5 68q16 95 148 166l31 -24q-34 -24 -66 -60.5t-38 -71.5q-8 -44 34 -44q24 0 42 8z" />
<glyph unicode="&#x32d;" horiz-adv-x="0" d="M-314 -73l83 -143h-89l-58 99l-90 -99h-89l131 143h112z" />
<glyph unicode="&#x32e;" horiz-adv-x="0" d="M-285 -71h73q-11 -64 -60.5 -104.5t-121.5 -40.5t-108.5 40.5t-25.5 104.5h73q-6 -35 13.5 -57t58.5 -22t65.5 22t32.5 57z" />
<glyph unicode="&#x330;" horiz-adv-x="0" d="M-491 -190h-55q10 45 39 75.5t74 30.5q24 0 62.5 -13t57.5 -13q32 0 44 38h55q-9 -45 -38.5 -75.5t-74.5 -30.5q-24 0 -62 13t-57 13q-33 0 -45 -38z" />
<glyph unicode="&#x331;" horiz-adv-x="0" d="M-243 -162h-284l12 71h284z" />
<glyph unicode="&#x344;" horiz-adv-x="0" d="M-122 915l-115 -142h-57l75 142h97zM-414 832q5 24 23.5 40t42.5 16t37 -16t9 -40t-22.5 -40t-42.5 -16t-37.5 16t-9.5 40zM-136 832q5 24 23.5 40t42.5 16t37 -16t9 -40t-22.5 -40t-42.5 -16t-37.5 16t-9.5 40z" />
<glyph unicode="&#x37e;" horiz-adv-x="274" d="M153 446q4 28 25.5 46t48.5 18t42.5 -18t11.5 -46q-5 -28 -26.5 -46t-48.5 -18t-42.5 18.5t-10.5 45.5zM38 -133l83 240h110l-110 -240h-83z" />
<glyph unicode="&#x384;" horiz-adv-x="209" d="M303 715l-115 -142h-67l75 142h107z" />
<glyph unicode="&#x385;" horiz-adv-x="441" d="M423 715l-115 -142h-57l75 142h97zM131 632q4 24 22.5 40t42.5 16t37.5 -16t9.5 -40q-5 -24 -23.5 -40t-42.5 -16t-37 16t-9 40zM409 632q4 24 22.5 40t42.5 16t37.5 -16t9.5 -40q-5 -24 -23.5 -40t-42.5 -16t-37 16t-9 40z" />
<glyph unicode="&#x386;" horiz-adv-x="664" d="M443 670l-198 -408h262l-62 408h-2zM118 0h-111l350 700h184l116 -700h-111l-25 166h-322zM205 700h107l-115 -142h-67z" />
<glyph unicode="&#x387;" horiz-adv-x="223" d="M95 284q4 28 25.5 46t48.5 18t42.5 -18t11.5 -46q-5 -28 -26.5 -46t-48.5 -18t-42.5 18.5t-10.5 45.5z" />
<glyph unicode="&#x388;" horiz-adv-x="612" d="M237 309l-36 -214h380l-16 -95h-485l117 700h473l-16 -95h-368l-34 -204h344l-15 -92h-344zM172 700l-115 -142h-67l75 142h107z" />
<glyph unicode="&#x389;" horiz-adv-x="714" d="M80 0l117 700h105l-49 -296h340l49 296h105l-117 -700h-105l52 308h-340l-52 -308h-105zM172 700l-115 -142h-67l75 142h107z" />
<glyph unicode="&#x38a;" horiz-adv-x="268" d="M80 0l117 700h105l-117 -700h-105zM172 700l-115 -142h-67l75 142h107z" />
<glyph unicode="&#x38c;" horiz-adv-x="678" d="M35 350q12 70 42 133.5t77 115.5t117.5 82.5t154.5 30.5q67 0 120 -20t84.5 -55t51 -81t21 -98.5t-5.5 -107.5q-12 -71 -42.5 -134t-77.5 -115t-117.5 -82.5t-154.5 -30.5q-67 0 -120 20t-84.5 55t-51 81t-20.5 98.5t6 107.5zM174 700l-115 -142h-67l75 142h107zM592 350 q18 110 -26 187t-156 77t-182 -77t-88 -187q-19 -110 25 -187t156 -77t182 77t89 187z" />
<glyph unicode="&#x38e;" horiz-adv-x="672" d="M316 275l-140 425h113l121 -395h1l253 395h113l-282 -425h-37l-46 -275h-105l46 275h-37zM170 700l-115 -142h-67l75 142h107z" />
<glyph unicode="&#x38f;" horiz-adv-x="693" d="M51 355q12 69 42 131t77 113.5t117.5 82t154.5 30.5q67 0 120 -20t84.5 -54.5t51 -80.5t21 -97t-5.5 -105q-30 -182 -173 -260h130l-16 -95h-254l16 95q78 27 128 97.5t64 157.5q19 110 -25.5 187t-156.5 77t-181.5 -77t-88.5 -187q-15 -88 10.5 -158t95.5 -97l-16 -95 h-254l16 95h130q-117 78 -87 260zM190 700l-115 -142h-67l75 142h107z" />
<glyph unicode="&#x390;" horiz-adv-x="278" d="M322 715l-115 -142h-57l75 142h97zM30 632q4 24 22.5 40t42.5 16t37.5 -16t9.5 -40q-5 -24 -23.5 -40t-42.5 -16t-37 16t-9 40zM308 632q4 24 22.5 40t42.5 16t37.5 -16t9.5 -40q-5 -24 -23.5 -40t-42.5 -16t-37 16t-9 40zM253 500l-60 -356q-11 -66 47 -66q16 0 34 3 l-15 -86q-32 -7 -62 -7q-62 0 -90 38t-17 104l62 370h101z" />
<glyph unicode="&#x391;" horiz-adv-x="664" d="M443 670l-198 -408h262l-62 408h-2zM118 0h-111l350 700h184l116 -700h-111l-25 166h-322z" />
<glyph unicode="&#x392;" horiz-adv-x="676" d="M431 322h-189l-39 -230h189q151 0 171 115q10 61 -28 88t-104 27zM462 608h-172l-34 -204h172q133 0 150 102q9 54 -24.5 78t-91.5 24zM377 0h-294l117 700h277q48 0 87 -9t70.5 -29.5t45 -58t4.5 -90.5q-15 -94 -107 -143q109 -50 89 -170q-12 -73 -58 -119.5 t-103.5 -63.5t-127.5 -17z" />
<glyph unicode="&#x393;" horiz-adv-x="555" d="M188 0h-105l117 700h460l-16 -96h-355z" />
<glyph unicode="&#x394;" horiz-adv-x="664" d="M7 0l350 700h184l116 -700h-650zM165 96h366l-86 574h-2z" />
<glyph unicode="&#x395;" horiz-adv-x="615" d="M240 309l-36 -214h380l-16 -95h-485l117 700h473l-16 -95h-368l-34 -204h344l-15 -92h-344z" />
<glyph unicode="&#x396;" horiz-adv-x="599" d="M675 700l-18 -110l-483 -494h406l-16 -96h-529l18 110l483 494h-390l16 96h513z" />
<glyph unicode="&#x397;" horiz-adv-x="717" d="M83 0l117 700h105l-49 -296h340l49 296h105l-117 -700h-105l52 308h-340l-52 -308h-105z" />
<glyph unicode="&#x398;" horiz-adv-x="741" d="M98 350q12 70 42 133.5t77 115.5t117.5 82.5t154.5 30.5q67 0 120 -20t84.5 -55t51 -81t21 -98.5t-5.5 -107.5q-12 -71 -42.5 -134t-77.5 -115t-117.5 -82.5t-154.5 -30.5q-67 0 -120 20t-84.5 55t-51 81t-20.5 98.5t6 107.5zM655 350q18 110 -26 187t-156 77t-182 -77 t-88 -187q-19 -110 25 -187t156 -77t182 77t89 187zM302 314l12 72h242l-12 -72h-242z" />
<glyph unicode="&#x399;" horiz-adv-x="272" d="M83 0l117 700h105l-117 -700h-105z" />
<glyph unicode="&#x39a;" horiz-adv-x="627" d="M305 700l-57 -340l353 340h131l-363 -350l261 -350h-134l-251 338l-57 -338h-105l117 700h105z" />
<glyph unicode="&#x39b;" horiz-adv-x="614" d="M7 0l325 700h184l91 -700h-111l-76 670h-2l-300 -670h-111z" />
<glyph unicode="&#x39c;" horiz-adv-x="907" d="M394 700l63 -670h2l287 670h194l-117 -700h-105l112 670h-2l-287 -670h-176l-63 670h-2l-112 -670h-105l117 700h194z" />
<glyph unicode="&#x39d;" horiz-adv-x="752" d="M396 700l170 -670h2l112 670h105l-117 -700h-196l-170 670h-2l-112 -670h-105l117 700h196z" />
<glyph unicode="&#x39e;" horiz-adv-x="578" d="M147 605l16 95h485l-16 -95h-485zM158 309l15 92h365l-15 -92h-365zM46 0l16 95h485l-16 -95h-485z" />
<glyph unicode="&#x39f;" horiz-adv-x="741" d="M98 350q12 70 42 133.5t77 115.5t117.5 82.5t154.5 30.5q67 0 120 -20t84.5 -55t51 -81t21 -98.5t-5.5 -107.5q-12 -71 -42.5 -134t-77.5 -115t-117.5 -82.5t-154.5 -30.5q-67 0 -120 20t-84.5 55t-51 81t-20.5 98.5t6 107.5zM655 350q18 110 -26 187t-156 77t-182 -77 t-88 -187q-19 -110 25 -187t156 -77t182 77t89 187z" />
<glyph unicode="&#x3a0;" horiz-adv-x="717" d="M83 0l117 700h550l-117 -700h-105l101 604h-340l-101 -604h-105z" />
<glyph unicode="&#x3a1;" horiz-adv-x="641" d="M466 605h-177l-46 -276h177q60 0 105.5 39t55.5 99t-22.5 99t-92.5 39zM407 234h-180l-39 -234h-105l117 700h285q104 0 161 -66t40 -167t-96 -167t-183 -66z" />
<glyph unicode="&#x3a3;" horiz-adv-x="579" d="M52 0l14 85l245 275l-156 255l14 85h480l-16 -95h-346l148 -245l-234 -265h347l-16 -95h-480z" />
<glyph unicode="&#x3a4;" horiz-adv-x="582" d="M444 604l-101 -604h-105l101 604h-217l16 96h539l-16 -96h-217z" />
<glyph unicode="&#x3a5;" horiz-adv-x="626" d="M269 275l-140 425h113l121 -395h1l253 395h113l-282 -425h-37l-46 -275h-105l46 275h-37z" />
<glyph unicode="&#x3a6;" horiz-adv-x="820" d="M193 350q-14 -80 35 -138t155 -58l65 392q-106 0 -174 -58t-81 -138zM744 350q13 80 -36.5 138t-154.5 58l-65 -392q105 0 173.5 58t82.5 138zM849 350q-20 -118 -121 -204.5t-256 -86.5l-13 -79h-105l13 79q-105 0 -174 43t-93.5 108t-11.5 140q20 118 120.5 204.5 t255.5 86.5l13 79h105l-13 -79q105 0 174 -43t93.5 -108t12.5 -140z" />
<glyph unicode="&#x3a7;" horiz-adv-x="612" d="M696 700l-226 -334l130 -366h-116l-118 351h-2l-236 -351h-116l252 366l-114 334h114l105 -319h2l211 319h114z" />
<glyph unicode="&#x3a8;" horiz-adv-x="793" d="M344 0l31 185q-126 2 -194 73.5t-47 192.5l42 249h105l-42 -249q-13 -79 29.5 -124t122.5 -47l70 420h105l-70 -420q80 2 137.5 47t70.5 124l42 249h105l-42 -249q-21 -121 -112 -192.5t-217 -73.5l-31 -185h-105z" />
<glyph unicode="&#x3a9;" horiz-adv-x="740" d="M98 355q12 69 42 131t77 113.5t117.5 82t154.5 30.5q67 0 120 -20t84.5 -54.5t51 -80.5t21 -97t-5.5 -105q-30 -182 -173 -260h130l-16 -95h-254l16 95q78 27 128 97.5t64 157.5q19 110 -25.5 187t-156.5 77t-181.5 -77t-88.5 -187q-15 -88 10.5 -158t95.5 -97l-16 -95 h-254l16 95h130q-117 78 -87 260z" />
<glyph unicode="&#x3aa;" horiz-adv-x="271" d="M126 832q5 24 23.5 40t42.5 16t37 -16t9 -40t-22.5 -40t-42.5 -16t-37.5 16t-9.5 40zM312 832q5 24 23.5 40t42.5 16t37 -16t9 -40t-22.5 -40t-42.5 -16t-37.5 16t-9.5 40zM83 0l117 700h105l-117 -700h-105z" />
<glyph unicode="&#x3ab;" horiz-adv-x="625" d="M303 832q5 24 23.5 40t42.5 16t37 -16t9 -40t-22.5 -40t-42.5 -16t-37.5 16t-9.5 40zM489 832q5 24 23.5 40t42.5 16t37 -16t9 -40t-22.5 -40t-42.5 -16t-37.5 16t-9.5 40zM269 275l-140 425h113l121 -395h1l253 395h113l-282 -425h-37l-46 -275h-105l46 275h-37z" />
<glyph unicode="&#x3ac;" horiz-adv-x="650" d="M482 250q12 72 -18 121.5t-104 49.5q-75 0 -120.5 -49.5t-57.5 -121.5t17 -121.5t104 -49.5q74 0 120.5 49.5t58.5 121.5zM524 500h101l-60 -356q-11 -66 47 -66q16 0 34 3l-15 -86q-32 -7 -62 -7q-96 0 -109 88q-76 -88 -190 -88q-62 0 -105 23.5t-61.5 61t-26 84.5 t3.5 93q8 49 28 93.5t53 83.5t83.5 62t112.5 23q106 0 155 -78zM428 715h107l-115 -142h-67z" />
<glyph unicode="&#x3ad;" horiz-adv-x="494" d="M491 715l-115 -142h-67l75 142h107zM283 213q-46 0 -80 -18t-40 -54t22 -54t74 -18q44 0 77.5 20.5t43.5 59.5h101q-18 -78 -85.5 -119.5t-154.5 -41.5q-84 0 -138 38.5t-42 112.5q14 80 100 116q-60 35 -47 110q12 72 75 109.5t143 37.5q83 0 131 -40.5t42 -118.5h-99 q3 39 -20.5 58.5t-64.5 19.5q-40 0 -70 -16.5t-36 -52.5t18.5 -52.5t64.5 -16.5h44l-13 -80h-46z" />
<glyph unicode="&#x3ae;" horiz-adv-x="572" d="M534 715l-115 -142h-67l75 142h107zM476 -195h-101l83 492q11 64 -8 93.5t-73 29.5q-62 0 -106.5 -40.5t-56.5 -111.5l-45 -268h-101l84 500h101l-13 -74q66 86 174 86q180 0 145 -212z" />
<glyph unicode="&#x3af;" horiz-adv-x="278" d="M364 715l-115 -142h-67l75 142h107zM253 500l-60 -356q-11 -66 47 -66q16 0 34 3l-15 -86q-32 -7 -62 -7q-62 0 -90 38t-17 104l62 370h101z" />
<glyph unicode="&#x3b0;" horiz-adv-x="566" d="M486 715l-115 -142h-57l75 142h97zM194 632q4 24 22.5 40t42.5 16t37.5 -16t9.5 -40q-5 -24 -23.5 -40t-42.5 -16t-37 16t-9 40zM472 632q4 24 22.5 40t42.5 16t37.5 -16t9.5 -40q-5 -24 -23.5 -40t-42.5 -16t-37 16t-9 40zM296 80q56 0 93.5 34t46.5 89l50 297h101 l-51 -300q-16 -95 -84 -153.5t-171 -58.5q-104 0 -152.5 59t-32.5 153l51 300h101l-50 -297q-9 -55 16.5 -89t81.5 -34z" />
<glyph unicode="&#x3b1;" horiz-adv-x="650" d="M482 250q12 72 -18 121.5t-104 49.5q-75 0 -120.5 -49.5t-57.5 -121.5t17 -121.5t104 -49.5q74 0 120.5 49.5t58.5 121.5zM524 500h101l-60 -356q-11 -66 47 -66q16 0 34 3l-15 -86q-32 -7 -62 -7q-96 0 -109 88q-76 -88 -190 -88q-62 0 -105 23.5t-61.5 61t-26 84.5 t3.5 93q8 49 28 93.5t53 83.5t83.5 62t112.5 23q106 0 155 -78z" />
<glyph unicode="&#x3b2;" horiz-adv-x="601" d="M349 328l13 78q56 0 99 31t52 82q8 47 -21 75t-80 28q-69 0 -111.5 -47.5t-54.5 -122.5l-61 -362h124q78 0 128 33t58 86q9 53 -29.5 86t-116.5 33zM170 0l-33 -195h-101l109 647q19 114 91.5 187t190.5 73q93 0 146.5 -51t39.5 -136q-16 -99 -111 -147q55 -24 79 -69.5 t14 -104.5q-15 -90 -95 -147t-206 -57h-124z" />
<glyph unicode="&#x3b3;" horiz-adv-x="520" d="M597 500l-247 -500h-39l-33 -195h-101l33 195h-40l-79 500h106l66 -475h2l226 475h106z" />
<glyph unicode="&#x3b4;" horiz-adv-x="581" d="M480 235q12 65 -18.5 111t-104.5 46t-119.5 -45.5t-57.5 -111.5q-11 -65 19.5 -111t104.5 -46t119.5 46t56.5 111zM194 612l15 88h410l-15 -88h-237q115 -79 173 -176t41 -201q-17 -102 -92.5 -174.5t-199.5 -72.5t-175.5 72.5t-34.5 174.5q17 101 91 173.5t191 72.5 q18 0 26 -1q-74 77 -193 132z" />
<glyph unicode="&#x3b5;" horiz-adv-x="494" d="M283 213q-46 0 -80 -18t-40 -54t22 -54t74 -18q44 0 77.5 20.5t43.5 59.5h101q-18 -78 -85.5 -119.5t-154.5 -41.5q-84 0 -138 38.5t-42 112.5q14 80 100 116q-60 35 -47 110q12 72 75 109.5t143 37.5q83 0 131 -40.5t42 -118.5h-99q3 39 -20.5 58.5t-64.5 19.5 q-40 0 -70 -16.5t-36 -52.5t18.5 -52.5t64.5 -16.5h44l-13 -80h-46z" />
<glyph unicode="&#x3b6;" horiz-adv-x="497" d="M293 -12q-64 0 -110.5 21t-68.5 55.5t-31.5 79t0.5 90.5q17 103 105 199.5t224 175.5h-246l15 91h410l-15 -88q-164 -78 -269 -174.5t-122 -199.5q-12 -67 20.5 -113t114.5 -46q53 0 103 17l39 -58l-29 -178h-99l22 136q-27 -8 -63 -8z" />
<glyph unicode="&#x3b7;" horiz-adv-x="573" d="M476 -195h-101l83 492q11 64 -8 93.5t-73 29.5q-62 0 -106.5 -40.5t-56.5 -111.5l-45 -268h-101l84 500h101l-13 -74q66 86 174 86q180 0 145 -212z" />
<glyph unicode="&#x3b8;" horiz-adv-x="581" d="M492 314h-298q-30 -234 109 -234t189 234zM206 386h298q28 234 -110 234q-71 0 -118 -62t-70 -172zM98 350q27 163 105.5 262.5t205.5 99.5q86 0 136 -48.5t60 -128.5t-5 -185q-28 -164 -106.5 -263t-205.5 -99q-65 0 -109.5 27.5t-65 76.5t-25.5 115t10 143z" />
<glyph unicode="&#x3b9;" horiz-adv-x="278" d="M253 500l-60 -356q-11 -66 47 -66q16 0 34 3l-15 -86q-32 -7 -62 -7q-62 0 -90 38t-17 104l62 370h101z" />
<glyph unicode="&#x3ba;" horiz-adv-x="525" d="M253 500l-41 -242l255 242h122l-265 -250l196 -250h-127l-185 236l-39 -236h-101l84 500h101z" />
<glyph unicode="&#x3bb;" horiz-adv-x="530" d="M518 0h-105l-68 475h-2l-226 -475h-105l244 500h86l-30 210h104z" />
<glyph unicode="&#x3bc;" horiz-adv-x="574" d="M31 -195l117 695h101l-50 -297q-11 -64 7.5 -93.5t72.5 -29.5q62 0 107 40.5t57 111.5l45 268h101l-84 -500h-101l12 74q-66 -86 -173 -86q-45 0 -78 14l-33 -197h-101z" />
<glyph unicode="&#x3bd;" horiz-adv-x="520" d="M597 500l-247 -500h-180l-79 500h106l66 -475h2l226 475h106z" />
<glyph unicode="&#x3be;" horiz-adv-x="500" d="M344 78q64 0 115 17l39 -57l-30 -180h-99l23 138q-27 -8 -63 -8q-139 0 -198 56.5t-43 150.5q8 49 32 86t55 57t47 27t30 11q-3 0 -13 4t-26 15t-29 27t-20 43.5t-1 61.5q13 77 84 131t173 54q110 0 157 -50l-68 -73q-40 33 -104 33q-60 0 -97 -28t-45 -74 q-7 -45 21.5 -72.5t96.5 -27.5h104l-15 -89h-104q-74 0 -120.5 -36t-55.5 -93q-10 -56 28 -90t126 -34z" />
<glyph unicode="&#x3bf;" horiz-adv-x="580" d="M81 250q18 108 94.5 185t200.5 77q64 0 110 -22.5t68 -59.5t31 -84t-2 -96q-18 -108 -94.5 -185t-200.5 -77q-64 0 -110 22.5t-68 59.5t-31 84t2 96zM482 250q12 71 -18 120.5t-104 49.5t-120 -49.5t-58 -120.5t17 -120.5t104 -49.5q74 0 120.5 49.5t58.5 120.5z" />
<glyph unicode="&#x3c0;" horiz-adv-x="660" d="M191 408h-91l16 92h595l-16 -92h-91l-44 -264q-11 -66 47 -66q16 0 34 3l-15 -86q-32 -7 -62 -7q-62 0 -90 38t-17 104l46 278h-211l-68 -408h-101z" />
<glyph unicode="&#x3c1;" horiz-adv-x="611" d="M212 250q-12 -72 17 -121.5t104 -49.5q74 0 120.5 49.5t58.5 121.5t-18 121.5t-104 49.5q-75 0 -120.5 -49.5t-57.5 -121.5zM181 66l-44 -261h-101l75 445q18 109 94 185.5t201 76.5q64 0 110.5 -22.5t68 -59t30.5 -83.5t-2 -97q-8 -49 -28.5 -93.5t-53 -83.5t-83 -62 t-112.5 -23q-108 0 -155 78z" />
<glyph unicode="&#x3c2;" horiz-adv-x="562" d="M303 80q65 0 115 17l39 -59l-29 -178h-99l22 136q-27 -8 -63 -8q-64 0 -110 22.5t-68 59.5t-31 84t2 96q18 108 94.5 185t200.5 77q104 0 152 -53t48 -140h-103q-7 101 -113 101q-74 0 -120 -49.5t-58 -120.5t17 -120.5t104 -49.5z" />
<glyph unicode="&#x3c3;" horiz-adv-x="586" d="M481 244q12 69 -18.5 117t-104.5 48t-119.5 -48t-57.5 -117t18 -117t104 -48t120 48t58 117zM80 244q17 105 93.5 180.5t200.5 75.5h296l-16 -91h-104q48 -72 32 -165q-18 -106 -94 -181t-200 -75t-175 75t-33 181z" />
<glyph unicode="&#x3c4;" horiz-adv-x="465" d="M535 500l-16 -91h-168l-44 -265q-11 -66 47 -66q16 0 34 3l-15 -86q-32 -7 -62 -7q-62 0 -90 38t-17 104l46 279h-168l16 91h437z" />
<glyph unicode="&#x3c5;" horiz-adv-x="568" d="M297 80q56 0 93.5 34t46.5 89l50 297h101l-51 -300q-16 -95 -84 -153.5t-171 -58.5q-104 0 -152.5 59t-32.5 153l51 300h101l-50 -297q-9 -55 16.5 -89t81.5 -34z" />
<glyph unicode="&#x3c6;" horiz-adv-x="742" d="M491 420l-57 -340q85 0 141.5 50.5t67.5 119.5t-28 119.5t-124 50.5zM292 494l23 -86q-54 -20 -89 -63t-44 -95q-11 -69 27.5 -119.5t123.5 -50.5l104 620h101l-31 -188q133 0 194 -78t43 -184t-105 -184t-220 -78l-31 -183h-101l31 183q-133 0 -194 78t-43 184 q13 80 69 147.5t142 96.5z" />
<glyph unicode="&#x3c7;" horiz-adv-x="510" d="M205 257l-95 243h109l80 -232h2l158 232h109l-177 -243l107 -257h-112l-89 246h-2l-171 -246h-112z" />
<glyph unicode="&#x3c8;" horiz-adv-x="742" d="M786 500l-42 -250q-18 -106 -105 -184t-220 -78l-31 -183h-101l31 183q-133 0 -194 78t-43 184l42 250h101l-42 -250q-11 -69 27.5 -119.5t123.5 -50.5l104 620h101l-104 -620q85 0 141.5 50.5t67.5 119.5l42 250h101z" />
<glyph unicode="&#x3c9;" horiz-adv-x="819" d="M413 320h100l-14 -80q-14 -79 10 -119.5t71 -40.5q45 0 79.5 37t46.5 111q11 63 -3.5 115t-53.5 82l70 75q58 -42 80 -113t8 -159q-20 -119 -86.5 -179.5t-153.5 -60.5q-110 0 -144 97q-66 -97 -176 -97q-87 0 -133.5 61t-26.5 179q14 87 60.5 158.5t119.5 113.5l44 -75 q-100 -62 -123 -197q-12 -74 9.5 -111t66.5 -37q47 0 84 40.5t51 119.5z" />
<glyph unicode="&#x3ca;" horiz-adv-x="278" d="M76 632q4 24 22.5 40t42.5 16t37.5 -16t9.5 -40q-5 -24 -23.5 -40t-42.5 -16t-37 16t-9 40zM262 632q4 24 22.5 40t42.5 16t37.5 -16t9.5 -40q-5 -24 -23.5 -40t-42.5 -16t-37 16t-9 40zM253 500l-60 -356q-11 -66 47 -66q16 0 34 3l-15 -86q-32 -7 -62 -7q-62 0 -90 38 t-17 104l62 370h101z" />
<glyph unicode="&#x3cb;" horiz-adv-x="566" d="M240 632q4 24 22.5 40t42.5 16t37.5 -16t9.5 -40q-5 -24 -23.5 -40t-42.5 -16t-37 16t-9 40zM426 632q4 24 22.5 40t42.5 16t37.5 -16t9.5 -40q-5 -24 -23.5 -40t-42.5 -16t-37 16t-9 40zM296 80q56 0 93.5 34t46.5 89l50 297h101l-51 -300q-16 -95 -84 -153.5 t-171 -58.5q-104 0 -152.5 59t-32.5 153l51 300h101l-50 -297q-9 -55 16.5 -89t81.5 -34z" />
<glyph unicode="&#x3cc;" horiz-adv-x="580" d="M535 715l-115 -142h-67l75 142h107zM81 250q18 108 94.5 185t200.5 77q64 0 110 -22.5t68 -59.5t31 -84t-2 -96q-18 -108 -94.5 -185t-200.5 -77q-64 0 -110 22.5t-68 59.5t-31 84t2 96zM482 250q12 71 -18 120.5t-104 49.5t-120 -49.5t-58 -120.5t17 -120.5t104 -49.5 q74 0 120.5 49.5t58.5 120.5z" />
<glyph unicode="&#x3cd;" horiz-adv-x="566" d="M528 715l-115 -142h-67l75 142h107zM296 80q56 0 93.5 34t46.5 89l50 297h101l-51 -300q-16 -95 -84 -153.5t-171 -58.5q-104 0 -152.5 59t-32.5 153l51 300h101l-50 -297q-9 -55 16.5 -89t81.5 -34z" />
<glyph unicode="&#x3ce;" horiz-adv-x="818" d="M654 715l-115 -142h-67l75 142h107zM413 320h100l-14 -80q-14 -79 10 -119.5t71 -40.5q45 0 79.5 37t46.5 111q11 63 -3.5 115t-53.5 82l70 75q58 -42 80 -113t8 -159q-20 -119 -86.5 -179.5t-153.5 -60.5q-110 0 -144 97q-66 -97 -176 -97q-87 0 -133.5 61t-26.5 179 q14 87 60.5 158.5t119.5 113.5l44 -75q-100 -62 -123 -197q-12 -74 9.5 -111t66.5 -37q47 0 84 40.5t51 119.5z" />
<glyph unicode="&#x400;" horiz-adv-x="615" d="M317 915h117l59 -142h-77zM240 309l-36 -214h380l-16 -95h-485l117 700h473l-16 -95h-368l-34 -204h344l-15 -92h-344z" />
<glyph unicode="&#x401;" horiz-adv-x="615" d="M316 832q5 24 23.5 40t42.5 16t37 -16t9 -40t-22.5 -40t-42.5 -16t-37.5 16t-9.5 40zM502 832q5 24 23.5 40t42.5 16t37 -16t9 -40t-22.5 -40t-42.5 -16t-37.5 16t-9.5 40zM240 309l-36 -214h380l-16 -95h-485l117 700h473l-16 -95h-368l-34 -204h344l-15 -92h-344z" />
<glyph unicode="&#x402;" horiz-adv-x="816" d="M790 223q-19 -114 -94 -174.5t-198 -60.5l16 94q148 0 171 141q12 67 -14.5 105t-106.5 38q-78 0 -165 -34l-56 -332h-105l101 605h-217l16 95h539l-16 -95h-217l-29 -175q89 31 168 31q120 0 173 -61t34 -177z" />
<glyph unicode="&#x403;" horiz-adv-x="555" d="M628 915l-147 -142h-77l107 142h117zM188 0h-105l117 700h460l-16 -96h-355z" />
<glyph unicode="&#x404;" horiz-adv-x="714" d="M384 85q160 0 224 160h107q-39 -116 -127 -186.5t-220 -70.5q-67 0 -120 20t-84.5 55t-51 81t-20.5 98.5t6 107.5q12 70 42 133.5t77 115.5t117.5 82.5t154.5 30.5q132 0 196 -70.5t65 -186.5h-107q-9 160 -170 160q-100 0 -166 -61.5t-94 -156.5h301l-15 -94h-301 q-5 -95 40.5 -156.5t145.5 -61.5z" />
<glyph unicode="&#x405;" horiz-adv-x="614" d="M72 203h105q-4 -60 36.5 -91.5t106.5 -31.5q69 0 122 29t62 86q5 32 -9 53t-42 31t-64 18.5t-74 14t-73.5 19t-61.5 32.5t-38 54.5t-4 85.5q18 103 99 156t186 53q102 0 163.5 -54.5t50.5 -159.5h-105q4 60 -30 91t-94 31q-62 0 -108.5 -28.5t-55.5 -85.5 q-7 -40 20 -63.5t72 -30.5t97 -19t95.5 -28t67.5 -58.5t13 -108.5q-11 -70 -59 -119t-111 -70t-134 -21q-109 0 -176.5 55t-56.5 160z" />
<glyph unicode="&#x406;" horiz-adv-x="272" d="M83 0l117 700h105l-117 -700h-105z" />
<glyph unicode="&#x407;" horiz-adv-x="271" d="M126 832q5 24 23.5 40t42.5 16t37 -16t9 -40t-22.5 -40t-42.5 -16t-37.5 16t-9.5 40zM312 832q5 24 23.5 40t42.5 16t37 -16t9 -40t-22.5 -40t-42.5 -16t-37.5 16t-9.5 40zM83 0l117 700h105l-117 -700h-105z" />
<glyph unicode="&#x408;" horiz-adv-x="563" d="M270 85q67 0 104.5 43t48.5 108l78 464h105l-78 -464q-18 -107 -85 -177.5t-189 -70.5q-63 0 -107 21t-63 55.5t-26 79.5t4 92l9 52h105l-9 -52q-11 -65 12.5 -108t90.5 -43z" />
<glyph unicode="&#x409;" horiz-adv-x="1040" d="M667 353l-43 -258h166q56 0 98.5 36.5t51.5 92.5q10 56 -20.5 92.5t-86.5 36.5h-166zM190 302l66 398h469l-42 -252h169q100 0 154.5 -63.5t38.5 -160.5t-92 -160.5t-176 -63.5h-274l101 604h-259l-50 -302q-6 -36 -11.5 -61t-18 -64.5t-30.5 -67t-44 -54.5t-64.5 -41 t-86.5 -14h-32l16 96h21q31 0 55 15t38.5 34.5t26 51.5t16 53t9.5 52z" />
<glyph unicode="&#x40a;" horiz-adv-x="1042" d="M626 95h166q56 0 98.5 36.5t51.5 92.5q10 56 -20.5 92.5t-86.5 36.5h-166zM188 0h-105l117 700h105l-42 -252h317l42 252h105l-42 -252h169q100 0 154.5 -63.5t38.5 -160.5t-92 -160.5t-176 -63.5h-274l59 352h-317z" />
<glyph unicode="&#x40b;" horiz-adv-x="817" d="M343 0h-105l101 605h-217l16 95h539l-16 -95h-217l-29 -175q89 31 168 31q118 0 172.5 -59.5t35.5 -173.5l-38 -228h-105l35 208q14 80 -12 119t-107 39q-78 0 -165 -34z" />
<glyph unicode="&#x40c;" horiz-adv-x="627" d="M672 915l-147 -142h-77l107 142h117zM305 700l-57 -340l353 340h131l-363 -350l261 -350h-134l-251 338l-57 -338h-105l117 700h105z" />
<glyph unicode="&#x40d;" horiz-adv-x="751" d="M367 915h117l59 -142h-77zM589 700h196l-117 -700h-105l112 670h-2l-394 -670h-196l117 700h105l-112 -670h2z" />
<glyph unicode="&#x40e;" horiz-adv-x="599" d="M297 916h73q-5 -35 14 -57t58 -22t66 22t32 57h73q-11 -64 -60.5 -104.5t-121.5 -40.5t-108.5 40.5t-25.5 104.5zM283 0h-110l118 195l-157 505h112l117 -387l231 387h110z" />
<glyph unicode="&#x40f;" horiz-adv-x="716" d="M200 700h105l-101 -604h339l101 604h105l-117 -700h-222l-23 -140h-105l23 140h-222z" />
<glyph unicode="&#x410;" horiz-adv-x="664" d="M443 670l-198 -408h262l-62 408h-2zM118 0h-111l350 700h184l116 -700h-111l-25 166h-322z" />
<glyph unicode="&#x411;" horiz-adv-x="641" d="M204 94h192q53 0 93.5 35t49.5 88t-20 88t-82 35h-192zM260 431h195q98 0 151.5 -60.5t37.5 -153.5q-16 -94 -89.5 -155.5t-171.5 -61.5h-300l117 700h460l-16 -94h-355z" />
<glyph unicode="&#x412;" horiz-adv-x="676" d="M431 322h-189l-39 -230h189q151 0 171 115q10 61 -28 88t-104 27zM462 608h-172l-34 -204h172q133 0 150 102q9 54 -24.5 78t-91.5 24zM377 0h-294l117 700h277q48 0 87 -9t70.5 -29.5t45 -58t4.5 -90.5q-15 -94 -107 -143q109 -50 89 -170q-12 -73 -58 -119.5 t-103.5 -63.5t-127.5 -17z" />
<glyph unicode="&#x413;" horiz-adv-x="555" d="M188 0h-105l117 700h460l-16 -96h-355z" />
<glyph unicode="&#x414;" horiz-adv-x="739" d="M210 95h329l85 510h-276l-36 -215q-32 -189 -102 -295zM-5 -140l39 235h60q81 102 113 295l52 310h486l-101 -605h75l-39 -235h-105l23 140h-475l-23 -140h-105z" />
<glyph unicode="&#x415;" horiz-adv-x="615" d="M240 309l-36 -214h380l-16 -95h-485l117 700h473l-16 -95h-368l-34 -204h344l-15 -92h-344z" />
<glyph unicode="&#x416;" horiz-adv-x="883" d="M611 700l-57 -340l311 340h123l-319 -350l217 -350h-126l-209 338l-57 -338h-105l57 338l-323 -338h-126l335 350l-203 350h123l197 -340l57 340h105z" />
<glyph unicode="&#x417;" horiz-adv-x="614" d="M357 306h-71l15 91h68q63 0 108 25.5t54 81.5q10 57 -26 86.5t-98 29.5q-60 0 -105 -31t-61 -91h-105q25 105 104.5 159.5t181.5 54.5q67 0 118.5 -20.5t79.5 -68.5t17 -117q-18 -102 -116 -151q106 -48 87 -160q-17 -102 -104.5 -154.5t-199.5 -52.5q-109 0 -176.5 55 t-56.5 160h105q-4 -60 36.5 -91.5t106.5 -31.5q68 0 121 29.5t63 87.5q10 56 -33 82.5t-113 26.5z" />
<glyph unicode="&#x418;" horiz-adv-x="752" d="M589 700h196l-117 -700h-105l112 670h-2l-394 -670h-196l117 700h105l-112 -670h2z" />
<glyph unicode="&#x419;" horiz-adv-x="752" d="M371 916h73q-5 -35 14 -57t58 -22t66 22t32 57h73q-11 -64 -60.5 -104.5t-121.5 -40.5t-108.5 40.5t-25.5 104.5zM589 700h196l-117 -700h-105l112 670h-2l-394 -670h-196l117 700h105l-112 -670h2z" />
<glyph unicode="&#x41a;" horiz-adv-x="627" d="M305 700l-57 -340l353 340h131l-363 -350l261 -350h-134l-251 338l-57 -338h-105l117 700h105z" />
<glyph unicode="&#x41b;" horiz-adv-x="715" d="M40 0h-32l16 96h21q31 0 55 15t38.5 34.5t26 51.5t16 53t9.5 52l66 398h492l-117 -700h-105l101 604h-282l-50 -302q-6 -36 -11.5 -61t-18 -64.5t-30.5 -67t-44 -54.5t-64.5 -41t-86.5 -14z" />
<glyph unicode="&#x41c;" horiz-adv-x="907" d="M394 700l63 -670h2l287 670h194l-117 -700h-105l112 670h-2l-287 -670h-176l-63 670h-2l-112 -670h-105l117 700h194z" />
<glyph unicode="&#x41d;" horiz-adv-x="717" d="M83 0l117 700h105l-49 -296h340l49 296h105l-117 -700h-105l52 308h-340l-52 -308h-105z" />
<glyph unicode="&#x41e;" horiz-adv-x="741" d="M98 350q12 70 42 133.5t77 115.5t117.5 82.5t154.5 30.5q67 0 120 -20t84.5 -55t51 -81t21 -98.5t-5.5 -107.5q-12 -71 -42.5 -134t-77.5 -115t-117.5 -82.5t-154.5 -30.5q-67 0 -120 20t-84.5 55t-51 81t-20.5 98.5t6 107.5zM655 350q18 110 -26 187t-156 77t-182 -77 t-88 -187q-19 -110 25 -187t156 -77t182 77t89 187z" />
<glyph unicode="&#x41f;" horiz-adv-x="717" d="M83 0l117 700h550l-117 -700h-105l101 604h-340l-101 -604h-105z" />
<glyph unicode="&#x420;" horiz-adv-x="641" d="M466 605h-177l-46 -276h177q60 0 105.5 39t55.5 99t-22.5 99t-92.5 39zM407 234h-180l-39 -234h-105l117 700h285q104 0 161 -66t40 -167t-96 -167t-183 -66z" />
<glyph unicode="&#x421;" horiz-adv-x="716" d="M613 259h106q-39 -123 -126 -197t-225 -74q-67 0 -120 20t-84.5 55t-51 81t-20.5 98.5t6 107.5q12 70 42 133.5t77 115.5t117.5 82.5t154.5 30.5q138 0 200.5 -74t60.5 -197h-106q-3 173 -171 173q-112 0 -182 -77t-88 -187q-19 -110 25 -187t156 -77q168 0 229 173z" />
<glyph unicode="&#x422;" horiz-adv-x="582" d="M444 604l-101 -604h-105l101 604h-217l16 96h539l-16 -96h-217z" />
<glyph unicode="&#x423;" horiz-adv-x="599" d="M283 0h-110l118 195l-157 505h112l117 -387l231 387h110z" />
<glyph unicode="&#x424;" horiz-adv-x="820" d="M193 350q-14 -80 35 -138t155 -58l65 392q-106 0 -174 -58t-81 -138zM744 350q13 80 -36.5 138t-154.5 58l-65 -392q105 0 173.5 58t82.5 138zM849 350q-20 -118 -121 -204.5t-256 -86.5l-13 -79h-105l13 79q-105 0 -174 43t-93.5 108t-11.5 140q20 118 120.5 204.5 t255.5 86.5l13 79h105l-13 -79q105 0 174 -43t93.5 -108t12.5 -140z" />
<glyph unicode="&#x425;" horiz-adv-x="612" d="M696 700l-226 -334l130 -366h-116l-118 351h-2l-236 -351h-116l252 366l-114 334h114l105 -319h2l211 319h114z" />
<glyph unicode="&#x426;" horiz-adv-x="721" d="M200 700h105l-101 -604h320l101 604h105l-101 -604h72l-39 -236h-105l23 140h-497z" />
<glyph unicode="&#x427;" horiz-adv-x="662" d="M590 700h105l-117 -700h-105l43 259q-89 -31 -168 -31q-118 0 -172.5 59.5t-35.5 174.5l40 238h105l-36 -218q-14 -80 11.5 -119t106.5 -39q77 0 166 34z" />
<glyph unicode="&#x428;" horiz-adv-x="1026" d="M200 700h105l-101 -604h272l101 604h105l-101 -604h272l101 604h105l-117 -700h-859z" />
<glyph unicode="&#x429;" horiz-adv-x="1050" d="M200 700h105l-101 -604h272l101 604h105l-101 -604h272l101 604h105l-101 -604h72l-39 -236h-105l23 140h-826z" />
<glyph unicode="&#x42a;" horiz-adv-x="723" d="M286 95h177q60 0 105.5 39t55.5 99t-22.5 99t-92.5 39h-177zM122 700h265l-39 -234h180q104 0 161 -66t40 -167t-96 -167t-183 -66h-285l101 604h-160z" />
<glyph unicode="&#x42b;" horiz-adv-x="882" d="M204 95h177q60 0 105.5 39t55.5 99t-22.5 99t-92.5 39h-177zM266 466h180q104 0 161 -66t40 -167t-96 -167t-183 -66h-285l117 700h105zM798 0h-105l117 700h105z" />
<glyph unicode="&#x42c;" horiz-adv-x="641" d="M204 95h177q60 0 105.5 39t55.5 99t-22.5 99t-92.5 39h-177zM266 466h180q104 0 161 -66t40 -167t-96 -167t-183 -66h-285l117 700h105z" />
<glyph unicode="&#x42d;" horiz-adv-x="714" d="M357 85q100 0 166 61.5t94 156.5h-301l15 94h301q5 95 -40.5 156.5t-145.5 61.5q-160 0 -224 -160h-107q39 116 127 186.5t220 70.5q67 0 120 -20t84.5 -55t51 -81t21 -98.5t-5.5 -107.5q-12 -71 -42.5 -134t-77.5 -115t-117.5 -82.5t-154.5 -30.5q-132 0 -196 70.5 t-65 186.5h107q9 -160 170 -160z" />
<glyph unicode="&#x42e;" horiz-adv-x="1017" d="M931 350q18 110 -26 187t-156 77t-182 -77t-88 -187q-19 -110 25 -187t156 -77t182 77t89 187zM188 0h-105l117 700h105l-49 -296h130q37 133 134.5 220.5t244.5 87.5q67 0 120 -20t84.5 -55t51 -81t21 -98.5t-5.5 -107.5q-12 -71 -42.5 -134t-77.5 -115t-117.5 -82.5 t-154.5 -30.5q-77 0 -134.5 26t-89 71.5t-44 101.5t-7.5 121h-129z" />
<glyph unicode="&#x42f;" horiz-adv-x="670" d="M539 349l43 256h-187q-56 0 -98 -36.5t-51 -91.5q-10 -55 20 -91.5t86 -36.5h187zM408 700h295l-117 -700h-105l43 256h-153l-203 -256h-119l212 267q-67 21 -100 77.5t-20 132.5q16 96 91.5 159.5t175.5 63.5z" />
<glyph unicode="&#x430;" horiz-adv-x="610" d="M482 250q12 72 -18 121.5t-104 49.5q-75 0 -120.5 -49.5t-57.5 -121.5t17 -121.5t104 -49.5q74 0 120.5 49.5t58.5 121.5zM541 0h-101l11 66q-75 -78 -181 -78q-62 0 -105 23.5t-61.5 61t-26 84.5t3.5 93q8 49 28 93.5t53 83.5t83.5 62t112.5 23q106 0 155 -78l11 66h101 z" />
<glyph unicode="&#x431;" horiz-adv-x="585" d="M184 235q-11 -65 19.5 -111t104.5 -46t119.5 46t56.5 111q12 65 -18.5 111t-104.5 46t-119.5 -45.5t-57.5 -111.5zM667 750l-16 -91q-34 -8 -136 -22t-146 -32q-104 -43 -153 -194q61 70 169 70q117 0 167 -72.5t33 -173.5q-17 -102 -92.5 -174.5t-199.5 -72.5 q-126 0 -175.5 78t-28.5 204q12 69 27 123.5t42 113t70 103t101 69.5q58 26 183.5 45t154.5 26z" />
<glyph unicode="&#x432;" horiz-adv-x="537" d="M342 223h-136l-23 -140h136q94 0 106 70q6 37 -17.5 53.5t-65.5 16.5zM364 417h-125l-21 -122h125q81 0 92 61q9 61 -71 61zM304 0h-236l84 500h224q81 0 127 -31.5t33 -106.5q-10 -61 -70 -97q72 -36 59 -116q-7 -41 -28 -71.5t-52.5 -46.5t-66 -23.5t-74.5 -7.5z" />
<glyph unicode="&#x433;" horiz-adv-x="419" d="M492 500l-16 -91h-239l-68 -409h-101l84 500h340z" />
<glyph unicode="&#x434;" horiz-adv-x="588" d="M186 91h240l54 319h-204l-20 -118q-23 -129 -70 -201zM-5 -140l38 231h43q58 70 79 201l35 208h406l-69 -409h53l-38 -231h-101l23 140h-345l-23 -140h-101z" />
<glyph unicode="&#x435;" horiz-adv-x="561" d="M194 297h272q0 59 -28 94.5t-87 35.5q-114 0 -157 -130zM432 148h103q-70 -160 -257 -160q-61 0 -105.5 22.5t-65 59.5t-29 84t2.5 96q18 108 92 185t193 77q61 0 105.5 -22.5t65 -59.5t29 -84t-2.5 -96l-5 -27h-380q-5 -66 22.5 -107.5t91.5 -41.5q98 0 140 74z" />
<glyph unicode="&#x436;" horiz-adv-x="731" d="M500 500l-41 -241l220 241h116l-231 -250l162 -250h-120l-150 237l-40 -237h-101l40 237l-230 -237h-120l246 250l-147 250h116l138 -241l41 241h101z" />
<glyph unicode="&#x437;" horiz-adv-x="494" d="M283 213h-46l13 80h44q40 0 70.5 16.5t36.5 52.5t-19 52.5t-65 16.5q-41 0 -71 -19.5t-40 -58.5h-99q19 78 81.5 118.5t145.5 40.5q80 0 130 -37.5t38 -109.5q-12 -75 -83 -110q74 -36 60 -116q-12 -74 -79 -112.5t-151 -38.5q-87 0 -140.5 41.5t-45.5 119.5h101 q-3 -39 24 -59.5t71 -20.5q45 0 79.5 18t40.5 54t-22.5 54t-73.5 18z" />
<glyph unicode="&#x438;" horiz-adv-x="605" d="M433 500h187l-84 -500h-101l79 475h-2l-257 -475h-187l84 500h101l-80 -475h2z" />
<glyph unicode="&#x439;" horiz-adv-x="604" d="M264 716h73q-6 -35 13.5 -57t58.5 -22t65.5 22t32.5 57h73q-11 -64 -60.5 -104.5t-121.5 -40.5t-108.5 40.5t-25.5 104.5zM433 500h187l-84 -500h-101l79 475h-2l-257 -475h-187l84 500h101l-80 -475h2z" />
<glyph unicode="&#x43a;" horiz-adv-x="525" d="M253 500l-41 -242l255 242h122l-265 -250l196 -250h-127l-185 236l-39 -236h-101l84 500h101z" />
<glyph unicode="&#x43b;" horiz-adv-x="569" d="M33 0h-28l15 91h17q19 0 34.5 9.5t24 21.5t15.5 32.5t10 32.5t6 31l48 282h409l-84 -500h-101l68 409h-207l-32 -191q-5 -32 -10 -53.5t-19.5 -56t-33.5 -55.5t-53.5 -37t-78.5 -16z" />
<glyph unicode="&#x43c;" horiz-adv-x="737" d="M169 0h-101l84 500h182l37 -475h2l197 475h182l-84 -500h-101l79 475h-2l-196 -475h-160l-38 475h-2z" />
<glyph unicode="&#x43d;" horiz-adv-x="578" d="M509 0h-101l34 205h-239l-34 -205h-101l84 500h101l-34 -204h239l34 204h101z" />
<glyph unicode="&#x43e;" horiz-adv-x="581" d="M81 250q18 108 94.5 185t200.5 77q64 0 110 -22.5t68 -59.5t31 -84t-2 -96q-18 -108 -94.5 -185t-200.5 -77q-64 0 -110 22.5t-68 59.5t-31 84t2 96zM482 250q12 71 -18 120.5t-104 49.5t-120 -49.5t-58 -120.5t17 -120.5t104 -49.5q74 0 120.5 49.5t58.5 120.5z" />
<glyph unicode="&#x43f;" horiz-adv-x="578" d="M509 0h-101l68 409h-239l-68 -409h-101l84 500h441z" />
<glyph unicode="&#x440;" horiz-adv-x="611" d="M212 250q-12 -72 17 -121.5t104 -49.5q74 0 120.5 49.5t58.5 121.5t-18 121.5t-104 49.5q-75 0 -120.5 -49.5t-57.5 -121.5zM181 66l-44 -261h-101l117 695h101l-11 -66q73 78 181 78q50 0 87.5 -15.5t59 -41.5t34.5 -60t12.5 -70.5t-4.5 -74.5q-8 -49 -28.5 -93.5 t-53 -83.5t-83 -62t-112.5 -23q-108 0 -155 78z" />
<glyph unicode="&#x441;" horiz-adv-x="562" d="M450 181h103q-29 -87 -94.5 -140t-170.5 -53q-64 0 -110 22.5t-68 59.5t-31 84t2 96q18 108 94.5 185t200.5 77q104 0 152 -53t48 -140h-103q-7 101 -113 101q-74 0 -120 -49.5t-58 -120.5t17 -120.5t104 -49.5q106 0 147 101z" />
<glyph unicode="&#x442;" horiz-adv-x="465" d="M535 500l-16 -91h-168l-68 -409h-101l68 409h-168l16 91h437z" />
<glyph unicode="&#x443;" horiz-adv-x="531" d="M602 500l-333 -695h-104l93 195h-86l-76 500h105l67 -475h2l227 475h105z" />
<glyph unicode="&#x444;" horiz-adv-x="742" d="M333 80l57 340q-85 0 -141 -50.5t-67 -119.5t27.5 -119.5t123.5 -50.5zM491 420l-57 -340q85 0 141.5 50.5t67.5 119.5t-28 119.5t-124 50.5zM419 -12l-31 -183h-101l31 183q-133 0 -194 78t-43 184t105 184t220 78l31 188h101l-31 -188q133 0 194 -78t43 -184t-105 -184 t-220 -78z" />
<glyph unicode="&#x445;" horiz-adv-x="510" d="M205 257l-95 243h109l80 -232h2l158 232h109l-177 -243l107 -257h-112l-89 246h-2l-171 -246h-112z" />
<glyph unicode="&#x446;" horiz-adv-x="595" d="M413 91l69 409h101l-69 -409h73l-38 -231h-99l23 140h-405l84 500h101l-69 -409h229z" />
<glyph unicode="&#x447;" horiz-adv-x="547" d="M461 500h101l-84 -500h-101l29 173q-54 -19 -133 -19q-199 0 -167 191l26 155h101l-25 -150q-10 -56 12 -81t77 -25q70 0 124 19z" />
<glyph unicode="&#x448;" horiz-adv-x="868" d="M398 91l69 409h101l-69 -409h214l69 409h101l-84 -500h-731l84 500h101l-69 -409h214z" />
<glyph unicode="&#x449;" horiz-adv-x="895" d="M398 91l69 409h101l-69 -409h214l69 409h101l-69 -409h73l-38 -231h-99l23 140h-705l84 500h101l-69 -409h214z" />
<glyph unicode="&#x44a;" horiz-adv-x="567" d="M462 164q6 34 -12.5 56t-52.5 22h-127l-26 -156h127q34 0 60 22t31 56zM362 0h-233l68 409h-125l16 91h226l-29 -172h132q77 0 117.5 -46t28.5 -118q-11 -72 -67.5 -118t-133.5 -46z" />
<glyph unicode="&#x44b;" horiz-adv-x="720" d="M401 164q6 34 -12.5 56t-52.5 22h-127l-26 -156h127q34 0 60 22t31 56zM301 0h-233l84 500h101l-29 -172h132q77 0 117.5 -46t28.5 -118q-11 -72 -67.5 -118t-133.5 -46zM735 500l-84 -500h-101l84 500h101z" />
<glyph unicode="&#x44c;" horiz-adv-x="506" d="M401 164q6 34 -12.5 56t-52.5 22h-127l-26 -156h127q34 0 60 22t31 56zM301 0h-233l84 500h101l-29 -172h132q77 0 117.5 -46t28.5 -118q-11 -72 -67.5 -118t-133.5 -46z" />
<glyph unicode="&#x44d;" horiz-adv-x="562" d="M269 -12q-102 0 -151 52t-49 138h103q7 -101 112 -101q63 0 106.5 37t62.5 95h-201l14 82h201q0 58 -31 95t-94 37q-106 0 -146 -101h-103q29 86 95.5 138t168.5 52q64 0 110 -22.5t68 -59.5t31 -84t-2 -96q-18 -108 -94.5 -185t-200.5 -77z" />
<glyph unicode="&#x44e;" horiz-adv-x="808" d="M709 250q12 71 -18 120.5t-104 49.5t-120 -49.5t-58 -120.5t17 -120.5t104 -49.5q74 0 120.5 49.5t58.5 120.5zM169 0h-101l84 500h101l-34 -204h100q28 93 101 154.5t183 61.5q64 0 110 -22.5t68 -59.5t31 -84t-2 -96q-18 -108 -94.5 -185t-200.5 -77 q-111 0 -162.5 61.5t-49.5 155.5h-100z" />
<glyph unicode="&#x44f;" horiz-adv-x="518" d="M199 336q-5 -34 13 -56t52 -22h127l26 156h-127q-34 0 -59.5 -22t-31.5 -56zM300 500h233l-84 -500h-101l29 174h-101q-77 -82 -135 -174h-110q59 103 138 190q-41 19 -60 57.5t-11 88.5q12 72 68.5 118t133.5 46z" />
<glyph unicode="&#x450;" horiz-adv-x="560" d="M194 297h272q0 59 -28 94.5t-87 35.5q-114 0 -157 -130zM432 148h103q-70 -160 -257 -160q-61 0 -105.5 22.5t-65 59.5t-29 84t2.5 96q18 108 92 185t193 77q61 0 105.5 -22.5t65 -59.5t29 -84t-2.5 -96l-5 -27h-380q-5 -66 22.5 -107.5t91.5 -41.5q98 0 140 74zM337 573 l-99 142h117l59 -142h-77z" />
<glyph unicode="&#x451;" horiz-adv-x="560" d="M194 297h272q0 59 -28 94.5t-87 35.5q-114 0 -157 -130zM432 148h103q-70 -160 -257 -160q-61 0 -105.5 22.5t-65 59.5t-29 84t2.5 96q18 108 92 185t193 77q61 0 105.5 -22.5t65 -59.5t29 -84t-2.5 -96l-5 -27h-380q-5 -66 22.5 -107.5t91.5 -41.5q98 0 140 74zM237 632 q4 24 22.5 40t42.5 16t37.5 -16t9.5 -40q-5 -24 -23.5 -40t-42.5 -16t-37 16t-9 40zM423 632q4 24 22.5 40t42.5 16t37.5 -16t9.5 -40q-5 -24 -23.5 -40t-42.5 -16t-37 16t-9 40z" />
<glyph unicode="&#x452;" horiz-adv-x="593" d="M305 -201l15 85q15 -3 32 -3q56 0 67 64l59 352q11 64 -8 93.5t-73 29.5q-62 0 -106.5 -40.5t-56.5 -111.5l-45 -268h-101l96 573h-51l11 68h51l10 59h101l-10 -59h145l-11 -68h-145l-25 -147q66 86 174 86q180 0 145 -212l-60 -360q-11 -70 -52.5 -108t-108.5 -38 q-29 0 -53 5z" />
<glyph unicode="&#x453;" horiz-adv-x="419" d="M520 715l-147 -142h-77l107 142h117zM492 500l-16 -91h-239l-68 -409h-101l84 500h340z" />
<glyph unicode="&#x454;" horiz-adv-x="562" d="M288 -12q-64 0 -110 22.5t-68 59.5t-31 84t2 96q18 108 94.5 185t200.5 77q102 0 151 -52t49 -138h-103q-7 101 -112 101q-63 0 -106.5 -37t-62.5 -95h201l-14 -82h-201q0 -58 31 -95t94 -37q106 0 146 101h103q-29 -86 -95.5 -138t-168.5 -52z" />
<glyph unicode="&#x455;" horiz-adv-x="494" d="M63 149h101q-3 -39 24 -59.5t71 -20.5q45 0 79.5 18t40.5 54q5 31 -24 46t-73 22t-87.5 18t-69.5 43t-17 87q13 77 76.5 116t146.5 39q80 0 127.5 -40.5t41.5 -118.5h-99q3 39 -20.5 58.5t-64.5 19.5q-40 0 -70 -16.5t-36 -52.5q-5 -30 24 -45t73 -21.5t87 -17.5 t69 -43.5t17 -88.5q-13 -77 -80.5 -117.5t-153.5 -40.5q-85 0 -138 41.5t-45 119.5z" />
<glyph unicode="&#x456;" horiz-adv-x="237" d="M169 662q4 26 24.5 43.5t46.5 17.5t40.5 -17.5t10.5 -43.5t-24.5 -43.5t-46.5 -17.5t-40.5 17.5t-10.5 43.5zM68 0l84 500h101l-84 -500h-101z" />
<glyph unicode="&#x457;" horiz-adv-x="237" d="M76 632q4 24 22.5 40t42.5 16t37.5 -16t9.5 -40q-5 -24 -23.5 -40t-42.5 -16t-37 16t-9 40zM262 632q4 24 22.5 40t42.5 16t37.5 -16t9.5 -40q-5 -24 -23.5 -40t-42.5 -16t-37 16t-9 40zM68 0l84 500h101l-84 -500h-101z" />
<glyph unicode="&#x458;" horiz-adv-x="237" d="M169 662q4 26 24.5 43.5t46.5 17.5t40.5 -17.5t10.5 -43.5t-24.5 -43.5t-46.5 -17.5t-40.5 17.5t-10.5 43.5zM-55 -202l15 88q16 -3 32 -3q56 0 67 64l93 553h101l-94 -561q-11 -70 -52.5 -108t-109.5 -38q-28 0 -52 5z" />
<glyph unicode="&#x459;" horiz-adv-x="810" d="M704 160q5 32 -12.5 53t-49.5 21h-121l-25 -148h121q32 0 57 21t30 53zM33 0h-28l15 91h17q19 0 34.5 9.5t24 21.5t15.5 32.5t10 32.5t6 31l48 282h391l-30 -180h126q75 0 114.5 -45t28.5 -115q-12 -70 -67 -115t-130 -45h-227l68 409h-189l-32 -191q-5 -32 -10 -53.5 t-19.5 -56t-33.5 -55.5t-53.5 -37t-78.5 -16z" />
<glyph unicode="&#x45a;" horiz-adv-x="819" d="M713 160q5 32 -12.5 53t-49.5 21h-121l-25 -148h121q32 0 57 21t30 53zM617 0h-227l38 230h-221l-38 -230h-101l84 500h101l-30 -180h221l30 180h101l-30 -180h126q75 0 114.5 -45t28.5 -115q-12 -70 -67 -115t-130 -45z" />
<glyph unicode="&#x45b;" horiz-adv-x="593" d="M189 0h-101l96 573h-51l11 68h51l10 59h101l-10 -59h145l-11 -68h-145l-25 -147q66 86 174 86q180 0 145 -212l-50 -300h-101l50 297q11 64 -8 93.5t-73 29.5q-62 0 -106.5 -40.5t-56.5 -111.5z" />
<glyph unicode="&#x45c;" horiz-adv-x="525" d="M576 715l-147 -142h-77l107 142h117zM253 500l-41 -242l255 242h122l-265 -250l196 -250h-127l-185 236l-39 -236h-101l84 500h101z" />
<glyph unicode="&#x45d;" horiz-adv-x="604" d="M260 715h117l59 -142h-77zM433 500h187l-84 -500h-101l79 475h-2l-257 -475h-187l84 500h101l-80 -475h2z" />
<glyph unicode="&#x45e;" horiz-adv-x="530" d="M227 716h73q-6 -35 13.5 -57t58.5 -22t65.5 22t32.5 57h73q-11 -64 -60.5 -104.5t-121.5 -40.5t-108.5 40.5t-25.5 104.5zM602 500l-333 -695h-104l93 195h-86l-76 500h105l67 -475h2l227 475h105z" />
<glyph unicode="&#x45f;" horiz-adv-x="578" d="M423 91l69 409h101l-84 -500h-171l-23 -140h-99l23 140h-171l84 500h101l-69 -409h239z" />
<glyph unicode="&#x462;" horiz-adv-x="647" d="M231 95h166q56 0 98.5 36.5t51.5 92.5q10 56 -20.5 92.5t-86.5 36.5h-166zM384 0h-274l96 571h-93l12 72h93l9 57h105l-9 -57h180l-12 -72h-180l-21 -123h169q100 0 154.5 -63.5t38.5 -160.5t-92 -160.5t-176 -63.5z" />
<glyph unicode="&#x463;" horiz-adv-x="534" d="M429 164q6 34 -12.5 56t-52.5 22h-127l-26 -156h127q34 0 60 22t31 56zM329 0h-233l79 475h-82l12 68h82l26 157h101l-26 -157h145l-12 -68h-145l-24 -147h132q77 0 117.5 -46t28.5 -118q-11 -72 -67.5 -118t-133.5 -46z" />
<glyph unicode="&#x48a;" horiz-adv-x="745" d="M359 916h65q-6 -39 14.5 -63t61.5 -24t69.5 24t34.5 63h65q-11 -64 -59.5 -104.5t-119.5 -40.5t-106.5 40.5t-24.5 104.5zM637 700h118l-101 -604h90l-120 -236h-100l71 140h-62l89 532h-2l-419 -532h-118l117 700h105l-89 -532h2z" />
<glyph unicode="&#x48b;" horiz-adv-x="633" d="M264 716h73q-6 -35 13.5 -57t58.5 -22t65.5 22t32.5 57h73q-11 -64 -60.5 -104.5t-121.5 -40.5t-108.5 40.5t-25.5 104.5zM433 500h187l-69 -409h88l-117 -231h-96l71 140h-62l79 475h-2l-257 -475h-187l84 500h101l-80 -475h2z" />
<glyph unicode="&#x48c;" horiz-adv-x="647" d="M231 95h166q56 0 98.5 36.5t51.5 92.5q10 56 -20.5 92.5t-86.5 36.5h-166zM384 0h-274l96 571h-93l12 72h93l9 57h105l-9 -57h180l-12 -72h-180l-21 -123h169q100 0 154.5 -63.5t38.5 -160.5t-92 -160.5t-176 -63.5z" />
<glyph unicode="&#x48d;" horiz-adv-x="534" d="M429 164q6 34 -12.5 56t-52.5 22h-127l-26 -156h127q34 0 60 22t31 56zM329 0h-233l79 475h-82l12 68h82l26 157h101l-26 -157h145l-12 -68h-145l-24 -147h132q77 0 117.5 -46t28.5 -118q-11 -72 -67.5 -118t-133.5 -46z" />
<glyph unicode="&#x48e;" horiz-adv-x="641" d="M466 605h-177l-46 -276h177q22 0 43 6l-52 63l54 47l63 -75q42 38 53 97q10 60 -22.5 99t-92.5 39zM407 234h-180l-39 -234h-105l117 700h285q104 0 161 -66t40 -167q-16 -102 -98 -169l58 -70l-55 -47l-65 79q-55 -26 -119 -26z" />
<glyph unicode="&#x48f;" horiz-adv-x="609" d="M211 250q-12 -72 17 -121.5t104 -49.5q33 0 63 11l-53 64l51 44l59 -70q45 45 59 122q12 72 -18 121.5t-104 49.5q-75 0 -120.5 -49.5t-57.5 -121.5zM512 55l56 -67l-51 -44l-60 72q-54 -28 -122 -28q-108 0 -155 78l-44 -261h-101l117 695h101l-11 -66q73 78 181 78 q50 0 87.5 -15.5t59 -41.5t34.5 -60t12.5 -70.5t-4.5 -74.5q-21 -123 -100 -195z" />
<glyph unicode="&#x490;" horiz-adv-x="555" d="M188 0h-105l117 700h355l22 130h105l-38 -226h-355z" />
<glyph unicode="&#x491;" horiz-adv-x="419" d="M510 610l-34 -201h-239l-68 -409h-101l84 500h241l18 110h99z" />
<glyph unicode="&#x492;" horiz-adv-x="582" d="M215 0h-105l53 314h-93l12 72h93l52 314h460l-16 -96h-355l-36 -218h180l-12 -72h-180z" />
<glyph unicode="&#x493;" horiz-adv-x="446" d="M519 500l-16 -91h-239l-22 -133h145l-11 -68h-145l-35 -208h-101l35 208h-82l11 68h82l38 224h340z" />
<glyph unicode="&#x494;" horiz-adv-x="632" d="M188 0h-105l117 700h460l-16 -96h-355l-36 -217q83 24 153 24q129 0 181.5 -82t30.5 -212q-23 -134 -109.5 -218.5t-225.5 -84.5l16 94q88 0 143 57t71 152q15 90 -20 144.5t-125 54.5q-62 0 -131 -22z" />
<glyph unicode="&#x495;" horiz-adv-x="486" d="M169 0h-101l84 500h340l-15 -90h-239l-24 -142q59 18 106 18q93 0 132 -61.5t23 -154.5q-18 -108 -83.5 -172t-169.5 -64l15 88q56 1 90.5 40t46.5 107q10 57 -13 92.5t-80 35.5q-40 0 -82 -15z" />
<glyph unicode="&#x496;" horiz-adv-x="937" d="M611 700l-57 -340l311 340h123l-319 -350l157 -254h127l-39 -236h-105l23 140h-72l-209 338l-57 -338h-105l57 338l-323 -338h-126l335 350l-203 350h123l197 -340l57 340h105z" />
<glyph unicode="&#x497;" horiz-adv-x="780" d="M500 500l-41 -241l220 241h116l-231 -250l103 -159h128l-38 -231h-99l23 140h-75l-150 237l-40 -237h-101l40 237l-230 -237h-120l246 250l-147 250h116l138 -241l41 241h101z" />
<glyph unicode="&#x498;" horiz-adv-x="614" d="M357 306h-71l15 91h68q63 0 108 25.5t54 81.5q10 57 -26 86.5t-98 29.5q-60 0 -105 -31t-61 -91h-105q25 105 104.5 159.5t181.5 54.5q67 0 118.5 -20.5t79.5 -68.5t17 -117q-18 -102 -116 -151q105 -47 87 -160q-15 -89 -84.5 -140.5t-165.5 -63.5l-22 -131h-105l22 131 q-89 13 -140 66.5t-42 145.5h105q-4 -60 36.5 -91.5t106.5 -31.5q68 0 121 29.5t63 87.5q10 56 -33 82.5t-113 26.5z" />
<glyph unicode="&#x499;" horiz-adv-x="494" d="M283 213h-46l13 80h44q40 0 70.5 16.5t36.5 52.5t-19 52.5t-65 16.5q-41 0 -71 -19.5t-40 -58.5h-99q19 78 81.5 118.5t145.5 40.5q80 0 130 -37.5t38 -109.5q-12 -75 -83 -110q74 -36 60 -116q-10 -62 -60 -99t-119 -48l-22 -132h-99l22 132q-68 11 -106 51t-32 106h101 q-3 -39 24 -59.5t71 -20.5q45 0 79.5 18t40.5 54t-22.5 54t-73.5 18z" />
<glyph unicode="&#x49a;" horiz-adv-x="673" d="M305 700l-57 -340l353 340h131l-363 -350l189 -254h131l-39 -236h-105l23 140h-72l-251 338l-57 -338h-105l117 700h105z" />
<glyph unicode="&#x49b;" horiz-adv-x="567" d="M286 700l-74 -442l255 242h122l-265 -250l124 -159h134l-38 -231h-99l23 140h-75l-185 236l-39 -236h-101l117 700h101z" />
<glyph unicode="&#x49c;" horiz-adv-x="670" d="M83 0l117 700h105l-51 -308h58l22 132h66l-22 -132h40l240 308h117l-273 -350l171 -350h-120l-148 306h-42l-22 -132h-66l22 132h-58l-51 -306h-105z" />
<glyph unicode="&#x49d;" horiz-adv-x="568" d="M68 0l84 500h101l-36 -211h48l17 97h60l-17 -97h33l166 211h108l-196 -250l127 -250h-113l-105 209h-33l-16 -97h-60l16 97h-48l-35 -209h-101z" />
<glyph unicode="&#x49e;" horiz-adv-x="654" d="M311 571l-36 -211l353 340h131l-363 -350l261 -350h-134l-251 338l-57 -338h-105l96 571h-93l12 72h93l9 57h105l-9 -57h115l-12 -72h-115z" />
<glyph unicode="&#x49f;" horiz-adv-x="552" d="M196 0h-101l96 573h-82l11 68h82l10 59h101l-10 -59h145l-11 -68h-145l-53 -315l255 242h122l-265 -250l196 -250h-127l-185 236z" />
<glyph unicode="&#x4a0;" horiz-adv-x="880" d="M441 0h-105l101 604h-325l16 96h430l-57 -340l353 340h131l-363 -350l261 -350h-134l-251 338z" />
<glyph unicode="&#x4a1;" horiz-adv-x="687" d="M370 236l-39 -236h-101l68 409h-219l16 91h320l-41 -242l255 242h122l-265 -250l196 -250h-127z" />
<glyph unicode="&#x4a2;" horiz-adv-x="726" d="M83 0l117 700h105l-49 -296h340l49 296h105l-101 -604h72l-39 -236h-105l23 140h-72l52 308h-340l-52 -308h-105z" />
<glyph unicode="&#x4a3;" horiz-adv-x="603" d="M483 0h-75l34 205h-239l-34 -205h-101l84 500h101l-34 -204h239l34 204h101l-69 -409h73l-38 -231h-99z" />
<glyph unicode="&#x4a4;" horiz-adv-x="947" d="M610 0h-105l52 308h-317l-52 -308h-105l117 700h105l-49 -296h317l49 296h430l-16 -96h-325z" />
<glyph unicode="&#x4a5;" horiz-adv-x="721" d="M491 0h-101l34 205h-221l-34 -205h-101l84 500h101l-34 -204h221l34 204h320l-16 -91h-219z" />
<glyph unicode="&#x4a6;" horiz-adv-x="1077" d="M83 0l117 700h550l-52 -313q82 24 153 24q129 0 181.5 -82t30.5 -212q-23 -134 -109.5 -218.5t-225.5 -84.5l16 94q88 0 143 57t71 152q15 90 -20 144.5t-125 54.5q-62 0 -131 -22l-49 -294h-105l101 604h-340l-101 -604h-105z" />
<glyph unicode="&#x4a7;" horiz-adv-x="826" d="M509 0h-101l68 409h-239l-68 -409h-101l84 500h441l-39 -232q58 18 106 18q93 0 132 -61.5t23 -154.5q-18 -108 -83.5 -172t-169.5 -64l15 88q56 1 90.5 40t46.5 107q10 57 -13 92.5t-80 35.5q-40 0 -82 -15z" />
<glyph unicode="&#x4aa;" horiz-adv-x="716" d="M613 259h106q-34 -110 -108.5 -182t-188.5 -86l-22 -131h-105l22 131q-69 9 -118.5 43t-73 83t-32 109.5t4.5 123.5q12 71 42 134t77.5 115t117.5 82.5t154 30.5q138 0 200.5 -74t60.5 -197h-106q-3 173 -171 173q-112 0 -182 -77t-88 -187q-19 -110 25 -187t156 -77 q168 0 229 173z" />
<glyph unicode="&#x4ab;" horiz-adv-x="562" d="M450 181h103q-55 -164 -214 -189l-22 -132h-99l22 132q-98 16 -136.5 89t-22.5 169q18 108 94.5 185t200.5 77q104 0 152 -53t48 -140h-103q-7 101 -113 101q-74 0 -120 -49.5t-58 -120.5t17 -120.5t104 -49.5q106 0 147 101z" />
<glyph unicode="&#x4ac;" horiz-adv-x="582" d="M444 604l-85 -508h72l-39 -236h-105l23 140h-72l101 604h-217l16 96h539l-16 -96h-217z" />
<glyph unicode="&#x4ad;" horiz-adv-x="465" d="M535 500l-16 -91h-168l-53 -318h73l-38 -231h-99l23 140h-75l68 409h-168l16 91h437z" />
<glyph unicode="&#x4ae;" horiz-adv-x="626" d="M269 275l-140 425h113l121 -395h1l253 395h113l-282 -425h-37l-46 -275h-105l46 275h-37z" />
<glyph unicode="&#x4af;" horiz-adv-x="520" d="M597 500l-247 -500h-39l-33 -195h-101l33 195h-40l-79 500h106l66 -475h2l226 475h106z" />
<glyph unicode="&#x4b0;" horiz-adv-x="626" d="M269 275l-140 425h113l121 -395h1l253 395h113l-282 -425h130l-10 -58h-167l-36 -217h-105l36 217h-167l10 58h130z" />
<glyph unicode="&#x4b1;" horiz-adv-x="520" d="M597 500l-247 -500h118l-10 -58h-157l-23 -137h-101l23 137h-157l10 58h117l-79 500h106l66 -475h2l226 475h106z" />
<glyph unicode="&#x4b2;" horiz-adv-x="651" d="M696 700l-226 -334l96 -270h111l-39 -236h-105l23 140h-72l-118 351h-2l-236 -351h-116l252 366l-114 334h114l105 -319h2l211 319h114z" />
<glyph unicode="&#x4b3;" horiz-adv-x="560" d="M205 257l-95 243h109l80 -232h2l158 232h109l-177 -243l69 -166h115l-38 -231h-99l23 140h-75l-89 246h-2l-171 -246h-112z" />
<glyph unicode="&#x4b4;" horiz-adv-x="876" d="M444 604l-85 -508h320l101 604h105l-101 -604h72l-39 -236h-105l23 140h-497l101 604h-217l16 96h514l-16 -96h-192z" />
<glyph unicode="&#x4b5;" horiz-adv-x="709" d="M510 500l-16 -91h-143l-53 -318h229l69 409h101l-69 -409h73l-38 -231h-99l23 140h-405l68 409h-168l16 91h412z" />
<glyph unicode="&#x4b6;" horiz-adv-x="686" d="M590 700h105l-101 -604h72l-39 -236h-105l23 140h-72l43 259q-89 -31 -168 -31q-118 0 -172.5 59.5t-35.5 174.5l40 238h105l-36 -218q-14 -80 11.5 -119t106.5 -39q77 0 166 34z" />
<glyph unicode="&#x4b7;" horiz-adv-x="574" d="M461 500h101l-69 -409h73l-38 -231h-99l23 140h-75l29 173q-54 -19 -133 -19q-199 0 -167 191l26 155h101l-25 -150q-10 -56 12 -81t77 -25q70 0 124 19z" />
<glyph unicode="&#x4b8;" horiz-adv-x="661" d="M590 700h105l-117 -700h-105l43 259q-70 -24 -132 -29l-21 -129h-66l21 128q-103 8 -149.5 67t-28.5 166l40 238h105l-36 -218q-12 -71 6.5 -109.5t79.5 -46.5l20 125h66l-21 -125q61 4 133 32z" />
<glyph unicode="&#x4b9;" horiz-adv-x="546" d="M298 58h-62l16 97q-176 9 -146 190l26 155h101l-25 -150q-16 -92 59 -104l17 102h62l-17 -103q47 3 92 18l40 237h101l-84 -500h-101l29 173q-37 -13 -92 -18z" />
<glyph unicode="&#x4ba;" horiz-adv-x="662" d="M188 0h-105l117 700h105l-44 -266q89 31 168 31q118 0 172.5 -59.5t35.5 -174.5l-39 -231h-105l35 211q14 80 -11.5 119t-106.5 39q-77 0 -166 -34z" />
<glyph unicode="&#x4bb;" horiz-adv-x="573" d="M509 0h-101l50 297q11 64 -8 93.5t-73 29.5q-62 0 -106.5 -40.5t-56.5 -111.5l-45 -268h-101l117 700h101l-46 -274q66 86 174 86q180 0 145 -212z" />
<glyph unicode="&#x4c0;" horiz-adv-x="272" d="M83 0l117 700h105l-117 -700h-105z" />
<glyph unicode="&#x4c1;" horiz-adv-x="883" d="M437 916h73q-5 -35 14 -57t58 -22t66 22t32 57h73q-11 -64 -60.5 -104.5t-121.5 -40.5t-108.5 40.5t-25.5 104.5zM611 700l-57 -340l311 340h123l-319 -350l217 -350h-126l-209 338l-57 -338h-105l57 338l-323 -338h-126l335 350l-203 350h123l197 -340l57 340h105z" />
<glyph unicode="&#x4c2;" horiz-adv-x="731" d="M328 716h73q-6 -35 13.5 -57t58.5 -22t65.5 22t32.5 57h73q-11 -64 -60.5 -104.5t-121.5 -40.5t-108.5 40.5t-25.5 104.5zM500 500l-41 -241l220 241h116l-231 -250l162 -250h-120l-150 237l-40 -237h-101l40 237l-230 -237h-120l246 250l-147 250h116l138 -241l41 241 h101z" />
<glyph unicode="&#x4c5;" horiz-adv-x="738" d="M40 0h-32l16 96h21q31 0 55 15t38.5 34.5t26 51.5t16 53t9.5 52l66 398h492l-101 -604h90l-120 -236h-100l71 140h-62l101 604h-282l-50 -302q-6 -36 -11.5 -61t-18 -64.5t-30.5 -67t-44 -54.5t-64.5 -41t-86.5 -14z" />
<glyph unicode="&#x4c6;" horiz-adv-x="597" d="M33 0h-28l15 91h17q19 0 34.5 9.5t24 21.5t15.5 32.5t10 32.5t6 31l48 282h409l-69 -409h88l-117 -231h-96l71 140h-62l68 409h-207l-32 -191q-5 -32 -10 -53.5t-19.5 -56t-33.5 -55.5t-53.5 -37t-78.5 -16z" />
<glyph unicode="&#x4c7;" horiz-adv-x="717" d="M83 0l117 700h105l-49 -296h340l49 296h105l-127 -761q-11 -70 -52.5 -108t-109.5 -38q-31 0 -56 6l15 90q16 -3 33 -3q56 0 67 64l60 358h-340l-52 -308h-105z" />
<glyph unicode="&#x4c8;" horiz-adv-x="578" d="M593 500l-94 -560q-11 -70 -52.5 -108t-108.5 -38q-29 0 -53 5l15 85q15 -3 32 -3q56 0 67 64l43 260h-239l-34 -205h-101l84 500h101l-34 -204h239l34 204h101z" />
<glyph unicode="&#x4c9;" horiz-adv-x="740" d="M83 0l117 700h105l-49 -296h340l49 296h105l-101 -604h90l-120 -236h-100l71 140h-62l52 308h-340l-52 -308h-105z" />
<glyph unicode="&#x4ca;" horiz-adv-x="606" d="M470 0h-62l34 205h-239l-34 -205h-101l84 500h101l-34 -204h239l34 204h101l-69 -409h88l-117 -231h-96z" />
<glyph unicode="&#x4cb;" horiz-adv-x="662" d="M590 700h105l-117 -700h-72l-23 -140h-105l38 229h72l28 170q-89 -31 -168 -31q-118 0 -172.5 59.5t-35.5 174.5l40 238h105l-36 -218q-14 -80 11.5 -119t106.5 -39q77 0 166 34z" />
<glyph unicode="&#x4cc;" horiz-adv-x="547" d="M461 500h101l-84 -500h-75l-23 -140h-99l36 218h73l16 95q-54 -19 -133 -19q-199 0 -167 191l26 155h101l-25 -150q-10 -56 12 -81t77 -25q70 0 124 19z" />
<glyph unicode="&#x4cd;" horiz-adv-x="930" d="M746 700h194l-101 -604h90l-120 -236h-100l71 140h-62l112 670h-2l-287 -670h-176l-63 670h-2l-112 -670h-105l117 700h194l63 -670h2z" />
<glyph unicode="&#x4ce;" horiz-adv-x="765" d="M570 500h182l-69 -409h88l-117 -231h-96l71 140h-62l79 475h-2l-196 -475h-160l-38 475h-2l-79 -475h-101l84 500h182l37 -475h2z" />
<glyph unicode="&#x4cf;" horiz-adv-x="238" d="M68 0l117 700h101l-117 -700h-101z" />
<glyph unicode="&#x4d0;" horiz-adv-x="664" d="M443 670l-198 -408h262l-62 408h-2zM118 0h-111l350 700h184l116 -700h-111l-25 166h-322zM327 916h73q-5 -35 14 -57t58 -22t66 22t32 57h73q-11 -64 -60.5 -104.5t-121.5 -40.5t-108.5 40.5t-25.5 104.5z" />
<glyph unicode="&#x4d1;" horiz-adv-x="609" d="M482 250q12 72 -18 121.5t-104 49.5q-75 0 -120.5 -49.5t-57.5 -121.5t17 -121.5t104 -49.5q74 0 120.5 49.5t58.5 121.5zM541 0h-101l11 66q-75 -78 -181 -78q-62 0 -105 23.5t-61.5 61t-26 84.5t3.5 93q8 49 28 93.5t53 83.5t83.5 62t112.5 23q106 0 155 -78l11 66h101 zM252 716h73q-6 -35 13.5 -57t58.5 -22t65.5 22t32.5 57h73q-11 -64 -60.5 -104.5t-121.5 -40.5t-108.5 40.5t-25.5 104.5z" />
<glyph unicode="&#x4d2;" horiz-adv-x="664" d="M443 670l-198 -408h262l-62 408h-2zM118 0h-111l350 700h184l116 -700h-111l-25 166h-322zM322 832q5 24 23.5 40t42.5 16t37 -16t9 -40t-22.5 -40t-42.5 -16t-37.5 16t-9.5 40zM508 832q5 24 23.5 40t42.5 16t37 -16t9 -40t-22.5 -40t-42.5 -16t-37.5 16t-9.5 40z" />
<glyph unicode="&#x4d3;" horiz-adv-x="610" d="M482 250q12 72 -18 121.5t-104 49.5q-75 0 -120.5 -49.5t-57.5 -121.5t17 -121.5t104 -49.5q74 0 120.5 49.5t58.5 121.5zM541 0h-101l11 66q-75 -78 -181 -78q-62 0 -105 23.5t-61.5 61t-26 84.5t3.5 93q8 49 28 93.5t53 83.5t83.5 62t112.5 23q106 0 155 -78l11 66h101 zM247 632q4 24 22.5 40t42.5 16t37.5 -16t9.5 -40q-5 -24 -23.5 -40t-42.5 -16t-37 16t-9 40zM433 632q4 24 22.5 40t42.5 16t37.5 -16t9.5 -40q-5 -24 -23.5 -40t-42.5 -16t-37 16t-9 40z" />
<glyph unicode="&#x4d4;" horiz-adv-x="1026" d="M604 670l-290 -408h224l68 408h-2zM128 0h-121l509 700h568l-16 -95h-368l-34 -204h344l-15 -92h-344l-36 -214h380l-16 -95h-485l28 166h-276z" />
<glyph unicode="&#x4d5;" horiz-adv-x="961" d="M482 250q12 72 -18 121.5t-104 49.5q-75 0 -120.5 -49.5t-57.5 -121.5t17 -121.5t104 -49.5q74 0 120.5 49.5t58.5 121.5zM594 297h272q1 59 -27.5 94.5t-87.5 35.5t-99 -35.5t-58 -94.5zM541 0h-101l11 66q-75 -78 -181 -78q-62 0 -105 23.5t-61.5 61t-26 84.5t3.5 93 q8 49 28 93.5t53 83.5t83.5 62t112.5 23q106 0 155 -78l11 66h101l-11 -66q63 78 167 78q74 0 120 -39t60 -97t2 -126l-5 -27h-380q-4 -66 23 -107.5t91 -41.5q98 0 140 74h103q-33 -75 -95 -117.5t-149 -42.5q-111 0 -139 78z" />
<glyph unicode="&#x4d6;" horiz-adv-x="615" d="M321 916h73q-5 -35 14 -57t58 -22t66 22t32 57h73q-11 -64 -60.5 -104.5t-121.5 -40.5t-108.5 40.5t-25.5 104.5zM240 309l-36 -214h380l-16 -95h-485l117 700h473l-16 -95h-368l-34 -204h344l-15 -92h-344z" />
<glyph unicode="&#x4d7;" horiz-adv-x="560" d="M194 297h272q0 59 -28 94.5t-87 35.5q-114 0 -157 -130zM432 148h103q-70 -160 -257 -160q-61 0 -105.5 22.5t-65 59.5t-29 84t2.5 96q18 108 92 185t193 77q61 0 105.5 -22.5t65 -59.5t29 -84t-2.5 -96l-5 -27h-380q-5 -66 22.5 -107.5t91.5 -41.5q98 0 140 74zM242 716 h73q-6 -35 13.5 -57t58.5 -22t65.5 22t32.5 57h73q-11 -64 -60.5 -104.5t-121.5 -40.5t-108.5 40.5t-25.5 104.5z" />
<glyph unicode="&#x4d8;" horiz-adv-x="723" d="M616 274h-420q-4 -189 170 -189q91 0 155 52.5t95 136.5zM742 350q-12 -71 -42.5 -134t-77.5 -115t-117.5 -82.5t-154.5 -30.5t-142 29.5t-83.5 79t-33.5 115.5t7 138v4h539q17 109 -27 184.5t-155 75.5q-159 0 -224 -159h-107q41 117 127.5 187t219.5 70q67 0 120 -20 t84.5 -55t51 -81t21 -98.5t-5.5 -107.5z" />
<glyph unicode="&#x4d9;" horiz-adv-x="562" d="M451 203h-272q0 -59 27.5 -94.5t86.5 -35.5t99 35.5t59 94.5zM213 352h-103q70 160 257 160q61 0 105.5 -22.5t65 -59.5t29 -84t-2.5 -96q-18 -108 -92 -185t-193 -77q-61 0 -105.5 22.5t-65 59.5t-29 84t2.5 96l4 27h380q6 66 -22 107.5t-92 41.5q-98 0 -139 -74z" />
<glyph unicode="&#x4da;" horiz-adv-x="722" d="M616 274h-420q-4 -189 170 -189q91 0 155 52.5t95 136.5zM742 350q-12 -71 -42.5 -134t-77.5 -115t-117.5 -82.5t-154.5 -30.5t-142 29.5t-83.5 79t-33.5 115.5t7 138v4h539q17 109 -27 184.5t-155 75.5q-159 0 -224 -159h-107q41 117 127.5 187t219.5 70q67 0 120 -20 t84.5 -55t51 -81t21 -98.5t-5.5 -107.5zM342 832q5 24 23.5 40t42.5 16t37 -16t9 -40t-22.5 -40t-42.5 -16t-37.5 16t-9.5 40zM528 832q5 24 23.5 40t42.5 16t37 -16t9 -40t-22.5 -40t-42.5 -16t-37.5 16t-9.5 40z" />
<glyph unicode="&#x4db;" horiz-adv-x="560" d="M450 203h-272q0 -59 27.5 -94.5t86.5 -35.5t99 35.5t59 94.5zM212 352h-103q70 160 257 160q61 0 105.5 -22.5t65 -59.5t29 -84t-2.5 -96q-18 -108 -92 -185t-193 -77q-61 0 -105.5 22.5t-65 59.5t-29 84t2.5 96l4 27h380q6 66 -22 107.5t-92 41.5q-98 0 -139 -74z M237 632q4 24 22.5 40t42.5 16t37.5 -16t9.5 -40q-5 -24 -23.5 -40t-42.5 -16t-37 16t-9 40zM423 632q4 24 22.5 40t42.5 16t37.5 -16t9.5 -40q-5 -24 -23.5 -40t-42.5 -16t-37 16t-9 40z" />
<glyph unicode="&#x4dc;" horiz-adv-x="883" d="M432 832q5 24 23.5 40t42.5 16t37 -16t9 -40t-22.5 -40t-42.5 -16t-37.5 16t-9.5 40zM618 832q5 24 23.5 40t42.5 16t37 -16t9 -40t-22.5 -40t-42.5 -16t-37.5 16t-9.5 40zM611 700l-57 -340l311 340h123l-319 -350l217 -350h-126l-209 338l-57 -338h-105l57 338 l-323 -338h-126l335 350l-203 350h123l197 -340l57 340h105z" />
<glyph unicode="&#x4dd;" horiz-adv-x="731" d="M323 632q4 24 22.5 40t42.5 16t37.5 -16t9.5 -40q-5 -24 -23.5 -40t-42.5 -16t-37 16t-9 40zM509 632q4 24 22.5 40t42.5 16t37.5 -16t9.5 -40q-5 -24 -23.5 -40t-42.5 -16t-37 16t-9 40zM500 500l-41 -241l220 241h116l-231 -250l162 -250h-120l-150 237l-40 -237h-101 l40 237l-230 -237h-120l246 250l-147 250h116l138 -241l41 241h101z" />
<glyph unicode="&#x4de;" horiz-adv-x="614" d="M294 832q5 24 23.5 40t42.5 16t37 -16t9 -40t-22.5 -40t-42.5 -16t-37.5 16t-9.5 40zM480 832q5 24 23.5 40t42.5 16t37 -16t9 -40t-22.5 -40t-42.5 -16t-37.5 16t-9.5 40zM358 306h-71l15 91h68q63 0 108 25.5t54 81.5q10 57 -26 86.5t-98 29.5q-60 0 -105 -31t-61 -91 h-105q25 105 104.5 159.5t181.5 54.5q67 0 118.5 -20.5t79.5 -68.5t17 -117q-18 -102 -116 -151q106 -48 87 -160q-17 -102 -104.5 -154.5t-199.5 -52.5q-109 0 -176.5 55t-56.5 160h105q-4 -60 36.5 -91.5t106.5 -31.5q68 0 121 29.5t63 87.5q10 56 -33 82.5t-113 26.5z " />
<glyph unicode="&#x4df;" horiz-adv-x="494" d="M205 632q4 24 22.5 40t42.5 16t37.5 -16t9.5 -40q-5 -24 -23.5 -40t-42.5 -16t-37 16t-9 40zM391 632q4 24 22.5 40t42.5 16t37.5 -16t9.5 -40q-5 -24 -23.5 -40t-42.5 -16t-37 16t-9 40zM283 213h-46l13 80h44q40 0 70.5 16.5t36.5 52.5t-19 52.5t-65 16.5 q-41 0 -71 -19.5t-40 -58.5h-99q19 78 81.5 118.5t145.5 40.5q80 0 130 -37.5t38 -109.5q-12 -75 -83 -110q74 -36 60 -116q-12 -74 -79 -112.5t-151 -38.5q-87 0 -140.5 41.5t-45.5 119.5h101q-3 -39 24 -59.5t71 -20.5q45 0 79.5 18t40.5 54t-22.5 54t-73.5 18z" />
<glyph unicode="&#x4e2;" horiz-adv-x="751" d="M649 782h-284l12 71h284zM589 700h196l-117 -700h-105l112 670h-2l-394 -670h-196l117 700h105l-112 -670h2z" />
<glyph unicode="&#x4e3;" horiz-adv-x="604" d="M541 582h-284l12 71h284zM433 500h187l-84 -500h-101l79 475h-2l-257 -475h-187l84 500h101l-80 -475h2z" />
<glyph unicode="&#x4e4;" horiz-adv-x="751" d="M366 832q5 24 23.5 40t42.5 16t37 -16t9 -40t-22.5 -40t-42.5 -16t-37.5 16t-9.5 40zM552 832q5 24 23.5 40t42.5 16t37 -16t9 -40t-22.5 -40t-42.5 -16t-37.5 16t-9.5 40zM589 700h196l-117 -700h-105l112 670h-2l-394 -670h-196l117 700h105l-112 -670h2z" />
<glyph unicode="&#x4e5;" horiz-adv-x="604" d="M259 632q4 24 22.5 40t42.5 16t37.5 -16t9.5 -40q-5 -24 -23.5 -40t-42.5 -16t-37 16t-9 40zM445 632q4 24 22.5 40t42.5 16t37.5 -16t9.5 -40q-5 -24 -23.5 -40t-42.5 -16t-37 16t-9 40zM433 500h187l-84 -500h-101l79 475h-2l-257 -475h-187l84 500h101l-80 -475h2z " />
<glyph unicode="&#x4e6;" horiz-adv-x="740" d="M360 832q5 24 23.5 40t42.5 16t37 -16t9 -40t-22.5 -40t-42.5 -16t-37.5 16t-9.5 40zM546 832q5 24 23.5 40t42.5 16t37 -16t9 -40t-22.5 -40t-42.5 -16t-37.5 16t-9.5 40zM98 350q12 70 42 133.5t77 115.5t117.5 82.5t154.5 30.5q67 0 120 -20t84.5 -55t51 -81t21 -98.5 t-5.5 -107.5q-12 -71 -42.5 -134t-77.5 -115t-117.5 -82.5t-154.5 -30.5q-67 0 -120 20t-84.5 55t-51 81t-20.5 98.5t6 107.5zM655 350q18 110 -26 187t-156 77t-182 -77t-88 -187q-19 -110 25 -187t156 -77t182 77t89 187z" />
<glyph unicode="&#x4e7;" horiz-adv-x="580" d="M247 632q4 24 22.5 40t42.5 16t37.5 -16t9.5 -40q-5 -24 -23.5 -40t-42.5 -16t-37 16t-9 40zM433 632q4 24 22.5 40t42.5 16t37.5 -16t9.5 -40q-5 -24 -23.5 -40t-42.5 -16t-37 16t-9 40zM81 250q18 108 94.5 185t200.5 77q64 0 110 -22.5t68 -59.5t31 -84t-2 -96 q-18 -108 -94.5 -185t-200.5 -77q-64 0 -110 22.5t-68 59.5t-31 84t2 96zM482 250q12 71 -18 120.5t-104 49.5t-120 -49.5t-58 -120.5t17 -120.5t104 -49.5q74 0 120.5 49.5t58.5 120.5z" />
<glyph unicode="&#x4e8;" horiz-adv-x="741" d="M647 314h-448q-8 -98 37 -163t148 -65t170 64.5t93 163.5zM211 386h448q7 99 -38 163.5t-148 64.5t-170 -64.5t-92 -163.5zM98 350q12 70 42 133.5t77 115.5t117.5 82.5t154.5 30.5q67 0 120 -20t84.5 -55t51 -81t21 -98.5t-5.5 -107.5q-12 -71 -42.5 -134t-77.5 -115 t-117.5 -82.5t-154.5 -30.5q-67 0 -120 20t-84.5 55t-51 81t-20.5 98.5t6 107.5z" />
<glyph unicode="&#x4e9;" horiz-adv-x="581" d="M475 216h-298q-2 -60 29 -98.5t97 -38.5t110 39t62 98zM189 284h298q2 59 -29.5 98t-97.5 39t-109.5 -38.5t-61.5 -98.5zM81 250q18 108 94.5 185t200.5 77q64 0 110 -22.5t68 -59.5t31 -84t-2 -96q-18 -108 -94.5 -185t-200.5 -77q-64 0 -110 22.5t-68 59.5t-31 84t2 96 z" />
<glyph unicode="&#x4ea;" horiz-adv-x="740" d="M647 314h-448q-8 -98 37 -163t148 -65t170 64.5t93 163.5zM211 386h448q7 99 -38 163.5t-148 64.5t-170 -64.5t-92 -163.5zM98 350q12 70 42 133.5t77 115.5t117.5 82.5t154.5 30.5q67 0 120 -20t84.5 -55t51 -81t21 -98.5t-5.5 -107.5q-12 -71 -42.5 -134t-77.5 -115 t-117.5 -82.5t-154.5 -30.5q-67 0 -120 20t-84.5 55t-51 81t-20.5 98.5t6 107.5zM360 832q5 24 23.5 40t42.5 16t37 -16t9 -40t-22.5 -40t-42.5 -16t-37.5 16t-9.5 40zM546 832q5 24 23.5 40t42.5 16t37 -16t9 -40t-22.5 -40t-42.5 -16t-37.5 16t-9.5 40z" />
<glyph unicode="&#x4eb;" horiz-adv-x="580" d="M475 216h-298q-2 -60 29 -98.5t97 -38.5t110 39t62 98zM189 284h298q2 59 -29.5 98t-97.5 39t-109.5 -38.5t-61.5 -98.5zM81 250q18 108 94.5 185t200.5 77q64 0 110 -22.5t68 -59.5t31 -84t-2 -96q-18 -108 -94.5 -185t-200.5 -77q-64 0 -110 22.5t-68 59.5t-31 84t2 96 zM247 632q4 24 22.5 40t42.5 16t37.5 -16t9.5 -40q-5 -24 -23.5 -40t-42.5 -16t-37 16t-9 40zM433 632q4 24 22.5 40t42.5 16t37.5 -16t9.5 -40q-5 -24 -23.5 -40t-42.5 -16t-37 16t-9 40z" />
<glyph unicode="&#x4ec;" horiz-adv-x="713" d="M333 832q5 24 23.5 40t42.5 16t37 -16t9 -40t-22.5 -40t-42.5 -16t-37.5 16t-9.5 40zM519 832q5 24 23.5 40t42.5 16t37 -16t9 -40t-22.5 -40t-42.5 -16t-37.5 16t-9.5 40zM357 85q100 0 166 61.5t94 156.5h-301l15 94h301q5 95 -40.5 156.5t-145.5 61.5 q-160 0 -224 -160h-107q39 116 127 186.5t220 70.5q67 0 120 -20t84.5 -55t51 -81t21 -98.5t-5.5 -107.5q-12 -71 -42.5 -134t-77.5 -115t-117.5 -82.5t-154.5 -30.5q-132 0 -196 70.5t-65 186.5h107q9 -160 170 -160z" />
<glyph unicode="&#x4ed;" horiz-adv-x="561" d="M228 632q4 24 22.5 40t42.5 16t37.5 -16t9.5 -40q-5 -24 -23.5 -40t-42.5 -16t-37 16t-9 40zM414 632q4 24 22.5 40t42.5 16t37.5 -16t9.5 -40q-5 -24 -23.5 -40t-42.5 -16t-37 16t-9 40zM269 -12q-102 0 -151 52t-49 138h103q7 -101 112 -101q63 0 106.5 37t62.5 95 h-201l14 82h201q0 58 -31 95t-94 37q-106 0 -146 -101h-103q29 86 95.5 138t168.5 52q64 0 110 -22.5t68 -59.5t31 -84t-2 -96q-18 -108 -94.5 -185t-200.5 -77z" />
<glyph unicode="&#x4ee;" horiz-adv-x="599" d="M575 782h-284l12 71h284zM283 0h-110l118 195l-157 505h112l117 -387l231 387h110z" />
<glyph unicode="&#x4ef;" horiz-adv-x="530" d="M504 582h-284l12 71h284zM602 500l-333 -695h-104l93 195h-86l-76 500h105l67 -475h2l227 475h105z" />
<glyph unicode="&#x4f0;" horiz-adv-x="599" d="M292 832q5 24 23.5 40t42.5 16t37 -16t9 -40t-22.5 -40t-42.5 -16t-37.5 16t-9.5 40zM478 832q5 24 23.5 40t42.5 16t37 -16t9 -40t-22.5 -40t-42.5 -16t-37.5 16t-9.5 40zM283 0h-110l118 195l-157 505h112l117 -387l231 387h110z" />
<glyph unicode="&#x4f1;" horiz-adv-x="530" d="M222 632q4 24 22.5 40t42.5 16t37.5 -16t9.5 -40q-5 -24 -23.5 -40t-42.5 -16t-37 16t-9 40zM408 632q4 24 22.5 40t42.5 16t37.5 -16t9.5 -40q-5 -24 -23.5 -40t-42.5 -16t-37 16t-9 40zM602 500l-333 -695h-104l93 195h-86l-76 500h105l67 -475h2l227 475h105z" />
<glyph unicode="&#x4f2;" horiz-adv-x="599" d="M516 915l-135 -142h-71l95 142h111zM687 915l-135 -142h-71l95 142h111zM283 0h-110l118 195l-157 505h112l117 -387l231 387h110z" />
<glyph unicode="&#x4f3;" horiz-adv-x="530" d="M446 715l-135 -142h-71l95 142h111zM617 715l-135 -142h-71l95 142h111zM602 500l-333 -695h-104l93 195h-86l-76 500h105l67 -475h2l227 475h105z" />
<glyph unicode="&#x4f4;" horiz-adv-x="661" d="M311 832q5 24 23.5 40t42.5 16t37 -16t9 -40t-22.5 -40t-42.5 -16t-37.5 16t-9.5 40zM497 832q5 24 23.5 40t42.5 16t37 -16t9 -40t-22.5 -40t-42.5 -16t-37.5 16t-9.5 40zM590 700h105l-117 -700h-105l43 259q-89 -31 -168 -31q-118 0 -172.5 59.5t-35.5 174.5l40 238 h105l-36 -218q-14 -80 11.5 -119t106.5 -39q77 0 166 34z" />
<glyph unicode="&#x4f5;" horiz-adv-x="546" d="M220 632q4 24 22.5 40t42.5 16t37.5 -16t9.5 -40q-5 -24 -23.5 -40t-42.5 -16t-37 16t-9 40zM406 632q4 24 22.5 40t42.5 16t37.5 -16t9.5 -40q-5 -24 -23.5 -40t-42.5 -16t-37 16t-9 40zM461 500h101l-84 -500h-101l29 173q-54 -19 -133 -19q-199 0 -167 191l26 155h101 l-25 -150q-10 -56 12 -81t77 -25q70 0 124 19z" />
<glyph unicode="&#x4f6;" horiz-adv-x="555" d="M132 -140l23 140h-72l117 700h460l-16 -96h-355l-85 -508h72l-39 -236h-105z" />
<glyph unicode="&#x4f7;" horiz-adv-x="419" d="M492 500l-16 -91h-239l-53 -318h73l-38 -231h-99l23 140h-75l84 500h340z" />
<glyph unicode="&#x4f8;" horiz-adv-x="881" d="M204 95h177q60 0 105.5 39t55.5 99t-22.5 99t-92.5 39h-177zM266 466h180q104 0 161 -66t40 -167t-96 -167t-183 -66h-285l117 700h105zM798 0h-105l117 700h105zM431 832q5 24 23.5 40t42.5 16t37 -16t9 -40t-22.5 -40t-42.5 -16t-37.5 16t-9.5 40zM617 832 q5 24 23.5 40t42.5 16t37 -16t9 -40t-22.5 -40t-42.5 -16t-37.5 16t-9.5 40z" />
<glyph unicode="&#x4f9;" horiz-adv-x="719" d="M401 164q6 34 -12.5 56t-52.5 22h-127l-26 -156h127q34 0 60 22t31 56zM301 0h-233l84 500h101l-29 -172h132q77 0 117.5 -46t28.5 -118q-11 -72 -67.5 -118t-133.5 -46zM735 500l-84 -500h-101l84 500h101zM317 632q4 24 22.5 40t42.5 16t37.5 -16t9.5 -40 q-5 -24 -23.5 -40t-42.5 -16t-37 16t-9 40zM503 632q4 24 22.5 40t42.5 16t37.5 -16t9.5 -40q-5 -24 -23.5 -40t-42.5 -16t-37 16t-9 40z" />
<glyph unicode="&#x4fa;" horiz-adv-x="582" d="M227 700h460l-16 -96h-355l-36 -218h180l-12 -72h-180l-63 -375q-11 -70 -52.5 -108t-109.5 -38q-31 0 -56 6l15 90q16 -3 33 -3q56 0 67 64l61 364h-93l12 72h93z" />
<glyph unicode="&#x4fb;" horiz-adv-x="446" d="M519 500l-16 -91h-239l-22 -133h145l-11 -68h-145l-45 -268q-11 -70 -52.5 -108t-108.5 -38q-29 0 -53 5l15 85q15 -3 32 -3q56 0 67 64l44 263h-82l11 68h82l38 224h340z" />
<glyph unicode="&#x4fc;" horiz-adv-x="661" d="M696 700l-226 -334l96 -270h111l-26 -157q-11 -70 -52.5 -108t-109.5 -38q-31 0 -56 6l15 90q16 -3 33 -3q57 0 67 64l8 50h-72l-118 351h-2l-236 -351h-116l252 366l-114 334h114l105 -319h2l211 319h114z" />
<glyph unicode="&#x4fd;" horiz-adv-x="560" d="M205 257l-95 243h109l80 -232h2l158 232h109l-177 -243l69 -166h115l-25 -151q-24 -146 -159 -146q-29 0 -53 5l15 85q15 -3 32 -3q56 0 67 64l9 55h-75l-89 246h-2l-171 -246h-112z" />
<glyph unicode="&#x4fe;" horiz-adv-x="612" d="M494 402h99l-12 -72h-98l117 -330h-116l-118 351h-2l-236 -351h-116l227 330h-98l12 72h99l-102 298h114l105 -319h2l211 319h114z" />
<glyph unicode="&#x4ff;" horiz-adv-x="510" d="M412 286h99l-10 -58h-98l95 -228h-112l-89 246h-2l-171 -246h-112l171 228h-98l10 58h99l-84 214h109l80 -232h2l158 232h109z" />
<glyph unicode="&#x510;" horiz-adv-x="614" d="M357 306q-70 0 -121 -26.5t-61 -82.5q-10 -58 33 -87.5t111 -29.5q67 0 118 31.5t67 91.5h105q-25 -105 -110.5 -160t-194.5 -55q-112 0 -181.5 52.5t-52.5 154.5q19 112 139 160q-82 49 -64 151q17 102 97.5 154t185.5 52q102 0 163.5 -54.5t50.5 -159.5h-105 q4 60 -30 91t-94 31q-62 0 -108 -29.5t-56 -86.5q-9 -56 27 -81.5t99 -25.5h68l-15 -91h-71z" />
<glyph unicode="&#x511;" horiz-adv-x="494" d="M283 213q-46 0 -80 -18t-40 -54t22 -54t74 -18q44 0 77.5 20.5t43.5 59.5h101q-18 -78 -85.5 -119.5t-154.5 -41.5q-84 0 -138 38.5t-42 112.5q14 80 100 116q-60 35 -47 110q12 72 75 109.5t143 37.5q83 0 131 -40.5t42 -118.5h-99q3 39 -20.5 58.5t-64.5 19.5 q-40 0 -70 -16.5t-36 -52.5t18.5 -52.5t64.5 -16.5h44l-13 -80h-46z" />
<glyph unicode="&#x512;" horiz-adv-x="715" d="M40 0h-32l16 96h21q31 0 55 15t38.5 34.5t26 51.5t16 53t9.5 52l66 398h492l-127 -761q-11 -70 -52.5 -108t-109.5 -38q-31 0 -56 6l15 90q16 -3 33 -3q56 0 67 64l109 654h-282l-50 -302q-6 -36 -11.5 -61t-18 -64.5t-30.5 -67t-44 -54.5t-64.5 -41t-86.5 -14z" />
<glyph unicode="&#x513;" horiz-adv-x="569" d="M33 0h-28l15 91h17q19 0 34.5 9.5t24 21.5t15.5 32.5t10 32.5t6 31l48 282h409l-94 -560q-11 -70 -52.5 -108t-108.5 -38q-29 0 -53 5l15 85q15 -3 32 -3q56 0 67 64l77 464h-207l-32 -191q-5 -32 -10 -53.5t-19.5 -56t-33.5 -55.5t-53.5 -37t-78.5 -16z" />
<glyph unicode="&#x51c;" horiz-adv-x="982" d="M244 700l34 -670h2l241 670h174l17 -670h2l258 670h108l-279 -700h-180l-17 670h-2l-241 -670h-180l-45 700h108z" />
<glyph unicode="&#x51d;" horiz-adv-x="794" d="M209 500l24 -475h2l164 475h164l4 -475h2l184 475h103l-204 -500h-170l-5 475h-2l-163 -475h-170l-36 500h103z" />
<glyph unicode="&#x524;" horiz-adv-x="741" d="M83 0l117 700h550l-101 -604h72l-39 -236h-105l23 140h-72l101 604h-340l-101 -604h-105z" />
<glyph unicode="&#x525;" horiz-adv-x="605" d="M483 0h-75l68 409h-239l-68 -409h-101l84 500h441l-69 -409h73l-38 -231h-99z" />
<glyph unicode="&#x526;" horiz-adv-x="686" d="M188 0h-105l117 700h105l-44 -266q89 31 168 31q118 0 172.5 -59.5t35.5 -174.5l-23 -135h72l-39 -236h-105l23 140h-72l35 211q14 80 -11.5 119t-106.5 39q-77 0 -166 -34z" />
<glyph unicode="&#x527;" horiz-adv-x="600" d="M483 0h-75l50 297q11 64 -8 93.5t-73 29.5q-62 0 -106.5 -40.5t-56.5 -111.5l-45 -268h-101l117 700h101l-46 -274q66 86 174 86q180 0 145 -212l-35 -209h73l-38 -231h-99z" />
<glyph unicode="&#x52e;" horiz-adv-x="739" d="M40 0h-32l16 96h21q31 0 55 15t38.5 34.5t26 51.5t16 53t9.5 52l66 398h492l-101 -604h72l-39 -236h-105l23 140h-72l101 604h-282l-50 -302q-6 -36 -11.5 -61t-18 -64.5t-30.5 -67t-44 -54.5t-64.5 -41t-86.5 -14z" />
<glyph unicode="&#x52f;" horiz-adv-x="596" d="M33 0h-28l15 91h17q19 0 34.5 9.5t24 21.5t15.5 32.5t10 32.5t6 31l48 282h409l-69 -409h73l-38 -231h-99l23 140h-75l68 409h-207l-32 -191q-5 -32 -10 -53.5t-19.5 -56t-33.5 -55.5t-53.5 -37t-78.5 -16z" />
<glyph unicode="&#xe3f;" horiz-adv-x="676" d="M359 322h-117l-39 -230h117zM425 322l-39 -230h6q151 0 171 115q10 61 -28 88t-104 27h-6zM290 608l-34 -204h117l34 204h-117zM473 608l-34 -204q122 6 139 102q8 52 -21.5 75.5t-83.5 26.5zM305 0h-222l117 700h222l17 100h66l-17 -100q47 -1 83.5 -11t66.5 -30 t42.5 -57.5t3.5 -88.5q-17 -94 -107 -143q109 -50 89 -170q-12 -73 -58 -119.5t-103.5 -63.5t-127.5 -17h-6l-17 -100h-66z" />
<glyph unicode="&#x1e02;" horiz-adv-x="676" d="M431 322h-189l-39 -230h189q151 0 171 115q10 61 -28 88t-104 27zM462 608h-172l-34 -204h172q133 0 150 102q9 54 -24.5 78t-91.5 24zM377 0h-294l117 700h277q48 0 87 -9t70.5 -29.5t45 -58t4.5 -90.5q-15 -94 -107 -143q109 -50 89 -170q-12 -73 -58 -119.5 t-103.5 -63.5t-127.5 -17zM420 833q5 24 24 40.5t43 16.5t37.5 -16.5t9.5 -40.5t-23 -40.5t-43 -16.5t-38 16.5t-10 40.5z" />
<glyph unicode="&#x1e03;" horiz-adv-x="609" d="M211 250q-12 -72 17 -121.5t104 -49.5q74 0 120.5 49.5t58.5 121.5t-18 121.5t-104 49.5q-75 0 -120.5 -49.5t-57.5 -121.5zM180 66l-11 -66h-101l117 700h101l-44 -266q73 78 181 78q50 0 87.5 -15.5t59 -41.5t34.5 -60t12.5 -70.5t-4.5 -74.5q-8 -49 -28.5 -93.5 t-53 -83.5t-83 -62t-112.5 -23q-108 0 -155 78zM385 625q4 24 23 40.5t43 16.5t38 -16.5t10 -40.5q-5 -24 -24 -40.5t-43 -16.5t-37.5 16.5t-9.5 40.5z" />
<glyph unicode="&#x1e04;" horiz-adv-x="676" d="M431 322h-189l-39 -230h189q151 0 171 115q10 61 -28 88t-104 27zM462 608h-172l-34 -204h172q133 0 150 102q9 54 -24.5 78t-91.5 24zM377 0h-294l117 700h277q48 0 87 -9t70.5 -29.5t45 -58t4.5 -90.5q-15 -94 -107 -143q109 -50 89 -170q-12 -73 -58 -119.5 t-103.5 -63.5t-127.5 -17zM373 -133q-5 -24 -24 -40.5t-43 -16.5t-37.5 16.5t-9.5 40.5t23 40.5t43 16.5t38 -16.5t10 -40.5z" />
<glyph unicode="&#x1e05;" horiz-adv-x="609" d="M211 250q-12 -72 17 -121.5t104 -49.5q74 0 120.5 49.5t58.5 121.5t-18 121.5t-104 49.5q-75 0 -120.5 -49.5t-57.5 -121.5zM180 66l-11 -66h-101l117 700h101l-44 -266q73 78 181 78q50 0 87.5 -15.5t59 -41.5t34.5 -60t12.5 -70.5t-4.5 -74.5q-8 -49 -28.5 -93.5 t-53 -83.5t-83 -62t-112.5 -23q-108 0 -155 78zM354 -133q-5 -24 -24 -40.5t-43 -16.5t-37.5 16.5t-9.5 40.5t23 40.5t43 16.5t38 -16.5t10 -40.5z" />
<glyph unicode="&#x1e06;" horiz-adv-x="676" d="M431 322h-189l-39 -230h189q151 0 171 115q10 61 -28 88t-104 27zM462 608h-172l-34 -204h172q133 0 150 102q9 54 -24.5 78t-91.5 24zM377 0h-294l117 700h277q48 0 87 -9t70.5 -29.5t45 -58t4.5 -90.5q-15 -94 -107 -143q109 -50 89 -170q-12 -73 -58 -119.5 t-103.5 -63.5t-127.5 -17zM465 -91l-12 -71h-284l12 71h284z" />
<glyph unicode="&#x1e07;" horiz-adv-x="609" d="M211 250q-12 -72 17 -121.5t104 -49.5q74 0 120.5 49.5t58.5 121.5t-18 121.5t-104 49.5q-75 0 -120.5 -49.5t-57.5 -121.5zM180 66l-11 -66h-101l117 700h101l-44 -266q73 78 181 78q50 0 87.5 -15.5t59 -41.5t34.5 -60t12.5 -70.5t-4.5 -74.5q-8 -49 -28.5 -93.5 t-53 -83.5t-83 -62t-112.5 -23q-108 0 -155 78zM151 -153l12 71h284l-12 -71h-284z" />
<glyph unicode="&#x1e08;" horiz-adv-x="715" d="M685 915l-147 -142h-77l107 142h117zM613 259h106q-37 -118 -118.5 -191t-209.5 -79l-16 -29h16q45 0 69.5 -24.5t17.5 -65.5q-8 -47 -47 -76t-98 -29q-39 0 -84 17l10 60q38 -19 75 -19q31 0 52 13.5t25 35.5q3 21 -8.5 31.5t-39.5 10.5h-39l-13 28l26 47 q-99 7 -159.5 62t-77.5 131.5t-2 167.5q12 71 42 134t77.5 115t117.5 82.5t154 30.5q138 0 200.5 -74t60.5 -197h-106q-3 173 -171 173q-112 0 -182 -77t-88 -187q-19 -110 25 -187t156 -77q168 0 229 173z" />
<glyph unicode="&#x1e09;" horiz-adv-x="562" d="M572 715l-147 -142h-77l107 142h117zM450 181h103q-27 -81 -87 -133.5t-155 -58.5l-16 -29h16q45 0 69.5 -24.5t17.5 -65.5q-8 -47 -47 -76t-98 -29q-39 0 -84 17l10 60q38 -19 75 -19q31 0 52 13.5t25 35.5q3 21 -8.5 31.5t-39.5 10.5h-39l-13 28l26 47 q-107 10 -150 85.5t-26 175.5q18 108 94.5 185t200.5 77q104 0 152 -53t48 -140h-103q-7 101 -113 101q-74 0 -120 -49.5t-58 -120.5t17 -120.5t104 -49.5q106 0 147 101z" />
<glyph unicode="&#x1e0a;" horiz-adv-x="697" d="M204 96h145q109 0 177 74t86 180q17 106 -26 180t-152 74h-145zM200 700h250q67 0 118.5 -19.5t82.5 -53t50.5 -78.5t21 -95.5t-5.5 -103.5q-12 -68 -41 -129t-75.5 -111.5t-115.5 -80t-152 -29.5h-250zM415 833q5 24 24 40.5t43 16.5t37.5 -16.5t9.5 -40.5t-23 -40.5 t-43 -16.5t-38 16.5t-10 40.5z" />
<glyph unicode="&#x1e0b;" horiz-adv-x="610" d="M482 250q12 72 -18 121.5t-104 49.5q-75 0 -120.5 -49.5t-57.5 -121.5t17 -121.5t104 -49.5q74 0 120.5 49.5t58.5 121.5zM541 0h-101l11 66q-75 -78 -181 -78q-62 0 -105 23.5t-61.5 61t-26 84.5t3.5 93q8 49 28 93.5t53 83.5t83.5 62t112.5 23q106 0 155 -78l44 266 h101zM434 625q-5 -24 -24 -40.5t-43 -16.5t-37.5 16.5t-9.5 40.5t23 40.5t43 16.5t38 -16.5t10 -40.5z" />
<glyph unicode="&#x1e0c;" horiz-adv-x="697" d="M204 96h145q109 0 177 74t86 180q17 106 -26 180t-152 74h-145zM200 700h250q67 0 118.5 -19.5t82.5 -53t50.5 -78.5t21 -95.5t-5.5 -103.5q-12 -68 -41 -129t-75.5 -111.5t-115.5 -80t-152 -29.5h-250zM368 -133q-5 -24 -24 -40.5t-43 -16.5t-37.5 16.5t-9.5 40.5 t23 40.5t43 16.5t38 -16.5t10 -40.5z" />
<glyph unicode="&#x1e0d;" horiz-adv-x="609" d="M482 250q12 72 -18 121.5t-104 49.5q-75 0 -120.5 -49.5t-57.5 -121.5t17 -121.5t104 -49.5q74 0 120.5 49.5t58.5 121.5zM541 0h-101l11 66q-75 -78 -181 -78q-62 0 -105 23.5t-61.5 61t-26 84.5t3.5 93q8 49 28 93.5t53 83.5t83.5 62t112.5 23q106 0 155 -78l44 266 h101zM325 -133q-5 -24 -24 -40.5t-43 -16.5t-37.5 16.5t-9.5 40.5t23 40.5t43 16.5t38 -16.5t10 -40.5z" />
<glyph unicode="&#x1e0e;" horiz-adv-x="697" d="M204 96h145q109 0 177 74t86 180q17 106 -26 180t-152 74h-145zM200 700h250q67 0 118.5 -19.5t82.5 -53t50.5 -78.5t21 -95.5t-5.5 -103.5q-12 -68 -41 -129t-75.5 -111.5t-115.5 -80t-152 -29.5h-250zM165 -153l12 71h284l-12 -71h-284z" />
<glyph unicode="&#x1e0f;" horiz-adv-x="609" d="M482 250q12 72 -18 121.5t-104 49.5q-75 0 -120.5 -49.5t-57.5 -121.5t17 -121.5t104 -49.5q74 0 120.5 49.5t58.5 121.5zM541 0h-101l11 66q-75 -78 -181 -78q-62 0 -105 23.5t-61.5 61t-26 84.5t3.5 93q8 49 28 93.5t53 83.5t83.5 62t112.5 23q106 0 155 -78l44 266 h101zM122 -153l12 71h284l-12 -71h-284z" />
<glyph unicode="&#x1e10;" horiz-adv-x="697" d="M204 96h145q109 0 177 74t86 180q17 106 -26 180t-152 74h-145zM200 700h250q83 0 142.5 -30t88 -79t39.5 -112t-3 -129q-15 -89 -57 -163t-120 -127t-179 -59l-23 -41h16q45 0 69.5 -24.5t17.5 -65.5q-8 -47 -47 -76t-98 -29q-39 0 -84 17l10 60q38 -19 75 -19 q31 0 52 13.5t25 35.5q3 21 -8.5 31.5t-39.5 10.5h-39l-13 28l32 58h-223z" />
<glyph unicode="&#x1e11;" horiz-adv-x="609" d="M482 250q12 72 -18 121.5t-104 49.5q-75 0 -120.5 -49.5t-57.5 -121.5t17 -121.5t104 -49.5q74 0 120.5 49.5t58.5 121.5zM541 0h-101l11 66q-65 -69 -155 -77l-16 -29h16q45 0 69.5 -24.5t17.5 -65.5q-8 -47 -47 -76t-98 -29q-39 0 -84 17l10 60q38 -19 75 -19 q31 0 52 13.5t25 35.5q3 21 -8.5 31.5t-39.5 10.5h-39l-13 28l26 47q-53 5 -90 30.5t-53 62t-21.5 81t3.5 87.5q8 49 28.5 93.5t53 83.5t83 62t112.5 23q106 0 155 -78l44 266h101z" />
<glyph unicode="&#x1e12;" horiz-adv-x="697" d="M204 96h145q109 0 177 74t86 180q17 106 -26 180t-152 74h-145zM200 700h250q67 0 118.5 -19.5t82.5 -53t50.5 -78.5t21 -95.5t-5.5 -103.5q-12 -68 -41 -129t-75.5 -111.5t-115.5 -80t-152 -29.5h-250zM265 -73h112l83 -143h-89l-58 99l-90 -99h-89z" />
<glyph unicode="&#x1e13;" horiz-adv-x="609" d="M482 250q12 72 -18 121.5t-104 49.5q-75 0 -120.5 -49.5t-57.5 -121.5t17 -121.5t104 -49.5q74 0 120.5 49.5t58.5 121.5zM541 0h-101l11 66q-75 -78 -181 -78q-62 0 -105 23.5t-61.5 61t-26 84.5t3.5 93q8 49 28 93.5t53 83.5t83.5 62t112.5 23q106 0 155 -78l44 266 h101zM222 -73h112l83 -143h-89l-58 99l-90 -99h-89z" />
</font>
</defs>
</svg>
