<?xml version="1.0" standalone="no"?>
<!DOCTYPE svg PUBLIC "-//W3C//DTD SVG 1.1//EN" "http://www.w3.org/Graphics/SVG/1.1/DTD/svg11.dtd" >
<svg xmlns="http://www.w3.org/2000/svg" xmlns:xlink="http://www.w3.org/1999/xlink" version="1.1">
<metadata></metadata>
<defs>
<font id="upmaxmedium" horiz-adv-x="630" >
<font-face units-per-em="1000" ascent="800" descent="-200" />
<missing-glyph horiz-adv-x="259" />
<glyph unicode="ff" horiz-adv-x="714" d="M17 500h89v76q0 70 35 108t102 38q53 0 99 -16v-87q-37 14 -79 14q-56 0 -56 -64v-69h256v76q0 70 35 108t102 38q53 0 99 -16v-87q-37 14 -79 14q-56 0 -56 -64v-69h135v-86h-135v-414h-101v414h-256v-414h-101v414h-89v86z" />
<glyph unicode="fi" horiz-adv-x="594" d="M415 662q0 26 17.5 43.5t43.5 17.5t43.5 -17.5t17.5 -43.5t-17.5 -43.5t-43.5 -17.5t-43.5 17.5t-17.5 43.5zM17 500h89v76q0 70 35 108t102 38q53 0 99 -16v-87q-37 14 -79 14q-56 0 -56 -64v-69h319v-500h-101v414h-218v-414h-101v414h-89v86z" />
<glyph unicode="fl" horiz-adv-x="594" d="M17 500h89v76q0 70 35 108t102 38q53 0 99 -16v-87q-37 14 -79 14q-56 0 -56 -64v-69h218v200h101v-700h-101v414h-218v-414h-101v414h-89v86z" />
<glyph unicode="ffi" horiz-adv-x="951" d="M772 662q0 26 17.5 43.5t43.5 17.5t43.5 -17.5t17.5 -43.5t-17.5 -43.5t-43.5 -17.5t-43.5 17.5t-17.5 43.5zM17 500h89v76q0 70 35 108t102 38q53 0 99 -16v-87q-37 14 -79 14q-56 0 -56 -64v-69h256v76q0 70 35 108t102 38q53 0 99 -16v-87q-37 14 -79 14 q-56 0 -56 -64v-69h319v-500h-101v414h-218v-414h-101v414h-256v-414h-101v414h-89v86z" />
<glyph unicode="ffl" horiz-adv-x="951" d="M17 500h89v76q0 70 35 108t102 38q53 0 99 -16v-87q-37 14 -79 14q-56 0 -56 -64v-69h256v76q0 70 35 108t102 38q53 0 99 -16v-87q-37 14 -79 14q-56 0 -56 -64v-69h218v200h101v-700h-101v414h-218v-414h-101v414h-256v-414h-101v414h-89v86z" />
<glyph unicode="fft" horiz-adv-x="1099" d="M17 500h89v76q0 70 35 108t102 38q53 0 99 -16v-87q-37 14 -79 14q-56 0 -56 -64v-69h256v76q0 70 35 108t102 38q53 0 99 -16v-87q-37 14 -79 14q-56 0 -56 -64v-69h256v140h101v-140h135v-86h-135v-272q0 -64 56 -64q42 0 79 14v-88q-46 -16 -99 -16q-67 0 -102 38 t-35 108v280h-256v-414h-101v414h-256v-414h-101v414h-89v86z" />
<glyph horiz-adv-x="0" />
<glyph horiz-adv-x="0" />
<glyph unicode="&#xd;" horiz-adv-x="333" />
<glyph unicode=" "  horiz-adv-x="259" />
<glyph unicode="&#x09;" horiz-adv-x="259" />
<glyph unicode="&#xa0;" horiz-adv-x="259" />
<glyph unicode="!" horiz-adv-x="294" d="M190 214h-86l-15 486h116zM83 54q0 28 18.5 46t45.5 18t45.5 -18t18.5 -46t-18.5 -46t-45.5 -18t-45.5 18t-18.5 46z" />
<glyph unicode="&#x22;" horiz-adv-x="369" d="M57 450v250h85v-250h-85zM227 450v250h85v-250h-85z" />
<glyph unicode="#" horiz-adv-x="619" d="M394 433h-145l-24 -165h145zM140 268l24 165h-98v77h109l28 190h85l-28 -190h145l28 190h85l-28 -190h98v-77h-109l-24 -165h98v-77h-109l-28 -191h-85l28 191h-145l-28 -191h-85l28 191h-98v77h109z" />
<glyph unicode="$" horiz-adv-x="614" d="M337 298v-216q58 6 96 34.5t38 78.5q0 46 -34.5 68t-99.5 35zM271 411v207q-50 -7 -81 -35t-31 -77q0 -41 29 -62t83 -33zM337 -11v-89h-66v90q-97 9 -162 63t-71 150h105q5 -51 39.5 -81.5t88.5 -38.5v227q-38 7 -64.5 14t-57.5 21.5t-50 34t-32 51t-13 72.5 q0 94 62 147t155 61v89h66v-90q91 -9 151 -62.5t66 -149.5h-105q-5 51 -35 81t-77 38v-219q44 -8 69.5 -14t62.5 -20.5t57 -34t35 -53t15 -78.5q0 -95 -68.5 -148.5t-170.5 -60.5z" />
<glyph unicode="%" horiz-adv-x="882" d="M52 534q0 74 43 126t126 52t126 -52t43 -126t-43 -126t-126 -52t-126 52t-43 126zM197 0l408 700h80l-408 -700h-80zM135 534q0 -42 22 -71.5t64 -29.5t64 29.5t22 71.5t-22 71.5t-64 29.5t-64 -29.5t-22 -71.5zM492 166q0 74 43 126t126 52t126 -52t43 -126t-43 -126 t-126 -52t-126 52t-43 126zM575 166q0 -42 22 -71.5t64 -29.5t64 29.5t22 71.5t-22 71.5t-64 29.5t-64 -29.5t-22 -71.5z" />
<glyph unicode="&#x26;" horiz-adv-x="643" d="M218 332q-75 -51 -75 -124q0 -60 40.5 -94.5t96.5 -34.5q69 0 130 46q-127 131 -192 207zM388 559q0 31 -22.5 51.5t-55.5 20.5q-41 0 -67 -31.5t-26 -76.5q0 -41 26 -84q89 40 113 60q32 26 32 60zM472 62q-89 -74 -192 -74q-100 0 -171 59t-71 161q0 68 33.5 113.5 t91.5 78.5q-41 61 -41 123q0 83 54.5 136t133.5 53q72 0 122.5 -42.5t50.5 -108.5q0 -15 -3.5 -29t-7 -25.5t-14 -23.5t-16 -19.5t-21 -18.5t-22 -16t-26 -15.5t-25 -13.5t-28.5 -14t-27 -13q60 -70 178 -190q25 30 58 81l64 -64q-33 -47 -60 -79q53 -52 122 -121h-121z" />
<glyph unicode="'" horiz-adv-x="199" d="M57 450v250h85v-250h-85z" />
<glyph unicode="(" horiz-adv-x="294" d="M135 270q0 -226 144 -408l-67 -47q-170 197 -170 455t170 455l67 -47q-144 -182 -144 -408z" />
<glyph unicode=")" horiz-adv-x="294" d="M159 270q0 226 -144 408l67 47q170 -197 170 -455t-170 -455l-67 47q144 182 144 408z" />
<glyph unicode="*" horiz-adv-x="404" d="M79 425l79 98l-121 33l20 63l118 -45l-6 126h66l-6 -126l118 45l20 -63l-121 -33l79 -98l-53 -39l-70 107l-70 -107z" />
<glyph unicode="+" horiz-adv-x="607" d="M258 256h-202v88h202v202h91v-202h202v-88h-202v-202h-91v202z" />
<glyph unicode="," horiz-adv-x="273" d="M60 -133l43 240h110l-70 -240h-83z" />
<glyph unicode="-" horiz-adv-x="481" d="M69 239v88h343v-88h-343z" />
<glyph unicode="." horiz-adv-x="248" d="M60 54q0 28 18.5 46t45.5 18t45.5 -18t18.5 -46t-18.5 -46t-45.5 -18t-45.5 18t-18.5 46z" />
<glyph unicode="/" horiz-adv-x="397" d="M22 0l276 700h77l-276 -700h-77z" />
<glyph unicode="0" horiz-adv-x="606" d="M47 350q0 58 7 107.5t25 97.5t46.5 82t73.5 54.5t104 20.5t104 -20.5t73.5 -54.5t46.5 -82t25 -97.5t7 -107.5t-7 -107.5t-25 -97.5t-46.5 -82t-73.5 -54.5t-104 -20.5t-104 20.5t-73.5 54.5t-46.5 82t-25 97.5t-7 107.5zM152 350q0 -266 151 -266t151 266t-151 266 t-151 -266z" />
<glyph unicode="1" horiz-adv-x="359" d="M168 0v514h-150v78q61 4 109.5 31t67.5 77h78v-700h-105z" />
<glyph unicode="2" horiz-adv-x="572" d="M425 473q0 70 -40 108t-100 38q-59 0 -96.5 -32t-41.5 -84h-103q2 96 72 152.5t169 56.5q104 0 173.5 -62.5t69.5 -176.5q0 -78 -45.5 -127t-128.5 -93q-12 -6 -43 -22t-45 -23.5t-38.5 -23t-36.5 -27t-24 -28.5t-16 -35h377v-94h-484v59q0 22 5 43t10.5 37.5t19.5 34.5 t22.5 29.5t29 27t29 22.5t33 21.5t31 18t32.5 17t28 14.5q78 41 109.5 71t31.5 78z" />
<glyph unicode="3" horiz-adv-x="558" d="M493 616l-168 -208q94 -12 142.5 -67t48.5 -133q0 -97 -64 -158.5t-186 -61.5q-99 0 -165.5 55.5t-68.5 153.5h103q4 -52 42 -84.5t97 -32.5q60 0 99.5 31.5t39.5 92.5q0 62 -40 94t-101 32h-22l-38 81l153 195h-313v94h441v-84z" />
<glyph unicode="4" horiz-adv-x="582" d="M351 670l-212 -441h214v441h-2zM549 137h-91v-137h-105v137h-320v83l230 480h195v-471h91v-92z" />
<glyph unicode="5" horiz-adv-x="568" d="M493 700v-94h-328v-178q59 44 136 44q97 0 161 -63.5t64 -181.5q0 -99 -64.5 -169t-185.5 -70q-99 0 -165.5 55.5t-68.5 153.5h103q3 -51 41 -84t97 -33q61 0 100.5 39.5t39.5 113.5q0 73 -42.5 111.5t-105.5 38.5q-73 0 -123 -62h-89v379h430z" />
<glyph unicode="6" horiz-adv-x="565" d="M290 370q-58 0 -96.5 -38t-38.5 -108t38.5 -107t96.5 -37t96.5 36.5t38.5 106.5t-38.5 108.5t-96.5 38.5zM513 527h-101q-5 44 -35 69.5t-77 25.5q-153 0 -160 -251q57 88 169 88q101 0 160 -65.5t59 -164.5q0 -34 -7 -66t-24.5 -64.5t-44 -56.5t-68.5 -39t-95 -15 q-252 0 -252 340q0 79 13 144.5t42 121t83 87t128 31.5q93 0 147.5 -48t62.5 -137z" />
<glyph unicode="7" horiz-adv-x="508" d="M92 0l263 605h-323v95h439v-83l-268 -617h-111z" />
<glyph unicode="8" horiz-adv-x="572" d="M425 213q0 55 -35 93.5t-104 38.5t-104 -38.5t-35 -93.5t35 -93.5t104 -38.5t104 38.5t35 93.5zM386 526q0 40 -25.5 68t-74.5 28t-74.5 -28t-25.5 -68t25.5 -68t74.5 -28t74.5 28t25.5 68zM42 207q0 63 30 110.5t84 74.5q-70 49 -70 138q0 82 56 132t144 50t144 -50 t56 -132q0 -89 -70 -138q54 -27 84 -74.5t30 -110.5q0 -99 -68.5 -159t-175.5 -60t-175.5 60t-68.5 159z" />
<glyph unicode="9" horiz-adv-x="565" d="M275 330q58 0 96.5 38t38.5 108t-38.5 107t-96.5 37t-96.5 -36.5t-38.5 -106.5t38.5 -108.5t96.5 -38.5zM52 173h101q5 -44 35 -69.5t77 -25.5q153 0 160 251q-57 -88 -169 -88q-101 0 -160 65.5t-59 164.5q0 34 7 66t24.5 64.5t44 56.5t68.5 39t95 15q252 0 252 -340 q0 -79 -13 -144.5t-42 -121t-83 -87t-128 -31.5q-93 0 -147.5 48t-62.5 137z" />
<glyph unicode=":" horiz-adv-x="248" d="M60 446q0 28 18.5 46t45.5 18t45.5 -18t18.5 -46t-18.5 -46t-45.5 -18t-45.5 18t-18.5 46zM60 54q0 28 18.5 46t45.5 18t45.5 -18t18.5 -46t-18.5 -46t-45.5 -18t-45.5 18t-18.5 46z" />
<glyph unicode=";" horiz-adv-x="273" d="M78 446q0 28 18.5 46t45.5 18t45.5 -18t18.5 -46t-18.5 -46t-45.5 -18t-45.5 18t-18.5 46zM60 -133l43 240h110l-70 -240h-83z" />
<glyph unicode="&#x3c;" horiz-adv-x="562" d="M56 284l450 198v-86l-337 -146l337 -146v-86l-450 198v68z" />
<glyph unicode="=" horiz-adv-x="607" d="M551 354h-495v88h495v-88zM551 158h-495v88h495v-88z" />
<glyph unicode="&#x3e;" horiz-adv-x="562" d="M506 284v-68l-450 -198v86l337 146l-337 146v86z" />
<glyph unicode="?" horiz-adv-x="520" d="M212 194v188h44q58 0 87.5 34.5t29.5 84.5t-29.5 84.5t-87.5 34.5t-87.5 -34.5t-29.5 -84.5h-101q0 87 55 149t163 62t163 -62t55 -149q0 -76 -42.5 -132.5t-126.5 -69.5l-5 -105h-88zM192 54q0 28 18.5 46t45.5 18t45.5 -18t18.5 -46t-18.5 -46t-45.5 -18t-45.5 18 t-18.5 46z" />
<glyph unicode="@" horiz-adv-x="833" d="M499 251q0 39 -20 65.5t-60 26.5t-60 -26.5t-20 -65.5t20 -65.5t60 -26.5t60 26.5t20 65.5zM624 5h76q-51 -62 -126 -96t-164 -34q-160 0 -259.5 106t-99.5 270t99.5 269t259.5 105q162 0 269.5 -105t107.5 -259q0 -87 -46 -134.5t-116 -47.5q-39 0 -71.5 18.5 t-46.5 51.5q-37 -58 -106 -58q-72 0 -106.5 47.5t-34.5 112.5t34.5 112.5t106.5 47.5q62 0 98 -46v39h79v-212q0 -26 17 -41.5t40 -15.5q41 0 68.5 34t27.5 92q0 132 -92 222t-229 90q-136 0 -219.5 -90.5t-83.5 -231.5t83.5 -232.5t219.5 -91.5q126 0 214 78z" />
<glyph unicode="A" horiz-adv-x="664" d="M331 670l-130 -408h262l-130 408h-2zM118 0h-111l233 700h184l233 -700h-111l-53 166h-322z" />
<glyph unicode="B" horiz-adv-x="676" d="M377 322h-189v-230h189q66 0 108.5 27t42.5 88t-42.5 88t-108.5 27zM360 608h-172v-204h172q58 0 95.5 24t37.5 78t-37.5 78t-95.5 24zM377 0h-294v700h277q48 0 88.5 -9t75 -29.5t54.5 -58t20 -90.5q0 -94 -83 -143q118 -50 118 -170q0 -55 -21.5 -95.5t-59 -62.5 t-80.5 -32t-95 -10z" />
<glyph unicode="C" horiz-adv-x="715" d="M570 259h106q-19 -123 -93.5 -197t-212.5 -74q-84 0 -149 30.5t-104 82.5t-58.5 115t-19.5 134t19.5 134t58.5 115t104 82.5t149 30.5q138 0 212.5 -74t93.5 -197h-106q-33 173 -200 173q-112 0 -169 -77t-57 -187t57 -187t169 -77q167 0 200 173z" />
<glyph unicode="D" horiz-adv-x="697" d="M333 700q83 0 147 -29.5t102 -80t57 -111.5t19 -129t-19 -129t-57 -111.5t-102 -80t-147 -29.5h-250v700h250zM333 96q109 0 164.5 74t55.5 180t-55.5 180t-164.5 74h-145v-508h145z" />
<glyph unicode="E" horiz-adv-x="615" d="M188 309v-214h380v-95h-485v700h473v-95h-368v-204h344v-92h-344z" />
<glyph unicode="F" horiz-adv-x="557" d="M188 296v-296h-105v700h445v-96h-340v-213h304v-95h-304z" />
<glyph unicode="G" horiz-adv-x="752" d="M39 350q0 71 19.5 134t58.5 115t104 82.5t149 30.5q133 0 207.5 -70t96.5 -187h-107q-38 159 -197 159q-112 0 -169 -77t-57 -187q0 -52 13 -98t39.5 -84t72 -60.5t103.5 -22.5q183 0 207 192h-209v87h313v-364h-68l-17 103q-67 -115 -228 -115q-84 0 -149 30.5 t-104 82.5t-58.5 115t-19.5 134z" />
<glyph unicode="H" horiz-adv-x="716" d="M83 0v700h105v-296h340v296h105v-700h-105v308h-340v-308h-105z" />
<glyph unicode="I" horiz-adv-x="271" d="M83 0v700h105v-700h-105z" />
<glyph unicode="J" horiz-adv-x="562" d="M256 85q67 0 97.5 43t30.5 108v464h105v-464q0 -107 -55.5 -177.5t-177.5 -70.5t-177.5 70.5t-55.5 177.5v52h105v-52q0 -65 30.5 -108t97.5 -43z" />
<glyph unicode="K" horiz-adv-x="627" d="M188 700v-340l296 340h131l-305 -350l320 -350h-134l-308 338v-338h-105v700h105z" />
<glyph unicode="L" horiz-adv-x="555" d="M188 700v-604h355v-96h-460v700h105z" />
<glyph unicode="M" horiz-adv-x="906" d="M277 700l175 -670h2l175 670h194v-700h-105v670h-2l-175 -670h-176l-175 670h-2v-670h-105v700h194z" />
<glyph unicode="N" horiz-adv-x="751" d="M279 700l282 -670h2v670h105v-700h-196l-282 670h-2v-670h-105v700h196z" />
<glyph unicode="O" horiz-adv-x="740" d="M39 350q0 71 19.5 134t58.5 115t104 82.5t149 30.5t149 -30.5t104 -82.5t58.5 -115t19.5 -134t-19.5 -134t-58.5 -115t-104 -82.5t-149 -30.5t-149 30.5t-104 82.5t-58.5 115t-19.5 134zM596 350q0 110 -57 187t-169 77t-169 -77t-57 -187t57 -187t169 -77t169 77t57 187 z" />
<glyph unicode="P" horiz-adv-x="641" d="M365 605h-177v-276h177q60 0 99 39t39 99t-39 99t-99 39zM368 234h-180v-234h-105v700h285q104 0 172 -66t68 -167t-68 -167t-172 -66z" />
<glyph unicode="Q" horiz-adv-x="770" d="M39 350q0 71 19.5 134t58.5 115t104 82.5t149 30.5t149 -30.5t104 -82.5t58.5 -115t19.5 -134q0 -134 -65 -230l95 -95l-59 -59l-92 92q-85 -70 -210 -70q-84 0 -149 30.5t-104 82.5t-58.5 115t-19.5 134zM596 350q0 110 -57 187t-169 77t-169 -77t-57 -187t57 -187 t169 -77q81 0 137 45l-118 118l59 59l112 -112q36 67 36 154z" />
<glyph unicode="R" horiz-adv-x="669" d="M375 605h-187v-256h187q55 0 91.5 36.5t36.5 91.5t-36.5 91.5t-91.5 36.5zM188 256v-256h-105v700h295q100 0 165 -63.5t65 -159.5q0 -76 -42.5 -132.5t-112.5 -77.5l167 -267h-119l-160 256h-153z" />
<glyph unicode="S" horiz-adv-x="614" d="M38 203h105q6 -60 51.5 -91.5t112.5 -31.5q69 0 116.5 29t47.5 86q0 41 -31 65.5t-77 32t-100.5 19.5t-100.5 27.5t-77 57t-31 106.5q0 103 72.5 156t177.5 53q102 0 172.5 -54.5t77.5 -159.5h-105q-6 60 -45.5 91t-99.5 31q-62 0 -103.5 -28.5t-41.5 -85.5 q0 -40 31 -63.5t77 -30.5t100.5 -19t100.5 -28t77 -58.5t31 -108.5q0 -70 -39.5 -119t-99 -70t-130.5 -21q-109 0 -185.5 55t-83.5 160z" />
<glyph unicode="T" horiz-adv-x="581" d="M343 604v-604h-105v604h-217v96h539v-96h-217z" />
<glyph unicode="U" horiz-adv-x="716" d="M538 277v423h105v-430q0 -51 -14 -97.5t-44.5 -89.5t-88.5 -69t-138 -26t-138 26t-88.5 69t-44.5 89.5t-14 97.5v430h105v-423q0 -36 9 -68.5t28.5 -61.5t56 -46t86.5 -17t86.5 17t56 46t28.5 61.5t9 68.5z" />
<glyph unicode="V" horiz-adv-x="684" d="M7 700h112l222 -670h2l222 670h112l-242 -700h-186z" />
<glyph unicode="W" horiz-adv-x="982" d="M127 700l146 -670h2l129 670h174l129 -670h2l146 670h108l-162 -700h-180l-129 670h-2l-129 -670h-180l-162 700h108z" />
<glyph unicode="X" horiz-adv-x="612" d="M579 700l-170 -334l191 -366h-116l-177 351h-2l-177 -351h-116l191 366l-170 334h114l158 -319h2l158 319h114z" />
<glyph unicode="Y" horiz-adv-x="625" d="M223 275l-211 425h113l187 -395h1l187 395h113l-211 -425h-37v-275h-105v275h-37z" />
<glyph unicode="Z" horiz-adv-x="599" d="M558 700v-110l-400 -494h406v-96h-529v110l400 494h-390v96h513z" />
<glyph unicode="[" horiz-adv-x="317" d="M288 -150h-219v890h219v-85h-130v-720h130v-85z" />
<glyph unicode="\" horiz-adv-x="397" d="M375 0h-77l-276 700h77z" />
<glyph unicode="]" horiz-adv-x="317" d="M29 -150v85h130v720h-130v85h219v-890h-219z" />
<glyph unicode="^" horiz-adv-x="530" d="M44 375l160 325h122l160 -325h-89l-132 272l-132 -272h-89z" />
<glyph unicode="_" horiz-adv-x="586" d="M28 -85h530v-82h-530v82z" />
<glyph unicode="`" horiz-adv-x="250" d="M25 715h117l83 -142h-77z" />
<glyph unicode="a" horiz-adv-x="609" d="M440 250q0 72 -37.5 121.5t-112.5 49.5t-112.5 -49.5t-37.5 -121.5t37.5 -121.5t112.5 -49.5t112.5 49.5t37.5 121.5zM541 0h-101v66q-61 -78 -168 -78q-62 0 -108.5 23t-73 62t-39 83.5t-12.5 93.5t12.5 93.5t39 83.5t73 62t108.5 23q107 0 168 -78v66h101v-500z" />
<glyph unicode="b" horiz-adv-x="609" d="M169 250q0 -72 37.5 -121.5t112.5 -49.5t112.5 49.5t37.5 121.5t-37.5 121.5t-112.5 49.5t-112.5 -49.5t-37.5 -121.5zM169 66v-66h-101v700h101v-266q61 78 168 78q62 0 108.5 -23t73 -62t39 -83.5t12.5 -93.5t-12.5 -93.5t-39 -83.5t-73 -62t-108.5 -23q-107 0 -168 78 z" />
<glyph unicode="c" horiz-adv-x="562" d="M523 319h-103q-24 101 -130 101q-74 0 -112 -49.5t-38 -120.5t38 -120.5t112 -49.5q106 0 130 101h103q-15 -87 -72 -140t-161 -53q-124 0 -187.5 77t-63.5 185t63.5 185t187.5 77q104 0 161 -53t72 -140z" />
<glyph unicode="d" horiz-adv-x="609" d="M440 250q0 72 -37.5 121.5t-112.5 49.5t-112.5 -49.5t-37.5 -121.5t37.5 -121.5t112.5 -49.5t112.5 49.5t37.5 121.5zM541 0h-101v66q-61 -78 -168 -78q-62 0 -108.5 23t-73 62t-39 83.5t-12.5 93.5t12.5 93.5t39 83.5t73 62t108.5 23q107 0 168 -78v266h101v-700z" />
<glyph unicode="e" horiz-adv-x="560" d="M144 297h272q-10 59 -43.5 94.5t-92.5 35.5t-92.5 -35.5t-43.5 -94.5zM407 148h103q-43 -160 -230 -160q-119 0 -180 77t-61 185t61 185t180 77t180 -77t61 -185v-27h-380q6 -66 40.5 -107.5t98.5 -41.5q98 0 127 74z" />
<glyph unicode="f" horiz-adv-x="357" d="M17 500h89v76q0 70 35 108t102 38q53 0 99 -16v-87q-37 14 -79 14q-56 0 -56 -64v-69h135v-86h-135v-414h-101v414h-89v86z" />
<glyph unicode="g" horiz-adv-x="599" d="M440 252q0 71 -38 120.5t-112 49.5t-112 -49.5t-38 -120.5t38 -120.5t112 -49.5t112 49.5t38 120.5zM440 19v50q-60 -77 -168 -77q-62 0 -108.5 23t-73 61.5t-39 83t-12.5 92.5t12.5 92.5t39 83t73 61.5t108.5 23q108 0 168 -77v65h101v-481q0 -60 -21 -105t-57 -70.5 t-79 -38t-92 -12.5q-82 0 -146 34t-89 105h113q40 -53 121 -53q63 0 106 34t43 106z" />
<glyph unicode="h" horiz-adv-x="572" d="M509 0h-101v297q0 64 -23.5 93.5t-77.5 29.5q-62 0 -100 -40.5t-38 -111.5v-268h-101v700h101v-274q52 86 159 86q181 0 181 -212v-300z" />
<glyph unicode="i" horiz-adv-x="237" d="M58 662q0 26 17.5 43.5t43.5 17.5t43.5 -17.5t17.5 -43.5t-17.5 -43.5t-43.5 -17.5t-43.5 17.5t-17.5 43.5zM68 0v500h101v-500h-101z" />
<glyph unicode="j" horiz-adv-x="237" d="M58 662q0 26 17.5 43.5t43.5 17.5t43.5 -17.5t17.5 -43.5t-17.5 -43.5t-43.5 -17.5t-43.5 17.5t-17.5 43.5zM-21 -202v88q17 -3 33 -3q56 0 56 64v553h101v-561q0 -70 -35 -108t-102 -38q-29 0 -53 5z" />
<glyph unicode="k" horiz-adv-x="525" d="M169 700v-442l214 242h122l-223 -250l238 -250h-127l-224 236v-236h-101v700h101z" />
<glyph unicode="l" horiz-adv-x="237" d="M68 0v700h101v-700h-101z" />
<glyph unicode="m" horiz-adv-x="866" d="M486 0h-101v297q0 64 -21 93.5t-70 29.5q-56 0 -90.5 -40.5t-34.5 -111.5v-268h-101v500h101v-74q23 41 62 63.5t86 22.5q113 0 150 -94q26 45 70 69.5t97 24.5q169 0 169 -212v-300h-101v297q0 64 -21 93.5t-70 29.5q-56 0 -90.5 -40.5t-34.5 -111.5v-268z" />
<glyph unicode="n" horiz-adv-x="572" d="M509 0h-101v297q0 64 -23.5 93.5t-77.5 29.5q-62 0 -100 -40.5t-38 -111.5v-268h-101v500h101v-74q52 86 159 86q181 0 181 -212v-300z" />
<glyph unicode="o" horiz-adv-x="580" d="M39 250q0 108 63.5 185t187.5 77t187.5 -77t63.5 -185t-63.5 -185t-187.5 -77t-187.5 77t-63.5 185zM440 250q0 71 -38 120.5t-112 49.5t-112 -49.5t-38 -120.5t38 -120.5t112 -49.5t112 49.5t38 120.5z" />
<glyph unicode="p" horiz-adv-x="609" d="M169 250q0 -72 37.5 -121.5t112.5 -49.5t112.5 49.5t37.5 121.5t-37.5 121.5t-112.5 49.5t-112.5 -49.5t-37.5 -121.5zM169 66v-261h-101v695h101v-66q61 78 168 78q62 0 108.5 -23t73 -62t39 -83.5t12.5 -93.5t-12.5 -93.5t-39 -83.5t-73 -62t-108.5 -23q-107 0 -168 78 z" />
<glyph unicode="q" horiz-adv-x="609" d="M440 250q0 72 -37.5 121.5t-112.5 49.5t-112.5 -49.5t-37.5 -121.5t37.5 -121.5t112.5 -49.5t112.5 49.5t37.5 121.5zM541 -195h-101v261q-61 -78 -168 -78q-62 0 -108.5 23t-73 62t-39 83.5t-12.5 93.5t12.5 93.5t39 83.5t73 62t108.5 23q107 0 168 -78v66h101v-695z " />
<glyph unicode="r" horiz-adv-x="356" d="M68 0v500h101v-77h2q14 37 54.5 63t94.5 26h22v-101q-9 4 -37 4q-55 0 -95.5 -41t-40.5 -105v-269h-101z" />
<glyph unicode="s" horiz-adv-x="494" d="M38 149h101q4 -39 34 -59.5t74 -20.5q45 0 76.5 18t31.5 54q0 31 -31.5 46t-77 22t-90.5 18t-76.5 43t-31.5 87q0 77 57 116t140 39q80 0 135 -40.5t61 -118.5h-99q-4 39 -30.5 58.5t-67.5 19.5q-40 0 -67.5 -16.5t-27.5 -52.5q0 -30 31.5 -45t77 -21.5t90.5 -17.5 t76.5 -43.5t31.5 -88.5q0 -77 -61 -117.5t-147 -40.5q-85 0 -145 41.5t-65 119.5z" />
<glyph unicode="t" horiz-adv-x="385" d="M342 4q-46 -16 -99 -16q-67 0 -102 38t-35 108v280h-89v86h89v140h101v-140h135v-86h-135v-272q0 -64 56 -64q42 0 79 14v-88z" />
<glyph unicode="u" horiz-adv-x="572" d="M63 500h101v-297q0 -64 23.5 -93.5t77.5 -29.5q62 0 100 40.5t38 111.5v268h101v-500h-101v74q-52 -86 -159 -86q-181 0 -181 212v300z" />
<glyph unicode="v" horiz-adv-x="520" d="M513 500l-163 -500h-180l-163 500h106l146 -475h2l146 475h106z" />
<glyph unicode="w" horiz-adv-x="794" d="M125 500l104 -475h2l84 475h164l84 -475h2l104 475h103l-120 -500h-170l-84 475h-2l-84 -475h-170l-120 500h103z" />
<glyph unicode="x" horiz-adv-x="510" d="M162 257l-136 243h109l119 -232h2l119 232h109l-136 -243l150 -257h-112l-130 246h-2l-130 -246h-112z" />
<glyph unicode="y" horiz-adv-x="530" d="M518 500l-216 -695h-104l60 195h-86l-160 500h105l147 -475h2l147 475h105z" />
<glyph unicode="z" horiz-adv-x="489" d="M442 500v-86l-270 -323h275v-91h-405v86l270 323h-256v91h386z" />
<glyph unicode="{" horiz-adv-x="361" d="M217 159v-120q0 -48 28 -76t75 -28h13v-85h-13q-87 0 -139.5 49.5t-52.5 133.5v126q0 52 -22 72.5t-72 20.5v86q50 0 72 20.5t22 72.5v126q0 84 52.5 133.5t139.5 49.5h13v-85h-13q-47 0 -75 -28t-28 -76v-120q0 -56 -16.5 -88t-57.5 -48q41 -16 57.5 -48t16.5 -88z" />
<glyph unicode="|" horiz-adv-x="252" d="M83 -195v935h86v-935h-86z" />
<glyph unicode="}" horiz-adv-x="361" d="M144 39v120q0 56 16.5 88t57.5 48q-41 16 -57.5 48t-16.5 88v120q0 48 -28 76t-75 28h-13v85h13q87 0 139.5 -49.5t52.5 -133.5v-126q0 -52 22 -72.5t72 -20.5v-86q-50 0 -72 -20.5t-22 -72.5v-126q0 -84 -52.5 -133.5t-139.5 -49.5h-13v85h13q47 0 75 28t28 76z" />
<glyph unicode="~" horiz-adv-x="587" d="M181 376q47 0 117.5 -30.5t96.5 -30.5q40 0 61 50l87 -32q-21 -52 -51.5 -80.5t-85.5 -28.5q-47 0 -117.5 30.5t-96.5 30.5q-40 0 -61 -50l-87 32q21 52 51.5 80.5t85.5 28.5z" />
<glyph unicode="&#xa1;" horiz-adv-x="294" d="M211 446q0 -28 -18.5 -46t-45.5 -18t-45.5 18t-18.5 46t18.5 46t45.5 18t45.5 -18t18.5 -46zM104 286h86l15 -486h-116z" />
<glyph unicode="&#xa2;" horiz-adv-x="562" d="M258 83v334q-59 -11 -88.5 -57.5t-29.5 -109.5t29.5 -109.5t88.5 -57.5zM420 181h103q-14 -80 -63 -132t-138 -60v-89h-64v90q-108 11 -163.5 85.5t-55.5 174.5t55.5 174.5t163.5 85.5v90h64v-89q89 -8 138 -60t63 -132h-103q-20 84 -98 98v-334q78 14 98 98z" />
<glyph unicode="&#xa3;" horiz-adv-x="636" d="M592 443h-105q0 80 -35 126.5t-100 46.5t-100.5 -46.5t-35.5 -126.5v-108h182v-58h-182v-112q0 -50 -25 -69h401v-96h-551v96q70 0 70 69v112h-70v58h70v108q0 123 63 196t178 73t177.5 -73t62.5 -196z" />
<glyph unicode="&#xa4;" horiz-adv-x="572" d="M428 300q0 62 -40 102t-102 40t-102 -40t-40 -102t40 -102t102 -40t102 40t40 102zM59 300q0 77 43 134l-42 42l50 50l44 -44q59 40 132 40t132 -40l44 44l50 -50l-42 -42q43 -57 43 -134t-43 -134l42 -42l-50 -50l-44 44q-59 -40 -132 -40t-132 40l-44 -44l-50 50l42 42 q-43 57 -43 134z" />
<glyph unicode="&#xa5;" horiz-adv-x="625" d="M532 182v-58h-167v-124h-105v124h-167v58h167v65h-167v58h115l-196 395h113l187 -395h1l187 395h113l-196 -395h115v-58h-167v-65h167z" />
<glyph unicode="&#xa6;" horiz-adv-x="252" d="M83 360v380h86v-380h-86zM83 185h86v-380h-86v380z" />
<glyph unicode="&#xa7;" horiz-adv-x="547" d="M348 181q29 2 48.5 20t19.5 46q0 24 -22 45t-49 33.5t-73.5 32t-72.5 33.5q-29 -2 -48.5 -20t-19.5 -46q0 -24 22 -45t49 -33.5t73.5 -32t72.5 -33.5zM81 550q0 80 56 121t137 41q87 0 145.5 -45.5t65.5 -134.5h-98q-4 46 -35 69.5t-78 23.5q-41 0 -68.5 -19t-27.5 -59 q0 -35 34 -61.5t82.5 -46t97.5 -41.5t83 -60.5t34 -90.5q0 -85 -83 -122q40 -43 40 -103q0 -80 -56 -121t-137 -41q-87 0 -145.5 45.5t-65.5 134.5h98q4 -46 35 -69.5t78 -23.5q41 0 68.5 19t27.5 59q0 35 -34 61.5t-82.5 46t-97.5 41.5t-83 60.5t-34 90.5q0 85 83 122 q-40 43 -40 103z" />
<glyph unicode="&#xa8;" horiz-adv-x="348" d="M25 632q0 24 16 40t40 16t40 -16t16 -40t-16 -40t-40 -16t-40 16t-16 40zM211 632q0 24 16 40t40 16t40 -16t16 -40t-16 -40t-40 -16t-40 16t-16 40z" />
<glyph unicode="&#xa9;" horiz-adv-x="816" d="M104 350q0 -130 87.5 -218.5t216.5 -88.5t216.5 88.5t87.5 218.5t-87.5 218.5t-216.5 88.5t-216.5 -88.5t-87.5 -218.5zM515 302h69q-11 -72 -53.5 -115t-122.5 -43q-93 0 -141 60t-48 146t48 146t141 60q80 0 122.5 -43t53.5 -115h-69q-17 95 -107 95q-60 0 -90.5 -41.5 t-30.5 -101.5t30.5 -101.5t90.5 -41.5q90 0 107 95zM46 350q0 152 105 257t257 105t257 -105t105 -257t-105 -257t-257 -105t-257 105t-105 257z" />
<glyph unicode="&#xaa;" horiz-adv-x="421" d="M298 593q0 46 -24 77.5t-72 31.5t-72 -31.5t-24 -77.5t24 -77.5t72 -31.5t72 31.5t24 77.5zM367 430h-69v42q-38 -50 -109 -50q-78 0 -115 50.5t-37 120.5t37 120.5t115 50.5q71 0 109 -50v42h69v-326z" />
<glyph unicode="&#xab;" horiz-adv-x="486" d="M224 69l-172 136v90l172 136v-93l-113 -88l113 -88v-93zM434 69l-172 136v90l172 136v-93l-113 -88l113 -88v-93z" />
<glyph unicode="&#xac;" horiz-adv-x="607" d="M551 94h-91v162h-404v88h495v-250z" />
<glyph unicode="&#xad;" horiz-adv-x="481" d="M69 239v88h343v-88h-343z" />
<glyph unicode="&#xae;" horiz-adv-x="816" d="M104 350q0 -130 87.5 -218.5t216.5 -88.5t216.5 88.5t87.5 218.5t-87.5 218.5t-216.5 88.5t-216.5 -88.5t-87.5 -218.5zM435 488h-99v-136h99q29 0 48.5 19.5t19.5 48.5t-19.5 48.5t-48.5 19.5zM46 350q0 152 105 257t257 105t257 -105t105 -257t-105 -257t-257 -105 t-257 105t-105 257zM415 293h-79v-142h-68v398h170q58 0 95.5 -37t37.5 -92q0 -42 -22.5 -73.5t-61.5 -45.5l92 -150h-77z" />
<glyph unicode="&#xaf;" horiz-adv-x="334" d="M309 582h-284v71h284v-71z" />
<glyph unicode="&#xb0;" horiz-adv-x="366" d="M25 558q0 66 45.5 110t112.5 44t112.5 -44t45.5 -110t-45.5 -110t-112.5 -44t-112.5 44t-45.5 110zM100 558q0 -36 24 -59.5t59 -23.5t59 23.5t24 59.5t-24 59.5t-59 23.5t-59 -23.5t-24 -59.5z" />
<glyph unicode="&#xb1;" horiz-adv-x="607" d="M258 358h-202v88h202v149h91v-149h202v-88h-202v-149h-91v149zM551 38h-495v88h495v-88z" />
<glyph unicode="&#xb2;" horiz-adv-x="353" d="M247 705q0 37 -21 56.5t-53 19.5q-30 0 -50 -17t-22 -44h-74q1 59 43.5 93t102.5 34q64 0 106.5 -37t42.5 -105q0 -46 -26 -74t-74 -51q-8 -4 -29.5 -14t-31.5 -15.5t-24.5 -15t-21.5 -19.5t-9 -21h216v-65h-295v43q0 26 10.5 48.5t21.5 36t36 29.5t34.5 21t36.5 18 q33 16 46 24t24 22t11 33z" />
<glyph unicode="&#xb3;" horiz-adv-x="346" d="M299 780l-95 -107q54 -9 82 -41t28 -77q0 -58 -38.5 -95t-111.5 -37q-61 0 -102 33t-42 93h74q2 -27 22 -44.5t51 -17.5q32 0 52.5 16.5t20.5 48.5q0 33 -21 50t-54 17h-15l-26 57l81 97h-172v67h266v-60z" />
<glyph unicode="&#xb4;" horiz-adv-x="250" d="M225 715l-123 -142h-77l83 142h117z" />
<glyph unicode="&#xb5;" horiz-adv-x="572" d="M63 -195v695h101v-297q0 -64 23.5 -93.5t77.5 -29.5q62 0 100 40.5t38 111.5v268h101v-500h-101v74q-52 -86 -159 -86q-46 0 -80 14v-197h-101z" />
<glyph unicode="&#xb6;" horiz-adv-x="554" d="M387 -165v865h84v-865h-84zM208 316q-84 0 -126.5 56t-42.5 136t42.5 136t126.5 56h84v-865h-84v481z" />
<glyph unicode="&#xb7;" horiz-adv-x="222" d="M47 284q0 28 18.5 46t45.5 18t45.5 -18t18.5 -46t-18.5 -46t-45.5 -18t-45.5 18t-18.5 46z" />
<glyph unicode="&#xb8;" horiz-adv-x="265" d="M78 -86l-17 28l26 68h54l-19 -50h16q45 0 73.5 -24.5t28.5 -65.5q0 -47 -34.5 -76t-93.5 -29q-39 0 -87 17v60q42 -19 79 -19q31 0 49.5 13.5t18.5 35.5q0 42 -55 42h-39z" />
<glyph unicode="&#xb9;" horiz-adv-x="236" d="M104 430v292h-87v56q84 6 106 62h56v-410h-75z" />
<glyph unicode="&#xba;" horiz-adv-x="402" d="M37 593q0 70 41.5 120.5t122.5 50.5t122.5 -50.5t41.5 -120.5t-41.5 -120.5t-122.5 -50.5t-122.5 50.5t-41.5 120.5zM296 593q0 45 -24 76.5t-71 31.5t-71 -31.5t-24 -76.5t24 -76.5t71 -31.5t71 31.5t24 76.5z" />
<glyph unicode="&#xbb;" horiz-adv-x="486" d="M262 69v93l113 88l-113 88v93l172 -136v-90zM52 69v93l113 88l-113 88v93l172 -136v-90z" />
<glyph unicode="&#xbc;" horiz-adv-x="716" d="M566 385l-112 -244h114v244h-2zM694 77h-51v-77h-75v77h-186v60l125 273h136v-269h51v-64zM179 290h-75v292h-87v56q84 6 106 62h56v-410zM242 -25h-76l273 750h76z" />
<glyph unicode="&#xbd;" horiz-adv-x="758" d="M242 -25h-76l273 750h76zM652 275q0 37 -21 56.5t-53 19.5q-30 0 -50 -17t-22 -44h-74q1 59 43.5 93t102.5 34q64 0 106.5 -37t42.5 -105q0 -46 -26 -74t-74 -51q-8 -4 -29.5 -14t-31.5 -15.5t-24.5 -15t-21.5 -19.5t-9 -21h216v-65h-295v43q0 26 10.5 48.5t21.5 36 t36 29.5t34.5 21t36.5 18q33 16 46 24t24 22t11 33zM179 290h-75v292h-87v56q84 6 106 62h56v-410z" />
<glyph unicode="&#xbe;" horiz-adv-x="786" d="M636 385l-112 -244h114v244h-2zM764 77h-51v-77h-75v77h-186v60l125 273h136v-269h51v-64zM299 700v-60l-95 -107q54 -9 82 -41t28 -77q0 -58 -38.5 -95t-111.5 -37q-61 0 -102 33t-42 93h74q2 -27 22 -44.5t51 -17.5q32 0 52.5 16.5t20.5 48.5q0 33 -21 50t-54 17h-15 l-26 57l81 97h-172v67h266zM312 -25h-76l273 750h76z" />
<glyph unicode="&#xbf;" horiz-adv-x="520" d="M328 446q0 -28 -18.5 -46t-45.5 -18t-45.5 18t-18.5 46t18.5 46t45.5 18t45.5 -18t18.5 -46zM308 306v-188h-44q-58 0 -87.5 -34.5t-29.5 -84.5t29.5 -84.5t87.5 -34.5t87.5 34.5t29.5 84.5h101q0 -87 -55 -149t-163 -62t-163 62t-55 149q0 76 42.5 132.5t126.5 69.5 l5 105h88z" />
<glyph unicode="&#xc0;" horiz-adv-x="664" d="M331 670l-130 -408h262l-130 408h-2zM118 0h-111l233 700h184l233 -700h-111l-53 166h-322zM293 773l-123 142h117l83 -142h-77z" />
<glyph unicode="&#xc1;" horiz-adv-x="664" d="M331 670l-130 -408h262l-130 408h-2zM118 0h-111l233 700h184l233 -700h-111l-53 166h-322zM377 915h117l-123 -142h-77z" />
<glyph unicode="&#xc2;" horiz-adv-x="664" d="M331 670l-130 -408h262l-130 408h-2zM118 0h-111l233 700h184l233 -700h-111l-53 166h-322zM276 916h112l107 -143h-89l-74 99l-74 -99h-89z" />
<glyph unicode="&#xc3;" horiz-adv-x="664" d="M331 670l-130 -408h262l-130 408h-2zM118 0h-111l233 700h184l233 -700h-111l-53 166h-322zM231 772h-55q2 45 26 75.5t69 30.5q24 0 64.5 -13t59.5 -13q33 0 38 38h55q-2 -45 -26 -75.5t-69 -30.5q-24 0 -64.5 13t-59.5 13q-33 0 -38 -38z" />
<glyph unicode="&#xc4;" horiz-adv-x="664" d="M331 670l-130 -408h262l-130 408h-2zM118 0h-111l233 700h184l233 -700h-111l-53 166h-322zM183 832q0 24 16 40t40 16t40 -16t16 -40t-16 -40t-40 -16t-40 16t-16 40zM369 832q0 24 16 40t40 16t40 -16t16 -40t-16 -40t-40 -16t-40 16t-16 40z" />
<glyph unicode="&#xc5;" horiz-adv-x="664" d="M331 670l-130 -408h262l-130 408h-2zM384 863q0 22 -14.5 37.5t-37.5 15.5t-37.5 -15.5t-14.5 -37.5t14.5 -37.5t37.5 -15.5t37.5 15.5t14.5 37.5zM118 0h-111l233 700h184l233 -700h-111l-53 166h-322zM225 863q0 45 30.5 75t76.5 30t76.5 -30t30.5 -75t-30.5 -75 t-76.5 -30t-76.5 30t-30.5 75z" />
<glyph unicode="&#xc6;" horiz-adv-x="1026" d="M492 670l-222 -408h224v408h-2zM128 0h-121l392 700h568v-95h-368v-204h344v-92h-344v-214h380v-95h-485v166h-276z" />
<glyph unicode="&#xc7;" horiz-adv-x="715" d="M570 259h106q-18 -118 -87 -191t-196 -79l-11 -29h16q45 0 73.5 -24.5t28.5 -65.5q0 -47 -34.5 -76t-93.5 -29q-39 0 -87 17v60q42 -19 79 -19q31 0 49.5 13.5t18.5 35.5q0 42 -55 42h-39l-17 28l18 47q-148 11 -224 114.5t-76 246.5q0 71 19.5 134t58.5 115t104 82.5 t149 30.5q138 0 212.5 -74t93.5 -197h-106q-33 173 -200 173q-112 0 -169 -77t-57 -187t57 -187t169 -77q167 0 200 173z" />
<glyph unicode="&#xc8;" horiz-adv-x="615" d="M164 915h117l83 -142h-77zM188 309v-214h380v-95h-485v700h473v-95h-368v-204h344v-92h-344z" />
<glyph unicode="&#xc9;" horiz-adv-x="615" d="M488 915l-123 -142h-77l83 142h117zM188 309v-214h380v-95h-485v700h473v-95h-368v-204h344v-92h-344z" />
<glyph unicode="&#xca;" horiz-adv-x="615" d="M382 916l107 -143h-89l-74 99l-74 -99h-89l107 143h112zM188 309v-214h380v-95h-485v700h473v-95h-368v-204h344v-92h-344z" />
<glyph unicode="&#xcb;" horiz-adv-x="615" d="M177 832q0 24 16 40t40 16t40 -16t16 -40t-16 -40t-40 -16t-40 16t-16 40zM363 832q0 24 16 40t40 16t40 -16t16 -40t-16 -40t-40 -16t-40 16t-16 40zM188 309v-214h380v-95h-485v700h473v-95h-368v-204h344v-92h-344z" />
<glyph unicode="&#xcc;" horiz-adv-x="271" d="M-26 915h117l83 -142h-77zM83 0v700h105v-700h-105z" />
<glyph unicode="&#xcd;" horiz-adv-x="271" d="M298 915l-123 -142h-77l83 142h117zM83 0v700h105v-700h-105z" />
<glyph unicode="&#xce;" horiz-adv-x="271" d="M192 916l107 -143h-89l-74 99l-74 -99h-89l107 143h112zM83 0v700h105v-700h-105z" />
<glyph unicode="&#xcf;" horiz-adv-x="271" d="M-13 832q0 24 16 40t40 16t40 -16t16 -40t-16 -40t-40 -16t-40 16t-16 40zM173 832q0 24 16 40t40 16t40 -16t16 -40t-16 -40t-40 -16t-40 16t-16 40zM83 0v700h105v-700h-105z" />
<glyph unicode="&#xd0;" horiz-adv-x="717" d="M103 700h250q83 0 147 -29.5t102 -80t57 -111.5t19 -129t-19 -129t-57 -111.5t-102 -80t-147 -29.5h-250v315h-72v71h72v314zM208 96h145q109 0 164.5 74t55.5 180t-55.5 180t-164.5 74h-145v-218h172v-71h-172v-219z" />
<glyph unicode="&#xd1;" horiz-adv-x="751" d="M275 772h-55q2 45 26 75.5t69 30.5q24 0 64.5 -13t59.5 -13q33 0 38 38h55q-2 -45 -26 -75.5t-69 -30.5q-24 0 -64.5 13t-59.5 13q-33 0 -38 -38zM279 700l282 -670h2v670h105v-700h-196l-282 670h-2v-670h-105v700h196z" />
<glyph unicode="&#xd2;" horiz-adv-x="740" d="M208 915h117l83 -142h-77zM39 350q0 71 19.5 134t58.5 115t104 82.5t149 30.5t149 -30.5t104 -82.5t58.5 -115t19.5 -134t-19.5 -134t-58.5 -115t-104 -82.5t-149 -30.5t-149 30.5t-104 82.5t-58.5 115t-19.5 134zM596 350q0 110 -57 187t-169 77t-169 -77t-57 -187 t57 -187t169 -77t169 77t57 187z" />
<glyph unicode="&#xd3;" horiz-adv-x="740" d="M532 915l-123 -142h-77l83 142h117zM39 350q0 71 19.5 134t58.5 115t104 82.5t149 30.5t149 -30.5t104 -82.5t58.5 -115t19.5 -134t-19.5 -134t-58.5 -115t-104 -82.5t-149 -30.5t-149 30.5t-104 82.5t-58.5 115t-19.5 134zM596 350q0 110 -57 187t-169 77t-169 -77 t-57 -187t57 -187t169 -77t169 77t57 187z" />
<glyph unicode="&#xd4;" horiz-adv-x="740" d="M596 350q0 110 -57 187t-169 77t-169 -77t-57 -187t57 -187t169 -77t169 77t57 187zM39 350q0 71 19.5 134t58.5 115t104 82.5t149 30.5t149 -30.5t104 -82.5t58.5 -115t19.5 -134t-19.5 -134t-58.5 -115t-104 -82.5t-149 -30.5t-149 30.5t-104 82.5t-58.5 115t-19.5 134 zM314 916h112l107 -143h-89l-74 99l-74 -99h-89z" />
<glyph unicode="&#xd5;" horiz-adv-x="740" d="M596 350q0 110 -57 187t-169 77t-169 -77t-57 -187t57 -187t169 -77t169 77t57 187zM39 350q0 71 19.5 134t58.5 115t104 82.5t149 30.5t149 -30.5t104 -82.5t58.5 -115t19.5 -134t-19.5 -134t-58.5 -115t-104 -82.5t-149 -30.5t-149 30.5t-104 82.5t-58.5 115t-19.5 134 zM269 772h-55q2 45 26 75.5t69 30.5q24 0 64.5 -13t59.5 -13q33 0 38 38h55q-2 -45 -26 -75.5t-69 -30.5q-24 0 -64.5 13t-59.5 13q-33 0 -38 -38z" />
<glyph unicode="&#xd6;" horiz-adv-x="740" d="M221 832q0 24 16 40t40 16t40 -16t16 -40t-16 -40t-40 -16t-40 16t-16 40zM407 832q0 24 16 40t40 16t40 -16t16 -40t-16 -40t-40 -16t-40 16t-16 40zM39 350q0 71 19.5 134t58.5 115t104 82.5t149 30.5t149 -30.5t104 -82.5t58.5 -115t19.5 -134t-19.5 -134t-58.5 -115 t-104 -82.5t-149 -30.5t-149 30.5t-104 82.5t-58.5 115t-19.5 134zM596 350q0 110 -57 187t-169 77t-169 -77t-57 -187t57 -187t169 -77t169 77t57 187z" />
<glyph unicode="&#xd7;" horiz-adv-x="576" d="M288 238l-170 -170l-62 62l170 170l-170 170l62 62l170 -170l170 170l62 -62l-170 -170l170 -170l-62 -62z" />
<glyph unicode="&#xd8;" horiz-adv-x="740" d="M193 174l313 397q-54 43 -136 43q-112 0 -169 -77t-57 -187q0 -105 49 -176zM596 350q0 105 -49 176l-313 -397q54 -43 136 -43q112 0 169 77t57 187zM648 751l48 -36l-83 -105q88 -101 88 -260q0 -71 -19.5 -134t-58.5 -115t-104 -82.5t-149 -30.5q-119 0 -199 61 l-79 -100l-48 36l83 105q-88 101 -88 260q0 71 19.5 134t58.5 115t104 82.5t149 30.5q119 0 199 -61z" />
<glyph unicode="&#xd9;" horiz-adv-x="716" d="M196 915h117l83 -142h-77zM538 277v423h105v-430q0 -51 -14 -97.5t-44.5 -89.5t-88.5 -69t-138 -26t-138 26t-88.5 69t-44.5 89.5t-14 97.5v430h105v-423q0 -36 9 -68.5t28.5 -61.5t56 -46t86.5 -17t86.5 17t56 46t28.5 61.5t9 68.5z" />
<glyph unicode="&#xda;" horiz-adv-x="716" d="M520 915l-123 -142h-77l83 142h117zM538 277v423h105v-430q0 -51 -14 -97.5t-44.5 -89.5t-88.5 -69t-138 -26t-138 26t-88.5 69t-44.5 89.5t-14 97.5v430h105v-423q0 -36 9 -68.5t28.5 -61.5t56 -46t86.5 -17t86.5 17t56 46t28.5 61.5t9 68.5z" />
<glyph unicode="&#xdb;" horiz-adv-x="716" d="M414 916l107 -143h-89l-74 99l-74 -99h-89l107 143h112zM538 277v423h105v-430q0 -51 -14 -97.5t-44.5 -89.5t-88.5 -69t-138 -26t-138 26t-88.5 69t-44.5 89.5t-14 97.5v430h105v-423q0 -36 9 -68.5t28.5 -61.5t56 -46t86.5 -17t86.5 17t56 46t28.5 61.5t9 68.5z" />
<glyph unicode="&#xdc;" horiz-adv-x="716" d="M209 832q0 24 16 40t40 16t40 -16t16 -40t-16 -40t-40 -16t-40 16t-16 40zM395 832q0 24 16 40t40 16t40 -16t16 -40t-16 -40t-40 -16t-40 16t-16 40zM538 277v423h105v-430q0 -51 -14 -97.5t-44.5 -89.5t-88.5 -69t-138 -26t-138 26t-88.5 69t-44.5 89.5t-14 97.5v430 h105v-423q0 -36 9 -68.5t28.5 -61.5t56 -46t86.5 -17t86.5 17t56 46t28.5 61.5t9 68.5z" />
<glyph unicode="&#xdd;" horiz-adv-x="625" d="M475 915l-123 -142h-77l83 142h117zM223 275l-211 425h113l187 -395h1l187 395h113l-211 -425h-37v-275h-105v275h-37z" />
<glyph unicode="&#xde;" horiz-adv-x="641" d="M365 488h-177v-276h177q60 0 99 39t39 99t-39 99t-99 39zM368 117h-180v-117h-105v700h105v-117h180q104 0 172 -66t68 -167t-68 -167t-172 -66z" />
<glyph unicode="&#xdf;" horiz-adv-x="594" d="M295 328v78q54 0 90.5 30.5t36.5 81.5q0 47 -34.5 75.5t-84.5 28.5q-66 0 -100 -46t-34 -118v-558h-101v558q0 113 59 183.5t176 70.5q93 0 155.5 -51t62.5 -136q0 -99 -87 -149q121 -44 121 -172q0 -56 -21.5 -97t-59.5 -63.5t-82.5 -33t-96.5 -10.5h-65v90h65 q68 0 113.5 28t45.5 91t-45.5 91t-113.5 28z" />
<glyph unicode="&#xe0;" horiz-adv-x="609" d="M440 250q0 72 -37.5 121.5t-112.5 49.5t-112.5 -49.5t-37.5 -121.5t37.5 -121.5t112.5 -49.5t112.5 49.5t37.5 121.5zM541 0h-101v66q-61 -78 -168 -78q-62 0 -108.5 23t-73 62t-39 83.5t-12.5 93.5t12.5 93.5t39 83.5t73 62t108.5 23q107 0 168 -78v66h101v-500z M251 573l-123 142h117l83 -142h-77z" />
<glyph unicode="&#xe1;" horiz-adv-x="609" d="M440 250q0 72 -37.5 121.5t-112.5 49.5t-112.5 -49.5t-37.5 -121.5t37.5 -121.5t112.5 -49.5t112.5 49.5t37.5 121.5zM541 0h-101v66q-61 -78 -168 -78q-62 0 -108.5 23t-73 62t-39 83.5t-12.5 93.5t12.5 93.5t39 83.5t73 62t108.5 23q107 0 168 -78v66h101v-500z M335 716h117l-123 -142h-77z" />
<glyph unicode="&#xe2;" horiz-adv-x="609" d="M440 250q0 72 -37.5 121.5t-112.5 49.5t-112.5 -49.5t-37.5 -121.5t37.5 -121.5t112.5 -49.5t112.5 49.5t37.5 121.5zM541 0h-101v66q-61 -78 -168 -78q-62 0 -108.5 23t-73 62t-39 83.5t-12.5 93.5t12.5 93.5t39 83.5t73 62t108.5 23q107 0 168 -78v66h101v-500z M234 716h112l107 -143h-89l-74 99l-74 -99h-89z" />
<glyph unicode="&#xe3;" horiz-adv-x="609" d="M440 250q0 72 -37.5 121.5t-112.5 49.5t-112.5 -49.5t-37.5 -121.5t37.5 -121.5t112.5 -49.5t112.5 49.5t37.5 121.5zM541 0h-101v66q-61 -78 -168 -78q-62 0 -108.5 23t-73 62t-39 83.5t-12.5 93.5t12.5 93.5t39 83.5t73 62t108.5 23q107 0 168 -78v66h101v-500z M189 572h-55q2 45 26 75.5t69 30.5q24 0 64.5 -13t59.5 -13q33 0 38 38h55q-2 -45 -26 -75.5t-69 -30.5q-24 0 -64.5 13t-59.5 13q-33 0 -38 -38z" />
<glyph unicode="&#xe4;" horiz-adv-x="609" d="M440 250q0 72 -37.5 121.5t-112.5 49.5t-112.5 -49.5t-37.5 -121.5t37.5 -121.5t112.5 -49.5t112.5 49.5t37.5 121.5zM541 0h-101v66q-61 -78 -168 -78q-62 0 -108.5 23t-73 62t-39 83.5t-12.5 93.5t12.5 93.5t39 83.5t73 62t108.5 23q107 0 168 -78v66h101v-500z M141 632q0 24 16 40t40 16t40 -16t16 -40t-16 -40t-40 -16t-40 16t-16 40zM327 632q0 24 16 40t40 16t40 -16t16 -40t-16 -40t-40 -16t-40 16t-16 40z" />
<glyph unicode="&#xe5;" horiz-adv-x="609" d="M440 250q0 72 -37.5 121.5t-112.5 49.5t-112.5 -49.5t-37.5 -121.5t37.5 -121.5t112.5 -49.5t112.5 49.5t37.5 121.5zM342 663q0 22 -14.5 37.5t-37.5 15.5t-37.5 -15.5t-14.5 -37.5t14.5 -37.5t37.5 -15.5t37.5 15.5t14.5 37.5zM541 0h-101v66q-61 -78 -168 -78 q-62 0 -108.5 23t-73 62t-39 83.5t-12.5 93.5t12.5 93.5t39 83.5t73 62t108.5 23q107 0 168 -78v66h101v-500zM183 663q0 45 30.5 75t76.5 30t76.5 -30t30.5 -75t-30.5 -75t-76.5 -30t-76.5 30t-30.5 75z" />
<glyph unicode="&#xe6;" horiz-adv-x="960" d="M440 250q0 72 -37.5 121.5t-112.5 49.5t-112.5 -49.5t-37.5 -121.5t37.5 -121.5t112.5 -49.5t112.5 49.5t37.5 121.5zM544 297h272q-9 59 -43 94.5t-93 35.5t-93 -35.5t-43 -94.5zM541 0h-101v66q-61 -78 -168 -78q-62 0 -108.5 23t-73 62t-39 83.5t-12.5 93.5t12.5 93.5 t39 83.5t73 62t108.5 23q107 0 168 -78v66h101v-66q51 78 154 78q109 0 167.5 -77.5t58.5 -184.5v-27h-380q7 -66 41 -107.5t98 -41.5q98 0 127 74h103q-20 -75 -75 -117.5t-142 -42.5q-111 0 -152 78v-66z" />
<glyph unicode="&#xe7;" horiz-adv-x="562" d="M420 181h103q-14 -81 -65.5 -133.5t-144.5 -58.5l-11 -29h16q45 0 73.5 -24.5t28.5 -65.5q0 -47 -34.5 -76t-93.5 -29q-39 0 -87 17v60q42 -19 79 -19q31 0 49.5 13.5t18.5 35.5q0 42 -55 42h-39l-17 28l18 47q-109 10 -164.5 85t-55.5 176q0 108 63.5 185t187.5 77 q104 0 161 -53t72 -140h-103q-24 101 -130 101q-74 0 -112 -49.5t-38 -120.5t38 -120.5t112 -49.5q106 0 130 101z" />
<glyph unicode="&#xe8;" horiz-adv-x="560" d="M144 297h272q-10 59 -43.5 94.5t-92.5 35.5t-92.5 -35.5t-43.5 -94.5zM407 148h103q-43 -160 -230 -160q-119 0 -180 77t-61 185t61 185t180 77t180 -77t61 -185v-27h-380q6 -66 40.5 -107.5t98.5 -41.5q98 0 127 74zM241 573l-123 142h117l83 -142h-77z" />
<glyph unicode="&#xe9;" horiz-adv-x="560" d="M144 297h272q-10 59 -43.5 94.5t-92.5 35.5t-92.5 -35.5t-43.5 -94.5zM407 148h103q-43 -160 -230 -160q-119 0 -180 77t-61 185t61 185t180 77t180 -77t61 -185v-27h-380q6 -66 40.5 -107.5t98.5 -41.5q98 0 127 74zM325 715h117l-123 -142h-77z" />
<glyph unicode="&#xea;" horiz-adv-x="560" d="M144 297h272q-10 59 -43.5 94.5t-92.5 35.5t-92.5 -35.5t-43.5 -94.5zM407 148h103q-43 -160 -230 -160q-119 0 -180 77t-61 185t61 185t180 77t180 -77t61 -185v-27h-380q6 -66 40.5 -107.5t98.5 -41.5q98 0 127 74zM224 716h112l107 -143h-89l-74 99l-74 -99h-89z" />
<glyph unicode="&#xeb;" horiz-adv-x="560" d="M144 297h272q-10 59 -43.5 94.5t-92.5 35.5t-92.5 -35.5t-43.5 -94.5zM407 148h103q-43 -160 -230 -160q-119 0 -180 77t-61 185t61 185t180 77t180 -77t61 -185v-27h-380q6 -66 40.5 -107.5t98.5 -41.5q98 0 127 74zM131 632q0 24 16 40t40 16t40 -16t16 -40t-16 -40 t-40 -16t-40 16t-16 40zM317 632q0 24 16 40t40 16t40 -16t16 -40t-16 -40t-40 -16t-40 16t-16 40z" />
<glyph unicode="&#xec;" horiz-adv-x="237" d="M-43 715h117l83 -142h-77zM68 0v500h101v-500h-101z" />
<glyph unicode="&#xed;" horiz-adv-x="237" d="M281 715l-123 -142h-77l83 142h117zM68 0v500h101v-500h-101z" />
<glyph unicode="&#xee;" horiz-adv-x="237" d="M175 716l107 -143h-89l-74 99l-74 -99h-89l107 143h112zM68 0v500h101v-500h-101z" />
<glyph unicode="&#xef;" horiz-adv-x="237" d="M-30 632q0 24 16 40t40 16t40 -16t16 -40t-16 -40t-40 -16t-40 16t-16 40zM156 632q0 24 16 40t40 16t40 -16t16 -40t-16 -40t-40 -16t-40 16t-16 40zM68 0v500h101v-500h-101z" />
<glyph unicode="&#xf0;" horiz-adv-x="580" d="M440 250q0 71 -38 120.5t-112 49.5t-112 -49.5t-38 -120.5t38 -120.5t112 -49.5t112 49.5t38 120.5zM187 561l-53 53l105 53q-44 38 -90 66l72 48q49 -32 96 -74l99 50l53 -53l-98 -50q170 -185 170 -404q0 -108 -63.5 -185t-187.5 -77t-187.5 77t-63.5 185t62.5 185 t181.5 77q65 0 111 -33q-40 73 -100 136z" />
<glyph unicode="&#xf1;" horiz-adv-x="572" d="M188 572h-55q2 45 26 75.5t69 30.5q24 0 64.5 -13t59.5 -13q33 0 38 38h55q-2 -45 -26 -75.5t-69 -30.5q-24 0 -64.5 13t-59.5 13q-33 0 -38 -38zM509 0h-101v297q0 64 -23.5 93.5t-77.5 29.5q-62 0 -100 -40.5t-38 -111.5v-268h-101v500h101v-74q52 86 159 86 q181 0 181 -212v-300z" />
<glyph unicode="&#xf2;" horiz-adv-x="580" d="M128 715h117l83 -142h-77zM39 250q0 108 63.5 185t187.5 77t187.5 -77t63.5 -185t-63.5 -185t-187.5 -77t-187.5 77t-63.5 185zM440 250q0 71 -38 120.5t-112 49.5t-112 -49.5t-38 -120.5t38 -120.5t112 -49.5t112 49.5t38 120.5z" />
<glyph unicode="&#xf3;" horiz-adv-x="580" d="M452 715l-123 -142h-77l83 142h117zM39 250q0 108 63.5 185t187.5 77t187.5 -77t63.5 -185t-63.5 -185t-187.5 -77t-187.5 77t-63.5 185zM440 250q0 71 -38 120.5t-112 49.5t-112 -49.5t-38 -120.5t38 -120.5t112 -49.5t112 49.5t38 120.5z" />
<glyph unicode="&#xf4;" horiz-adv-x="580" d="M440 250q0 71 -38 120.5t-112 49.5t-112 -49.5t-38 -120.5t38 -120.5t112 -49.5t112 49.5t38 120.5zM39 250q0 108 63.5 185t187.5 77t187.5 -77t63.5 -185t-63.5 -185t-187.5 -77t-187.5 77t-63.5 185zM234 716h112l107 -143h-89l-74 99l-74 -99h-89z" />
<glyph unicode="&#xf5;" horiz-adv-x="580" d="M440 250q0 71 -38 120.5t-112 49.5t-112 -49.5t-38 -120.5t38 -120.5t112 -49.5t112 49.5t38 120.5zM39 250q0 108 63.5 185t187.5 77t187.5 -77t63.5 -185t-63.5 -185t-187.5 -77t-187.5 77t-63.5 185zM189 572h-55q2 45 26 75.5t69 30.5q24 0 64.5 -13t59.5 -13 q33 0 38 38h55q-2 -45 -26 -75.5t-69 -30.5q-24 0 -64.5 13t-59.5 13q-33 0 -38 -38z" />
<glyph unicode="&#xf6;" horiz-adv-x="580" d="M141 632q0 24 16 40t40 16t40 -16t16 -40t-16 -40t-40 -16t-40 16t-16 40zM327 632q0 24 16 40t40 16t40 -16t16 -40t-16 -40t-40 -16t-40 16t-16 40zM39 250q0 108 63.5 185t187.5 77t187.5 -77t63.5 -185t-63.5 -185t-187.5 -77t-187.5 77t-63.5 185zM440 250 q0 71 -38 120.5t-112 49.5t-112 -49.5t-38 -120.5t38 -120.5t112 -49.5t112 49.5t38 120.5z" />
<glyph unicode="&#xf7;" horiz-adv-x="607" d="M247 502q0 24 16.5 40.5t40.5 16.5t40.5 -16.5t16.5 -40.5t-16.5 -40.5t-40.5 -16.5t-40.5 16.5t-16.5 40.5zM551 256h-495v88h495v-88zM247 98q0 24 16.5 40.5t40.5 16.5t40.5 -16.5t16.5 -40.5t-16.5 -40.5t-40.5 -16.5t-40.5 16.5t-16.5 40.5z" />
<glyph unicode="&#xf8;" horiz-adv-x="580" d="M169 142l202 256q-33 22 -81 22q-74 0 -112 -49.5t-38 -120.5q0 -63 29 -108zM440 250q0 63 -29 108l-202 -256q33 -22 81 -22q74 0 112 49.5t38 120.5zM490 549l46 -33l-61 -78q66 -72 66 -188q0 -108 -63.5 -185t-187.5 -77q-81 0 -141 37l-59 -74l-46 33l61 78 q-66 72 -66 188q0 108 63.5 185t187.5 77q81 0 141 -37z" />
<glyph unicode="&#xf9;" horiz-adv-x="572" d="M122 715h117l83 -142h-77zM63 500h101v-297q0 -64 23.5 -93.5t77.5 -29.5q62 0 100 40.5t38 111.5v268h101v-500h-101v74q-52 -86 -159 -86q-181 0 -181 212v300z" />
<glyph unicode="&#xfa;" horiz-adv-x="572" d="M446 715l-123 -142h-77l83 142h117zM63 500h101v-297q0 -64 23.5 -93.5t77.5 -29.5q62 0 100 40.5t38 111.5v268h101v-500h-101v74q-52 -86 -159 -86q-181 0 -181 212v300z" />
<glyph unicode="&#xfb;" horiz-adv-x="572" d="M340 716l107 -143h-89l-74 99l-74 -99h-89l107 143h112zM63 500h101v-297q0 -64 23.5 -93.5t77.5 -29.5q62 0 100 40.5t38 111.5v268h101v-500h-101v74q-52 -86 -159 -86q-181 0 -181 212v300z" />
<glyph unicode="&#xfc;" horiz-adv-x="572" d="M135 632q0 24 16 40t40 16t40 -16t16 -40t-16 -40t-40 -16t-40 16t-16 40zM321 632q0 24 16 40t40 16t40 -16t16 -40t-16 -40t-40 -16t-40 16t-16 40zM63 500h101v-297q0 -64 23.5 -93.5t77.5 -29.5q62 0 100 40.5t38 111.5v268h101v-500h-101v74q-52 -86 -159 -86 q-181 0 -181 212v300z" />
<glyph unicode="&#xfd;" horiz-adv-x="530" d="M427 715l-123 -142h-77l83 142h117zM518 500l-216 -695h-104l60 195h-86l-160 500h105l147 -475h2l147 475h105z" />
<glyph unicode="&#xfe;" horiz-adv-x="609" d="M169 250q0 -72 37.5 -121.5t112.5 -49.5t112.5 49.5t37.5 121.5t-37.5 121.5t-112.5 49.5t-112.5 -49.5t-37.5 -121.5zM169 66v-261h-101v895h101v-266q61 78 168 78q62 0 108.5 -23t73 -62t39 -83.5t12.5 -93.5t-12.5 -93.5t-39 -83.5t-73 -62t-108.5 -23 q-107 0 -168 78z" />
<glyph unicode="&#xff;" horiz-adv-x="530" d="M116 632q0 24 16 40t40 16t40 -16t16 -40t-16 -40t-40 -16t-40 16t-16 40zM302 632q0 24 16 40t40 16t40 -16t16 -40t-16 -40t-40 -16t-40 16t-16 40zM518 500l-216 -695h-104l60 195h-86l-160 500h105l147 -475h2l147 475h105z" />
<glyph unicode="&#x100;" horiz-adv-x="664" d="M331 670l-130 -408h262l-130 408h-2zM118 0h-111l233 700h184l233 -700h-111l-53 166h-322zM474 853v-71h-284v71h284z" />
<glyph unicode="&#x101;" horiz-adv-x="609" d="M440 250q0 72 -37.5 121.5t-112.5 49.5t-112.5 -49.5t-37.5 -121.5t37.5 -121.5t112.5 -49.5t112.5 49.5t37.5 121.5zM541 0h-101v66q-61 -78 -168 -78q-62 0 -108.5 23t-73 62t-39 83.5t-12.5 93.5t12.5 93.5t39 83.5t73 62t108.5 23q107 0 168 -78v66h101v-500z M432 653v-71h-284v71h284z" />
<glyph unicode="&#x102;" horiz-adv-x="664" d="M331 670l-130 -408h262l-130 408h-2zM118 0h-111l233 700h184l233 -700h-111l-53 166h-322zM174 916h73q0 -35 23 -57t62 -22t62 22t23 57h73q0 -64 -43 -104.5t-115 -40.5t-115 40.5t-43 104.5z" />
<glyph unicode="&#x103;" horiz-adv-x="609" d="M440 250q0 72 -37.5 121.5t-112.5 49.5t-112.5 -49.5t-37.5 -121.5t37.5 -121.5t112.5 -49.5t112.5 49.5t37.5 121.5zM541 0h-101v66q-61 -78 -168 -78q-62 0 -108.5 23t-73 62t-39 83.5t-12.5 93.5t12.5 93.5t39 83.5t73 62t108.5 23q107 0 168 -78v66h101v-500z M132 716h73q0 -35 23 -57t62 -22t62 22t23 57h73q0 -64 -43 -104.5t-115 -40.5t-115 40.5t-43 104.5z" />
<glyph unicode="&#x104;" horiz-adv-x="664" d="M331 670l-130 -408h262l-130 408h-2zM118 0h-111l233 700h184l233 -700q-30 -24 -56 -60.5t-26 -71.5q0 -44 41 -44q24 0 41 8v-56q-21 -11 -56 -11q-44 0 -71.5 25t-27.5 68q0 79 84 142h-40l-53 166h-322z" />
<glyph unicode="&#x105;" horiz-adv-x="609" d="M440 250q0 72 -37.5 121.5t-112.5 49.5t-112.5 -49.5t-37.5 -121.5t37.5 -121.5t112.5 -49.5t112.5 49.5t37.5 121.5zM470 0h-30v66q-61 -78 -168 -78q-62 0 -108.5 23t-73 62t-39 83.5t-12.5 93.5t12.5 93.5t39 83.5t73 62t108.5 23q107 0 168 -78v66h101v-500 q-30 -24 -56 -60.5t-26 -71.5q0 -44 41 -44q24 0 41 8v-56q-21 -11 -56 -11q-44 0 -71.5 25t-27.5 68q0 79 84 142z" />
<glyph unicode="&#x106;" horiz-adv-x="715" d="M532 915l-123 -142h-77l83 142h117zM570 259h106q-19 -123 -93.5 -197t-212.5 -74q-84 0 -149 30.5t-104 82.5t-58.5 115t-19.5 134t19.5 134t58.5 115t104 82.5t149 30.5q138 0 212.5 -74t93.5 -197h-106q-33 173 -200 173q-112 0 -169 -77t-57 -187t57 -187t169 -77 q167 0 200 173z" />
<glyph unicode="&#x107;" horiz-adv-x="562" d="M452 715l-123 -142h-77l83 142h117zM523 319h-103q-24 101 -130 101q-74 0 -112 -49.5t-38 -120.5t38 -120.5t112 -49.5q106 0 130 101h103q-15 -87 -72 -140t-161 -53q-124 0 -187.5 77t-63.5 185t63.5 185t187.5 77q104 0 161 -53t72 -140z" />
<glyph unicode="&#x108;" horiz-adv-x="715" d="M426 916l107 -143h-89l-74 99l-74 -99h-89l107 143h112zM570 259h106q-19 -123 -93.5 -197t-212.5 -74q-84 0 -149 30.5t-104 82.5t-58.5 115t-19.5 134t19.5 134t58.5 115t104 82.5t149 30.5q138 0 212.5 -74t93.5 -197h-106q-33 173 -200 173q-112 0 -169 -77t-57 -187 t57 -187t169 -77q167 0 200 173z" />
<glyph unicode="&#x109;" horiz-adv-x="562" d="M346 716l107 -143h-89l-74 99l-74 -99h-89l107 143h112zM523 319h-103q-24 101 -130 101q-74 0 -112 -49.5t-38 -120.5t38 -120.5t112 -49.5q106 0 130 101h103q-15 -87 -72 -140t-161 -53q-124 0 -187.5 77t-63.5 185t63.5 185t187.5 77q104 0 161 -53t72 -140z" />
<glyph unicode="&#x10a;" horiz-adv-x="715" d="M313 833q0 24 16.5 40.5t40.5 16.5t40.5 -16.5t16.5 -40.5t-16.5 -40.5t-40.5 -16.5t-40.5 16.5t-16.5 40.5zM570 259h106q-19 -123 -93.5 -197t-212.5 -74q-84 0 -149 30.5t-104 82.5t-58.5 115t-19.5 134t19.5 134t58.5 115t104 82.5t149 30.5q138 0 212.5 -74 t93.5 -197h-106q-33 173 -200 173q-112 0 -169 -77t-57 -187t57 -187t169 -77q167 0 200 173z" />
<glyph unicode="&#x10b;" horiz-adv-x="562" d="M233 633q0 24 16.5 40.5t40.5 16.5t40.5 -16.5t16.5 -40.5t-16.5 -40.5t-40.5 -16.5t-40.5 16.5t-16.5 40.5zM523 319h-103q-24 101 -130 101q-74 0 -112 -49.5t-38 -120.5t38 -120.5t112 -49.5q106 0 130 101h103q-15 -87 -72 -140t-161 -53q-124 0 -187.5 77t-63.5 185 t63.5 185t187.5 77q104 0 161 -53t72 -140z" />
<glyph unicode="&#x10c;" horiz-adv-x="715" d="M444 916h89l-107 -143h-112l-107 143h89l74 -99zM570 259h106q-19 -123 -93.5 -197t-212.5 -74q-84 0 -149 30.5t-104 82.5t-58.5 115t-19.5 134t19.5 134t58.5 115t104 82.5t149 30.5q138 0 212.5 -74t93.5 -197h-106q-33 173 -200 173q-112 0 -169 -77t-57 -187 t57 -187t169 -77q167 0 200 173z" />
<glyph unicode="&#x10d;" horiz-adv-x="562" d="M364 716h89l-107 -143h-112l-107 143h89l74 -99zM523 319h-103q-24 101 -130 101q-74 0 -112 -49.5t-38 -120.5t38 -120.5t112 -49.5q106 0 130 101h103q-15 -87 -72 -140t-161 -53q-124 0 -187.5 77t-63.5 185t63.5 185t187.5 77q104 0 161 -53t72 -140z" />
<glyph unicode="&#x10e;" horiz-adv-x="697" d="M188 96h145q109 0 164.5 74t55.5 180t-55.5 180t-164.5 74h-145v-508zM83 700h250q83 0 147 -29.5t102 -80t57 -111.5t19 -129t-19 -129t-57 -111.5t-102 -80t-147 -29.5h-250v700zM333 817l74 99h89l-107 -143h-112l-107 143h89z" />
<glyph unicode="&#x10f;" horiz-adv-x="749" d="M440 250q0 72 -37.5 121.5t-112.5 49.5t-112.5 -49.5t-37.5 -121.5t37.5 -121.5t112.5 -49.5t112.5 49.5t37.5 121.5zM541 0h-101v66q-61 -78 -168 -78q-62 0 -108.5 23t-73 62t-39 83.5t-12.5 93.5t12.5 93.5t39 83.5t73 62t108.5 23q107 0 168 -78v266h101v-700z M648 700h112l-81 -142h-72z" />
<glyph unicode="&#x110;" horiz-adv-x="717" d="M103 700h250q83 0 147 -29.5t102 -80t57 -111.5t19 -129t-19 -129t-57 -111.5t-102 -80t-147 -29.5h-250v315h-72v71h72v314zM208 96h145q109 0 164.5 74t55.5 180t-55.5 180t-164.5 74h-145v-218h172v-71h-172v-219z" />
<glyph unicode="&#x111;" horiz-adv-x="629" d="M440 250q0 72 -37.5 121.5t-112.5 49.5t-112.5 -49.5t-37.5 -121.5t37.5 -121.5t112.5 -49.5t112.5 49.5t37.5 121.5zM541 0h-101v66q-61 -78 -168 -78q-62 0 -108.5 23t-73 62t-39 83.5t-12.5 93.5t12.5 93.5t39 83.5t73 62t108.5 23q107 0 168 -78v139h-145v68h145v59 h101v-59h51v-68h-51v-573z" />
<glyph unicode="&#x112;" horiz-adv-x="615" d="M468 782h-284v71h284v-71zM188 309v-214h380v-95h-485v700h473v-95h-368v-204h344v-92h-344z" />
<glyph unicode="&#x113;" horiz-adv-x="560" d="M144 297h272q-10 59 -43.5 94.5t-92.5 35.5t-92.5 -35.5t-43.5 -94.5zM407 148h103q-43 -160 -230 -160q-119 0 -180 77t-61 185t61 185t180 77t180 -77t61 -185v-27h-380q6 -66 40.5 -107.5t98.5 -41.5q98 0 127 74zM422 653v-71h-284v71h284z" />
<glyph unicode="&#x114;" horiz-adv-x="615" d="M168 916h73q0 -35 23 -57t62 -22t62 22t23 57h73q0 -64 -43 -104.5t-115 -40.5t-115 40.5t-43 104.5zM188 309v-214h380v-95h-485v700h473v-95h-368v-204h344v-92h-344z" />
<glyph unicode="&#x115;" horiz-adv-x="560" d="M144 297h272q-10 59 -43.5 94.5t-92.5 35.5t-92.5 -35.5t-43.5 -94.5zM407 148h103q-43 -160 -230 -160q-119 0 -180 77t-61 185t61 185t180 77t180 -77t61 -185v-27h-380q6 -66 40.5 -107.5t98.5 -41.5q98 0 127 74zM122 716h73q0 -35 23 -57t62 -22t62 22t23 57h73 q0 -64 -43 -104.5t-115 -40.5t-115 40.5t-43 104.5z" />
<glyph unicode="&#x116;" horiz-adv-x="615" d="M269 833q0 24 16.5 40.5t40.5 16.5t40.5 -16.5t16.5 -40.5t-16.5 -40.5t-40.5 -16.5t-40.5 16.5t-16.5 40.5zM188 309v-214h380v-95h-485v700h473v-95h-368v-204h344v-92h-344z" />
<glyph unicode="&#x117;" horiz-adv-x="560" d="M144 297h272q-10 59 -43.5 94.5t-92.5 35.5t-92.5 -35.5t-43.5 -94.5zM407 148h103q-43 -160 -230 -160q-119 0 -180 77t-61 185t61 185t180 77t180 -77t61 -185v-27h-380q6 -66 40.5 -107.5t98.5 -41.5q98 0 127 74zM223 633q0 24 16.5 40.5t40.5 16.5t40.5 -16.5 t16.5 -40.5t-16.5 -40.5t-40.5 -16.5t-40.5 16.5t-16.5 40.5z" />
<glyph unicode="&#x118;" horiz-adv-x="615" d="M188 309v-214h380v-95q-30 -24 -56 -60.5t-26 -71.5q0 -44 41 -44q24 0 41 8v-56q-21 -11 -56 -11q-44 0 -71.5 25t-27.5 68q0 79 84 142h-414v700h473v-95h-368v-204h344v-92h-344z" />
<glyph unicode="&#x119;" horiz-adv-x="560" d="M144 297h272q-10 59 -43.5 94.5t-92.5 35.5t-92.5 -35.5t-43.5 -94.5zM407 148h103q-41 -149 -208 -159q-69 -64 -69 -121q0 -44 41 -44q24 0 41 8v-56q-21 -11 -56 -11q-44 0 -71.5 25t-27.5 68q0 74 73 134q-96 16 -145 89t-49 169q0 108 61 185t180 77t180 -77 t61 -185v-27h-380q6 -66 40.5 -107.5t98.5 -41.5q98 0 127 74z" />
<glyph unicode="&#x11a;" horiz-adv-x="615" d="M400 916h89l-107 -143h-112l-107 143h89l74 -99zM188 309v-214h380v-95h-485v700h473v-95h-368v-204h344v-92h-344z" />
<glyph unicode="&#x11b;" horiz-adv-x="560" d="M144 297h272q-10 59 -43.5 94.5t-92.5 35.5t-92.5 -35.5t-43.5 -94.5zM407 148h103q-43 -160 -230 -160q-119 0 -180 77t-61 185t61 185t180 77t180 -77t61 -185v-27h-380q6 -66 40.5 -107.5t98.5 -41.5q98 0 127 74zM280 617l74 99h89l-107 -143h-112l-107 143h89z" />
<glyph unicode="&#x11c;" horiz-adv-x="752" d="M426 916l107 -143h-89l-74 99l-74 -99h-89l107 143h112zM39 350q0 71 19.5 134t58.5 115t104 82.5t149 30.5q133 0 207.5 -70t96.5 -187h-107q-38 159 -197 159q-112 0 -169 -77t-57 -187q0 -52 13 -98t39.5 -84t72 -60.5t103.5 -22.5q183 0 207 192h-209v87h313v-364 h-68l-17 103q-67 -115 -228 -115q-84 0 -149 30.5t-104 82.5t-58.5 115t-19.5 134z" />
<glyph unicode="&#x11d;" horiz-adv-x="599" d="M440 252q0 71 -38 120.5t-112 49.5t-112 -49.5t-38 -120.5t38 -120.5t112 -49.5t112 49.5t38 120.5zM440 19v50q-60 -77 -168 -77q-62 0 -108.5 23t-73 61.5t-39 83t-12.5 92.5t12.5 92.5t39 83t73 61.5t108.5 23q108 0 168 -77v65h101v-481q0 -60 -21 -105t-57 -70.5 t-79 -38t-92 -12.5q-82 0 -146 34t-89 105h113q40 -53 121 -53q63 0 106 34t43 106zM234 716h112l107 -143h-89l-74 99l-74 -99h-89z" />
<glyph unicode="&#x11e;" horiz-adv-x="752" d="M212 916h73q0 -35 23 -57t62 -22t62 22t23 57h73q0 -64 -43 -104.5t-115 -40.5t-115 40.5t-43 104.5zM39 350q0 71 19.5 134t58.5 115t104 82.5t149 30.5q133 0 207.5 -70t96.5 -187h-107q-38 159 -197 159q-112 0 -169 -77t-57 -187q0 -52 13 -98t39.5 -84t72 -60.5 t103.5 -22.5q183 0 207 192h-209v87h313v-364h-68l-17 103q-67 -115 -228 -115q-84 0 -149 30.5t-104 82.5t-58.5 115t-19.5 134z" />
<glyph unicode="&#x11f;" horiz-adv-x="599" d="M440 252q0 71 -38 120.5t-112 49.5t-112 -49.5t-38 -120.5t38 -120.5t112 -49.5t112 49.5t38 120.5zM440 19v50q-60 -77 -168 -77q-62 0 -108.5 23t-73 61.5t-39 83t-12.5 92.5t12.5 92.5t39 83t73 61.5t108.5 23q108 0 168 -77v65h101v-481q0 -60 -21 -105t-57 -70.5 t-79 -38t-92 -12.5q-82 0 -146 34t-89 105h113q40 -53 121 -53q63 0 106 34t43 106zM132 716h73q0 -35 23 -57t62 -22t62 22t23 57h73q0 -64 -43 -104.5t-115 -40.5t-115 40.5t-43 104.5z" />
<glyph unicode="&#x120;" horiz-adv-x="752" d="M313 833q0 24 16.5 40.5t40.5 16.5t40.5 -16.5t16.5 -40.5t-16.5 -40.5t-40.5 -16.5t-40.5 16.5t-16.5 40.5zM39 350q0 71 19.5 134t58.5 115t104 82.5t149 30.5q133 0 207.5 -70t96.5 -187h-107q-38 159 -197 159q-112 0 -169 -77t-57 -187q0 -52 13 -98t39.5 -84 t72 -60.5t103.5 -22.5q183 0 207 192h-209v87h313v-364h-68l-17 103q-67 -115 -228 -115q-84 0 -149 30.5t-104 82.5t-58.5 115t-19.5 134z" />
<glyph unicode="&#x121;" horiz-adv-x="599" d="M440 252q0 71 -38 120.5t-112 49.5t-112 -49.5t-38 -120.5t38 -120.5t112 -49.5t112 49.5t38 120.5zM440 19v50q-60 -77 -168 -77q-62 0 -108.5 23t-73 61.5t-39 83t-12.5 92.5t12.5 92.5t39 83t73 61.5t108.5 23q108 0 168 -77v65h101v-481q0 -60 -21 -105t-57 -70.5 t-79 -38t-92 -12.5q-82 0 -146 34t-89 105h113q40 -53 121 -53q63 0 106 34t43 106zM233 633q0 24 16.5 40.5t40.5 16.5t40.5 -16.5t16.5 -40.5t-16.5 -40.5t-40.5 -16.5t-40.5 16.5t-16.5 40.5z" />
<glyph unicode="&#x122;" horiz-adv-x="752" d="M39 350q0 71 19.5 134t58.5 115t104 82.5t149 30.5q133 0 207.5 -70t96.5 -187h-107q-38 159 -197 159q-112 0 -169 -77t-57 -187q0 -52 13 -98t39.5 -84t72 -60.5t103.5 -22.5q183 0 207 192h-209v87h313v-364h-68l-17 103q-67 -115 -228 -115q-84 0 -149 30.5 t-104 82.5t-58.5 115t-19.5 134zM298 -219l26 147h92l-43 -147h-75z" />
<glyph unicode="&#x123;" horiz-adv-x="599" d="M440 252q0 71 -38 120.5t-112 49.5t-112 -49.5t-38 -120.5t38 -120.5t112 -49.5t112 49.5t38 120.5zM440 19v50q-60 -77 -168 -77q-62 0 -108.5 23t-73 61.5t-39 83t-12.5 92.5t12.5 92.5t39 83t73 61.5t108.5 23q108 0 168 -77v65h101v-481q0 -60 -21 -105t-57 -70.5 t-79 -38t-92 -12.5q-82 0 -146 34t-89 105h113q40 -53 121 -53q63 0 106 34t43 106zM274 722h75l-26 -147h-92z" />
<glyph unicode="&#x124;" horiz-adv-x="716" d="M414 916l107 -143h-89l-74 99l-74 -99h-89l107 143h112zM83 0v700h105v-296h340v296h105v-700h-105v308h-340v-308h-105z" />
<glyph unicode="&#x125;" horiz-adv-x="572" d="M345 916l107 -143h-89l-74 99l-74 -99h-89l107 143h112zM509 0h-101v297q0 64 -23.5 93.5t-77.5 29.5q-62 0 -100 -40.5t-38 -111.5v-268h-101v700h101v-274q52 86 159 86q181 0 181 -212v-300z" />
<glyph unicode="&#x126;" horiz-adv-x="716" d="M188 517v-113h340v113h-340zM188 0h-105v700h105v-112h340v112h105v-700h-105v308h-340v-308z" />
<glyph unicode="&#x127;" horiz-adv-x="592" d="M189 0h-101v573h-51v68h51v59h101v-59h145v-68h-145v-147q52 86 159 86q181 0 181 -212v-300h-101v297q0 64 -23.5 93.5t-77.5 29.5q-62 0 -100 -40.5t-38 -111.5v-268z" />
<glyph unicode="&#x128;" horiz-adv-x="271" d="M35 772h-55q2 45 26 75.5t69 30.5q24 0 64.5 -13t59.5 -13q33 0 38 38h55q-2 -45 -26 -75.5t-69 -30.5q-24 0 -64.5 13t-59.5 13q-33 0 -38 -38zM83 0v700h105v-700h-105z" />
<glyph unicode="&#x129;" horiz-adv-x="237" d="M18 572h-55q2 45 26 75.5t69 30.5q24 0 64.5 -13t59.5 -13q33 0 38 38h55q-2 -45 -26 -75.5t-69 -30.5q-24 0 -64.5 13t-59.5 13q-33 0 -38 -38zM68 0v500h101v-500h-101z" />
<glyph unicode="&#x12a;" horiz-adv-x="271" d="M278 782h-284v71h284v-71zM83 0v700h105v-700h-105z" />
<glyph unicode="&#x12b;" horiz-adv-x="237" d="M261 582h-284v71h284v-71zM68 0v500h101v-500h-101z" />
<glyph unicode="&#x12c;" horiz-adv-x="271" d="M-22 916h73q0 -35 23 -57t62 -22t62 22t23 57h73q0 -64 -43 -104.5t-115 -40.5t-115 40.5t-43 104.5zM83 0v700h105v-700h-105z" />
<glyph unicode="&#x12d;" horiz-adv-x="237" d="M-39 716h73q0 -35 23 -57t62 -22t62 22t23 57h73q0 -64 -43 -104.5t-115 -40.5t-115 40.5t-43 104.5zM68 0v500h101v-500h-101z" />
<glyph unicode="&#x12e;" horiz-adv-x="271" d="M83 0v700h105v-700q-30 -24 -56 -60.5t-26 -71.5q0 -44 41 -44q24 0 41 8v-56q-21 -11 -56 -11q-44 0 -71.5 25t-27.5 68q0 79 84 142h-34z" />
<glyph unicode="&#x12f;" horiz-adv-x="237" d="M58 662q0 26 17.5 43.5t43.5 17.5t43.5 -17.5t17.5 -43.5t-17.5 -43.5t-43.5 -17.5t-43.5 17.5t-17.5 43.5zM68 0v500h101v-500q-30 -24 -56 -60.5t-26 -71.5q0 -44 41 -44q24 0 41 8v-56q-21 -11 -56 -11q-44 0 -71.5 25t-27.5 68q0 79 84 142h-30z" />
<glyph unicode="&#x130;" horiz-adv-x="271" d="M79 833q0 24 16.5 40.5t40.5 16.5t40.5 -16.5t16.5 -40.5t-16.5 -40.5t-40.5 -16.5t-40.5 16.5t-16.5 40.5zM83 0v700h105v-700h-105z" />
<glyph unicode="&#x131;" horiz-adv-x="237" d="M68 0v500h101v-500h-101z" />
<glyph unicode="&#x132;" horiz-adv-x="833" d="M83 0v700h105v-700h-105zM527 85q67 0 97.5 43t30.5 108v464h105v-464q0 -107 -55.5 -177.5t-177.5 -70.5t-177.5 70.5t-55.5 177.5v52h105v-52q0 -65 30.5 -108t97.5 -43z" />
<glyph unicode="&#x133;" horiz-adv-x="474" d="M58 662q0 26 17.5 43.5t43.5 17.5t43.5 -17.5t17.5 -43.5t-17.5 -43.5t-43.5 -17.5t-43.5 17.5t-17.5 43.5zM295 662q0 26 17.5 43.5t43.5 17.5t43.5 -17.5t17.5 -43.5t-17.5 -43.5t-43.5 -17.5t-43.5 17.5t-17.5 43.5zM68 0v500h101v-500h-101zM216 -202v88q16 -3 33 -3 q56 0 56 64v553h101v-561q0 -70 -35 -108t-102 -38q-29 0 -53 5z" />
<glyph unicode="&#x134;" horiz-adv-x="562" d="M493 916l107 -143h-89l-74 99l-74 -99h-89l107 143h112zM256 85q67 0 97.5 43t30.5 108v464h105v-464q0 -107 -55.5 -177.5t-177.5 -70.5t-177.5 70.5t-55.5 177.5v52h105v-52q0 -65 30.5 -108t97.5 -43z" />
<glyph unicode="&#x135;" horiz-adv-x="237" d="M175 716l107 -143h-89l-74 99l-74 -99h-89l107 143h112zM-21 -202v88q17 -3 33 -3q56 0 56 64v553h101v-561q0 -70 -35 -108t-102 -38q-29 0 -53 5z" />
<glyph unicode="&#x136;" horiz-adv-x="627" d="M188 700v-340l296 340h131l-305 -350l320 -350h-134l-308 338v-338h-105v700h105zM285 -219l26 147h92l-43 -147h-75z" />
<glyph unicode="&#x137;" horiz-adv-x="525" d="M169 700v-442l214 242h122l-223 -250l238 -250h-127l-224 236v-236h-101v700h101zM222 -219l26 147h92l-43 -147h-75z" />
<glyph unicode="&#x138;" horiz-adv-x="525" d="M169 500v-242l214 242h122l-223 -250l238 -250h-127l-224 236v-236h-101v500h101z" />
<glyph unicode="&#x139;" horiz-adv-x="555" d="M298 915l-123 -142h-77l83 142h117zM188 700v-604h355v-96h-460v700h105z" />
<glyph unicode="&#x13a;" horiz-adv-x="237" d="M281 915l-123 -142h-77l83 142h117zM68 0v700h101v-700h-101z" />
<glyph unicode="&#x13b;" horiz-adv-x="555" d="M188 700v-604h355v-96h-460v700h105zM241 -219l26 147h92l-43 -147h-75z" />
<glyph unicode="&#x13c;" horiz-adv-x="237" d="M68 0v700h101v-700h-101zM47 -219l26 147h92l-43 -147h-75z" />
<glyph unicode="&#x13d;" horiz-adv-x="555" d="M188 700v-604h355v-96h-460v700h105zM442 700l-81 -142h-72l41 142h112z" />
<glyph unicode="&#x13e;" horiz-adv-x="377" d="M68 0v700h101v-700h-101zM388 700l-81 -142h-72l41 142h112z" />
<glyph unicode="&#x13f;" horiz-adv-x="555" d="M188 700v-604h355v-96h-460v700h105zM309 398q0 24 16.5 40.5t40.5 16.5t40.5 -16.5t16.5 -40.5t-16.5 -40.5t-40.5 -16.5t-40.5 16.5t-16.5 40.5z" />
<glyph unicode="&#x140;" horiz-adv-x="335" d="M68 0v700h101v-700h-101zM223 350q0 24 16.5 40.5t40.5 16.5t40.5 -16.5t16.5 -40.5t-16.5 -40.5t-40.5 -16.5t-40.5 16.5t-16.5 40.5z" />
<glyph unicode="&#x141;" horiz-adv-x="608" d="M20 254l116 81v365h105v-291l125 87l32 -50l-157 -110v-240h355v-96h-460v263l-84 -59z" />
<glyph unicode="&#x142;" horiz-adv-x="353" d="M126 0v279l-86 -60l-33 49l119 83v349h101v-278l86 60l33 -49l-119 -83v-350h-101z" />
<glyph unicode="&#x143;" horiz-adv-x="751" d="M538 915l-123 -142h-77l83 142h117zM279 700l282 -670h2v670h105v-700h-196l-282 670h-2v-670h-105v700h196z" />
<glyph unicode="&#x144;" horiz-adv-x="572" d="M451 715l-123 -142h-77l83 142h117zM509 0h-101v297q0 64 -23.5 93.5t-77.5 29.5q-62 0 -100 -40.5t-38 -111.5v-268h-101v500h101v-74q52 86 159 86q181 0 181 -212v-300z" />
<glyph unicode="&#x145;" horiz-adv-x="751" d="M279 700l282 -670h2v670h105v-700h-196l-282 670h-2v-670h-105v700h196zM304 -219l26 147h92l-43 -147h-75z" />
<glyph unicode="&#x146;" horiz-adv-x="572" d="M509 0h-101v297q0 64 -23.5 93.5t-77.5 29.5q-62 0 -100 -40.5t-38 -111.5v-268h-101v500h101v-74q52 86 159 86q181 0 181 -212v-300zM217 -219l26 147h92l-43 -147h-75z" />
<glyph unicode="&#x147;" horiz-adv-x="751" d="M450 916h89l-107 -143h-112l-107 143h89l74 -99zM279 700l282 -670h2v670h105v-700h-196l-282 670h-2v-670h-105v700h196z" />
<glyph unicode="&#x148;" horiz-adv-x="572" d="M363 716h89l-107 -143h-112l-107 143h89l74 -99zM509 0h-101v297q0 64 -23.5 93.5t-77.5 29.5q-62 0 -100 -40.5t-38 -111.5v-268h-101v500h101v-74q52 86 159 86q181 0 181 -212v-300z" />
<glyph unicode="&#x149;" horiz-adv-x="572" d="M145 700l-81 -142h-73l42 142h112zM509 0h-101v297q0 64 -23.5 93.5t-77.5 29.5q-62 0 -100 -40.5t-38 -111.5v-268h-101v500h101v-74q52 86 159 86q181 0 181 -212v-300z" />
<glyph unicode="&#x14a;" horiz-adv-x="751" d="M563 -50v50h-91l-282 670h-2v-670h-105v700h196l282 -670h2v670h105v-761q0 -70 -35 -108t-102 -38q-32 0 -57 6v90q16 -3 33 -3q56 0 56 64z" />
<glyph unicode="&#x14b;" horiz-adv-x="572" d="M319 -201v85q17 -3 33 -3q56 0 56 64v352q0 64 -23.5 93.5t-77.5 29.5q-62 0 -100 -40.5t-38 -111.5v-268h-101v500h101v-74q52 86 159 86q181 0 181 -212v-360q0 -70 -35 -108t-102 -38q-29 0 -53 5z" />
<glyph unicode="&#x14c;" horiz-adv-x="740" d="M512 782h-284v71h284v-71zM39 350q0 71 19.5 134t58.5 115t104 82.5t149 30.5t149 -30.5t104 -82.5t58.5 -115t19.5 -134t-19.5 -134t-58.5 -115t-104 -82.5t-149 -30.5t-149 30.5t-104 82.5t-58.5 115t-19.5 134zM596 350q0 110 -57 187t-169 77t-169 -77t-57 -187 t57 -187t169 -77t169 77t57 187z" />
<glyph unicode="&#x14d;" horiz-adv-x="580" d="M432 582h-284v71h284v-71zM39 250q0 108 63.5 185t187.5 77t187.5 -77t63.5 -185t-63.5 -185t-187.5 -77t-187.5 77t-63.5 185zM440 250q0 71 -38 120.5t-112 49.5t-112 -49.5t-38 -120.5t38 -120.5t112 -49.5t112 49.5t38 120.5z" />
<glyph unicode="&#x14e;" horiz-adv-x="740" d="M596 350q0 110 -57 187t-169 77t-169 -77t-57 -187t57 -187t169 -77t169 77t57 187zM39 350q0 71 19.5 134t58.5 115t104 82.5t149 30.5t149 -30.5t104 -82.5t58.5 -115t19.5 -134t-19.5 -134t-58.5 -115t-104 -82.5t-149 -30.5t-149 30.5t-104 82.5t-58.5 115t-19.5 134 zM212 916h73q0 -35 23 -57t62 -22t62 22t23 57h73q0 -64 -43 -104.5t-115 -40.5t-115 40.5t-43 104.5z" />
<glyph unicode="&#x14f;" horiz-adv-x="580" d="M440 250q0 71 -38 120.5t-112 49.5t-112 -49.5t-38 -120.5t38 -120.5t112 -49.5t112 49.5t38 120.5zM39 250q0 108 63.5 185t187.5 77t187.5 -77t63.5 -185t-63.5 -185t-187.5 -77t-187.5 77t-63.5 185zM132 716h73q0 -35 23 -57t62 -22t62 22t23 57h73q0 -64 -43 -104.5 t-115 -40.5t-115 40.5t-43 104.5z" />
<glyph unicode="&#x150;" horiz-adv-x="740" d="M431 915l-111 -142h-71l71 142h111zM602 915l-111 -142h-71l71 142h111zM39 350q0 71 19.5 134t58.5 115t104 82.5t149 30.5t149 -30.5t104 -82.5t58.5 -115t19.5 -134t-19.5 -134t-58.5 -115t-104 -82.5t-149 -30.5t-149 30.5t-104 82.5t-58.5 115t-19.5 134zM596 350 q0 110 -57 187t-169 77t-169 -77t-57 -187t57 -187t169 -77t169 77t57 187z" />
<glyph unicode="&#x151;" horiz-adv-x="580" d="M351 715l-111 -142h-71l71 142h111zM522 715l-111 -142h-71l71 142h111zM39 250q0 108 63.5 185t187.5 77t187.5 -77t63.5 -185t-63.5 -185t-187.5 -77t-187.5 77t-63.5 185zM440 250q0 71 -38 120.5t-112 49.5t-112 -49.5t-38 -120.5t38 -120.5t112 -49.5t112 49.5 t38 120.5z" />
<glyph unicode="&#x152;" horiz-adv-x="961" d="M364 95h65v510h-65q-56 0 -99.5 -21.5t-69 -58t-38.5 -81t-13 -94.5t13 -94.5t38.5 -81t69 -58t99.5 -21.5zM364 700h538v-95h-368v-204h344v-92h-344v-214h380v-95h-550q-83 0 -147 29.5t-102 80t-57 111.5t-19 129t19 129t57 111.5t102 80t147 29.5z" />
<glyph unicode="&#x153;" horiz-adv-x="961" d="M440 250q0 71 -38 120.5t-112 49.5t-112 -49.5t-38 -120.5t38 -120.5t112 -49.5t112 49.5t38 120.5zM545 297h272q-10 59 -43.5 94.5t-92.5 35.5t-92.5 -35.5t-43.5 -94.5zM39 250q0 108 63.5 185t187.5 77q132 0 199 -92q65 92 192 92q119 0 180 -77t61 -185v-27h-380 q6 -66 40.5 -107.5t98.5 -41.5q98 0 127 74h103q-43 -160 -230 -160q-127 0 -192 92q-67 -92 -199 -92q-124 0 -187.5 77t-63.5 185z" />
<glyph unicode="&#x154;" horiz-adv-x="669" d="M375 605h-187v-256h187q55 0 91.5 36.5t36.5 91.5t-36.5 91.5t-91.5 36.5zM188 256v-256h-105v700h295q100 0 165 -63.5t65 -159.5q0 -76 -42.5 -132.5t-112.5 -77.5l167 -267h-119l-160 256h-153zM385 915h117l-123 -142h-77z" />
<glyph unicode="&#x155;" horiz-adv-x="356" d="M367 715l-123 -142h-77l83 142h117zM68 0v500h101v-77h2q14 37 54.5 63t94.5 26h22v-101q-9 4 -37 4q-55 0 -95.5 -41t-40.5 -105v-269h-101z" />
<glyph unicode="&#x156;" horiz-adv-x="669" d="M375 605h-187v-256h187q55 0 91.5 36.5t36.5 91.5t-36.5 91.5t-91.5 36.5zM188 256v-256h-105v700h295q100 0 165 -63.5t65 -159.5q0 -76 -42.5 -132.5t-112.5 -77.5l167 -267h-119l-160 256h-153zM355 -219h-75l26 147h92z" />
<glyph unicode="&#x157;" horiz-adv-x="356" d="M68 0v500h101v-77h2q14 37 54.5 63t94.5 26h22v-101q-9 4 -37 4q-55 0 -95.5 -41t-40.5 -105v-269h-101zM47 -219l26 147h92l-43 -147h-75z" />
<glyph unicode="&#x158;" horiz-adv-x="669" d="M375 605h-187v-256h187q55 0 91.5 36.5t36.5 91.5t-36.5 91.5t-91.5 36.5zM188 256v-256h-105v700h295q100 0 165 -63.5t65 -159.5q0 -76 -42.5 -132.5t-112.5 -77.5l167 -267h-119l-160 256h-153zM340 817l74 99h89l-107 -143h-112l-107 143h89z" />
<glyph unicode="&#x159;" horiz-adv-x="356" d="M279 716h89l-107 -143h-112l-107 143h89l74 -99zM68 0v500h101v-77h2q14 37 54.5 63t94.5 26h22v-101q-9 4 -37 4q-55 0 -95.5 -41t-40.5 -105v-269h-101z" />
<glyph unicode="&#x15a;" horiz-adv-x="614" d="M466 915l-123 -142h-77l83 142h117zM38 203h105q6 -60 51.5 -91.5t112.5 -31.5q69 0 116.5 29t47.5 86q0 41 -31 65.5t-77 32t-100.5 19.5t-100.5 27.5t-77 57t-31 106.5q0 103 72.5 156t177.5 53q102 0 172.5 -54.5t77.5 -159.5h-105q-6 60 -45.5 91t-99.5 31 q-62 0 -103.5 -28.5t-41.5 -85.5q0 -40 31 -63.5t77 -30.5t100.5 -19t100.5 -28t77 -58.5t31 -108.5q0 -70 -39.5 -119t-99 -70t-130.5 -21q-109 0 -185.5 55t-83.5 160z" />
<glyph unicode="&#x15b;" horiz-adv-x="494" d="M407 715l-123 -142h-77l83 142h117zM38 149h101q4 -39 34 -59.5t74 -20.5q45 0 76.5 18t31.5 54q0 31 -31.5 46t-77 22t-90.5 18t-76.5 43t-31.5 87q0 77 57 116t140 39q80 0 135 -40.5t61 -118.5h-99q-4 39 -30.5 58.5t-67.5 19.5q-40 0 -67.5 -16.5t-27.5 -52.5 q0 -30 31.5 -45t77 -21.5t90.5 -17.5t76.5 -43.5t31.5 -88.5q0 -77 -61 -117.5t-147 -40.5q-85 0 -145 41.5t-65 119.5z" />
<glyph unicode="&#x15c;" horiz-adv-x="614" d="M360 916l107 -143h-89l-74 99l-74 -99h-89l107 143h112zM38 203h105q6 -60 51.5 -91.5t112.5 -31.5q69 0 116.5 29t47.5 86q0 41 -31 65.5t-77 32t-100.5 19.5t-100.5 27.5t-77 57t-31 106.5q0 103 72.5 156t177.5 53q102 0 172.5 -54.5t77.5 -159.5h-105q-6 60 -45.5 91 t-99.5 31q-62 0 -103.5 -28.5t-41.5 -85.5q0 -40 31 -63.5t77 -30.5t100.5 -19t100.5 -28t77 -58.5t31 -108.5q0 -70 -39.5 -119t-99 -70t-130.5 -21q-109 0 -185.5 55t-83.5 160z" />
<glyph unicode="&#x15d;" horiz-adv-x="494" d="M301 716l107 -143h-89l-74 99l-74 -99h-89l107 143h112zM38 149h101q4 -39 34 -59.5t74 -20.5q45 0 76.5 18t31.5 54q0 31 -31.5 46t-77 22t-90.5 18t-76.5 43t-31.5 87q0 77 57 116t140 39q80 0 135 -40.5t61 -118.5h-99q-4 39 -30.5 58.5t-67.5 19.5q-40 0 -67.5 -16.5 t-27.5 -52.5q0 -30 31.5 -45t77 -21.5t90.5 -17.5t76.5 -43.5t31.5 -88.5q0 -77 -61 -117.5t-147 -40.5q-85 0 -145 41.5t-65 119.5z" />
<glyph unicode="&#x15e;" horiz-adv-x="614" d="M38 203h105q6 -60 51.5 -91.5t112.5 -31.5q69 0 116.5 29t47.5 86q0 41 -31 65.5t-77 32t-100.5 19.5t-100.5 27.5t-77 57t-31 106.5q0 103 72.5 156t177.5 53q102 0 172.5 -54.5t77.5 -159.5h-105q-6 60 -45.5 91t-99.5 31q-62 0 -103.5 -28.5t-41.5 -85.5 q0 -40 31 -63.5t77 -30.5t100.5 -19t100.5 -28t77 -58.5t31 -108.5q0 -98 -71 -151t-175 -58l-11 -29h16q45 0 73.5 -24.5t28.5 -65.5q0 -47 -34.5 -76t-93.5 -29q-39 0 -87 17v60q42 -19 79 -19q31 0 49.5 13.5t18.5 35.5q0 42 -55 42h-39l-17 28l18 47q-99 8 -165.5 62.5 t-72.5 151.5z" />
<glyph unicode="&#x15f;" horiz-adv-x="494" d="M38 149h101q4 -39 34 -59.5t74 -20.5q45 0 76.5 18t31.5 54q0 31 -31.5 46t-77 22t-90.5 18t-76.5 43t-31.5 87q0 77 57 116t140 39q80 0 135 -40.5t61 -118.5h-99q-4 39 -30.5 58.5t-67.5 19.5q-40 0 -67.5 -16.5t-27.5 -52.5q0 -30 31.5 -45t77 -21.5t90.5 -17.5 t76.5 -43.5t31.5 -88.5q0 -72 -53 -111.5t-132 -45.5l-11 -29h16q45 0 73.5 -24.5t28.5 -65.5q0 -47 -34.5 -76t-93.5 -29q-39 0 -87 17v60q42 -19 79 -19q31 0 49.5 13.5t18.5 35.5q0 42 -55 42h-39l-17 28l18 48q-74 7 -124.5 48t-54.5 111z" />
<glyph unicode="&#x160;" horiz-adv-x="614" d="M378 916h89l-107 -143h-112l-107 143h89l74 -99zM38 203h105q6 -60 51.5 -91.5t112.5 -31.5q69 0 116.5 29t47.5 86q0 41 -31 65.5t-77 32t-100.5 19.5t-100.5 27.5t-77 57t-31 106.5q0 103 72.5 156t177.5 53q102 0 172.5 -54.5t77.5 -159.5h-105q-6 60 -45.5 91 t-99.5 31q-62 0 -103.5 -28.5t-41.5 -85.5q0 -40 31 -63.5t77 -30.5t100.5 -19t100.5 -28t77 -58.5t31 -108.5q0 -70 -39.5 -119t-99 -70t-130.5 -21q-109 0 -185.5 55t-83.5 160z" />
<glyph unicode="&#x161;" horiz-adv-x="494" d="M319 716h89l-107 -143h-112l-107 143h89l74 -99zM38 149h101q4 -39 34 -59.5t74 -20.5q45 0 76.5 18t31.5 54q0 31 -31.5 46t-77 22t-90.5 18t-76.5 43t-31.5 87q0 77 57 116t140 39q80 0 135 -40.5t61 -118.5h-99q-4 39 -30.5 58.5t-67.5 19.5q-40 0 -67.5 -16.5 t-27.5 -52.5q0 -30 31.5 -45t77 -21.5t90.5 -17.5t76.5 -43.5t31.5 -88.5q0 -77 -61 -117.5t-147 -40.5q-85 0 -145 41.5t-65 119.5z" />
<glyph unicode="&#x162;" horiz-adv-x="581" d="M343 604v-604h-25l-15 -40h16q45 0 73.5 -24.5t28.5 -65.5q0 -47 -34.5 -76t-93.5 -29q-39 0 -87 17v60q42 -19 79 -19q31 0 49.5 13.5t18.5 35.5q0 42 -55 42h-39l-17 28l22 58h-26v604h-217v96h539v-96h-217z" />
<glyph unicode="&#x163;" horiz-adv-x="385" d="M342 4q-46 -16 -99 -16q-11 0 -27 2l-11 -30h16q45 0 73.5 -24.5t28.5 -65.5q0 -47 -34.5 -76t-93.5 -29q-39 0 -87 17v60q42 -19 79 -19q31 0 49.5 13.5t18.5 35.5q0 42 -55 42h-39l-17 28l24 63q-62 35 -62 129v280h-89v86h89v140h101v-140h135v-86h-135v-272 q0 -64 56 -64q42 0 79 14v-88z" />
<glyph unicode="&#x164;" horiz-adv-x="581" d="M365 916h89l-107 -143h-112l-107 143h89l74 -99zM343 604v-604h-105v604h-217v96h539v-96h-217z" />
<glyph unicode="&#x165;" horiz-adv-x="419" d="M444 700l-81 -142h-72l41 142h112zM342 4q-46 -16 -99 -16q-67 0 -102 38t-35 108v280h-89v86h89v140h101v-140h135v-86h-135v-272q0 -64 56 -64q42 0 79 14v-88z" />
<glyph unicode="&#x166;" horiz-adv-x="581" d="M478 314h-135v-314h-105v314h-135v72h135v218h-217v96h539v-96h-217v-218h135v-72z" />
<glyph unicode="&#x167;" horiz-adv-x="385" d="M342 4q-46 -16 -99 -16q-67 0 -102 38t-35 108v113h-78v68h78v99h-89v86h89v140h101v-140h135v-86h-135v-99h124v-68h-124v-105q0 -64 56 -64q42 0 79 14v-88z" />
<glyph unicode="&#x168;" horiz-adv-x="716" d="M257 772h-55q2 45 26 75.5t69 30.5q24 0 64.5 -13t59.5 -13q33 0 38 38h55q-2 -45 -26 -75.5t-69 -30.5q-24 0 -64.5 13t-59.5 13q-33 0 -38 -38zM538 277v423h105v-430q0 -51 -14 -97.5t-44.5 -89.5t-88.5 -69t-138 -26t-138 26t-88.5 69t-44.5 89.5t-14 97.5v430h105 v-423q0 -36 9 -68.5t28.5 -61.5t56 -46t86.5 -17t86.5 17t56 46t28.5 61.5t9 68.5z" />
<glyph unicode="&#x169;" horiz-adv-x="572" d="M183 572h-55q2 45 26 75.5t69 30.5q24 0 64.5 -13t59.5 -13q33 0 38 38h55q-2 -45 -26 -75.5t-69 -30.5q-24 0 -64.5 13t-59.5 13q-33 0 -38 -38zM63 500h101v-297q0 -64 23.5 -93.5t77.5 -29.5q62 0 100 40.5t38 111.5v268h101v-500h-101v74q-52 -86 -159 -86 q-181 0 -181 212v300z" />
<glyph unicode="&#x16a;" horiz-adv-x="716" d="M500 782h-284v71h284v-71zM538 277v423h105v-430q0 -51 -14 -97.5t-44.5 -89.5t-88.5 -69t-138 -26t-138 26t-88.5 69t-44.5 89.5t-14 97.5v430h105v-423q0 -36 9 -68.5t28.5 -61.5t56 -46t86.5 -17t86.5 17t56 46t28.5 61.5t9 68.5z" />
<glyph unicode="&#x16b;" horiz-adv-x="572" d="M426 582h-284v71h284v-71zM63 500h101v-297q0 -64 23.5 -93.5t77.5 -29.5q62 0 100 40.5t38 111.5v268h101v-500h-101v74q-52 -86 -159 -86q-181 0 -181 212v300z" />
<glyph unicode="&#x16c;" horiz-adv-x="716" d="M200 916h73q0 -35 23 -57t62 -22t62 22t23 57h73q0 -64 -43 -104.5t-115 -40.5t-115 40.5t-43 104.5zM538 277v423h105v-430q0 -51 -14 -97.5t-44.5 -89.5t-88.5 -69t-138 -26t-138 26t-88.5 69t-44.5 89.5t-14 97.5v430h105v-423q0 -36 9 -68.5t28.5 -61.5t56 -46 t86.5 -17t86.5 17t56 46t28.5 61.5t9 68.5z" />
<glyph unicode="&#x16d;" horiz-adv-x="572" d="M126 716h73q0 -35 23 -57t62 -22t62 22t23 57h73q0 -64 -43 -104.5t-115 -40.5t-115 40.5t-43 104.5zM63 500h101v-297q0 -64 23.5 -93.5t77.5 -29.5q62 0 100 40.5t38 111.5v268h101v-500h-101v74q-52 -86 -159 -86q-181 0 -181 212v300z" />
<glyph unicode="&#x16e;" horiz-adv-x="716" d="M410 863q0 22 -14.5 37.5t-37.5 15.5t-37.5 -15.5t-14.5 -37.5t14.5 -37.5t37.5 -15.5t37.5 15.5t14.5 37.5zM538 277v423h105v-430q0 -51 -14 -97.5t-44.5 -89.5t-88.5 -69t-138 -26t-138 26t-88.5 69t-44.5 89.5t-14 97.5v430h105v-423q0 -36 9 -68.5t28.5 -61.5 t56 -46t86.5 -17t86.5 17t56 46t28.5 61.5t9 68.5zM251 863q0 45 30.5 75t76.5 30t76.5 -30t30.5 -75t-30.5 -75t-76.5 -30t-76.5 30t-30.5 75z" />
<glyph unicode="&#x16f;" horiz-adv-x="572" d="M336 663q0 22 -14.5 37.5t-37.5 15.5t-37.5 -15.5t-14.5 -37.5t14.5 -37.5t37.5 -15.5t37.5 15.5t14.5 37.5zM63 200v300h101v-297q0 -64 23.5 -93.5t77.5 -29.5q62 0 100 40.5t38 111.5v268h101v-500h-101v74q-52 -86 -159 -86q-181 0 -181 212zM177 663q0 45 30.5 75 t76.5 30t76.5 -30t30.5 -75t-30.5 -75t-76.5 -30t-76.5 30t-30.5 75z" />
<glyph unicode="&#x170;" horiz-adv-x="716" d="M419 915l-111 -142h-71l71 142h111zM590 915l-111 -142h-71l71 142h111zM538 277v423h105v-430q0 -51 -14 -97.5t-44.5 -89.5t-88.5 -69t-138 -26t-138 26t-88.5 69t-44.5 89.5t-14 97.5v430h105v-423q0 -36 9 -68.5t28.5 -61.5t56 -46t86.5 -17t86.5 17t56 46t28.5 61.5 t9 68.5z" />
<glyph unicode="&#x171;" horiz-adv-x="572" d="M345 715l-111 -142h-71l71 142h111zM516 715l-111 -142h-71l71 142h111zM63 500h101v-297q0 -64 23.5 -93.5t77.5 -29.5q62 0 100 40.5t38 111.5v268h101v-500h-101v74q-52 -86 -159 -86q-181 0 -181 212v300z" />
<glyph unicode="&#x172;" horiz-adv-x="716" d="M538 277v423h105v-430q0 -39 -7.5 -75t-26.5 -73t-48 -65t-75.5 -46.5t-105.5 -21.5q-69 -64 -69 -121q0 -44 41 -44q24 0 41 8v-56q-21 -11 -56 -11q-44 0 -71.5 25t-27.5 68q0 73 72 133q-66 8 -114 35.5t-74 69t-37.5 84.5t-11.5 90v430h105v-423q0 -36 9 -68.5 t28.5 -61.5t56 -46t86.5 -17t86.5 17t56 46t28.5 61.5t9 68.5z" />
<glyph unicode="&#x173;" horiz-adv-x="572" d="M63 500h101v-297q0 -64 23.5 -93.5t77.5 -29.5q62 0 100 40.5t38 111.5v268h101v-500q-30 -24 -56 -60.5t-26 -71.5q0 -44 41 -44q24 0 41 8v-56q-21 -11 -56 -11q-44 0 -71.5 25t-27.5 68q0 79 84 142h-30v74q-52 -86 -159 -86q-181 0 -181 212v300z" />
<glyph unicode="&#x174;" horiz-adv-x="982" d="M547 916l107 -143h-89l-74 99l-74 -99h-89l107 143h112zM127 700l146 -670h2l129 670h174l129 -670h2l146 670h108l-162 -700h-180l-129 670h-2l-129 -670h-180l-162 700h108z" />
<glyph unicode="&#x175;" horiz-adv-x="794" d="M453 716l107 -143h-89l-74 99l-74 -99h-89l107 143h112zM125 500l104 -475h2l84 475h164l84 -475h2l104 475h103l-120 -500h-170l-84 475h-2l-84 -475h-170l-120 500h103z" />
<glyph unicode="&#x176;" horiz-adv-x="625" d="M369 916l107 -143h-89l-74 99l-74 -99h-89l107 143h112zM223 275l-211 425h113l187 -395h1l187 395h113l-211 -425h-37v-275h-105v275h-37z" />
<glyph unicode="&#x177;" horiz-adv-x="530" d="M321 716l107 -143h-89l-74 99l-74 -99h-89l107 143h112zM518 500l-216 -695h-104l60 195h-86l-160 500h105l147 -475h2l147 475h105z" />
<glyph unicode="&#x178;" horiz-adv-x="625" d="M164 832q0 24 16 40t40 16t40 -16t16 -40t-16 -40t-40 -16t-40 16t-16 40zM350 832q0 24 16 40t40 16t40 -16t16 -40t-16 -40t-40 -16t-40 16t-16 40zM223 275l-211 425h113l187 -395h1l187 395h113l-211 -425h-37v-275h-105v275h-37z" />
<glyph unicode="&#x179;" horiz-adv-x="599" d="M462 915l-123 -142h-77l83 142h117zM558 700v-110l-400 -494h406v-96h-529v110l400 494h-390v96h513z" />
<glyph unicode="&#x17a;" horiz-adv-x="489" d="M407 715l-123 -142h-77l83 142h117zM442 500v-86l-270 -323h275v-91h-405v86l270 323h-256v91h386z" />
<glyph unicode="&#x17b;" horiz-adv-x="599" d="M243 833q0 24 16.5 40.5t40.5 16.5t40.5 -16.5t16.5 -40.5t-16.5 -40.5t-40.5 -16.5t-40.5 16.5t-16.5 40.5zM558 700v-110l-400 -494h406v-96h-529v110l400 494h-390v96h513z" />
<glyph unicode="&#x17c;" horiz-adv-x="489" d="M188 633q0 24 16.5 40.5t40.5 16.5t40.5 -16.5t16.5 -40.5t-16.5 -40.5t-40.5 -16.5t-40.5 16.5t-16.5 40.5zM442 500v-86l-270 -323h275v-91h-405v86l270 323h-256v91h386z" />
<glyph unicode="&#x17d;" horiz-adv-x="599" d="M374 916h89l-107 -143h-112l-107 143h89l74 -99zM558 700v-110l-400 -494h406v-96h-529v110l400 494h-390v96h513z" />
<glyph unicode="&#x17e;" horiz-adv-x="489" d="M319 716h89l-107 -143h-112l-107 143h89l74 -99zM442 500v-86l-270 -323h275v-91h-405v86l270 323h-256v91h386z" />
<glyph unicode="&#x17f;" horiz-adv-x="357" d="M17 500h89v76q0 70 35 108t102 38q53 0 99 -16v-87q-37 14 -79 14q-56 0 -56 -64v-569h-101v414h-89v86z" />
<glyph unicode="&#x186;" horiz-adv-x="713" d="M343 85q112 0 169 77t57 188t-57 188t-169 77q-161 0 -197 -160h-107q20 116 96 186.5t208 70.5q84 0 149 -30.5t104 -82.5t58.5 -115t19.5 -134t-19.5 -134t-58.5 -115t-104 -82.5t-149 -30.5q-132 0 -208 70.5t-96 186.5h107q36 -160 197 -160z" />
<glyph unicode="&#x189;" horiz-adv-x="717" d="M103 700h250q83 0 147 -29.5t102 -80t57 -111.5t19 -129t-19 -129t-57 -111.5t-102 -80t-147 -29.5h-250v315h-72v71h72v314zM208 96h145q109 0 164.5 74t55.5 180t-55.5 180t-164.5 74h-145v-218h172v-71h-172v-219z" />
<glyph unicode="&#x18e;" horiz-adv-x="615" d="M427 309h-344v92h344v204h-368v95h473v-700h-485v95h380v214z" />
<glyph unicode="&#x18f;" horiz-adv-x="722" d="M570 274h-420q28 -189 202 -189q91 0 146 52.5t72 136.5zM683 350q0 -71 -19.5 -134t-58.5 -115t-104 -82.5t-149 -30.5t-146.5 29t-97.5 80.5t-52 114t-17 138.5v4h539q-1 109 -58 184.5t-168 75.5q-159 0 -197 -159h-107q22 117 96.5 187t207.5 70q84 0 149 -30.5 t104 -82.5t58.5 -115t19.5 -134z" />
<glyph unicode="&#x190;" horiz-adv-x="614" d="M307 306q-70 0 -117 -26.5t-47 -82.5q0 -58 48 -87.5t116 -29.5q67 0 112.5 31.5t51.5 91.5h105q-7 -105 -83.5 -160t-185.5 -55q-112 0 -190.5 52.5t-78.5 154.5q0 112 113 160q-90 48 -90 151q0 102 72 154t177 52q102 0 172.5 -54.5t77.5 -159.5h-105q-6 60 -45.5 91 t-99.5 31q-62 0 -103 -29.5t-41 -86.5q0 -56 40.5 -81.5t103.5 -25.5h68v-91h-71z" />
<glyph unicode="&#x192;" horiz-adv-x="546" d="M274 -61q-24 -146 -166 -146q-49 0 -93 16l14 89q35 -15 73 -15q31 0 47.5 15t22.5 49l59 360h-105v86h118l28 173q24 146 166 146q49 0 93 -16l-14 -89q-35 15 -73 15q-31 0 -47.5 -15t-22.5 -49l-27 -165h104v-86h-117z" />
<glyph unicode="&#x197;" horiz-adv-x="311" d="M103 0v315h-72v71h72v314h105v-314h72v-71h-72v-315h-105z" />
<glyph unicode="&#x19d;" horiz-adv-x="751" d="M83 700h196l282 -670h2v670h105v-700h-196l-282 670h-2v-731q0 -70 -35 -108t-102 -38q-32 0 -57 6v90q16 -3 33 -3q56 0 56 64v750z" />
<glyph unicode="&#x1a0;" horiz-adv-x="740" d="M596 350q0 110 -57 187t-169 77t-169 -77t-57 -187t57 -187t169 -77t169 77t57 187zM39 350q0 71 19.5 134t58.5 115t104 82.5t149 30.5q83 0 152 -32q40 0 58 22.5t16 53t-7 64.5h76q32 -153 -66 -195q102 -101 102 -275q0 -71 -19.5 -134t-58.5 -115t-104 -82.5 t-149 -30.5t-149 30.5t-104 82.5t-58.5 115t-19.5 134z" />
<glyph unicode="&#x1a1;" horiz-adv-x="585" d="M440 250q0 71 -38 120.5t-112 49.5t-112 -49.5t-38 -120.5t38 -120.5t112 -49.5t112 49.5t38 120.5zM39 250q0 108 63.5 185t187.5 77q76 0 132 -32q41 0 59 22.5t16 53t-7 64.5h76q34 -163 -77 -199q52 -69 52 -171q0 -108 -63.5 -185t-187.5 -77t-187.5 77t-63.5 185z " />
<glyph unicode="&#x1af;" horiz-adv-x="726" d="M538 277v423h53q41 0 59.5 22t16.5 53t-7 65h76q36 -175 -93 -204v-366q0 -51 -14 -97.5t-44.5 -89.5t-88.5 -69t-138 -26t-138 26t-88.5 69t-44.5 89.5t-14 97.5v430h105v-423q0 -36 9 -68.5t28.5 -61.5t56 -46t86.5 -17t86.5 17t56 46t28.5 61.5t9 68.5z" />
<glyph unicode="&#x1b0;" horiz-adv-x="592" d="M63 500h101v-297q0 -64 23.5 -93.5t77.5 -29.5q62 0 100 40.5t38 111.5v268h51q41 0 59.5 22t16.5 53t-7 65h76q17 -81 -5 -135.5t-90 -68.5v-436h-101v74q-52 -86 -159 -86q-181 0 -181 212v300z" />
<glyph unicode="&#x1b5;" horiz-adv-x="599" d="M558 700v-110l-165 -204h130v-71h-188l-177 -219h406v-96h-529v110l166 205h-131v71h188l177 218h-390v96h513z" />
<glyph unicode="&#x1b6;" horiz-adv-x="489" d="M442 500v-86l-110 -131h80v-66h-135l-105 -126h275v-91h-405v86l110 131h-80v66h135l105 126h-256v91h386z" />
<glyph unicode="&#x1c4;" horiz-adv-x="1296" d="M188 96h145q109 0 164.5 74t55.5 180t-55.5 180t-164.5 74h-145v-508zM83 700h250q83 0 147 -29.5t102 -80t57 -111.5t19 -129t-19 -129t-57 -111.5t-102 -80t-147 -29.5h-250v700zM742 700h513v-110l-400 -494h406v-96h-529v110l400 494h-390v96zM997 817l74 99h89 l-107 -143h-112l-107 143h89z" />
<glyph unicode="&#x1c5;" horiz-adv-x="1186" d="M188 96h145q109 0 164.5 74t55.5 180t-55.5 180t-164.5 74h-145v-508zM83 700h250q83 0 147 -29.5t102 -80t57 -111.5t19 -129t-19 -129t-57 -111.5t-102 -80t-147 -29.5h-250v700zM753 500h386v-86l-270 -323h275v-91h-405v86l270 323h-256v91zM942 617l74 99h89 l-107 -143h-112l-107 143h89z" />
<glyph unicode="&#x1c6;" horiz-adv-x="1098" d="M440 250q0 72 -37.5 121.5t-112.5 49.5t-112.5 -49.5t-37.5 -121.5t37.5 -121.5t112.5 -49.5t112.5 49.5t37.5 121.5zM541 0h-101v66q-61 -78 -168 -78q-62 0 -108.5 23t-73 62t-39 83.5t-12.5 93.5t12.5 93.5t39 83.5t73 62t108.5 23q107 0 168 -78v266h101v-700z M665 500h386v-86l-270 -323h275v-91h-405v86l270 323h-256v91zM854 617l74 99h89l-107 -143h-112l-107 143h89z" />
<glyph unicode="&#x1c7;" horiz-adv-x="1117" d="M188 700v-604h355v-96h-460v700h105zM811 85q67 0 97.5 43t30.5 108v464h105v-464q0 -107 -55.5 -177.5t-177.5 -70.5t-177.5 70.5t-55.5 177.5v52h105v-52q0 -65 30.5 -108t97.5 -43z" />
<glyph unicode="&#x1c8;" horiz-adv-x="792" d="M613 662q0 26 17.5 43.5t43.5 17.5t43.5 -17.5t17.5 -43.5t-17.5 -43.5t-43.5 -17.5t-43.5 17.5t-17.5 43.5zM188 700v-604h355v-96h-460v700h105zM534 -202v88q16 -3 33 -3q56 0 56 64v553h101v-561q0 -70 -35 -108t-102 -38q-29 0 -53 5z" />
<glyph unicode="&#x1c9;" horiz-adv-x="474" d="M295 662q0 26 17.5 43.5t43.5 17.5t43.5 -17.5t17.5 -43.5t-17.5 -43.5t-43.5 -17.5t-43.5 17.5t-17.5 43.5zM68 0v700h101v-700h-101zM216 -202v88q16 -3 33 -3q56 0 56 64v553h101v-561q0 -70 -35 -108t-102 -38q-29 0 -53 5z" />
<glyph unicode="&#x1ca;" horiz-adv-x="1313" d="M279 700l282 -670h2v670h105v-700h-196l-282 670h-2v-670h-105v700h196zM1007 85q67 0 97.5 43t30.5 108v464h105v-464q0 -107 -55.5 -177.5t-177.5 -70.5t-177.5 70.5t-55.5 177.5v52h105v-52q0 -65 30.5 -108t97.5 -43z" />
<glyph unicode="&#x1cb;" horiz-adv-x="988" d="M809 662q0 26 17.5 43.5t43.5 17.5t43.5 -17.5t17.5 -43.5t-17.5 -43.5t-43.5 -17.5t-43.5 17.5t-17.5 43.5zM279 700l282 -670h2v670h105v-700h-196l-282 670h-2v-670h-105v700h196zM730 -202v88q16 -3 33 -3q56 0 56 64v553h101v-561q0 -70 -35 -108t-102 -38 q-29 0 -53 5z" />
<glyph unicode="&#x1cc;" horiz-adv-x="809" d="M630 662q0 26 17.5 43.5t43.5 17.5t43.5 -17.5t17.5 -43.5t-17.5 -43.5t-43.5 -17.5t-43.5 17.5t-17.5 43.5zM509 0h-101v297q0 64 -23.5 93.5t-77.5 29.5q-62 0 -100 -40.5t-38 -111.5v-268h-101v500h101v-74q52 86 159 86q181 0 181 -212v-300zM551 -202v88 q17 -3 33 -3q56 0 56 64v553h101v-561q0 -70 -35 -108t-102 -38q-29 0 -53 5z" />
<glyph unicode="&#x1cd;" horiz-adv-x="664" d="M331 670l-130 -408h262l-130 408h-2zM118 0h-111l233 700h184l233 -700h-111l-53 166h-322zM332 817l74 99h89l-107 -143h-112l-107 143h89z" />
<glyph unicode="&#x1ce;" horiz-adv-x="609" d="M440 250q0 72 -37.5 121.5t-112.5 49.5t-112.5 -49.5t-37.5 -121.5t37.5 -121.5t112.5 -49.5t112.5 49.5t37.5 121.5zM541 0h-101v66q-61 -78 -168 -78q-62 0 -108.5 23t-73 62t-39 83.5t-12.5 93.5t12.5 93.5t39 83.5t73 62t108.5 23q107 0 168 -78v66h101v-500z M290 617l74 99h89l-107 -143h-112l-107 143h89z" />
<glyph unicode="&#x1cf;" horiz-adv-x="271" d="M210 916h89l-107 -143h-112l-107 143h89l74 -99zM83 0v700h105v-700h-105z" />
<glyph unicode="&#x1d0;" horiz-adv-x="237" d="M193 716h89l-107 -143h-112l-107 143h89l74 -99zM68 0v500h101v-500h-101z" />
<glyph unicode="&#x1d1;" horiz-adv-x="740" d="M596 350q0 110 -57 187t-169 77t-169 -77t-57 -187t57 -187t169 -77t169 77t57 187zM39 350q0 71 19.5 134t58.5 115t104 82.5t149 30.5t149 -30.5t104 -82.5t58.5 -115t19.5 -134t-19.5 -134t-58.5 -115t-104 -82.5t-149 -30.5t-149 30.5t-104 82.5t-58.5 115t-19.5 134 zM370 817l74 99h89l-107 -143h-112l-107 143h89z" />
<glyph unicode="&#x1d2;" horiz-adv-x="580" d="M440 250q0 71 -38 120.5t-112 49.5t-112 -49.5t-38 -120.5t38 -120.5t112 -49.5t112 49.5t38 120.5zM39 250q0 108 63.5 185t187.5 77t187.5 -77t63.5 -185t-63.5 -185t-187.5 -77t-187.5 77t-63.5 185zM290 617l74 99h89l-107 -143h-112l-107 143h89z" />
<glyph unicode="&#x1d3;" horiz-adv-x="716" d="M432 916h89l-107 -143h-112l-107 143h89l74 -99zM538 277v423h105v-430q0 -51 -14 -97.5t-44.5 -89.5t-88.5 -69t-138 -26t-138 26t-88.5 69t-44.5 89.5t-14 97.5v430h105v-423q0 -36 9 -68.5t28.5 -61.5t56 -46t86.5 -17t86.5 17t56 46t28.5 61.5t9 68.5z" />
<glyph unicode="&#x1d4;" horiz-adv-x="572" d="M358 716h89l-107 -143h-112l-107 143h89l74 -99zM63 500h101v-297q0 -64 23.5 -93.5t77.5 -29.5q62 0 100 40.5t38 111.5v268h101v-500h-101v74q-52 -86 -159 -86q-181 0 -181 212v300z" />
<glyph unicode="&#x1d5;" horiz-adv-x="716" d="M500 782h-284v71h284v-71zM209 654q0 24 16 40t40 16t40 -16t16 -40t-16 -40t-40 -16t-40 16t-16 40zM395 654q0 24 16 40t40 16t40 -16t16 -40t-16 -40t-40 -16t-40 16t-16 40zM538 277v423h105v-430q0 -51 -14 -97.5t-44.5 -89.5t-88.5 -69t-138 -26t-138 26t-88.5 69 t-44.5 89.5t-14 97.5v430h105v-423q0 -36 9 -68.5t28.5 -61.5t56 -46t86.5 -17t86.5 17t56 46t28.5 61.5t9 68.5z" />
<glyph unicode="&#x1d6;" horiz-adv-x="572" d="M426 770h-284v71h284v-71zM135 632q0 24 16 40t40 16t40 -16t16 -40t-16 -40t-40 -16t-40 16t-16 40zM321 632q0 24 16 40t40 16t40 -16t16 -40t-16 -40t-40 -16t-40 16t-16 40zM63 500h101v-297q0 -64 23.5 -93.5t77.5 -29.5q62 0 100 40.5t38 111.5v268h101v-500h-101 v74q-52 -86 -159 -86q-181 0 -181 212v300z" />
<glyph unicode="&#x1d7;" horiz-adv-x="716" d="M520 915l-123 -142h-77l83 142h117zM209 654q0 24 16 40t40 16t40 -16t16 -40t-16 -40t-40 -16t-40 16t-16 40zM395 654q0 24 16 40t40 16t40 -16t16 -40t-16 -40t-40 -16t-40 16t-16 40zM538 277v423h105v-430q0 -51 -14 -97.5t-44.5 -89.5t-88.5 -69t-138 -26t-138 26 t-88.5 69t-44.5 89.5t-14 97.5v430h105v-423q0 -36 9 -68.5t28.5 -61.5t56 -46t86.5 -17t86.5 17t56 46t28.5 61.5t9 68.5z" />
<glyph unicode="&#x1d8;" horiz-adv-x="572" d="M446 903l-123 -142h-77l83 142h117zM135 632q0 24 16 40t40 16t40 -16t16 -40t-16 -40t-40 -16t-40 16t-16 40zM321 632q0 24 16 40t40 16t40 -16t16 -40t-16 -40t-40 -16t-40 16t-16 40zM63 500h101v-297q0 -64 23.5 -93.5t77.5 -29.5q62 0 100 40.5t38 111.5v268h101 v-500h-101v74q-52 -86 -159 -86q-181 0 -181 212v300z" />
<glyph unicode="&#x1d9;" horiz-adv-x="716" d="M432 916h89l-107 -143h-112l-107 143h89l74 -99zM209 654q0 24 16 40t40 16t40 -16t16 -40t-16 -40t-40 -16t-40 16t-16 40zM395 654q0 24 16 40t40 16t40 -16t16 -40t-16 -40t-40 -16t-40 16t-16 40zM538 277v423h105v-430q0 -51 -14 -97.5t-44.5 -89.5t-88.5 -69 t-138 -26t-138 26t-88.5 69t-44.5 89.5t-14 97.5v430h105v-423q0 -36 9 -68.5t28.5 -61.5t56 -46t86.5 -17t86.5 17t56 46t28.5 61.5t9 68.5z" />
<glyph unicode="&#x1da;" horiz-adv-x="572" d="M358 904h89l-107 -143h-112l-107 143h89l74 -99zM135 632q0 24 16 40t40 16t40 -16t16 -40t-16 -40t-40 -16t-40 16t-16 40zM321 632q0 24 16 40t40 16t40 -16t16 -40t-16 -40t-40 -16t-40 16t-16 40zM63 500h101v-297q0 -64 23.5 -93.5t77.5 -29.5q62 0 100 40.5 t38 111.5v268h101v-500h-101v74q-52 -86 -159 -86q-181 0 -181 212v300z" />
<glyph unicode="&#x1db;" horiz-adv-x="716" d="M196 915h117l83 -142h-77zM209 654q0 24 16 40t40 16t40 -16t16 -40t-16 -40t-40 -16t-40 16t-16 40zM395 654q0 24 16 40t40 16t40 -16t16 -40t-16 -40t-40 -16t-40 16t-16 40zM538 277v423h105v-430q0 -51 -14 -97.5t-44.5 -89.5t-88.5 -69t-138 -26t-138 26t-88.5 69 t-44.5 89.5t-14 97.5v430h105v-423q0 -36 9 -68.5t28.5 -61.5t56 -46t86.5 -17t86.5 17t56 46t28.5 61.5t9 68.5z" />
<glyph unicode="&#x1dc;" horiz-adv-x="572" d="M122 903h117l83 -142h-77zM135 632q0 24 16 40t40 16t40 -16t16 -40t-16 -40t-40 -16t-40 16t-16 40zM321 632q0 24 16 40t40 16t40 -16t16 -40t-16 -40t-40 -16t-40 16t-16 40zM63 500h101v-297q0 -64 23.5 -93.5t77.5 -29.5q62 0 100 40.5t38 111.5v268h101v-500h-101 v74q-52 -86 -159 -86q-181 0 -181 212v300z" />
<glyph unicode="&#x1de;" horiz-adv-x="664" d="M331 670l-130 -408h262l-130 408h-2zM118 0h-111l233 700h184l233 -700h-111l-53 166h-322zM64 654q0 24 16 40t40 16t40 -16t16 -40t-16 -40t-40 -16t-40 16t-16 40zM474 853v-71h-284v71h284zM488 654q0 24 16 40t40 16t40 -16t16 -40t-16 -40t-40 -16t-40 16t-16 40z " />
<glyph unicode="&#x1df;" horiz-adv-x="609" d="M440 250q0 72 -37.5 121.5t-112.5 49.5t-112.5 -49.5t-37.5 -121.5t37.5 -121.5t112.5 -49.5t112.5 49.5t37.5 121.5zM541 0h-101v66q-61 -78 -168 -78q-62 0 -108.5 23t-73 62t-39 83.5t-12.5 93.5t12.5 93.5t39 83.5t73 62t108.5 23q107 0 168 -78v66h101v-500z M141 632q0 24 16 40t40 16t40 -16t16 -40t-16 -40t-40 -16t-40 16t-16 40zM432 841v-71h-284v71h284zM327 632q0 24 16 40t40 16t40 -16t16 -40t-16 -40t-40 -16t-40 16t-16 40z" />
<glyph unicode="&#x1e2;" horiz-adv-x="1026" d="M492 670l-222 -408h224v408h-2zM128 0h-121l392 700h568v-95h-368v-204h344v-92h-344v-214h380v-95h-485v166h-276zM689 853v-71h-284v71h284z" />
<glyph unicode="&#x1e3;" horiz-adv-x="960" d="M440 250q0 72 -37.5 121.5t-112.5 49.5t-112.5 -49.5t-37.5 -121.5t37.5 -121.5t112.5 -49.5t112.5 49.5t37.5 121.5zM544 297h272q-9 59 -43 94.5t-93 35.5t-93 -35.5t-43 -94.5zM541 0h-101v66q-61 -78 -168 -78q-62 0 -108.5 23t-73 62t-39 83.5t-12.5 93.5t12.5 93.5 t39 83.5t73 62t108.5 23q107 0 168 -78v66h101v-66q51 78 154 78q109 0 167.5 -77.5t58.5 -184.5v-27h-380q7 -66 41 -107.5t98 -41.5q98 0 127 74h103q-20 -75 -75 -117.5t-142 -42.5q-111 0 -152 78v-66zM633 653v-71h-284v71h284z" />
<glyph unicode="&#x1e6;" horiz-adv-x="752" d="M444 916h89l-107 -143h-112l-107 143h89l74 -99zM39 350q0 71 19.5 134t58.5 115t104 82.5t149 30.5q133 0 207.5 -70t96.5 -187h-107q-38 159 -197 159q-112 0 -169 -77t-57 -187q0 -52 13 -98t39.5 -84t72 -60.5t103.5 -22.5q183 0 207 192h-209v87h313v-364h-68 l-17 103q-67 -115 -228 -115q-84 0 -149 30.5t-104 82.5t-58.5 115t-19.5 134z" />
<glyph unicode="&#x1e7;" horiz-adv-x="599" d="M440 252q0 71 -38 120.5t-112 49.5t-112 -49.5t-38 -120.5t38 -120.5t112 -49.5t112 49.5t38 120.5zM440 19v50q-60 -77 -168 -77q-62 0 -108.5 23t-73 61.5t-39 83t-12.5 92.5t12.5 92.5t39 83t73 61.5t108.5 23q108 0 168 -77v65h101v-481q0 -60 -21 -105t-57 -70.5 t-79 -38t-92 -12.5q-82 0 -146 34t-89 105h113q40 -53 121 -53q63 0 106 34t43 106zM290 617l74 99h89l-107 -143h-112l-107 143h89z" />
<glyph unicode="&#x1e8;" horiz-adv-x="627" d="M431 916h89l-107 -143h-112l-107 143h89l74 -99zM188 700v-340l296 340h131l-305 -350l320 -350h-134l-308 338v-338h-105v700h105z" />
<glyph unicode="&#x1e9;" horiz-adv-x="525" d="M193 916h89l-107 -143h-112l-107 143h89l74 -99zM169 700v-442l214 242h122l-223 -250l238 -250h-127l-224 236v-236h-101v700h101z" />
<glyph unicode="&#x1ea;" horiz-adv-x="740" d="M596 350q0 110 -57 187t-169 77t-169 -77t-57 -187t57 -187t169 -77t169 77t57 187zM39 350q0 71 19.5 134t58.5 115t104 82.5t149 30.5t149 -30.5t104 -82.5t58.5 -115t19.5 -134q0 -92 -31 -169.5t-103 -132t-175 -59.5q-69 -64 -69 -121q0 -44 41 -44q24 0 41 8v-56 q-21 -11 -56 -11q-44 0 -71.5 25t-27.5 68q0 73 72 133q-95 11 -160.5 66t-94 130t-28.5 163z" />
<glyph unicode="&#x1eb;" horiz-adv-x="580" d="M440 250q0 71 -38 120.5t-112 49.5t-112 -49.5t-38 -120.5t38 -120.5t112 -49.5t112 49.5t38 120.5zM39 250q0 108 63.5 185t187.5 77t187.5 -77t63.5 -185q0 -102 -58 -177.5t-171 -83.5q-69 -64 -69 -121q0 -44 41 -44q24 0 41 8v-56q-21 -11 -56 -11q-44 0 -71.5 25 t-27.5 68q0 73 73 133q-101 15 -152.5 88.5t-51.5 170.5z" />
<glyph unicode="&#x1ec;" horiz-adv-x="740" d="M596 350q0 110 -57 187t-169 77t-169 -77t-57 -187t57 -187t169 -77t169 77t57 187zM39 350q0 71 19.5 134t58.5 115t104 82.5t149 30.5t149 -30.5t104 -82.5t58.5 -115t19.5 -134q0 -92 -31 -169.5t-103 -132t-175 -59.5q-69 -64 -69 -121q0 -44 41 -44q24 0 41 8v-56 q-21 -11 -56 -11q-44 0 -71.5 25t-27.5 68q0 73 72 133q-95 11 -160.5 66t-94 130t-28.5 163zM512 853v-71h-284v71h284z" />
<glyph unicode="&#x1ed;" horiz-adv-x="580" d="M440 250q0 71 -38 120.5t-112 49.5t-112 -49.5t-38 -120.5t38 -120.5t112 -49.5t112 49.5t38 120.5zM39 250q0 108 63.5 185t187.5 77t187.5 -77t63.5 -185q0 -102 -58 -177.5t-171 -83.5q-69 -64 -69 -121q0 -44 41 -44q24 0 41 8v-56q-21 -11 -56 -11q-44 0 -71.5 25 t-27.5 68q0 73 73 133q-101 15 -152.5 88.5t-51.5 170.5zM432 653v-71h-284v71h284z" />
<glyph unicode="&#x1f0;" horiz-adv-x="237" d="M193 716h89l-107 -143h-112l-107 143h89l74 -99zM-21 -202v88q17 -3 33 -3q56 0 56 64v553h101v-561q0 -70 -35 -108t-102 -38q-29 0 -53 5z" />
<glyph unicode="&#x1f1;" horiz-adv-x="1296" d="M188 96h145q109 0 164.5 74t55.5 180t-55.5 180t-164.5 74h-145v-508zM83 700h250q83 0 147 -29.5t102 -80t57 -111.5t19 -129t-19 -129t-57 -111.5t-102 -80t-147 -29.5h-250v700zM742 700h513v-110l-400 -494h406v-96h-529v110l400 494h-390v96z" />
<glyph unicode="&#x1f2;" horiz-adv-x="1186" d="M188 96h145q109 0 164.5 74t55.5 180t-55.5 180t-164.5 74h-145v-508zM83 700h250q83 0 147 -29.5t102 -80t57 -111.5t19 -129t-19 -129t-57 -111.5t-102 -80t-147 -29.5h-250v700zM753 500h386v-86l-270 -323h275v-91h-405v86l270 323h-256v91z" />
<glyph unicode="&#x1f3;" horiz-adv-x="1098" d="M440 250q0 72 -37.5 121.5t-112.5 49.5t-112.5 -49.5t-37.5 -121.5t37.5 -121.5t112.5 -49.5t112.5 49.5t37.5 121.5zM541 0h-101v66q-61 -78 -168 -78q-62 0 -108.5 23t-73 62t-39 83.5t-12.5 93.5t12.5 93.5t39 83.5t73 62t108.5 23q107 0 168 -78v266h101v-700z M665 500h386v-86l-270 -323h275v-91h-405v86l270 323h-256v91z" />
<glyph unicode="&#x1f4;" horiz-adv-x="752" d="M532 915l-123 -142h-77l83 142h117zM39 350q0 71 19.5 134t58.5 115t104 82.5t149 30.5q133 0 207.5 -70t96.5 -187h-107q-38 159 -197 159q-112 0 -169 -77t-57 -187q0 -52 13 -98t39.5 -84t72 -60.5t103.5 -22.5q183 0 207 192h-209v87h313v-364h-68l-17 103 q-67 -115 -228 -115q-84 0 -149 30.5t-104 82.5t-58.5 115t-19.5 134z" />
<glyph unicode="&#x1f5;" horiz-adv-x="599" d="M440 252q0 71 -38 120.5t-112 49.5t-112 -49.5t-38 -120.5t38 -120.5t112 -49.5t112 49.5t38 120.5zM440 19v50q-60 -77 -168 -77q-62 0 -108.5 23t-73 61.5t-39 83t-12.5 92.5t12.5 92.5t39 83t73 61.5t108.5 23q108 0 168 -77v65h101v-481q0 -60 -21 -105t-57 -70.5 t-79 -38t-92 -12.5q-82 0 -146 34t-89 105h113q40 -53 121 -53q63 0 106 34t43 106zM335 715h117l-123 -142h-77z" />
<glyph unicode="&#x1f8;" horiz-adv-x="751" d="M214 915h117l83 -142h-77zM279 700l282 -670h2v670h105v-700h-196l-282 670h-2v-670h-105v700h196z" />
<glyph unicode="&#x1f9;" horiz-adv-x="572" d="M127 715h117l83 -142h-77zM509 0h-101v297q0 64 -23.5 93.5t-77.5 29.5q-62 0 -100 -40.5t-38 -111.5v-268h-101v500h101v-74q52 86 159 86q181 0 181 -212v-300z" />
<glyph unicode="&#x1fa;" horiz-adv-x="664" d="M331 670l-130 -408h262l-130 408h-2zM384 753q0 22 -14.5 37.5t-37.5 15.5t-37.5 -15.5t-14.5 -37.5t14.5 -37.5t37.5 -15.5t37.5 15.5t14.5 37.5zM439 753q0 -27 -15 -54l233 -699h-111l-53 166h-322l-53 -166h-111l233 699q-15 27 -15 54q0 37 21 64.5t56 36.5l35 121 h112l-72 -126q29 -12 45.5 -38t16.5 -58z" />
<glyph unicode="&#x1fb;" horiz-adv-x="609" d="M440 250q0 72 -37.5 121.5t-112.5 49.5t-112.5 -49.5t-37.5 -121.5t37.5 -121.5t112.5 -49.5t112.5 49.5t37.5 121.5zM342 663q0 22 -14.5 37.5t-37.5 15.5t-37.5 -15.5t-14.5 -37.5t14.5 -37.5t37.5 -15.5t37.5 15.5t14.5 37.5zM541 0h-101v66q-61 -78 -168 -78 q-62 0 -108.5 23t-73 62t-39 83.5t-12.5 93.5t12.5 93.5t39 83.5t73 62t108.5 23q107 0 168 -78v66h101v-500zM183 663q0 37 21 64.5t56 36.5l35 121h112l-72 -126q29 -12 45.5 -38t16.5 -58q0 -45 -30.5 -75t-76.5 -30t-76.5 30t-30.5 75z" />
<glyph unicode="&#x1fc;" horiz-adv-x="1026" d="M492 670l-222 -408h224v408h-2zM128 0h-121l392 700h568v-95h-368v-204h344v-92h-344v-214h380v-95h-485v166h-276zM592 915h117l-123 -142h-77z" />
<glyph unicode="&#x1fd;" horiz-adv-x="960" d="M440 250q0 72 -37.5 121.5t-112.5 49.5t-112.5 -49.5t-37.5 -121.5t37.5 -121.5t112.5 -49.5t112.5 49.5t37.5 121.5zM544 297h272q-9 59 -43 94.5t-93 35.5t-93 -35.5t-43 -94.5zM541 0h-101v66q-61 -78 -168 -78q-62 0 -108.5 23t-73 62t-39 83.5t-12.5 93.5t12.5 93.5 t39 83.5t73 62t108.5 23q107 0 168 -78v66h101v-66q51 78 154 78q109 0 167.5 -77.5t58.5 -184.5v-27h-380q7 -66 41 -107.5t98 -41.5q98 0 127 74h103q-20 -75 -75 -117.5t-142 -42.5q-111 0 -152 78v-66zM536 715h117l-123 -142h-77z" />
<glyph unicode="&#x1fe;" horiz-adv-x="740" d="M193 174l313 397q-56 43 -136 43q-112 0 -169 -77t-57 -187q0 -105 49 -176zM596 350q0 105 -49 176l-313 -397q56 -43 136 -43q112 0 169 77t57 187zM648 751l48 -36l-83 -105q88 -101 88 -260q0 -71 -19.5 -134t-58.5 -115t-104 -82.5t-149 -30.5q-119 0 -199 61 l-79 -100l-48 36l83 105q-88 101 -88 260q0 71 19.5 134t58.5 115t104 82.5t149 30.5q119 0 199 -61zM415 916h117l-123 -142h-77z" />
<glyph unicode="&#x1ff;" horiz-adv-x="580" d="M169 142l202 256q-33 22 -81 22q-74 0 -112 -49.5t-38 -120.5q0 -63 29 -108zM440 250q0 63 -29 108l-202 -256q33 -22 81 -22q74 0 112 49.5t38 120.5zM490 549l46 -33l-61 -78q66 -72 66 -188q0 -108 -63.5 -185t-187.5 -77q-81 0 -141 37l-59 -74l-46 33l61 78 q-66 72 -66 188q0 108 63.5 185t187.5 77q81 0 141 -37zM335 715h117l-123 -142h-77z" />
<glyph unicode="&#x200;" horiz-adv-x="664" d="M331 670l-130 -408h262l-130 408h-2zM118 0h-111l233 700h184l233 -700h-111l-53 166h-322zM211 773l-111 142h111l71 -142h-71zM382 773l-111 142h111l71 -142h-71z" />
<glyph unicode="&#x201;" horiz-adv-x="609" d="M440 250q0 72 -37.5 121.5t-112.5 49.5t-112.5 -49.5t-37.5 -121.5t37.5 -121.5t112.5 -49.5t112.5 49.5t37.5 121.5zM541 0h-101v66q-61 -78 -168 -78q-62 0 -108.5 23t-73 62t-39 83.5t-12.5 93.5t12.5 93.5t39 83.5t73 62t108.5 23q107 0 168 -78v66h101v-500z M169 573l-111 142h111l71 -142h-71zM340 573l-111 142h111l71 -142h-71z" />
<glyph unicode="&#x202;" horiz-adv-x="664" d="M331 670l-130 -408h262l-130 408h-2zM118 0h-111l233 700h184l233 -700h-111l-53 166h-322zM247 771h-73q0 64 43 104.5t115 40.5t115 -40.5t43 -104.5h-73q0 35 -23 57t-62 22t-62 -22t-23 -57z" />
<glyph unicode="&#x203;" horiz-adv-x="609" d="M440 250q0 72 -37.5 121.5t-112.5 49.5t-112.5 -49.5t-37.5 -121.5t37.5 -121.5t112.5 -49.5t112.5 49.5t37.5 121.5zM541 0h-101v66q-61 -78 -168 -78q-62 0 -108.5 23t-73 62t-39 83.5t-12.5 93.5t12.5 93.5t39 83.5t73 62t108.5 23q107 0 168 -78v66h101v-500z M205 571h-73q0 64 43 104.5t115 40.5t115 -40.5t43 -104.5h-73q0 35 -23 57t-62 22t-62 -22t-23 -57z" />
<glyph unicode="&#x204;" horiz-adv-x="615" d="M265 915h111l71 -142h-71zM94 915h111l71 -142h-71zM188 309v-214h380v-95h-485v700h473v-95h-368v-204h344v-92h-344z" />
<glyph unicode="&#x205;" horiz-adv-x="560" d="M144 297h272q-10 59 -43.5 94.5t-92.5 35.5t-92.5 -35.5t-43.5 -94.5zM407 148h103q-43 -160 -230 -160q-119 0 -180 77t-61 185t61 185t180 77t180 -77t61 -185v-27h-380q6 -66 40.5 -107.5t98.5 -41.5q98 0 127 74zM159 573l-111 142h111l71 -142h-71zM330 573 l-111 142h111l71 -142h-71z" />
<glyph unicode="&#x206;" horiz-adv-x="615" d="M241 771h-73q0 64 43 104.5t115 40.5t115 -40.5t43 -104.5h-73q0 35 -23 57t-62 22t-62 -22t-23 -57zM188 309v-214h380v-95h-485v700h473v-95h-368v-204h344v-92h-344z" />
<glyph unicode="&#x207;" horiz-adv-x="560" d="M144 297h272q-10 59 -43.5 94.5t-92.5 35.5t-92.5 -35.5t-43.5 -94.5zM407 148h103q-43 -160 -230 -160q-119 0 -180 77t-61 185t61 185t180 77t180 -77t61 -185v-27h-380q6 -66 40.5 -107.5t98.5 -41.5q98 0 127 74zM195 571h-73q0 64 43 104.5t115 40.5t115 -40.5 t43 -104.5h-73q0 35 -23 57t-62 22t-62 -22t-23 -57z" />
<glyph unicode="&#x208;" horiz-adv-x="271" d="M75 915h111l71 -142h-71zM-96 915h111l71 -142h-71zM83 0v700h105v-700h-105z" />
<glyph unicode="&#x209;" horiz-adv-x="237" d="M58 715h111l71 -142h-71zM-113 715h111l71 -142h-71zM68 0v500h101v-500h-101z" />
<glyph unicode="&#x20a;" horiz-adv-x="271" d="M51 771h-73q0 64 43 104.5t115 40.5t115 -40.5t43 -104.5h-73q0 35 -23 57t-62 22t-62 -22t-23 -57zM83 0v700h105v-700h-105z" />
<glyph unicode="&#x20b;" horiz-adv-x="237" d="M34 794h-73q0 64 43 104.5t115 40.5t115 -40.5t43 -104.5h-73q0 35 -23 57t-62 22t-62 -22t-23 -57zM58 662q0 26 17.5 43.5t43.5 17.5t43.5 -17.5t17.5 -43.5t-17.5 -43.5t-43.5 -17.5t-43.5 17.5t-17.5 43.5zM68 0v500h101v-500h-101z" />
<glyph unicode="&#x20c;" horiz-adv-x="740" d="M309 915h111l71 -142h-71zM138 915h111l71 -142h-71zM39 350q0 71 19.5 134t58.5 115t104 82.5t149 30.5t149 -30.5t104 -82.5t58.5 -115t19.5 -134t-19.5 -134t-58.5 -115t-104 -82.5t-149 -30.5t-149 30.5t-104 82.5t-58.5 115t-19.5 134zM596 350q0 110 -57 187 t-169 77t-169 -77t-57 -187t57 -187t169 -77t169 77t57 187z" />
<glyph unicode="&#x20d;" horiz-adv-x="580" d="M229 715h111l71 -142h-71zM58 715h111l71 -142h-71zM39 250q0 108 63.5 185t187.5 77t187.5 -77t63.5 -185t-63.5 -185t-187.5 -77t-187.5 77t-63.5 185zM440 250q0 71 -38 120.5t-112 49.5t-112 -49.5t-38 -120.5t38 -120.5t112 -49.5t112 49.5t38 120.5z" />
<glyph unicode="&#x20e;" horiz-adv-x="740" d="M596 350q0 110 -57 187t-169 77t-169 -77t-57 -187t57 -187t169 -77t169 77t57 187zM39 350q0 71 19.5 134t58.5 115t104 82.5t149 30.5t149 -30.5t104 -82.5t58.5 -115t19.5 -134t-19.5 -134t-58.5 -115t-104 -82.5t-149 -30.5t-149 30.5t-104 82.5t-58.5 115t-19.5 134 zM285 771h-73q0 64 43 104.5t115 40.5t115 -40.5t43 -104.5h-73q0 35 -23 57t-62 22t-62 -22t-23 -57z" />
<glyph unicode="&#x20f;" horiz-adv-x="580" d="M440 250q0 71 -38 120.5t-112 49.5t-112 -49.5t-38 -120.5t38 -120.5t112 -49.5t112 49.5t38 120.5zM39 250q0 108 63.5 185t187.5 77t187.5 -77t63.5 -185t-63.5 -185t-187.5 -77t-187.5 77t-63.5 185zM205 571h-73q0 64 43 104.5t115 40.5t115 -40.5t43 -104.5h-73 q0 35 -23 57t-62 22t-62 -22t-23 -57z" />
<glyph unicode="&#x210;" horiz-adv-x="669" d="M375 605h-187v-256h187q55 0 91.5 36.5t36.5 91.5t-36.5 91.5t-91.5 36.5zM188 256v-256h-105v700h295q100 0 165 -63.5t65 -159.5q0 -76 -42.5 -132.5t-112.5 -77.5l167 -267h-119l-160 256h-153zM219 773l-111 142h111l71 -142h-71zM390 773l-111 142h111l71 -142h-71z " />
<glyph unicode="&#x211;" horiz-adv-x="356" d="M144 715h111l71 -142h-71zM-27 715h111l71 -142h-71zM68 0v500h101v-77h2q14 37 54.5 63t94.5 26h22v-101q-9 4 -37 4q-55 0 -95.5 -41t-40.5 -105v-269h-101z" />
<glyph unicode="&#x212;" horiz-adv-x="669" d="M375 605h-187v-256h187q55 0 91.5 36.5t36.5 91.5t-36.5 91.5t-91.5 36.5zM188 256v-256h-105v700h295q100 0 165 -63.5t65 -159.5q0 -76 -42.5 -132.5t-112.5 -77.5l167 -267h-119l-160 256h-153zM255 771h-73q0 64 43 104.5t115 40.5t115 -40.5t43 -104.5h-73 q0 35 -23 57t-62 22t-62 -22t-23 -57z" />
<glyph unicode="&#x213;" horiz-adv-x="356" d="M120 571h-73q0 64 43 104.5t115 40.5t115 -40.5t43 -104.5h-73q0 35 -23 57t-62 22t-62 -22t-23 -57zM68 0v500h101v-77h2q14 37 54.5 63t94.5 26h22v-101q-9 4 -37 4q-55 0 -95.5 -41t-40.5 -105v-269h-101z" />
<glyph unicode="&#x214;" horiz-adv-x="716" d="M297 915h111l71 -142h-71zM126 915h111l71 -142h-71zM538 277v423h105v-430q0 -51 -14 -97.5t-44.5 -89.5t-88.5 -69t-138 -26t-138 26t-88.5 69t-44.5 89.5t-14 97.5v430h105v-423q0 -36 9 -68.5t28.5 -61.5t56 -46t86.5 -17t86.5 17t56 46t28.5 61.5t9 68.5z" />
<glyph unicode="&#x215;" horiz-adv-x="572" d="M223 715h111l71 -142h-71zM52 715h111l71 -142h-71zM63 500h101v-297q0 -64 23.5 -93.5t77.5 -29.5q62 0 100 40.5t38 111.5v268h101v-500h-101v74q-52 -86 -159 -86q-181 0 -181 212v300z" />
<glyph unicode="&#x216;" horiz-adv-x="716" d="M273 771h-73q0 64 43 104.5t115 40.5t115 -40.5t43 -104.5h-73q0 35 -23 57t-62 22t-62 -22t-23 -57zM538 277v423h105v-430q0 -51 -14 -97.5t-44.5 -89.5t-88.5 -69t-138 -26t-138 26t-88.5 69t-44.5 89.5t-14 97.5v430h105v-423q0 -36 9 -68.5t28.5 -61.5t56 -46 t86.5 -17t86.5 17t56 46t28.5 61.5t9 68.5z" />
<glyph unicode="&#x217;" horiz-adv-x="572" d="M199 571h-73q0 64 43 104.5t115 40.5t115 -40.5t43 -104.5h-73q0 35 -23 57t-62 22t-62 -22t-23 -57zM63 500h101v-297q0 -64 23.5 -93.5t77.5 -29.5q62 0 100 40.5t38 111.5v268h101v-500h-101v74q-52 -86 -159 -86q-181 0 -181 212v300z" />
<glyph unicode="&#x218;" horiz-adv-x="614" d="M38 203h105q6 -60 51.5 -91.5t112.5 -31.5q69 0 116.5 29t47.5 86q0 41 -31 65.5t-77 32t-100.5 19.5t-100.5 27.5t-77 57t-31 106.5q0 103 72.5 156t177.5 53q102 0 172.5 -54.5t77.5 -159.5h-105q-6 60 -45.5 91t-99.5 31q-62 0 -103.5 -28.5t-41.5 -85.5 q0 -40 31 -63.5t77 -30.5t100.5 -19t100.5 -28t77 -58.5t31 -108.5q0 -70 -39.5 -119t-99 -70t-130.5 -21q-109 0 -185.5 55t-83.5 160zM235 -219l26 147h92l-43 -147h-75z" />
<glyph unicode="&#x219;" horiz-adv-x="494" d="M38 149h101q4 -39 34 -59.5t74 -20.5q45 0 76.5 18t31.5 54q0 31 -31.5 46t-77 22t-90.5 18t-76.5 43t-31.5 87q0 77 57 116t140 39q80 0 135 -40.5t61 -118.5h-99q-4 39 -30.5 58.5t-67.5 19.5q-40 0 -67.5 -16.5t-27.5 -52.5q0 -30 31.5 -45t77 -21.5t90.5 -17.5 t76.5 -43.5t31.5 -88.5q0 -77 -61 -117.5t-147 -40.5q-85 0 -145 41.5t-65 119.5zM176 -219l26 147h92l-43 -147h-75z" />
<glyph unicode="&#x21a;" horiz-adv-x="581" d="M343 604v-604h-105v604h-217v96h539v-96h-217zM219 -219l26 147h92l-43 -147h-75z" />
<glyph unicode="&#x21b;" horiz-adv-x="385" d="M342 4q-46 -16 -99 -16q-67 0 -102 38t-35 108v280h-89v86h89v140h101v-140h135v-86h-135v-272q0 -64 56 -64q42 0 79 14v-88zM121 -219l26 147h92l-43 -147h-75z" />
<glyph unicode="&#x21e;" horiz-adv-x="716" d="M432 916h89l-107 -143h-112l-107 143h89l74 -99zM83 0v700h105v-296h340v296h105v-700h-105v308h-340v-308h-105z" />
<glyph unicode="&#x21f;" horiz-adv-x="572" d="M360 916h89l-107 -143h-112l-107 143h89l74 -99zM509 0h-101v297q0 64 -23.5 93.5t-77.5 29.5q-62 0 -100 -40.5t-38 -111.5v-268h-101v700h101v-274q52 86 159 86q181 0 181 -212v-300z" />
<glyph unicode="&#x226;" horiz-adv-x="664" d="M331 670l-130 -408h262l-130 408h-2zM118 0h-111l233 700h184l233 -700h-111l-53 166h-322zM275 833q0 24 16.5 40.5t40.5 16.5t40.5 -16.5t16.5 -40.5t-16.5 -40.5t-40.5 -16.5t-40.5 16.5t-16.5 40.5z" />
<glyph unicode="&#x227;" horiz-adv-x="609" d="M440 250q0 72 -37.5 121.5t-112.5 49.5t-112.5 -49.5t-37.5 -121.5t37.5 -121.5t112.5 -49.5t112.5 49.5t37.5 121.5zM541 0h-101v66q-61 -78 -168 -78q-62 0 -108.5 23t-73 62t-39 83.5t-12.5 93.5t12.5 93.5t39 83.5t73 62t108.5 23q107 0 168 -78v66h101v-500z M233 633q0 24 16.5 40.5t40.5 16.5t40.5 -16.5t16.5 -40.5t-16.5 -40.5t-40.5 -16.5t-40.5 16.5t-16.5 40.5z" />
<glyph unicode="&#x228;" horiz-adv-x="615" d="M188 309v-214h380v-95h-215l-15 -40h16q45 0 73.5 -24.5t28.5 -65.5q0 -47 -34.5 -76t-93.5 -29q-39 0 -87 17v60q42 -19 79 -19q31 0 49.5 13.5t18.5 35.5q0 42 -55 42h-39l-17 28l22 58h-216v700h473v-95h-368v-204h344v-92h-344z" />
<glyph unicode="&#x229;" horiz-adv-x="560" d="M144 297h272q-10 59 -43.5 94.5t-92.5 35.5t-92.5 -35.5t-43.5 -94.5zM407 148h103q-40 -149 -207 -159l-11 -29h16q45 0 73.5 -24.5t28.5 -65.5q0 -47 -34.5 -76t-93.5 -29q-39 0 -87 17v60q42 -19 79 -19q31 0 49.5 13.5t18.5 35.5q0 42 -55 42h-39l-17 28l18 48 q-104 11 -157 85.5t-53 174.5q0 108 61 185t180 77t180 -77t61 -185v-27h-380q6 -66 40.5 -107.5t98.5 -41.5q98 0 127 74z" />
<glyph unicode="&#x22e;" horiz-adv-x="740" d="M313 833q0 24 16.5 40.5t40.5 16.5t40.5 -16.5t16.5 -40.5t-16.5 -40.5t-40.5 -16.5t-40.5 16.5t-16.5 40.5zM39 350q0 71 19.5 134t58.5 115t104 82.5t149 30.5t149 -30.5t104 -82.5t58.5 -115t19.5 -134t-19.5 -134t-58.5 -115t-104 -82.5t-149 -30.5t-149 30.5 t-104 82.5t-58.5 115t-19.5 134zM596 350q0 110 -57 187t-169 77t-169 -77t-57 -187t57 -187t169 -77t169 77t57 187z" />
<glyph unicode="&#x22f;" horiz-adv-x="580" d="M233 633q0 24 16.5 40.5t40.5 16.5t40.5 -16.5t16.5 -40.5t-16.5 -40.5t-40.5 -16.5t-40.5 16.5t-16.5 40.5zM39 250q0 108 63.5 185t187.5 77t187.5 -77t63.5 -185t-63.5 -185t-187.5 -77t-187.5 77t-63.5 185zM440 250q0 71 -38 120.5t-112 49.5t-112 -49.5t-38 -120.5 t38 -120.5t112 -49.5t112 49.5t38 120.5z" />
<glyph unicode="&#x232;" horiz-adv-x="625" d="M455 782h-284v71h284v-71zM223 275l-211 425h113l187 -395h1l187 395h113l-211 -425h-37v-275h-105v275h-37z" />
<glyph unicode="&#x233;" horiz-adv-x="530" d="M407 582h-284v71h284v-71zM518 500l-216 -695h-104l60 195h-86l-160 500h105l147 -475h2l147 475h105z" />
<glyph unicode="&#x237;" horiz-adv-x="237" d="M-21 -202v88q17 -3 33 -3q56 0 56 64v553h101v-561q0 -70 -35 -108t-102 -38q-29 0 -53 5z" />
<glyph unicode="&#x244;" horiz-adv-x="756" d="M558 277v38h-360v-38q0 -36 9 -68.5t28.5 -61.5t56 -46t86.5 -17t86.5 17t56 46t28.5 61.5t9 68.5zM93 270v45h-72v71h72v314h105v-314h360v314h105v-314h72v-71h-72v-45q0 -51 -14 -97.5t-44.5 -89.5t-88.5 -69t-138 -26t-138 26t-88.5 69t-44.5 89.5t-14 97.5z" />
<glyph unicode="&#x254;" horiz-adv-x="560" d="M270 -12q-102 0 -159 52t-72 138h102q24 -100 129 -100q74 0 112 50.5t38 121.5t-38 121.5t-112 50.5q-105 0 -129 -100h-102q15 86 72 138t159 52q124 0 187.5 -77t63.5 -185t-63.5 -185t-187.5 -77z" />
<glyph unicode="&#x256;" horiz-adv-x="609" d="M440 250q0 72 -37.5 121.5t-112.5 49.5t-112.5 -49.5t-37.5 -121.5t37.5 -121.5t112.5 -49.5t112.5 49.5t37.5 121.5zM440 -60v126q-61 -78 -168 -78q-62 0 -108.5 23t-73 62t-39 83.5t-12.5 93.5t12.5 93.5t39 83.5t73 62t108.5 23q107 0 168 -78v266h101v-755 q0 -64 56 -64q17 0 33 3v-85q-24 -5 -53 -5q-67 0 -102 38t-35 108z" />
<glyph unicode="&#x258;" horiz-adv-x="560" d="M144 297h272q-10 59 -43.5 94.5t-92.5 35.5t-92.5 -35.5t-43.5 -94.5zM50 148h103q29 -74 127 -74q64 0 98.5 41.5t40.5 107.5h-380v27q0 108 61 185t180 77t180 -77t61 -185t-61 -185t-180 -77q-187 0 -230 160z" />
<glyph unicode="&#x259;" horiz-adv-x="560" d="M416 203h-272q10 -59 43.5 -94.5t92.5 -35.5t92.5 35.5t43.5 94.5zM153 352h-103q43 160 230 160q119 0 180 -77t61 -185t-61 -185t-180 -77t-180 77t-61 185v27h380q-6 66 -40.5 107.5t-98.5 41.5q-98 0 -127 -74z" />
<glyph unicode="&#x25b;" horiz-adv-x="494" d="M247 213q-45 0 -76.5 -18t-31.5 -54t31.5 -54t76.5 -18q44 0 74 20.5t34 59.5h101q-5 -78 -65.5 -119.5t-147.5 -41.5q-84 0 -144.5 38.5t-60.5 112.5q0 80 80 116q-65 35 -65 110q0 72 56.5 109.5t136.5 37.5q83 0 138.5 -40.5t61.5 -118.5h-99q-4 39 -30.5 58.5 t-67.5 19.5q-40 0 -67.5 -16.5t-27.5 -52.5t27.5 -52.5t67.5 -16.5h44v-80h-46z" />
<glyph unicode="&#x268;" horiz-adv-x="237" d="M58 662q0 26 17.5 43.5t43.5 17.5t43.5 -17.5t17.5 -43.5t-17.5 -43.5t-43.5 -17.5t-43.5 17.5t-17.5 43.5zM68 0v316h-51v68h51v116h101v-116h51v-68h-51v-316h-101z" />
<glyph unicode="&#x272;" horiz-adv-x="572" d="M169 268v-328q0 -70 -35 -108t-102 -38q-29 0 -53 5v85q17 -3 33 -3q56 0 56 64v555h101v-74q52 86 159 86q181 0 181 -212v-300h-101v297q0 64 -23.5 93.5t-77.5 29.5q-62 0 -100 -40.5t-38 -111.5z" />
<glyph unicode="&#x289;" horiz-adv-x="612" d="M423 232v84h-239v-113q0 -64 23.5 -93.5t77.5 -29.5q62 0 100 40.5t38 111.5zM83 384v116h101v-116h239v116h101v-116h51v-68h-51v-316h-101v74q-52 -86 -159 -86q-181 0 -181 212v116h-51v68h51z" />
<glyph unicode="&#x2bb;" horiz-adv-x="227" d="M190 700l-43 -240h-110l70 240h83z" />
<glyph unicode="&#x2bc;" horiz-adv-x="227" d="M37 460l43 240h110l-70 -240h-83z" />
<glyph unicode="&#x2c6;" horiz-adv-x="376" d="M244 716l107 -143h-89l-74 99l-74 -99h-89l107 143h112z" />
<glyph unicode="&#x2c7;" horiz-adv-x="376" d="M262 716h89l-107 -143h-112l-107 143h89l74 -99z" />
<glyph unicode="&#x2c9;" horiz-adv-x="334" d="M309 582h-284v71h284v-71z" />
<glyph unicode="&#x2d8;" horiz-adv-x="366" d="M25 716h73q0 -35 23 -57t62 -22t62 22t23 57h73q0 -64 -43 -104.5t-115 -40.5t-115 40.5t-43 104.5z" />
<glyph unicode="&#x2d9;" horiz-adv-x="164" d="M25 633q0 24 16.5 40.5t40.5 16.5t40.5 -16.5t16.5 -40.5t-16.5 -40.5t-40.5 -16.5t-40.5 16.5t-16.5 40.5z" />
<glyph unicode="&#x2da;" horiz-adv-x="264" d="M25 663q0 45 30.5 75t76.5 30t76.5 -30t30.5 -75t-30.5 -75t-76.5 -30t-76.5 30t-30.5 75zM184 663q0 22 -14.5 37.5t-37.5 15.5t-37.5 -15.5t-14.5 -37.5t14.5 -37.5t37.5 -15.5t37.5 15.5t14.5 37.5z" />
<glyph unicode="&#x2db;" horiz-adv-x="205" d="M180 -168v-56q-21 -11 -56 -11q-44 0 -71.5 25t-27.5 68q0 96 120 166l35 -24q-30 -24 -56 -60.5t-26 -71.5q0 -44 41 -44q24 0 41 8z" />
<glyph unicode="&#x2dc;" horiz-adv-x="362" d="M80 572h-55q2 45 26 75.5t69 30.5q24 0 64.5 -13t59.5 -13q33 0 38 38h55q-2 -45 -26 -75.5t-69 -30.5q-24 0 -64.5 13t-59.5 13q-33 0 -38 -38z" />
<glyph unicode="&#x2dd;" horiz-adv-x="403" d="M207 715l-111 -142h-71l71 142h111zM378 715l-111 -142h-71l71 142h111z" />
<glyph unicode="&#x300;" horiz-adv-x="0" d="M-520 915h117l83 -142h-77z" />
<glyph unicode="&#x301;" horiz-adv-x="0" d="M-196 915l-123 -142h-77l83 142h117z" />
<glyph unicode="&#x302;" horiz-adv-x="0" d="M-302 916l107 -143h-89l-74 99l-74 -99h-89l107 143h112z" />
<glyph unicode="&#x303;" horiz-adv-x="0" d="M-459 772h-55q2 45 26 75.5t69 30.5q24 0 64.5 -13t59.5 -13q33 0 38 38h55q-2 -45 -26 -75.5t-69 -30.5q-24 0 -64.5 13t-59.5 13q-33 0 -38 -38z" />
<glyph unicode="&#x304;" horiz-adv-x="0" d="M-216 782h-284v71h284v-71z" />
<glyph unicode="&#x306;" horiz-adv-x="0" d="M-516 916h73q0 -35 23 -57t62 -22t62 22t23 57h73q0 -64 -43 -104.5t-115 -40.5t-115 40.5t-43 104.5z" />
<glyph unicode="&#x307;" horiz-adv-x="0" d="M-415 833q0 24 16.5 40.5t40.5 16.5t40.5 -16.5t16.5 -40.5t-16.5 -40.5t-40.5 -16.5t-40.5 16.5t-16.5 40.5z" />
<glyph unicode="&#x308;" horiz-adv-x="0" d="M-507 832q0 24 16 40t40 16t40 -16t16 -40t-16 -40t-40 -16t-40 16t-16 40zM-321 832q0 24 16 40t40 16t40 -16t16 -40t-16 -40t-40 -16t-40 16t-16 40z" />
<glyph unicode="&#x309;" horiz-adv-x="0" d="M-366 819q0 26 -18.5 40t-49.5 14q-14 0 -29 -3v59q19 4 41 4q59 0 93.5 -28.5t34.5 -76.5q0 -40 -28 -65h-72q28 24 28 56z" />
<glyph unicode="&#x30a;" horiz-adv-x="0" d="M-465 863q0 45 30.5 75t76.5 30t76.5 -30t30.5 -75t-30.5 -75t-76.5 -30t-76.5 30t-30.5 75zM-306 863q0 22 -14.5 37.5t-37.5 15.5t-37.5 -15.5t-14.5 -37.5t14.5 -37.5t37.5 -15.5t37.5 15.5t14.5 37.5z" />
<glyph unicode="&#x30b;" horiz-adv-x="0" d="M-297 915l-111 -142h-71l71 142h111zM-126 915l-111 -142h-71l71 142h111z" />
<glyph unicode="&#x30c;" horiz-adv-x="0" d="M-284 916h89l-107 -143h-112l-107 143h89l74 -99z" />
<glyph unicode="&#x30f;" horiz-adv-x="0" d="M-419 915h111l71 -142h-71zM-590 915h111l71 -142h-71z" />
<glyph unicode="&#x311;" horiz-adv-x="0" d="M-443 771h-73q0 64 43 104.5t115 40.5t115 -40.5t43 -104.5h-73q0 35 -23 57t-62 22t-62 -22t-23 -57z" />
<glyph unicode="&#x312;" horiz-adv-x="0" d="M-286 922l-26 -147h-92l43 147h75z" />
<glyph unicode="&#x323;" horiz-adv-x="0" d="M-301 -133q0 -24 -16.5 -40.5t-40.5 -16.5t-40.5 16.5t-16.5 40.5t16.5 40.5t40.5 16.5t40.5 -16.5t16.5 -40.5z" />
<glyph unicode="&#x324;" horiz-adv-x="0" d="M-209 -132q0 -24 -16 -40t-40 -16t-40 16t-16 40t16 40t40 16t40 -16t16 -40zM-395 -132q0 -24 -16 -40t-40 -16t-40 16t-16 40t16 40t40 16t40 -16t16 -40z" />
<glyph unicode="&#x326;" horiz-adv-x="0" d="M-430 -219l26 147h92l-43 -147h-75z" />
<glyph unicode="&#x327;" horiz-adv-x="0" d="M-412 -86l-17 28l26 68h54l-19 -50h16q45 0 73.5 -24.5t28.5 -65.5q0 -47 -34.5 -76t-93.5 -29q-39 0 -87 17v60q42 -19 79 -19q31 0 49.5 13.5t18.5 35.5q0 42 -55 42h-39z" />
<glyph unicode="&#x328;" horiz-adv-x="0" d="M-280 -168v-56q-21 -11 -56 -11q-44 0 -71.5 25t-27.5 68q0 96 120 166l35 -24q-30 -24 -56 -60.5t-26 -71.5q0 -44 41 -44q24 0 41 8z" />
<glyph unicode="&#x32d;" horiz-adv-x="0" d="M-302 -73l107 -143h-89l-74 99l-74 -99h-89l107 143h112z" />
<glyph unicode="&#x32e;" horiz-adv-x="0" d="M-273 -71h73q0 -64 -43 -104.5t-115 -40.5t-115 40.5t-43 104.5h73q0 -35 23 -57t62 -22t62 22t23 57z" />
<glyph unicode="&#x330;" horiz-adv-x="0" d="M-459 -190h-55q2 45 26 75.5t69 30.5q24 0 64.5 -13t59.5 -13q33 0 38 38h55q-2 -45 -26 -75.5t-69 -30.5q-24 0 -64.5 13t-59.5 13q-33 0 -38 -38z" />
<glyph unicode="&#x331;" horiz-adv-x="0" d="M-216 -162h-284v71h284v-71z" />
<glyph unicode="&#x344;" horiz-adv-x="0" d="M-275 915l-91 -142h-57l51 142h97zM-553 832q0 24 16 40t40 16t40 -16t16 -40t-16 -40t-40 -16t-40 16t-16 40zM-275 832q0 24 16 40t40 16t40 -16t16 -40t-16 -40t-40 -16t-40 16t-16 40z" />
<glyph unicode="&#x37e;" horiz-adv-x="273" d="M78 446q0 28 18.5 46t45.5 18t45.5 -18t18.5 -46t-18.5 -46t-45.5 -18t-45.5 18t-18.5 46zM60 -133l43 240h110l-70 -240h-83z" />
<glyph unicode="&#x384;" horiz-adv-x="208" d="M183 715l-91 -142h-67l51 142h107z" />
<glyph unicode="&#x385;" horiz-adv-x="440" d="M303 715l-91 -142h-57l51 142h97zM25 632q0 24 16 40t40 16t40 -16t16 -40t-16 -40t-40 -16t-40 16t-16 40zM303 632q0 24 16 40t40 16t40 -16t16 -40t-16 -40t-40 -16t-40 16t-16 40z" />
<glyph unicode="&#x386;" horiz-adv-x="664" d="M331 670l-130 -408h262l-130 408h-2zM118 0h-111l233 700h184l233 -700h-111l-53 166h-322zM88 700h107l-91 -142h-67z" />
<glyph unicode="&#x387;" horiz-adv-x="222" d="M47 284q0 28 18.5 46t45.5 18t45.5 -18t18.5 -46t-18.5 -46t-45.5 -18t-45.5 18t-18.5 46z" />
<glyph unicode="&#x388;" horiz-adv-x="705" d="M278 309v-214h380v-95h-485v700h473v-95h-368v-204h344v-92h-344zM148 700l-91 -142h-67l51 142h107z" />
<glyph unicode="&#x389;" horiz-adv-x="806" d="M173 0v700h105v-296h340v296h105v-700h-105v308h-340v-308h-105zM148 700l-91 -142h-67l51 142h107z" />
<glyph unicode="&#x38a;" horiz-adv-x="361" d="M173 0v700h105v-700h-105zM148 700l-91 -142h-67l51 142h107z" />
<glyph unicode="&#x38c;" horiz-adv-x="770" d="M69 350q0 71 19.5 134t58.5 115t104 82.5t149 30.5t149 -30.5t104 -82.5t58.5 -115t19.5 -134t-19.5 -134t-58.5 -115t-104 -82.5t-149 -30.5t-149 30.5t-104 82.5t-58.5 115t-19.5 134zM150 700l-91 -142h-67l51 142h107zM626 350q0 110 -57 187t-169 77t-169 -77 t-57 -187t57 -187t169 -77t169 77t57 187z" />
<glyph unicode="&#x38e;" horiz-adv-x="765" d="M363 275l-211 425h113l187 -395h1l187 395h113l-211 -425h-37v-275h-105v275h-37zM146 700l-91 -142h-67l51 142h107z" />
<glyph unicode="&#x38f;" horiz-adv-x="770" d="M69 355q0 69 19.5 131t58.5 113.5t104 82t149 30.5t149 -30.5t104 -82t58.5 -113.5t19.5 -131q0 -182 -130 -260h130v-95h-254v95q74 27 111.5 97t37.5 158q0 110 -57 187t-169 77t-169 -77t-57 -187q0 -88 37.5 -158t111.5 -97v-95h-254v95h130q-130 78 -130 260z M150 700l-91 -142h-67l51 142h107z" />
<glyph unicode="&#x390;" horiz-adv-x="278" d="M202 715l-91 -142h-57l51 142h97zM-76 632q0 24 16 40t40 16t40 -16t16 -40t-16 -40t-40 -16t-40 16t-16 40zM202 632q0 24 16 40t40 16t40 -16t16 -40t-16 -40t-40 -16t-40 16t-16 40zM169 500v-356q0 -66 58 -66q17 0 33 3v-86q-31 -7 -61 -7q-62 0 -96.5 38t-34.5 104 v370h101z" />
<glyph unicode="&#x391;" horiz-adv-x="664" d="M331 670l-130 -408h262l-130 408h-2zM118 0h-111l233 700h184l233 -700h-111l-53 166h-322z" />
<glyph unicode="&#x392;" horiz-adv-x="676" d="M377 322h-189v-230h189q66 0 108.5 27t42.5 88t-42.5 88t-108.5 27zM360 608h-172v-204h172q58 0 95.5 24t37.5 78t-37.5 78t-95.5 24zM377 0h-294v700h277q48 0 88.5 -9t75 -29.5t54.5 -58t20 -90.5q0 -94 -83 -143q118 -50 118 -170q0 -55 -21.5 -95.5t-59 -62.5 t-80.5 -32t-95 -10z" />
<glyph unicode="&#x393;" horiz-adv-x="555" d="M188 0h-105v700h460v-96h-355v-604z" />
<glyph unicode="&#x394;" horiz-adv-x="664" d="M7 0l233 700h184l233 -700h-650zM149 96h366l-182 574h-2z" />
<glyph unicode="&#x395;" horiz-adv-x="615" d="M188 309v-214h380v-95h-485v700h473v-95h-368v-204h344v-92h-344z" />
<glyph unicode="&#x396;" horiz-adv-x="599" d="M558 700v-110l-400 -494h406v-96h-529v110l400 494h-390v96h513z" />
<glyph unicode="&#x397;" horiz-adv-x="716" d="M83 0v700h105v-296h340v296h105v-700h-105v308h-340v-308h-105z" />
<glyph unicode="&#x398;" horiz-adv-x="740" d="M39 350q0 71 19.5 134t58.5 115t104 82.5t149 30.5t149 -30.5t104 -82.5t58.5 -115t19.5 -134t-19.5 -134t-58.5 -115t-104 -82.5t-149 -30.5t-149 30.5t-104 82.5t-58.5 115t-19.5 134zM596 350q0 110 -57 187t-169 77t-169 -77t-57 -187t57 -187t169 -77t169 77t57 187 zM249 314v72h242v-72h-242z" />
<glyph unicode="&#x399;" horiz-adv-x="271" d="M83 0v700h105v-700h-105z" />
<glyph unicode="&#x39a;" horiz-adv-x="627" d="M188 700v-340l296 340h131l-305 -350l320 -350h-134l-308 338v-338h-105v700h105z" />
<glyph unicode="&#x39b;" horiz-adv-x="614" d="M7 0l208 700h184l208 -700h-111l-188 670h-2l-188 -670h-111z" />
<glyph unicode="&#x39c;" horiz-adv-x="906" d="M277 700l175 -670h2l175 670h194v-700h-105v670h-2l-175 -670h-176l-175 670h-2v-670h-105v700h194z" />
<glyph unicode="&#x39d;" horiz-adv-x="751" d="M279 700l282 -670h2v670h105v-700h-196l-282 670h-2v-670h-105v700h196z" />
<glyph unicode="&#x39e;" horiz-adv-x="579" d="M47 605v95h485v-95h-485zM107 309v92h365v-92h-365zM47 0v95h485v-95h-485z" />
<glyph unicode="&#x39f;" horiz-adv-x="740" d="M39 350q0 71 19.5 134t58.5 115t104 82.5t149 30.5t149 -30.5t104 -82.5t58.5 -115t19.5 -134t-19.5 -134t-58.5 -115t-104 -82.5t-149 -30.5t-149 30.5t-104 82.5t-58.5 115t-19.5 134zM596 350q0 110 -57 187t-169 77t-169 -77t-57 -187t57 -187t169 -77t169 77t57 187 z" />
<glyph unicode="&#x3a0;" horiz-adv-x="716" d="M83 0v700h550v-700h-105v604h-340v-604h-105z" />
<glyph unicode="&#x3a1;" horiz-adv-x="641" d="M365 605h-177v-276h177q60 0 99 39t39 99t-39 99t-99 39zM368 234h-180v-234h-105v700h285q104 0 172 -66t68 -167t-68 -167t-172 -66z" />
<glyph unicode="&#x3a3;" horiz-adv-x="579" d="M52 0v85l199 275l-199 255v85h480v-95h-346l189 -245l-190 -265h347v-95h-480z" />
<glyph unicode="&#x3a4;" horiz-adv-x="581" d="M343 604v-604h-105v604h-217v96h539v-96h-217z" />
<glyph unicode="&#x3a5;" horiz-adv-x="625" d="M223 275l-211 425h113l187 -395h1l187 395h113l-211 -425h-37v-275h-105v275h-37z" />
<glyph unicode="&#x3a6;" horiz-adv-x="819" d="M134 350q0 -80 59 -138t164 -58v392q-105 0 -164 -58t-59 -138zM685 350q0 80 -58.5 138t-164.5 58v-392q106 0 164.5 58t58.5 138zM790 350q0 -118 -86.5 -204.5t-241.5 -86.5v-79h-105v79q-155 0 -241.5 86.5t-86.5 204.5t86.5 204.5t241.5 86.5v79h105v-79 q155 0 241.5 -86.5t86.5 -204.5z" />
<glyph unicode="&#x3a7;" horiz-adv-x="612" d="M579 700l-170 -334l191 -366h-116l-177 351h-2l-177 -351h-116l191 366l-170 334h114l158 -319h2l158 319h114z" />
<glyph unicode="&#x3a8;" horiz-adv-x="791" d="M343 0v185q-126 2 -205.5 73.5t-79.5 192.5v249h105v-249q0 -79 50 -124t130 -47v420h105v-420q80 2 130 47t50 124v249h105v-249q0 -121 -79.5 -192.5t-205.5 -73.5v-185h-105z" />
<glyph unicode="&#x3a9;" horiz-adv-x="740" d="M39 355q0 69 19.5 131t58.5 113.5t104 82t149 30.5t149 -30.5t104 -82t58.5 -113.5t19.5 -131q0 -182 -130 -260h130v-95h-254v95q74 27 111.5 97t37.5 158q0 110 -57 187t-169 77t-169 -77t-57 -187q0 -88 37.5 -158t111.5 -97v-95h-254v95h130q-130 78 -130 260z" />
<glyph unicode="&#x3aa;" horiz-adv-x="271" d="M-13 832q0 24 16 40t40 16t40 -16t16 -40t-16 -40t-40 -16t-40 16t-16 40zM173 832q0 24 16 40t40 16t40 -16t16 -40t-16 -40t-40 -16t-40 16t-16 40zM83 0v700h105v-700h-105z" />
<glyph unicode="&#x3ab;" horiz-adv-x="625" d="M164 832q0 24 16 40t40 16t40 -16t16 -40t-16 -40t-40 -16t-40 16t-16 40zM350 832q0 24 16 40t40 16t40 -16t16 -40t-16 -40t-40 -16t-40 16t-16 40zM223 275l-211 425h113l187 -395h1l187 395h113l-211 -425h-37v-275h-105v275h-37z" />
<glyph unicode="&#x3ac;" horiz-adv-x="650" d="M440 250q0 72 -37.5 121.5t-112.5 49.5t-112.5 -49.5t-37.5 -121.5t37.5 -121.5t112.5 -49.5t112.5 49.5t37.5 121.5zM440 500h101v-356q0 -66 58 -66q17 0 33 3v-86q-31 -7 -61 -7q-97 0 -124 88q-61 -88 -175 -88q-62 0 -108.5 23t-73 62t-39 83.5t-12.5 93.5 t12.5 93.5t39 83.5t73 62t108.5 23q107 0 168 -78v66zM308 715h107l-91 -142h-67z" />
<glyph unicode="&#x3ad;" horiz-adv-x="494" d="M371 715l-91 -142h-67l51 142h107zM247 213q-45 0 -76.5 -18t-31.5 -54t31.5 -54t76.5 -18q44 0 74 20.5t34 59.5h101q-5 -78 -65.5 -119.5t-147.5 -41.5q-84 0 -144.5 38.5t-60.5 112.5q0 80 80 116q-65 35 -65 110q0 72 56.5 109.5t136.5 37.5q83 0 138.5 -40.5 t61.5 -118.5h-99q-4 39 -30.5 58.5t-67.5 19.5q-40 0 -67.5 -16.5t-27.5 -52.5t27.5 -52.5t67.5 -16.5h44v-80h-46z" />
<glyph unicode="&#x3ae;" horiz-adv-x="572" d="M414 715l-91 -142h-67l51 142h107zM509 -195h-101v492q0 64 -23.5 93.5t-77.5 29.5q-62 0 -100 -40.5t-38 -111.5v-268h-101v500h101v-74q52 86 159 86q181 0 181 -212v-495z" />
<glyph unicode="&#x3af;" horiz-adv-x="278" d="M244 715l-91 -142h-67l51 142h107zM169 500v-356q0 -66 58 -66q17 0 33 3v-86q-31 -7 -61 -7q-62 0 -96.5 38t-34.5 104v370h101z" />
<glyph unicode="&#x3b0;" horiz-adv-x="566" d="M366 715l-91 -142h-57l51 142h97zM88 632q0 24 16 40t40 16t40 -16t16 -40t-16 -40t-40 -16t-40 16t-16 40zM366 632q0 24 16 40t40 16t40 -16t16 -40t-16 -40t-40 -16t-40 16t-16 40zM283 80q56 0 87.5 34t31.5 89v297h101v-300q0 -95 -58.5 -153.5t-161.5 -58.5 t-161.5 58.5t-58.5 153.5v300h101v-297q0 -55 31.5 -89t87.5 -34z" />
<glyph unicode="&#x3b1;" horiz-adv-x="650" d="M440 250q0 72 -37.5 121.5t-112.5 49.5t-112.5 -49.5t-37.5 -121.5t37.5 -121.5t112.5 -49.5t112.5 49.5t37.5 121.5zM440 500h101v-356q0 -66 58 -66q17 0 33 3v-86q-31 -7 -61 -7q-97 0 -124 88q-61 -88 -175 -88q-62 0 -108.5 23t-73 62t-39 83.5t-12.5 93.5 t12.5 93.5t39 83.5t73 62t108.5 23q107 0 168 -78v66z" />
<glyph unicode="&#x3b2;" horiz-adv-x="599" d="M293 328v78q56 0 94 31t38 82q0 47 -34 75t-84 28q-69 0 -103.5 -47.5t-34.5 -122.5v-362h124q78 0 122 33t44 86t-44 86t-122 33zM169 0v-195h-101v647q0 114 60.5 187t178.5 73q93 0 155 -51t62 -136q0 -99 -86 -147q59 -24 90.5 -69.5t31.5 -104.5q0 -91 -70.5 -147.5 t-196.5 -56.5h-124z" />
<glyph unicode="&#x3b3;" horiz-adv-x="520" d="M513 500l-163 -500h-39v-195h-101v195h-40l-163 500h106l146 -475h2l146 475h106z" />
<glyph unicode="&#x3b4;" horiz-adv-x="580" d="M440 235q0 65 -38 111t-112 46t-112 -46t-38 -111t38 -111t112 -46t112 46t38 111zM91 612v88h410v-88h-237q128 -79 202.5 -176t74.5 -201q0 -102 -63.5 -174.5t-187.5 -72.5t-187.5 72.5t-63.5 174.5q0 101 62 173.5t179 72.5q18 0 26 -1q-87 77 -215 132z" />
<glyph unicode="&#x3b5;" horiz-adv-x="494" d="M247 213q-45 0 -76.5 -18t-31.5 -54t31.5 -54t76.5 -18q44 0 74 20.5t34 59.5h101q-5 -78 -65.5 -119.5t-147.5 -41.5q-84 0 -144.5 38.5t-60.5 112.5q0 80 80 116q-65 35 -65 110q0 72 56.5 109.5t136.5 37.5q83 0 138.5 -40.5t61.5 -118.5h-99q-4 39 -30.5 58.5 t-67.5 19.5q-40 0 -67.5 -16.5t-27.5 -52.5t27.5 -52.5t67.5 -16.5h44v-80h-46z" />
<glyph unicode="&#x3b6;" horiz-adv-x="497" d="M295 -12q-124 0 -187.5 72t-63.5 174q0 103 72 199.5t194 175.5h-246v91h410v-88q-151 -78 -240 -174.5t-89 -199.5q0 -67 40 -113t122 -46q53 0 100 17l49 -58v-178h-99v136q-25 -8 -62 -8z" />
<glyph unicode="&#x3b7;" horiz-adv-x="572" d="M509 -195h-101v492q0 64 -23.5 93.5t-77.5 29.5q-62 0 -100 -40.5t-38 -111.5v-268h-101v500h101v-74q52 86 159 86q181 0 181 -212v-495z" />
<glyph unicode="&#x3b8;" horiz-adv-x="580" d="M439 314h-298q10 -234 149 -234t149 234zM141 386h298q-10 234 -149 234t-149 -234zM39 350q0 163 62 262.5t189 99.5t189 -99.5t62 -262.5t-62 -262.5t-189 -99.5t-189 99.5t-62 262.5z" />
<glyph unicode="&#x3b9;" horiz-adv-x="278" d="M169 500v-356q0 -66 58 -66q17 0 33 3v-86q-31 -7 -61 -7q-62 0 -96.5 38t-34.5 104v370h101z" />
<glyph unicode="&#x3ba;" horiz-adv-x="525" d="M169 500v-242l214 242h122l-223 -250l238 -250h-127l-224 236v-236h-101v500h101z" />
<glyph unicode="&#x3bb;" horiz-adv-x="530" d="M518 0h-105l-147 475h-2l-147 -475h-105l160 500h86l-65 210h104z" />
<glyph unicode="&#x3bc;" horiz-adv-x="572" d="M63 -195v695h101v-297q0 -64 23.5 -93.5t77.5 -29.5q62 0 100 40.5t38 111.5v268h101v-500h-101v74q-52 -86 -159 -86q-46 0 -80 14v-197h-101z" />
<glyph unicode="&#x3bd;" horiz-adv-x="520" d="M513 500l-163 -500h-180l-163 500h106l146 -475h2l146 475h106z" />
<glyph unicode="&#x3be;" horiz-adv-x="500" d="M331 78q64 0 112 17l49 -57v-180h-99v138q-25 -8 -62 -8q-139 0 -207.5 56.5t-68.5 150.5q0 40 13.5 72.5t29.5 51t39 33t32.5 18t19.5 6.5q-3 0 -14 4t-28.5 15t-33 27t-27 43.5t-11.5 61.5q0 77 62 131t164 54q110 0 165 -50l-56 -73q-44 33 -109 33q-60 0 -92.5 -28 t-32.5 -74q0 -45 33.5 -72.5t101.5 -27.5h104v-89h-104q-74 0 -114.5 -36t-40.5 -93q0 -56 43.5 -90t131.5 -34z" />
<glyph unicode="&#x3bf;" horiz-adv-x="580" d="M39 250q0 108 63.5 185t187.5 77t187.5 -77t63.5 -185t-63.5 -185t-187.5 -77t-187.5 77t-63.5 185zM440 250q0 71 -38 120.5t-112 49.5t-112 -49.5t-38 -120.5t38 -120.5t112 -49.5t112 49.5t38 120.5z" />
<glyph unicode="&#x3c0;" horiz-adv-x="659" d="M123 408h-91v92h595v-92h-91v-264q0 -66 58 -66q16 0 33 3v-86q-31 -7 -61 -7q-62 0 -96.5 38t-34.5 104v278h-211v-408h-101v408z" />
<glyph unicode="&#x3c1;" horiz-adv-x="609" d="M169 250q0 -72 37.5 -121.5t112.5 -49.5t112.5 49.5t37.5 121.5t-37.5 121.5t-112.5 49.5t-112.5 -49.5t-37.5 -121.5zM169 66v-261h-101v445q0 109 63 185.5t188 76.5t188 -76.5t63 -185.5q0 -49 -12.5 -93.5t-39 -83.5t-73 -62t-108.5 -23q-107 0 -168 78z" />
<glyph unicode="&#x3c2;" horiz-adv-x="562" d="M290 80q64 0 112 17l49 -59v-178h-99v136q-25 -8 -62 -8q-124 0 -187.5 77t-63.5 185t63.5 185t187.5 77q104 0 161 -53t72 -140h-103q-24 101 -130 101q-74 0 -112 -49.5t-38 -120.5t38 -120.5t112 -49.5z" />
<glyph unicode="&#x3c3;" horiz-adv-x="586" d="M440 244q0 69 -38 117t-112 48t-112 -48t-38 -117t38 -117t112 -48t112 48t38 117zM39 244q0 49 15 93.5t44 81.5t78.5 59t113.5 22h296v-91h-104q59 -73 59 -165q0 -106 -63.5 -181t-187.5 -75t-187.5 75t-63.5 181z" />
<glyph unicode="&#x3c4;" horiz-adv-x="465" d="M451 500v-91h-168v-265q0 -66 58 -66q17 0 33 3v-86q-31 -7 -61 -7q-62 0 -96.5 38t-34.5 104v279h-168v91h437z" />
<glyph unicode="&#x3c5;" horiz-adv-x="566" d="M283 80q56 0 87.5 34t31.5 89v297h101v-300q0 -95 -58.5 -153.5t-161.5 -58.5t-161.5 58.5t-58.5 153.5v300h101v-297q0 -55 31.5 -89t87.5 -34z" />
<glyph unicode="&#x3c6;" horiz-adv-x="741" d="M421 420v-340q85 0 132.5 50.5t47.5 119.5t-47.5 119.5t-132.5 50.5zM209 494l38 -86q-51 -20 -79 -63t-28 -95q0 -69 47.5 -119.5t132.5 -50.5v620h101v-188q133 0 207 -78t74 -184t-74 -184t-207 -78v-183h-101v183q-133 0 -207 78t-74 184q0 80 44.5 147.5t125.5 96.5 z" />
<glyph unicode="&#x3c7;" horiz-adv-x="510" d="M162 257l-136 243h109l119 -232h2l119 232h109l-136 -243l150 -257h-112l-130 246h-2l-130 -246h-112z" />
<glyph unicode="&#x3c8;" horiz-adv-x="741" d="M702 500v-250q0 -106 -74 -184t-207 -78v-183h-101v183q-133 0 -207 78t-74 184v250h101v-250q0 -69 47.5 -119.5t132.5 -50.5v620h101v-620q85 0 132.5 50.5t47.5 119.5v250h101z" />
<glyph unicode="&#x3c9;" horiz-adv-x="818" d="M359 320h100v-80q0 -79 30.5 -119.5t77.5 -40.5q45 0 73 37t28 111q0 134 -90 197l57 75q65 -42 99.5 -113.5t34.5 -158.5q0 -118 -56.5 -179t-143.5 -61q-110 0 -160 97q-50 -97 -160 -97q-87 0 -143.5 61t-56.5 179q0 87 34.5 158.5t99.5 113.5l57 -75 q-90 -63 -90 -197q0 -74 28 -111t73 -37q47 0 77.5 40.5t30.5 119.5v80z" />
<glyph unicode="&#x3ca;" horiz-adv-x="278" d="M-30 632q0 24 16 40t40 16t40 -16t16 -40t-16 -40t-40 -16t-40 16t-16 40zM156 632q0 24 16 40t40 16t40 -16t16 -40t-16 -40t-40 -16t-40 16t-16 40zM169 500v-356q0 -66 58 -66q17 0 33 3v-86q-31 -7 -61 -7q-62 0 -96.5 38t-34.5 104v370h101z" />
<glyph unicode="&#x3cb;" horiz-adv-x="566" d="M134 632q0 24 16 40t40 16t40 -16t16 -40t-16 -40t-40 -16t-40 16t-16 40zM320 632q0 24 16 40t40 16t40 -16t16 -40t-16 -40t-40 -16t-40 16t-16 40zM283 80q56 0 87.5 34t31.5 89v297h101v-300q0 -95 -58.5 -153.5t-161.5 -58.5t-161.5 58.5t-58.5 153.5v300h101v-297 q0 -55 31.5 -89t87.5 -34z" />
<glyph unicode="&#x3cc;" horiz-adv-x="580" d="M415 715l-91 -142h-67l51 142h107zM39 250q0 108 63.5 185t187.5 77t187.5 -77t63.5 -185t-63.5 -185t-187.5 -77t-187.5 77t-63.5 185zM440 250q0 71 -38 120.5t-112 49.5t-112 -49.5t-38 -120.5t38 -120.5t112 -49.5t112 49.5t38 120.5z" />
<glyph unicode="&#x3cd;" horiz-adv-x="566" d="M408 715l-91 -142h-67l51 142h107zM283 80q56 0 87.5 34t31.5 89v297h101v-300q0 -95 -58.5 -153.5t-161.5 -58.5t-161.5 58.5t-58.5 153.5v300h101v-297q0 -55 31.5 -89t87.5 -34z" />
<glyph unicode="&#x3ce;" horiz-adv-x="818" d="M534 715l-91 -142h-67l51 142h107zM359 320h100v-80q0 -79 30.5 -119.5t77.5 -40.5q45 0 73 37t28 111q0 134 -90 197l57 75q65 -42 99.5 -113.5t34.5 -158.5q0 -118 -56.5 -179t-143.5 -61q-110 0 -160 97q-50 -97 -160 -97q-87 0 -143.5 61t-56.5 179q0 87 34.5 158.5 t99.5 113.5l57 -75q-90 -63 -90 -197q0 -74 28 -111t73 -37q47 0 77.5 40.5t30.5 119.5v80z" />
<glyph unicode="&#x400;" horiz-adv-x="615" d="M164 915h117l83 -142h-77zM188 309v-214h380v-95h-485v700h473v-95h-368v-204h344v-92h-344z" />
<glyph unicode="&#x401;" horiz-adv-x="615" d="M177 832q0 24 16 40t40 16t40 -16t16 -40t-16 -40t-40 -16t-40 16t-16 40zM363 832q0 24 16 40t40 16t40 -16t16 -40t-16 -40t-40 -16t-40 16t-16 40zM188 309v-214h380v-95h-485v700h473v-95h-368v-204h344v-92h-344z" />
<glyph unicode="&#x402;" horiz-adv-x="816" d="M753 223q0 -114 -65 -174.5t-188 -60.5v94q81 0 114.5 37.5t33.5 103.5q0 68 -32.5 105.5t-112.5 37.5q-77 0 -160 -34v-332h-105v605h-217v95h539v-95h-217v-175q84 31 163 31q120 0 183.5 -61t63.5 -177z" />
<glyph unicode="&#x403;" horiz-adv-x="555" d="M475 915l-123 -142h-77l83 142h117zM188 0h-105v700h460v-96h-355v-604z" />
<glyph unicode="&#x404;" horiz-adv-x="713" d="M370 85q161 0 197 160h107q-20 -116 -96 -186.5t-208 -70.5q-84 0 -149 30.5t-104 82.5t-58.5 115t-19.5 134t19.5 134t58.5 115t104 82.5t149 30.5q132 0 208 -70.5t96 -186.5h-107q-36 160 -197 160q-100 0 -156 -61.5t-67 -156.5h301v-94h-301q11 -95 67 -156.5 t156 -61.5z" />
<glyph unicode="&#x405;" horiz-adv-x="614" d="M38 203h105q6 -60 51.5 -91.5t112.5 -31.5q69 0 116.5 29t47.5 86q0 41 -31 65.5t-77 32t-100.5 19.5t-100.5 27.5t-77 57t-31 106.5q0 103 72.5 156t177.5 53q102 0 172.5 -54.5t77.5 -159.5h-105q-6 60 -45.5 91t-99.5 31q-62 0 -103.5 -28.5t-41.5 -85.5 q0 -40 31 -63.5t77 -30.5t100.5 -19t100.5 -28t77 -58.5t31 -108.5q0 -70 -39.5 -119t-99 -70t-130.5 -21q-109 0 -185.5 55t-83.5 160z" />
<glyph unicode="&#x406;" horiz-adv-x="271" d="M83 0v700h105v-700h-105z" />
<glyph unicode="&#x407;" horiz-adv-x="271" d="M-13 832q0 24 16 40t40 16t40 -16t16 -40t-16 -40t-40 -16t-40 16t-16 40zM173 832q0 24 16 40t40 16t40 -16t16 -40t-16 -40t-40 -16t-40 16t-16 40zM83 0v700h105v-700h-105z" />
<glyph unicode="&#x408;" horiz-adv-x="562" d="M256 85q67 0 97.5 43t30.5 108v464h105v-464q0 -107 -55.5 -177.5t-177.5 -70.5t-177.5 70.5t-55.5 177.5v52h105v-52q0 -65 30.5 -108t97.5 -43z" />
<glyph unicode="&#x409;" horiz-adv-x="1041" d="M608 353v-258h166q56 0 92.5 36.5t36.5 92.5t-36.5 92.5t-92.5 36.5h-166zM139 302v398h469v-252h169q100 0 165.5 -63.5t65.5 -160.5t-65.5 -160.5t-165.5 -63.5h-274v604h-259v-302q0 -36 -1.5 -61t-7 -64.5t-19 -67t-35 -54.5t-57.5 -41t-84 -14h-32v96h21 q26 0 45.5 9.5t31 27.5t18.5 36.5t10 45.5t4 44.5t1 42.5z" />
<glyph unicode="&#x40a;" horiz-adv-x="1043" d="M610 95h166q56 0 92.5 36.5t36.5 92.5t-36.5 92.5t-92.5 36.5h-166v-258zM188 0h-105v700h105v-252h317v252h105v-252h169q100 0 165.5 -63.5t65.5 -160.5t-65.5 -160.5t-165.5 -63.5h-274v352h-317v-352z" />
<glyph unicode="&#x40b;" horiz-adv-x="816" d="M343 0h-105v605h-217v95h539v-95h-217v-175q84 31 163 31q118 0 182.5 -59.5t64.5 -173.5v-228h-105v208q0 80 -32 119t-113 39q-77 0 -160 -34v-332z" />
<glyph unicode="&#x40c;" horiz-adv-x="627" d="M519 915l-123 -142h-77l83 142h117zM188 700v-340l296 340h131l-305 -350l320 -350h-134l-308 338v-338h-105v700h105z" />
<glyph unicode="&#x40d;" horiz-adv-x="751" d="M214 915h117l83 -142h-77zM472 700h196v-700h-105v670h-2l-282 -670h-196v700h105v-670h2z" />
<glyph unicode="&#x40e;" horiz-adv-x="599" d="M144 916h73q0 -35 23 -57t62 -22t62 22t23 57h73q0 -64 -43 -104.5t-115 -40.5t-115 40.5t-43 104.5zM283 0h-110l85 195l-241 505h112l182 -387l166 387h110z" />
<glyph unicode="&#x40f;" horiz-adv-x="715" d="M83 700h105v-604h339v604h105v-700h-222v-140h-105v140h-222v700z" />
<glyph unicode="&#x410;" horiz-adv-x="664" d="M331 670l-130 -408h262l-130 408h-2zM118 0h-111l233 700h184l233 -700h-111l-53 166h-322z" />
<glyph unicode="&#x411;" horiz-adv-x="641" d="M188 94h192q53 0 88 35t35 88t-35 88t-88 35h-192v-246zM188 431h195q98 0 161.5 -60.5t63.5 -153.5q0 -94 -63.5 -155.5t-161.5 -61.5h-300v700h460v-94h-355v-175z" />
<glyph unicode="&#x412;" horiz-adv-x="676" d="M377 322h-189v-230h189q66 0 108.5 27t42.5 88t-42.5 88t-108.5 27zM360 608h-172v-204h172q58 0 95.5 24t37.5 78t-37.5 78t-95.5 24zM377 0h-294v700h277q48 0 88.5 -9t75 -29.5t54.5 -58t20 -90.5q0 -94 -83 -143q118 -50 118 -170q0 -55 -21.5 -95.5t-59 -62.5 t-80.5 -32t-95 -10z" />
<glyph unicode="&#x413;" horiz-adv-x="555" d="M188 0h-105v700h460v-96h-355v-604z" />
<glyph unicode="&#x414;" horiz-adv-x="739" d="M194 95h329v510h-276v-215q0 -188 -53 -295zM18 -140v235h60q64 102 64 295v310h486v-605h75v-235h-105v140h-475v-140h-105z" />
<glyph unicode="&#x415;" horiz-adv-x="615" d="M188 309v-214h380v-95h-485v700h473v-95h-368v-204h344v-92h-344z" />
<glyph unicode="&#x416;" horiz-adv-x="883" d="M494 700v-340l254 340h123l-261 -350l276 -350h-126l-266 338v-338h-105v338l-266 -338h-126l276 350l-261 350h123l254 -340v340h105z" />
<glyph unicode="&#x417;" horiz-adv-x="614" d="M307 306h-71v91h68q63 0 103.5 25.5t40.5 81.5q0 57 -41 86.5t-103 29.5q-60 0 -99.5 -31t-45.5 -91h-105q7 105 77.5 159.5t172.5 54.5q105 0 177 -52t72 -154t-90 -151q113 -48 113 -160q0 -102 -78.5 -154.5t-190.5 -52.5q-109 0 -185.5 55t-83.5 160h105 q6 -60 51.5 -91.5t112.5 -31.5q68 0 116 29.5t48 87.5q0 56 -47 82.5t-117 26.5z" />
<glyph unicode="&#x418;" horiz-adv-x="751" d="M472 700h196v-700h-105v670h-2l-282 -670h-196v700h105v-670h2z" />
<glyph unicode="&#x419;" horiz-adv-x="751" d="M218 916h73q0 -35 23 -57t62 -22t62 22t23 57h73q0 -64 -43 -104.5t-115 -40.5t-115 40.5t-43 104.5zM472 700h196v-700h-105v670h-2l-282 -670h-196v700h105v-670h2z" />
<glyph unicode="&#x41a;" horiz-adv-x="627" d="M188 700v-340l296 340h131l-305 -350l320 -350h-134l-308 338v-338h-105v700h105z" />
<glyph unicode="&#x41b;" horiz-adv-x="714" d="M40 0h-32v96h21q26 0 45.5 9.5t31 27.5t18.5 36.5t10 45.5t4 44.5t1 42.5v398h492v-700h-105v604h-282v-302q0 -36 -1.5 -61t-7 -64.5t-19 -67t-35 -54.5t-57.5 -41t-84 -14z" />
<glyph unicode="&#x41c;" horiz-adv-x="906" d="M277 700l175 -670h2l175 670h194v-700h-105v670h-2l-175 -670h-176l-175 670h-2v-670h-105v700h194z" />
<glyph unicode="&#x41d;" horiz-adv-x="716" d="M83 0v700h105v-296h340v296h105v-700h-105v308h-340v-308h-105z" />
<glyph unicode="&#x41e;" horiz-adv-x="740" d="M39 350q0 71 19.5 134t58.5 115t104 82.5t149 30.5t149 -30.5t104 -82.5t58.5 -115t19.5 -134t-19.5 -134t-58.5 -115t-104 -82.5t-149 -30.5t-149 30.5t-104 82.5t-58.5 115t-19.5 134zM596 350q0 110 -57 187t-169 77t-169 -77t-57 -187t57 -187t169 -77t169 77t57 187 z" />
<glyph unicode="&#x41f;" horiz-adv-x="716" d="M83 0v700h550v-700h-105v604h-340v-604h-105z" />
<glyph unicode="&#x420;" horiz-adv-x="641" d="M365 605h-177v-276h177q60 0 99 39t39 99t-39 99t-99 39zM368 234h-180v-234h-105v700h285q104 0 172 -66t68 -167t-68 -167t-172 -66z" />
<glyph unicode="&#x421;" horiz-adv-x="715" d="M570 259h106q-19 -123 -93.5 -197t-212.5 -74q-84 0 -149 30.5t-104 82.5t-58.5 115t-19.5 134t19.5 134t58.5 115t104 82.5t149 30.5q138 0 212.5 -74t93.5 -197h-106q-33 173 -200 173q-112 0 -169 -77t-57 -187t57 -187t169 -77q167 0 200 173z" />
<glyph unicode="&#x422;" horiz-adv-x="581" d="M343 604v-604h-105v604h-217v96h539v-96h-217z" />
<glyph unicode="&#x423;" horiz-adv-x="599" d="M283 0h-110l85 195l-241 505h112l182 -387l166 387h110z" />
<glyph unicode="&#x424;" horiz-adv-x="819" d="M134 350q0 -80 59 -138t164 -58v392q-105 0 -164 -58t-59 -138zM685 350q0 80 -58.5 138t-164.5 58v-392q106 0 164.5 58t58.5 138zM790 350q0 -118 -86.5 -204.5t-241.5 -86.5v-79h-105v79q-155 0 -241.5 86.5t-86.5 204.5t86.5 204.5t241.5 86.5v79h105v-79 q155 0 241.5 -86.5t86.5 -204.5z" />
<glyph unicode="&#x425;" horiz-adv-x="612" d="M579 700l-170 -334l191 -366h-116l-177 351h-2l-177 -351h-116l191 366l-170 334h114l158 -319h2l158 319h114z" />
<glyph unicode="&#x426;" horiz-adv-x="721" d="M83 700h105v-604h320v604h105v-604h72v-236h-105v140h-497v700z" />
<glyph unicode="&#x427;" horiz-adv-x="661" d="M473 700h105v-700h-105v259q-84 -31 -163 -31q-118 0 -182.5 59.5t-64.5 174.5v238h105v-218q0 -80 32 -119t113 -39q77 0 160 34v342z" />
<glyph unicode="&#x428;" horiz-adv-x="1025" d="M83 700h105v-604h272v604h105v-604h272v604h105v-700h-859v700z" />
<glyph unicode="&#x429;" horiz-adv-x="1050" d="M83 700h105v-604h272v604h105v-604h272v604h105v-604h72v-236h-105v140h-826v700z" />
<glyph unicode="&#x42a;" horiz-adv-x="723" d="M270 95h177q60 0 99 39t39 99t-39 99t-99 39h-177v-276zM5 700h265v-234h180q104 0 172 -66t68 -167t-68 -167t-172 -66h-285v604h-160v96z" />
<glyph unicode="&#x42b;" horiz-adv-x="881" d="M188 95h177q60 0 99 39t39 99t-39 99t-99 39h-177v-276zM188 466h180q104 0 172 -66t68 -167t-68 -167t-172 -66h-285v700h105v-234zM798 0h-105v700h105v-700z" />
<glyph unicode="&#x42c;" horiz-adv-x="641" d="M188 95h177q60 0 99 39t39 99t-39 99t-99 39h-177v-276zM188 466h180q104 0 172 -66t68 -167t-68 -167t-172 -66h-285v700h105v-234z" />
<glyph unicode="&#x42d;" horiz-adv-x="713" d="M343 85q100 0 156 61.5t67 156.5h-301v94h301q-11 95 -67 156.5t-156 61.5q-161 0 -197 -160h-107q20 116 96 186.5t208 70.5q84 0 149 -30.5t104 -82.5t58.5 -115t19.5 -134t-19.5 -134t-58.5 -115t-104 -82.5t-149 -30.5q-132 0 -208 70.5t-96 186.5h107 q36 -160 197 -160z" />
<glyph unicode="&#x42e;" horiz-adv-x="1016" d="M872 350q0 110 -57 187t-169 77t-169 -77t-57 -187t57 -187t169 -77t169 77t57 187zM188 0h-105v700h105v-296h130q7 63 30 117t62 97.5t99.5 68.5t136.5 25q84 0 149 -30.5t104 -82.5t58.5 -115t19.5 -134t-19.5 -134t-58.5 -115t-104 -82.5t-149 -30.5q-77 0 -139 26 t-101 71.5t-61.5 101.5t-27.5 121h-129v-308z" />
<glyph unicode="&#x42f;" horiz-adv-x="669" d="M481 349v256h-187q-56 0 -92 -36.5t-36 -91.5t36 -91.5t92 -36.5h187zM291 700h295v-700h-105v256h-153l-160 -256h-119l167 267q-70 21 -112.5 77.5t-42.5 132.5q0 96 65 159.5t165 63.5z" />
<glyph unicode="&#x430;" horiz-adv-x="609" d="M440 250q0 72 -37.5 121.5t-112.5 49.5t-112.5 -49.5t-37.5 -121.5t37.5 -121.5t112.5 -49.5t112.5 49.5t37.5 121.5zM541 0h-101v66q-61 -78 -168 -78q-62 0 -108.5 23t-73 62t-39 83.5t-12.5 93.5t12.5 93.5t39 83.5t73 62t108.5 23q107 0 168 -78v66h101v-500z" />
<glyph unicode="&#x431;" horiz-adv-x="585" d="M145 235q0 -65 38 -111t112 -46t112 46t38 111t-38 111t-112 46t-112 -46t-38 -111zM541 750v-91q-33 -8 -133 -22t-140 -32q-97 -43 -121 -194q50 70 158 70q117 0 179 -72.5t62 -173.5q0 -102 -63.5 -174.5t-187.5 -72.5q-126 0 -188.5 78t-62.5 204q0 52 3 94t13.5 93 t28 90t50 75t76.5 57q54 26 176 45t150 26z" />
<glyph unicode="&#x432;" horiz-adv-x="537" d="M305 223h-136v-140h136q94 0 94 70t-94 70zM294 417h-125v-122h125q81 0 81 61t-81 61zM304 0h-236v500h224q183 0 183 -138q0 -62 -53 -97q78 -37 78 -116q0 -41 -16.5 -71.5t-45 -46.5t-61.5 -23.5t-73 -7.5z" />
<glyph unicode="&#x433;" horiz-adv-x="419" d="M408 500v-91h-239v-409h-101v500h340z" />
<glyph unicode="&#x434;" horiz-adv-x="588" d="M171 91h240v319h-204v-118q0 -126 -36 -201zM18 -140v231h43q45 70 45 201v208h406v-409h53v-231h-101v140h-345v-140h-101z" />
<glyph unicode="&#x435;" horiz-adv-x="560" d="M144 297h272q-10 59 -43.5 94.5t-92.5 35.5t-92.5 -35.5t-43.5 -94.5zM407 148h103q-43 -160 -230 -160q-119 0 -180 77t-61 185t61 185t180 77t180 -77t61 -185v-27h-380q6 -66 40.5 -107.5t98.5 -41.5q98 0 127 74z" />
<glyph unicode="&#x436;" horiz-adv-x="731" d="M416 500v-241l179 241h116l-189 -250l204 -250h-120l-190 237v-237h-101v237l-190 -237h-120l204 250l-189 250h116l179 -241v241h101z" />
<glyph unicode="&#x437;" horiz-adv-x="494" d="M247 213h-46v80h44q40 0 67.5 16.5t27.5 52.5t-27.5 52.5t-67.5 16.5q-41 0 -67.5 -19.5t-30.5 -58.5h-99q6 78 61.5 118.5t138.5 40.5q80 0 136.5 -37.5t56.5 -109.5q0 -75 -65 -110q80 -36 80 -116q0 -74 -60.5 -112.5t-144.5 -38.5q-87 0 -147.5 41.5t-65.5 119.5h101 q4 -39 34 -59.5t74 -20.5q45 0 76.5 18t31.5 54t-31.5 54t-76.5 18z" />
<glyph unicode="&#x438;" horiz-adv-x="604" d="M349 500h187v-500h-101v475h-2l-178 -475h-187v500h101v-475h2z" />
<glyph unicode="&#x439;" horiz-adv-x="604" d="M144 716h73q0 -35 23 -57t62 -22t62 22t23 57h73q0 -64 -43 -104.5t-115 -40.5t-115 40.5t-43 104.5zM349 500h187v-500h-101v475h-2l-178 -475h-187v500h101v-475h2z" />
<glyph unicode="&#x43a;" horiz-adv-x="525" d="M169 500v-242l214 242h122l-223 -250l238 -250h-127l-224 236v-236h-101v500h101z" />
<glyph unicode="&#x43b;" horiz-adv-x="568" d="M33 0h-28v91h17q69 0 69 127v282h409v-500h-101v409h-207v-191q0 -32 -1.5 -53.5t-10 -56t-24.5 -55.5t-47.5 -37t-75.5 -16z" />
<glyph unicode="&#x43c;" horiz-adv-x="736" d="M169 0h-101v500h182l117 -475h2l117 475h182v-500h-101v475h-2l-117 -475h-160l-117 475h-2v-475z" />
<glyph unicode="&#x43d;" horiz-adv-x="577" d="M509 0h-101v205h-239v-205h-101v500h101v-204h239v204h101v-500z" />
<glyph unicode="&#x43e;" horiz-adv-x="580" d="M39 250q0 108 63.5 185t187.5 77t187.5 -77t63.5 -185t-63.5 -185t-187.5 -77t-187.5 77t-63.5 185zM440 250q0 71 -38 120.5t-112 49.5t-112 -49.5t-38 -120.5t38 -120.5t112 -49.5t112 49.5t38 120.5z" />
<glyph unicode="&#x43f;" horiz-adv-x="577" d="M509 0h-101v409h-239v-409h-101v500h441v-500z" />
<glyph unicode="&#x440;" horiz-adv-x="609" d="M169 250q0 -72 37.5 -121.5t112.5 -49.5t112.5 49.5t37.5 121.5t-37.5 121.5t-112.5 49.5t-112.5 -49.5t-37.5 -121.5zM169 66v-261h-101v695h101v-66q61 78 168 78q62 0 108.5 -23t73 -62t39 -83.5t12.5 -93.5t-12.5 -93.5t-39 -83.5t-73 -62t-108.5 -23q-107 0 -168 78 z" />
<glyph unicode="&#x441;" horiz-adv-x="562" d="M420 181h103q-15 -87 -72 -140t-161 -53q-124 0 -187.5 77t-63.5 185t63.5 185t187.5 77q104 0 161 -53t72 -140h-103q-24 101 -130 101q-74 0 -112 -49.5t-38 -120.5t38 -120.5t112 -49.5q106 0 130 101z" />
<glyph unicode="&#x442;" horiz-adv-x="465" d="M451 500v-91h-168v-409h-101v409h-168v91h437z" />
<glyph unicode="&#x443;" horiz-adv-x="530" d="M518 500l-216 -695h-104l60 195h-86l-160 500h105l147 -475h2l147 475h105z" />
<glyph unicode="&#x444;" horiz-adv-x="741" d="M320 80v340q-85 0 -132.5 -50.5t-47.5 -119.5t47.5 -119.5t132.5 -50.5zM421 420v-340q85 0 132.5 50.5t47.5 119.5t-47.5 119.5t-132.5 50.5zM421 -12v-183h-101v183q-133 0 -207 78t-74 184t74 184t207 78v188h101v-188q133 0 207 -78t74 -184t-74 -184t-207 -78z" />
<glyph unicode="&#x445;" horiz-adv-x="510" d="M162 257l-136 243h109l119 -232h2l119 232h109l-136 -243l150 -257h-112l-130 246h-2l-130 -246h-112z" />
<glyph unicode="&#x446;" horiz-adv-x="595" d="M398 91v409h101v-409h73v-231h-99v140h-405v500h101v-409h229z" />
<glyph unicode="&#x447;" horiz-adv-x="546" d="M377 500h101v-500h-101v173q-51 -19 -130 -19q-199 0 -199 191v155h101v-150q0 -56 26 -81t81 -25q69 0 121 19v237z" />
<glyph unicode="&#x448;" horiz-adv-x="867" d="M383 91v409h101v-409h214v409h101v-500h-731v500h101v-409h214z" />
<glyph unicode="&#x449;" horiz-adv-x="895" d="M383 91v409h101v-409h214v409h101v-409h73v-231h-99v140h-705v500h101v-409h214z" />
<glyph unicode="&#x44a;" horiz-adv-x="567" d="M435 164q0 34 -22 56t-56 22h-127v-156h127q34 0 56 22t22 56zM362 0h-233v409h-125v91h226v-172h132q77 0 125.5 -46t48.5 -118t-48.5 -118t-125.5 -46z" />
<glyph unicode="&#x44b;" horiz-adv-x="719" d="M374 164q0 34 -22 56t-56 22h-127v-156h127q34 0 56 22t22 56zM301 0h-233v500h101v-172h132q77 0 125.5 -46t48.5 -118t-48.5 -118t-125.5 -46zM651 500v-500h-101v500h101z" />
<glyph unicode="&#x44c;" horiz-adv-x="506" d="M374 164q0 34 -22 56t-56 22h-127v-156h127q34 0 56 22t22 56zM301 0h-233v500h101v-172h132q77 0 125.5 -46t48.5 -118t-48.5 -118t-125.5 -46z" />
<glyph unicode="&#x44d;" horiz-adv-x="561" d="M271 -12q-102 0 -159.5 52t-72.5 138h103q24 -101 129 -101q63 0 100 37t47 95h-201v82h201q-10 58 -47 95t-100 37q-105 0 -129 -101h-103q15 86 72.5 138t159.5 52q124 0 187.5 -77t63.5 -185t-63.5 -185t-187.5 -77z" />
<glyph unicode="&#x44e;" horiz-adv-x="807" d="M667 250q0 71 -38 120.5t-112 49.5t-112 -49.5t-38 -120.5t38 -120.5t112 -49.5t112 49.5t38 120.5zM169 0h-101v500h101v-204h100q13 93 75.5 154.5t172.5 61.5q124 0 187.5 -77t63.5 -185t-63.5 -185t-187.5 -77q-111 0 -173 61.5t-75 155.5h-100v-205z" />
<glyph unicode="&#x44f;" horiz-adv-x="517" d="M143 336q0 -34 22 -56t56 -22h127v156h-127q-34 0 -56 -22t-22 -56zM216 500h233v-500h-101v174h-101q-64 -82 -106 -174h-110q40 101 106 190q-44 19 -69.5 57.5t-25.5 88.5q0 72 48.5 118t125.5 46z" />
<glyph unicode="&#x450;" horiz-adv-x="560" d="M144 297h272q-10 59 -43.5 94.5t-92.5 35.5t-92.5 -35.5t-43.5 -94.5zM407 148h103q-43 -160 -230 -160q-119 0 -180 77t-61 185t61 185t180 77t180 -77t61 -185v-27h-380q6 -66 40.5 -107.5t98.5 -41.5q98 0 127 74zM241 573l-123 142h117l83 -142h-77z" />
<glyph unicode="&#x451;" horiz-adv-x="560" d="M144 297h272q-10 59 -43.5 94.5t-92.5 35.5t-92.5 -35.5t-43.5 -94.5zM407 148h103q-43 -160 -230 -160q-119 0 -180 77t-61 185t61 185t180 77t180 -77t61 -185v-27h-380q6 -66 40.5 -107.5t98.5 -41.5q98 0 127 74zM131 632q0 24 16 40t40 16t40 -16t16 -40t-16 -40 t-40 -16t-40 16t-16 40zM317 632q0 24 16 40t40 16t40 -16t16 -40t-16 -40t-40 -16t-40 16t-16 40z" />
<glyph unicode="&#x452;" horiz-adv-x="592" d="M339 -201v85q17 -3 33 -3q56 0 56 64v352q0 64 -23.5 93.5t-77.5 29.5q-62 0 -100 -40.5t-38 -111.5v-268h-101v573h-51v68h51v59h101v-59h145v-68h-145v-147q52 86 159 86q181 0 181 -212v-360q0 -70 -35 -108t-102 -38q-29 0 -53 5z" />
<glyph unicode="&#x453;" horiz-adv-x="419" d="M400 715l-123 -142h-77l83 142h117zM408 500v-91h-239v-409h-101v500h340z" />
<glyph unicode="&#x454;" horiz-adv-x="561" d="M290 -12q-124 0 -187.5 77t-63.5 185t63.5 185t187.5 77q102 0 159.5 -52t72.5 -138h-103q-24 101 -129 101q-63 0 -100 -37t-47 -95h201v-82h-201q10 -58 47 -95t100 -37q105 0 129 101h103q-15 -86 -72.5 -138t-159.5 -52z" />
<glyph unicode="&#x455;" horiz-adv-x="494" d="M38 149h101q4 -39 34 -59.5t74 -20.5q45 0 76.5 18t31.5 54q0 31 -31.5 46t-77 22t-90.5 18t-76.5 43t-31.5 87q0 77 57 116t140 39q80 0 135 -40.5t61 -118.5h-99q-4 39 -30.5 58.5t-67.5 19.5q-40 0 -67.5 -16.5t-27.5 -52.5q0 -30 31.5 -45t77 -21.5t90.5 -17.5 t76.5 -43.5t31.5 -88.5q0 -77 -61 -117.5t-147 -40.5q-85 0 -145 41.5t-65 119.5z" />
<glyph unicode="&#x456;" horiz-adv-x="237" d="M58 662q0 26 17.5 43.5t43.5 17.5t43.5 -17.5t17.5 -43.5t-17.5 -43.5t-43.5 -17.5t-43.5 17.5t-17.5 43.5zM68 0v500h101v-500h-101z" />
<glyph unicode="&#x457;" horiz-adv-x="237" d="M-30 632q0 24 16 40t40 16t40 -16t16 -40t-16 -40t-40 -16t-40 16t-16 40zM156 632q0 24 16 40t40 16t40 -16t16 -40t-16 -40t-40 -16t-40 16t-16 40zM68 0v500h101v-500h-101z" />
<glyph unicode="&#x458;" horiz-adv-x="237" d="M58 662q0 26 17.5 43.5t43.5 17.5t43.5 -17.5t17.5 -43.5t-17.5 -43.5t-43.5 -17.5t-43.5 17.5t-17.5 43.5zM-21 -202v88q17 -3 33 -3q56 0 56 64v553h101v-561q0 -70 -35 -108t-102 -38q-29 0 -53 5z" />
<glyph unicode="&#x459;" horiz-adv-x="809" d="M677 160q0 32 -21 53t-53 21h-121v-148h121q32 0 53 21t21 53zM33 0h-28v91h17q69 0 69 127v282h391v-180h126q75 0 122.5 -45t47.5 -115t-47.5 -115t-122.5 -45h-227v409h-189v-191q0 -32 -1.5 -53.5t-10 -56t-24.5 -55.5t-47.5 -37t-75.5 -16z" />
<glyph unicode="&#x45a;" horiz-adv-x="818" d="M686 160q0 32 -21 53t-53 21h-121v-148h121q32 0 53 21t21 53zM617 0h-227v230h-221v-230h-101v500h101v-180h221v180h101v-180h126q75 0 122.5 -45t47.5 -115t-47.5 -115t-122.5 -45z" />
<glyph unicode="&#x45b;" horiz-adv-x="592" d="M189 0h-101v573h-51v68h51v59h101v-59h145v-68h-145v-147q52 86 159 86q181 0 181 -212v-300h-101v297q0 64 -23.5 93.5t-77.5 29.5q-62 0 -100 -40.5t-38 -111.5v-268z" />
<glyph unicode="&#x45c;" horiz-adv-x="525" d="M456 715l-123 -142h-77l83 142h117zM169 500v-242l214 242h122l-223 -250l238 -250h-127l-224 236v-236h-101v500h101z" />
<glyph unicode="&#x45d;" horiz-adv-x="604" d="M140 715h117l83 -142h-77zM349 500h187v-500h-101v475h-2l-178 -475h-187v500h101v-475h2z" />
<glyph unicode="&#x45e;" horiz-adv-x="530" d="M107 716h73q0 -35 23 -57t62 -22t62 22t23 57h73q0 -64 -43 -104.5t-115 -40.5t-115 40.5t-43 104.5zM518 500l-216 -695h-104l60 195h-86l-160 500h105l147 -475h2l147 475h105z" />
<glyph unicode="&#x45f;" horiz-adv-x="577" d="M408 91v409h101v-500h-171v-140h-99v140h-171v500h101v-409h239z" />
<glyph unicode="&#x462;" horiz-adv-x="648" d="M215 95h166q56 0 92.5 36.5t36.5 92.5t-36.5 92.5t-92.5 36.5h-166v-258zM384 0h-274v571h-93v72h93v57h105v-57h180v-72h-180v-123h169q100 0 165.5 -63.5t65.5 -160.5t-65.5 -160.5t-165.5 -63.5z" />
<glyph unicode="&#x463;" horiz-adv-x="533" d="M401 164q0 34 -22 56t-56 22h-127v-156h127q34 0 56 22t22 56zM328 0h-233v475h-82v68h82v157h101v-157h145v-68h-145v-147h132q77 0 125.5 -46t48.5 -118t-48.5 -118t-125.5 -46z" />
<glyph unicode="&#x48a;" horiz-adv-x="745" d="M206 916h65q0 -39 24.5 -63t65.5 -24t65.5 24t24.5 63h65q0 -64 -42 -104.5t-113 -40.5t-113 40.5t-42 104.5zM520 700h118v-604h90l-81 -236h-100l48 140h-62v532h-2l-330 -532h-118v700h105v-532h2z" />
<glyph unicode="&#x48b;" horiz-adv-x="633" d="M144 716h73q0 -35 23 -57t62 -22t62 22t23 57h73q0 -64 -43 -104.5t-115 -40.5t-115 40.5t-43 104.5zM349 500h187v-409h88l-79 -231h-96l48 140h-62v475h-2l-178 -475h-187v500h101v-475h2z" />
<glyph unicode="&#x48c;" horiz-adv-x="648" d="M215 95h166q56 0 92.5 36.5t36.5 92.5t-36.5 92.5t-92.5 36.5h-166v-258zM384 0h-274v571h-93v72h93v57h105v-57h180v-72h-180v-123h169q100 0 165.5 -63.5t65.5 -160.5t-65.5 -160.5t-165.5 -63.5z" />
<glyph unicode="&#x48d;" horiz-adv-x="533" d="M401 164q0 34 -22 56t-56 22h-127v-156h127q34 0 56 22t22 56zM328 0h-233v475h-82v68h82v157h101v-157h145v-68h-145v-147h132q77 0 125.5 -46t48.5 -118t-48.5 -118t-125.5 -46z" />
<glyph unicode="&#x48e;" horiz-adv-x="641" d="M365 605h-177v-276h177q23 0 42 6l-63 63l47 47l75 -75q37 39 37 97q0 60 -39 99t-99 39zM368 234h-180v-234h-105v700h285q104 0 172 -66t68 -167q0 -102 -70 -169l70 -70l-47 -47l-79 79q-50 -26 -114 -26z" />
<glyph unicode="&#x48f;" horiz-adv-x="609" d="M169 250q0 -72 37.5 -121.5t112.5 -49.5q33 0 61 11l-64 64l44 44l70 -70q39 46 39 122q0 72 -37.5 121.5t-112.5 49.5t-112.5 -49.5t-37.5 -121.5zM503 55l67 -67l-44 -44l-72 72q-48 -28 -117 -28q-107 0 -168 78v-261h-101v695h101v-66q61 78 168 78q62 0 108.5 -23 t73 -62t39 -83.5t12.5 -93.5q0 -122 -67 -195z" />
<glyph unicode="&#x490;" horiz-adv-x="555" d="M188 0h-105v700h355v130h105v-226h-355v-604z" />
<glyph unicode="&#x491;" horiz-adv-x="419" d="M408 610v-201h-239v-409h-101v500h241v110h99z" />
<glyph unicode="&#x492;" horiz-adv-x="582" d="M215 0h-105v314h-93v72h93v314h460v-96h-355v-218h180v-72h-180v-314z" />
<glyph unicode="&#x493;" horiz-adv-x="446" d="M435 500v-91h-239v-133h145v-68h-145v-208h-101v208h-82v68h82v224h340z" />
<glyph unicode="&#x494;" horiz-adv-x="631" d="M188 0h-105v700h460v-96h-355v-217q79 24 149 24q129 0 195 -82t66 -212q0 -134 -72.5 -218.5t-211.5 -84.5v94q88 0 133.5 57t45.5 152q0 90 -44 144.5t-134 54.5q-62 0 -127 -22v-294z" />
<glyph unicode="&#x495;" horiz-adv-x="486" d="M169 0h-101v500h340v-90h-239v-142q55 18 103 18q93 0 142 -61.5t49 -154.5q0 -108 -54.5 -172t-158.5 -64v88q56 1 84 40t28 107q0 57 -28.5 92.5t-85.5 35.5q-40 0 -79 -15v-182z" />
<glyph unicode="&#x496;" horiz-adv-x="937" d="M494 700v-340l254 340h123l-261 -350l200 -254h127v-236h-105v140h-72l-266 338v-338h-105v338l-266 -338h-126l276 350l-261 350h123l254 -340v340h105z" />
<glyph unicode="&#x497;" horiz-adv-x="780" d="M416 500v-241l179 241h116l-189 -250l130 -159h128v-231h-99v140h-75l-190 237v-237h-101v237l-190 -237h-120l204 250l-189 250h116l179 -241v241h101z" />
<glyph unicode="&#x498;" horiz-adv-x="614" d="M307 306h-71v91h68q63 0 103.5 25.5t40.5 81.5q0 57 -41 86.5t-103 29.5q-60 0 -99.5 -31t-45.5 -91h-105q7 105 77.5 159.5t172.5 54.5q105 0 177 -52t72 -154t-90 -151q113 -48 113 -160q0 -89 -60.5 -140.5t-155.5 -63.5v-131h-105v131q-91 13 -151 66.5t-66 145.5 h105q6 -60 51.5 -91.5t112.5 -31.5q68 0 116 29.5t48 87.5q0 56 -47 82.5t-117 26.5z" />
<glyph unicode="&#x499;" horiz-adv-x="494" d="M247 213h-46v80h44q40 0 67.5 16.5t27.5 52.5t-27.5 52.5t-67.5 16.5q-41 0 -67.5 -19.5t-30.5 -58.5h-99q6 78 61.5 118.5t138.5 40.5q80 0 136.5 -37.5t56.5 -109.5q0 -75 -65 -110q80 -36 80 -116q0 -62 -43.5 -99t-111.5 -48v-132h-99v132q-70 11 -115 51t-49 106 h101q4 -39 34 -59.5t74 -20.5q45 0 76.5 18t31.5 54t-31.5 54t-76.5 18z" />
<glyph unicode="&#x49a;" horiz-adv-x="673" d="M188 700v-340l296 340h131l-305 -350l232 -254h131v-236h-105v140h-72l-308 338v-338h-105v700h105z" />
<glyph unicode="&#x49b;" horiz-adv-x="567" d="M169 700v-442l214 242h122l-223 -250l151 -159h134v-231h-99v140h-75l-224 236v-236h-101v700h101z" />
<glyph unicode="&#x49c;" horiz-adv-x="670" d="M83 0v700h105v-308h58v132h66v-132h41l188 308h117l-215 -350l230 -350h-120l-199 306h-42v-132h-66v132h-58v-306h-105z" />
<glyph unicode="&#x49d;" horiz-adv-x="568" d="M68 0v500h101v-211h48v97h60v-97h33l130 211h108l-154 -250l169 -250h-113l-140 209h-33v-97h-60v97h-48v-209h-101z" />
<glyph unicode="&#x49e;" horiz-adv-x="654" d="M215 571v-211l296 340h131l-305 -350l320 -350h-134l-308 338v-338h-105v571h-93v72h93v57h105v-57h115v-72h-115z" />
<glyph unicode="&#x49f;" horiz-adv-x="552" d="M196 0h-101v573h-82v68h82v59h101v-59h145v-68h-145v-315l214 242h122l-223 -250l238 -250h-127l-224 236v-236z" />
<glyph unicode="&#x4a0;" horiz-adv-x="881" d="M442 0h-105v604h-325v96h430v-340l296 340h131l-305 -350l320 -350h-134l-308 338v-338z" />
<glyph unicode="&#x4a1;" horiz-adv-x="687" d="M331 236v-236h-101v409h-219v91h320v-242l214 242h122l-223 -250l238 -250h-127z" />
<glyph unicode="&#x4a2;" horiz-adv-x="726" d="M83 0v700h105v-296h340v296h105v-604h72v-236h-105v140h-72v308h-340v-308h-105z" />
<glyph unicode="&#x4a3;" horiz-adv-x="603" d="M483 0h-75v205h-239v-205h-101v500h101v-204h239v204h101v-409h73v-231h-99v140z" />
<glyph unicode="&#x4a4;" horiz-adv-x="947" d="M610 0h-105v308h-317v-308h-105v700h105v-296h317v296h430v-96h-325v-604z" />
<glyph unicode="&#x4a5;" horiz-adv-x="721" d="M491 0h-101v205h-221v-205h-101v500h101v-204h221v204h320v-91h-219v-409z" />
<glyph unicode="&#x4a6;" horiz-adv-x="1076" d="M83 0v700h550v-313q79 24 149 24q129 0 195 -82t66 -212q0 -134 -72.5 -218.5t-211.5 -84.5v94q88 0 133.5 57t45.5 152q0 90 -44 144.5t-134 54.5q-62 0 -127 -22v-294h-105v604h-340v-604h-105z" />
<glyph unicode="&#x4a7;" horiz-adv-x="826" d="M509 0h-101v409h-239v-409h-101v500h441v-232q55 18 103 18q93 0 142 -61.5t49 -154.5q0 -108 -54.5 -172t-158.5 -64v88q56 1 84 40t28 107q0 57 -28.5 92.5t-85.5 35.5q-40 0 -79 -15v-182z" />
<glyph unicode="&#x4aa;" horiz-adv-x="715" d="M570 259h106q-17 -110 -79 -182t-174 -86v-131h-105v131q-138 18 -208.5 120t-70.5 239q0 71 19.5 134t58.5 115t104 82.5t149 30.5q138 0 212.5 -74t93.5 -197h-106q-33 173 -200 173q-112 0 -169 -77t-57 -187t57 -187t169 -77q167 0 200 173z" />
<glyph unicode="&#x4ab;" horiz-adv-x="562" d="M420 181h103q-13 -75 -58 -125.5t-125 -63.5v-132h-99v132q-100 16 -151 89t-51 169q0 108 63.5 185t187.5 77q104 0 161 -53t72 -140h-103q-24 101 -130 101q-74 0 -112 -49.5t-38 -120.5t38 -120.5t112 -49.5q106 0 130 101z" />
<glyph unicode="&#x4ac;" horiz-adv-x="581" d="M343 604v-508h72v-236h-105v140h-72v604h-217v96h539v-96h-217z" />
<glyph unicode="&#x4ad;" horiz-adv-x="465" d="M451 500v-91h-168v-318h73v-231h-99v140h-75v409h-168v91h437z" />
<glyph unicode="&#x4ae;" horiz-adv-x="625" d="M223 275l-211 425h113l187 -395h1l187 395h113l-211 -425h-37v-275h-105v275h-37z" />
<glyph unicode="&#x4af;" horiz-adv-x="520" d="M513 500l-163 -500h-39v-195h-101v195h-40l-163 500h106l146 -475h2l146 475h106z" />
<glyph unicode="&#x4b0;" horiz-adv-x="625" d="M223 275l-211 425h113l187 -395h1l187 395h113l-211 -425h130v-58h-167v-217h-105v217h-167v58h130z" />
<glyph unicode="&#x4b1;" horiz-adv-x="520" d="M513 500l-163 -500h118v-58h-157v-137h-101v137h-157v58h117l-163 500h106l146 -475h2l146 475h106z" />
<glyph unicode="&#x4b2;" horiz-adv-x="651" d="M579 700l-170 -334l141 -270h111v-236h-105v140h-72l-177 351h-2l-177 -351h-116l191 366l-170 334h114l158 -319h2l158 319h114z" />
<glyph unicode="&#x4b3;" horiz-adv-x="560" d="M162 257l-136 243h109l119 -232h2l119 232h109l-136 -243l97 -166h115v-231h-99v140h-75l-130 246h-2l-130 -246h-112z" />
<glyph unicode="&#x4b4;" horiz-adv-x="876" d="M343 604v-508h320v604h105v-604h72v-236h-105v140h-497v604h-217v96h514v-96h-192z" />
<glyph unicode="&#x4b5;" horiz-adv-x="709" d="M426 500v-91h-143v-318h229v409h101v-409h73v-231h-99v140h-405v409h-168v91h412z" />
<glyph unicode="&#x4b6;" horiz-adv-x="686" d="M473 700h105v-604h72v-236h-105v140h-72v259q-84 -31 -163 -31q-118 0 -182.5 59.5t-64.5 174.5v238h105v-218q0 -80 32 -119t113 -39q77 0 160 34v342z" />
<glyph unicode="&#x4b7;" horiz-adv-x="574" d="M377 500h101v-409h73v-231h-99v140h-75v173q-51 -19 -130 -19q-199 0 -199 191v155h101v-150q0 -56 26 -81t81 -25q69 0 121 19v237z" />
<glyph unicode="&#x4b8;" horiz-adv-x="661" d="M473 700h105v-700h-105v259q-67 -25 -127 -29v-129h-66v128q-105 8 -161 67t-56 166v238h105v-218q0 -71 25 -109.5t87 -46.5v125h66v-125q60 4 127 32v342z" />
<glyph unicode="&#x4b9;" horiz-adv-x="546" d="M288 58h-62v97q-178 9 -178 190v155h101v-150q0 -92 77 -104v102h62v-103q47 3 89 18v237h101v-500h-101v173q-36 -13 -89 -18v-97z" />
<glyph unicode="&#x4ba;" horiz-adv-x="661" d="M188 0h-105v700h105v-266q84 31 163 31q118 0 182.5 -59.5t64.5 -174.5v-231h-105v211q0 80 -32 119t-113 39q-77 0 -160 -34v-335z" />
<glyph unicode="&#x4bb;" horiz-adv-x="572" d="M509 0h-101v297q0 64 -23.5 93.5t-77.5 29.5q-62 0 -100 -40.5t-38 -111.5v-268h-101v700h101v-274q52 86 159 86q181 0 181 -212v-300z" />
<glyph unicode="&#x4c0;" horiz-adv-x="271" d="M83 0v700h105v-700h-105z" />
<glyph unicode="&#x4c1;" horiz-adv-x="883" d="M284 916h73q0 -35 23 -57t62 -22t62 22t23 57h73q0 -64 -43 -104.5t-115 -40.5t-115 40.5t-43 104.5zM494 700v-340l254 340h123l-261 -350l276 -350h-126l-266 338v-338h-105v338l-266 -338h-126l276 350l-261 350h123l254 -340v340h105z" />
<glyph unicode="&#x4c2;" horiz-adv-x="731" d="M208 716h73q0 -35 23 -57t62 -22t62 22t23 57h73q0 -64 -43 -104.5t-115 -40.5t-115 40.5t-43 104.5zM416 500v-241l179 241h116l-189 -250l204 -250h-120l-190 237v-237h-101v237l-190 -237h-120l204 250l-189 250h116l179 -241v241h101z" />
<glyph unicode="&#x4c5;" horiz-adv-x="738" d="M40 0h-32v96h21q26 0 45.5 9.5t31 27.5t18.5 36.5t10 45.5t4 44.5t1 42.5v398h492v-604h90l-81 -236h-100l48 140h-62v604h-282v-302q0 -36 -1.5 -61t-7 -64.5t-19 -67t-35 -54.5t-57.5 -41t-84 -14z" />
<glyph unicode="&#x4c6;" horiz-adv-x="597" d="M33 0h-28v91h17q69 0 69 127v282h409v-409h88l-79 -231h-96l48 140h-62v409h-207v-191q0 -32 -1.5 -53.5t-10 -56t-24.5 -55.5t-47.5 -37t-75.5 -16z" />
<glyph unicode="&#x4c7;" horiz-adv-x="716" d="M83 0v700h105v-296h340v296h105v-761q0 -70 -35 -108t-102 -38q-32 0 -57 6v90q17 -3 33 -3q56 0 56 64v358h-340v-308h-105z" />
<glyph unicode="&#x4c8;" horiz-adv-x="577" d="M509 500v-560q0 -70 -35 -108t-102 -38q-29 0 -53 5v85q17 -3 33 -3q56 0 56 64v260h-239v-205h-101v500h101v-204h239v204h101z" />
<glyph unicode="&#x4c9;" horiz-adv-x="740" d="M83 0v700h105v-296h340v296h105v-604h90l-81 -236h-100l48 140h-62v308h-340v-308h-105z" />
<glyph unicode="&#x4ca;" horiz-adv-x="606" d="M470 0h-62v205h-239v-205h-101v500h101v-204h239v204h101v-409h88l-79 -231h-96z" />
<glyph unicode="&#x4cb;" horiz-adv-x="661" d="M473 700h105v-700h-72v-140h-105v229h72v170q-84 -31 -163 -31q-118 0 -182.5 59.5t-64.5 174.5v238h105v-218q0 -80 32 -119t113 -39q77 0 160 34v342z" />
<glyph unicode="&#x4cc;" horiz-adv-x="546" d="M377 500h101v-500h-75v-140h-99v218h73v95q-51 -19 -130 -19q-199 0 -199 191v155h101v-150q0 -56 26 -81t81 -25q69 0 121 19v237z" />
<glyph unicode="&#x4cd;" horiz-adv-x="930" d="M629 700h194v-604h90l-81 -236h-100l48 140h-62v670h-2l-175 -670h-176l-175 670h-2v-670h-105v700h194l175 -670h2z" />
<glyph unicode="&#x4ce;" horiz-adv-x="765" d="M486 500h182v-409h88l-79 -231h-96l48 140h-62v475h-2l-117 -475h-160l-117 475h-2v-475h-101v500h182l117 -475h2z" />
<glyph unicode="&#x4cf;" horiz-adv-x="237" d="M68 0v700h101v-700h-101z" />
<glyph unicode="&#x4d0;" horiz-adv-x="664" d="M331 670l-130 -408h262l-130 408h-2zM118 0h-111l233 700h184l233 -700h-111l-53 166h-322zM174 916h73q0 -35 23 -57t62 -22t62 22t23 57h73q0 -64 -43 -104.5t-115 -40.5t-115 40.5t-43 104.5z" />
<glyph unicode="&#x4d1;" horiz-adv-x="609" d="M440 250q0 72 -37.5 121.5t-112.5 49.5t-112.5 -49.5t-37.5 -121.5t37.5 -121.5t112.5 -49.5t112.5 49.5t37.5 121.5zM541 0h-101v66q-61 -78 -168 -78q-62 0 -108.5 23t-73 62t-39 83.5t-12.5 93.5t12.5 93.5t39 83.5t73 62t108.5 23q107 0 168 -78v66h101v-500z M132 716h73q0 -35 23 -57t62 -22t62 22t23 57h73q0 -64 -43 -104.5t-115 -40.5t-115 40.5t-43 104.5z" />
<glyph unicode="&#x4d2;" horiz-adv-x="664" d="M331 670l-130 -408h262l-130 408h-2zM118 0h-111l233 700h184l233 -700h-111l-53 166h-322zM183 832q0 24 16 40t40 16t40 -16t16 -40t-16 -40t-40 -16t-40 16t-16 40zM369 832q0 24 16 40t40 16t40 -16t16 -40t-16 -40t-40 -16t-40 16t-16 40z" />
<glyph unicode="&#x4d3;" horiz-adv-x="609" d="M440 250q0 72 -37.5 121.5t-112.5 49.5t-112.5 -49.5t-37.5 -121.5t37.5 -121.5t112.5 -49.5t112.5 49.5t37.5 121.5zM541 0h-101v66q-61 -78 -168 -78q-62 0 -108.5 23t-73 62t-39 83.5t-12.5 93.5t12.5 93.5t39 83.5t73 62t108.5 23q107 0 168 -78v66h101v-500z M141 632q0 24 16 40t40 16t40 -16t16 -40t-16 -40t-40 -16t-40 16t-16 40zM327 632q0 24 16 40t40 16t40 -16t16 -40t-16 -40t-40 -16t-40 16t-16 40z" />
<glyph unicode="&#x4d4;" horiz-adv-x="1026" d="M492 670l-222 -408h224v408h-2zM128 0h-121l392 700h568v-95h-368v-204h344v-92h-344v-214h380v-95h-485v166h-276z" />
<glyph unicode="&#x4d5;" horiz-adv-x="960" d="M440 250q0 72 -37.5 121.5t-112.5 49.5t-112.5 -49.5t-37.5 -121.5t37.5 -121.5t112.5 -49.5t112.5 49.5t37.5 121.5zM544 297h272q-9 59 -43 94.5t-93 35.5t-93 -35.5t-43 -94.5zM541 0h-101v66q-61 -78 -168 -78q-62 0 -108.5 23t-73 62t-39 83.5t-12.5 93.5t12.5 93.5 t39 83.5t73 62t108.5 23q107 0 168 -78v66h101v-66q51 78 154 78q109 0 167.5 -77.5t58.5 -184.5v-27h-380q7 -66 41 -107.5t98 -41.5q98 0 127 74h103q-20 -75 -75 -117.5t-142 -42.5q-111 0 -152 78v-66z" />
<glyph unicode="&#x4d6;" horiz-adv-x="615" d="M168 916h73q0 -35 23 -57t62 -22t62 22t23 57h73q0 -64 -43 -104.5t-115 -40.5t-115 40.5t-43 104.5zM188 309v-214h380v-95h-485v700h473v-95h-368v-204h344v-92h-344z" />
<glyph unicode="&#x4d7;" horiz-adv-x="560" d="M144 297h272q-10 59 -43.5 94.5t-92.5 35.5t-92.5 -35.5t-43.5 -94.5zM407 148h103q-43 -160 -230 -160q-119 0 -180 77t-61 185t61 185t180 77t180 -77t61 -185v-27h-380q6 -66 40.5 -107.5t98.5 -41.5q98 0 127 74zM122 716h73q0 -35 23 -57t62 -22t62 22t23 57h73 q0 -64 -43 -104.5t-115 -40.5t-115 40.5t-43 104.5z" />
<glyph unicode="&#x4d8;" horiz-adv-x="722" d="M570 274h-420q28 -189 202 -189q91 0 146 52.5t72 136.5zM683 350q0 -71 -19.5 -134t-58.5 -115t-104 -82.5t-149 -30.5t-146.5 29t-97.5 80.5t-52 114t-17 138.5v4h539q-1 109 -58 184.5t-168 75.5q-159 0 -197 -159h-107q22 117 96.5 187t207.5 70q84 0 149 -30.5 t104 -82.5t58.5 -115t19.5 -134z" />
<glyph unicode="&#x4d9;" horiz-adv-x="560" d="M416 203h-272q10 -59 43.5 -94.5t92.5 -35.5t92.5 35.5t43.5 94.5zM153 352h-103q43 160 230 160q119 0 180 -77t61 -185t-61 -185t-180 -77t-180 77t-61 185v27h380q-6 66 -40.5 107.5t-98.5 41.5q-98 0 -127 -74z" />
<glyph unicode="&#x4da;" horiz-adv-x="722" d="M570 274h-420q28 -189 202 -189q91 0 146 52.5t72 136.5zM683 350q0 -71 -19.5 -134t-58.5 -115t-104 -82.5t-149 -30.5t-146.5 29t-97.5 80.5t-52 114t-17 138.5v4h539q-1 109 -58 184.5t-168 75.5q-159 0 -197 -159h-107q22 117 96.5 187t207.5 70q84 0 149 -30.5 t104 -82.5t58.5 -115t19.5 -134zM203 832q0 24 16 40t40 16t40 -16t16 -40t-16 -40t-40 -16t-40 16t-16 40zM389 832q0 24 16 40t40 16t40 -16t16 -40t-16 -40t-40 -16t-40 16t-16 40z" />
<glyph unicode="&#x4db;" horiz-adv-x="560" d="M416 203h-272q10 -59 43.5 -94.5t92.5 -35.5t92.5 35.5t43.5 94.5zM153 352h-103q43 160 230 160q119 0 180 -77t61 -185t-61 -185t-180 -77t-180 77t-61 185v27h380q-6 66 -40.5 107.5t-98.5 41.5q-98 0 -127 -74zM131 632q0 24 16 40t40 16t40 -16t16 -40t-16 -40 t-40 -16t-40 16t-16 40zM317 632q0 24 16 40t40 16t40 -16t16 -40t-16 -40t-40 -16t-40 16t-16 40z" />
<glyph unicode="&#x4dc;" horiz-adv-x="883" d="M293 832q0 24 16 40t40 16t40 -16t16 -40t-16 -40t-40 -16t-40 16t-16 40zM479 832q0 24 16 40t40 16t40 -16t16 -40t-16 -40t-40 -16t-40 16t-16 40zM494 700v-340l254 340h123l-261 -350l276 -350h-126l-266 338v-338h-105v338l-266 -338h-126l276 350l-261 350h123 l254 -340v340h105z" />
<glyph unicode="&#x4dd;" horiz-adv-x="731" d="M217 632q0 24 16 40t40 16t40 -16t16 -40t-16 -40t-40 -16t-40 16t-16 40zM403 632q0 24 16 40t40 16t40 -16t16 -40t-16 -40t-40 -16t-40 16t-16 40zM416 500v-241l179 241h116l-189 -250l204 -250h-120l-190 237v-237h-101v237l-190 -237h-120l204 250l-189 250h116 l179 -241v241h101z" />
<glyph unicode="&#x4de;" horiz-adv-x="614" d="M155 832q0 24 16 40t40 16t40 -16t16 -40t-16 -40t-40 -16t-40 16t-16 40zM341 832q0 24 16 40t40 16t40 -16t16 -40t-16 -40t-40 -16t-40 16t-16 40zM307 306h-71v91h68q63 0 103.5 25.5t40.5 81.5q0 57 -41 86.5t-103 29.5q-60 0 -99.5 -31t-45.5 -91h-105 q7 105 77.5 159.5t172.5 54.5q105 0 177 -52t72 -154t-90 -151q113 -48 113 -160q0 -102 -78.5 -154.5t-190.5 -52.5q-109 0 -185.5 55t-83.5 160h105q6 -60 51.5 -91.5t112.5 -31.5q68 0 116 29.5t48 87.5q0 56 -47 82.5t-117 26.5z" />
<glyph unicode="&#x4df;" horiz-adv-x="494" d="M99 632q0 24 16 40t40 16t40 -16t16 -40t-16 -40t-40 -16t-40 16t-16 40zM285 632q0 24 16 40t40 16t40 -16t16 -40t-16 -40t-40 -16t-40 16t-16 40zM247 213h-46v80h44q40 0 67.5 16.5t27.5 52.5t-27.5 52.5t-67.5 16.5q-41 0 -67.5 -19.5t-30.5 -58.5h-99 q6 78 61.5 118.5t138.5 40.5q80 0 136.5 -37.5t56.5 -109.5q0 -75 -65 -110q80 -36 80 -116q0 -74 -60.5 -112.5t-144.5 -38.5q-87 0 -147.5 41.5t-65.5 119.5h101q4 -39 34 -59.5t74 -20.5q45 0 76.5 18t31.5 54t-31.5 54t-76.5 18z" />
<glyph unicode="&#x4e2;" horiz-adv-x="751" d="M518 782h-284v71h284v-71zM472 700h196v-700h-105v670h-2l-282 -670h-196v700h105v-670h2z" />
<glyph unicode="&#x4e3;" horiz-adv-x="604" d="M444 582h-284v71h284v-71zM349 500h187v-500h-101v475h-2l-178 -475h-187v500h101v-475h2z" />
<glyph unicode="&#x4e4;" horiz-adv-x="751" d="M227 832q0 24 16 40t40 16t40 -16t16 -40t-16 -40t-40 -16t-40 16t-16 40zM413 832q0 24 16 40t40 16t40 -16t16 -40t-16 -40t-40 -16t-40 16t-16 40zM472 700h196v-700h-105v670h-2l-282 -670h-196v700h105v-670h2z" />
<glyph unicode="&#x4e5;" horiz-adv-x="604" d="M153 632q0 24 16 40t40 16t40 -16t16 -40t-16 -40t-40 -16t-40 16t-16 40zM339 632q0 24 16 40t40 16t40 -16t16 -40t-16 -40t-40 -16t-40 16t-16 40zM349 500h187v-500h-101v475h-2l-178 -475h-187v500h101v-475h2z" />
<glyph unicode="&#x4e6;" horiz-adv-x="740" d="M221 832q0 24 16 40t40 16t40 -16t16 -40t-16 -40t-40 -16t-40 16t-16 40zM407 832q0 24 16 40t40 16t40 -16t16 -40t-16 -40t-40 -16t-40 16t-16 40zM39 350q0 71 19.5 134t58.5 115t104 82.5t149 30.5t149 -30.5t104 -82.5t58.5 -115t19.5 -134t-19.5 -134t-58.5 -115 t-104 -82.5t-149 -30.5t-149 30.5t-104 82.5t-58.5 115t-19.5 134zM596 350q0 110 -57 187t-169 77t-169 -77t-57 -187t57 -187t169 -77t169 77t57 187z" />
<glyph unicode="&#x4e7;" horiz-adv-x="580" d="M141 632q0 24 16 40t40 16t40 -16t16 -40t-16 -40t-40 -16t-40 16t-16 40zM327 632q0 24 16 40t40 16t40 -16t16 -40t-16 -40t-40 -16t-40 16t-16 40zM39 250q0 108 63.5 185t187.5 77t187.5 -77t63.5 -185t-63.5 -185t-187.5 -77t-187.5 77t-63.5 185zM440 250 q0 71 -38 120.5t-112 49.5t-112 -49.5t-38 -120.5t38 -120.5t112 -49.5t112 49.5t38 120.5z" />
<glyph unicode="&#x4e8;" horiz-adv-x="740" d="M594 314h-448q9 -99 65 -163.5t159 -64.5t159 64.5t65 163.5zM146 386h448q-9 99 -65 163.5t-159 64.5t-159 -64.5t-65 -163.5zM39 350q0 71 19.5 134t58.5 115t104 82.5t149 30.5t149 -30.5t104 -82.5t58.5 -115t19.5 -134t-19.5 -134t-58.5 -115t-104 -82.5t-149 -30.5 t-149 30.5t-104 82.5t-58.5 115t-19.5 134z" />
<glyph unicode="&#x4e9;" horiz-adv-x="580" d="M439 216h-298q8 -60 45.5 -98.5t103.5 -38.5t103.5 38.5t45.5 98.5zM141 284h298q-8 60 -45.5 98.5t-103.5 38.5t-103.5 -38.5t-45.5 -98.5zM39 250q0 108 63.5 185t187.5 77t187.5 -77t63.5 -185t-63.5 -185t-187.5 -77t-187.5 77t-63.5 185z" />
<glyph unicode="&#x4ea;" horiz-adv-x="740" d="M594 314h-448q9 -99 65 -163.5t159 -64.5t159 64.5t65 163.5zM146 386h448q-9 99 -65 163.5t-159 64.5t-159 -64.5t-65 -163.5zM39 350q0 71 19.5 134t58.5 115t104 82.5t149 30.5t149 -30.5t104 -82.5t58.5 -115t19.5 -134t-19.5 -134t-58.5 -115t-104 -82.5t-149 -30.5 t-149 30.5t-104 82.5t-58.5 115t-19.5 134zM221 832q0 24 16 40t40 16t40 -16t16 -40t-16 -40t-40 -16t-40 16t-16 40zM407 832q0 24 16 40t40 16t40 -16t16 -40t-16 -40t-40 -16t-40 16t-16 40z" />
<glyph unicode="&#x4eb;" horiz-adv-x="580" d="M439 216h-298q8 -60 45.5 -98.5t103.5 -38.5t103.5 38.5t45.5 98.5zM141 284h298q-8 60 -45.5 98.5t-103.5 38.5t-103.5 -38.5t-45.5 -98.5zM39 250q0 108 63.5 185t187.5 77t187.5 -77t63.5 -185t-63.5 -185t-187.5 -77t-187.5 77t-63.5 185zM141 632q0 24 16 40t40 16 t40 -16t16 -40t-16 -40t-40 -16t-40 16t-16 40zM327 632q0 24 16 40t40 16t40 -16t16 -40t-16 -40t-40 -16t-40 16t-16 40z" />
<glyph unicode="&#x4ec;" horiz-adv-x="713" d="M194 832q0 24 16 40t40 16t40 -16t16 -40t-16 -40t-40 -16t-40 16t-16 40zM380 832q0 24 16 40t40 16t40 -16t16 -40t-16 -40t-40 -16t-40 16t-16 40zM343 85q100 0 156 61.5t67 156.5h-301v94h301q-11 95 -67 156.5t-156 61.5q-161 0 -197 -160h-107q20 116 96 186.5 t208 70.5q84 0 149 -30.5t104 -82.5t58.5 -115t19.5 -134t-19.5 -134t-58.5 -115t-104 -82.5t-149 -30.5q-132 0 -208 70.5t-96 186.5h107q36 -160 197 -160z" />
<glyph unicode="&#x4ed;" horiz-adv-x="561" d="M122 632q0 24 16 40t40 16t40 -16t16 -40t-16 -40t-40 -16t-40 16t-16 40zM308 632q0 24 16 40t40 16t40 -16t16 -40t-16 -40t-40 -16t-40 16t-16 40zM271 -12q-102 0 -159.5 52t-72.5 138h103q24 -101 129 -101q63 0 100 37t47 95h-201v82h201q-10 58 -47 95t-100 37 q-105 0 -129 -101h-103q15 86 72.5 138t159.5 52q124 0 187.5 -77t63.5 -185t-63.5 -185t-187.5 -77z" />
<glyph unicode="&#x4ee;" horiz-adv-x="599" d="M444 782h-284v71h284v-71zM283 0h-110l85 195l-241 505h112l182 -387l166 387h110z" />
<glyph unicode="&#x4ef;" horiz-adv-x="530" d="M407 582h-284v71h284v-71zM518 500l-216 -695h-104l60 195h-86l-160 500h105l147 -475h2l147 475h105z" />
<glyph unicode="&#x4f0;" horiz-adv-x="599" d="M153 832q0 24 16 40t40 16t40 -16t16 -40t-16 -40t-40 -16t-40 16t-16 40zM339 832q0 24 16 40t40 16t40 -16t16 -40t-16 -40t-40 -16t-40 16t-16 40zM283 0h-110l85 195l-241 505h112l182 -387l166 387h110z" />
<glyph unicode="&#x4f1;" horiz-adv-x="530" d="M116 632q0 24 16 40t40 16t40 -16t16 -40t-16 -40t-40 -16t-40 16t-16 40zM302 632q0 24 16 40t40 16t40 -16t16 -40t-16 -40t-40 -16t-40 16t-16 40zM518 500l-216 -695h-104l60 195h-86l-160 500h105l147 -475h2l147 475h105z" />
<glyph unicode="&#x4f2;" horiz-adv-x="599" d="M363 915l-111 -142h-71l71 142h111zM534 915l-111 -142h-71l71 142h111zM283 0h-110l85 195l-241 505h112l182 -387l166 387h110z" />
<glyph unicode="&#x4f3;" horiz-adv-x="530" d="M326 715l-111 -142h-71l71 142h111zM497 715l-111 -142h-71l71 142h111zM518 500l-216 -695h-104l60 195h-86l-160 500h105l147 -475h2l147 475h105z" />
<glyph unicode="&#x4f4;" horiz-adv-x="661" d="M172 832q0 24 16 40t40 16t40 -16t16 -40t-16 -40t-40 -16t-40 16t-16 40zM358 832q0 24 16 40t40 16t40 -16t16 -40t-16 -40t-40 -16t-40 16t-16 40zM473 700h105v-700h-105v259q-84 -31 -163 -31q-118 0 -182.5 59.5t-64.5 174.5v238h105v-218q0 -80 32 -119t113 -39 q77 0 160 34v342z" />
<glyph unicode="&#x4f5;" horiz-adv-x="546" d="M114 632q0 24 16 40t40 16t40 -16t16 -40t-16 -40t-40 -16t-40 16t-16 40zM300 632q0 24 16 40t40 16t40 -16t16 -40t-16 -40t-40 -16t-40 16t-16 40zM377 500h101v-500h-101v173q-51 -19 -130 -19q-199 0 -199 191v155h101v-150q0 -56 26 -81t81 -25q69 0 121 19v237z " />
<glyph unicode="&#x4f6;" horiz-adv-x="555" d="M155 -140v140h-72v700h460v-96h-355v-508h72v-236h-105z" />
<glyph unicode="&#x4f7;" horiz-adv-x="419" d="M408 500v-91h-239v-318h73v-231h-99v140h-75v500h340z" />
<glyph unicode="&#x4f8;" horiz-adv-x="881" d="M188 95h177q60 0 99 39t39 99t-39 99t-99 39h-177v-276zM188 466h180q104 0 172 -66t68 -167t-68 -167t-172 -66h-285v700h105v-234zM798 0h-105v700h105v-700zM292 832q0 24 16 40t40 16t40 -16t16 -40t-16 -40t-40 -16t-40 16t-16 40zM478 832q0 24 16 40t40 16t40 -16 t16 -40t-16 -40t-40 -16t-40 16t-16 40z" />
<glyph unicode="&#x4f9;" horiz-adv-x="719" d="M374 164q0 34 -22 56t-56 22h-127v-156h127q34 0 56 22t22 56zM301 0h-233v500h101v-172h132q77 0 125.5 -46t48.5 -118t-48.5 -118t-125.5 -46zM651 500v-500h-101v500h101zM211 632q0 24 16 40t40 16t40 -16t16 -40t-16 -40t-40 -16t-40 16t-16 40zM397 632q0 24 16 40 t40 16t40 -16t16 -40t-16 -40t-40 -16t-40 16t-16 40z" />
<glyph unicode="&#x4fa;" horiz-adv-x="582" d="M110 700h460v-96h-355v-218h180v-72h-180v-375q0 -70 -35 -108t-102 -38q-32 0 -57 6v90q17 -3 33 -3q56 0 56 64v364h-93v72h93v314z" />
<glyph unicode="&#x4fb;" horiz-adv-x="446" d="M435 500v-91h-239v-133h145v-68h-145v-268q0 -70 -35 -108t-102 -38q-29 0 -53 5v85q16 -3 33 -3q56 0 56 64v263h-82v68h82v224h340z" />
<glyph unicode="&#x4fc;" horiz-adv-x="661" d="M579 700l-170 -334l141 -270h111v-157q0 -70 -35 -108t-102 -38q-32 0 -57 6v90q17 -3 33 -3q56 0 56 64v50h-72l-177 351h-2l-177 -351h-116l191 366l-170 334h114l158 -319h2l158 319h114z" />
<glyph unicode="&#x4fd;" horiz-adv-x="560" d="M162 257l-136 243h109l119 -232h2l119 232h109l-136 -243l97 -166h115v-151q0 -71 -34 -108.5t-101 -37.5q-29 0 -53 5v85q16 -3 33 -3q56 0 56 64v55h-75l-130 246h-2l-130 -246h-112z" />
<glyph unicode="&#x4fe;" horiz-adv-x="612" d="M427 402h99v-72h-98l172 -330h-116l-177 351h-2l-177 -351h-116l172 330h-98v72h99l-152 298h114l158 -319h2l158 319h114z" />
<glyph unicode="&#x4ff;" horiz-adv-x="510" d="M364 286h99v-58h-98l133 -228h-112l-130 246h-2l-130 -246h-112l133 228h-98v58h99l-120 214h109l119 -232h2l119 232h109z" />
<glyph unicode="&#x510;" horiz-adv-x="614" d="M307 306q-70 0 -117 -26.5t-47 -82.5q0 -58 48 -87.5t116 -29.5q67 0 112.5 31.5t51.5 91.5h105q-7 -105 -83.5 -160t-185.5 -55q-112 0 -190.5 52.5t-78.5 154.5q0 112 113 160q-90 48 -90 151q0 102 72 154t177 52q102 0 172.5 -54.5t77.5 -159.5h-105q-6 60 -45.5 91 t-99.5 31q-62 0 -103 -29.5t-41 -86.5q0 -56 40.5 -81.5t103.5 -25.5h68v-91h-71z" />
<glyph unicode="&#x511;" horiz-adv-x="494" d="M247 213q-45 0 -76.5 -18t-31.5 -54t31.5 -54t76.5 -18q44 0 74 20.5t34 59.5h101q-5 -78 -65.5 -119.5t-147.5 -41.5q-84 0 -144.5 38.5t-60.5 112.5q0 80 80 116q-65 35 -65 110q0 72 56.5 109.5t136.5 37.5q83 0 138.5 -40.5t61.5 -118.5h-99q-4 39 -30.5 58.5 t-67.5 19.5q-40 0 -67.5 -16.5t-27.5 -52.5t27.5 -52.5t67.5 -16.5h44v-80h-46z" />
<glyph unicode="&#x512;" horiz-adv-x="714" d="M40 0h-32v96h21q26 0 45.5 9.5t31 27.5t18.5 36.5t10 45.5t4 44.5t1 42.5v398h492v-761q0 -70 -35 -108t-102 -38q-32 0 -57 6v90q17 -3 33 -3q56 0 56 64v654h-282v-302q0 -36 -1.5 -61t-7 -64.5t-19 -67t-35 -54.5t-57.5 -41t-84 -14z" />
<glyph unicode="&#x513;" horiz-adv-x="568" d="M33 0h-28v91h17q69 0 69 127v282h409v-560q0 -70 -35 -108t-102 -38q-29 0 -53 5v85q16 -3 33 -3q56 0 56 64v464h-207v-191q0 -32 -1.5 -53.5t-10 -56t-24.5 -55.5t-47.5 -37t-75.5 -16z" />
<glyph unicode="&#x51c;" horiz-adv-x="982" d="M127 700l146 -670h2l129 670h174l129 -670h2l146 670h108l-162 -700h-180l-129 670h-2l-129 -670h-180l-162 700h108z" />
<glyph unicode="&#x51d;" horiz-adv-x="794" d="M125 500l104 -475h2l84 475h164l84 -475h2l104 475h103l-120 -500h-170l-84 475h-2l-84 -475h-170l-120 500h103z" />
<glyph unicode="&#x524;" horiz-adv-x="741" d="M83 0v700h550v-604h72v-236h-105v140h-72v604h-340v-604h-105z" />
<glyph unicode="&#x525;" horiz-adv-x="605" d="M483 0h-75v409h-239v-409h-101v500h441v-409h73v-231h-99v140z" />
<glyph unicode="&#x526;" horiz-adv-x="686" d="M188 0h-105v700h105v-266q84 31 163 31q118 0 182.5 -59.5t64.5 -174.5v-135h72v-236h-105v140h-72v211q0 80 -32 119t-113 39q-77 0 -160 -34v-335z" />
<glyph unicode="&#x527;" horiz-adv-x="600" d="M483 0h-75v297q0 64 -23.5 93.5t-77.5 29.5q-62 0 -100 -40.5t-38 -111.5v-268h-101v700h101v-274q52 86 159 86q181 0 181 -212v-209h73v-231h-99v140z" />
<glyph unicode="&#x52e;" horiz-adv-x="739" d="M40 0h-32v96h21q26 0 45.5 9.5t31 27.5t18.5 36.5t10 45.5t4 44.5t1 42.5v398h492v-604h72v-236h-105v140h-72v604h-282v-302q0 -36 -1.5 -61t-7 -64.5t-19 -67t-35 -54.5t-57.5 -41t-84 -14z" />
<glyph unicode="&#x52f;" horiz-adv-x="596" d="M33 0h-28v91h17q69 0 69 127v282h409v-409h73v-231h-99v140h-75v409h-207v-191q0 -32 -1.5 -53.5t-10 -56t-24.5 -55.5t-47.5 -37t-75.5 -16z" />
<glyph unicode="&#xe3f;" horiz-adv-x="676" d="M305 322h-117v-230h117v230zM371 322v-230h6q66 0 108.5 27t42.5 88t-42.5 88t-108.5 27h-6zM188 608v-204h117v204h-117zM371 608v-204q122 6 122 102t-122 102zM305 0h-222v700h222v100h66v-100q100 -3 163.5 -46t63.5 -141q0 -94 -83 -143q118 -50 118 -170 q0 -55 -21.5 -95.5t-59 -62.5t-80.5 -32t-95 -10h-6v-100h-66v100z" />
<glyph unicode="&#x1e02;" horiz-adv-x="676" d="M377 322h-189v-230h189q66 0 108.5 27t42.5 88t-42.5 88t-108.5 27zM360 608h-172v-204h172q58 0 95.5 24t37.5 78t-37.5 78t-95.5 24zM377 0h-294v700h277q48 0 88.5 -9t75 -29.5t54.5 -58t20 -90.5q0 -94 -83 -143q118 -50 118 -170q0 -55 -21.5 -95.5t-59 -62.5 t-80.5 -32t-95 -10zM281 833q0 24 16.5 40.5t40.5 16.5t40.5 -16.5t16.5 -40.5t-16.5 -40.5t-40.5 -16.5t-40.5 16.5t-16.5 40.5z" />
<glyph unicode="&#x1e03;" horiz-adv-x="609" d="M169 250q0 -72 37.5 -121.5t112.5 -49.5t112.5 49.5t37.5 121.5t-37.5 121.5t-112.5 49.5t-112.5 -49.5t-37.5 -121.5zM169 66v-66h-101v700h101v-266q61 78 168 78q62 0 108.5 -23t73 -62t39 -83.5t12.5 -93.5t-12.5 -93.5t-39 -83.5t-73 -62t-108.5 -23q-107 0 -168 78 zM280 625q0 24 16.5 40.5t40.5 16.5t40.5 -16.5t16.5 -40.5t-16.5 -40.5t-40.5 -16.5t-40.5 16.5t-16.5 40.5z" />
<glyph unicode="&#x1e04;" horiz-adv-x="676" d="M377 322h-189v-230h189q66 0 108.5 27t42.5 88t-42.5 88t-108.5 27zM360 608h-172v-204h172q58 0 95.5 24t37.5 78t-37.5 78t-95.5 24zM377 0h-294v700h277q48 0 88.5 -9t75 -29.5t54.5 -58t20 -90.5q0 -94 -83 -143q118 -50 118 -170q0 -55 -21.5 -95.5t-59 -62.5 t-80.5 -32t-95 -10zM395 -133q0 -24 -16.5 -40.5t-40.5 -16.5t-40.5 16.5t-16.5 40.5t16.5 40.5t40.5 16.5t40.5 -16.5t16.5 -40.5z" />
<glyph unicode="&#x1e05;" horiz-adv-x="609" d="M169 250q0 -72 37.5 -121.5t112.5 -49.5t112.5 49.5t37.5 121.5t-37.5 121.5t-112.5 49.5t-112.5 -49.5t-37.5 -121.5zM169 66v-66h-101v700h101v-266q61 78 168 78q62 0 108.5 -23t73 -62t39 -83.5t12.5 -93.5t-12.5 -93.5t-39 -83.5t-73 -62t-108.5 -23q-107 0 -168 78 zM376 -133q0 -24 -16.5 -40.5t-40.5 -16.5t-40.5 16.5t-16.5 40.5t16.5 40.5t40.5 16.5t40.5 -16.5t16.5 -40.5z" />
<glyph unicode="&#x1e06;" horiz-adv-x="676" d="M377 322h-189v-230h189q66 0 108.5 27t42.5 88t-42.5 88t-108.5 27zM360 608h-172v-204h172q58 0 95.5 24t37.5 78t-37.5 78t-95.5 24zM377 0h-294v700h277q48 0 88.5 -9t75 -29.5t54.5 -58t20 -90.5q0 -94 -83 -143q118 -50 118 -170q0 -55 -21.5 -95.5t-59 -62.5 t-80.5 -32t-95 -10zM480 -91v-71h-284v71h284z" />
<glyph unicode="&#x1e07;" horiz-adv-x="609" d="M169 250q0 -72 37.5 -121.5t112.5 -49.5t112.5 49.5t37.5 121.5t-37.5 121.5t-112.5 49.5t-112.5 -49.5t-37.5 -121.5zM169 66v-66h-101v700h101v-266q61 78 168 78q62 0 108.5 -23t73 -62t39 -83.5t12.5 -93.5t-12.5 -93.5t-39 -83.5t-73 -62t-108.5 -23q-107 0 -168 78 zM177 -153v71h284v-71h-284z" />
<glyph unicode="&#x1e08;" horiz-adv-x="715" d="M532 915l-123 -142h-77l83 142h117zM570 259h106q-18 -118 -87 -191t-196 -79l-11 -29h16q45 0 73.5 -24.5t28.5 -65.5q0 -47 -34.5 -76t-93.5 -29q-39 0 -87 17v60q42 -19 79 -19q31 0 49.5 13.5t18.5 35.5q0 42 -55 42h-39l-17 28l18 47q-148 11 -224 114.5t-76 246.5 q0 71 19.5 134t58.5 115t104 82.5t149 30.5q138 0 212.5 -74t93.5 -197h-106q-33 173 -200 173q-112 0 -169 -77t-57 -187t57 -187t169 -77q167 0 200 173z" />
<glyph unicode="&#x1e09;" horiz-adv-x="562" d="M452 715l-123 -142h-77l83 142h117zM420 181h103q-14 -81 -65.5 -133.5t-144.5 -58.5l-11 -29h16q45 0 73.5 -24.5t28.5 -65.5q0 -47 -34.5 -76t-93.5 -29q-39 0 -87 17v60q42 -19 79 -19q31 0 49.5 13.5t18.5 35.5q0 42 -55 42h-39l-17 28l18 47q-109 10 -164.5 85 t-55.5 176q0 108 63.5 185t187.5 77q104 0 161 -53t72 -140h-103q-24 101 -130 101q-74 0 -112 -49.5t-38 -120.5t38 -120.5t112 -49.5q106 0 130 101z" />
<glyph unicode="&#x1e0a;" horiz-adv-x="697" d="M188 96h145q109 0 164.5 74t55.5 180t-55.5 180t-164.5 74h-145v-508zM83 700h250q83 0 147 -29.5t102 -80t57 -111.5t19 -129t-19 -129t-57 -111.5t-102 -80t-147 -29.5h-250v700zM276 833q0 24 16.5 40.5t40.5 16.5t40.5 -16.5t16.5 -40.5t-16.5 -40.5t-40.5 -16.5 t-40.5 16.5t-16.5 40.5z" />
<glyph unicode="&#x1e0b;" horiz-adv-x="609" d="M440 250q0 72 -37.5 121.5t-112.5 49.5t-112.5 -49.5t-37.5 -121.5t37.5 -121.5t112.5 -49.5t112.5 49.5t37.5 121.5zM541 0h-101v66q-61 -78 -168 -78q-62 0 -108.5 23t-73 62t-39 83.5t-12.5 93.5t12.5 93.5t39 83.5t73 62t108.5 23q107 0 168 -78v266h101v-700z M329 625q0 -24 -16.5 -40.5t-40.5 -16.5t-40.5 16.5t-16.5 40.5t16.5 40.5t40.5 16.5t40.5 -16.5t16.5 -40.5z" />
<glyph unicode="&#x1e0c;" horiz-adv-x="697" d="M188 96h145q109 0 164.5 74t55.5 180t-55.5 180t-164.5 74h-145v-508zM83 700h250q83 0 147 -29.5t102 -80t57 -111.5t19 -129t-19 -129t-57 -111.5t-102 -80t-147 -29.5h-250v700zM390 -133q0 -24 -16.5 -40.5t-40.5 -16.5t-40.5 16.5t-16.5 40.5t16.5 40.5t40.5 16.5 t40.5 -16.5t16.5 -40.5z" />
<glyph unicode="&#x1e0d;" horiz-adv-x="609" d="M440 250q0 72 -37.5 121.5t-112.5 49.5t-112.5 -49.5t-37.5 -121.5t37.5 -121.5t112.5 -49.5t112.5 49.5t37.5 121.5zM541 0h-101v66q-61 -78 -168 -78q-62 0 -108.5 23t-73 62t-39 83.5t-12.5 93.5t12.5 93.5t39 83.5t73 62t108.5 23q107 0 168 -78v266h101v-700z M347 -133q0 -24 -16.5 -40.5t-40.5 -16.5t-40.5 16.5t-16.5 40.5t16.5 40.5t40.5 16.5t40.5 -16.5t16.5 -40.5z" />
<glyph unicode="&#x1e0e;" horiz-adv-x="697" d="M188 96h145q109 0 164.5 74t55.5 180t-55.5 180t-164.5 74h-145v-508zM83 700h250q83 0 147 -29.5t102 -80t57 -111.5t19 -129t-19 -129t-57 -111.5t-102 -80t-147 -29.5h-250v700zM191 -153v71h284v-71h-284z" />
<glyph unicode="&#x1e0f;" horiz-adv-x="609" d="M440 250q0 72 -37.5 121.5t-112.5 49.5t-112.5 -49.5t-37.5 -121.5t37.5 -121.5t112.5 -49.5t112.5 49.5t37.5 121.5zM541 0h-101v66q-61 -78 -168 -78q-62 0 -108.5 23t-73 62t-39 83.5t-12.5 93.5t12.5 93.5t39 83.5t73 62t108.5 23q107 0 168 -78v266h101v-700z M148 -153v71h284v-71h-284z" />
<glyph unicode="&#x1e10;" horiz-adv-x="697" d="M188 96h145q109 0 164.5 74t55.5 180t-55.5 180t-164.5 74h-145v-508zM83 700h250q83 0 147 -29.5t102 -80t57 -111.5t19 -129q0 -89 -29.5 -163t-98.5 -127t-169 -59l-16 -41h16q45 0 73.5 -24.5t28.5 -65.5q0 -47 -34.5 -76t-93.5 -29q-39 0 -87 17v60q42 -19 79 -19 q31 0 49.5 13.5t18.5 35.5q0 42 -55 42h-39l-17 28l22 58h-223v700z" />
<glyph unicode="&#x1e11;" horiz-adv-x="609" d="M440 250q0 72 -37.5 121.5t-112.5 49.5t-112.5 -49.5t-37.5 -121.5t37.5 -121.5t112.5 -49.5t112.5 49.5t37.5 121.5zM541 0h-101v66q-54 -69 -142 -77l-11 -29h16q45 0 73.5 -24.5t28.5 -65.5q0 -47 -34.5 -76t-93.5 -29q-39 0 -87 17v60q42 -19 79 -19q31 0 49.5 13.5 t18.5 35.5q0 42 -55 42h-39l-17 28l18 47q-54 5 -95 30t-64.5 62.5t-34.5 80t-11 88.5q0 49 12.5 93.5t39 83.5t73 62t108.5 23q107 0 168 -78v266h101v-700z" />
<glyph unicode="&#x1e12;" horiz-adv-x="697" d="M188 96h145q109 0 164.5 74t55.5 180t-55.5 180t-164.5 74h-145v-508zM83 700h250q83 0 147 -29.5t102 -80t57 -111.5t19 -129t-19 -129t-57 -111.5t-102 -80t-147 -29.5h-250v700zM277 -73h112l107 -143h-89l-74 99l-74 -99h-89z" />
<glyph unicode="&#x1e13;" horiz-adv-x="609" d="M440 250q0 72 -37.5 121.5t-112.5 49.5t-112.5 -49.5t-37.5 -121.5t37.5 -121.5t112.5 -49.5t112.5 49.5t37.5 121.5zM541 0h-101v66q-61 -78 -168 -78q-62 0 -108.5 23t-73 62t-39 83.5t-12.5 93.5t12.5 93.5t39 83.5t73 62t108.5 23q107 0 168 -78v266h101v-700z M234 -73h112l107 -143h-89l-74 99l-74 -99h-89z" />
<glyph unicode="&#x1e18;" horiz-adv-x="615" d="M188 309v-214h380v-95h-485v700h473v-95h-368v-204h344v-92h-344zM382 -73l107 -143h-89l-74 99l-74 -99h-89l107 143h112z" />
<glyph unicode="&#x1e19;" horiz-adv-x="560" d="M144 297h272q-10 59 -43.5 94.5t-92.5 35.5t-92.5 -35.5t-43.5 -94.5zM407 148h103q-43 -160 -230 -160q-119 0 -180 77t-61 185t61 185t180 77t180 -77t61 -185v-27h-380q6 -66 40.5 -107.5t98.5 -41.5q98 0 127 74zM224 -73h112l107 -143h-89l-74 99l-74 -99h-89z" />
<glyph unicode="&#x1e1a;" horiz-adv-x="615" d="M188 309v-214h380v-95h-485v700h473v-95h-368v-204h344v-92h-344zM225 -190h-55q2 45 26 75.5t69 30.5q24 0 64.5 -13t59.5 -13q33 0 38 38h55q-2 -45 -26 -75.5t-69 -30.5q-24 0 -64.5 13t-59.5 13q-33 0 -38 -38z" />
<glyph unicode="&#x1e1b;" horiz-adv-x="560" d="M144 297h272q-10 59 -43.5 94.5t-92.5 35.5t-92.5 -35.5t-43.5 -94.5zM407 148h103q-43 -160 -230 -160q-119 0 -180 77t-61 185t61 185t180 77t180 -77t61 -185v-27h-380q6 -66 40.5 -107.5t98.5 -41.5q98 0 127 74zM179 -190h-55q2 45 26 75.5t69 30.5q24 0 64.5 -13 t59.5 -13q33 0 38 38h55q-2 -45 -26 -75.5t-69 -30.5q-24 0 -64.5 13t-59.5 13q-33 0 -38 -38z" />
<glyph unicode="&#x1e1c;" horiz-adv-x="615" d="M168 916h73q0 -35 23 -57t62 -22t62 22t23 57h73q0 -64 -43 -104.5t-115 -40.5t-115 40.5t-43 104.5zM188 309v-214h380v-95h-215l-15 -40h16q45 0 73.5 -24.5t28.5 -65.5q0 -47 -34.5 -76t-93.5 -29q-39 0 -87 17v60q42 -19 79 -19q31 0 49.5 13.5t18.5 35.5 q0 42 -55 42h-39l-17 28l22 58h-216v700h473v-95h-368v-204h344v-92h-344z" />
<glyph unicode="&#x1e1d;" horiz-adv-x="560" d="M144 297h272q-10 59 -43.5 94.5t-92.5 35.5t-92.5 -35.5t-43.5 -94.5zM407 148h103q-40 -149 -207 -159l-11 -29h16q45 0 73.5 -24.5t28.5 -65.5q0 -47 -34.5 -76t-93.5 -29q-39 0 -87 17v60q42 -19 79 -19q31 0 49.5 13.5t18.5 35.5q0 42 -55 42h-39l-17 28l18 48 q-104 11 -157 85.5t-53 174.5q0 108 61 185t180 77t180 -77t61 -185v-27h-380q6 -66 40.5 -107.5t98.5 -41.5q98 0 127 74zM122 716h73q0 -35 23 -57t62 -22t62 22t23 57h73q0 -64 -43 -104.5t-115 -40.5t-115 40.5t-43 104.5z" />
<glyph unicode="&#x1e1e;" horiz-adv-x="557" d="M249 833q0 24 16.5 40.5t40.5 16.5t40.5 -16.5t16.5 -40.5t-16.5 -40.5t-40.5 -16.5t-40.5 16.5t-16.5 40.5zM188 296v-296h-105v700h445v-96h-340v-213h304v-95h-304z" />
<glyph unicode="&#x1e1f;" horiz-adv-x="357" d="M123 843q0 24 16.5 40.5t40.5 16.5t40.5 -16.5t16.5 -40.5t-16.5 -40.5t-40.5 -16.5t-40.5 16.5t-16.5 40.5zM17 500h89v76q0 70 35 108t102 38q53 0 99 -16v-87q-37 14 -79 14q-56 0 -56 -64v-69h135v-86h-135v-414h-101v414h-89v86z" />
<glyph unicode="&#x1e20;" horiz-adv-x="752" d="M512 782h-284v71h284v-71zM39 350q0 71 19.5 134t58.5 115t104 82.5t149 30.5q133 0 207.5 -70t96.5 -187h-107q-38 159 -197 159q-112 0 -169 -77t-57 -187q0 -52 13 -98t39.5 -84t72 -60.5t103.5 -22.5q183 0 207 192h-209v87h313v-364h-68l-17 103q-67 -115 -228 -115 q-84 0 -149 30.5t-104 82.5t-58.5 115t-19.5 134z" />
<glyph unicode="&#x1e21;" horiz-adv-x="599" d="M440 252q0 71 -38 120.5t-112 49.5t-112 -49.5t-38 -120.5t38 -120.5t112 -49.5t112 49.5t38 120.5zM440 19v50q-60 -77 -168 -77q-62 0 -108.5 23t-73 61.5t-39 83t-12.5 92.5t12.5 92.5t39 83t73 61.5t108.5 23q108 0 168 -77v65h101v-481q0 -60 -21 -105t-57 -70.5 t-79 -38t-92 -12.5q-82 0 -146 34t-89 105h113q40 -53 121 -53q63 0 106 34t43 106zM432 653v-71h-284v71h284z" />
<glyph unicode="&#x1e22;" horiz-adv-x="716" d="M301 833q0 24 16.5 40.5t40.5 16.5t40.5 -16.5t16.5 -40.5t-16.5 -40.5t-40.5 -16.5t-40.5 16.5t-16.5 40.5zM83 0v700h105v-296h340v296h105v-700h-105v308h-340v-308h-105z" />
<glyph unicode="&#x1e23;" horiz-adv-x="572" d="M232 833q0 24 16.5 40.5t40.5 16.5t40.5 -16.5t16.5 -40.5t-16.5 -40.5t-40.5 -16.5t-40.5 16.5t-16.5 40.5zM509 0h-101v297q0 64 -23.5 93.5t-77.5 29.5q-62 0 -100 -40.5t-38 -111.5v-268h-101v700h101v-274q52 86 159 86q181 0 181 -212v-300z" />
<glyph unicode="&#x1e24;" horiz-adv-x="716" d="M83 0v700h105v-296h340v296h105v-700h-105v308h-340v-308h-105zM415 -133q0 -24 -16.5 -40.5t-40.5 -16.5t-40.5 16.5t-16.5 40.5t16.5 40.5t40.5 16.5t40.5 -16.5t16.5 -40.5z" />
<glyph unicode="&#x1e25;" horiz-adv-x="572" d="M509 0h-101v297q0 64 -23.5 93.5t-77.5 29.5q-62 0 -100 -40.5t-38 -111.5v-268h-101v700h101v-274q52 86 159 86q181 0 181 -212v-300zM346 -133q0 -24 -16.5 -40.5t-40.5 -16.5t-40.5 16.5t-16.5 40.5t16.5 40.5t40.5 16.5t40.5 -16.5t16.5 -40.5z" />
<glyph unicode="&#x1e26;" horiz-adv-x="716" d="M209 832q0 24 16 40t40 16t40 -16t16 -40t-16 -40t-40 -16t-40 16t-16 40zM395 832q0 24 16 40t40 16t40 -16t16 -40t-16 -40t-40 -16t-40 16t-16 40zM83 0v700h105v-296h340v296h105v-700h-105v308h-340v-308h-105z" />
<glyph unicode="&#x1e27;" horiz-adv-x="572" d="M140 832q0 24 16 40t40 16t40 -16t16 -40t-16 -40t-40 -16t-40 16t-16 40zM326 832q0 24 16 40t40 16t40 -16t16 -40t-16 -40t-40 -16t-40 16t-16 40zM509 0h-101v297q0 64 -23.5 93.5t-77.5 29.5q-62 0 -100 -40.5t-38 -111.5v-268h-101v700h101v-274q52 86 159 86 q181 0 181 -212v-300z" />
<glyph unicode="&#x1e28;" horiz-adv-x="716" d="M83 0v700h105v-296h340v296h105v-700h-105v308h-340v-308h-25l-15 -40h16q45 0 73.5 -24.5t28.5 -65.5q0 -47 -34.5 -76t-93.5 -29q-39 0 -87 17v60q42 -19 79 -19q31 0 49.5 13.5t18.5 35.5q0 42 -55 42h-39l-17 28l22 58h-26z" />
<glyph unicode="&#x1e29;" horiz-adv-x="572" d="M509 0h-101v297q0 64 -23.5 93.5t-77.5 29.5q-62 0 -100 -40.5t-38 -111.5v-268h-23l-15 -40h16q45 0 73.5 -24.5t28.5 -65.5q0 -47 -34.5 -76t-93.5 -29q-39 0 -87 17v60q42 -19 79 -19q31 0 49.5 13.5t18.5 35.5q0 42 -55 42h-39l-17 28l22 58h-24v700h101v-274 q52 86 159 86q181 0 181 -212v-300z" />
<glyph unicode="&#x1e2a;" horiz-adv-x="716" d="M83 0v700h105v-296h340v296h105v-700h-105v308h-340v-308h-105zM443 -71h73q0 -64 -43 -104.5t-115 -40.5t-115 40.5t-43 104.5h73q0 -35 23 -57t62 -22t62 22t23 57z" />
<glyph unicode="&#x1e2b;" horiz-adv-x="572" d="M509 0h-101v297q0 64 -23.5 93.5t-77.5 29.5q-62 0 -100 -40.5t-38 -111.5v-268h-101v700h101v-274q52 86 159 86q181 0 181 -212v-300zM374 -71h73q0 -64 -43 -104.5t-115 -40.5t-115 40.5t-43 104.5h73q0 -35 23 -57t62 -22t62 22t23 57z" />
<glyph unicode="&#x1e2c;" horiz-adv-x="271" d="M83 0v700h105v-700h-105zM35 -190h-55q2 45 26 75.5t69 30.5q24 0 64.5 -13t59.5 -13q33 0 38 38h55q-2 -45 -26 -75.5t-69 -30.5q-24 0 -64.5 13t-59.5 13q-33 0 -38 -38z" />
<glyph unicode="&#x1e2d;" horiz-adv-x="237" d="M58 662q0 26 17.5 43.5t43.5 17.5t43.5 -17.5t17.5 -43.5t-17.5 -43.5t-43.5 -17.5t-43.5 17.5t-17.5 43.5zM68 0v500h101v-500h-101zM18 -190h-55q2 45 26 75.5t69 30.5q24 0 64.5 -13t59.5 -13q33 0 38 38h55q-2 -45 -26 -75.5t-69 -30.5q-24 0 -64.5 13t-59.5 13 q-33 0 -38 -38z" />
<glyph unicode="&#x1e30;" horiz-adv-x="627" d="M519 915l-123 -142h-77l83 142h117zM188 700v-340l296 340h131l-305 -350l320 -350h-134l-308 338v-338h-105v700h105z" />
<glyph unicode="&#x1e31;" horiz-adv-x="525" d="M281 915l-123 -142h-77l83 142h117zM169 700v-442l214 242h122l-223 -250l238 -250h-127l-224 236v-236h-101v700h101z" />
<glyph unicode="&#x1e32;" horiz-adv-x="627" d="M188 700v-340l296 340h131l-305 -350l320 -350h-134l-308 338v-338h-105v700h105zM414 -133q0 -24 -16.5 -40.5t-40.5 -16.5t-40.5 16.5t-16.5 40.5t16.5 40.5t40.5 16.5t40.5 -16.5t16.5 -40.5z" />
<glyph unicode="&#x1e33;" horiz-adv-x="525" d="M169 700v-442l214 242h122l-223 -250l238 -250h-127l-224 236v-236h-101v700h101zM351 -133q0 -24 -16.5 -40.5t-40.5 -16.5t-40.5 16.5t-16.5 40.5t16.5 40.5t40.5 16.5t40.5 -16.5t16.5 -40.5z" />
<glyph unicode="&#x1e34;" horiz-adv-x="627" d="M188 700v-340l296 340h131l-305 -350l320 -350h-134l-308 338v-338h-105v700h105zM499 -162h-284v71h284v-71z" />
<glyph unicode="&#x1e35;" horiz-adv-x="525" d="M169 700v-442l214 242h122l-223 -250l238 -250h-127l-224 236v-236h-101v700h101zM436 -162h-284v71h284v-71z" />
<glyph unicode="&#x1e36;" horiz-adv-x="555" d="M188 700v-604h355v-96h-460v700h105zM370 -133q0 -24 -16.5 -40.5t-40.5 -16.5t-40.5 16.5t-16.5 40.5t16.5 40.5t40.5 16.5t40.5 -16.5t16.5 -40.5z" />
<glyph unicode="&#x1e37;" horiz-adv-x="237" d="M68 0v700h101v-700h-101zM176 -133q0 -24 -16.5 -40.5t-40.5 -16.5t-40.5 16.5t-16.5 40.5t16.5 40.5t40.5 16.5t40.5 -16.5t16.5 -40.5z" />
<glyph unicode="&#x1e38;" horiz-adv-x="555" d="M278 782h-284v71h284v-71zM188 700v-604h355v-96h-460v700h105zM370 -133q0 -24 -16.5 -40.5t-40.5 -16.5t-40.5 16.5t-16.5 40.5t16.5 40.5t40.5 16.5t40.5 -16.5t16.5 -40.5z" />
<glyph unicode="&#x1e39;" horiz-adv-x="237" d="M261 782h-284v71h284v-71zM68 0v700h101v-700h-101zM176 -133q0 -24 -16.5 -40.5t-40.5 -16.5t-40.5 16.5t-16.5 40.5t16.5 40.5t40.5 16.5t40.5 -16.5t16.5 -40.5z" />
<glyph unicode="&#x1e3a;" horiz-adv-x="555" d="M188 700v-604h355v-96h-460v700h105zM171 -82h284v-71h-284v71z" />
<glyph unicode="&#x1e3b;" horiz-adv-x="237" d="M68 0v700h101v-700h-101zM-23 -82h284v-71h-284v71z" />
<glyph unicode="&#x1e3c;" horiz-adv-x="555" d="M188 700v-604h355v-96h-460v700h105zM369 -73l107 -143h-89l-74 99l-74 -99h-89l107 143h112z" />
<glyph unicode="&#x1e3d;" horiz-adv-x="237" d="M68 0v700h101v-700h-101zM175 -73l107 -143h-89l-74 99l-74 -99h-89l107 143h112z" />
<glyph unicode="&#x1e3e;" horiz-adv-x="906" d="M615 915l-123 -142h-77l83 142h117zM277 700l175 -670h2l175 670h194v-700h-105v670h-2l-175 -670h-176l-175 670h-2v-670h-105v700h194z" />
<glyph unicode="&#x1e3f;" horiz-adv-x="866" d="M598 715l-123 -142h-77l83 142h117zM486 0h-101v297q0 64 -21 93.5t-70 29.5q-56 0 -90.5 -40.5t-34.5 -111.5v-268h-101v500h101v-74q23 41 62 63.5t86 22.5q113 0 150 -94q26 45 70 69.5t97 24.5q169 0 169 -212v-300h-101v297q0 64 -21 93.5t-70 29.5 q-56 0 -90.5 -40.5t-34.5 -111.5v-268z" />
<glyph unicode="&#x1e40;" horiz-adv-x="906" d="M396 833q0 24 16.5 40.5t40.5 16.5t40.5 -16.5t16.5 -40.5t-16.5 -40.5t-40.5 -16.5t-40.5 16.5t-16.5 40.5zM277 700l175 -670h2l175 670h194v-700h-105v670h-2l-175 -670h-176l-175 670h-2v-670h-105v700h194z" />
<glyph unicode="&#x1e41;" horiz-adv-x="866" d="M379 633q0 24 16.5 40.5t40.5 16.5t40.5 -16.5t16.5 -40.5t-16.5 -40.5t-40.5 -16.5t-40.5 16.5t-16.5 40.5zM486 0h-101v297q0 64 -21 93.5t-70 29.5q-56 0 -90.5 -40.5t-34.5 -111.5v-268h-101v500h101v-74q23 41 62 63.5t86 22.5q113 0 150 -94q26 45 70 69.5t97 24.5 q169 0 169 -212v-300h-101v297q0 64 -21 93.5t-70 29.5q-56 0 -90.5 -40.5t-34.5 -111.5v-268z" />
<glyph unicode="&#x1e42;" horiz-adv-x="906" d="M277 700l175 -670h2l175 670h194v-700h-105v670h-2l-175 -670h-176l-175 670h-2v-670h-105v700h194zM510 -133q0 -24 -16.5 -40.5t-40.5 -16.5t-40.5 16.5t-16.5 40.5t16.5 40.5t40.5 16.5t40.5 -16.5t16.5 -40.5z" />
<glyph unicode="&#x1e43;" horiz-adv-x="866" d="M486 0h-101v297q0 64 -21 93.5t-70 29.5q-56 0 -90.5 -40.5t-34.5 -111.5v-268h-101v500h101v-74q23 41 62 63.5t86 22.5q113 0 150 -94q26 45 70 69.5t97 24.5q169 0 169 -212v-300h-101v297q0 64 -21 93.5t-70 29.5q-56 0 -90.5 -40.5t-34.5 -111.5v-268zM493 -133 q0 -24 -16.5 -40.5t-40.5 -16.5t-40.5 16.5t-16.5 40.5t16.5 40.5t40.5 16.5t40.5 -16.5t16.5 -40.5z" />
<glyph unicode="&#x1e44;" horiz-adv-x="751" d="M319 833q0 24 16.5 40.5t40.5 16.5t40.5 -16.5t16.5 -40.5t-16.5 -40.5t-40.5 -16.5t-40.5 16.5t-16.5 40.5zM279 700l282 -670h2v670h105v-700h-196l-282 670h-2v-670h-105v700h196z" />
<glyph unicode="&#x1e45;" horiz-adv-x="572" d="M232 633q0 24 16.5 40.5t40.5 16.5t40.5 -16.5t16.5 -40.5t-16.5 -40.5t-40.5 -16.5t-40.5 16.5t-16.5 40.5zM509 0h-101v297q0 64 -23.5 93.5t-77.5 29.5q-62 0 -100 -40.5t-38 -111.5v-268h-101v500h101v-74q52 86 159 86q181 0 181 -212v-300z" />
<glyph unicode="&#x1e46;" horiz-adv-x="751" d="M279 700l282 -670h2v670h105v-700h-196l-282 670h-2v-670h-105v700h196zM433 -133q0 -24 -16.5 -40.5t-40.5 -16.5t-40.5 16.5t-16.5 40.5t16.5 40.5t40.5 16.5t40.5 -16.5t16.5 -40.5z" />
<glyph unicode="&#x1e47;" horiz-adv-x="572" d="M509 0h-101v297q0 64 -23.5 93.5t-77.5 29.5q-62 0 -100 -40.5t-38 -111.5v-268h-101v500h101v-74q52 86 159 86q181 0 181 -212v-300zM346 -133q0 -24 -16.5 -40.5t-40.5 -16.5t-40.5 16.5t-16.5 40.5t16.5 40.5t40.5 16.5t40.5 -16.5t16.5 -40.5z" />
<glyph unicode="&#x1e48;" horiz-adv-x="751" d="M279 700l282 -670h2v670h105v-700h-196l-282 670h-2v-670h-105v700h196zM518 -162h-284v71h284v-71z" />
<glyph unicode="&#x1e49;" horiz-adv-x="572" d="M509 0h-101v297q0 64 -23.5 93.5t-77.5 29.5q-62 0 -100 -40.5t-38 -111.5v-268h-101v500h101v-74q52 86 159 86q181 0 181 -212v-300zM147 -82h284v-71h-284v71z" />
<glyph unicode="&#x1e4a;" horiz-adv-x="751" d="M279 700l282 -670h2v670h105v-700h-196l-282 670h-2v-670h-105v700h196zM432 -73l107 -143h-89l-74 99l-74 -99h-89l107 143h112z" />
<glyph unicode="&#x1e4b;" horiz-adv-x="572" d="M509 0h-101v297q0 64 -23.5 93.5t-77.5 29.5q-62 0 -100 -40.5t-38 -111.5v-268h-101v500h101v-74q52 86 159 86q181 0 181 -212v-300zM345 -73l107 -143h-89l-74 99l-74 -99h-89l107 143h112z" />
<glyph unicode="&#x1e54;" horiz-adv-x="641" d="M365 605h-177v-276h177q60 0 99 39t39 99t-39 99t-99 39zM368 234h-180v-234h-105v700h285q104 0 172 -66t68 -167t-68 -167t-172 -66zM385 915h117l-123 -142h-77z" />
<glyph unicode="&#x1e55;" horiz-adv-x="609" d="M169 250q0 -72 37.5 -121.5t112.5 -49.5t112.5 49.5t37.5 121.5t-37.5 121.5t-112.5 49.5t-112.5 -49.5t-37.5 -121.5zM169 66v-261h-101v695h101v-66q61 78 168 78q62 0 108.5 -23t73 -62t39 -83.5t12.5 -93.5t-12.5 -93.5t-39 -83.5t-73 -62t-108.5 -23q-107 0 -168 78 zM364 715h117l-123 -142h-77z" />
<glyph unicode="&#x1e56;" horiz-adv-x="641" d="M365 605h-177v-276h177q60 0 99 39t39 99t-39 99t-99 39zM368 234h-180v-234h-105v700h285q104 0 172 -66t68 -167t-68 -167t-172 -66zM283 833q0 24 16.5 40.5t40.5 16.5t40.5 -16.5t16.5 -40.5t-16.5 -40.5t-40.5 -16.5t-40.5 16.5t-16.5 40.5z" />
<glyph unicode="&#x1e57;" horiz-adv-x="609" d="M169 250q0 -72 37.5 -121.5t112.5 -49.5t112.5 49.5t37.5 121.5t-37.5 121.5t-112.5 49.5t-112.5 -49.5t-37.5 -121.5zM169 66v-261h-101v695h101v-66q61 78 168 78q62 0 108.5 -23t73 -62t39 -83.5t12.5 -93.5t-12.5 -93.5t-39 -83.5t-73 -62t-108.5 -23q-107 0 -168 78 zM262 633q0 24 16.5 40.5t40.5 16.5t40.5 -16.5t16.5 -40.5t-16.5 -40.5t-40.5 -16.5t-40.5 16.5t-16.5 40.5z" />
<glyph unicode="&#x1e58;" horiz-adv-x="669" d="M375 605h-187v-256h187q55 0 91.5 36.5t36.5 91.5t-36.5 91.5t-91.5 36.5zM188 256v-256h-105v700h295q100 0 165 -63.5t65 -159.5q0 -76 -42.5 -132.5t-112.5 -77.5l167 -267h-119l-160 256h-153zM283 833q0 24 16.5 40.5t40.5 16.5t40.5 -16.5t16.5 -40.5t-16.5 -40.5 t-40.5 -16.5t-40.5 16.5t-16.5 40.5z" />
<glyph unicode="&#x1e59;" horiz-adv-x="356" d="M148 633q0 24 16.5 40.5t40.5 16.5t40.5 -16.5t16.5 -40.5t-16.5 -40.5t-40.5 -16.5t-40.5 16.5t-16.5 40.5zM68 0v500h101v-77h2q14 37 54.5 63t94.5 26h22v-101q-9 4 -37 4q-55 0 -95.5 -41t-40.5 -105v-269h-101z" />
</font>
</defs>
</svg>
