<svg width="60" height="60" viewBox="0 0 60 60" fill="none" xmlns="http://www.w3.org/2000/svg">
<path d="M0 30C0 13.4315 13.4315 0 30 0C46.5685 0 60 13.4315 60 30C60 46.5685 46.5685 60 30 60C13.4315 60 0 46.5685 0 30Z" fill="#5B42DC"/>
<g clip-path="url(#clip0_1_2346)">
<path d="M35.5 24.5H35.51M25 20H35C37.7614 20 40 22.2386 40 25V35C40 37.7614 37.7614 40 35 40H25C22.2386 40 20 37.7614 20 35V25C20 22.2386 22.2386 20 25 20ZM34 29.37C34.1234 30.2022 33.9813 31.0522 33.5938 31.799C33.2063 32.5458 32.5931 33.1514 31.8416 33.5297C31.0901 33.9079 30.2384 34.0396 29.4078 33.9059C28.5771 33.7723 27.8098 33.3801 27.2148 32.7852C26.6199 32.1902 26.2277 31.4229 26.0941 30.5922C25.9604 29.7616 26.0921 28.9099 26.4703 28.1584C26.8486 27.4069 27.4542 26.7937 28.201 26.4062C28.9478 26.0187 29.7978 25.8766 30.63 26C31.4789 26.1259 32.2649 26.5215 32.8717 27.1283C33.4785 27.7351 33.8741 28.5211 34 29.37Z" stroke="#F2F2F2" stroke-width="3" stroke-linecap="round" stroke-linejoin="round"/>
</g>
<defs>
<clipPath id="clip0_1_2346">
<rect width="24" height="24" fill="white" transform="translate(18 18)"/>
</clipPath>
</defs>
</svg>
