<svg width="60" height="60" viewBox="0 0 60 60" fill="none" xmlns="http://www.w3.org/2000/svg">
<path d="M0 30C0 13.4315 13.4315 0 30 0C46.5685 0 60 13.4315 60 30C60 46.5685 46.5685 60 30 60C13.4315 60 0 46.5685 0 30Z" fill="#5B42DC"/>
<path d="M29.5976 17C22.6517 17 17 22.6517 17 29.5976C17 36.5435 22.6517 42.1953 29.5976 42.1953C36.5435 42.1953 42.1953 36.5435 42.1953 29.5976C42.1953 22.6517 36.5435 17 29.5976 17ZM39.073 28.2652H35.3753C35.1075 25.0552 33.9089 22.384 32.8586 20.6021C36.1323 21.7926 38.5757 24.7205 39.073 28.2652ZM27.0363 28.2652C27.4125 25.3166 28.8501 22.8653 29.8367 21.4819C30.7404 22.8685 32.0234 25.3007 32.3326 28.2652H27.0363ZM32.2864 31.2935C31.9103 34.1751 30.6926 36.7236 29.8112 38.2553C28.8278 36.7492 27.4492 34.2022 27.0539 31.2935H32.2864ZM26.8865 20.422C25.7135 22.2166 24.3205 24.9692 23.9889 28.2652H20.1223C20.6467 24.5245 23.3403 21.4723 26.8865 20.422ZM20.1813 31.2935H24.0033C24.3189 34.2134 25.4441 36.7922 26.5008 38.6506C23.259 37.5381 20.7997 34.733 20.1813 31.2935ZM33.128 38.4912C34.054 36.6456 35.0358 34.1209 35.337 31.2935H39.014C38.4243 34.5784 36.1547 37.2847 33.128 38.4912Z" fill="#F2F2F2"/>
</svg>
