<svg width="60" height="60" viewBox="0 0 60 60" fill="none" xmlns="http://www.w3.org/2000/svg">
<path d="M0 30C0 13.4315 13.4315 0 30 0C46.5685 0 60 13.4315 60 30C60 46.5685 46.5685 60 30 60C13.4315 60 0 46.5685 0 30Z" fill="#5B42DC"/>
<path d="M41.2444 38.2994H19.5923L18.0781 36.7853V22.5141H19.5923V21H41.2429V22.5141H42.757V36.7837L41.2429 38.2978L41.2444 38.2994ZM21.1064 35.2712H39.7287V25.6237L31.479 32.0835L29.6254 32.0947L21.1048 25.5791V35.2712H21.1064ZM24.0646 24.0283L30.5355 28.9755L36.8534 24.0283H24.0646Z" fill="#F2F2F2"/>
</svg>
