<svg width="60" height="60" viewBox="0 0 60 60" fill="none" xmlns="http://www.w3.org/2000/svg">
<path d="M0 30C0 13.4315 13.4315 0 30 0C46.5685 0 60 13.4315 60 30C60 46.5685 46.5685 60 30 60C13.4315 60 0 46.5685 0 30Z" fill="#5B42DC"/>
<path d="M41.402 20.3902C40.9258 20.0066 40.2842 20 40.1651 20C39.2722 20.0132 38.2338 20.3572 32.1421 22.8904C30.1248 23.7304 26.0307 25.4898 19.9787 28.1288C18.7088 28.6381 18.1069 29.154 18.0275 29.8088C17.882 30.9928 19.099 31.3764 20.2829 31.7468L20.7327 31.8923C21.6256 32.1833 23.2593 32.6728 24.1655 32.6926C24.979 32.6926 25.5715 32.0576 26.5107 31.4161C29.7318 29.24 32.0107 27 33.8618 26.5C33.0107 27.5 31.1368 29.4583 30.5018 30.0469C29.9859 30.5231 29.6221 30.8671 29.5428 30.9465C29.384 31.1118 29.2253 31.2639 29.0732 31.4161C28.3985 32.0643 27.7702 32.6728 27.8429 33.526C27.9157 34.3395 28.6565 34.915 29.2055 35.2787C30.0521 35.8343 30.7267 36.2973 31.408 36.7603C32.1554 37.2696 32.8962 37.7789 33.8618 38.4072C34.0999 38.566 34.3248 38.7247 34.5431 38.8835C35.3831 39.4787 36.2429 40.0939 37.321 40.0939C37.407 40.0939 37.493 40.0872 37.5856 40.0806C38.2867 40.0145 39.2061 39.4986 39.6029 37.4085C40.271 33.8435 41.6467 25.7742 41.9708 22.3546C42.0105 21.971 41.9576 21.5345 41.9311 21.3559C41.9047 21.2038 41.8253 20.7342 41.402 20.3902Z" fill="#F2F2F2"/>
</svg>
