<svg width="298" height="83" viewBox="0 0 298 83" fill="none" xmlns="http://www.w3.org/2000/svg">
<g filter="url(#filter0_d_1_3269)">
<path d="M37.7485 57.6095L18.5898 69.6133L22.7548 46.4632L27.7527 55.0373L37.7485 57.6095Z" fill="#DC42DC"/>
<path d="M19.1709 70.541L38.3301 58.5371L40.4893 57.1846L38.0215 56.5488L28.4678 54.0918L23.7002 45.9121L22.2041 43.3438L21.6777 46.2695L17.5127 69.4189L17.0742 71.8545L19.1709 70.541Z" stroke="white" stroke-width="2.18956"/>
</g>
<g filter="url(#filter1_d_1_3269)">
<path d="M38 44C38 45.1046 38.8954 46 40 46H264C275.046 46 284 37.0457 284 26C284 14.9543 275.046 6 264 6H62C48.7452 6 38 16.7452 38 30V44Z" fill="#DC42DC" shape-rendering="crispEdges"/>
<path d="M55.142 32V23.2727H58.7614C59.7462 23.2727 60.5265 23.483 61.1023 23.9034C61.678 24.3201 61.9659 24.8864 61.9659 25.6023C61.9659 26.1136 61.803 26.5189 61.4773 26.8182C61.1515 27.1174 60.7197 27.3182 60.1818 27.4205C60.572 27.4659 60.9299 27.5833 61.2557 27.7727C61.5814 27.9583 61.8428 28.2083 62.0398 28.5227C62.2405 28.8371 62.3409 29.2121 62.3409 29.6477C62.3409 30.1098 62.2216 30.5189 61.983 30.875C61.7443 31.2273 61.3977 31.5038 60.9432 31.7045C60.4924 31.9015 59.9489 32 59.3125 32H55.142ZM56.7386 30.5795H59.3125C59.733 30.5795 60.0625 30.4792 60.3011 30.2784C60.5398 30.0777 60.6591 29.8049 60.6591 29.4602C60.6591 29.0549 60.5398 28.7367 60.3011 28.5057C60.0625 28.2708 59.733 28.1534 59.3125 28.1534H56.7386V30.5795ZM56.7386 26.9091H58.7784C59.0966 26.9091 59.3693 26.8636 59.5966 26.7727C59.8277 26.6818 60.0038 26.553 60.125 26.3864C60.25 26.2159 60.3125 26.0152 60.3125 25.7841C60.3125 25.447 60.1742 25.1837 59.8977 24.9943C59.6212 24.8049 59.2424 24.7102 58.7614 24.7102H56.7386V26.9091ZM69.5582 32H67.6946L71.8821 20.3636H73.9105L78.098 32H76.2344L72.9446 22.4773H72.8537L69.5582 32ZM69.8707 27.4432H75.9162V28.9205H69.8707V27.4432ZM84.5398 29.8977L87.358 23.2727H88.8239L85.1705 32H83.9091L80.3295 23.2727H81.7784L84.5398 29.8977ZM81.3068 23.2727V32H79.642V23.2727H81.3068ZM87.8182 32V23.2727H89.4716V32H87.8182ZM91.7358 32V23.2727H98.8551V32H97.1903V24.7386H93.3892V32H91.7358ZM100.439 32L100.433 30.5284H100.746C100.988 30.5284 101.191 30.4773 101.354 30.375C101.52 30.2689 101.657 30.0909 101.763 29.8409C101.869 29.5909 101.95 29.2462 102.007 28.8068C102.064 28.3636 102.106 27.8068 102.132 27.1364L102.286 23.2727H108.376V32H106.712V24.7386H103.859L103.723 27.7045C103.689 28.4242 103.615 29.053 103.501 29.5909C103.392 30.1288 103.231 30.5777 103.018 30.9375C102.806 31.2936 102.534 31.5606 102.2 31.7386C101.867 31.9129 101.462 32 100.984 32H100.439ZM112.307 29.6193L116.153 23.2727H117.983V32H116.318V25.6477L112.489 32H110.642V23.2727H112.307V29.6193ZM119.185 24.7386V23.2727H126.548V24.7386H123.702V32H122.043V24.7386H119.185ZM129.419 35.2727C129.165 35.2727 128.934 35.2519 128.726 35.2102C128.518 35.1723 128.362 35.1307 128.26 35.0852L128.669 33.6932C128.98 33.7765 129.256 33.8125 129.499 33.8011C129.741 33.7898 129.955 33.6989 130.141 33.5284C130.33 33.358 130.497 33.0795 130.641 32.6932L130.851 32.1136L127.658 23.2727H129.476L131.686 30.0455H131.777L133.987 23.2727H135.811L132.214 33.1648C132.048 33.6193 131.836 34.0038 131.578 34.3182C131.321 34.6364 131.014 34.875 130.658 35.0341C130.302 35.1932 129.889 35.2727 129.419 35.2727ZM135.837 34.517V30.5284H136.547C136.729 30.3617 136.882 30.1629 137.007 29.9318C137.136 29.7008 137.244 29.4261 137.331 29.108C137.422 28.7898 137.498 28.4186 137.558 27.9943C137.619 27.5663 137.672 27.0777 137.717 26.5284L137.99 23.2727H143.922V30.5284H145.263V34.517H143.604V32H137.518V34.517H135.837ZM138.365 30.5284H142.263V24.7273H139.513L139.331 26.5284C139.244 27.4451 139.134 28.2405 139.001 28.9148C138.869 29.5852 138.657 30.1231 138.365 30.5284ZM150.685 32.1761C149.825 32.1761 149.084 31.9924 148.463 31.625C147.846 31.2538 147.368 30.733 147.031 30.0625C146.698 29.3883 146.531 28.5985 146.531 27.6932C146.531 26.7992 146.698 26.0114 147.031 25.3295C147.368 24.6477 147.838 24.1155 148.44 23.733C149.046 23.3504 149.755 23.1591 150.565 23.1591C151.058 23.1591 151.535 23.2405 151.997 23.4034C152.459 23.5663 152.874 23.822 153.241 24.1705C153.609 24.5189 153.899 24.9716 154.111 25.5284C154.323 26.0814 154.429 26.7538 154.429 27.5455V28.1477H147.491V26.875H152.764C152.764 26.428 152.673 26.0322 152.491 25.6875C152.31 25.339 152.054 25.0644 151.724 24.8636C151.399 24.6629 151.016 24.5625 150.577 24.5625C150.099 24.5625 149.683 24.6799 149.327 24.9148C148.974 25.1458 148.702 25.4489 148.509 25.8239C148.319 26.1951 148.224 26.5985 148.224 27.0341V28.0284C148.224 28.6117 148.327 29.108 148.531 29.517C148.74 29.9261 149.029 30.2386 149.401 30.4545C149.772 30.6667 150.205 30.7727 150.702 30.7727C151.024 30.7727 151.317 30.7273 151.582 30.6364C151.848 30.5417 152.077 30.4015 152.27 30.2159C152.463 30.0303 152.611 29.8011 152.713 29.5284L154.321 29.8182C154.192 30.2917 153.961 30.7064 153.628 31.0625C153.298 31.4148 152.884 31.6894 152.384 31.8864C151.887 32.0795 151.321 32.1761 150.685 32.1761ZM160.548 32V23.2727H162.247V26.9318H163.065L165.946 23.2727H168.048L164.668 27.517L168.088 32H165.98L163.349 28.5114H162.247V32H160.548ZM171.947 32.1932C171.394 32.1932 170.894 32.0909 170.447 31.8864C170 31.678 169.646 31.3769 169.385 30.983C169.127 30.589 168.999 30.1061 168.999 29.5341C168.999 29.0417 169.093 28.6364 169.283 28.3182C169.472 28 169.728 27.7481 170.05 27.5625C170.372 27.3769 170.732 27.2367 171.129 27.142C171.527 27.0473 171.932 26.9754 172.345 26.9261C172.868 26.8655 173.292 26.8163 173.618 26.7784C173.944 26.7367 174.18 26.6705 174.328 26.5795C174.476 26.4886 174.55 26.3409 174.55 26.1364V26.0966C174.55 25.6004 174.41 25.2159 174.129 24.9432C173.853 24.6705 173.44 24.5341 172.891 24.5341C172.319 24.5341 171.868 24.661 171.538 24.9148C171.213 25.1648 170.987 25.4432 170.862 25.75L169.266 25.3864C169.455 24.8561 169.732 24.428 170.095 24.1023C170.463 23.7727 170.885 23.5341 171.362 23.3864C171.839 23.2348 172.341 23.1591 172.868 23.1591C173.216 23.1591 173.586 23.2008 173.976 23.2841C174.37 23.3636 174.737 23.5114 175.078 23.7273C175.423 23.9432 175.705 24.2519 175.925 24.6534C176.144 25.0511 176.254 25.5682 176.254 26.2045V32H174.595V30.8068H174.527C174.417 31.0265 174.252 31.2424 174.033 31.4545C173.813 31.6667 173.531 31.8428 173.186 31.983C172.841 32.1231 172.429 32.1932 171.947 32.1932ZM172.317 30.8295C172.786 30.8295 173.188 30.7367 173.521 30.5511C173.858 30.3655 174.114 30.1231 174.288 29.8239C174.466 29.5208 174.555 29.197 174.555 28.8523V27.7273C174.495 27.7879 174.377 27.8447 174.203 27.8977C174.033 27.947 173.838 27.9905 173.618 28.0284C173.398 28.0625 173.184 28.0947 172.976 28.125C172.768 28.1515 172.593 28.1742 172.453 28.1932C172.124 28.2348 171.822 28.3049 171.55 28.4034C171.281 28.5019 171.065 28.6439 170.902 28.8295C170.743 29.0114 170.663 29.2538 170.663 29.5568C170.663 29.9773 170.819 30.2955 171.129 30.5114C171.44 30.7235 171.836 30.8295 172.317 30.8295ZM178.517 32V23.2727H180.216V26.9318H181.034L183.915 23.2727H186.017L182.636 27.517L186.057 32H183.949L181.318 28.5114H180.216V32H178.517ZM190.693 32.1761C189.875 32.1761 189.161 31.9886 188.551 31.6136C187.941 31.2386 187.468 30.714 187.131 30.0398C186.794 29.3655 186.625 28.5777 186.625 27.6761C186.625 26.7708 186.794 25.9792 187.131 25.3011C187.468 24.6231 187.941 24.0966 188.551 23.7216C189.161 23.3466 189.875 23.1591 190.693 23.1591C191.511 23.1591 192.225 23.3466 192.835 23.7216C193.445 24.0966 193.919 24.6231 194.256 25.3011C194.593 25.9792 194.761 26.7708 194.761 27.6761C194.761 28.5777 194.593 29.3655 194.256 30.0398C193.919 30.714 193.445 31.2386 192.835 31.6136C192.225 31.9886 191.511 32.1761 190.693 32.1761ZM190.699 30.75C191.229 30.75 191.669 30.6098 192.017 30.3295C192.366 30.0492 192.623 29.6761 192.79 29.2102C192.96 28.7443 193.045 28.2311 193.045 27.6705C193.045 27.1136 192.96 26.6023 192.79 26.1364C192.623 25.6667 192.366 25.2898 192.017 25.0057C191.669 24.7216 191.229 24.5795 190.699 24.5795C190.165 24.5795 189.722 24.7216 189.369 25.0057C189.021 25.2898 188.761 25.6667 188.591 26.1364C188.424 26.6023 188.341 27.1136 188.341 27.6705C188.341 28.2311 188.424 28.7443 188.591 29.2102C188.761 29.6761 189.021 30.0492 189.369 30.3295C189.722 30.6098 190.165 30.75 190.699 30.75ZM198.322 29.6193L202.169 23.2727H203.999V32H202.334V25.6477L198.504 32H196.658V23.2727H198.322V29.6193ZM201.442 20.3182H202.839C202.839 20.9583 202.612 21.4792 202.158 21.8807C201.707 22.2784 201.097 22.4773 200.328 22.4773C199.563 22.4773 198.955 22.2784 198.504 21.8807C198.054 21.4792 197.828 20.9583 197.828 20.3182H199.22C199.22 20.6023 199.304 20.8542 199.47 21.0739C199.637 21.2898 199.923 21.3977 200.328 21.3977C200.726 21.3977 201.01 21.2898 201.18 21.0739C201.355 20.858 201.442 20.6061 201.442 20.3182ZM212.182 29.6193L216.028 23.2727H217.858V32H216.193V25.6477L212.364 32H210.517V23.2727H212.182V29.6193ZM220.142 32V23.2727H223.761C224.746 23.2727 225.527 23.483 226.102 23.9034C226.678 24.3201 226.966 24.8864 226.966 25.6023C226.966 26.1136 226.803 26.5189 226.477 26.8182C226.152 27.1174 225.72 27.3182 225.182 27.4205C225.572 27.4659 225.93 27.5833 226.256 27.7727C226.581 27.9583 226.843 28.2083 227.04 28.5227C227.241 28.8371 227.341 29.2121 227.341 29.6477C227.341 30.1098 227.222 30.5189 226.983 30.875C226.744 31.2273 226.398 31.5038 225.943 31.7045C225.492 31.9015 224.949 32 224.312 32H220.142ZM221.739 30.5795H224.312C224.733 30.5795 225.063 30.4792 225.301 30.2784C225.54 30.0777 225.659 29.8049 225.659 29.4602C225.659 29.0549 225.54 28.7367 225.301 28.5057C225.063 28.2708 224.733 28.1534 224.312 28.1534H221.739V30.5795ZM221.739 26.9091H223.778C224.097 26.9091 224.369 26.8636 224.597 26.7727C224.828 26.6818 225.004 26.553 225.125 26.3864C225.25 26.2159 225.312 26.0152 225.312 25.7841C225.312 25.447 225.174 25.1837 224.898 24.9943C224.621 24.8049 224.242 24.7102 223.761 24.7102H221.739V26.9091ZM232.966 32.1761C232.106 32.1761 231.366 31.9924 230.744 31.625C230.127 31.2538 229.65 30.733 229.312 30.0625C228.979 29.3883 228.812 28.5985 228.812 27.6932C228.812 26.7992 228.979 26.0114 229.312 25.3295C229.65 24.6477 230.119 24.1155 230.722 23.733C231.328 23.3504 232.036 23.1591 232.847 23.1591C233.339 23.1591 233.816 23.2405 234.278 23.4034C234.741 23.5663 235.155 23.822 235.523 24.1705C235.89 24.5189 236.18 24.9716 236.392 25.5284C236.604 26.0814 236.71 26.7538 236.71 27.5455V28.1477H229.773V26.875H235.045C235.045 26.428 234.955 26.0322 234.773 25.6875C234.591 25.339 234.335 25.0644 234.006 24.8636C233.68 24.6629 233.297 24.5625 232.858 24.5625C232.381 24.5625 231.964 24.6799 231.608 24.9148C231.256 25.1458 230.983 25.4489 230.79 25.8239C230.6 26.1951 230.506 26.5985 230.506 27.0341V28.0284C230.506 28.6117 230.608 29.108 230.812 29.517C231.021 29.9261 231.311 30.2386 231.682 30.4545C232.053 30.6667 232.487 30.7727 232.983 30.7727C233.305 30.7727 233.598 30.7273 233.864 30.6364C234.129 30.5417 234.358 30.4015 234.551 30.2159C234.744 30.0303 234.892 29.8011 234.994 29.5284L236.602 29.8182C236.473 30.2917 236.242 30.7064 235.909 31.0625C235.58 31.4148 235.165 31.6894 234.665 31.8864C234.169 32.0795 233.602 32.1761 232.966 32.1761ZM244.51 26.9034V28.375H239.783V26.9034H244.51ZM240.26 23.2727V32H238.595V23.2727H240.26ZM245.697 23.2727V32H244.038V23.2727H245.697ZM246.888 24.7386V23.2727H254.251V24.7386H251.405V32H249.746V24.7386H246.888ZM257.906 28.6534V28.5455C257.914 27.8409 257.984 27.2803 258.116 26.8636C258.253 26.447 258.446 26.1098 258.696 25.8523C258.946 25.5947 259.247 25.3598 259.599 25.1477C259.827 25.0038 260.031 24.8428 260.213 24.6648C260.395 24.4867 260.539 24.2822 260.645 24.0511C260.751 23.8201 260.804 23.5644 260.804 23.2841C260.804 22.947 260.724 22.6553 260.565 22.4091C260.406 22.1629 260.194 21.9735 259.929 21.8409C259.668 21.7045 259.376 21.6364 259.054 21.6364C258.762 21.6364 258.484 21.697 258.219 21.8182C257.954 21.9394 257.734 22.1288 257.56 22.3864C257.385 22.6402 257.285 22.9678 257.259 23.3693H255.531C255.558 22.6875 255.73 22.1117 256.048 21.642C256.366 21.1686 256.787 20.8106 257.31 20.5682C257.836 20.3258 258.418 20.2045 259.054 20.2045C259.751 20.2045 260.361 20.3352 260.884 20.5966C261.406 20.8542 261.812 21.2159 262.099 21.6818C262.391 22.1439 262.537 22.6837 262.537 23.3011C262.537 23.7254 262.471 24.108 262.338 24.4489C262.205 24.786 262.016 25.0871 261.77 25.3523C261.527 25.6174 261.236 25.8523 260.895 26.0568C260.573 26.2576 260.312 26.4659 260.111 26.6818C259.914 26.8977 259.77 27.1534 259.679 27.4489C259.588 27.7443 259.539 28.1098 259.531 28.5455V28.6534H257.906ZM258.764 32.108C258.454 32.108 258.187 31.9981 257.963 31.7784C257.74 31.5549 257.628 31.286 257.628 30.9716C257.628 30.661 257.74 30.3958 257.963 30.1761C258.187 29.9527 258.454 29.8409 258.764 29.8409C259.071 29.8409 259.336 29.9527 259.56 30.1761C259.787 30.3958 259.901 30.661 259.901 30.9716C259.901 31.1799 259.848 31.3712 259.741 31.5455C259.639 31.7159 259.503 31.8523 259.332 31.9545C259.162 32.0568 258.973 32.108 258.764 32.108Z" fill="white"/>
</g>
<defs>
<filter id="filter0_d_1_3269" x="8.9899" y="35.8452" width="40.8086" height="47.0095" filterUnits="userSpaceOnUse" color-interpolation-filters="sRGB">
<feFlood flood-opacity="0" result="BackgroundImageFix"/>
<feColorMatrix in="SourceAlpha" type="matrix" values="0 0 0 0 0 0 0 0 0 0 0 0 0 0 0 0 0 0 127 0" result="hardAlpha"/>
<feOffset dy="2.18956"/>
<feGaussianBlur stdDeviation="3.28435"/>
<feColorMatrix type="matrix" values="0 0 0 0 0 0 0 0 0 0 0 0 0 0 0 0 0 0 0.4 0"/>
<feBlend mode="normal" in2="BackgroundImageFix" result="effect1_dropShadow_1_3269"/>
<feBlend mode="normal" in="SourceGraphic" in2="effect1_dropShadow_1_3269" result="shape"/>
</filter>
<filter id="filter1_d_1_3269" x="32" y="0" width="266" height="60" filterUnits="userSpaceOnUse" color-interpolation-filters="sRGB">
<feFlood flood-opacity="0" result="BackgroundImageFix"/>
<feColorMatrix in="SourceAlpha" type="matrix" values="0 0 0 0 0 0 0 0 0 0 0 0 0 0 0 0 0 0 127 0" result="hardAlpha"/>
<feOffset dx="4" dy="4"/>
<feGaussianBlur stdDeviation="5"/>
<feComposite in2="hardAlpha" operator="out"/>
<feColorMatrix type="matrix" values="0 0 0 0 0.415686 0 0 0 0 0.466667 0 0 0 0 0.588235 0 0 0 0.16 0"/>
<feBlend mode="normal" in2="BackgroundImageFix" result="effect1_dropShadow_1_3269"/>
<feBlend mode="normal" in="SourceGraphic" in2="effect1_dropShadow_1_3269" result="shape"/>
</filter>
</defs>
</svg>
