<svg width="1440" height="917" viewBox="0 0 1440 917" fill="none" xmlns="http://www.w3.org/2000/svg">
<path d="M-1164.34 460.79L-1346.98 327.09L-1171.29 -33.31L-1547.98 184.22L-1663 -14.95L-960.61 -420.56L-799.73 -270.57L-860.58 -145.77L-261.36 -716L-80.09 -579.56L-406.15 46.28L57.83 -218.91L213.67 -177.95L345.01 42.35L627.57 -214.18L782.17 -43.89L395.53 307.14L219.45 280.89L73.9301 36.81L-632.02 440.28L-791.07 287.3L-603.3 -73.1L-1164.34 460.79Z" fill="#5B42DC"/>
<path d="M542.67 1765.19L366.53 1657.9L334.78 1065.9L-624.57 1752.01L-770 1548.67L374.68 730L572.22 824.98L606.4 1462.32L2107.11 786.65L2209.74 1014.61L542.67 1765.19Z" fill="#5B42DC"/>
<path d="M379.553 264.02C379.878 267.403 381.388 270.562 384.083 273.498C386.778 276.434 389.815 278.229 393.196 278.883C396.579 279.459 399.8 278.343 402.858 275.536C405.917 272.729 407.283 269.634 406.958 266.251C406.636 262.79 405.128 259.591 402.433 256.655C399.738 253.719 396.699 251.963 393.315 251.388C389.935 250.733 386.716 251.81 383.658 254.617C380.599 257.424 379.231 260.558 379.553 264.02ZM394.413 284.753L398.119 288.79L391.941 294.46L352.641 251.644L358.819 245.973L373.753 262.243C373.321 256.78 375.286 252.045 379.65 248.04C382.178 245.72 384.81 244.168 387.547 243.384C390.324 242.563 392.973 242.461 395.493 243.078C398.054 243.658 400.421 244.64 402.594 246.026C404.771 247.334 406.777 248.987 408.611 250.985C410.445 252.983 411.939 255.143 413.093 257.464C414.251 259.708 415.009 262.13 415.368 264.731C415.767 267.294 415.439 269.924 414.383 272.621C413.368 275.281 411.597 277.771 409.068 280.092C404.705 284.097 399.82 285.65 394.413 284.753ZM415.965 238.938L432.603 223.667C429.987 221.635 427.33 220.542 424.634 220.387C421.941 220.155 419.391 221.142 416.985 223.351C414.579 225.559 413.357 228.033 413.318 230.774C413.282 233.436 414.165 236.157 415.965 238.938ZM440.417 233.286L446.718 227.503C450.953 235.637 449.257 243.204 441.632 250.203C436.78 254.657 431.669 256.455 426.299 255.599C420.93 254.742 416.224 252.111 412.181 247.707C408.139 243.303 405.921 238.39 405.526 232.967C405.132 227.544 407.361 222.605 412.213 218.151C417.066 213.697 422.177 211.899 427.546 212.756C432.916 213.612 437.621 216.243 441.664 220.647L443.18 222.298L419.936 243.632C422.651 246.099 425.488 247.553 428.446 247.993C431.408 248.355 434.194 247.338 436.804 244.942C440.8 241.274 442.005 237.389 440.417 233.286ZM463.575 195.238L480.212 179.968C477.596 177.936 474.94 176.843 472.243 176.688C469.55 176.455 467.001 177.443 464.595 179.651C462.189 181.86 460.967 184.334 460.928 187.075C460.892 189.737 461.774 192.458 463.575 195.238ZM488.027 189.587L494.327 183.804C498.562 191.938 496.867 199.504 489.242 206.503C484.389 210.957 479.278 212.756 473.909 211.899C468.539 211.043 463.833 208.412 459.791 204.008C455.749 199.604 453.53 194.691 453.136 189.268C452.741 183.845 454.97 178.906 459.823 174.452C464.675 169.998 469.786 168.2 475.156 169.056C480.525 169.913 485.231 172.543 489.273 176.947L490.789 178.599L467.546 199.933C470.261 202.4 473.098 203.853 476.056 204.293C479.018 204.655 481.804 203.639 484.413 201.243C488.41 197.575 489.614 193.69 488.027 189.587ZM498.372 167.807L476.411 160.579L483.078 154.459L503.382 161.969L503.504 161.857L497.758 140.985L504.425 134.866L509.749 157.364L533.353 164.663L526.502 170.951L504.739 163.202L504.617 163.315L510.477 185.66L503.626 191.948L498.372 167.807ZM553.544 145.68C552.267 148.054 550.548 150.233 548.386 152.216C545.654 154.724 542.863 155.858 540.014 155.619C537.164 155.379 534.43 153.832 531.81 150.978L516.09 133.851L510.646 138.848L505.818 133.587L511.261 128.591L503.401 120.027L509.579 114.357L517.439 122.92L525.697 115.341L530.525 120.601L522.268 128.181L537.538 144.818C539.934 147.428 542.273 147.685 544.557 145.589C546.269 144.017 547.618 142.253 548.603 140.297L553.544 145.68ZM559.32 140.828L531.249 110.245L537.426 104.575L541.749 109.285L541.872 109.172C541.058 107.139 540.98 104.844 541.638 102.287C542.336 99.6923 543.787 97.3843 545.989 95.3631L547.334 94.128L553.005 100.306C552.488 100.48 551.659 101.09 550.517 102.138C548.274 104.197 547.084 106.83 546.947 110.036C546.85 113.205 548 116.094 550.395 118.704L565.498 135.158L559.32 140.828ZM592.545 95.9067C592.223 92.4455 590.715 89.2469 588.02 86.3109C585.325 83.3749 582.286 81.619 578.902 81.0432C575.522 80.3892 572.303 81.4657 569.245 84.2729C566.186 87.08 564.818 90.2142 565.14 93.6753C565.465 97.0583 566.975 100.218 569.67 103.154C572.365 106.09 575.403 107.885 578.783 108.539C582.166 109.115 585.387 107.999 588.446 105.192C591.504 102.385 592.87 99.2896 592.545 95.9067ZM608.234 95.9322L602.056 101.603L598.35 97.5656C598.782 103.029 596.817 107.764 592.454 111.769C589.925 114.089 587.272 115.66 584.495 116.481C581.758 117.265 579.11 117.367 576.549 116.787C574.029 116.17 571.681 115.208 569.504 113.9C567.33 112.514 565.326 110.822 563.492 108.824C561.658 106.826 560.163 104.705 559.005 102.462C557.851 100.14 557.074 97.6979 556.675 95.1344C556.316 92.5335 556.644 89.9033 557.659 87.2437C558.715 84.5467 560.506 82.0379 563.035 79.7173C567.398 75.7124 572.283 74.1588 577.69 75.0563L573.984 71.0193L580.162 65.3489L608.234 95.9322Z" fill="#F2F2F2"/>
</svg>
