<svg width="46" height="46" viewBox="0 0 46 46" fill="none" xmlns="http://www.w3.org/2000/svg">
<path d="M40.9688 23C40.9688 23.5719 40.7416 24.1203 40.3372 24.5247C39.9328 24.9291 39.3844 25.1562 38.8125 25.1562H7.1875C6.61563 25.1562 6.06718 24.9291 5.6628 24.5247C5.25843 24.1203 5.03125 23.5719 5.03125 23C5.03125 22.4281 5.25843 21.8797 5.6628 21.4753C6.06718 21.0709 6.61563 20.8438 7.1875 20.8438H38.8125C39.3844 20.8438 39.9328 21.0709 40.3372 21.4753C40.7416 21.8797 40.9688 22.4281 40.9688 23ZM7.1875 13.6562H38.8125C39.3844 13.6562 39.9328 13.4291 40.3372 13.0247C40.7416 12.6203 40.9688 12.0719 40.9688 11.5C40.9688 10.9281 40.7416 10.3797 40.3372 9.9753C39.9328 9.57093 39.3844 9.34375 38.8125 9.34375H7.1875C6.61563 9.34375 6.06718 9.57093 5.6628 9.9753C5.25843 10.3797 5.03125 10.9281 5.03125 11.5C5.03125 12.0719 5.25843 12.6203 5.6628 13.0247C6.06718 13.4291 6.61563 13.6562 7.1875 13.6562ZM38.8125 32.3438H7.1875C6.61563 32.3438 6.06718 32.5709 5.6628 32.9753C5.25843 33.3797 5.03125 33.9281 5.03125 34.5C5.03125 35.0719 5.25843 35.6203 5.6628 36.0247C6.06718 36.4291 6.61563 36.6562 7.1875 36.6562H38.8125C39.3844 36.6562 39.9328 36.4291 40.3372 36.0247C40.7416 35.6203 40.9688 35.0719 40.9688 34.5C40.9688 33.9281 40.7416 33.3797 40.3372 32.9753C39.9328 32.5709 39.3844 32.3438 38.8125 32.3438Z" fill="#5B42DC"/>
</svg>
