<svg width="115" height="115" viewBox="0 0 115 115" fill="none" xmlns="http://www.w3.org/2000/svg">
<path d="M53.601 2.92503C55.9114 1.19177 59.0886 1.19177 61.399 2.92503L68.2415 8.05829C69.5808 9.06304 71.2562 9.51197 72.9185 9.31149L81.4109 8.2872C84.2783 7.94135 87.0299 9.52995 88.1641 12.1862L91.5232 20.053C92.1807 21.5927 93.4073 22.8193 94.947 23.4768L102.814 26.8359C105.47 27.9701 107.059 30.7217 106.713 33.5891L105.689 42.0815C105.488 43.7438 105.937 45.4192 106.942 46.7585L112.075 53.601C113.808 55.9114 113.808 59.0886 112.075 61.399L106.942 68.2415C105.937 69.5808 105.488 71.2562 105.689 72.9185L106.713 81.4109C107.059 84.2783 105.47 87.0299 102.814 88.1641L94.947 91.5232C93.4073 92.1807 92.1807 93.4073 91.5232 94.947L88.1641 102.814C87.0299 105.47 84.2783 107.059 81.4109 106.713L72.9185 105.689C71.2562 105.488 69.5808 105.937 68.2415 106.942L61.399 112.075C59.0886 113.808 55.9114 113.808 53.601 112.075L46.7585 106.942C45.4192 105.937 43.7438 105.488 42.0815 105.689L33.5891 106.713C30.7217 107.059 27.9701 105.47 26.8359 102.814L23.4768 94.947C22.8193 93.4073 21.5927 92.1807 20.053 91.5232L12.1862 88.1641C9.52995 87.0299 7.94135 84.2783 8.2872 81.4109L9.31149 72.9185C9.51197 71.2562 9.06304 69.5808 8.0583 68.2415L2.92503 61.399C1.19177 59.0886 1.19177 55.9114 2.92503 53.601L8.05829 46.7585C9.06304 45.4192 9.51197 43.7438 9.31149 42.0815L8.2872 33.5891C7.94135 30.7217 9.52995 27.9701 12.1862 26.8359L20.053 23.4768C21.5927 22.8193 22.8193 21.5927 23.4768 20.053L26.8359 12.1862C27.9701 9.52995 30.7217 7.94135 33.5891 8.2872L42.0815 9.31149C43.7438 9.51197 45.4192 9.06304 46.7585 8.05829L53.601 2.92503Z" fill="#F2F2F2"/>
<g clip-path="url(#clip0_1_2521)">
<path d="M57.4983 29.7129C47.2062 29.7129 38.832 38.0871 38.832 48.3792C38.832 54.9082 42.2676 60.935 47.7485 64.3014V69.2291H54.6633V62.2306L52.6398 59.0826C48.4545 57.1792 45.7505 52.9757 45.7505 48.3792C45.7505 41.8975 51.0239 36.6277 57.502 36.6277C63.98 36.6277 69.2535 41.9011 69.2535 48.3792C69.2535 52.9757 66.5494 57.1792 62.3605 59.0826L60.337 62.2306V69.2291H67.2518V64.3014C72.7327 60.935 76.1683 54.9082 76.1683 48.3792C76.1683 38.0871 67.7941 29.7129 57.502 29.7129H57.4983Z" fill="#5B42DC"/>
<path d="M47.7969 71.6719V78.5867H58.0926L53.5507 82.4662L58.0417 87.7251L69.7095 77.7569L67.464 71.6719H47.7969Z" fill="#5B42DC"/>
</g>
<defs>
<clipPath id="clip0_1_2521">
<rect width="75" height="70" fill="white" transform="translate(20 23)"/>
</clipPath>
</defs>
</svg>
