<svg width="72" height="28" viewBox="0 0 72 28" fill="none" xmlns="http://www.w3.org/2000/svg">
<path d="M6 14.2724L3.36382 11.6362L6 9L8.63618 11.6362L6 14.2724ZM9.36382 17.6362L6.72763 15L9.36382 12.3638L12 15L9.36382 17.6362ZM2.63618 17.6362L0 15L2.63618 12.3638L5.27237 15L2.63618 17.6362ZM6 21L3.36382 18.3638L6 15.7276L8.63618 18.3638L6 21Z" fill="#5B42DC"/>
<path d="M20.98 15.374H22.464C22.2867 16.522 21.848 17.4413 21.148 18.132C20.4573 18.8227 19.468 19.168 18.18 19.168C17.396 19.168 16.7007 19.028 16.094 18.748C15.4873 18.4587 15.002 18.0713 14.638 17.586C14.274 17.1007 13.9987 16.564 13.812 15.976C13.6347 15.388 13.546 14.7627 13.546 14.1C13.546 13.4373 13.6347 12.812 13.812 12.224C13.9987 11.636 14.274 11.0993 14.638 10.614C15.002 10.1287 15.4873 9.746 16.094 9.466C16.7007 9.17667 17.396 9.032 18.18 9.032C19.468 9.032 20.4573 9.37733 21.148 10.068C21.848 10.7587 22.2867 11.678 22.464 12.826H20.98C20.672 11.2113 19.7387 10.404 18.18 10.404C17.1347 10.404 16.346 10.7633 15.814 11.482C15.282 12.2007 15.016 13.0733 15.016 14.1C15.016 15.1267 15.282 15.9993 15.814 16.718C16.346 17.4367 17.1347 17.796 18.18 17.796C19.7387 17.796 20.672 16.9887 20.98 15.374ZM29.7838 19H28.3698V14.842C28.3698 14.2447 28.2578 13.8107 28.0338 13.54C27.8191 13.26 27.4598 13.12 26.9558 13.12C26.3771 13.12 25.9105 13.3113 25.5558 13.694C25.2011 14.0673 25.0238 14.5853 25.0238 15.248V19H23.6098V9.2H25.0238V13.036C25.5091 12.2333 26.2511 11.832 27.2498 11.832C28.9391 11.832 29.7838 12.8213 29.7838 14.8V19ZM31.3695 10.348C31.2109 10.18 31.1315 9.97467 31.1315 9.732C31.1315 9.48933 31.2109 9.28867 31.3695 9.13C31.5375 8.962 31.7429 8.878 31.9855 8.878C32.2282 8.878 32.4289 8.962 32.5875 9.13C32.7555 9.28867 32.8395 9.48933 32.8395 9.732C32.8395 9.97467 32.7555 10.18 32.5875 10.348C32.4289 10.5067 32.2282 10.586 31.9855 10.586C31.7429 10.586 31.5375 10.5067 31.3695 10.348ZM31.2715 19V12H32.6855V19H31.2715ZM36.1758 13.806C35.8305 14.2633 35.6578 14.828 35.6578 15.5C35.6578 16.172 35.8305 16.7413 36.1758 17.208C36.5305 17.6653 37.0578 17.894 37.7578 17.894C38.4578 17.894 38.9805 17.6653 39.3258 17.208C39.6805 16.7413 39.8578 16.172 39.8578 15.5C39.8578 14.828 39.6805 14.2633 39.3258 13.806C38.9805 13.3393 38.4578 13.106 37.7578 13.106C37.0578 13.106 36.5305 13.3393 36.1758 13.806ZM35.6578 18.076V21.73H34.2438V12H35.6578V12.924C36.2271 12.196 37.0111 11.832 38.0098 11.832C38.5885 11.832 39.0925 11.9393 39.5218 12.154C39.9605 12.3687 40.3011 12.658 40.5438 13.022C40.7958 13.386 40.9778 13.778 41.0898 14.198C41.2111 14.6087 41.2718 15.0427 41.2718 15.5C41.2718 15.9573 41.2111 16.396 41.0898 16.816C40.9778 17.2267 40.7958 17.614 40.5438 17.978C40.3011 18.342 39.9605 18.6313 39.5218 18.846C39.0925 19.0607 38.5885 19.168 38.0098 19.168C37.0111 19.168 36.2271 18.804 35.6578 18.076ZM42.005 16.914H43.419C43.4564 17.278 43.615 17.558 43.895 17.754C44.175 17.9407 44.5204 18.034 44.931 18.034C45.351 18.034 45.7057 17.95 45.995 17.782C46.2937 17.614 46.443 17.362 46.443 17.026C46.443 16.7367 46.2937 16.522 45.995 16.382C45.7057 16.242 45.3464 16.1393 44.917 16.074C44.497 16.0087 44.077 15.9247 43.657 15.822C43.237 15.7193 42.8777 15.5187 42.579 15.22C42.2897 14.9213 42.145 14.5153 42.145 14.002C42.145 13.2833 42.411 12.742 42.943 12.378C43.475 12.014 44.1284 11.832 44.903 11.832C45.6497 11.832 46.2797 12.0233 46.793 12.406C47.3064 12.7793 47.591 13.33 47.647 14.058H46.261C46.2237 13.694 46.079 13.4233 45.827 13.246C45.5844 13.0593 45.2717 12.966 44.889 12.966C44.5157 12.966 44.1984 13.0453 43.937 13.204C43.685 13.3533 43.559 13.596 43.559 13.932C43.559 14.212 43.7037 14.422 43.993 14.562C44.2917 14.702 44.651 14.8047 45.071 14.87C45.5004 14.926 45.925 15.0053 46.345 15.108C46.765 15.2107 47.1197 15.416 47.409 15.724C47.7077 16.0227 47.857 16.4333 47.857 16.956C47.857 17.6747 47.5724 18.2253 47.003 18.608C46.4337 18.9813 45.7477 19.168 44.945 19.168C44.1517 19.168 43.475 18.9767 42.915 18.594C42.355 18.202 42.0517 17.642 42.005 16.914Z" fill="#5B42DC"/>
</svg>
