<svg width="1440" height="259" viewBox="0 0 1440 259" fill="none" xmlns="http://www.w3.org/2000/svg">
<path d="M21.1129 113.475C29.9796 113.475 37.8546 114.992 44.7379 118.025C51.7379 121.059 57.2796 125.142 61.3629 130.275C65.4462 135.292 68.4796 140.834 70.4629 146.9C72.5629 152.967 73.6129 159.325 73.6129 165.975C73.6129 172.625 72.5629 178.984 70.4629 185.05C68.4796 191.117 65.4462 196.717 61.3629 201.85C57.2796 206.867 51.7379 210.892 44.7379 213.925C37.8546 216.959 29.9796 218.475 21.1129 218.475H-19.1371V113.475H21.1129ZM21.1129 201.85C32.4296 201.85 40.9462 198.35 46.6629 191.35C52.3796 184.234 55.2379 175.775 55.2379 165.975C55.2379 156.175 52.3796 147.775 46.6629 140.775C40.9462 133.659 32.4296 130.1 21.1129 130.1H-0.762108V201.85H21.1129ZM113.398 172.975V202.2H171.673V218.475H95.023V113.475H169.923V129.75H113.398V157.75H164.848V172.975H113.398ZM187.486 186.8H205.861C206.444 192.634 209.128 197.067 213.911 200.1C218.694 203.134 224.528 204.65 231.411 204.65C238.178 204.65 244.069 203.309 249.086 200.625C254.103 197.825 256.611 193.917 256.611 188.9C256.611 184.35 254.336 180.967 249.786 178.75C245.236 176.534 239.694 174.959 233.161 174.025C226.628 172.975 220.094 171.75 213.561 170.35C207.028 168.834 201.486 165.859 196.936 161.425C192.386 156.992 190.111 150.925 190.111 143.225C190.111 136.109 192.094 130.1 196.061 125.2C200.028 120.3 204.986 116.8 210.936 114.7C217.003 112.484 223.653 111.375 230.886 111.375C241.969 111.375 251.303 114.234 258.886 119.95C266.586 125.667 270.844 134.009 271.661 144.975H253.286C252.586 139.025 250.194 134.592 246.111 131.675C242.144 128.642 237.069 127.125 230.886 127.125C224.469 127.125 219.103 128.467 214.786 131.15C210.586 133.717 208.486 137.625 208.486 142.875C208.486 147.192 210.761 150.459 215.311 152.675C219.861 154.775 225.403 156.292 231.936 157.225C238.469 158.159 245.003 159.384 251.536 160.9C258.069 162.417 263.611 165.45 268.161 170C272.711 174.55 274.986 180.734 274.986 188.55C274.986 198.934 270.728 206.867 262.211 212.35C253.694 217.834 243.369 220.575 231.236 220.575C219.569 220.575 209.536 217.717 201.136 212C192.853 206.167 188.303 197.767 187.486 186.8ZM297.025 218.475V113.475H315.4V218.475H297.025ZM339.985 186.275C337.885 179.859 336.835 173.092 336.835 165.975C336.835 158.859 337.885 152.15 339.985 145.85C342.085 139.434 345.235 133.659 349.435 128.525C353.635 123.275 359.235 119.134 366.235 116.1C373.351 112.95 381.401 111.375 390.385 111.375C404.851 111.375 416.11 114.934 424.16 122.05C432.21 129.05 437.401 138.442 439.735 150.225H421.01C417.043 135.642 406.835 128.35 390.385 128.35C378.718 128.35 369.91 132.025 363.96 139.375C358.126 146.725 355.21 155.592 355.21 165.975C355.21 176.475 358.185 185.4 364.135 192.75C370.085 200.1 378.951 203.775 390.735 203.775C409.751 203.775 420.426 195.259 422.76 178.225H390.385V163.525H440.96V218.475H429.06L426.61 203.775C419.843 214.975 407.768 220.575 390.385 220.575C381.401 220.575 373.351 219.059 366.235 216.025C359.235 212.875 353.635 208.734 349.435 203.6C345.235 198.35 342.085 192.575 339.985 186.275ZM501.532 113.475L544.232 213.225H544.582V113.475H562.957V218.475H529.007L486.307 118.725H485.957V218.475H467.582V113.475H501.532Z" fill="#5B42DC"/>
<path d="M852.036 113.475L877.761 213.225H878.111L903.836 113.475H937.436V218.475H919.061V118.725H918.711L892.986 218.475H862.886L837.161 118.725H836.811V218.475H818.436V113.475H852.036ZM984.809 172.975V202.2H1043.08V218.475H966.434V113.475H1041.33V129.75H984.809V157.75H1036.26V172.975H984.809ZM1084.27 172.975V202.2H1142.55V218.475H1065.9V113.475H1140.8V129.75H1084.27V157.75H1135.72V172.975H1084.27ZM1209.98 130.1V218.475H1191.61V130.1H1157.13V113.475H1244.46V130.1H1209.98ZM1337.96 175.425V113.475H1356.34V176.475C1356.34 181.842 1355.58 186.975 1354.06 191.875C1352.54 196.659 1350.09 201.325 1346.71 205.875C1343.44 210.309 1338.66 213.867 1332.36 216.55C1326.06 219.234 1318.59 220.575 1309.96 220.575C1301.33 220.575 1293.86 219.234 1287.56 216.55C1281.26 213.867 1276.42 210.309 1273.04 205.875C1269.77 201.325 1267.38 196.659 1265.86 191.875C1264.34 186.975 1263.59 181.842 1263.59 176.475V113.475H1281.96V175.425C1281.96 183.242 1284.12 189.95 1288.44 195.55C1292.87 201.15 1300.04 203.95 1309.96 203.95C1319.88 203.95 1326.99 201.15 1331.31 195.55C1335.74 189.95 1337.96 183.242 1337.96 175.425ZM1430.5 129.75H1401.97V167.9H1430.5C1435.98 167.9 1440.53 166.092 1444.15 162.475C1447.76 158.859 1449.57 154.309 1449.57 148.825C1449.57 143.342 1447.76 138.792 1444.15 135.175C1440.53 131.559 1435.98 129.75 1430.5 129.75ZM1431.02 184.175H1401.97V218.475H1383.6V113.475H1431.02C1441.76 113.475 1450.56 116.8 1457.45 123.45C1464.45 130.1 1467.95 138.559 1467.95 148.825C1467.95 159.092 1464.45 167.55 1457.45 174.2C1450.56 180.85 1441.76 184.175 1431.02 184.175Z" fill="black"/>
<path d="M759.165 129.573L731.161 129.218L726.713 146.153L727.476 125.36L727.558 85.0502L694.914 79.4753C690.635 91.7142 684.753 109.562 678.521 128.839L678.674 106.88L646.492 100.043C646.252 100.59 622.287 155.475 601 202.344L631.58 216.228C635.86 206.806 640.245 197.062 644.529 187.495L644.165 239.934L676.99 245.034C677.149 244.52 684.465 220.973 693.763 191.568L693.729 207.276L725.73 214.434L743.27 176.988L745.237 181.484L776 168.012L759.165 129.568V129.573Z" fill="#5B42DC"/>
<path d="M668.197 173.828C679.278 173.828 688.261 164.845 688.261 153.764C688.261 142.683 679.278 133.7 668.197 133.7C657.116 133.7 648.133 142.683 648.133 153.764C648.133 164.845 657.116 173.828 668.197 173.828Z" fill="#F2F2F2"/>
<path d="M668.197 137.941C676.924 137.941 684.024 145.042 684.024 153.769C684.024 162.496 676.924 169.596 668.197 169.596C659.47 169.596 652.369 162.496 652.369 153.769C652.369 145.042 659.47 137.941 668.197 137.941ZM668.197 133.7C657.114 133.7 648.133 142.686 648.133 153.764C648.133 164.842 657.119 173.828 668.197 173.828C679.275 173.828 688.261 164.842 688.261 153.764C688.261 142.686 679.275 133.7 668.197 133.7Z" fill="black"/>
<path d="M671.441 158.745C674.785 158.745 677.496 156.034 677.496 152.69C677.496 149.346 674.785 146.635 671.441 146.635C668.097 146.635 665.387 149.346 665.387 152.69C665.387 156.034 668.097 158.745 671.441 158.745Z" fill="black"/>
<path d="M709.279 173.828C720.36 173.828 729.343 164.845 729.343 153.764C729.343 142.683 720.36 133.7 709.279 133.7C698.198 133.7 689.215 142.683 689.215 153.764C689.215 164.845 698.198 173.828 709.279 173.828Z" fill="#F2F2F2"/>
<path d="M709.279 137.941C718.006 137.941 725.106 145.042 725.106 153.769C725.106 162.496 718.006 169.596 709.279 169.596C700.552 169.596 693.451 162.496 693.451 153.769C693.451 145.042 700.552 137.941 709.279 137.941ZM709.279 133.7C698.196 133.7 689.215 142.686 689.215 153.764C689.215 164.842 698.201 173.828 709.279 173.828C720.357 173.828 729.343 164.842 729.343 153.764C729.343 142.686 720.357 133.7 709.279 133.7Z" fill="black"/>
<path d="M710.582 158.745C713.926 158.745 716.637 156.034 716.637 152.69C716.637 149.346 713.926 146.635 710.582 146.635C707.238 146.635 704.527 149.346 704.527 152.69C704.527 156.034 707.238 158.745 710.582 158.745Z" fill="black"/>
<path d="M690.51 183.791C685.463 183.791 680.698 183.791 678.012 178.614L681.773 176.657C683.088 179.185 685.074 179.521 689.843 179.545C689.953 179.536 690.068 179.531 690.188 179.531C693.124 179.531 694.621 178.754 695.71 176.657L699.472 178.614C697.274 182.836 693.71 183.652 690.951 183.758C690.812 183.777 690.668 183.791 690.514 183.791H690.51Z" fill="black"/>
<g filter="url(#filter0_d_1_3091)">
<rect width="169" height="33" transform="translate(1156 39.4753)" fill="#A1DC42"/>
<path d="M1167.16 60.9153C1167.57 61.4887 1168.23 61.7753 1169.12 61.7753C1170.01 61.7753 1170.66 61.4887 1171.06 60.9153C1171.47 60.342 1171.68 59.622 1171.68 58.7553V49.4753H1173.78V58.7553C1173.78 60.182 1173.41 61.3687 1172.66 62.3153C1171.93 63.2487 1170.75 63.7153 1169.12 63.7153C1167.49 63.7153 1166.31 63.2487 1165.56 62.3153C1164.83 61.3687 1164.46 60.182 1164.46 58.7553V57.7153H1166.56V58.7553C1166.56 59.622 1166.76 60.342 1167.16 60.9153ZM1176.59 53.4753H1178.61V59.4153C1178.61 60.2687 1178.76 60.8953 1179.07 61.2953C1179.39 61.682 1179.91 61.8753 1180.63 61.8753C1181.46 61.8753 1182.12 61.6087 1182.63 61.0753C1183.14 60.5287 1183.39 59.782 1183.39 58.8353V53.4753H1185.41V63.4753H1183.39V61.9953C1182.7 63.142 1181.64 63.7153 1180.21 63.7153C1177.8 63.7153 1176.59 62.302 1176.59 59.4753V53.4753ZM1188.24 63.4753V53.4753H1190.26V55.0153H1190.3C1190.48 54.522 1190.84 54.102 1191.38 53.7553C1191.92 53.4087 1192.56 53.2353 1193.28 53.2353H1193.72V55.2553C1193.6 55.202 1193.35 55.1753 1192.98 55.1753C1192.24 55.1753 1191.6 55.4487 1191.06 55.9953C1190.52 56.542 1190.26 57.242 1190.26 58.0953V63.4753H1188.24ZM1200.94 63.3953C1200.33 63.6087 1199.67 63.7153 1198.96 63.7153C1198.07 63.7153 1197.39 63.462 1196.92 62.9553C1196.46 62.4487 1196.22 61.7287 1196.22 60.7953V55.1953H1194.44V53.4753H1196.22V50.6753H1198.24V53.4753H1200.94V55.1953H1198.24V60.6353C1198.24 61.4887 1198.62 61.9153 1199.36 61.9153C1199.92 61.9153 1200.45 61.822 1200.94 61.6353V63.3953ZM1208.74 63.3953C1208.13 63.6087 1207.47 63.7153 1206.76 63.7153C1205.87 63.7153 1205.19 63.462 1204.72 62.9553C1204.25 62.4487 1204.02 61.7287 1204.02 60.7953V55.1953H1202.24V53.4753H1204.02V50.6753H1206.04V53.4753H1208.74V55.1953H1206.04V60.6353C1206.04 61.4887 1206.41 61.9153 1207.16 61.9153C1207.72 61.9153 1208.25 61.822 1208.74 61.6353V63.3953ZM1211.2 51.1153C1210.97 50.8753 1210.86 50.582 1210.86 50.2353C1210.86 49.8887 1210.97 49.602 1211.2 49.3753C1211.44 49.1353 1211.73 49.0153 1212.08 49.0153C1212.42 49.0153 1212.71 49.1353 1212.94 49.3753C1213.18 49.602 1213.3 49.8887 1213.3 50.2353C1213.3 50.582 1213.18 50.8753 1212.94 51.1153C1212.71 51.342 1212.42 51.4553 1212.08 51.4553C1211.73 51.4553 1211.44 51.342 1211.2 51.1153ZM1211.06 63.4753V53.4753H1213.08V63.4753H1211.06ZM1224.72 63.4753H1222.7V57.5353C1222.7 56.682 1222.54 56.062 1222.22 55.6753C1221.91 55.2753 1221.4 55.0753 1220.68 55.0753C1219.85 55.0753 1219.19 55.3487 1218.68 55.8953C1218.17 56.4287 1217.92 57.1687 1217.92 58.1153V63.4753H1215.9V53.4753H1217.92V54.9553C1218.61 53.8087 1219.67 53.2353 1221.1 53.2353C1223.51 53.2353 1224.72 54.6487 1224.72 57.4753V63.4753ZM1239.4 60.9153C1239.91 60.2487 1240.16 59.4353 1240.16 58.4753C1240.16 57.5153 1239.91 56.7087 1239.4 56.0553C1238.91 55.3887 1238.16 55.0553 1237.16 55.0553C1236.16 55.0553 1235.41 55.3887 1234.9 56.0553C1234.41 56.7087 1234.16 57.5153 1234.16 58.4753C1234.16 59.4353 1234.41 60.2487 1234.9 60.9153C1235.41 61.5687 1236.16 61.8953 1237.16 61.8953C1238.16 61.8953 1238.91 61.5687 1239.4 60.9153ZM1242.18 63.4753H1240.16V62.1553C1239.35 63.1953 1238.23 63.7153 1236.8 63.7153C1235.98 63.7153 1235.25 63.562 1234.62 63.2553C1234.01 62.9487 1233.52 62.5353 1233.16 62.0153C1232.82 61.4953 1232.56 60.942 1232.38 60.3553C1232.22 59.7553 1232.14 59.1287 1232.14 58.4753C1232.14 57.822 1232.22 57.202 1232.38 56.6153C1232.56 56.0153 1232.82 55.4553 1233.16 54.9353C1233.52 54.4153 1234.01 54.002 1234.62 53.6953C1235.25 53.3887 1235.98 53.2353 1236.8 53.2353C1238.23 53.2353 1239.35 53.7553 1240.16 54.7953V49.4753H1242.18V63.4753ZM1246.53 57.5353H1251.97C1251.84 56.7487 1251.54 56.122 1251.09 55.6553C1250.65 55.1753 1250.04 54.9353 1249.25 54.9353C1248.46 54.9353 1247.84 55.1753 1247.39 55.6553C1246.95 56.122 1246.66 56.7487 1246.53 57.5353ZM1251.79 60.5153H1253.85C1253.28 62.6487 1251.74 63.7153 1249.25 63.7153C1247.66 63.7153 1246.46 63.202 1245.65 62.1753C1244.84 61.1487 1244.43 59.9153 1244.43 58.4753C1244.43 57.0353 1244.84 55.802 1245.65 54.7753C1246.46 53.7487 1247.66 53.2353 1249.25 53.2353C1250.84 53.2353 1252.04 53.7487 1252.85 54.7753C1253.66 55.802 1254.07 57.0353 1254.07 58.4753V59.0153H1246.47C1246.55 59.8953 1246.82 60.6153 1247.27 61.1753C1247.74 61.722 1248.4 61.9953 1249.25 61.9953C1250.56 61.9953 1251.4 61.502 1251.79 60.5153ZM1255.7 60.4953H1257.72C1257.77 61.0153 1258 61.4153 1258.4 61.6953C1258.8 61.962 1259.29 62.0953 1259.88 62.0953C1260.48 62.0953 1260.99 61.9753 1261.4 61.7353C1261.83 61.4953 1262.04 61.1353 1262.04 60.6553C1262.04 60.242 1261.83 59.9353 1261.4 59.7353C1260.99 59.5353 1260.47 59.3887 1259.86 59.2953C1259.26 59.202 1258.66 59.082 1258.06 58.9353C1257.46 58.7887 1256.95 58.502 1256.52 58.0753C1256.11 57.6487 1255.9 57.0687 1255.9 56.3353C1255.9 55.3087 1256.28 54.5353 1257.04 54.0153C1257.8 53.4953 1258.73 53.2353 1259.84 53.2353C1260.91 53.2353 1261.81 53.5087 1262.54 54.0553C1263.27 54.5887 1263.68 55.3753 1263.76 56.4153H1261.78C1261.73 55.8953 1261.52 55.5087 1261.16 55.2553C1260.81 54.9887 1260.37 54.8553 1259.82 54.8553C1259.29 54.8553 1258.83 54.9687 1258.46 55.1953C1258.1 55.4087 1257.92 55.7553 1257.92 56.2353C1257.92 56.6353 1258.13 56.9353 1258.54 57.1353C1258.97 57.3353 1259.48 57.482 1260.08 57.5753C1260.69 57.6553 1261.3 57.7687 1261.9 57.9153C1262.5 58.062 1263.01 58.3553 1263.42 58.7953C1263.85 59.222 1264.06 59.8087 1264.06 60.5553C1264.06 61.582 1263.65 62.3687 1262.84 62.9153C1262.03 63.4487 1261.05 63.7153 1259.9 63.7153C1258.77 63.7153 1257.8 63.442 1257 62.8953C1256.2 62.3353 1255.77 61.5353 1255.7 60.4953ZM1266.42 51.1153C1266.2 50.8753 1266.08 50.582 1266.08 50.2353C1266.08 49.8887 1266.2 49.602 1266.42 49.3753C1266.66 49.1353 1266.96 49.0153 1267.3 49.0153C1267.65 49.0153 1267.94 49.1353 1268.16 49.3753C1268.4 49.602 1268.52 49.8887 1268.52 50.2353C1268.52 50.582 1268.4 50.8753 1268.16 51.1153C1267.94 51.342 1267.65 51.4553 1267.3 51.4553C1266.96 51.4553 1266.66 51.342 1266.42 51.1153ZM1266.28 63.4753V53.4753H1268.3V63.4753H1266.28ZM1277.81 60.8553C1278.32 60.1887 1278.57 59.382 1278.57 58.4353C1278.57 57.4887 1278.32 56.6887 1277.81 56.0353C1277.3 55.3687 1276.56 55.0353 1275.57 55.0353C1274.58 55.0353 1273.84 55.3687 1273.33 56.0353C1272.82 56.6887 1272.57 57.4887 1272.57 58.4353C1272.57 59.382 1272.82 60.1887 1273.33 60.8553C1273.84 61.5087 1274.58 61.8353 1275.57 61.8353C1276.56 61.8353 1277.3 61.5087 1277.81 60.8553ZM1278.57 63.0953V62.0953C1277.77 63.122 1276.65 63.6353 1275.21 63.6353C1274.38 63.6353 1273.66 63.482 1273.03 63.1753C1272.42 62.8687 1271.93 62.462 1271.57 61.9553C1271.22 61.4353 1270.96 60.882 1270.79 60.2953C1270.63 59.6953 1270.55 59.0753 1270.55 58.4353C1270.55 57.7953 1270.63 57.182 1270.79 56.5953C1270.96 55.9953 1271.22 55.442 1271.57 54.9353C1271.93 54.4153 1272.42 54.002 1273.03 53.6953C1273.66 53.3887 1274.38 53.2353 1275.21 53.2353C1276.65 53.2353 1277.77 53.7487 1278.57 54.7753V53.4753H1280.59V63.0953C1280.59 63.8953 1280.45 64.5953 1280.17 65.1953C1279.89 65.7953 1279.51 66.262 1279.03 66.5953C1278.55 66.942 1278.02 67.1953 1277.45 67.3553C1276.88 67.5287 1276.26 67.6153 1275.61 67.6153C1274.52 67.6153 1273.54 67.3887 1272.69 66.9353C1271.84 66.482 1271.24 65.782 1270.91 64.8353H1273.17C1273.7 65.542 1274.51 65.8953 1275.59 65.8953C1276.43 65.8953 1277.14 65.6687 1277.71 65.2153C1278.28 64.762 1278.57 64.0553 1278.57 63.0953ZM1292.02 63.4753H1290V57.5353C1290 56.682 1289.84 56.062 1289.52 55.6753C1289.22 55.2753 1288.7 55.0753 1287.98 55.0753C1287.16 55.0753 1286.49 55.3487 1285.98 55.8953C1285.48 56.4287 1285.22 57.1687 1285.22 58.1153V63.4753H1283.2V53.4753H1285.22V54.9553C1285.92 53.8087 1286.98 53.2353 1288.4 53.2353C1290.82 53.2353 1292.02 54.6487 1292.02 57.4753V63.4753ZM1296.27 57.5353H1301.71C1301.57 56.7487 1301.28 56.122 1300.83 55.6553C1300.39 55.1753 1299.77 54.9353 1298.99 54.9353C1298.2 54.9353 1297.58 55.1753 1297.13 55.6553C1296.69 56.122 1296.4 56.7487 1296.27 57.5353ZM1301.53 60.5153H1303.59C1303.01 62.6487 1301.48 63.7153 1298.99 63.7153C1297.4 63.7153 1296.2 63.202 1295.39 62.1753C1294.57 61.1487 1294.17 59.9153 1294.17 58.4753C1294.17 57.0353 1294.57 55.802 1295.39 54.7753C1296.2 53.7487 1297.4 53.2353 1298.99 53.2353C1300.57 53.2353 1301.77 53.7487 1302.59 54.7753C1303.4 55.802 1303.81 57.0353 1303.81 58.4753V59.0153H1296.21C1296.29 59.8953 1296.55 60.6153 1297.01 61.1753C1297.47 61.722 1298.13 61.9953 1298.99 61.9953C1300.29 61.9953 1301.14 61.502 1301.53 60.5153ZM1306.04 63.4753V53.4753H1308.06V55.0153H1308.1C1308.29 54.522 1308.65 54.102 1309.18 53.7553C1309.73 53.4087 1310.36 53.2353 1311.08 53.2353H1311.52V55.2553C1311.4 55.202 1311.15 55.1753 1310.78 55.1753C1310.05 55.1753 1309.41 55.4487 1308.86 55.9953C1308.33 56.542 1308.06 57.242 1308.06 58.0953V63.4753H1306.04ZM1313.41 51.1153C1313.18 50.8753 1313.07 50.582 1313.07 50.2353C1313.07 49.8887 1313.18 49.602 1313.41 49.3753C1313.65 49.1353 1313.94 49.0153 1314.29 49.0153C1314.64 49.0153 1314.92 49.1353 1315.15 49.3753C1315.39 49.602 1315.51 49.8887 1315.51 50.2353C1315.51 50.582 1315.39 50.8753 1315.15 51.1153C1314.92 51.342 1314.64 51.4553 1314.29 51.4553C1313.94 51.4553 1313.65 51.342 1313.41 51.1153ZM1313.27 63.4753V53.4753H1315.29V63.4753H1313.27Z" fill="white"/>
</g>
<g filter="url(#filter1_d_1_3091)">
<path d="M1322.25 20.8658L1341.41 8.86206L1337.25 32.0121L1332.25 23.438L1322.25 20.8658Z" fill="#A1DC42"/>
<path d="M1340.83 7.93433L1321.67 19.9382L1319.51 21.2908L1321.98 21.9265L1331.53 24.3835L1336.3 32.5632L1337.8 35.1316L1338.32 32.2058L1342.49 9.0564L1342.93 6.62085L1340.83 7.93433Z" stroke="white" stroke-width="2.18956"/>
</g>
<defs>
<filter id="filter0_d_1_3091" x="1147.24" y="35.0962" width="186.517" height="50.5165" filterUnits="userSpaceOnUse" color-interpolation-filters="sRGB">
<feFlood flood-opacity="0" result="BackgroundImageFix"/>
<feColorMatrix in="SourceAlpha" type="matrix" values="0 0 0 0 0 0 0 0 0 0 0 0 0 0 0 0 0 0 127 0" result="hardAlpha"/>
<feOffset dy="4.37913"/>
<feGaussianBlur stdDeviation="4.37913"/>
<feColorMatrix type="matrix" values="0 0 0 0 0 0 0 0 0 0 0 0 0 0 0 0 0 0 0.12 0"/>
<feBlend mode="normal" in2="BackgroundImageFix" result="effect1_dropShadow_1_3091"/>
<feBlend mode="normal" in="SourceGraphic" in2="effect1_dropShadow_1_3091" result="shape"/>
</filter>
<filter id="filter1_d_1_3091" x="1310.2" y="-0.000222921" width="40.8085" height="47.0095" filterUnits="userSpaceOnUse" color-interpolation-filters="sRGB">
<feFlood flood-opacity="0" result="BackgroundImageFix"/>
<feColorMatrix in="SourceAlpha" type="matrix" values="0 0 0 0 0 0 0 0 0 0 0 0 0 0 0 0 0 0 127 0" result="hardAlpha"/>
<feOffset dy="2.18956"/>
<feGaussianBlur stdDeviation="3.28435"/>
<feColorMatrix type="matrix" values="0 0 0 0 0 0 0 0 0 0 0 0 0 0 0 0 0 0 0.4 0"/>
<feBlend mode="normal" in2="BackgroundImageFix" result="effect1_dropShadow_1_3091"/>
<feBlend mode="normal" in="SourceGraphic" in2="effect1_dropShadow_1_3091" result="shape"/>
</filter>
</defs>
</svg>
