<svg width="204" height="86" viewBox="0 0 204 86" fill="none" xmlns="http://www.w3.org/2000/svg">
<g filter="url(#filter0_d_1_3107)">
<rect width="169" height="33" transform="translate(8.7583 39.4753)" fill="#A1DC42"/>
<path d="M19.9183 60.9153C20.3316 61.4887 20.985 61.7753 21.8783 61.7753C22.7716 61.7753 23.4183 61.4887 23.8183 60.9153C24.2316 60.342 24.4383 59.622 24.4383 58.7553V49.4753H26.5383V58.7553C26.5383 60.182 26.165 61.3687 25.4183 62.3153C24.685 63.2487 23.505 63.7153 21.8783 63.7153C20.2516 63.7153 19.065 63.2487 18.3183 62.3153C17.585 61.3687 17.2183 60.182 17.2183 58.7553V57.7153H19.3183V58.7553C19.3183 59.622 19.5183 60.342 19.9183 60.9153ZM29.3488 53.4753H31.3688V59.4153C31.3688 60.2687 31.5221 60.8953 31.8288 61.2953C32.1488 61.682 32.6688 61.8753 33.3888 61.8753C34.2154 61.8753 34.8821 61.6087 35.3888 61.0753C35.8954 60.5287 36.1488 59.782 36.1488 58.8353V53.4753H38.1688V63.4753H36.1488V61.9953C35.4554 63.142 34.3954 63.7153 32.9688 63.7153C30.5554 63.7153 29.3488 62.302 29.3488 59.4753V53.4753ZM40.9941 63.4753V53.4753H43.0141V55.0153H43.0541C43.2407 54.522 43.6007 54.102 44.1341 53.7553C44.6807 53.4087 45.3141 53.2353 46.0341 53.2353H46.4741V55.2553C46.3541 55.202 46.1074 55.1753 45.7341 55.1753C45.0007 55.1753 44.3607 55.4487 43.8141 55.9953C43.2807 56.542 43.0141 57.242 43.0141 58.0953V63.4753H40.9941ZM53.703 63.3953C53.0897 63.6087 52.4297 63.7153 51.723 63.7153C50.8297 63.7153 50.1497 63.462 49.683 62.9553C49.2163 62.4487 48.983 61.7287 48.983 60.7953V55.1953H47.203V53.4753H48.983V50.6753H51.003V53.4753H53.703V55.1953H51.003V60.6353C51.003 61.4887 51.3763 61.9153 52.123 61.9153C52.683 61.9153 53.2097 61.822 53.703 61.6353V63.3953ZM61.4983 63.3953C60.885 63.6087 60.225 63.7153 59.5183 63.7153C58.625 63.7153 57.945 63.462 57.4783 62.9553C57.0116 62.4487 56.7783 61.7287 56.7783 60.7953V55.1953H54.9983V53.4753H56.7783V50.6753H58.7983V53.4753H61.4983V55.1953H58.7983V60.6353C58.7983 61.4887 59.1716 61.9153 59.9183 61.9153C60.4783 61.9153 61.005 61.822 61.4983 61.6353V63.3953ZM63.9536 51.1153C63.7269 50.8753 63.6136 50.582 63.6136 50.2353C63.6136 49.8887 63.7269 49.602 63.9536 49.3753C64.1936 49.1353 64.4869 49.0153 64.8336 49.0153C65.1803 49.0153 65.4669 49.1353 65.6936 49.3753C65.9336 49.602 66.0536 49.8887 66.0536 50.2353C66.0536 50.582 65.9336 50.8753 65.6936 51.1153C65.4669 51.342 65.1803 51.4553 64.8336 51.4553C64.4869 51.4553 64.1936 51.342 63.9536 51.1153ZM63.8136 63.4753V53.4753H65.8336V63.4753H63.8136ZM77.4797 63.4753H75.4597V57.5353C75.4597 56.682 75.2997 56.062 74.9797 55.6753C74.673 55.2753 74.1597 55.0753 73.4397 55.0753C72.613 55.0753 71.9464 55.3487 71.4397 55.8953C70.933 56.4287 70.6797 57.1687 70.6797 58.1153V63.4753H68.6597V53.4753H70.6797V54.9553C71.373 53.8087 72.433 53.2353 73.8597 53.2353C76.273 53.2353 77.4797 54.6487 77.4797 57.4753V63.4753ZM92.1608 60.9153C92.6675 60.2487 92.9208 59.4353 92.9208 58.4753C92.9208 57.5153 92.6675 56.7087 92.1608 56.0553C91.6675 55.3887 90.9208 55.0553 89.9208 55.0553C88.9208 55.0553 88.1675 55.3887 87.6608 56.0553C87.1675 56.7087 86.9208 57.5153 86.9208 58.4753C86.9208 59.4353 87.1675 60.2487 87.6608 60.9153C88.1675 61.5687 88.9208 61.8953 89.9208 61.8953C90.9208 61.8953 91.6675 61.5687 92.1608 60.9153ZM94.9408 63.4753H92.9208V62.1553C92.1075 63.1953 90.9875 63.7153 89.5608 63.7153C88.7341 63.7153 88.0075 63.562 87.3808 63.2553C86.7675 62.9487 86.2808 62.5353 85.9208 62.0153C85.5741 61.4953 85.3141 60.942 85.1408 60.3553C84.9808 59.7553 84.9008 59.1287 84.9008 58.4753C84.9008 57.822 84.9808 57.202 85.1408 56.6153C85.3141 56.0153 85.5741 55.4553 85.9208 54.9353C86.2808 54.4153 86.7675 54.002 87.3808 53.6953C88.0075 53.3887 88.7341 53.2353 89.5608 53.2353C90.9875 53.2353 92.1075 53.7553 92.9208 54.7953V49.4753H94.9408V63.4753ZM99.2883 57.5353H104.728C104.595 56.7487 104.302 56.122 103.848 55.6553C103.408 55.1753 102.795 54.9353 102.008 54.9353C101.222 54.9353 100.602 55.1753 100.148 55.6553C99.7083 56.122 99.4216 56.7487 99.2883 57.5353ZM104.548 60.5153H106.608C106.035 62.6487 104.502 63.7153 102.008 63.7153C100.422 63.7153 99.2216 63.202 98.4083 62.1753C97.595 61.1487 97.1883 59.9153 97.1883 58.4753C97.1883 57.0353 97.595 55.802 98.4083 54.7753C99.2216 53.7487 100.422 53.2353 102.008 53.2353C103.595 53.2353 104.795 53.7487 105.608 54.7753C106.422 55.802 106.828 57.0353 106.828 58.4753V59.0153H99.2283C99.3083 59.8953 99.575 60.6153 100.028 61.1753C100.495 61.722 101.155 61.9953 102.008 61.9953C103.315 61.9953 104.162 61.502 104.548 60.5153ZM108.46 60.4953H110.48C110.533 61.0153 110.76 61.4153 111.16 61.6953C111.56 61.962 112.053 62.0953 112.64 62.0953C113.24 62.0953 113.746 61.9753 114.16 61.7353C114.586 61.4953 114.8 61.1353 114.8 60.6553C114.8 60.242 114.586 59.9353 114.16 59.7353C113.746 59.5353 113.233 59.3887 112.62 59.2953C112.02 59.202 111.42 59.082 110.82 58.9353C110.22 58.7887 109.706 58.502 109.28 58.0753C108.866 57.6487 108.66 57.0687 108.66 56.3353C108.66 55.3087 109.04 54.5353 109.8 54.0153C110.56 53.4953 111.493 53.2353 112.6 53.2353C113.666 53.2353 114.566 53.5087 115.3 54.0553C116.033 54.5887 116.44 55.3753 116.52 56.4153H114.54C114.486 55.8953 114.28 55.5087 113.92 55.2553C113.573 54.9887 113.126 54.8553 112.58 54.8553C112.046 54.8553 111.593 54.9687 111.22 55.1953C110.86 55.4087 110.68 55.7553 110.68 56.2353C110.68 56.6353 110.886 56.9353 111.3 57.1353C111.726 57.3353 112.24 57.482 112.84 57.5753C113.453 57.6553 114.06 57.7687 114.66 57.9153C115.26 58.062 115.766 58.3553 116.18 58.7953C116.606 59.222 116.82 59.8087 116.82 60.5553C116.82 61.582 116.413 62.3687 115.6 62.9153C114.786 63.4487 113.806 63.7153 112.66 63.7153C111.526 63.7153 110.56 63.442 109.76 62.8953C108.96 62.3353 108.526 61.5353 108.46 60.4953ZM119.183 51.1153C118.956 50.8753 118.843 50.582 118.843 50.2353C118.843 49.8887 118.956 49.602 119.183 49.3753C119.423 49.1353 119.716 49.0153 120.063 49.0153C120.409 49.0153 120.696 49.1353 120.923 49.3753C121.163 49.602 121.283 49.8887 121.283 50.2353C121.283 50.582 121.163 50.8753 120.923 51.1153C120.696 51.342 120.409 51.4553 120.063 51.4553C119.716 51.4553 119.423 51.342 119.183 51.1153ZM119.043 63.4753V53.4753H121.063V63.4753H119.043ZM130.569 60.8553C131.075 60.1887 131.329 59.382 131.329 58.4353C131.329 57.4887 131.075 56.6887 130.569 56.0353C130.062 55.3687 129.315 55.0353 128.329 55.0353C127.342 55.0353 126.595 55.3687 126.089 56.0353C125.582 56.6887 125.329 57.4887 125.329 58.4353C125.329 59.382 125.582 60.1887 126.089 60.8553C126.595 61.5087 127.342 61.8353 128.329 61.8353C129.315 61.8353 130.062 61.5087 130.569 60.8553ZM131.329 63.0953V62.0953C130.529 63.122 129.409 63.6353 127.969 63.6353C127.142 63.6353 126.415 63.482 125.789 63.1753C125.175 62.8687 124.689 62.462 124.329 61.9553C123.982 61.4353 123.722 60.882 123.549 60.2953C123.389 59.6953 123.309 59.0753 123.309 58.4353C123.309 57.7953 123.389 57.182 123.549 56.5953C123.722 55.9953 123.982 55.442 124.329 54.9353C124.689 54.4153 125.175 54.002 125.789 53.6953C126.415 53.3887 127.142 53.2353 127.969 53.2353C129.409 53.2353 130.529 53.7487 131.329 54.7753V53.4753H133.349V63.0953C133.349 63.8953 133.209 64.5953 132.929 65.1953C132.649 65.7953 132.269 66.262 131.789 66.5953C131.309 66.942 130.782 67.1953 130.209 67.3553C129.635 67.5287 129.022 67.6153 128.369 67.6153C127.275 67.6153 126.302 67.3887 125.449 66.9353C124.595 66.482 124.002 65.782 123.669 64.8353H125.929C126.462 65.542 127.269 65.8953 128.349 65.8953C129.189 65.8953 129.895 65.6687 130.469 65.2153C131.042 64.762 131.329 64.0553 131.329 63.0953ZM144.781 63.4753H142.761V57.5353C142.761 56.682 142.601 56.062 142.281 55.6753C141.975 55.2753 141.461 55.0753 140.741 55.0753C139.915 55.0753 139.248 55.3487 138.741 55.8953C138.235 56.4287 137.981 57.1687 137.981 58.1153V63.4753H135.961V53.4753H137.981V54.9553C138.675 53.8087 139.735 53.2353 141.161 53.2353C143.575 53.2353 144.781 54.6487 144.781 57.4753V63.4753ZM149.027 57.5353H154.467C154.333 56.7487 154.04 56.122 153.587 55.6553C153.147 55.1753 152.533 54.9353 151.747 54.9353C150.96 54.9353 150.34 55.1753 149.887 55.6553C149.447 56.122 149.16 56.7487 149.027 57.5353ZM154.287 60.5153H156.347C155.773 62.6487 154.24 63.7153 151.747 63.7153C150.16 63.7153 148.96 63.202 148.147 62.1753C147.333 61.1487 146.927 59.9153 146.927 58.4753C146.927 57.0353 147.333 55.802 148.147 54.7753C148.96 53.7487 150.16 53.2353 151.747 53.2353C153.333 53.2353 154.533 53.7487 155.347 54.7753C156.16 55.802 156.567 57.0353 156.567 58.4753V59.0153H148.967C149.047 59.8953 149.313 60.6153 149.767 61.1753C150.233 61.722 150.893 61.9953 151.747 61.9953C153.053 61.9953 153.9 61.502 154.287 60.5153ZM158.798 63.4753V53.4753H160.818V55.0153H160.858C161.045 54.522 161.405 54.102 161.938 53.7553C162.485 53.4087 163.118 53.2353 163.838 53.2353H164.278V55.2553C164.158 55.202 163.911 55.1753 163.538 55.1753C162.805 55.1753 162.165 55.4487 161.618 55.9953C161.085 56.542 160.818 57.242 160.818 58.0953V63.4753H158.798ZM166.167 51.1153C165.94 50.8753 165.827 50.582 165.827 50.2353C165.827 49.8887 165.94 49.602 166.167 49.3753C166.407 49.1353 166.7 49.0153 167.047 49.0153C167.394 49.0153 167.68 49.1353 167.907 49.3753C168.147 49.602 168.267 49.8887 168.267 50.2353C168.267 50.582 168.147 50.8753 167.907 51.1153C167.68 51.342 167.394 51.4553 167.047 51.4553C166.7 51.4553 166.407 51.342 166.167 51.1153ZM166.027 63.4753V53.4753H168.047V63.4753H166.027Z" fill="white"/>
</g>
<g filter="url(#filter1_d_1_3107)">
<path d="M175.01 20.8658L194.168 8.86206L190.004 32.0121L185.006 23.438L175.01 20.8658Z" fill="#A1DC42"/>
<path d="M193.587 7.93433L174.428 19.9382L172.269 21.2908L174.737 21.9265L184.291 24.3835L189.058 32.5632L190.554 35.1316L191.081 32.2058L195.246 9.0564L195.684 6.62085L193.587 7.93433Z" stroke="white" stroke-width="2.18956"/>
</g>
<defs>
<filter id="filter0_d_1_3107" x="4.1008e-05" y="35.0962" width="186.517" height="50.5165" filterUnits="userSpaceOnUse" color-interpolation-filters="sRGB">
<feFlood flood-opacity="0" result="BackgroundImageFix"/>
<feColorMatrix in="SourceAlpha" type="matrix" values="0 0 0 0 0 0 0 0 0 0 0 0 0 0 0 0 0 0 127 0" result="hardAlpha"/>
<feOffset dy="4.37913"/>
<feGaussianBlur stdDeviation="4.37913"/>
<feColorMatrix type="matrix" values="0 0 0 0 0 0 0 0 0 0 0 0 0 0 0 0 0 0 0.12 0"/>
<feBlend mode="normal" in2="BackgroundImageFix" result="effect1_dropShadow_1_3107"/>
<feBlend mode="normal" in="SourceGraphic" in2="effect1_dropShadow_1_3107" result="shape"/>
</filter>
<filter id="filter1_d_1_3107" x="162.96" y="-0.000222921" width="40.8085" height="47.0095" filterUnits="userSpaceOnUse" color-interpolation-filters="sRGB">
<feFlood flood-opacity="0" result="BackgroundImageFix"/>
<feColorMatrix in="SourceAlpha" type="matrix" values="0 0 0 0 0 0 0 0 0 0 0 0 0 0 0 0 0 0 127 0" result="hardAlpha"/>
<feOffset dy="2.18956"/>
<feGaussianBlur stdDeviation="3.28435"/>
<feColorMatrix type="matrix" values="0 0 0 0 0 0 0 0 0 0 0 0 0 0 0 0 0 0 0.4 0"/>
<feBlend mode="normal" in2="BackgroundImageFix" result="effect1_dropShadow_1_3107"/>
<feBlend mode="normal" in="SourceGraphic" in2="effect1_dropShadow_1_3107" result="shape"/>
</filter>
</defs>
</svg>
