<svg width="263" height="83" viewBox="0 0 263 83" fill="none" xmlns="http://www.w3.org/2000/svg">
<g filter="url(#filter0_d_1_3112)">
<path d="M233.74 56.8673L252.898 68.8711L248.734 45.721L243.736 54.2951L233.74 56.8673Z" fill="#FF8E43"/>
<path d="M252.317 69.7988L233.158 57.7949L230.999 56.4424L233.467 55.8066L243.021 53.3496L247.788 45.1699L249.284 42.6016L249.811 45.5273L253.976 68.6768L254.414 71.1123L252.317 69.7988Z" stroke="white" stroke-width="2.18956"/>
</g>
<g filter="url(#filter1_d_1_3112)">
<path d="M236 44C236 45.1046 235.105 46 234 46H26C14.9543 46 6 37.0457 6 26C6 14.9543 14.9543 6 26 6H212C225.255 6 236 16.7452 236 30V44Z" fill="#FF8E43" shape-rendering="crispEdges"/>
<path d="M30.8182 32.1761C29.9735 32.1761 29.2462 31.9848 28.6364 31.6023C28.0303 31.2159 27.5644 30.6837 27.2386 30.0057C26.9129 29.3277 26.75 28.5511 26.75 27.6761C26.75 26.7898 26.9167 26.0076 27.25 25.3295C27.5833 24.6477 28.053 24.1155 28.6591 23.733C29.2652 23.3504 29.9792 23.1591 30.8011 23.1591C31.464 23.1591 32.0549 23.2822 32.5739 23.5284C33.0928 23.7708 33.5114 24.1117 33.8295 24.5511C34.1515 24.9905 34.3428 25.5038 34.4034 26.0909H32.75C32.6591 25.6818 32.4508 25.3295 32.125 25.0341C31.803 24.7386 31.3712 24.5909 30.8295 24.5909C30.3561 24.5909 29.9413 24.7159 29.5852 24.9659C29.233 25.2121 28.9583 25.5644 28.7614 26.0227C28.5644 26.4773 28.4659 27.0152 28.4659 27.6364C28.4659 28.2727 28.5625 28.822 28.7557 29.2841C28.9489 29.7462 29.2216 30.1042 29.5739 30.358C29.9299 30.6117 30.3485 30.7386 30.8295 30.7386C31.1515 30.7386 31.4432 30.6799 31.7045 30.5625C31.9697 30.4413 32.1913 30.2689 32.3693 30.0455C32.5511 29.822 32.678 29.553 32.75 29.2386H34.4034C34.3428 29.803 34.1591 30.3068 33.8523 30.75C33.5455 31.1932 33.1345 31.5417 32.6193 31.7955C32.108 32.0492 31.5076 32.1761 30.8182 32.1761ZM35.3679 34.517V30.5284H36.0781C36.2599 30.3617 36.4134 30.1629 36.5384 29.9318C36.6671 29.7008 36.7751 29.4261 36.8622 29.108C36.9531 28.7898 37.0289 28.4186 37.0895 27.9943C37.1501 27.5663 37.2031 27.0777 37.2486 26.5284L37.5213 23.2727H43.4531V30.5284H44.794V34.517H43.1349V32H37.0497V34.517H35.3679ZM37.8963 30.5284H41.794V24.7273H39.044L38.8622 26.5284C38.7751 27.4451 38.6652 28.2405 38.5327 28.9148C38.4001 29.5852 38.188 30.1231 37.8963 30.5284ZM50.2159 32.1761C49.3561 32.1761 48.6155 31.9924 47.9943 31.625C47.3769 31.2538 46.8996 30.733 46.5625 30.0625C46.2292 29.3883 46.0625 28.5985 46.0625 27.6932C46.0625 26.7992 46.2292 26.0114 46.5625 25.3295C46.8996 24.6477 47.3693 24.1155 47.9716 23.733C48.5777 23.3504 49.286 23.1591 50.0966 23.1591C50.589 23.1591 51.0663 23.2405 51.5284 23.4034C51.9905 23.5663 52.4053 23.822 52.7727 24.1705C53.1402 24.5189 53.4299 24.9716 53.642 25.5284C53.8542 26.0814 53.9602 26.7538 53.9602 27.5455V28.1477H47.0227V26.875H52.2955C52.2955 26.428 52.2045 26.0322 52.0227 25.6875C51.8409 25.339 51.5852 25.0644 51.2557 24.8636C50.9299 24.6629 50.5473 24.5625 50.108 24.5625C49.6307 24.5625 49.214 24.6799 48.858 24.9148C48.5057 25.1458 48.233 25.4489 48.0398 25.8239C47.8504 26.1951 47.7557 26.5985 47.7557 27.0341V28.0284C47.7557 28.6117 47.858 29.108 48.0625 29.517C48.2708 29.9261 48.5606 30.2386 48.9318 30.4545C49.303 30.6667 49.7367 30.7727 50.233 30.7727C50.5549 30.7727 50.8485 30.7273 51.1136 30.6364C51.3788 30.5417 51.608 30.4015 51.8011 30.2159C51.9943 30.0303 52.142 29.8011 52.2443 29.5284L53.8523 29.8182C53.7235 30.2917 53.4924 30.7064 53.1591 31.0625C52.8295 31.4148 52.4148 31.6894 51.9148 31.8864C51.4186 32.0795 50.8523 32.1761 50.2159 32.1761ZM55.1577 32L55.152 30.5284H55.4645C55.7069 30.5284 55.9096 30.4773 56.0724 30.375C56.2391 30.2689 56.3755 30.0909 56.4815 29.8409C56.5876 29.5909 56.669 29.2462 56.7259 28.8068C56.7827 28.3636 56.8243 27.8068 56.8509 27.1364L57.0043 23.2727H63.0952V32H61.4304V24.7386H58.5781L58.4418 27.7045C58.4077 28.4242 58.3338 29.053 58.2202 29.5909C58.1103 30.1288 57.9493 30.5777 57.7372 30.9375C57.5251 31.2936 57.2524 31.5606 56.919 31.7386C56.5857 31.9129 56.1804 32 55.7031 32H55.1577ZM67.9006 32.1932C67.3475 32.1932 66.8475 32.0909 66.4006 31.8864C65.9536 31.678 65.5994 31.3769 65.3381 30.983C65.0805 30.589 64.9517 30.1061 64.9517 29.5341C64.9517 29.0417 65.0464 28.6364 65.2358 28.3182C65.4252 28 65.6809 27.7481 66.0028 27.5625C66.3248 27.3769 66.6847 27.2367 67.0824 27.142C67.4801 27.0473 67.8854 26.9754 68.2983 26.9261C68.821 26.8655 69.2453 26.8163 69.571 26.7784C69.8968 26.7367 70.1335 26.6705 70.2812 26.5795C70.429 26.4886 70.5028 26.3409 70.5028 26.1364V26.0966C70.5028 25.6004 70.3627 25.2159 70.0824 24.9432C69.8059 24.6705 69.393 24.5341 68.8438 24.5341C68.2718 24.5341 67.821 24.661 67.4915 24.9148C67.1657 25.1648 66.9403 25.4432 66.8153 25.75L65.2188 25.3864C65.4081 24.8561 65.6847 24.428 66.0483 24.1023C66.4157 23.7727 66.8381 23.5341 67.3153 23.3864C67.7926 23.2348 68.2945 23.1591 68.821 23.1591C69.1695 23.1591 69.5388 23.2008 69.929 23.2841C70.3229 23.3636 70.6903 23.5114 71.0312 23.7273C71.3759 23.9432 71.6581 24.2519 71.8778 24.6534C72.0975 25.0511 72.2074 25.5682 72.2074 26.2045V32H70.5483V30.8068H70.4801C70.3703 31.0265 70.2055 31.2424 69.9858 31.4545C69.7661 31.6667 69.4839 31.8428 69.1392 31.983C68.7945 32.1231 68.3816 32.1932 67.9006 32.1932ZM68.2699 30.8295C68.7396 30.8295 69.1411 30.7367 69.4744 30.5511C69.8116 30.3655 70.0672 30.1231 70.2415 29.8239C70.4195 29.5208 70.5085 29.197 70.5085 28.8523V27.7273C70.4479 27.7879 70.3305 27.8447 70.1562 27.8977C69.9858 27.947 69.7907 27.9905 69.571 28.0284C69.3513 28.0625 69.1373 28.0947 68.929 28.125C68.7206 28.1515 68.5464 28.1742 68.4062 28.1932C68.0767 28.2348 67.7756 28.3049 67.5028 28.4034C67.2339 28.5019 67.018 28.6439 66.8551 28.8295C66.696 29.0114 66.6165 29.2538 66.6165 29.5568C66.6165 29.9773 66.7718 30.2955 67.0824 30.5114C67.393 30.7235 67.7888 30.8295 68.2699 30.8295ZM76.1349 29.6193L79.9815 23.2727H81.8111V32H80.1463V25.6477L76.3168 32H74.4702V23.2727H76.1349V29.6193ZM79.2543 20.3182H80.652C80.652 20.9583 80.4247 21.4792 79.9702 21.8807C79.5194 22.2784 78.9096 22.4773 78.1406 22.4773C77.3755 22.4773 76.7675 22.2784 76.3168 21.8807C75.866 21.4792 75.6406 20.9583 75.6406 20.3182H77.0327C77.0327 20.6023 77.116 20.8542 77.2827 21.0739C77.4493 21.2898 77.7353 21.3977 78.1406 21.3977C78.5384 21.3977 78.8224 21.2898 78.9929 21.0739C79.1671 20.858 79.2543 20.6061 79.2543 20.3182ZM83.0128 24.7386V23.2727H90.3764V24.7386H87.5298V32H85.8707V24.7386H83.0128ZM95.5284 32.1761C94.6686 32.1761 93.928 31.9924 93.3068 31.625C92.6894 31.2538 92.2121 30.733 91.875 30.0625C91.5417 29.3883 91.375 28.5985 91.375 27.6932C91.375 26.7992 91.5417 26.0114 91.875 25.3295C92.2121 24.6477 92.6818 24.1155 93.2841 23.733C93.8902 23.3504 94.5985 23.1591 95.4091 23.1591C95.9015 23.1591 96.3788 23.2405 96.8409 23.4034C97.303 23.5663 97.7178 23.822 98.0852 24.1705C98.4527 24.5189 98.7424 24.9716 98.9545 25.5284C99.1667 26.0814 99.2727 26.7538 99.2727 27.5455V28.1477H92.3352V26.875H97.608C97.608 26.428 97.517 26.0322 97.3352 25.6875C97.1534 25.339 96.8977 25.0644 96.5682 24.8636C96.2424 24.6629 95.8598 24.5625 95.4205 24.5625C94.9432 24.5625 94.5265 24.6799 94.1705 24.9148C93.8182 25.1458 93.5455 25.4489 93.3523 25.8239C93.1629 26.1951 93.0682 26.5985 93.0682 27.0341V28.0284C93.0682 28.6117 93.1705 29.108 93.375 29.517C93.5833 29.9261 93.8731 30.2386 94.2443 30.4545C94.6155 30.6667 95.0492 30.7727 95.5455 30.7727C95.8674 30.7727 96.161 30.7273 96.4261 30.6364C96.6913 30.5417 96.9205 30.4015 97.1136 30.2159C97.3068 30.0303 97.4545 29.8011 97.5568 29.5284L99.1648 29.8182C99.036 30.2917 98.8049 30.7064 98.4716 31.0625C98.142 31.4148 97.7273 31.6894 97.2273 31.8864C96.7311 32.0795 96.1648 32.1761 95.5284 32.1761ZM105.392 32V23.2727H109.011C109.996 23.2727 110.777 23.483 111.352 23.9034C111.928 24.3201 112.216 24.8864 112.216 25.6023C112.216 26.1136 112.053 26.5189 111.727 26.8182C111.402 27.1174 110.97 27.3182 110.432 27.4205C110.822 27.4659 111.18 27.5833 111.506 27.7727C111.831 27.9583 112.093 28.2083 112.29 28.5227C112.491 28.8371 112.591 29.2121 112.591 29.6477C112.591 30.1098 112.472 30.5189 112.233 30.875C111.994 31.2273 111.648 31.5038 111.193 31.7045C110.742 31.9015 110.199 32 109.562 32H105.392ZM106.989 30.5795H109.562C109.983 30.5795 110.313 30.4792 110.551 30.2784C110.79 30.0777 110.909 29.8049 110.909 29.4602C110.909 29.0549 110.79 28.7367 110.551 28.5057C110.313 28.2708 109.983 28.1534 109.562 28.1534H106.989V30.5795ZM106.989 26.9091H109.028C109.347 26.9091 109.619 26.8636 109.847 26.7727C110.078 26.6818 110.254 26.553 110.375 26.3864C110.5 26.2159 110.562 26.0152 110.562 25.7841C110.562 25.447 110.424 25.1837 110.148 24.9943C109.871 24.8049 109.492 24.7102 109.011 24.7102H106.989V26.9091ZM115.733 26.2727H118.267C119.335 26.2727 120.157 26.5379 120.733 27.0682C121.309 27.5985 121.597 28.2822 121.597 29.1193C121.597 29.6648 121.468 30.1553 121.21 30.5909C120.953 31.0265 120.576 31.3712 120.08 31.625C119.583 31.875 118.979 32 118.267 32H114.455V23.2727H116.119V30.5341H118.267C118.756 30.5341 119.157 30.4072 119.472 30.1534C119.786 29.8958 119.943 29.5682 119.943 29.1705C119.943 28.75 119.786 28.4072 119.472 28.142C119.157 27.8731 118.756 27.7386 118.267 27.7386H115.733V26.2727ZM122.835 32V23.2727H124.534V32H122.835ZM126.814 35.2727V23.2727H128.473V24.6875H128.615C128.714 24.5057 128.856 24.2955 129.041 24.0568C129.227 23.8182 129.484 23.6098 129.814 23.4318C130.143 23.25 130.579 23.1591 131.121 23.1591C131.825 23.1591 132.454 23.3371 133.007 23.6932C133.56 24.0492 133.994 24.5625 134.308 25.233C134.626 25.9034 134.786 26.7102 134.786 27.6534C134.786 28.5966 134.628 29.4053 134.314 30.0795C134 30.75 133.568 31.267 133.018 31.6307C132.469 31.9905 131.842 32.1705 131.138 32.1705C130.607 32.1705 130.174 32.0814 129.837 31.9034C129.503 31.7254 129.242 31.517 129.053 31.2784C128.863 31.0398 128.717 30.8277 128.615 30.642H128.513V35.2727H126.814ZM128.479 27.6364C128.479 28.25 128.568 28.7879 128.746 29.25C128.924 29.7121 129.181 30.0739 129.518 30.3352C129.856 30.5928 130.268 30.7216 130.757 30.7216C131.265 30.7216 131.689 30.5871 132.03 30.3182C132.371 30.0455 132.628 29.6761 132.803 29.2102C132.981 28.7443 133.07 28.2197 133.07 27.6364C133.07 27.0606 132.982 26.5436 132.808 26.0852C132.638 25.6269 132.38 25.2652 132.036 25C131.695 24.7348 131.268 24.6023 130.757 24.6023C130.265 24.6023 129.848 24.7292 129.507 24.983C129.17 25.2367 128.914 25.5909 128.74 26.0455C128.566 26.5 128.479 27.0303 128.479 27.6364ZM139.229 32.1932C138.676 32.1932 138.176 32.0909 137.729 31.8864C137.282 31.678 136.928 31.3769 136.666 30.983C136.409 30.589 136.28 30.1061 136.28 29.5341C136.28 29.0417 136.375 28.6364 136.564 28.3182C136.753 28 137.009 27.7481 137.331 27.5625C137.653 27.3769 138.013 27.2367 138.411 27.142C138.808 27.0473 139.214 26.9754 139.626 26.9261C140.149 26.8655 140.573 26.8163 140.899 26.7784C141.225 26.7367 141.462 26.6705 141.609 26.5795C141.757 26.4886 141.831 26.3409 141.831 26.1364V26.0966C141.831 25.6004 141.691 25.2159 141.411 24.9432C141.134 24.6705 140.721 24.5341 140.172 24.5341C139.6 24.5341 139.149 24.661 138.82 24.9148C138.494 25.1648 138.268 25.4432 138.143 25.75L136.547 25.3864C136.736 24.8561 137.013 24.428 137.376 24.1023C137.744 23.7727 138.166 23.5341 138.643 23.3864C139.121 23.2348 139.623 23.1591 140.149 23.1591C140.498 23.1591 140.867 23.2008 141.257 23.2841C141.651 23.3636 142.018 23.5114 142.359 23.7273C142.704 23.9432 142.986 24.2519 143.206 24.6534C143.426 25.0511 143.536 25.5682 143.536 26.2045V32H141.876V30.8068H141.808C141.698 31.0265 141.534 31.2424 141.314 31.4545C141.094 31.6667 140.812 31.8428 140.467 31.983C140.123 32.1231 139.71 32.1932 139.229 32.1932ZM139.598 30.8295C140.068 30.8295 140.469 30.7367 140.803 30.5511C141.14 30.3655 141.395 30.1231 141.57 29.8239C141.748 29.5208 141.837 29.197 141.837 28.8523V27.7273C141.776 27.7879 141.659 27.8447 141.484 27.8977C141.314 27.947 141.119 27.9905 140.899 28.0284C140.679 28.0625 140.465 28.0947 140.257 28.125C140.049 28.1515 139.875 28.1742 139.734 28.1932C139.405 28.2348 139.104 28.3049 138.831 28.4034C138.562 28.5019 138.346 28.6439 138.183 28.8295C138.024 29.0114 137.945 29.2538 137.945 29.5568C137.945 29.9773 138.1 30.2955 138.411 30.5114C138.721 30.7235 139.117 30.8295 139.598 30.8295ZM145.798 32V23.2727H149.418C150.402 23.2727 151.183 23.483 151.759 23.9034C152.334 24.3201 152.622 24.8864 152.622 25.6023C152.622 26.1136 152.459 26.5189 152.134 26.8182C151.808 27.1174 151.376 27.3182 150.838 27.4205C151.228 27.4659 151.586 27.5833 151.912 27.7727C152.238 27.9583 152.499 28.2083 152.696 28.5227C152.897 28.8371 152.997 29.2121 152.997 29.6477C152.997 30.1098 152.878 30.5189 152.639 30.875C152.401 31.2273 152.054 31.5038 151.599 31.7045C151.149 31.9015 150.605 32 149.969 32H145.798ZM147.395 30.5795H149.969C150.389 30.5795 150.719 30.4792 150.957 30.2784C151.196 30.0777 151.315 29.8049 151.315 29.4602C151.315 29.0549 151.196 28.7367 150.957 28.5057C150.719 28.2708 150.389 28.1534 149.969 28.1534H147.395V30.5795ZM147.395 26.9091H149.435C149.753 26.9091 150.026 26.8636 150.253 26.7727C150.484 26.6818 150.66 26.553 150.781 26.3864C150.906 26.2159 150.969 26.0152 150.969 25.7841C150.969 25.447 150.83 25.1837 150.554 24.9943C150.277 24.8049 149.899 24.7102 149.418 24.7102H147.395V26.9091ZM160.776 26.9034V28.375H156.048V26.9034H160.776ZM156.526 23.2727V32H154.861V23.2727H156.526ZM161.963 23.2727V32H160.304V23.2727H161.963ZM165.901 29.6193L169.747 23.2727H171.577V32H169.912V25.6477L166.082 32H164.236V23.2727H165.901V29.6193ZM173.861 32V23.2727H177.48C178.465 23.2727 179.245 23.483 179.821 23.9034C180.397 24.3201 180.685 24.8864 180.685 25.6023C180.685 26.1136 180.522 26.5189 180.196 26.8182C179.87 27.1174 179.438 27.3182 178.901 27.4205C179.291 27.4659 179.649 27.5833 179.974 27.7727C180.3 27.9583 180.562 28.2083 180.759 28.5227C180.959 28.8371 181.06 29.2121 181.06 29.6477C181.06 30.1098 180.94 30.5189 180.702 30.875C180.463 31.2273 180.116 31.5038 179.662 31.7045C179.211 31.9015 178.668 32 178.031 32H173.861ZM175.457 30.5795H178.031C178.452 30.5795 178.781 30.4792 179.02 30.2784C179.259 30.0777 179.378 29.8049 179.378 29.4602C179.378 29.0549 179.259 28.7367 179.02 28.5057C178.781 28.2708 178.452 28.1534 178.031 28.1534H175.457V30.5795ZM175.457 26.9091H177.497C177.815 26.9091 178.088 26.8636 178.315 26.7727C178.546 26.6818 178.723 26.553 178.844 26.3864C178.969 26.2159 179.031 26.0152 179.031 25.7841C179.031 25.447 178.893 25.1837 178.616 24.9943C178.34 24.8049 177.961 24.7102 177.48 24.7102H175.457V26.9091ZM185.463 32.1932C184.91 32.1932 184.41 32.0909 183.963 31.8864C183.516 31.678 183.162 31.3769 182.901 30.983C182.643 30.589 182.514 30.1061 182.514 29.5341C182.514 29.0417 182.609 28.6364 182.798 28.3182C182.988 28 183.243 27.7481 183.565 27.5625C183.887 27.3769 184.247 27.2367 184.645 27.142C185.043 27.0473 185.448 26.9754 185.861 26.9261C186.384 26.8655 186.808 26.8163 187.134 26.7784C187.459 26.7367 187.696 26.6705 187.844 26.5795C187.991 26.4886 188.065 26.3409 188.065 26.1364V26.0966C188.065 25.6004 187.925 25.2159 187.645 24.9432C187.368 24.6705 186.955 24.5341 186.406 24.5341C185.834 24.5341 185.384 24.661 185.054 24.9148C184.728 25.1648 184.503 25.4432 184.378 25.75L182.781 25.3864C182.971 24.8561 183.247 24.428 183.611 24.1023C183.978 23.7727 184.401 23.5341 184.878 23.3864C185.355 23.2348 185.857 23.1591 186.384 23.1591C186.732 23.1591 187.101 23.2008 187.491 23.2841C187.885 23.3636 188.253 23.5114 188.594 23.7273C188.938 23.9432 189.221 24.2519 189.44 24.6534C189.66 25.0511 189.77 25.5682 189.77 26.2045V32H188.111V30.8068H188.043C187.933 31.0265 187.768 31.2424 187.548 31.4545C187.329 31.6667 187.046 31.8428 186.702 31.983C186.357 32.1231 185.944 32.1932 185.463 32.1932ZM185.832 30.8295C186.302 30.8295 186.704 30.7367 187.037 30.5511C187.374 30.3655 187.63 30.1231 187.804 29.8239C187.982 29.5208 188.071 29.197 188.071 28.8523V27.7273C188.01 27.7879 187.893 27.8447 187.719 27.8977C187.548 27.947 187.353 27.9905 187.134 28.0284C186.914 28.0625 186.7 28.0947 186.491 28.125C186.283 28.1515 186.109 28.1742 185.969 28.1932C185.639 28.2348 185.338 28.3049 185.065 28.4034C184.796 28.5019 184.58 28.6439 184.418 28.8295C184.259 29.0114 184.179 29.2538 184.179 29.5568C184.179 29.9773 184.334 30.2955 184.645 30.5114C184.955 30.7235 185.351 30.8295 185.832 30.8295ZM197.947 26.9034V28.375H193.22V26.9034H197.947ZM193.697 23.2727V32H192.033V23.2727H193.697ZM199.135 23.2727V32H197.476V23.2727H199.135ZM203.072 29.6193L206.919 23.2727H208.749V32H207.084V25.6477L203.254 32H201.408V23.2727H203.072V29.6193ZM214.794 32.1761C213.934 32.1761 213.194 31.9924 212.572 31.625C211.955 31.2538 211.478 30.733 211.141 30.0625C210.807 29.3883 210.641 28.5985 210.641 27.6932C210.641 26.7992 210.807 26.0114 211.141 25.3295C211.478 24.6477 211.947 24.1155 212.55 23.733C213.156 23.3504 213.864 23.1591 214.675 23.1591C215.167 23.1591 215.644 23.2405 216.107 23.4034C216.569 23.5663 216.983 23.822 217.351 24.1705C217.718 24.5189 218.008 24.9716 218.22 25.5284C218.432 26.0814 218.538 26.7538 218.538 27.5455V28.1477H211.601V26.875H216.874C216.874 26.428 216.783 26.0322 216.601 25.6875C216.419 25.339 216.163 25.0644 215.834 24.8636C215.508 24.6629 215.125 24.5625 214.686 24.5625C214.209 24.5625 213.792 24.6799 213.436 24.9148C213.084 25.1458 212.811 25.4489 212.618 25.8239C212.429 26.1951 212.334 26.5985 212.334 27.0341V28.0284C212.334 28.6117 212.436 29.108 212.641 29.517C212.849 29.9261 213.139 30.2386 213.51 30.4545C213.881 30.6667 214.315 30.7727 214.811 30.7727C215.133 30.7727 215.427 30.7273 215.692 30.6364C215.957 30.5417 216.186 30.4015 216.379 30.2159C216.572 30.0303 216.72 29.8011 216.822 29.5284L218.43 29.8182C218.302 30.2917 218.071 30.7064 217.737 31.0625C217.408 31.4148 216.993 31.6894 216.493 31.8864C215.997 32.0795 215.43 32.1761 214.794 32.1761Z" fill="white"/>
</g>
<defs>
<filter id="filter0_d_1_3112" x="221.69" y="35.103" width="40.8086" height="47.0095" filterUnits="userSpaceOnUse" color-interpolation-filters="sRGB">
<feFlood flood-opacity="0" result="BackgroundImageFix"/>
<feColorMatrix in="SourceAlpha" type="matrix" values="0 0 0 0 0 0 0 0 0 0 0 0 0 0 0 0 0 0 127 0" result="hardAlpha"/>
<feOffset dy="2.18956"/>
<feGaussianBlur stdDeviation="3.28435"/>
<feColorMatrix type="matrix" values="0 0 0 0 0 0 0 0 0 0 0 0 0 0 0 0 0 0 0.4 0"/>
<feBlend mode="normal" in2="BackgroundImageFix" result="effect1_dropShadow_1_3112"/>
<feBlend mode="normal" in="SourceGraphic" in2="effect1_dropShadow_1_3112" result="shape"/>
</filter>
<filter id="filter1_d_1_3112" x="0" y="0" width="250" height="60" filterUnits="userSpaceOnUse" color-interpolation-filters="sRGB">
<feFlood flood-opacity="0" result="BackgroundImageFix"/>
<feColorMatrix in="SourceAlpha" type="matrix" values="0 0 0 0 0 0 0 0 0 0 0 0 0 0 0 0 0 0 127 0" result="hardAlpha"/>
<feOffset dx="4" dy="4"/>
<feGaussianBlur stdDeviation="5"/>
<feComposite in2="hardAlpha" operator="out"/>
<feColorMatrix type="matrix" values="0 0 0 0 0.415686 0 0 0 0 0.466667 0 0 0 0 0.588235 0 0 0 0.16 0"/>
<feBlend mode="normal" in2="BackgroundImageFix" result="effect1_dropShadow_1_3112"/>
<feBlend mode="normal" in="SourceGraphic" in2="effect1_dropShadow_1_3112" result="shape"/>
</filter>
</defs>
</svg>
