<svg width="206" height="191" viewBox="0 0 206 191" fill="none" xmlns="http://www.w3.org/2000/svg">
<path d="M8.41419 14.716V19H7.22419V9.2H13.2442V10.292H8.41419V13.624H12.7262V14.716H8.41419ZM14.3204 19V12H15.4684V13.092H15.4964C15.7904 12.406 16.6444 11.846 17.6804 11.846H17.9744V12.938C17.9184 12.924 17.6524 12.924 17.5684 12.924C16.4764 12.924 15.4684 13.876 15.4684 15.22V19H14.3204ZM23.9249 15.5C23.9249 14.184 23.2529 12.896 21.6289 12.896C20.0049 12.896 19.3329 14.184 19.3329 15.5C19.3329 16.816 20.0049 18.104 21.6289 18.104C23.2529 18.104 23.9249 16.816 23.9249 15.5ZM25.0729 19H23.9249V18.062C23.4069 18.72 22.6089 19.154 21.4889 19.154C19.0949 19.154 18.1849 17.292 18.1849 15.5C18.1849 13.708 19.0949 11.846 21.4889 11.846C22.6089 11.846 23.4069 12.28 23.9249 12.938V12H25.0729V19ZM32.3728 19H31.2248V14.772C31.2248 13.498 30.8608 12.896 29.8388 12.896C28.7188 12.896 27.9208 13.736 27.9208 15.206V19H26.7728V12H27.9208V13.078C28.3408 12.28 29.1248 11.846 30.0208 11.846C31.1828 11.846 31.8268 12.364 32.1348 13.204C32.5968 12.322 33.4788 11.846 34.4728 11.846C36.2368 11.846 36.8248 13.064 36.8248 14.744V19H35.6768V14.772C35.6768 13.498 35.3128 12.896 34.2908 12.896C33.1708 12.896 32.3728 13.736 32.3728 15.206V19ZM39.224 14.87H43.424C43.242 13.806 42.598 12.896 41.324 12.896C40.05 12.896 39.406 13.806 39.224 14.87ZM43.256 16.97H44.46C44.096 18.286 43.102 19.154 41.324 19.154C39 19.154 38.02 17.32 38.02 15.5C38.02 13.68 39 11.846 41.324 11.846C43.648 11.846 44.628 13.68 44.628 15.5V15.85H39.182C39.28 17.04 39.938 18.104 41.324 18.104C42.346 18.104 42.962 17.74 43.256 16.97ZM47.2693 19V11.622H45.1413V10.74C46.1773 10.67 47.1993 10.208 47.5773 9.2H48.4593V19H47.2693ZM54.3208 9.55L51.1288 15.934H54.3488V9.55H54.3208ZM56.8548 17.012H55.5388V19H54.3488V17.012H49.8548V16.06L53.2848 9.2H55.5388V15.934H56.8548V17.012ZM63.7332 10.152L61.3252 13.358C63.1592 13.554 64.0412 14.716 64.0412 16.13C64.0412 17.81 62.9492 19.154 60.6392 19.154C58.9172 19.154 57.5172 18.104 57.4752 16.312H58.6652C58.7352 17.334 59.5612 18.062 60.7512 18.062C61.8852 18.062 62.8512 17.474 62.8512 16.186C62.8512 14.884 61.8852 14.282 60.7372 14.282H60.4712L60.0232 13.33L62.3052 10.292H57.7552V9.2H63.7332V10.152Z" fill="#5B42DC"/>
<rect x="6.74119" y="28.749" width="192.227" height="155.159" stroke="#5B42DC" stroke-width="1.498"/>
<rect x="0.748998" y="22.7568" width="10.486" height="10.486" fill="#5B42DC" stroke="#5B42DC" stroke-width="1.498"/>
<rect x="0.748998" y="179.413" width="10.486" height="10.486" fill="#5B42DC" stroke="#5B42DC" stroke-width="1.498"/>
<rect x="194.476" y="22.7568" width="10.486" height="10.486" fill="#5B42DC" stroke="#5B42DC" stroke-width="1.498"/>
<rect x="194.476" y="179.413" width="10.486" height="10.486" fill="#5B42DC" stroke="#5B42DC" stroke-width="1.498"/>
</svg>
