<svg width="85" height="72" viewBox="0 0 85 72" fill="none" xmlns="http://www.w3.org/2000/svg">
<path d="M1.88 9.04V12H0.83V5H5.28V5.96H1.88V8.09H4.92V9.04H1.88ZM5.99641 12V7H7.00641V7.77H7.02641C7.11974 7.52333 7.29974 7.31333 7.56641 7.14C7.83974 6.96667 8.15641 6.88 8.51641 6.88H8.73641V7.89C8.67641 7.86333 8.55307 7.85 8.36641 7.85C7.99974 7.85 7.67974 7.98667 7.40641 8.26C7.13974 8.53333 7.00641 8.88333 7.00641 9.31V12H5.99641ZM12.5532 10.72C12.8065 10.3867 12.9332 9.98 12.9332 9.5C12.9332 9.02 12.8065 8.61667 12.5532 8.29C12.3065 7.95667 11.9332 7.79 11.4332 7.79C10.9332 7.79 10.5565 7.95667 10.3032 8.29C10.0565 8.61667 9.9332 9.02 9.9332 9.5C9.9332 9.98 10.0565 10.3867 10.3032 10.72C10.5565 11.0467 10.9332 11.21 11.4332 11.21C11.9332 11.21 12.3065 11.0467 12.5532 10.72ZM13.9432 12H12.9332V11.34C12.5265 11.86 11.9665 12.12 11.2532 12.12C10.8399 12.12 10.4765 12.0433 10.1632 11.89C9.85654 11.7367 9.6132 11.53 9.4332 11.27C9.25987 11.01 9.12987 10.7333 9.0432 10.44C8.9632 10.14 8.9232 9.82667 8.9232 9.5C8.9232 9.17333 8.9632 8.86333 9.0432 8.57C9.12987 8.27 9.25987 7.99 9.4332 7.73C9.6132 7.47 9.85654 7.26333 10.1632 7.11C10.4765 6.95667 10.8399 6.88 11.2532 6.88C11.9665 6.88 12.5265 7.14 12.9332 7.66V7H13.9432V12ZM19.237 12H18.227V9.03C18.227 8.60333 18.157 8.29333 18.017 8.1C17.877 7.9 17.6436 7.8 17.317 7.8C16.9436 7.8 16.6403 7.93667 16.407 8.21C16.1803 8.47667 16.067 8.84667 16.067 9.32V12H15.057V7H16.067V7.74C16.2203 7.46667 16.427 7.25667 16.687 7.11C16.947 6.95667 17.2336 6.88 17.547 6.88C18.3003 6.88 18.8003 7.19333 19.047 7.82C19.2203 7.52 19.4536 7.29 19.747 7.13C20.0403 6.96333 20.3636 6.88 20.717 6.88C21.8436 6.88 22.407 7.58667 22.407 9V12H21.397V9.03C21.397 8.60333 21.327 8.29333 21.187 8.1C21.047 7.9 20.8136 7.8 20.487 7.8C20.1136 7.8 19.8103 7.93667 19.577 8.21C19.3503 8.47667 19.237 8.84667 19.237 9.32V12ZM24.2291 9.03H26.9491C26.8824 8.63667 26.7357 8.32333 26.5091 8.09C26.2891 7.85 25.9824 7.73 25.5891 7.73C25.1957 7.73 24.8857 7.85 24.6591 8.09C24.4391 8.32333 24.2957 8.63667 24.2291 9.03ZM26.8591 10.52H27.8891C27.6024 11.5867 26.8357 12.12 25.5891 12.12C24.7957 12.12 24.1957 11.8633 23.7891 11.35C23.3824 10.8367 23.1791 10.22 23.1791 9.5C23.1791 8.78 23.3824 8.16333 23.7891 7.65C24.1957 7.13667 24.7957 6.88 25.5891 6.88C26.3824 6.88 26.9824 7.13667 27.3891 7.65C27.7957 8.16333 27.9991 8.78 27.9991 9.5V9.77H24.1991C24.2391 10.21 24.3724 10.57 24.5991 10.85C24.8324 11.1233 25.1624 11.26 25.5891 11.26C26.2424 11.26 26.6657 11.0133 26.8591 10.52ZM29.8148 12V6.86H28.3148V6.08C28.7214 6.05333 29.0848 5.95 29.4048 5.77C29.7314 5.59 29.9581 5.33333 30.0848 5H30.8648V12H29.8148ZM34.9885 5.3L32.8685 9.71H35.0085V5.3H34.9885ZM36.9685 10.63H36.0585V12H35.0085V10.63H31.8085V9.8L34.1085 5H36.0585V9.71H36.9685V10.63ZM41.9788 5.84L40.2988 7.92C40.9255 8 41.3988 8.22333 41.7188 8.59C42.0455 8.95667 42.2088 9.4 42.2088 9.92C42.2088 10.5667 41.9955 11.0967 41.5688 11.51C41.1422 11.9167 40.5222 12.12 39.7088 12.12C39.0488 12.12 38.4955 11.9367 38.0488 11.57C37.6088 11.1967 37.3822 10.6833 37.3688 10.03H38.3988C38.4255 10.3767 38.5655 10.66 38.8188 10.88C39.0722 11.0933 39.3955 11.2 39.7888 11.2C40.1888 11.2 40.5188 11.0967 40.7788 10.89C41.0455 10.6767 41.1788 10.3667 41.1788 9.96C41.1788 9.54667 41.0455 9.23333 40.7788 9.02C40.5122 8.80667 40.1755 8.7 39.7688 8.7H39.5488L39.1688 7.89L40.6988 5.94H37.5688V5H41.9788V5.84Z" fill="#5B42DC"/>
<rect x="6.5" y="23.5" width="72.7255" height="42.6569" stroke="#5B42DC"/>
<rect x="2.749" y="19.7568" width="7.482" height="7.482" fill="#5B42DC" stroke="#5B42DC" stroke-width="1.498"/>
<rect x="2.749" y="61.4131" width="7.482" height="7.482" fill="#5B42DC" stroke="#5B42DC" stroke-width="1.498"/>
<rect x="76.4834" y="19.7568" width="7.482" height="7.482" fill="#5B42DC" stroke="#5B42DC" stroke-width="1.498"/>
<rect x="76.4834" y="63.4131" width="7.482" height="7.482" fill="#5B42DC" stroke="#5B42DC" stroke-width="1.498"/>
</svg>
