<svg width="78" height="78" viewBox="0 0 78 78" fill="none" xmlns="http://www.w3.org/2000/svg">
<path d="M53.5159 75.9503H7.28144L2 70.6689V24.7547C2 13.9239 9.31949 3 25.6762 3C40.6937 3 48.5547 13.9472 48.5547 24.7547V30.0361H54.797C64.5505 30.0361 75.1192 37.0761 75.2764 52.5419C75.3405 59.1277 73.1044 64.9041 68.7954 69.2539C64.7077 73.3824 58.8498 75.9503 53.5159 75.9503ZM12.5571 65.3874H53.5101C55.6238 65.3874 58.8439 64.2869 61.2838 61.8179C63.5955 59.4829 64.7485 56.3967 64.7077 52.6409C64.696 51.4064 64.3117 40.5873 54.7912 40.5873H43.2733L37.9918 35.3059V24.7488C37.9918 20.5912 35.3948 13.5512 25.6762 13.5512C17.46 13.5512 12.5571 17.738 12.5571 24.7488V65.3816V65.3874Z" fill="#F2F2F2"/>
</svg>
