<svg width="78" height="78" viewBox="0 0 78 78" fill="none" xmlns="http://www.w3.org/2000/svg">
<g clip-path="url(#clip0_1_2547)">
<g clip-path="url(#clip1_1_2547)">
<path d="M38.9977 2.20312C25.766 2.20312 15 12.9691 15 26.2008C15 34.5946 19.4168 42.3427 26.4631 46.6706V53.0057H35.3529V44.0084L32.7514 39.9612C27.3708 37.5142 23.8944 32.1101 23.8944 26.2008C23.8944 17.8678 30.674 11.0929 39.0023 11.0929C47.3306 11.0929 54.1102 17.8725 54.1102 26.2008C54.1102 32.1101 50.6339 37.5142 45.2486 39.9612L42.6471 44.0084V53.0057H51.5369V46.6706C58.5832 42.3427 63 34.5946 63 26.2008C63 12.9691 52.234 2.20312 39.0023 2.20312H38.9977Z" fill="black"/>
<path d="M26.5234 56.1465V65.0362H39.7598L33.9207 70.0239L39.6943 76.7848L54.6946 63.9695L51.8078 56.1465H26.5234Z" fill="black"/>
</g>
</g>
<defs>
<clipPath id="clip0_1_2547">
<rect width="78" height="78" fill="white"/>
</clipPath>
<clipPath id="clip1_1_2547">
<rect width="78" height="76" fill="white" transform="translate(0 1.73438)"/>
</clipPath>
</defs>
</svg>
