<svg width="86" height="169" viewBox="0 0 86 169" fill="none" xmlns="http://www.w3.org/2000/svg">
<rect x="-113.251" y="6.74119" width="192.227" height="155.159" stroke="#5B42DC" stroke-width="1.498" stroke-dasharray="7.11 7.11"/>
<rect x="74.4834" y="0.748998" width="10.486" height="10.486" fill="#5B42DC" stroke="#5B42DC" stroke-width="1.498"/>
<rect x="74.4834" y="157.405" width="10.486" height="10.486" fill="#5B42DC" stroke="#5B42DC" stroke-width="1.498"/>
<path d="M49.7244 71.4978L27.6412 71.2178L24.1341 84.5729L24.7356 68.176L24.7999 36.3886L-0.941719 31.9924C-4.31643 41.6437 -8.95477 55.7176 -13.8693 70.9189L-13.7482 53.6027L-39.1267 48.2115C-39.3158 48.6428 -58.2135 91.9238 -75 128.883L-50.8852 139.832C-47.5105 132.401 -44.0525 124.718 -40.674 117.174L-40.9616 158.525L-15.0762 162.547C-14.9513 162.142 -9.18177 143.574 -1.84972 120.386L-1.8762 132.772L23.3585 138.417L37.1903 108.888L38.7414 112.433L63 101.81L49.7244 71.494V71.4978Z" fill="#5B42DC"/>
<path d="M10.3843 106.396C19.1224 106.396 26.2061 99.3119 26.2061 90.5738C26.2061 81.8356 19.1224 74.752 10.3843 74.752C1.64616 74.752 -5.4375 81.8356 -5.4375 90.5738C-5.4375 99.3119 1.64616 106.396 10.3843 106.396Z" fill="#F2F2F2"/>
<path d="M10.3843 78.0964C17.2661 78.0964 22.8654 83.6957 22.8654 90.5775C22.8654 97.4594 17.2661 103.059 10.3843 103.059C3.50246 103.059 -2.09684 97.4594 -2.09684 90.5775C-2.09684 83.6957 3.50246 78.0964 10.3843 78.0964ZM10.3843 74.752C1.64485 74.752 -5.4375 81.8381 -5.4375 90.5738C-5.4375 99.3094 1.64864 106.396 10.3843 106.396C19.12 106.396 26.2061 99.3094 26.2061 90.5738C26.2061 81.8381 19.12 74.752 10.3843 74.752Z" fill="black"/>
<path d="M11.4113 94.5002C14.0482 94.5002 16.1858 92.3626 16.1858 89.7257C16.1858 87.0888 14.0482 84.9512 11.4113 84.9512C8.77435 84.9512 6.63672 87.0888 6.63672 89.7257C6.63672 92.3626 8.77435 94.5002 11.4113 94.5002Z" fill="black"/>
<path d="M-4.41401 114.249C-8.39405 114.249 -12.1509 114.249 -14.2695 110.167L-11.3034 108.623C-10.2668 110.617 -8.7005 110.882 -4.93989 110.901C-4.85287 110.893 -4.76207 110.889 -4.66749 110.889C-2.35211 110.889 -1.17171 110.276 -0.312904 108.623L2.65322 110.167C0.920459 113.496 -1.89054 114.139 -4.06595 114.222C-4.17566 114.237 -4.28916 114.249 -4.41022 114.249H-4.41401Z" fill="black"/>
</svg>
