<svg width="16" height="16" viewBox="0 0 16 16" fill="none" xmlns="http://www.w3.org/2000/svg">
<path d="M8.23109 2C4.79548 2 2 4.79548 2 8.23109C2 11.6667 4.79548 14.4622 8.23109 14.4622C11.6667 14.4622 14.4622 11.6667 14.4622 8.23109C14.4622 4.79548 11.6667 2 8.23109 2ZM12.9178 7.57203H11.0888C10.9564 5.9843 10.3636 4.66303 9.84405 3.78166C11.4633 4.37056 12.6718 5.81875 12.9178 7.57203ZM6.96422 7.57203C7.15027 6.11359 7.86135 4.90111 8.34934 4.21683C8.79633 4.90269 9.43095 6.10571 9.58389 7.57203H6.96422ZM9.56103 9.06989C9.37498 10.4952 8.77268 11.7558 8.33673 12.5134C7.85032 11.7684 7.1684 10.5086 6.97289 9.06989H9.56103ZM6.89011 3.69258C6.30989 4.58026 5.62087 5.94173 5.4569 7.57203H3.54437C3.80374 5.72178 5.13604 4.2121 6.89011 3.69258ZM3.57354 9.06989H5.46399C5.62009 10.5141 6.17666 11.7897 6.69933 12.7089C5.09584 12.1586 3.87942 10.7711 3.57354 9.06989ZM9.97728 12.6301C10.4353 11.7172 10.9209 10.4684 11.0699 9.06989H12.8886C12.5969 10.6947 11.4743 12.0333 9.97728 12.6301Z" fill="#5B42DC"/>
</svg>
