<svg width="435" height="164" viewBox="0 0 435 164" fill="none" xmlns="http://www.w3.org/2000/svg">
<path d="M101.651 2.65044L90.722 7.24475L94.8128 16.9762L105.742 12.3819L101.651 2.65044Z" fill="#F2F2F2"/>
<path d="M431.062 43.636L396.299 57.4998L393.743 60.0113L392.025 58.2616L394.417 55.9122L406.13 26.0678L397.801 20.1143L356.63 55.0693L353.592 58.0546L351.874 56.3048L357.126 51.1451L367.983 31.6329L358.758 26.4988L350.233 41.8201L319.221 55.2998L315.662 58.7972L313.944 57.0474L316.893 54.1496L333.043 25.3849L323.839 20.2167L323.694 20.4749L323.647 20.285L281.339 30.6236L281.411 30.9181L281.224 30.8114L261.24 65.903L268.553 73.0365L307.308 49.6599L298.405 65.5167L305.112 72.9405L341.785 57.0026L330.07 78.0597L338.1 84.6512L388.643 41.7411L379.055 66.174L385.924 73.0045L434.978 53.4411L431.066 43.6338L431.062 43.636ZM283.746 51.5441L280.957 54.2862L279.239 52.5364L283.234 48.6122L288.248 39.8035L313.394 33.658L283.746 51.542V51.5441Z" fill="#F2F2F2"/>
<path d="M30.159 59.9158L26.1046 61.736L25.5007 60.3938L25.4708 60.396L25.4964 60.381L25.0995 59.5019L32.152 56.3331L76.0672 29.6191L72.8429 19.8523L6.23393 25.9701L7.20058 36.4837L45.7128 32.9458L50.4884 31.1533L50.9792 32.4614L51.0966 32.4507L50.9963 32.5126L51.3484 33.4472L46.4127 35.3016L0.0222168 63.52L3.30412 73.2803L60.8569 67.3823L59.7814 56.8815L30.159 59.9158Z" fill="#F2F2F2"/>
<path d="M276.846 20.2918L250.839 26.6486L246.473 31.4839L244.652 29.8409L248.504 25.5752L248.854 24.9436L239.621 19.8244L224.982 46.2248L197.681 57.3849L195.968 59.0686L195.279 58.3665L195.277 58.3687V58.3644L194.25 57.3188L196.589 55.0227L208.022 25.8868L199.583 20.0293L160.785 54.8734L156.515 59.0686L154.797 57.3188L159.182 53.0126L174.849 20.2555L166.759 13.8816L129.626 44.0439L124.88 48.7043L123.164 46.9546L128.23 41.9784L137.711 24.6854L128.454 19.6111L115.965 42.3923L84.1443 55.7056L80.2244 59.5551L78.5066 57.8075L81.6946 54.6749L98.2258 24.9628L89.001 19.8308L63.5695 65.5385L70.2186 72.975L107.822 57.242L102.865 66.2832L110.82 72.9196L155.2 36.872L135.447 78.171L143.737 84.3742L190.053 42.7786L180.943 65.993L187.855 72.8065L216.805 60.9741L213.114 67.6318L222.345 72.751L240.481 40.0451L279.351 30.5472L276.846 20.2918Z" fill="#F2F2F2"/>
<rect x="20.6671" y="96.3342" width="393.666" height="63.5284" rx="31.7642" stroke="#F2F2F2" stroke-width="2.97385" stroke-miterlimit="10"/>
<path d="M70.6136 135.744C72.0345 133.875 72.7449 131.594 72.7449 128.902C72.7449 126.21 72.0345 123.947 70.6136 122.115C69.2301 120.246 67.1362 119.311 64.3319 119.311C61.5275 119.311 59.4149 120.246 57.9941 122.115C56.6106 123.947 55.9189 126.21 55.9189 128.902C55.9189 131.594 56.6106 133.875 57.9941 135.744C59.4149 137.577 61.5275 138.493 64.3319 138.493C67.1362 138.493 69.2301 137.577 70.6136 135.744ZM78.4097 142.923H72.7449V139.222C70.464 142.138 67.3232 143.597 63.3223 143.597C61.0041 143.597 58.9662 143.167 57.2089 142.307C55.4889 141.447 54.1241 140.287 53.1145 138.829C52.1424 137.371 51.4132 135.819 50.9271 134.174C50.4784 132.491 50.2541 130.734 50.2541 128.902C50.2541 127.07 50.4784 125.331 50.9271 123.686C51.4132 122.003 52.1424 120.433 53.1145 118.974C54.1241 117.516 55.4889 116.357 57.2089 115.497C58.9662 114.637 61.0041 114.207 63.3223 114.207C67.3232 114.207 70.464 115.665 72.7449 118.582V103.663H78.4097V142.923ZM86.395 126.266H101.651C101.277 124.06 100.454 122.302 99.1828 120.994C97.9489 119.647 96.2289 118.974 94.0228 118.974C91.8167 118.974 90.078 119.647 88.8067 120.994C87.5728 122.302 86.7689 124.06 86.395 126.266ZM101.146 134.623H106.923C105.315 140.605 101.015 143.597 94.0228 143.597C89.5733 143.597 86.208 142.157 83.9272 139.278C81.6463 136.399 80.5059 132.94 80.5059 128.902C80.5059 124.864 81.6463 121.405 83.9272 118.526C86.208 115.647 89.5733 114.207 94.0228 114.207C98.4723 114.207 101.838 115.647 104.118 118.526C106.399 121.405 107.54 124.864 107.54 128.902V130.416H86.2267C86.4511 132.884 87.1989 134.903 88.4702 136.473C89.7789 138.007 91.6298 138.773 94.0228 138.773C97.6871 138.773 100.061 137.39 101.146 134.623ZM107.908 134.567H113.573C113.723 136.025 114.358 137.147 115.48 137.932C116.602 138.68 117.985 139.053 119.63 139.053C121.313 139.053 122.734 138.717 123.893 138.044C125.089 137.371 125.688 136.361 125.688 135.015C125.688 133.856 125.089 132.996 123.893 132.435C122.734 131.874 121.294 131.463 119.574 131.201C117.892 130.94 116.209 130.603 114.526 130.192C112.844 129.78 111.404 128.977 110.208 127.78C109.049 126.584 108.469 124.957 108.469 122.9C108.469 120.021 109.535 117.853 111.666 116.394C113.797 114.936 116.415 114.207 119.518 114.207C122.509 114.207 125.033 114.974 127.09 116.507C129.146 118.002 130.287 120.208 130.511 123.125H124.959C124.809 121.667 124.229 120.582 123.22 119.872C122.248 119.124 120.995 118.75 119.462 118.75C117.966 118.75 116.695 119.068 115.648 119.704C114.639 120.302 114.134 121.274 114.134 122.62C114.134 123.742 114.713 124.583 115.873 125.144C117.069 125.705 118.509 126.116 120.191 126.378C121.911 126.602 123.612 126.92 125.295 127.331C126.978 127.743 128.399 128.565 129.558 129.799C130.754 130.996 131.352 132.641 131.352 134.735C131.352 137.614 130.212 139.82 127.931 141.353C125.65 142.849 122.902 143.597 119.686 143.597C116.508 143.597 113.797 142.83 111.554 141.297C109.31 139.727 108.095 137.483 107.908 134.567ZM133.772 108.262C133.136 107.589 132.819 106.766 132.819 105.794C132.819 104.822 133.136 104.018 133.772 103.382C134.445 102.709 135.268 102.373 136.24 102.373C137.212 102.373 138.016 102.709 138.652 103.382C139.325 104.018 139.661 104.822 139.661 105.794C139.661 106.766 139.325 107.589 138.652 108.262C138.016 108.897 137.212 109.215 136.24 109.215C135.268 109.215 134.445 108.897 133.772 108.262ZM133.379 142.923V114.88H139.044V142.923H133.379ZM161.496 135.576C162.917 133.707 163.627 131.444 163.627 128.79C163.627 126.135 162.917 123.891 161.496 122.059C160.075 120.19 157.981 119.255 155.214 119.255C152.447 119.255 150.353 120.19 148.933 122.059C147.512 123.891 146.801 126.135 146.801 128.79C146.801 131.444 147.512 133.707 148.933 135.576C150.353 137.408 152.447 138.324 155.214 138.324C157.981 138.324 160.075 137.408 161.496 135.576ZM163.627 141.858V139.053C161.384 141.933 158.243 143.372 154.205 143.372C151.887 143.372 149.849 142.942 148.091 142.082C146.371 141.222 145.007 140.082 143.997 138.661C143.025 137.203 142.296 135.651 141.81 134.006C141.361 132.323 141.137 130.584 141.137 128.79C141.137 126.995 141.361 125.275 141.81 123.63C142.296 121.947 143.025 120.395 143.997 118.974C145.007 117.516 146.371 116.357 148.091 115.497C149.849 114.637 151.887 114.207 154.205 114.207C158.243 114.207 161.384 115.647 163.627 118.526V114.88H169.292V141.858C169.292 144.101 168.899 146.064 168.114 147.747C167.329 149.43 166.263 150.738 164.917 151.673C163.571 152.645 162.094 153.356 160.486 153.804C158.879 154.29 157.159 154.533 155.326 154.533C152.26 154.533 149.531 153.898 147.138 152.626C144.745 151.355 143.081 149.392 142.146 146.737H148.484C149.98 148.719 152.242 149.71 155.27 149.71C157.626 149.71 159.608 149.074 161.216 147.803C162.823 146.532 163.627 144.55 163.627 141.858ZM197.147 142.923H191.482V126.266C191.482 123.873 191.033 122.134 190.136 121.05C189.276 119.928 187.836 119.367 185.817 119.367C183.499 119.367 181.629 120.134 180.208 121.667C178.788 123.162 178.077 125.237 178.077 127.892V142.923H172.412V114.88H178.077V119.031C180.021 115.815 182.994 114.207 186.995 114.207C193.763 114.207 197.147 118.171 197.147 126.097V142.923ZM234.616 142.923H228.951V126.266C228.951 123.873 228.558 122.134 227.773 121.05C226.988 119.928 225.679 119.367 223.847 119.367C221.753 119.367 220.052 120.134 218.743 121.667C217.472 123.162 216.836 125.237 216.836 127.892V142.923H211.171V114.88H216.836V119.031C217.696 117.497 218.855 116.32 220.313 115.497C221.772 114.637 223.38 114.207 225.137 114.207C229.362 114.207 232.166 115.964 233.55 119.479C234.522 117.797 235.831 116.507 237.476 115.609C239.121 114.674 240.935 114.207 242.916 114.207C249.236 114.207 252.395 118.171 252.395 126.097V142.923H246.73V126.266C246.73 123.873 246.338 122.134 245.553 121.05C244.767 119.928 243.459 119.367 241.626 119.367C239.533 119.367 237.831 120.134 236.523 121.667C235.251 123.162 234.616 125.237 234.616 127.892V142.923ZM260.091 126.266H275.346C274.973 124.06 274.15 122.302 272.879 120.994C271.645 119.647 269.925 118.974 267.719 118.974C265.513 118.974 263.774 119.647 262.503 120.994C261.269 122.302 260.465 124.06 260.091 126.266ZM274.842 134.623H280.619C279.011 140.605 274.711 143.597 267.719 143.597C263.269 143.597 259.904 142.157 257.623 139.278C255.342 136.399 254.202 132.94 254.202 128.902C254.202 124.864 255.342 121.405 257.623 118.526C259.904 115.647 263.269 114.207 267.719 114.207C272.168 114.207 275.533 115.647 277.814 118.526C280.095 121.405 281.236 124.864 281.236 128.902V130.416H259.923C260.147 132.884 260.895 134.903 262.166 136.473C263.475 138.007 265.326 138.773 267.719 138.773C271.383 138.773 273.757 137.39 274.842 134.623ZM287.549 126.266H302.805C302.431 124.06 301.608 122.302 300.337 120.994C299.103 119.647 297.383 118.974 295.177 118.974C292.971 118.974 291.232 119.647 289.961 120.994C288.727 122.302 287.923 124.06 287.549 126.266ZM302.3 134.623H308.077C306.469 140.605 302.169 143.597 295.177 143.597C290.727 143.597 287.362 142.157 285.081 139.278C282.801 136.399 281.66 132.94 281.66 128.902C281.66 124.864 282.801 121.405 285.081 118.526C287.362 115.647 290.727 114.207 295.177 114.207C299.627 114.207 302.992 115.647 305.273 118.526C307.554 121.405 308.694 124.864 308.694 128.902V130.416H287.381C287.605 132.884 288.353 134.903 289.624 136.473C290.933 138.007 292.784 138.773 295.177 138.773C298.841 138.773 301.216 137.39 302.3 134.623ZM326.113 142.699C324.393 143.297 322.542 143.597 320.56 143.597C318.055 143.597 316.148 142.886 314.839 141.465C313.531 140.044 312.876 138.025 312.876 135.408V119.704H307.885V114.88H312.876V107.028H318.541V114.88H326.113V119.704H318.541V134.959C318.541 137.352 319.588 138.549 321.682 138.549C323.252 138.549 324.729 138.287 326.113 137.763V142.699ZM328.119 114.88H333.784V131.538C333.784 133.931 334.214 135.688 335.074 136.81C335.971 137.894 337.429 138.437 339.448 138.437C341.767 138.437 343.636 137.689 345.057 136.193C346.478 134.66 347.188 132.566 347.188 129.911V114.88H352.853V142.923H347.188V138.773C345.244 141.989 342.271 143.597 338.271 143.597C331.503 143.597 328.119 139.633 328.119 131.706V114.88ZM364.31 122.115C362.926 123.947 362.234 126.21 362.234 128.902C362.234 131.594 362.926 133.875 364.31 135.744C365.731 137.577 367.843 138.493 370.647 138.493C373.452 138.493 375.546 137.577 376.929 135.744C378.35 133.875 379.06 131.594 379.06 128.902C379.06 126.21 378.35 123.947 376.929 122.115C375.546 120.246 373.452 119.311 370.647 119.311C367.843 119.311 365.731 120.246 364.31 122.115ZM362.234 139.222V153.86H356.57V114.88H362.234V118.582C364.515 115.665 367.656 114.207 371.657 114.207C373.975 114.207 375.994 114.637 377.714 115.497C379.472 116.357 380.837 117.516 381.809 118.974C382.818 120.433 383.547 122.003 383.996 123.686C384.482 125.331 384.725 127.07 384.725 128.902C384.725 130.734 384.482 132.491 383.996 134.174C383.547 135.819 382.818 137.371 381.809 138.829C380.837 140.287 379.472 141.447 377.714 142.307C375.994 143.167 373.975 143.597 371.657 143.597C367.656 143.597 364.515 142.138 362.234 139.222Z" fill="#F2F2F2"/>
</svg>
