<svg width="170" height="64" viewBox="0 0 170 64" fill="none" xmlns="http://www.w3.org/2000/svg">
<path d="M39.7215 0.987056L35.4498 2.78271L37.0487 6.58619L41.3204 4.79053L39.7215 0.987056Z" fill="#5B42DC"/>
<path d="M168.47 17.0063L154.883 22.4249L153.884 23.4065L153.212 22.7226L154.147 21.8044L158.725 10.1399L155.47 7.81299L139.378 21.4749L138.191 22.6417L137.519 21.9578L139.572 19.9412L143.815 12.315L140.21 10.3084L136.878 16.2966L124.757 21.565L123.366 22.932L122.695 22.2481L123.847 21.1155L130.159 9.873L126.562 7.85302L126.505 7.95394L126.487 7.87971L109.951 11.9205L109.98 12.0356L109.906 11.9939L102.096 25.7092L104.954 28.4973L120.101 19.3607L116.622 25.5583L119.243 28.4598L133.576 22.2306L128.997 30.4606L132.136 33.0369L151.89 16.2657L148.143 25.8151L150.828 28.4848L170 20.8386L168.471 17.0055L168.47 17.0063ZM110.892 20.0972L109.802 21.1689L109.13 20.485L110.692 18.9512L112.652 15.5084L122.48 13.1065L110.892 20.0963V20.0972Z" fill="#5B42DC"/>
<path d="M11.7788 23.3685L10.1941 24.08L9.95811 23.5554L9.94643 23.5562L9.95644 23.5504L9.80131 23.2067L12.5577 21.9682L29.7217 11.5272L28.4615 7.70996L2.42781 10.1011L2.80562 14.2103L17.8579 12.8275L19.7244 12.1269L19.9162 12.6381L19.9621 12.634L19.9229 12.6582L20.0605 13.0235L18.1314 13.7482L0 24.7772L1.28271 28.592L23.7769 26.2868L23.3565 22.1826L11.7788 23.3685Z" fill="#5B42DC"/>
<path d="M108.195 7.88184L98.0297 10.3664L96.3233 12.2562L95.6119 11.614L97.1173 9.94685L97.2541 9.69998L93.6453 7.69919L87.924 18.0176L77.2536 22.3795L76.5839 23.0375L76.3145 22.7631L76.3137 22.764V22.7623L75.9125 22.3536L76.8266 21.4562L81.2953 10.0686L77.9967 7.77925L62.8327 21.3978L61.1639 23.0375L60.4925 22.3536L62.2064 20.6706L68.3297 7.86766L65.168 5.37646L50.6545 17.1652L48.7996 18.9867L48.1291 18.3028L50.109 16.3579L53.8146 9.59907L50.1966 7.61579L45.3151 16.5197L32.8783 21.7231L31.3463 23.2277L30.6749 22.5446L31.9209 21.3203L38.382 9.70749L34.7766 7.70169L24.8368 25.5662L27.4356 28.4728L42.1325 22.3236L40.1951 25.8573L43.3043 28.4511L60.6501 14.3621L52.9297 30.5036L56.1698 32.9281L74.272 16.6707L70.7116 25.7439L73.413 28.4069L84.7281 23.7823L83.2852 26.3844L86.8931 28.3852L93.9814 15.6023L109.174 11.8901L108.195 7.88184Z" fill="#5B42DC"/>
<rect x="8.45432" y="37.6026" width="153.091" height="24.8297" rx="12.4148" stroke="#5B42DC" stroke-width="1.16231" stroke-miterlimit="10"/>
<path d="M27.5903 53.053C28.1457 52.3223 28.4233 51.4308 28.4233 50.3786C28.4233 49.3264 28.1457 48.4422 27.5903 47.7261C27.0496 46.9954 26.2312 46.6301 25.1351 46.6301C24.0391 46.6301 23.2134 46.9954 22.6581 47.7261C22.1173 48.4422 21.847 49.3264 21.847 50.3786C21.847 51.4308 22.1173 52.3223 22.6581 53.053C23.2134 53.7691 24.0391 54.1271 25.1351 54.1271C26.2312 54.1271 27.0496 53.7691 27.5903 53.053ZM30.6374 55.8589H28.4233V54.4121C27.5319 55.552 26.3043 56.1219 24.7406 56.1219C23.8345 56.1219 23.038 55.9539 22.3512 55.6178C21.6789 55.2816 21.1455 54.8286 20.7509 54.2586C20.371 53.6887 20.086 53.0822 19.896 52.4392C19.7206 51.7816 19.6329 51.0947 19.6329 50.3786C19.6329 49.6625 19.7206 48.983 19.896 48.3399C20.086 47.6823 20.371 47.0685 20.7509 46.4986C21.1455 45.9286 21.6789 45.4756 22.3512 45.1394C23.038 44.8033 23.8345 44.6353 24.7406 44.6353C26.3043 44.6353 27.5319 45.2052 28.4233 46.3451V40.5141H30.6374V55.8589ZM33.7584 49.3483H39.7209C39.5748 48.4861 39.2533 47.7992 38.7564 47.2877C38.2741 46.7616 37.6019 46.4986 36.7397 46.4986C35.8774 46.4986 35.1979 46.7616 34.701 47.2877C34.2187 47.7992 33.9045 48.4861 33.7584 49.3483ZM39.5236 52.6146H41.7815C41.1531 54.9528 39.4725 56.1219 36.7397 56.1219C35.0006 56.1219 33.6853 55.5593 32.7938 54.434C31.9024 53.3087 31.4567 51.9569 31.4567 50.3786C31.4567 48.8003 31.9024 47.4485 32.7938 46.3232C33.6853 45.1979 35.0006 44.6353 36.7397 44.6353C38.4787 44.6353 39.794 45.1979 40.6855 46.3232C41.5769 47.4485 42.0227 48.8003 42.0227 50.3786V50.9705H33.6926C33.7803 51.935 34.0726 52.7242 34.5695 53.338C35.081 53.9371 35.8044 54.2367 36.7397 54.2367C38.1718 54.2367 39.0998 53.696 39.5236 52.6146ZM42.1667 52.5926H44.3807C44.4392 53.1626 44.6876 53.601 45.126 53.9079C45.5645 54.2002 46.1052 54.3463 46.7482 54.3463C47.4058 54.3463 47.9612 54.2148 48.4142 53.9517C48.8819 53.6887 49.1157 53.2941 49.1157 52.768C49.1157 52.315 48.8819 51.9788 48.4142 51.7596C47.9612 51.5404 47.3985 51.3797 46.7263 51.2774C46.0686 51.1751 45.411 51.0435 44.7534 50.8828C44.0957 50.722 43.5331 50.4078 43.0654 49.9402C42.6124 49.4725 42.3859 48.8368 42.3859 48.033C42.3859 46.9078 42.8024 46.0601 43.6354 45.4902C44.4684 44.9202 45.4914 44.6353 46.7044 44.6353C47.8735 44.6353 48.8599 44.9348 49.6637 45.534C50.4675 46.1186 50.9132 46.9808 51.0009 48.1207H48.8307C48.7723 47.5508 48.5457 47.127 48.1512 46.8493C47.7712 46.557 47.2816 46.4109 46.6824 46.4109C46.0979 46.4109 45.601 46.5351 45.1918 46.7835C44.7972 47.0174 44.5999 47.3973 44.5999 47.9234C44.5999 48.3619 44.8264 48.6907 45.2795 48.9099C45.7471 49.1291 46.3098 49.2898 46.9674 49.3921C47.6397 49.4798 48.3046 49.6041 48.9622 49.7648C49.6199 49.9256 50.1752 50.2471 50.6282 50.7293C51.0959 51.197 51.3297 51.84 51.3297 52.6584C51.3297 53.7837 50.884 54.6459 49.9925 55.2451C49.1011 55.8297 48.0269 56.1219 46.7701 56.1219C45.5279 56.1219 44.4684 55.8224 43.5916 55.2232C42.7147 54.6094 42.2397 53.7325 42.1667 52.5926ZM52.2754 42.3116C52.027 42.0486 51.9028 41.7271 51.9028 41.3471C51.9028 40.9671 52.027 40.6529 52.2754 40.4045C52.5385 40.1414 52.86 40.0099 53.2399 40.0099C53.6199 40.0099 53.9341 40.1414 54.1826 40.4045C54.4456 40.6529 54.5771 40.9671 54.5771 41.3471C54.5771 41.7271 54.4456 42.0486 54.1826 42.3116C53.9341 42.5601 53.6199 42.6843 53.2399 42.6843C52.86 42.6843 52.5385 42.5601 52.2754 42.3116ZM52.122 55.8589V44.8983H54.336V55.8589H52.122ZM63.1111 52.9872C63.6665 52.2565 63.9441 51.3724 63.9441 50.3348C63.9441 49.2972 63.6665 48.4203 63.1111 47.7042C62.5558 46.9735 61.7374 46.6082 60.656 46.6082C59.5745 46.6082 58.7561 46.9735 58.2008 47.7042C57.6455 48.4203 57.3678 49.2972 57.3678 50.3348C57.3678 51.3724 57.6455 52.2565 58.2008 52.9872C58.7561 53.7033 59.5745 54.0614 60.656 54.0614C61.7374 54.0614 62.5558 53.7033 63.1111 52.9872ZM63.9441 55.4424V54.3463C63.0673 55.4716 61.8397 56.0343 60.2614 56.0343C59.3553 56.0343 58.5588 55.8662 57.872 55.5301C57.1997 55.1939 56.6663 54.7482 56.2717 54.1929C55.8918 53.6229 55.6068 53.0164 55.4168 52.3734C55.2414 51.7158 55.1538 51.0362 55.1538 50.3348C55.1538 49.6333 55.2414 48.961 55.4168 48.318C55.6068 47.6604 55.8918 47.0539 56.2717 46.4986C56.6663 45.9286 57.1997 45.4756 57.872 45.1394C58.5588 44.8033 59.3553 44.6353 60.2614 44.6353C61.8397 44.6353 63.0673 45.1979 63.9441 46.3232V44.8983H66.1582V55.4424C66.1582 56.3192 66.0047 57.0865 65.6978 57.7441C65.3909 58.4017 64.9744 58.9132 64.4483 59.2786C63.9222 59.6586 63.345 59.9362 62.7166 60.1116C62.0882 60.3016 61.4159 60.3966 60.6998 60.3966C59.5015 60.3966 58.4346 60.1481 57.4993 59.6512C56.564 59.1544 55.9137 58.3871 55.5483 57.3495H58.0254C58.61 58.1241 59.4941 58.5113 60.6779 58.5113C61.5986 58.5113 62.3731 58.2629 63.0015 57.766C63.6299 57.2691 63.9441 56.4946 63.9441 55.4424ZM77.0449 55.8589H74.8309V49.3483C74.8309 48.413 74.6555 47.7334 74.3048 47.3096C73.9687 46.8712 73.406 46.652 72.6169 46.652C71.7108 46.652 70.9801 46.9516 70.4247 47.5508C69.8694 48.1353 69.5917 48.9464 69.5917 49.984V55.8589H67.3777V44.8983H69.5917V46.5205C70.3517 45.2637 71.5135 44.6353 73.0772 44.6353C75.7224 44.6353 77.0449 46.1844 77.0449 49.2825V55.8589ZM91.6895 55.8589H89.4754V49.3483C89.4754 48.413 89.322 47.7334 89.0151 47.3096C88.7082 46.8712 88.1967 46.652 87.4806 46.652C86.6622 46.652 85.9973 46.9516 85.4858 47.5508C84.9889 48.1353 84.7405 48.9464 84.7405 49.984V55.8589H82.5264V44.8983H84.7405V46.5205C85.0766 45.9213 85.5296 45.461 86.0996 45.1394C86.6695 44.8033 87.2979 44.6353 87.9848 44.6353C89.6362 44.6353 90.7322 45.3221 91.273 46.6958C91.6529 46.0382 92.1644 45.534 92.8074 45.1833C93.4505 44.8179 94.1592 44.6353 94.9338 44.6353C97.4036 44.6353 98.6385 46.1844 98.6385 49.2825V55.8589H96.4244V49.3483C96.4244 48.413 96.271 47.7334 95.9641 47.3096C95.6572 46.8712 95.1457 46.652 94.4296 46.652C93.6112 46.652 92.9463 46.9516 92.4348 47.5508C91.9379 48.1353 91.6895 48.9464 91.6895 49.984V55.8589ZM101.646 49.3483H107.609C107.463 48.4861 107.141 47.7992 106.644 47.2877C106.162 46.7616 105.49 46.4986 104.628 46.4986C103.765 46.4986 103.086 46.7616 102.589 47.2877C102.107 47.7992 101.792 48.4861 101.646 49.3483ZM107.412 52.6146H109.669C109.041 54.9528 107.36 56.1219 104.628 56.1219C102.888 56.1219 101.573 55.5593 100.682 54.434C99.7903 53.3087 99.3446 51.9569 99.3446 50.3786C99.3446 48.8003 99.7903 47.4485 100.682 46.3232C101.573 45.1979 102.888 44.6353 104.628 44.6353C106.367 44.6353 107.682 45.1979 108.573 46.3232C109.465 47.4485 109.911 48.8003 109.911 50.3786V50.9705H101.581C101.668 51.935 101.96 52.7242 102.457 53.338C102.969 53.9371 103.692 54.2367 104.628 54.2367C106.06 54.2367 106.988 53.696 107.412 52.6146ZM112.378 49.3483H118.341C118.195 48.4861 117.873 47.7992 117.376 47.2877C116.894 46.7616 116.222 46.4986 115.36 46.4986C114.497 46.4986 113.818 46.7616 113.321 47.2877C112.839 47.7992 112.524 48.4861 112.378 49.3483ZM118.143 52.6146H120.401C119.773 54.9528 118.092 56.1219 115.36 56.1219C113.62 56.1219 112.305 55.5593 111.414 54.434C110.522 53.3087 110.077 51.9569 110.077 50.3786C110.077 48.8003 110.522 47.4485 111.414 46.3232C112.305 45.1979 113.62 44.6353 115.36 44.6353C117.099 44.6353 118.414 45.1979 119.305 46.3232C120.197 47.4485 120.642 48.8003 120.642 50.3786V50.9705H112.312C112.4 51.935 112.692 52.7242 113.189 53.338C113.701 53.9371 114.424 54.2367 115.36 54.2367C116.792 54.2367 117.72 53.696 118.143 52.6146ZM127.451 55.7712C126.778 56.005 126.055 56.1219 125.28 56.1219C124.301 56.1219 123.556 55.8443 123.044 55.2889C122.533 54.7336 122.277 53.9444 122.277 52.9215V46.7835H120.326V44.8983H122.277V41.8294H124.491V44.8983H127.451V46.7835H124.491V52.7461C124.491 53.6814 124.9 54.149 125.719 54.149C126.333 54.149 126.91 54.0467 127.451 53.8421V55.7712ZM128.235 44.8983H130.449V51.4089C130.449 52.3442 130.617 53.0311 130.953 53.4695C131.304 53.8933 131.873 54.1052 132.663 54.1052C133.569 54.1052 134.299 53.8129 134.855 53.2283C135.41 52.6292 135.688 51.8108 135.688 50.7732V44.8983H137.902V55.8589H135.688V54.2367C134.928 55.4935 133.766 56.1219 132.202 56.1219C129.557 56.1219 128.235 54.5728 128.235 51.4747V44.8983ZM142.38 47.7261C141.839 48.4422 141.568 49.3264 141.568 50.3786C141.568 51.4308 141.839 52.3223 142.38 53.053C142.935 53.7691 143.761 54.1271 144.857 54.1271C145.953 54.1271 146.771 53.7691 147.312 53.053C147.867 52.3223 148.145 51.4308 148.145 50.3786C148.145 49.3264 147.867 48.4422 147.312 47.7261C146.771 46.9954 145.953 46.6301 144.857 46.6301C143.761 46.6301 142.935 46.9954 142.38 47.7261ZM141.568 54.4121V60.1335H139.354V44.8983H141.568V46.3451C142.46 45.2052 143.688 44.6353 145.251 44.6353C146.157 44.6353 146.946 44.8033 147.619 45.1394C148.306 45.4756 148.839 45.9286 149.219 46.4986C149.614 47.0685 149.898 47.6823 150.074 48.3399C150.264 48.983 150.359 49.6625 150.359 50.3786C150.359 51.0947 150.264 51.7816 150.074 52.4392C149.898 53.0822 149.614 53.6887 149.219 54.2586C148.839 54.8286 148.306 55.2816 147.619 55.6178C146.946 55.9539 146.157 56.1219 145.251 56.1219C143.688 56.1219 142.46 55.552 141.568 54.4121Z" fill="#5B42DC"/>
</svg>
