<svg width="46" height="46" viewBox="0 0 46 46" fill="none" xmlns="http://www.w3.org/2000/svg">
<path d="M37.4627 34.412C37.8678 34.817 38.0954 35.3664 38.0954 35.9393C38.0954 36.5122 37.8678 37.0616 37.4627 37.4667C37.0576 37.8717 36.5082 38.0993 35.9354 38.0993C35.3625 38.0993 34.8131 37.8717 34.408 37.4667L22.9997 26.0547L11.5877 37.4631C11.1826 37.8681 10.6332 38.0957 10.0604 38.0957C9.48752 38.0957 8.93811 37.8681 8.53304 37.4631C8.12796 37.058 7.90039 36.5086 7.90039 35.9357C7.90039 35.3628 8.12796 34.8134 8.53304 34.4084L19.945 23L8.53663 11.5881C8.13155 11.183 7.90398 10.6336 7.90398 10.0607C7.90398 9.48785 8.13155 8.93845 8.53663 8.53337C8.94171 8.12829 9.49111 7.90072 10.064 7.90072C10.6368 7.90072 11.1862 8.12829 11.5913 8.53337L22.9997 19.9453L34.4116 8.53157C34.8167 8.1265 35.3661 7.89893 35.939 7.89893C36.5118 7.89893 37.0612 8.1265 37.4663 8.53157C37.8714 8.93665 38.099 9.48605 38.099 10.0589C38.099 10.6318 37.8714 11.1812 37.4663 11.5863L26.0544 23L37.4627 34.412Z" fill="#5B42DC"/>
</svg>
