<svg width="323" height="309" viewBox="0 0 323 309" fill="none" xmlns="http://www.w3.org/2000/svg">
<path d="M256.294 80.6838L213.89 90.0531L213.09 116.889L206.979 85.6014L193.024 25.4398L141.792 28.6623C139.605 48.4325 136.958 77.1355 134.281 108.095L126.844 75.2835L75.8665 76.4609C75.6953 77.3615 58.6831 167.708 42.9128 245.149L93.9323 255.052C97.1026 239.483 100.32 223.397 103.447 207.611L121.211 285.966L172.553 281.97C172.612 281.149 175.435 243.436 179.203 196.284L184.638 219.728L235.452 219.095L248.856 157.035L253.396 163.045L295.137 132.074L256.292 80.6767L256.294 80.6838Z" fill="#5B42DC"/>
<path d="M134.403 178.851C151.133 174.934 161.558 158.359 157.688 141.829C153.818 125.298 137.118 115.073 120.388 118.99C103.658 122.907 93.2331 139.483 97.1032 156.013C100.973 172.543 117.673 182.768 134.403 178.851Z" fill="#F2F2F2"/>
<path d="M121.869 125.317C135.045 122.232 148.246 130.315 151.294 143.333C154.342 156.352 146.101 169.454 132.925 172.539C119.749 175.624 106.549 167.541 103.501 154.523C100.453 141.504 108.693 128.402 121.869 125.317ZM120.388 118.99C103.656 122.908 93.2342 139.488 97.1032 156.013C100.972 172.538 117.678 182.767 134.403 178.851C151.128 174.935 161.557 158.354 157.688 141.829C153.819 125.303 137.113 115.075 120.388 118.99Z" fill="black"/>
<path d="M134.03 155.201C139.078 154.019 142.224 149.017 141.056 144.029C139.888 139.04 134.849 135.955 129.8 137.137C124.752 138.319 121.606 143.321 122.774 148.309C123.941 153.297 128.981 156.383 134.03 155.201Z" fill="black"/>
<path d="M196.43 164.335C213.16 160.418 223.585 143.842 219.715 127.312C215.844 110.782 199.145 100.557 182.415 104.474C165.685 108.391 155.26 124.966 159.13 141.497C163 158.027 179.7 168.252 196.43 164.335Z" fill="#F2F2F2"/>
<path d="M183.896 110.801C197.072 107.716 210.272 115.798 213.32 128.817C216.368 141.835 208.128 154.937 194.952 158.022C181.776 161.107 168.575 153.025 165.527 140.006C162.48 126.988 170.72 113.885 183.896 110.801ZM182.415 104.474C165.682 108.391 155.261 124.971 159.13 141.497C162.999 158.022 179.704 168.251 196.43 164.335C213.155 160.419 223.584 143.837 219.715 127.312C215.846 110.787 199.14 100.558 182.415 104.474Z" fill="black"/>
<path d="M193.131 141.372C198.179 140.19 201.325 135.188 200.157 130.199C198.989 125.211 193.95 122.126 188.901 123.308C183.853 124.49 180.707 129.492 181.875 134.48C183.043 139.468 188.082 142.554 193.131 141.372Z" fill="black"/>
<path d="M171.575 185.825C163.955 187.609 156.762 189.293 150.897 182.521L155.893 178.271C158.76 181.578 161.877 181.377 169.085 179.727C169.248 179.674 169.42 179.626 169.601 179.583C174.035 178.546 176.023 176.857 176.935 173.344L183.298 174.935C181.455 182.01 176.358 184.486 172.229 185.619C172.026 185.697 171.814 185.769 171.582 185.823L171.575 185.825Z" fill="black"/>
</svg>
