<svg width="488" height="378" viewBox="0 0 488 378" fill="none" xmlns="http://www.w3.org/2000/svg">
<path d="M382.622 171.653L290.563 182.529L283.249 240.023L276.812 171.453L259.748 39.1245L150.218 34.8636C141.436 76.8705 129.805 137.973 117.64 203.918L108.703 131.785L0.142279 123.185C-0.409839 125.083 -55.4602 315.515 -105.171 478.486L1.16025 510.905C11.1539 478.141 21.3557 444.276 31.3032 411.038L52.6531 583.293L162.577 585.917C162.876 584.164 176.763 503.739 194.635 403.237L201.279 454.802L309.379 464.536L350.844 334.1L359.233 348.008L454.401 290.568L382.62 171.637L382.622 171.653Z" fill="#5B42DC"/>
<path d="M169.921 353.59C161.135 354.741 149.573 351.451 143.492 338.778L156.149 332.7C159.5 339.692 165.074 340.067 168.097 339.671C170.931 339.299 177.674 337.583 179.126 329.721L192.929 332.269C190.369 346.106 179.368 352.352 169.921 353.59Z" fill="black"/>
<path d="M148.891 262.848C145.921 240.178 126.931 223.967 106.467 226.648C95.3393 228.106 88.2998 234.777 80.9369 244.348C79.8304 245.787 77.8835 246.058 76.4302 244.971C65.6744 236.942 58.4828 232.934 47.2451 234.407C26.7815 237.087 12.6084 257.644 15.5784 280.313C19.4636 309.969 66.847 336.194 77.3845 340.115C87.1674 343.768 94.4539 344.474 104.62 336.531C114.786 328.588 152.836 293.087 148.875 262.85L148.891 262.848Z" fill="#F9195A"/>
<path d="M92.8439 350.369C86.7614 351.166 80.8789 349.828 74.6269 347.502C65.1141 343.957 12.3826 316.693 7.75081 281.338C4.21937 254.382 21.4817 229.829 46.2204 226.588C59.3127 224.872 68.1665 229.365 77.5064 235.982C84.356 227.739 92.7272 220.495 105.442 218.829C130.181 215.588 153.188 234.882 156.717 261.822C158.69 276.878 152.511 294.023 138.375 312.786C127.67 326.995 115.194 338.291 109.51 342.74C103.579 347.381 98.1405 349.675 92.8596 350.367L92.8439 350.369ZM48.2668 242.208C32.1569 244.319 21.0027 260.95 23.403 279.271C26.5107 302.993 67.5327 328.007 80.1548 332.709C88.5584 335.84 92.5679 335.937 99.7746 330.298C109.361 322.815 144.434 289.604 141.061 263.857C138.661 245.536 123.599 232.339 107.489 234.45C100.086 235.419 94.7859 239.26 87.1908 249.133C83.4342 254.017 76.6349 254.956 71.7102 251.289C61.4876 243.67 56.4103 241.157 48.2689 242.224L48.2668 242.208Z" fill="black"/>
<path d="M301.456 242.861C298.486 220.191 279.496 203.98 259.032 206.66C247.904 208.118 240.865 214.789 233.502 224.361C232.396 225.799 230.449 226.07 228.995 224.983C218.24 216.955 211.048 212.947 199.81 214.419C179.347 217.1 165.174 237.656 168.144 260.326C172.029 289.982 219.412 316.207 229.95 320.128C239.733 323.78 247.019 324.486 257.185 316.544C267.351 308.601 305.401 273.1 301.44 242.863L301.456 242.861Z" fill="#F9195A"/>
<path d="M245.425 330.38C239.343 331.177 233.46 329.84 227.208 327.513C217.695 323.968 164.964 296.704 160.332 261.349C156.801 234.393 174.063 209.84 198.802 206.599C211.894 204.883 220.748 209.376 230.088 215.993C236.937 207.75 245.308 200.506 258.024 198.84C282.762 195.599 305.769 214.893 309.298 241.833C311.271 256.889 305.092 274.034 290.956 292.797C280.252 307.006 267.775 318.302 262.091 322.751C256.161 327.393 250.722 329.686 245.441 330.378L245.425 330.38ZM200.848 222.219C184.738 224.33 173.584 240.961 175.984 259.283C179.092 283.004 220.114 308.018 232.736 312.72C241.14 315.851 245.147 315.933 252.356 310.309C261.943 302.826 297.015 269.615 293.642 243.868C291.242 225.547 276.18 212.35 260.07 214.461C252.667 215.431 247.367 219.271 239.772 229.144C236.031 234.026 229.216 234.967 224.289 231.285C214.067 223.665 208.99 221.153 200.848 222.219Z" fill="black"/>
</svg>
