<svg width="560" height="104" viewBox="0 0 560 104" fill="none" xmlns="http://www.w3.org/2000/svg">
<path d="M135.358 0.983103L121.695 6.72656L126.809 18.8921L140.472 13.1486L135.358 0.983103Z" fill="black"/>
<path d="M547.154 52.2176L503.696 69.549L500.501 72.6888L498.353 70.5013L501.344 67.5643L515.986 30.2551L505.574 22.8125L454.106 66.5106L450.307 70.2426L448.16 68.0552L454.724 61.6049L468.297 37.2123L456.765 30.794L446.108 49.9474L407.34 66.7987L402.89 71.1709L400.743 68.9835L404.429 65.3609L424.618 29.4015L413.112 22.9405L412.931 23.2633L412.872 23.0259L359.982 35.9505L360.072 36.3186L359.838 36.1852L334.855 80.0541L343.997 88.9719L392.446 59.7482L381.317 79.5712L389.702 88.8518L435.547 68.9275L420.902 95.2514L430.94 103.492L494.125 49.8487L482.14 80.3928L490.727 88.9319L552.05 64.4752L547.16 52.2149L547.154 52.2176ZM362.991 62.1037L359.504 65.5316L357.357 63.3442L362.351 58.4384L368.619 47.4265L400.055 39.7438L362.991 62.101V62.1037Z" fill="black"/>
<path d="M45.9793 72.5648L40.9109 74.8403L40.1559 73.1624L40.1186 73.165L40.1506 73.1464L39.6544 72.0473L48.4709 68.0859L103.37 34.6901L99.3395 22.4805L16.0701 30.1285L17.2785 43.2718L65.4235 38.8489L71.3936 36.6081L72.0072 38.2434L72.1539 38.23L72.0285 38.3074L72.4687 39.4758L66.2985 41.794L8.30469 77.0704L12.4075 89.2721L84.3555 81.8988L83.0111 68.7715L45.9793 72.5648Z" fill="black"/>
<path d="M354.372 23.0369L321.859 30.9837L316.401 37.0285L314.126 34.9745L318.941 29.6419L319.379 28.8523L307.836 22.4527L289.536 55.4564L255.407 69.408L253.264 71.5127L252.403 70.6351L252.4 70.6378V70.6324L251.117 69.3253L254.041 66.4549L268.334 30.0314L257.783 22.7088L209.281 66.2682L203.943 71.5127L201.796 69.3253L207.278 63.9421L226.863 22.9916L216.75 15.0234L170.329 52.7301L164.396 58.5562L162.251 56.3687L168.584 50.1479L180.436 28.5295L168.864 22.186L153.25 50.6654L113.471 67.3086L108.571 72.121L106.423 69.9362L110.409 66.0201L131.075 28.8763L119.543 22.4607L87.75 79.6009L96.0623 88.8976L143.071 69.2293L136.874 80.5319L146.819 88.8282L202.3 43.7643L177.606 95.3932L187.969 103.148L245.87 51.1482L234.482 80.1691L243.122 88.6868L279.314 73.8949L274.699 82.2179L286.239 88.6175L308.911 47.731L357.504 35.8575L354.372 23.0369Z" fill="black"/>
</svg>
