<svg width="1440" height="271" viewBox="0 0 1440 271" fill="none" xmlns="http://www.w3.org/2000/svg">
<path d="M336.458 -2.67035e-05L300.273 15.2151L313.817 47.443L350.001 32.2279L336.458 -2.67035e-05Z" fill="#262626"/>
<path d="M1427.04 135.742L1311.95 181.655L1303.48 189.972L1297.8 184.177L1305.71 176.397L1344.49 77.5604L1316.92 57.844L1180.61 173.606L1170.55 183.492L1164.87 177.697L1182.25 160.61L1218.2 95.9907L1187.66 78.9879L1159.43 129.728L1056.76 174.369L1044.98 185.951L1039.29 180.157L1049.05 170.56L1102.52 75.299L1072.05 58.1832L1071.57 59.0383L1071.41 58.4093L931.343 92.6481L931.583 93.6233L930.962 93.27L864.801 209.484L889.011 233.108L1017.32 155.691L987.846 208.205L1010.05 232.79L1131.46 180.008L1092.68 249.743L1119.26 271.573L1286.6 129.466L1254.86 210.381L1277.6 233.002L1440 168.214L1427.05 135.734L1427.04 135.742ZM939.312 161.931L930.078 171.012L924.391 165.217L937.616 152.221L954.218 123.05L1037.47 102.697L939.312 161.924V161.931Z" fill="#262626"/>
<path d="M99.7745 189.641L86.3516 195.669L84.3523 191.224L84.2534 191.231L84.3382 191.181L83.0241 188.27L106.373 177.775L251.764 89.306L241.089 56.9612L20.5653 77.2218L23.7656 112.04L151.269 100.323L167.08 94.387L168.705 98.719L169.093 98.6837L168.761 98.8886L169.927 101.984L153.586 108.125L0 201.577L10.8655 233.9L201.407 214.367L197.846 179.592L99.7745 189.641Z" fill="#262626"/>
<path d="M916.499 58.4165L830.395 79.4685L815.94 95.4819L809.914 90.0405L822.666 75.9139L823.825 73.8221L793.256 56.8688L744.792 144.3L654.407 181.259L648.734 186.835L646.452 184.51L646.445 184.517V184.503L643.047 181.04L650.789 173.436L688.642 76.9457L660.701 57.5472L532.251 172.941L518.115 186.835L512.428 181.04L526.946 166.779L578.814 58.2963L552.032 37.1877L429.093 137.077L413.381 152.511L407.701 146.716L424.472 130.237L455.861 72.967L425.214 56.1622L383.865 131.607L278.516 175.697L265.538 188.446L259.851 182.658L270.406 172.284L325.136 73.8857L294.595 56.89L210.398 208.261L232.412 232.889L356.906 180.786L340.495 210.728L366.832 232.705L513.763 113.326L448.365 250.097L475.811 270.64L629.15 132.887L598.991 209.767L621.874 232.331L717.72 193.145L705.498 215.194L736.06 232.147L796.103 123.834L924.793 92.3796L916.499 58.4165Z" fill="#262626"/>
</svg>
