<svg width="208" height="256" viewBox="0 0 208 256" fill="none" xmlns="http://www.w3.org/2000/svg">
<path d="M63.9626 53.4014L98.8203 63.4116L98.0152 86.0718L104.829 60.0035L119.77 9.98819L162.329 15.257C163.068 32.0303 163.702 56.3561 164.236 82.5855L172.24 55.2989L214.698 58.8312C214.792 59.5989 224.026 136.6 232.932 202.661L189.831 208.466C188.041 195.185 186.239 181.466 184.497 168.005L165.38 233.165L122.773 227.239C122.768 226.544 122.483 194.615 121.926 154.683L116.106 174.173L73.7543 171.107L65.978 118.128L61.8613 122.969L28.7426 94.7837L63.9644 53.3955L63.9626 53.4014Z" fill="#6041E3"/>
<path d="M134.604 137.074C137.923 138.073 142.595 137.533 145.743 133.024L141.239 129.878C139.504 132.366 137.328 132.159 136.186 131.815C135.115 131.493 132.621 130.405 132.556 127.278L127.066 127.39C127.181 132.894 131.034 136 134.604 137.074Z" fill="black"/>
<path d="M148.449 103.366C151.027 94.8004 159.382 89.7399 167.114 92.0667C171.318 93.332 173.615 96.3521 175.854 100.513C176.19 101.138 176.925 101.365 177.555 101.037C182.214 98.6164 185.244 97.5229 189.49 98.8007C197.222 101.128 201.396 109.959 198.819 118.524C195.447 129.729 175.496 136.864 171.18 137.712C167.172 138.505 164.315 138.318 160.891 134.609C157.467 130.901 145.017 114.792 148.455 103.368L148.449 103.366Z" fill="#F9195A"/>
<path d="M164.565 140.695C166.863 141.387 169.219 141.242 171.78 140.738C175.676 139.97 197.757 132.772 201.777 119.414C204.842 109.229 199.727 98.6592 190.38 95.8462C185.433 94.3575 181.731 95.5334 177.708 97.4987C175.583 93.8837 172.808 90.5581 168.004 89.1123C158.657 86.2993 148.556 92.2966 145.493 102.475C143.781 108.164 145.084 115.174 149.358 123.31C152.594 129.472 156.698 134.621 158.612 136.698C160.609 138.864 162.564 140.093 164.559 140.694L164.565 140.695ZM188.604 101.748C194.691 103.58 197.948 110.706 195.864 117.628C193.167 126.591 175.749 133.659 170.579 134.678C167.137 135.356 165.583 135.141 163.156 132.509C159.927 129.014 148.482 113.977 151.409 104.249C153.493 97.3271 160.141 93.1825 166.228 95.0143C169.025 95.856 170.829 97.6733 173.138 101.965C174.28 104.088 176.846 104.879 178.979 103.775C183.407 101.478 185.526 100.828 188.602 101.754L188.604 101.748Z" fill="black"/>
<path d="M90.8084 86.0201C93.3861 77.4547 101.741 72.3942 109.473 74.721C113.678 75.9863 115.975 79.0064 118.213 83.1668C118.55 83.792 119.284 84.0196 119.914 83.6916C124.574 81.2707 127.603 80.1772 131.849 81.455C139.581 83.7818 143.756 92.6132 141.178 101.179C137.806 112.384 117.856 119.518 113.54 120.367C109.532 121.159 106.674 120.972 103.25 117.264C99.8264 113.555 87.3762 97.4463 90.8143 86.0219L90.8084 86.0201Z" fill="#F9195A"/>
<path d="M106.917 123.348C109.215 124.039 111.571 123.894 114.131 123.391C118.028 122.623 140.109 115.424 144.129 102.066C147.194 91.8815 142.079 81.3115 132.732 78.4986C127.785 77.0099 124.083 78.1857 120.059 80.151C117.935 76.536 115.16 73.2104 110.356 71.7646C101.009 68.9517 90.9079 74.9489 87.8446 85.1277C86.1327 90.8161 87.4361 97.8261 91.7097 105.963C94.9456 112.125 99.0499 117.273 100.964 119.35C102.96 121.517 104.916 122.745 106.911 123.346L106.917 123.348ZM130.956 84.4006C137.042 86.2324 140.299 93.3579 138.216 100.28C135.519 109.243 118.101 116.312 112.931 117.33C109.489 118.009 107.936 117.787 105.508 115.161C102.279 111.666 90.8335 96.6297 93.761 86.9017C95.8443 79.9794 102.493 75.8348 108.58 77.6667C111.377 78.5084 113.181 80.3257 115.49 84.6173C116.626 86.7382 119.198 87.5316 121.333 86.421C125.761 84.1245 127.879 83.4748 130.956 84.4006Z" fill="black"/>
</svg>
