<svg width="175" height="166" viewBox="0 0 175 166" fill="none" xmlns="http://www.w3.org/2000/svg">
<path d="M158.165 50.0973L130.161 49.7423L125.713 66.6781L126.476 45.885L126.558 5.5749L93.9145 0C89.635 12.2389 83.753 30.0862 77.5208 49.3633L77.6744 27.4043L45.4916 20.5676C45.2517 21.1146 21.2873 76 0 122.868L30.5804 136.753C34.8599 127.33 39.245 117.586 43.5293 108.02L43.1647 160.458L75.9904 165.558C76.1487 165.045 83.4651 141.498 92.763 112.093L92.7295 127.8L124.73 134.959L142.27 97.5128L144.237 102.008L175 88.5363L158.165 50.0925V50.0973Z" fill="#5B42DC"/>
<path d="M67.1967 94.3524C78.2777 94.3524 87.2606 85.3695 87.2606 74.2885C87.2606 63.2075 78.2777 54.2246 67.1967 54.2246C56.1157 54.2246 47.1328 63.2075 47.1328 74.2885C47.1328 85.3695 56.1157 94.3524 67.1967 94.3524Z" fill="#F2F2F2"/>
<path d="M67.1967 58.4658C75.9237 58.4658 83.0242 65.5663 83.0242 74.2933C83.0242 83.0203 75.9237 90.1208 67.1967 90.1208C58.4697 90.1208 51.3692 83.0203 51.3692 74.2933C51.3692 65.5663 58.4697 58.4658 67.1967 58.4658ZM67.1967 54.2246C56.1141 54.2246 47.1328 63.2107 47.1328 74.2885C47.1328 85.3663 56.1189 94.3524 67.1967 94.3524C78.2745 94.3524 87.2606 85.3663 87.2606 74.2885C87.2606 63.2107 78.2745 54.2246 67.1967 54.2246Z" fill="black"/>
<path d="M70.4414 79.2695C73.7853 79.2695 76.496 76.5587 76.496 73.2148C76.496 69.8709 73.7853 67.1602 70.4414 67.1602C67.0975 67.1602 64.3867 69.8709 64.3867 73.2148C64.3867 76.5587 67.0975 79.2695 70.4414 79.2695Z" fill="black"/>
<path d="M108.279 94.3524C119.36 94.3524 128.343 85.3695 128.343 74.2885C128.343 63.2075 119.36 54.2246 108.279 54.2246C97.1977 54.2246 88.2148 63.2075 88.2148 74.2885C88.2148 85.3695 97.1977 94.3524 108.279 94.3524Z" fill="#F2F2F2"/>
<path d="M108.279 58.4658C117.006 58.4658 124.106 65.5663 124.106 74.2933C124.106 83.0203 117.006 90.1208 108.279 90.1208C99.5517 90.1208 92.4512 83.0203 92.4512 74.2933C92.4512 65.5663 99.5517 58.4658 108.279 58.4658ZM108.279 54.2246C97.1961 54.2246 88.2148 63.2107 88.2148 74.2885C88.2148 85.3663 97.2009 94.3524 108.279 94.3524C119.357 94.3524 128.343 85.3663 128.343 74.2885C128.343 63.2107 119.357 54.2246 108.279 54.2246Z" fill="black"/>
<path d="M109.582 79.2695C112.926 79.2695 115.637 76.5587 115.637 73.2148C115.637 69.8709 112.926 67.1602 109.582 67.1602C106.238 67.1602 103.527 69.8709 103.527 73.2148C103.527 76.5587 106.238 79.2695 109.582 79.2695Z" fill="black"/>
<path d="M89.5097 104.316C84.4625 104.316 79.6984 104.316 77.0117 99.1391L80.7731 97.1816C82.0877 99.71 84.0739 100.046 88.8428 100.07C88.9531 100.06 89.0683 100.055 89.1882 100.055C92.1244 100.055 93.6213 99.2782 94.7103 97.1816L98.4717 99.1391C96.2744 103.361 92.7097 104.177 89.951 104.282C89.8119 104.301 89.668 104.316 89.5145 104.316H89.5097Z" fill="black"/>
</svg>
