<?xml version="1.0" standalone="no"?>
<!DOCTYPE svg PUBLIC "-//W3C//DTD SVG 1.1//EN" "http://www.w3.org/Graphics/SVG/1.1/DTD/svg11.dtd" >
<svg xmlns="http://www.w3.org/2000/svg" xmlns:xlink="http://www.w3.org/1999/xlink" version="1.1">
<metadata></metadata>
<defs>
<font id="upmaxlight" horiz-adv-x="630" >
<font-face units-per-em="1000" ascent="800" descent="-200" />
<missing-glyph horiz-adv-x="269" />
<glyph unicode="ff" horiz-adv-x="658" d="M19 500h93v86q0 134 121 134q42 0 81 -14v-59q-36 16 -77 16q-62 0 -62 -70v-93h266v86q0 134 121 134q42 0 81 -14v-59q-36 16 -77 16q-62 0 -62 -70v-93h139v-52h-139v-448h-63v448h-266v-448h-63v448h-93v52z" />
<glyph unicode="fi" horiz-adv-x="548" d="M19 500h93v86q0 134 121 134q42 0 81 -14v-59q-36 16 -77 16q-62 0 -62 -70v-93h295v-500h-63v448h-232v-448h-63v448h-93v52zM395 666q0 19 12.5 31t30.5 12t30.5 -12t12.5 -31t-12.5 -31t-30.5 -12t-30.5 12t-12.5 31z" />
<glyph unicode="fl" horiz-adv-x="548" d="M19 500h93v86q0 134 121 134q42 0 81 -14v-59q-36 16 -77 16q-62 0 -62 -70v-93h232v200h63v-700h-63v448h-232v-448h-63v448h-93v52z" />
<glyph unicode="ffi" horiz-adv-x="877" d="M19 500h93v86q0 134 121 134q42 0 81 -14v-59q-36 16 -77 16q-62 0 -62 -70v-93h266v86q0 134 121 134q42 0 81 -14v-59q-36 16 -77 16q-62 0 -62 -70v-93h295v-500h-63v448h-232v-448h-63v448h-266v-448h-63v448h-93v52zM724 666q0 19 12.5 31t30.5 12t30.5 -12 t12.5 -31t-12.5 -31t-30.5 -12t-30.5 12t-12.5 31z" />
<glyph unicode="ffl" horiz-adv-x="877" d="M19 500h93v86q0 134 121 134q42 0 81 -14v-59q-36 16 -77 16q-62 0 -62 -70v-93h266v86q0 134 121 134q42 0 81 -14v-59q-36 16 -77 16q-62 0 -62 -70v-93h232v200h63v-700h-63v448h-232v-448h-63v448h-266v-448h-63v448h-93v52z" />
<glyph unicode="fft" horiz-adv-x="1025" d="M19 500h93v86q0 134 121 134q42 0 81 -14v-59q-36 16 -77 16q-62 0 -62 -70v-93h266v86q0 134 121 134q42 0 81 -14v-59q-36 16 -77 16q-62 0 -62 -70v-93h266v140h63v-140h139v-52h-139v-332q0 -70 62 -70q41 0 77 16v-58q-39 -14 -81 -14q-121 0 -121 134v324h-266 v-448h-63v448h-266v-448h-63v448h-93v52z" />
<glyph horiz-adv-x="0" />
<glyph horiz-adv-x="0" />
<glyph unicode="&#xd;" horiz-adv-x="333" />
<glyph unicode=" "  horiz-adv-x="269" />
<glyph unicode="&#x09;" horiz-adv-x="269" />
<glyph unicode="&#xa0;" horiz-adv-x="269" />
<glyph unicode="!" horiz-adv-x="276" d="M167 194h-58l-5 506h68zM93 40q0 19 13 32t32 13t32 -13t13 -32t-13 -32t-32 -13t-32 13t-13 32z" />
<glyph unicode="&#x22;" horiz-adv-x="327" d="M61 470v230h55v-230h-55zM211 470v230h55v-230h-55z" />
<glyph unicode="#" horiz-adv-x="611" d="M402 443h-165l-27 -185h165zM151 258l27 185h-110v57h118l29 200h59l-29 -200h165l29 200h59l-29 -200h109v-57h-117l-27 -185h109v-57h-118l-29 -201h-59l29 201h-165l-29 -201h-59l29 201h-109v57h118z" />
<glyph unicode="$" horiz-adv-x="614" d="M335 316v-263q71 6 119.5 41t48.5 97q0 26 -9.5 45.5t-23.5 32t-37.5 22.5t-45 15t-52.5 10zM273 391v255q-63 -7 -103.5 -42t-40.5 -96q0 -54 37 -79t107 -38zM335 -9v-91h-62v92q-93 8 -157 59.5t-70 143.5h65q6 -62 51 -98t111 -43v272q-47 8 -78.5 18t-64.5 29.5 t-49.5 53.5t-16.5 82q0 90 59.5 141t149.5 59v91h62v-91q87 -8 145 -59.5t64 -145.5h-65q-6 64 -45 99.5t-99 42.5v-265q42 -7 69 -12.5t61.5 -19.5t54.5 -33t34 -51t14 -75q0 -92 -67 -142t-166 -57z" />
<glyph unicode="%" horiz-adv-x="874" d="M62 536q0 72 41 123t122 51t122 -51t41 -123t-41 -123t-122 -51t-122 51t-41 123zM201 0l402 700h70l-402 -700h-70zM127 536q0 -48 24.5 -81t73.5 -33t73.5 33t24.5 81t-24.5 81t-73.5 33t-73.5 -33t-24.5 -81zM486 164q0 72 41 123t122 51t122 -51t41 -123t-41 -123 t-122 -51t-122 51t-41 123zM551 164q0 -48 24.5 -81t73.5 -33t73.5 33t24.5 81t-24.5 81t-73.5 33t-73.5 -33t-24.5 -81z" />
<glyph unicode="&#x26;" horiz-adv-x="619" d="M426 114q-130 133 -215 242q-100 -66 -100 -156q0 -70 46.5 -110.5t112.5 -40.5q86 0 156 65zM388 571q0 34 -25 57t-63 23q-43 0 -72 -33.5t-29 -84.5q0 -49 32 -100q7 3 26.5 12.5t26.5 13.5t23.5 12.5t23 13.5t18.5 13.5t17 15.5t11 16.5t8.5 19.5t2.5 21zM629 0h-91 l-72 72q-91 -82 -196 -82q-93 0 -158.5 55t-65.5 155q0 127 130 203q-46 67 -46 130q0 74 47.5 125.5t124.5 51.5q59 0 107 -39t48 -100q0 -20 -4.5 -36.5t-18.5 -33t-22.5 -26.5t-34 -25.5t-33 -20.5t-41 -22t-38.5 -20q68 -85 205 -226q14 18 51 71l44 -44 q-28 -39 -53 -70q25 -26 65.5 -66t51.5 -52z" />
<glyph unicode="'" horiz-adv-x="177" d="M61 470v230h55v-230h-55z" />
<glyph unicode="(" horiz-adv-x="262" d="M101 270q0 -234 140 -426l-33 -23q-162 196 -162 449t162 449l33 -23q-140 -192 -140 -426z" />
<glyph unicode=")" horiz-adv-x="262" d="M161 270q0 234 -140 426l33 23q162 -196 162 -449t-162 -449l-33 23q140 192 140 426z" />
<glyph unicode="*" horiz-adv-x="396" d="M85 431l77 101l-121 36l16 47l119 -42l-3 127h50l-3 -127l119 42l16 -47l-121 -36l77 -101l-41 -29l-72 106l-72 -106z" />
<glyph unicode="+" horiz-adv-x="631" d="M287 272h-219v56h219v219h57v-219h219v-56h-219v-219h-57v219z" />
<glyph unicode="," horiz-adv-x="247" d="M70 -129l35 200h72l-53 -200h-54z" />
<glyph unicode="-" horiz-adv-x="491" d="M77 253v60h337v-60h-337z" />
<glyph unicode="." horiz-adv-x="230" d="M70 40q0 19 13 32t32 13t32 -13t13 -32t-13 -32t-32 -13t-32 13t-13 32z" />
<glyph unicode="/" horiz-adv-x="365" d="M26 0l262 700h51l-262 -700h-51z" />
<glyph unicode="0" horiz-adv-x="590" d="M51 350q0 73 11.5 133.5t38 113.5t76 83t118.5 30t118.5 -30t76 -83t38 -113.5t11.5 -133.5t-11.5 -133.5t-38 -113.5t-76 -83t-118.5 -30t-118.5 30t-76 83t-38 113.5t-11.5 133.5zM116 350q0 -61 8.5 -111.5t28 -94.5t55.5 -69t87 -25t87 25t55.5 69t28 94.5t8.5 111.5 t-8.5 111.5t-28 94.5t-55.5 69t-87 25t-87 -25t-55.5 -69t-28 -94.5t-8.5 -111.5z" />
<glyph unicode="1" horiz-adv-x="335" d="M176 0v540h-154v48q59 4 105.5 32t65.5 80h48v-700h-65z" />
<glyph unicode="2" horiz-adv-x="544" d="M433 477q0 83 -46 128t-115 45q-68 0 -112.5 -38t-48.5 -98h-65q2 89 68 142.5t158 53.5q97 0 161.5 -61t64.5 -172q0 -41 -14 -75.5t-42.5 -62.5t-55 -47t-68.5 -43q-7 -4 -33.5 -19.5t-35.5 -20.5t-31.5 -19.5t-32 -22.5t-26 -22.5t-24 -26t-15.5 -27t-11 -31.5h389 v-60h-452v38q0 23 4.5 45t16.5 41.5t21.5 35t30 33t31.5 28t37 26.5t35 21.5t36.5 21t31.5 17.5q75 42 109 79.5t34 90.5z" />
<glyph unicode="3" horiz-adv-x="535" d="M468 650l-178 -252q97 -7 148 -61t51 -135q0 -93 -60.5 -152.5t-175.5 -59.5q-91 0 -153 54.5t-64 142.5h65q4 -61 48 -99t112 -38q71 0 117 37.5t46 110.5q0 72 -46 109.5t-116 37.5h-16l-26 54l170 241h-334v60h412v-50z" />
<glyph unicode="4" horiz-adv-x="558" d="M357 680l-245 -473h247v473h-2zM521 147h-97v-147h-65v147h-322v51l260 502h127v-493h97v-60z" />
<glyph unicode="5" horiz-adv-x="545" d="M472 700v-60h-345v-233q58 60 149 60q98 0 160.5 -63.5t62.5 -180.5q0 -96 -61.5 -164.5t-174.5 -68.5q-91 0 -153 54.5t-64 142.5h65q5 -61 49 -99t112 -38q69 0 115.5 46.5t46.5 134.5q0 86 -50 131t-125 45q-84 0 -144 -75h-52v368h409z" />
<glyph unicode="6" horiz-adv-x="550" d="M283 397q-68 0 -113.5 -45.5t-45.5 -129.5t45 -128t114 -44t114 43.5t45 127.5t-45.5 130t-113.5 46zM489 533h-65q-7 57 -39.5 87t-87.5 30q-181 0 -189 -299q57 106 182 106q100 0 158.5 -65.5t58.5 -164.5q0 -42 -11.5 -81.5t-35.5 -75.5t-70 -58t-107 -22 q-240 0 -240 340q0 78 12.5 143t40.5 120t79 86t122 31q84 0 134 -46t58 -131z" />
<glyph unicode="7" horiz-adv-x="498" d="M99 0l285 640h-348v60h421v-52l-288 -648h-70z" />
<glyph unicode="8" horiz-adv-x="556" d="M445 209q0 67 -42 112.5t-125 45.5t-125 -45.5t-42 -112.5t42 -113t125 -46t125 46t42 113zM395 538q0 47 -30 79.5t-87 32.5t-87 -32.5t-30 -79.5q0 -46 30 -78.5t87 -32.5t87 32.5t30 78.5zM46 209q0 67 31.5 117.5t86.5 77.5q-68 47 -68 138q0 75 51.5 121.5 t130.5 46.5t130.5 -46.5t51.5 -121.5q0 -91 -68 -138q55 -27 86.5 -77.5t31.5 -117.5q0 -98 -66 -158.5t-166 -60.5t-166 60.5t-66 158.5z" />
<glyph unicode="9" horiz-adv-x="550" d="M267 303q68 0 113.5 45.5t45.5 129.5t-45 128t-114 44t-114 -43.5t-45 -127.5t45.5 -130t113.5 -46zM61 167h65q7 -57 39.5 -87t87.5 -30q181 0 189 299q-57 -106 -182 -106q-100 0 -158.5 65.5t-58.5 164.5q0 42 11.5 81.5t35.5 75.5t70 58t107 22q240 0 240 -340 q0 -78 -12.5 -143t-40.5 -120t-79 -86t-122 -31q-84 0 -134 46t-58 131z" />
<glyph unicode=":" horiz-adv-x="230" d="M70 460q0 19 13 32t32 13t32 -13t13 -32t-13 -32t-32 -13t-32 13t-13 32zM70 40q0 19 13 32t32 13t32 -13t13 -32t-13 -32t-32 -13t-32 13t-13 32z" />
<glyph unicode=";" horiz-adv-x="247" d="M80 460q0 19 13 32t32 13t32 -13t13 -32t-13 -32t-32 -13t-32 13t-13 32zM70 -129l35 200h72l-53 -200h-54z" />
<glyph unicode="&#x3c;" horiz-adv-x="586" d="M68 270l450 208v-58l-375 -170l375 -170v-58l-450 208v40z" />
<glyph unicode="=" horiz-adv-x="631" d="M563 362h-495v56h495v-56zM563 182h-495v56h495v-56z" />
<glyph unicode="&#x3e;" horiz-adv-x="586" d="M518 270v-40l-450 -208v58l375 170l-375 170v58z" />
<glyph unicode="?" horiz-adv-x="502" d="M216 174v192h30q70 0 105.5 42t35.5 101t-35.5 101t-105.5 42t-105.5 -42t-35.5 -101h-63q0 83 52 142t152 59t152 -59t52 -142q0 -76 -43 -132t-127 -67l-4 -136h-60zM201 40q0 19 13 32t32 13t32 -13t13 -32t-13 -32t-32 -13t-32 13t-13 32z" />
<glyph unicode="@" horiz-adv-x="837" d="M515 251q0 44 -23.5 74t-70.5 30t-70.5 -30t-23.5 -74t23.5 -74t70.5 -30t70.5 30t23.5 74zM622 -5h68q-113 -120 -280 -120q-156 0 -254.5 106t-98.5 270q0 163 98.5 268.5t254.5 105.5q158 0 266.5 -105t108.5 -259q0 -85 -46.5 -132.5t-113.5 -47.5q-34 0 -62.5 18 t-40.5 51q-36 -59 -111 -59q-72 0 -107.5 47.5t-35.5 112.5t35.5 112.5t107.5 47.5q67 0 104 -49v42h59v-212q0 -29 18 -46t43 -17q43 0 72.5 36t29.5 96q0 136 -94.5 228t-232.5 92q-137 0 -221 -92.5t-84 -237.5t84 -238.5t221 -93.5q120 0 212 76z" />
<glyph unicode="A" horiz-adv-x="656" d="M327 680l-154 -430h310l-154 430h-2zM84 0h-71l257 700h116l257 -700h-71l-68 190h-352z" />
<glyph unicode="B" horiz-adv-x="676" d="M385 334h-227v-274h227q74 0 123.5 32t49.5 105t-49.5 105t-123.5 32zM368 640h-210v-246h210q66 0 110.5 29t44.5 94t-44.5 94t-110.5 29zM387 0h-294v700h277q44 0 81 -9t69 -28.5t50 -55.5t18 -86q0 -104 -93 -151q128 -48 128 -178q0 -102 -67 -147t-169 -45z" />
<glyph unicode="C" horiz-adv-x="701" d="M594 241h66q-48 -251 -294 -251q-82 0 -146.5 30.5t-102.5 82t-57 114.5t-19 133t19 133t57 114.5t102.5 82t146.5 30.5q246 0 294 -251h-66q-40 191 -228 191q-88 0 -148.5 -44.5t-86 -110t-25.5 -145.5t25.5 -145.5t86 -110t148.5 -44.5q188 0 228 191z" />
<glyph unicode="D" horiz-adv-x="679" d="M321 700q81 0 143.5 -29.5t99.5 -80t55.5 -111.5t18.5 -129t-18.5 -129t-55.5 -111.5t-99.5 -80t-143.5 -29.5h-228v700h228zM321 60q85 0 143.5 43t83.5 106.5t25 140.5t-25 140.5t-83.5 106.5t-143.5 43h-163v-580h163z" />
<glyph unicode="E" horiz-adv-x="599" d="M158 325v-265h390v-60h-455v700h443v-60h-378v-255h354v-60h-354z" />
<glyph unicode="F" horiz-adv-x="537" d="M158 316v-316h-65v700h415v-60h-350v-264h312v-60h-312z" />
<glyph unicode="G" horiz-adv-x="744" d="M41 350q0 70 19 133t57 114.5t102.5 82t146.5 30.5q131 0 202.5 -68t91.5 -183h-65q-39 191 -229 191q-88 0 -148.5 -44.5t-86 -110t-25.5 -145.5t25.5 -145.5t85.5 -110t147 -44.5q213 0 240 237h-238v60h303v-347h-42l-18 121q-66 -131 -243 -131q-82 0 -146.5 30.5 t-102.5 82t-57 114.5t-19 133z" />
<glyph unicode="H" horiz-adv-x="706" d="M93 0v700h65v-314h390v314h65v-700h-65v326h-390v-326h-65z" />
<glyph unicode="I" horiz-adv-x="251" d="M93 0v700h65v-700h-65z" />
<glyph unicode="J" horiz-adv-x="542" d="M242 50q80 0 116 49.5t36 124.5v476h65v-476q0 -100 -51.5 -167t-165.5 -67t-165.5 67t-51.5 167v48h65v-48q0 -75 36 -124.5t116 -49.5z" />
<glyph unicode="K" horiz-adv-x="602" d="M158 700v-344l340 344h91l-346 -350l361 -350h-94l-352 342v-342h-65v700h65z" />
<glyph unicode="L" horiz-adv-x="541" d="M158 700v-640h375v-60h-440v700h65z" />
<glyph unicode="M" horiz-adv-x="886" d="M218 700l224 -680h2l224 680h125v-700h-65v680h-2l-224 -680h-118l-224 680h-2v-680h-65v700h125z" />
<glyph unicode="N" horiz-adv-x="741" d="M219 700l362 -680h2v680h65v-700h-126l-362 680h-2v-680h-65v700h126z" />
<glyph unicode="O" horiz-adv-x="732" d="M41 350q0 70 19 133t57 114.5t102.5 82t146.5 30.5t146.5 -30.5t102.5 -82t57 -114.5t19 -133t-19 -133t-57 -114.5t-102.5 -82t-146.5 -30.5t-146.5 30.5t-102.5 82t-57 114.5t-19 133zM626 350q0 80 -25.5 145.5t-86 110t-148.5 44.5t-148.5 -44.5t-86 -110 t-25.5 -145.5t25.5 -145.5t86 -110t148.5 -44.5t148.5 44.5t86 110t25.5 145.5z" />
<glyph unicode="P" horiz-adv-x="625" d="M361 640h-203v-324h203q71 0 116.5 46t45.5 116t-45.5 116t-116.5 46zM360 256h-202v-256h-65v700h267q99 0 163.5 -63t64.5 -159t-64.5 -159t-163.5 -63z" />
<glyph unicode="Q" horiz-adv-x="768" d="M41 350q0 70 19 133t57 114.5t102.5 82t146.5 30.5t146.5 -30.5t102.5 -82t57 -114.5t19 -133q0 -138 -66 -233l102 -102l-43 -43l-98 98q-85 -80 -220 -80q-82 0 -146.5 30.5t-102.5 82t-57 114.5t-19 133zM626 350q0 80 -25.5 145.5t-86 110t-148.5 44.5t-148.5 -44.5 t-86 -110t-25.5 -145.5t25.5 -145.5t86 -110t148.5 -44.5q108 0 175 65l-134 134l43 43l129 -129q47 75 47 187z" />
<glyph unicode="R" horiz-adv-x="661" d="M371 640h-213v-306h213q66 0 109 43t43 110t-43 110t-109 43zM158 274v-274h-65v700h277q95 0 156.5 -60t61.5 -153q0 -81 -48 -138t-126 -71l183 -278h-76l-181 274h-182z" />
<glyph unicode="S" horiz-adv-x="614" d="M46 195h65q7 -70 63 -107.5t133 -37.5q80 0 138 36t58 105q0 37 -19 62.5t-49.5 36.5t-70 20t-81 14t-81 17.5t-70 30t-49.5 52.5t-19 85q0 99 70 150t170 51q98 0 165.5 -52t74.5 -154h-65q-7 72 -55 109t-120 37q-74 0 -124.5 -36.5t-50.5 -105.5q0 -41 24 -66.5 t63 -36.5t85.5 -18t93.5 -17.5t86 -28t63 -55.5t24 -96q0 -98 -76.5 -149t-184.5 -51q-105 0 -179.5 52.5t-81.5 152.5z" />
<glyph unicode="T" horiz-adv-x="565" d="M315 640v-640h-65v640h-229v60h523v-60h-229z" />
<glyph unicode="U" horiz-adv-x="716" d="M568 275v425h65v-432q0 -51 -13.5 -97t-43 -88.5t-85.5 -67.5t-133 -25t-133 25t-85.5 67.5t-43 88.5t-13.5 97v432h65v-425q0 -42 10.5 -79.5t33 -71.5t65.5 -54t101 -20t101 20t65.5 54t33 71.5t10.5 79.5z" />
<glyph unicode="V" horiz-adv-x="672" d="M11 700h72l252 -680h2l252 680h72l-266 -700h-118z" />
<glyph unicode="W" horiz-adv-x="978" d="M95 700l170 -680h2l163 680h118l163 -680h2l170 680h68l-180 -700h-118l-163 680h-2l-163 -680h-118l-180 700h68z" />
<glyph unicode="X" horiz-adv-x="588" d="M551 700l-189 -334l210 -366h-76l-201 357h-2l-201 -357h-76l210 366l-189 334h74l182 -323h2l182 323h74z" />
<glyph unicode="Y" horiz-adv-x="601" d="M243 285l-225 415h73l209 -395h1l209 395h73l-225 -415h-25v-285h-65v285h-25z" />
<glyph unicode="Z" horiz-adv-x="581" d="M540 700v-70l-434 -570h440v-60h-511v70l434 570h-422v60h493z" />
<glyph unicode="[" horiz-adv-x="289" d="M258 -150h-181v890h181v-50h-130v-790h130v-50z" />
<glyph unicode="\" horiz-adv-x="365" d="M339 0h-51l-262 700h51z" />
<glyph unicode="]" horiz-adv-x="289" d="M31 -150v50h130v790h-130v50h181v-890h-181z" />
<glyph unicode="^" horiz-adv-x="506" d="M52 395l162 305h78l162 -305h-57l-144 274l-144 -274h-57z" />
<glyph unicode="_" horiz-adv-x="594" d="M32 -95h530v-50h-530v50z" />
<glyph unicode="`" horiz-adv-x="212" d="M25 715h83l79 -138h-47z" />
<glyph unicode="a" horiz-adv-x="605" d="M464 250q0 84 -44.5 143t-133.5 59t-133.5 -59t-44.5 -143t44.5 -143t133.5 -59t133.5 59t44.5 143zM527 0h-63v83q-63 -93 -185 -93q-117 0 -175.5 76.5t-58.5 183.5t58.5 183.5t175.5 76.5q122 0 185 -93v83h63v-500z" />
<glyph unicode="b" horiz-adv-x="605" d="M141 250q0 -84 44.5 -143t133.5 -59t133.5 59t44.5 143t-44.5 143t-133.5 59t-133.5 -59t-44.5 -143zM141 83v-83h-63v700h63v-283q63 93 185 93q117 0 175.5 -76.5t58.5 -183.5t-58.5 -183.5t-175.5 -76.5q-122 0 -185 93z" />
<glyph unicode="c" horiz-adv-x="548" d="M440 169h63q-36 -179 -217 -179q-61 0 -108.5 22t-75.5 59.5t-42.5 83t-14.5 95.5t14.5 95.5t42.5 83t75.5 59.5t108.5 22q181 0 217 -179h-63q-27 121 -154 121q-88 0 -133 -59t-45 -143t45 -143t133 -59q127 0 154 121z" />
<glyph unicode="d" horiz-adv-x="605" d="M464 250q0 84 -44.5 143t-133.5 59t-133.5 -59t-44.5 -143t44.5 -143t133.5 -59t133.5 59t44.5 143zM527 0h-63v83q-63 -93 -185 -93q-117 0 -175.5 76.5t-58.5 183.5t58.5 183.5t175.5 76.5q122 0 185 -93v283h63v-700z" />
<glyph unicode="e" horiz-adv-x="552" d="M110 285h332q-8 72 -50.5 119.5t-115.5 47.5t-115.5 -47.5t-50.5 -119.5zM428 142h66q-43 -152 -218 -152q-58 0 -104 22t-73 59.5t-40.5 83t-13.5 95.5t13.5 95.5t40.5 83t73 59.5t104 22t104 -22t73 -59.5t40.5 -83t13.5 -95.5v-23h-398q6 -76 48 -127.5t119 -51.5 q118 0 152 94z" />
<glyph unicode="f" horiz-adv-x="329" d="M19 500h93v86q0 134 121 134q42 0 81 -14v-59q-36 16 -77 16q-62 0 -62 -70v-93h139v-52h-139v-448h-63v448h-93v52z" />
<glyph unicode="g" horiz-adv-x="595" d="M464 250q0 84 -44.5 143t-133.5 59t-133.5 -59t-44.5 -143t44.5 -143t133.5 -59t133.5 59t44.5 143zM464 21v62q-63 -93 -185 -93q-117 0 -175.5 76.5t-58.5 183.5t58.5 183.5t175.5 76.5q122 0 185 -93v83h63v-479q0 -60 -20.5 -105t-56 -70.5t-77 -38t-89.5 -12.5 q-72 0 -132.5 29t-88.5 88h79q40 -59 143 -59q76 0 127.5 40.5t51.5 127.5z" />
<glyph unicode="h" horiz-adv-x="560" d="M487 0h-63v307q0 76 -27 110.5t-92 34.5q-73 0 -118.5 -47t-45.5 -131v-274h-63v700h63v-280q23 43 67 66.5t98 23.5q181 0 181 -202v-308z" />
<glyph unicode="i" horiz-adv-x="219" d="M66 666q0 19 12.5 31t30.5 12t30.5 -12t12.5 -31t-12.5 -31t-30.5 -12t-30.5 12t-12.5 31zM78 0v500h63v-500h-63z" />
<glyph unicode="j" horiz-adv-x="219" d="M66 666q0 19 12.5 31t30.5 12t30.5 -12t12.5 -31t-12.5 -31t-30.5 -12t-30.5 12t-12.5 31zM-19 -203v56q13 -2 35 -2q62 0 62 70v579h63v-571q0 -134 -121 -134q-11 0 -39 2z" />
<glyph unicode="k" horiz-adv-x="509" d="M141 700v-444l258 244h84l-265 -250l280 -250h-88l-269 242v-242h-63v700h63z" />
<glyph unicode="l" horiz-adv-x="219" d="M78 0v700h63v-700h-63z" />
<glyph unicode="m" horiz-adv-x="852" d="M460 0h-63v307q0 76 -24.5 110.5t-82.5 34.5q-66 0 -107.5 -47t-41.5 -131v-274h-63v500h63v-80q21 44 61.5 67t90.5 23q119 0 153 -101q23 48 67 74.5t99 26.5q167 0 167 -202v-308h-63v307q0 76 -24.5 110.5t-82.5 34.5q-66 0 -107.5 -47t-41.5 -131v-274z" />
<glyph unicode="n" horiz-adv-x="560" d="M487 0h-63v307q0 76 -27 110.5t-92 34.5q-73 0 -118.5 -47t-45.5 -131v-274h-63v500h63v-80q23 43 67 66.5t98 23.5q181 0 181 -202v-308z" />
<glyph unicode="o" horiz-adv-x="572" d="M45 250q0 50 14.5 95.5t42.5 83t75.5 59.5t108.5 22t108.5 -22t75.5 -59.5t42.5 -83t14.5 -95.5t-14.5 -95.5t-42.5 -83t-75.5 -59.5t-108.5 -22t-108.5 22t-75.5 59.5t-42.5 83t-14.5 95.5zM464 250q0 84 -45 143t-133 59t-133 -59t-45 -143t45 -143t133 -59t133 59 t45 143z" />
<glyph unicode="p" horiz-adv-x="605" d="M141 250q0 -84 44.5 -143t133.5 -59t133.5 59t44.5 143t-44.5 143t-133.5 59t-133.5 -59t-44.5 -143zM141 83v-278h-63v695h63v-83q63 93 185 93q117 0 175.5 -76.5t58.5 -183.5t-58.5 -183.5t-175.5 -76.5q-122 0 -185 93z" />
<glyph unicode="q" horiz-adv-x="605" d="M464 250q0 84 -44.5 143t-133.5 59t-133.5 -59t-44.5 -143t44.5 -143t133.5 -59t133.5 59t44.5 143zM527 -195h-63v278q-63 -93 -185 -93q-117 0 -175.5 76.5t-58.5 183.5t58.5 183.5t175.5 76.5q122 0 185 -93v83h63v-695z" />
<glyph unicode="r" horiz-adv-x="338" d="M78 0v500h63v-79h2q18 39 63.5 64t99.5 25h20v-55q-2 -2 -21 -2q-66 0 -115 -52.5t-49 -129.5v-271h-63z" />
<glyph unicode="s" horiz-adv-x="466" d="M42 141h63q5 -45 40 -69t86 -24q54 0 92 22.5t38 66.5q0 32 -22.5 51t-57 25.5t-74 15.5t-74 19.5t-57 39.5t-22.5 75q0 73 51 110t124 37t123 -38.5t55 -112.5h-63q-4 46 -35.5 69.5t-78.5 23.5q-48 0 -80.5 -21t-32.5 -65q0 -32 22.5 -50.5t57 -24.5t74 -15t74 -19.5 t57 -40.5t22.5 -76q0 -73 -56.5 -111.5t-137.5 -38.5q-76 0 -129.5 39t-58.5 112z" />
<glyph unicode="t" horiz-adv-x="367" d="M314 4q-39 -14 -81 -14q-121 0 -121 134v324h-93v52h93v140h63v-140h139v-52h-139v-332q0 -70 62 -70q41 0 77 16v-58z" />
<glyph unicode="u" horiz-adv-x="560" d="M73 500h63v-307q0 -76 27 -110.5t92 -34.5q73 0 118.5 47t45.5 131v274h63v-500h-63v80q-23 -43 -67 -66.5t-98 -23.5q-181 0 -181 202v308z" />
<glyph unicode="v" horiz-adv-x="496" d="M485 500l-179 -500h-116l-179 500h66l170 -485h2l170 485h66z" />
<glyph unicode="w" horiz-adv-x="762" d="M91 500l124 -485h2l106 485h116l106 -485h2l124 485h65l-132 -500h-116l-106 485h-2l-106 -485h-116l-132 500h65z" />
<glyph unicode="x" horiz-adv-x="482" d="M180 257l-154 243h75l139 -236h2l139 236h75l-154 -243l164 -257h-76l-148 250h-2l-148 -250h-76z" />
<glyph unicode="y" horiz-adv-x="510" d="M493 500l-245 -695h-66l69 195h-55l-179 500h66l171 -485h2l171 485h66z" />
<glyph unicode="z" horiz-adv-x="467" d="M416 500v-63l-298 -379h303v-58h-375v63l298 379h-284v58h356z" />
<glyph unicode="{" horiz-adv-x="345" d="M189 159v-132q0 -59 32 -93t85 -34h9v-50h-9q-76 0 -122 48.5t-46 130.5v130q0 59 -23.5 82t-78.5 23v62q55 0 78.5 23t23.5 82v130q0 82 46 130.5t122 48.5h9v-50h-9q-53 0 -85 -34t-32 -93v-132q0 -59 -16 -90t-56 -46q40 -15 56 -46t16 -90z" />
<glyph unicode="|" horiz-adv-x="240" d="M93 -195v935h54v-935h-54z" />
<glyph unicode="}" horiz-adv-x="345" d="M156 27v132q0 59 16 90t56 46q-40 15 -56 46t-16 90v132q0 59 -32 93t-85 34h-9v50h9q76 0 122 -48.5t46 -130.5v-130q0 -59 23.5 -82t78.5 -23v-62q-55 0 -78.5 -23t-23.5 -82v-130q0 -82 -46 -130.5t-122 -48.5h-9v50h9q53 0 85 34t32 93z" />
<glyph unicode="~" horiz-adv-x="548" d="M163 362q43 0 116 -31.5t103 -31.5q37 0 56 43l57 -18q-16 -41 -41 -63t-70 -22q-42 0 -115 31.5t-103 31.5q-38 0 -57 -43l-56 18q16 41 40.5 63t69.5 22z" />
<glyph unicode="&#xa1;" horiz-adv-x="276" d="M183 460q0 -19 -13 -32t-32 -13t-32 13t-13 32t13 32t32 13t32 -13t13 -32zM109 306h58l5 -506h-68z" />
<glyph unicode="&#xa2;" horiz-adv-x="548" d="M256 50v400q-73 -11 -110.5 -67.5t-37.5 -132.5t37.5 -132.5t110.5 -67.5zM440 169h63q-32 -163 -187 -178v-91h-60v91q-104 11 -157.5 85t-53.5 174t53.5 174t157.5 85v91h60v-91q155 -15 187 -178h-63q-23 105 -124 119v-400q101 14 124 119z" />
<glyph unicode="&#xa3;" horiz-adv-x="616" d="M570 453h-65q0 90 -42 143.5t-119 53.5t-119.5 -53.5t-42.5 -143.5v-120h202v-50h-202v-156q0 -48 -25 -67h413v-60h-523v60q30 0 50 19.5t20 47.5v156h-70v50h70v120q0 118 59.5 187.5t167.5 69.5t167 -69.5t59 -187.5z" />
<glyph unicode="&#xa4;" horiz-adv-x="584" d="M458 300q0 72 -47 119t-119 47t-119 -47t-47 -119t47 -119t119 -47t119 47t47 119zM67 300q0 78 45 136l-40 40l44 44l41 -41q58 41 135 41t135 -41l41 41l44 -44l-40 -40q45 -58 45 -136t-45 -136l40 -40l-44 -44l-41 41q-58 -41 -135 -41t-135 41l-41 -41l-44 44l40 40 q-45 58 -45 136z" />
<glyph unicode="&#xa5;" horiz-adv-x="601" d="M504 180v-50h-171v-130h-65v130h-171v50h171v75h-171v50h135l-214 395h73l209 -395h1l209 395h73l-214 -395h135v-50h-171v-75h171z" />
<glyph unicode="&#xa6;" horiz-adv-x="240" d="M93 360v380h54v-380h-54zM93 185h54v-380h-54v380z" />
<glyph unicode="&#xa7;" horiz-adv-x="529" d="M350 152q32 8 53 31.5t21 58.5q0 39 -34.5 67t-108.5 61t-102 50q-32 -8 -53 -31.5t-21 -58.5q0 -39 34.5 -67t108.5 -61t102 -50zM82 559q0 74 53.5 112.5t130.5 38.5q81 0 137 -42t63 -122h-64q-4 52 -42 79t-94 27q-53 0 -87 -22.5t-34 -71.5q0 -34 25.5 -61.5 t63.5 -45t82 -38.5t82 -41.5t63.5 -54t25.5 -75.5q0 -88 -89 -125q49 -44 49 -104q0 -74 -53.5 -112.5t-130.5 -38.5q-81 0 -137 42t-63 122h64q4 -52 42 -79t94 -27q53 0 87 22.5t34 71.5q0 34 -25.5 61.5t-63.5 45t-82 38.5t-82 41.5t-63.5 54t-25.5 75.5q0 88 89 125 q-49 44 -49 104z" />
<glyph unicode="&#xa8;" horiz-adv-x="310" d="M25 628q0 17 12 29t29 12t29 -12t12 -29t-12 -29t-29 -12t-29 12t-12 29zM203 628q0 17 12 29t29 12t29 -12t12 -29t-12 -29t-29 -12t-29 12t-12 29z" />
<glyph unicode="&#xa9;" horiz-adv-x="824" d="M98 350q0 -132 91 -223.5t223 -91.5t223 91.5t91 223.5t-91 223.5t-223 91.5t-223 -91.5t-91 -223.5zM541 290h57q-12 -73 -58 -117.5t-128 -44.5q-100 0 -151.5 65t-51.5 157t51.5 157t151.5 65q82 0 128 -44.5t58 -117.5h-57q-21 109 -129 109q-73 0 -110 -49t-37 -120 t37 -120t110 -49q108 0 129 109zM52 350q0 150 104.5 255t255.5 105t255.5 -105t104.5 -255t-104.5 -255t-255.5 -105t-255.5 105t-104.5 255z" />
<glyph unicode="&#xaa;" horiz-adv-x="411" d="M306 591q0 52 -27 87t-81 35t-81 -35t-27 -87t27 -87t81 -35t81 35t27 87zM355 430h-49v42q-40 -50 -113 -50q-77 0 -114.5 50t-37.5 119t37.5 119t114.5 50q73 0 113 -50v42h49v-322z" />
<glyph unicode="&#xab;" horiz-adv-x="490" d="M224 81l-168 140v58l168 140v-67l-125 -102l125 -102v-67zM434 81l-168 140v58l168 140v-67l-125 -102l125 -102v-67z" />
<glyph unicode="&#xac;" horiz-adv-x="631" d="M563 108h-55v164h-440v56h495v-220z" />
<glyph unicode="&#xad;" horiz-adv-x="491" d="M77 253v60h337v-60h-337z" />
<glyph unicode="&#xae;" horiz-adv-x="824" d="M98 350q0 -132 91 -223.5t223 -91.5t223 91.5t91 223.5t-91 223.5t-223 91.5t-223 -91.5t-91 -223.5zM443 514h-119v-168h119q37 0 60.5 23.5t23.5 60.5t-23.5 60.5t-60.5 23.5zM52 350q0 151 104.5 255.5t255.5 104.5t255.5 -104.5t104.5 -255.5t-104.5 -255.5 t-255.5 -104.5t-255.5 104.5t-104.5 255.5zM420 295h-96v-160h-56v430h174q62 0 101.5 -38t39.5 -97q0 -48 -27.5 -83t-72.5 -47l106 -165h-66z" />
<glyph unicode="&#xaf;" horiz-adv-x="326" d="M301 588h-276v51h276v-51z" />
<glyph unicode="&#xb0;" horiz-adv-x="350" d="M27 566q0 61 43 102.5t105 41.5t105 -41.5t43 -102.5t-43 -102.5t-105 -41.5t-105 41.5t-43 102.5zM82 566q0 -39 26.5 -66t66.5 -27t66.5 27t26.5 66t-26.5 66t-66.5 27t-66.5 -27t-26.5 -66z" />
<glyph unicode="&#xb1;" horiz-adv-x="631" d="M288 358h-220v56h220v159h55v-159h220v-56h-220v-159h-55v159zM563 54h-495v56h495v-56z" />
<glyph unicode="&#xb2;" horiz-adv-x="347" d="M257 707q0 43 -24.5 66.5t-61.5 23.5q-35 0 -58.5 -19.5t-25.5 -51.5h-54q1 56 41 88.5t97 32.5q60 0 100.5 -36.5t40.5 -103.5q0 -45 -27 -74t-75 -55q-39 -18 -77.5 -43.5t-45.5 -55.5h225v-49h-279v31q0 14 2.5 27t9.5 25t12 21t17.5 19.5t18 16t21.5 15t20 12 t21.5 12t18.5 9.5q46 25 64.5 43t18.5 46z" />
<glyph unicode="&#xb3;" horiz-adv-x="338" d="M289 795l-100 -129q55 -6 83.5 -38t28.5 -77q0 -56 -37 -92t-108 -36q-57 0 -96 32.5t-40 89.5h55q2 -33 25.5 -53t60.5 -20q36 0 60.5 20t24.5 56q0 37 -24 57t-61 20h-11l-22 43l95 123h-190v49h256v-45z" />
<glyph unicode="&#xb4;" horiz-adv-x="212" d="M187 715l-115 -138h-47l79 138h83z" />
<glyph unicode="&#xb5;" horiz-adv-x="560" d="M73 -195v695h63v-307q0 -76 27 -110.5t92 -34.5q73 0 118.5 47t45.5 131v274h63v-500h-63v80q-23 -43 -67 -66.5t-98 -23.5q-74 0 -118 33v-218h-63z" />
<glyph unicode="&#xb6;" horiz-adv-x="522" d="M369 -165v865h60v-865h-60zM204 340q-79 0 -119 52.5t-40 127.5t40 127.5t119 52.5h60v-865h-60v505z" />
<glyph unicode="&#xb7;" horiz-adv-x="192" d="M51 284q0 19 13 32t32 13t32 -13t13 -32t-13 -32t-32 -13t-32 13t-13 32z" />
<glyph unicode="&#xb8;" horiz-adv-x="253" d="M70 -78l-13 22l26 66h42l-19 -48h20q47 0 74.5 -23t27.5 -63q0 -45 -34.5 -73t-91.5 -28q-32 0 -77 15v48q42 -17 75 -17q35 0 55.5 15.5t20.5 41.5q0 44 -57 44h-49z" />
<glyph unicode="&#xb9;" horiz-adv-x="232" d="M110 430v306h-89v40q82 5 104 64h40v-410h-55z" />
<glyph unicode="&#xba;" horiz-adv-x="394" d="M41 591q0 70 39.5 119.5t116.5 49.5t116.5 -49.5t39.5 -119.5t-39.5 -119.5t-116.5 -49.5t-116.5 49.5t-39.5 119.5zM304 591q0 51 -26.5 86.5t-80.5 35.5t-80.5 -35.5t-26.5 -86.5t26.5 -86.5t80.5 -35.5t80.5 35.5t26.5 86.5z" />
<glyph unicode="&#xbb;" horiz-adv-x="490" d="M266 81v67l125 102l-125 102v67l168 -140v-58zM56 81v67l125 102l-125 102v67l168 -140v-58z" />
<glyph unicode="&#xbc;" horiz-adv-x="696" d="M558 395l-129 -264h131v264h-2zM670 83h-55v-83h-55v83h-188v42l140 285h103v-279h55v-48zM165 290h-55v306h-89v40q82 5 104 64h40v-410zM216 -25h-52l273 750h52z" />
<glyph unicode="&#xbd;" horiz-adv-x="738" d="M216 -25h-52l273 750h52zM648 277q0 43 -24.5 66.5t-61.5 23.5q-35 0 -58.5 -19.5t-25.5 -51.5h-54q1 56 41 88.5t97 32.5q60 0 100.5 -36.5t40.5 -103.5q0 -45 -27 -74t-75 -55q-8 -5 -31.5 -17t-33 -18t-25 -17t-23 -22.5t-10.5 -24.5h225v-49h-279v31q0 14 2.5 27 t9.5 25t12 21t17.5 19.5t18 16t21.5 15t20 12t21.5 12t18.5 9.5q46 25 64.5 43t18.5 46zM165 290h-55v306h-89v40q82 5 104 64h40v-410z" />
<glyph unicode="&#xbe;" horiz-adv-x="772" d="M634 395l-129 -264h131v264h-2zM746 83h-55v-83h-55v83h-188v42l140 285h103v-279h55v-48zM289 700v-45l-100 -129q55 -6 83.5 -38t28.5 -77q0 -56 -37 -92t-108 -36q-57 0 -96 32.5t-40 89.5h55q2 -33 25.5 -53t60.5 -20q36 0 60.5 20t24.5 56q0 37 -24 57t-61 20h-11 l-22 43l95 123h-190v49h256zM292 -25h-52l273 750h52z" />
<glyph unicode="&#xbf;" horiz-adv-x="502" d="M301 460q0 -19 -13 -32t-32 -13t-32 13t-13 32t13 32t32 13t32 -13t13 -32zM286 326v-192h-30q-70 0 -105.5 -42t-35.5 -101t35.5 -101t105.5 -42t105.5 42t35.5 101h63q0 -83 -52 -142t-152 -59t-152 59t-52 142q0 76 43 132t127 67l4 136h60z" />
<glyph unicode="&#xc0;" horiz-adv-x="656" d="M327 680l-154 -430h310l-154 430h-2zM84 0h-71l257 700h116l257 -700h-71l-68 190h-352zM305 777l-115 138h83l79 -138h-47z" />
<glyph unicode="&#xc1;" horiz-adv-x="656" d="M327 680l-154 -430h310l-154 430h-2zM84 0h-71l257 700h116l257 -700h-71l-68 190h-352zM383 915h83l-115 -138h-47z" />
<glyph unicode="&#xc2;" horiz-adv-x="656" d="M327 680l-154 -430h310l-154 430h-2zM84 0h-71l257 700h116l257 -700h-71l-68 190h-352zM288 914h80l107 -137h-63l-84 107l-84 -107h-63z" />
<glyph unicode="&#xc3;" horiz-adv-x="656" d="M327 680l-154 -430h310l-154 430h-2zM84 0h-71l257 700h116l257 -700h-71l-68 190h-352zM229 779h-45q2 36 24 62t61 26q17 0 59 -10t63 -10q31 0 36 34h45q-2 -36 -24 -62t-61 -26q-17 0 -59 10t-63 10q-31 0 -36 -34z" />
<glyph unicode="&#xc4;" horiz-adv-x="656" d="M327 680l-154 -430h310l-154 430h-2zM84 0h-71l257 700h116l257 -700h-71l-68 190h-352zM198 828q0 17 12 29t29 12t29 -12t12 -29t-12 -29t-29 -12t-29 12t-12 29zM376 828q0 17 12 29t29 12t29 -12t12 -29t-12 -29t-29 -12t-29 12t-12 29z" />
<glyph unicode="&#xc5;" horiz-adv-x="656" d="M327 680l-154 -430h310l-154 430h-2zM380 859q0 23 -15 38t-37 15t-37 -15t-15 -38t15 -38t37 -15t37 15t15 38zM84 0h-71l257 700h116l257 -700h-71l-68 190h-352zM229 859q0 42 28 69.5t71 27.5t71 -27.5t28 -69.5t-28 -69.5t-71 -27.5t-71 27.5t-28 69.5z" />
<glyph unicode="&#xc6;" horiz-adv-x="1010" d="M502 680l-259 -430h261v430h-2zM92 0h-79l430 700h504v-60h-378v-255h354v-60h-354v-265h390v-60h-455v190h-297z" />
<glyph unicode="&#xc7;" horiz-adv-x="701" d="M594 241h66q-21 -111 -88 -178.5t-188 -72.5l-11 -28h20q47 0 74.5 -23t27.5 -63q0 -45 -34.5 -73t-91.5 -28q-32 0 -77 15v48q42 -17 75 -17q35 0 55.5 15.5t20.5 41.5q0 44 -57 44h-49l-13 22l18 47q-76 4 -135.5 36t-94.5 82.5t-53 111.5t-18 129q0 70 19 133 t57 114.5t102.5 82t146.5 30.5q246 0 294 -251h-66q-40 191 -228 191q-88 0 -148.5 -44.5t-86 -110t-25.5 -145.5t25.5 -145.5t86 -110t148.5 -44.5q188 0 228 191z" />
<glyph unicode="&#xc8;" horiz-adv-x="599" d="M182 915h83l79 -138h-47zM158 325v-265h390v-60h-455v700h443v-60h-378v-255h354v-60h-354z" />
<glyph unicode="&#xc9;" horiz-adv-x="599" d="M458 915l-115 -138h-47l79 138h83zM158 325v-265h390v-60h-455v700h443v-60h-378v-255h354v-60h-354z" />
<glyph unicode="&#xca;" horiz-adv-x="599" d="M360 914l107 -137h-63l-84 107l-84 -107h-63l107 137h80zM158 325v-265h390v-60h-455v700h443v-60h-378v-255h354v-60h-354z" />
<glyph unicode="&#xcb;" horiz-adv-x="599" d="M190 828q0 17 12 29t29 12t29 -12t12 -29t-12 -29t-29 -12t-29 12t-12 29zM368 828q0 17 12 29t29 12t29 -12t12 -29t-12 -29t-29 -12t-29 12t-12 29zM158 325v-265h390v-60h-455v700h443v-60h-378v-255h354v-60h-354z" />
<glyph unicode="&#xcc;" horiz-adv-x="251" d="M-12 915h83l79 -138h-47zM93 0v700h65v-700h-65z" />
<glyph unicode="&#xcd;" horiz-adv-x="251" d="M264 915l-115 -138h-47l79 138h83zM93 0v700h65v-700h-65z" />
<glyph unicode="&#xce;" horiz-adv-x="251" d="M166 914l107 -137h-63l-84 107l-84 -107h-63l107 137h80zM93 0v700h65v-700h-65z" />
<glyph unicode="&#xcf;" horiz-adv-x="251" d="M-4 828q0 17 12 29t29 12t29 -12t12 -29t-12 -29t-29 -12t-29 12t-12 29zM174 828q0 17 12 29t29 12t29 -12t12 -29t-12 -29t-29 -12t-29 12t-12 29zM93 0v700h65v-700h-65z" />
<glyph unicode="&#xd0;" horiz-adv-x="699" d="M113 700h228q81 0 143.5 -29.5t99.5 -80t55.5 -111.5t18.5 -129t-18.5 -129t-55.5 -111.5t-99.5 -80t-143.5 -29.5h-228v323h-78v54h78v323zM178 60h163q85 0 143.5 43t83.5 106.5t25 140.5t-25 140.5t-83.5 106.5t-143.5 43h-163v-263h188v-54h-188v-263z" />
<glyph unicode="&#xd1;" horiz-adv-x="741" d="M271 779h-45q2 36 24 62t61 26q17 0 59 -10t63 -10q31 0 36 34h45q-2 -36 -24 -62t-61 -26q-17 0 -59 10t-63 10q-31 0 -36 -34zM219 700l362 -680h2v680h65v-700h-126l-362 680h-2v-680h-65v700h126z" />
<glyph unicode="&#xd2;" horiz-adv-x="732" d="M228 915h83l79 -138h-47zM41 350q0 70 19 133t57 114.5t102.5 82t146.5 30.5t146.5 -30.5t102.5 -82t57 -114.5t19 -133t-19 -133t-57 -114.5t-102.5 -82t-146.5 -30.5t-146.5 30.5t-102.5 82t-57 114.5t-19 133zM626 350q0 80 -25.5 145.5t-86 110t-148.5 44.5 t-148.5 -44.5t-86 -110t-25.5 -145.5t25.5 -145.5t86 -110t148.5 -44.5t148.5 44.5t86 110t25.5 145.5z" />
<glyph unicode="&#xd3;" horiz-adv-x="732" d="M504 915l-115 -138h-47l79 138h83zM41 350q0 70 19 133t57 114.5t102.5 82t146.5 30.5t146.5 -30.5t102.5 -82t57 -114.5t19 -133t-19 -133t-57 -114.5t-102.5 -82t-146.5 -30.5t-146.5 30.5t-102.5 82t-57 114.5t-19 133zM626 350q0 80 -25.5 145.5t-86 110t-148.5 44.5 t-148.5 -44.5t-86 -110t-25.5 -145.5t25.5 -145.5t86 -110t148.5 -44.5t148.5 44.5t86 110t25.5 145.5z" />
<glyph unicode="&#xd4;" horiz-adv-x="732" d="M626 350q0 80 -25.5 145.5t-86 110t-148.5 44.5t-148.5 -44.5t-86 -110t-25.5 -145.5t25.5 -145.5t86 -110t148.5 -44.5t148.5 44.5t86 110t25.5 145.5zM41 350q0 70 19 133t57 114.5t102.5 82t146.5 30.5t146.5 -30.5t102.5 -82t57 -114.5t19 -133t-19 -133t-57 -114.5 t-102.5 -82t-146.5 -30.5t-146.5 30.5t-102.5 82t-57 114.5t-19 133zM326 914h80l107 -137h-63l-84 107l-84 -107h-63z" />
<glyph unicode="&#xd5;" horiz-adv-x="732" d="M626 350q0 80 -25.5 145.5t-86 110t-148.5 44.5t-148.5 -44.5t-86 -110t-25.5 -145.5t25.5 -145.5t86 -110t148.5 -44.5t148.5 44.5t86 110t25.5 145.5zM41 350q0 70 19 133t57 114.5t102.5 82t146.5 30.5t146.5 -30.5t102.5 -82t57 -114.5t19 -133t-19 -133t-57 -114.5 t-102.5 -82t-146.5 -30.5t-146.5 30.5t-102.5 82t-57 114.5t-19 133zM267 779h-45q2 36 24 62t61 26q17 0 59 -10t63 -10q31 0 36 34h45q-2 -36 -24 -62t-61 -26q-17 0 -59 10t-63 10q-31 0 -36 -34z" />
<glyph unicode="&#xd6;" horiz-adv-x="732" d="M236 828q0 17 12 29t29 12t29 -12t12 -29t-12 -29t-29 -12t-29 12t-12 29zM414 828q0 17 12 29t29 12t29 -12t12 -29t-12 -29t-29 -12t-29 12t-12 29zM41 350q0 70 19 133t57 114.5t102.5 82t146.5 30.5t146.5 -30.5t102.5 -82t57 -114.5t19 -133t-19 -133t-57 -114.5 t-102.5 -82t-146.5 -30.5t-146.5 30.5t-102.5 82t-57 114.5t-19 133zM626 350q0 80 -25.5 145.5t-86 110t-148.5 44.5t-148.5 -44.5t-86 -110t-25.5 -145.5t25.5 -145.5t86 -110t148.5 -44.5t148.5 44.5t86 110t25.5 145.5z" />
<glyph unicode="&#xd7;" horiz-adv-x="576" d="M288 260l-180 -180l-40 40l180 180l-180 180l40 40l180 -180l180 180l40 -40l-180 -180l180 -180l-40 -40z" />
<glyph unicode="&#xd8;" horiz-adv-x="732" d="M170 140l361 453q-65 57 -165 57q-88 0 -148.5 -44.5t-86 -110t-25.5 -145.5q0 -129 64 -210zM626 350q0 129 -64 210l-361 -453q65 -57 165 -57q88 0 148.5 44.5t86 110t25.5 145.5zM650 743l36 -28l-83 -104q88 -100 88 -261q0 -70 -19 -133t-57 -114.5t-102.5 -82 t-146.5 -30.5q-123 0 -204 67l-80 -100l-36 28l83 104q-88 100 -88 261q0 70 19 133t57 114.5t102.5 82t146.5 30.5q123 0 204 -67z" />
<glyph unicode="&#xd9;" horiz-adv-x="716" d="M220 915h83l79 -138h-47zM568 275v425h65v-432q0 -51 -13.5 -97t-43 -88.5t-85.5 -67.5t-133 -25t-133 25t-85.5 67.5t-43 88.5t-13.5 97v432h65v-425q0 -42 10.5 -79.5t33 -71.5t65.5 -54t101 -20t101 20t65.5 54t33 71.5t10.5 79.5z" />
<glyph unicode="&#xda;" horiz-adv-x="716" d="M496 915l-115 -138h-47l79 138h83zM568 275v425h65v-432q0 -51 -13.5 -97t-43 -88.5t-85.5 -67.5t-133 -25t-133 25t-85.5 67.5t-43 88.5t-13.5 97v432h65v-425q0 -42 10.5 -79.5t33 -71.5t65.5 -54t101 -20t101 20t65.5 54t33 71.5t10.5 79.5z" />
<glyph unicode="&#xdb;" horiz-adv-x="716" d="M398 914l107 -137h-63l-84 107l-84 -107h-63l107 137h80zM568 275v425h65v-432q0 -51 -13.5 -97t-43 -88.5t-85.5 -67.5t-133 -25t-133 25t-85.5 67.5t-43 88.5t-13.5 97v432h65v-425q0 -42 10.5 -79.5t33 -71.5t65.5 -54t101 -20t101 20t65.5 54t33 71.5t10.5 79.5z" />
<glyph unicode="&#xdc;" horiz-adv-x="716" d="M228 828q0 17 12 29t29 12t29 -12t12 -29t-12 -29t-29 -12t-29 12t-12 29zM406 828q0 17 12 29t29 12t29 -12t12 -29t-12 -29t-29 -12t-29 12t-12 29zM568 275v425h65v-432q0 -51 -13.5 -97t-43 -88.5t-85.5 -67.5t-133 -25t-133 25t-85.5 67.5t-43 88.5t-13.5 97v432h65 v-425q0 -42 10.5 -79.5t33 -71.5t65.5 -54t101 -20t101 20t65.5 54t33 71.5t10.5 79.5z" />
<glyph unicode="&#xdd;" horiz-adv-x="601" d="M439 915l-115 -138h-47l79 138h83zM243 285l-225 415h73l209 -395h1l209 395h73l-225 -415h-25v-285h-65v285h-25z" />
<glyph unicode="&#xde;" horiz-adv-x="625" d="M360 513h-202v-326h202q71 0 117 46t46 117t-46 117t-117 46zM360 127h-202v-127h-65v700h65v-127h202q99 0 163.5 -63t64.5 -160t-64.5 -160t-163.5 -63z" />
<glyph unicode="&#xdf;" horiz-adv-x="580" d="M287 339v58q63 0 106 36t43 97q0 56 -40 89t-99 33q-77 0 -116.5 -53.5t-39.5 -138.5v-560h-63v560q0 111 55 180.5t164 69.5q86 0 144 -48.5t58 -130.5q0 -103 -95 -155q131 -48 131 -180q0 -54 -20.5 -93.5t-57 -61t-78.5 -31.5t-92 -10h-81v58h81q80 0 132.5 33 t52.5 108t-52.5 107.5t-132.5 32.5z" />
<glyph unicode="&#xe0;" horiz-adv-x="605" d="M464 250q0 84 -44.5 143t-133.5 59t-133.5 -59t-44.5 -143t44.5 -143t133.5 -59t133.5 59t44.5 143zM527 0h-63v83q-63 -93 -185 -93q-117 0 -175.5 76.5t-58.5 183.5t58.5 183.5t175.5 76.5q122 0 185 -93v83h63v-500zM263 577l-115 138h83l79 -138h-47z" />
<glyph unicode="&#xe1;" horiz-adv-x="605" d="M464 250q0 84 -44.5 143t-133.5 59t-133.5 -59t-44.5 -143t44.5 -143t133.5 -59t133.5 59t44.5 143zM527 0h-63v83q-63 -93 -185 -93q-117 0 -175.5 76.5t-58.5 183.5t58.5 183.5t175.5 76.5q122 0 185 -93v83h63v-500zM341 714h83l-115 -138h-47z" />
<glyph unicode="&#xe2;" horiz-adv-x="605" d="M464 250q0 84 -44.5 143t-133.5 59t-133.5 -59t-44.5 -143t44.5 -143t133.5 -59t133.5 59t44.5 143zM527 0h-63v83q-63 -93 -185 -93q-117 0 -175.5 76.5t-58.5 183.5t58.5 183.5t175.5 76.5q122 0 185 -93v83h63v-500zM246 714h80l107 -137h-63l-84 107l-84 -107h-63z " />
<glyph unicode="&#xe3;" horiz-adv-x="605" d="M464 250q0 84 -44.5 143t-133.5 59t-133.5 -59t-44.5 -143t44.5 -143t133.5 -59t133.5 59t44.5 143zM527 0h-63v83q-63 -93 -185 -93q-117 0 -175.5 76.5t-58.5 183.5t58.5 183.5t175.5 76.5q122 0 185 -93v83h63v-500zM187 579h-45q2 36 24 62t61 26q17 0 59 -10t63 -10 q31 0 36 34h45q-2 -36 -24 -62t-61 -26q-17 0 -59.5 10t-62.5 10q-31 0 -36 -34z" />
<glyph unicode="&#xe4;" horiz-adv-x="605" d="M464 250q0 84 -44.5 143t-133.5 59t-133.5 -59t-44.5 -143t44.5 -143t133.5 -59t133.5 59t44.5 143zM527 0h-63v83q-63 -93 -185 -93q-117 0 -175.5 76.5t-58.5 183.5t58.5 183.5t175.5 76.5q122 0 185 -93v83h63v-500zM156 628q0 17 12 29t29 12t29 -12t12 -29t-12 -29 t-29 -12t-29 12t-12 29zM334 628q0 17 12 29t29 12t29 -12t12 -29t-12 -29t-29 -12t-29 12t-12 29z" />
<glyph unicode="&#xe5;" horiz-adv-x="605" d="M464 250q0 84 -44.5 143t-133.5 59t-133.5 -59t-44.5 -143t44.5 -143t133.5 -59t133.5 59t44.5 143zM338 659q0 23 -15 38t-37 15t-37 -15t-15 -38t15 -38t37 -15t37 15t15 38zM527 0h-63v83q-63 -93 -185 -93q-117 0 -175.5 76.5t-58.5 183.5t58.5 183.5t175.5 76.5 q122 0 185 -93v83h63v-500zM187 659q0 42 28 69.5t71 27.5t71 -27.5t28 -69.5t-28 -69.5t-71 -27.5t-71 27.5t-28 69.5z" />
<glyph unicode="&#xe6;" horiz-adv-x="970" d="M464 250q0 84 -44.5 143t-133.5 59t-133.5 -59t-44.5 -143t44.5 -143t133.5 -59t133.5 59t44.5 143zM528 285h332q-9 72 -51 119.5t-115 47.5t-115 -47.5t-51 -119.5zM527 0h-63v83q-63 -93 -185 -93q-117 0 -175.5 76.5t-58.5 183.5t58.5 183.5t175.5 76.5 q122 0 185 -93v83h63v-83q57 93 167 93q58 0 104 -22t73 -59.5t40.5 -83t13.5 -95.5v-23h-398q6 -76 48 -127.5t119 -51.5q118 0 152 94h66q-43 -152 -218 -152q-110 0 -167 93v-83z" />
<glyph unicode="&#xe7;" horiz-adv-x="548" d="M440 169h63q-34 -169 -199 -178l-11 -29h20q47 0 74.5 -23t27.5 -63q0 -45 -34.5 -73t-91.5 -28q-32 0 -77 15v48q42 -17 75 -17q35 0 55.5 15.5t20.5 41.5q0 44 -57 44h-49l-13 22l18 47q-73 6 -123.5 45t-72 94t-21.5 120q0 50 14.5 95.5t42.5 83t75.5 59.5t108.5 22 q181 0 217 -179h-63q-27 121 -154 121q-88 0 -133 -59t-45 -143t45 -143t133 -59q127 0 154 121z" />
<glyph unicode="&#xe8;" horiz-adv-x="552" d="M110 285h332q-8 72 -50.5 119.5t-115.5 47.5t-115.5 -47.5t-50.5 -119.5zM428 142h66q-43 -152 -218 -152q-58 0 -104 22t-73 59.5t-40.5 83t-13.5 95.5t13.5 95.5t40.5 83t73 59.5t104 22t104 -22t73 -59.5t40.5 -83t13.5 -95.5v-23h-398q6 -76 48 -127.5t119 -51.5 q118 0 152 94zM253 577l-115 138h83l79 -138h-47z" />
<glyph unicode="&#xe9;" horiz-adv-x="552" d="M110 285h332q-8 72 -50.5 119.5t-115.5 47.5t-115.5 -47.5t-50.5 -119.5zM428 142h66q-43 -152 -218 -152q-58 0 -104 22t-73 59.5t-40.5 83t-13.5 95.5t13.5 95.5t40.5 83t73 59.5t104 22t104 -22t73 -59.5t40.5 -83t13.5 -95.5v-23h-398q6 -76 48 -127.5t119 -51.5 q118 0 152 94zM331 715h83l-115 -138h-47z" />
<glyph unicode="&#xea;" horiz-adv-x="552" d="M110 285h332q-8 72 -50.5 119.5t-115.5 47.5t-115.5 -47.5t-50.5 -119.5zM428 142h66q-43 -152 -218 -152q-58 0 -104 22t-73 59.5t-40.5 83t-13.5 95.5t13.5 95.5t40.5 83t73 59.5t104 22t104 -22t73 -59.5t40.5 -83t13.5 -95.5v-23h-398q6 -76 48 -127.5t119 -51.5 q118 0 152 94zM236 714h80l107 -137h-63l-84 107l-84 -107h-63z" />
<glyph unicode="&#xeb;" horiz-adv-x="552" d="M110 285h332q-8 72 -50.5 119.5t-115.5 47.5t-115.5 -47.5t-50.5 -119.5zM428 142h66q-43 -152 -218 -152q-58 0 -104 22t-73 59.5t-40.5 83t-13.5 95.5t13.5 95.5t40.5 83t73 59.5t104 22t104 -22t73 -59.5t40.5 -83t13.5 -95.5v-23h-398q6 -76 48 -127.5t119 -51.5 q118 0 152 94zM146 628q0 17 12 29t29 12t29 -12t12 -29t-12 -29t-29 -12t-29 12t-12 29zM324 628q0 17 12 29t29 12t29 -12t12 -29t-12 -29t-29 -12t-29 12t-12 29z" />
<glyph unicode="&#xec;" horiz-adv-x="219" d="M-29 715h83l79 -138h-47zM78 0v500h63v-500h-63z" />
<glyph unicode="&#xed;" horiz-adv-x="219" d="M247 715l-115 -138h-47l79 138h83zM78 0v500h63v-500h-63z" />
<glyph unicode="&#xee;" horiz-adv-x="219" d="M149 714l107 -137h-63l-84 107l-84 -107h-63l107 137h80zM78 0v500h63v-500h-63z" />
<glyph unicode="&#xef;" horiz-adv-x="219" d="M-21 628q0 17 12 29t29 12t29 -12t12 -29t-12 -29t-29 -12t-29 12t-12 29zM157 628q0 17 12 29t29 12t29 -12t12 -29t-12 -29t-29 -12t-29 12t-12 29zM78 0v500h63v-500h-63z" />
<glyph unicode="&#xf0;" horiz-adv-x="572" d="M464 250q0 84 -45 143t-133 59t-133 -59t-45 -143t45 -143t133 -59t133 59t45 143zM179 575l-37 37l118 60q-49 43 -101 77l48 32q54 -36 104 -83l107 55l37 -37l-107 -55q179 -191 179 -411q0 -50 -14.5 -95.5t-42.5 -83t-75.5 -59.5t-108.5 -22t-108.5 22t-75.5 59.5 t-42.5 83t-14.5 95.5q0 69 24 125.5t81 95.5t139 39q81 0 135 -54q-46 99 -126 180z" />
<glyph unicode="&#xf1;" horiz-adv-x="560" d="M184 579h-45q2 36 24 62t61 26q18 0 60 -10t62 -10q31 0 36 34h45q-2 -36 -24 -62t-61 -26q-18 0 -60 10t-62 10q-31 0 -36 -34zM487 0h-63v307q0 76 -27 110.5t-92 34.5q-73 0 -118.5 -47t-45.5 -131v-274h-63v500h63v-80q23 43 67 66.5t98 23.5q181 0 181 -202v-308z " />
<glyph unicode="&#xf2;" horiz-adv-x="572" d="M148 715h83l79 -138h-47zM45 250q0 50 14.5 95.5t42.5 83t75.5 59.5t108.5 22t108.5 -22t75.5 -59.5t42.5 -83t14.5 -95.5t-14.5 -95.5t-42.5 -83t-75.5 -59.5t-108.5 -22t-108.5 22t-75.5 59.5t-42.5 83t-14.5 95.5zM464 250q0 84 -45 143t-133 59t-133 -59t-45 -143 t45 -143t133 -59t133 59t45 143z" />
<glyph unicode="&#xf3;" horiz-adv-x="572" d="M424 715l-115 -138h-47l79 138h83zM45 250q0 50 14.5 95.5t42.5 83t75.5 59.5t108.5 22t108.5 -22t75.5 -59.5t42.5 -83t14.5 -95.5t-14.5 -95.5t-42.5 -83t-75.5 -59.5t-108.5 -22t-108.5 22t-75.5 59.5t-42.5 83t-14.5 95.5zM464 250q0 84 -45 143t-133 59t-133 -59 t-45 -143t45 -143t133 -59t133 59t45 143z" />
<glyph unicode="&#xf4;" horiz-adv-x="572" d="M464 250q0 84 -45 143t-133 59t-133 -59t-45 -143t45 -143t133 -59t133 59t45 143zM45 250q0 50 14.5 95.5t42.5 83t75.5 59.5t108.5 22t108.5 -22t75.5 -59.5t42.5 -83t14.5 -95.5t-14.5 -95.5t-42.5 -83t-75.5 -59.5t-108.5 -22t-108.5 22t-75.5 59.5t-42.5 83 t-14.5 95.5zM246 714h80l107 -137h-63l-84 107l-84 -107h-63z" />
<glyph unicode="&#xf5;" horiz-adv-x="572" d="M464 250q0 84 -45 143t-133 59t-133 -59t-45 -143t45 -143t133 -59t133 59t45 143zM45 250q0 50 14.5 95.5t42.5 83t75.5 59.5t108.5 22t108.5 -22t75.5 -59.5t42.5 -83t14.5 -95.5t-14.5 -95.5t-42.5 -83t-75.5 -59.5t-108.5 -22t-108.5 22t-75.5 59.5t-42.5 83 t-14.5 95.5zM187 579h-45q2 36 24 62t61 26q17 0 59 -10t63 -10q31 0 36 34h45q-2 -36 -24 -62t-61 -26q-17 0 -59.5 10t-62.5 10q-31 0 -36 -34z" />
<glyph unicode="&#xf6;" horiz-adv-x="572" d="M156 628q0 17 12 29t29 12t29 -12t12 -29t-12 -29t-29 -12t-29 12t-12 29zM334 628q0 17 12 29t29 12t29 -12t12 -29t-12 -29t-29 -12t-29 12t-12 29zM45 250q0 50 14.5 95.5t42.5 83t75.5 59.5t108.5 22t108.5 -22t75.5 -59.5t42.5 -83t14.5 -95.5t-14.5 -95.5 t-42.5 -83t-75.5 -59.5t-108.5 -22t-108.5 22t-75.5 59.5t-42.5 83t-14.5 95.5zM464 250q0 84 -45 143t-133 59t-133 -59t-45 -143t45 -143t133 -59t133 59t45 143z" />
<glyph unicode="&#xf7;" horiz-adv-x="631" d="M275 494q0 17 12 29t29 12t29 -12t12 -29t-12 -29t-29 -12t-29 12t-12 29zM563 272h-495v56h495v-56zM275 106q0 17 12 29t29 12t29 -12t12 -29t-12 -29t-29 -12t-29 12t-12 29z" />
<glyph unicode="&#xf8;" horiz-adv-x="572" d="M149 112l240 309q-44 31 -103 31q-88 0 -133 -59t-45 -143q0 -82 41 -138zM464 250q0 82 -41 138l-240 -309q44 -31 103 -31q88 0 133 59t45 143zM484 543l38 -27l-60 -78q65 -72 65 -188q0 -50 -14.5 -95.5t-42.5 -83t-75.5 -59.5t-108.5 -22q-82 0 -141 41l-57 -74 l-38 27l60 78q-65 72 -65 188q0 50 14.5 95.5t42.5 83t75.5 59.5t108.5 22q82 0 141 -41z" />
<glyph unicode="&#xf9;" horiz-adv-x="560" d="M140 715h83l79 -138h-47zM73 500h63v-307q0 -76 27 -110.5t92 -34.5q73 0 118.5 47t45.5 131v274h63v-500h-63v80q-23 -43 -67 -66.5t-98 -23.5q-181 0 -181 202v308z" />
<glyph unicode="&#xfa;" horiz-adv-x="560" d="M416 715l-115 -138h-47l79 138h83zM73 500h63v-307q0 -76 27 -110.5t92 -34.5q73 0 118.5 47t45.5 131v274h63v-500h-63v80q-23 -43 -67 -66.5t-98 -23.5q-181 0 -181 202v308z" />
<glyph unicode="&#xfb;" horiz-adv-x="560" d="M318 714l107 -137h-63l-84 107l-84 -107h-63l107 137h80zM73 500h63v-307q0 -76 27 -110.5t92 -34.5q73 0 118.5 47t45.5 131v274h63v-500h-63v80q-23 -43 -67 -66.5t-98 -23.5q-181 0 -181 202v308z" />
<glyph unicode="&#xfc;" horiz-adv-x="560" d="M148 628q0 17 12 29t29 12t29 -12t12 -29t-12 -29t-29 -12t-29 12t-12 29zM326 628q0 17 12 29t29 12t29 -12t12 -29t-12 -29t-29 -12t-29 12t-12 29zM73 500h63v-307q0 -76 27 -110.5t92 -34.5q73 0 118.5 47t45.5 131v274h63v-500h-63v80q-23 -43 -67 -66.5t-98 -23.5 q-181 0 -181 202v308z" />
<glyph unicode="&#xfd;" horiz-adv-x="510" d="M393 715l-115 -138h-47l79 138h83zM493 500l-245 -695h-66l69 195h-55l-179 500h66l171 -485h2l171 485h66z" />
<glyph unicode="&#xfe;" horiz-adv-x="605" d="M141 250q0 -84 44.5 -143t133.5 -59t133.5 59t44.5 143t-44.5 143t-133.5 59t-133.5 -59t-44.5 -143zM141 83v-278h-63v895h63v-283q63 93 185 93q117 0 175.5 -76.5t58.5 -183.5t-58.5 -183.5t-175.5 -76.5q-122 0 -185 93z" />
<glyph unicode="&#xff;" horiz-adv-x="510" d="M125 628q0 17 12 29t29 12t29 -12t12 -29t-12 -29t-29 -12t-29 12t-12 29zM303 628q0 17 12 29t29 12t29 -12t12 -29t-12 -29t-29 -12t-29 12t-12 29zM493 500l-245 -695h-66l69 195h-55l-179 500h66l171 -485h2l171 485h66z" />
<glyph unicode="&#x100;" horiz-adv-x="656" d="M327 680l-154 -430h310l-154 430h-2zM84 0h-71l257 700h116l257 -700h-71l-68 190h-352zM466 839v-51h-276v51h276z" />
<glyph unicode="&#x101;" horiz-adv-x="605" d="M464 250q0 84 -44.5 143t-133.5 59t-133.5 -59t-44.5 -143t44.5 -143t133.5 -59t133.5 59t44.5 143zM527 0h-63v83q-63 -93 -185 -93q-117 0 -175.5 76.5t-58.5 183.5t58.5 183.5t175.5 76.5q122 0 185 -93v83h63v-500zM424 639v-51h-276v51h276z" />
<glyph unicode="&#x102;" horiz-adv-x="656" d="M327 680l-154 -430h310l-154 430h-2zM84 0h-71l257 700h116l257 -700h-71l-68 190h-352zM178 914h53q0 -38 26 -62.5t71 -24.5t71 24.5t26 62.5h53q0 -60 -40.5 -97.5t-109.5 -37.5t-109.5 37.5t-40.5 97.5z" />
<glyph unicode="&#x103;" horiz-adv-x="605" d="M464 250q0 84 -44.5 143t-133.5 59t-133.5 -59t-44.5 -143t44.5 -143t133.5 -59t133.5 59t44.5 143zM527 0h-63v83q-63 -93 -185 -93q-117 0 -175.5 76.5t-58.5 183.5t58.5 183.5t175.5 76.5q122 0 185 -93v83h63v-500zM136 714h53q0 -38 26 -62.5t71 -24.5t71 24.5 t26 62.5h53q0 -60 -40.5 -97.5t-109.5 -37.5t-109.5 37.5t-40.5 97.5z" />
<glyph unicode="&#x104;" horiz-adv-x="656" d="M327 680l-154 -430h310l-154 430h-2zM84 0h-71l257 700h116l257 -700q-30 -24 -56 -60.5t-26 -71.5q0 -44 41 -44q26 0 41 8v-46q-18 -11 -50 -11q-38 0 -63.5 23.5t-25.5 63.5q0 77 82 138h-14l-68 190h-352z" />
<glyph unicode="&#x105;" horiz-adv-x="605" d="M464 250q0 84 -44.5 143t-133.5 59t-133.5 -59t-44.5 -143t44.5 -143t133.5 -59t133.5 59t44.5 143zM470 0h-6v83q-63 -93 -185 -93q-117 0 -175.5 76.5t-58.5 183.5t58.5 183.5t175.5 76.5q122 0 185 -93v83h63v-500q-30 -24 -56 -60.5t-26 -71.5q0 -44 41 -44 q26 0 41 8v-46q-18 -11 -50 -11q-38 0 -63.5 23.5t-25.5 63.5q0 77 82 138z" />
<glyph unicode="&#x106;" horiz-adv-x="701" d="M504 915l-115 -138h-47l79 138h83zM594 241h66q-48 -251 -294 -251q-82 0 -146.5 30.5t-102.5 82t-57 114.5t-19 133t19 133t57 114.5t102.5 82t146.5 30.5q246 0 294 -251h-66q-40 191 -228 191q-88 0 -148.5 -44.5t-86 -110t-25.5 -145.5t25.5 -145.5t86 -110 t148.5 -44.5q188 0 228 191z" />
<glyph unicode="&#x107;" horiz-adv-x="548" d="M424 715l-115 -138h-47l79 138h83zM440 169h63q-36 -179 -217 -179q-61 0 -108.5 22t-75.5 59.5t-42.5 83t-14.5 95.5t14.5 95.5t42.5 83t75.5 59.5t108.5 22q181 0 217 -179h-63q-27 121 -154 121q-88 0 -133 -59t-45 -143t45 -143t133 -59q127 0 154 121z" />
<glyph unicode="&#x108;" horiz-adv-x="701" d="M406 914l107 -137h-63l-84 107l-84 -107h-63l107 137h80zM594 241h66q-48 -251 -294 -251q-82 0 -146.5 30.5t-102.5 82t-57 114.5t-19 133t19 133t57 114.5t102.5 82t146.5 30.5q246 0 294 -251h-66q-40 191 -228 191q-88 0 -148.5 -44.5t-86 -110t-25.5 -145.5 t25.5 -145.5t86 -110t148.5 -44.5q188 0 228 191z" />
<glyph unicode="&#x109;" horiz-adv-x="548" d="M326 714l107 -137h-63l-84 107l-84 -107h-63l107 137h80zM440 169h63q-36 -179 -217 -179q-61 0 -108.5 22t-75.5 59.5t-42.5 83t-14.5 95.5t14.5 95.5t42.5 83t75.5 59.5t108.5 22q181 0 217 -179h-63q-27 121 -154 121q-88 0 -133 -59t-45 -143t45 -143t133 -59 q127 0 154 121z" />
<glyph unicode="&#x10a;" horiz-adv-x="701" d="M325 829q0 17 12 29t29 12t29 -12t12 -29t-12 -29t-29 -12t-29 12t-12 29zM594 241h66q-48 -251 -294 -251q-82 0 -146.5 30.5t-102.5 82t-57 114.5t-19 133t19 133t57 114.5t102.5 82t146.5 30.5q246 0 294 -251h-66q-40 191 -228 191q-88 0 -148.5 -44.5t-86 -110 t-25.5 -145.5t25.5 -145.5t86 -110t148.5 -44.5q188 0 228 191z" />
<glyph unicode="&#x10b;" horiz-adv-x="548" d="M245 629q0 17 12 29t29 12t29 -12t12 -29t-12 -29t-29 -12t-29 12t-12 29zM440 169h63q-36 -179 -217 -179q-61 0 -108.5 22t-75.5 59.5t-42.5 83t-14.5 95.5t14.5 95.5t42.5 83t75.5 59.5t108.5 22q181 0 217 -179h-63q-27 121 -154 121q-88 0 -133 -59t-45 -143 t45 -143t133 -59q127 0 154 121z" />
<glyph unicode="&#x10c;" horiz-adv-x="701" d="M450 914h63l-107 -137h-80l-107 137h63l84 -107zM594 241h66q-48 -251 -294 -251q-82 0 -146.5 30.5t-102.5 82t-57 114.5t-19 133t19 133t57 114.5t102.5 82t146.5 30.5q246 0 294 -251h-66q-40 191 -228 191q-88 0 -148.5 -44.5t-86 -110t-25.5 -145.5t25.5 -145.5 t86 -110t148.5 -44.5q188 0 228 191z" />
<glyph unicode="&#x10d;" horiz-adv-x="548" d="M370 714h63l-107 -137h-80l-107 137h63l84 -107zM440 169h63q-36 -179 -217 -179q-61 0 -108.5 22t-75.5 59.5t-42.5 83t-14.5 95.5t14.5 95.5t42.5 83t75.5 59.5t108.5 22q181 0 217 -179h-63q-27 121 -154 121q-88 0 -133 -59t-45 -143t45 -143t133 -59q127 0 154 121z " />
<glyph unicode="&#x10e;" horiz-adv-x="679" d="M158 60h163q85 0 143.5 43t83.5 106.5t25 140.5t-25 140.5t-83.5 106.5t-143.5 43h-163v-580zM93 700h228q81 0 143.5 -29.5t99.5 -80t55.5 -111.5t18.5 -129t-18.5 -129t-55.5 -111.5t-99.5 -80t-143.5 -29.5h-228v700zM321 807l84 107h63l-107 -137h-80l-107 137h63z " />
<glyph unicode="&#x10f;" horiz-adv-x="721" d="M464 250q0 84 -44.5 143t-133.5 59t-133.5 -59t-44.5 -143t44.5 -143t133.5 -59t133.5 59t44.5 143zM527 0h-63v83q-63 -93 -185 -93q-117 0 -175.5 76.5t-58.5 183.5t58.5 183.5t175.5 76.5q122 0 185 -93v283h63v-700zM646 700h88l-77 -138h-52z" />
<glyph unicode="&#x110;" horiz-adv-x="699" d="M113 700h228q81 0 143.5 -29.5t99.5 -80t55.5 -111.5t18.5 -129t-18.5 -129t-55.5 -111.5t-99.5 -80t-143.5 -29.5h-228v323h-78v54h78v323zM178 60h163q85 0 143.5 43t83.5 106.5t25 140.5t-25 140.5t-83.5 106.5t-143.5 43h-163v-263h188v-54h-188v-263z" />
<glyph unicode="&#x111;" horiz-adv-x="583" d="M464 250q0 84 -44.5 143t-133.5 59t-133.5 -59t-44.5 -143t44.5 -143t133.5 -59t133.5 59t44.5 143zM527 0h-63v83q-63 -93 -185 -93q-117 0 -175.5 76.5t-58.5 183.5t58.5 183.5t175.5 76.5q122 0 185 -93v165h-155v50h155v68h63v-68h49v-50h-49v-582z" />
<glyph unicode="&#x112;" horiz-adv-x="599" d="M458 788h-276v51h276v-51zM158 325v-265h390v-60h-455v700h443v-60h-378v-255h354v-60h-354z" />
<glyph unicode="&#x113;" horiz-adv-x="552" d="M110 285h332q-8 72 -50.5 119.5t-115.5 47.5t-115.5 -47.5t-50.5 -119.5zM428 142h66q-43 -152 -218 -152q-58 0 -104 22t-73 59.5t-40.5 83t-13.5 95.5t13.5 95.5t40.5 83t73 59.5t104 22t104 -22t73 -59.5t40.5 -83t13.5 -95.5v-23h-398q6 -76 48 -127.5t119 -51.5 q118 0 152 94zM414 639v-51h-276v51h276z" />
<glyph unicode="&#x114;" horiz-adv-x="599" d="M170 914h53q0 -38 26 -62.5t71 -24.5t71 24.5t26 62.5h53q0 -60 -40.5 -97.5t-109.5 -37.5t-109.5 37.5t-40.5 97.5zM158 325v-265h390v-60h-455v700h443v-60h-378v-255h354v-60h-354z" />
<glyph unicode="&#x115;" horiz-adv-x="552" d="M110 285h332q-8 72 -50.5 119.5t-115.5 47.5t-115.5 -47.5t-50.5 -119.5zM428 142h66q-43 -152 -218 -152q-58 0 -104 22t-73 59.5t-40.5 83t-13.5 95.5t13.5 95.5t40.5 83t73 59.5t104 22t104 -22t73 -59.5t40.5 -83t13.5 -95.5v-23h-398q6 -76 48 -127.5t119 -51.5 q118 0 152 94zM126 714h53q0 -38 26 -62.5t71 -24.5t71 24.5t26 62.5h53q0 -60 -40.5 -97.5t-109.5 -37.5t-109.5 37.5t-40.5 97.5z" />
<glyph unicode="&#x116;" horiz-adv-x="599" d="M279 829q0 17 12 29t29 12t29 -12t12 -29t-12 -29t-29 -12t-29 12t-12 29zM158 325v-265h390v-60h-455v700h443v-60h-378v-255h354v-60h-354z" />
<glyph unicode="&#x117;" horiz-adv-x="552" d="M110 285h332q-8 72 -50.5 119.5t-115.5 47.5t-115.5 -47.5t-50.5 -119.5zM428 142h66q-43 -152 -218 -152q-58 0 -104 22t-73 59.5t-40.5 83t-13.5 95.5t13.5 95.5t40.5 83t73 59.5t104 22t104 -22t73 -59.5t40.5 -83t13.5 -95.5v-23h-398q6 -76 48 -127.5t119 -51.5 q118 0 152 94zM235 629q0 17 12 29t29 12t29 -12t12 -29t-12 -29t-29 -12t-29 12t-12 29z" />
<glyph unicode="&#x118;" horiz-adv-x="599" d="M158 325v-265h390v-60q-30 -24 -56 -60.5t-26 -71.5q0 -44 41 -44q26 0 41 8v-46q-18 -11 -50 -11q-38 0 -63.5 23.5t-25.5 63.5q0 77 82 138h-398v700h443v-60h-378v-255h354v-60h-354z" />
<glyph unicode="&#x119;" horiz-adv-x="552" d="M110 285h332q-8 72 -50.5 119.5t-115.5 47.5t-115.5 -47.5t-50.5 -119.5zM428 142h66q-41 -142 -198 -151q-71 -64 -71 -123q0 -44 41 -44q26 0 41 8v-46q-18 -11 -50 -11q-38 0 -63.5 23.5t-25.5 63.5q0 72 72 130q-96 13 -145.5 86.5t-49.5 171.5q0 50 13.5 95.5 t40.5 83t73 59.5t104 22t104 -22t73 -59.5t40.5 -83t13.5 -95.5v-23h-398q6 -76 48 -127.5t119 -51.5q118 0 152 94z" />
<glyph unicode="&#x11a;" horiz-adv-x="599" d="M404 914h63l-107 -137h-80l-107 137h63l84 -107zM158 325v-265h390v-60h-455v700h443v-60h-378v-255h354v-60h-354z" />
<glyph unicode="&#x11b;" horiz-adv-x="552" d="M110 285h332q-8 72 -50.5 119.5t-115.5 47.5t-115.5 -47.5t-50.5 -119.5zM428 142h66q-43 -152 -218 -152q-58 0 -104 22t-73 59.5t-40.5 83t-13.5 95.5t13.5 95.5t40.5 83t73 59.5t104 22t104 -22t73 -59.5t40.5 -83t13.5 -95.5v-23h-398q6 -76 48 -127.5t119 -51.5 q118 0 152 94zM276 607l84 107h63l-107 -137h-80l-107 137h63z" />
<glyph unicode="&#x11c;" horiz-adv-x="744" d="M406 914l107 -137h-63l-84 107l-84 -107h-63l107 137h80zM41 350q0 70 19 133t57 114.5t102.5 82t146.5 30.5q131 0 202.5 -68t91.5 -183h-65q-39 191 -229 191q-88 0 -148.5 -44.5t-86 -110t-25.5 -145.5t25.5 -145.5t85.5 -110t147 -44.5q213 0 240 237h-238v60h303 v-347h-42l-18 121q-66 -131 -243 -131q-82 0 -146.5 30.5t-102.5 82t-57 114.5t-19 133z" />
<glyph unicode="&#x11d;" horiz-adv-x="595" d="M464 250q0 84 -44.5 143t-133.5 59t-133.5 -59t-44.5 -143t44.5 -143t133.5 -59t133.5 59t44.5 143zM464 21v62q-63 -93 -185 -93q-117 0 -175.5 76.5t-58.5 183.5t58.5 183.5t175.5 76.5q122 0 185 -93v83h63v-479q0 -60 -20.5 -105t-56 -70.5t-77 -38t-89.5 -12.5 q-72 0 -132.5 29t-88.5 88h79q40 -59 143 -59q76 0 127.5 40.5t51.5 127.5zM246 714h80l107 -137h-63l-84 107l-84 -107h-63z" />
<glyph unicode="&#x11e;" horiz-adv-x="744" d="M216 914h53q0 -38 26 -62.5t71 -24.5t71 24.5t26 62.5h53q0 -60 -40.5 -97.5t-109.5 -37.5t-109.5 37.5t-40.5 97.5zM41 350q0 70 19 133t57 114.5t102.5 82t146.5 30.5q131 0 202.5 -68t91.5 -183h-65q-39 191 -229 191q-88 0 -148.5 -44.5t-86 -110t-25.5 -145.5 t25.5 -145.5t85.5 -110t147 -44.5q213 0 240 237h-238v60h303v-347h-42l-18 121q-66 -131 -243 -131q-82 0 -146.5 30.5t-102.5 82t-57 114.5t-19 133z" />
<glyph unicode="&#x11f;" horiz-adv-x="595" d="M464 250q0 84 -44.5 143t-133.5 59t-133.5 -59t-44.5 -143t44.5 -143t133.5 -59t133.5 59t44.5 143zM464 21v62q-63 -93 -185 -93q-117 0 -175.5 76.5t-58.5 183.5t58.5 183.5t175.5 76.5q122 0 185 -93v83h63v-479q0 -60 -20.5 -105t-56 -70.5t-77 -38t-89.5 -12.5 q-72 0 -132.5 29t-88.5 88h79q40 -59 143 -59q76 0 127.5 40.5t51.5 127.5zM136 714h53q0 -38 26 -62.5t71 -24.5t71 24.5t26 62.5h53q0 -60 -40.5 -97.5t-109.5 -37.5t-109.5 37.5t-40.5 97.5z" />
<glyph unicode="&#x120;" horiz-adv-x="744" d="M325 829q0 17 12 29t29 12t29 -12t12 -29t-12 -29t-29 -12t-29 12t-12 29zM41 350q0 70 19 133t57 114.5t102.5 82t146.5 30.5q131 0 202.5 -68t91.5 -183h-65q-39 191 -229 191q-88 0 -148.5 -44.5t-86 -110t-25.5 -145.5t25.5 -145.5t85.5 -110t147 -44.5 q213 0 240 237h-238v60h303v-347h-42l-18 121q-66 -131 -243 -131q-82 0 -146.5 30.5t-102.5 82t-57 114.5t-19 133z" />
<glyph unicode="&#x121;" horiz-adv-x="595" d="M464 250q0 84 -44.5 143t-133.5 59t-133.5 -59t-44.5 -143t44.5 -143t133.5 -59t133.5 59t44.5 143zM464 21v62q-63 -93 -185 -93q-117 0 -175.5 76.5t-58.5 183.5t58.5 183.5t175.5 76.5q122 0 185 -93v83h63v-479q0 -60 -20.5 -105t-56 -70.5t-77 -38t-89.5 -12.5 q-72 0 -132.5 29t-88.5 88h79q40 -59 143 -59q76 0 127.5 40.5t51.5 127.5zM245 629q0 17 12 29t29 12t29 -12t12 -29t-12 -29t-29 -12t-29 12t-12 29z" />
<glyph unicode="&#x122;" horiz-adv-x="744" d="M41 350q0 70 19 133t57 114.5t102.5 82t146.5 30.5q131 0 202.5 -68t91.5 -183h-65q-39 191 -229 191q-88 0 -148.5 -44.5t-86 -110t-25.5 -145.5t25.5 -145.5t85.5 -110t147 -44.5q213 0 240 237h-238v60h303v-347h-42l-18 121q-66 -131 -243 -131q-82 0 -146.5 30.5 t-102.5 82t-57 114.5t-19 133zM310 -219l26 141h59l-39 -141h-46z" />
<glyph unicode="&#x123;" horiz-adv-x="595" d="M464 250q0 84 -44.5 143t-133.5 59t-133.5 -59t-44.5 -143t44.5 -143t133.5 -59t133.5 59t44.5 143zM464 21v62q-63 -93 -185 -93q-117 0 -175.5 76.5t-58.5 183.5t58.5 183.5t175.5 76.5q122 0 185 -93v83h63v-479q0 -60 -20.5 -105t-56 -70.5t-77 -38t-89.5 -12.5 q-72 0 -132.5 29t-88.5 88h79q42 -59 143 -59q76 0 127.5 40.5t51.5 127.5zM282 716h46l-26 -141h-59z" />
<glyph unicode="&#x124;" horiz-adv-x="706" d="M393 914l107 -137h-63l-84 107l-84 -107h-63l107 137h80zM93 0v700h65v-314h390v314h65v-700h-65v326h-390v-326h-65z" />
<glyph unicode="&#x125;" horiz-adv-x="560" d="M323 914l107 -137h-63l-84 107l-84 -107h-63l107 137h80zM487 0h-63v307q0 76 -27 110.5t-92 34.5q-73 0 -118.5 -47t-45.5 -131v-274h-63v700h63v-280q23 43 67 66.5t98 23.5q181 0 181 -202v-308z" />
<glyph unicode="&#x126;" horiz-adv-x="706" d="M158 516v-130h390v130h-390zM158 0h-65v700h65v-130h390v130h65v-700h-65v326h-390v-326z" />
<glyph unicode="&#x127;" horiz-adv-x="580" d="M161 0h-63v582h-49v50h49v68h63v-68h155v-50h-155v-162q23 43 67 66.5t98 23.5q181 0 181 -202v-308h-63v307q0 76 -27 110.5t-92 34.5q-73 0 -118.5 -47t-45.5 -131v-274z" />
<glyph unicode="&#x128;" horiz-adv-x="251" d="M27 779h-45q2 36 24 62t61 26q17 0 59.5 -10t62.5 -10q31 0 36 34h45q-2 -36 -24 -62t-61 -26q-17 0 -59 10t-63 10q-31 0 -36 -34zM93 0v700h65v-700h-65z" />
<glyph unicode="&#x129;" horiz-adv-x="219" d="M10 579h-45q2 36 24 62t61 26q18 0 60 -10t62 -10q31 0 36 34h45q-2 -36 -24 -62t-61 -26q-18 0 -60 10t-62 10q-31 0 -36 -34zM78 0v500h63v-500h-63z" />
<glyph unicode="&#x12a;" horiz-adv-x="251" d="M264 788h-276v51h276v-51zM93 0v700h65v-700h-65z" />
<glyph unicode="&#x12b;" horiz-adv-x="219" d="M247 588h-276v51h276v-51zM78 0v500h63v-500h-63z" />
<glyph unicode="&#x12c;" horiz-adv-x="251" d="M-24 914h53q0 -38 26 -62.5t71 -24.5t71 24.5t26 62.5h53q0 -60 -40.5 -97.5t-109.5 -37.5t-109.5 37.5t-40.5 97.5zM93 0v700h65v-700h-65z" />
<glyph unicode="&#x12d;" horiz-adv-x="219" d="M-41 714h53q0 -38 26 -62.5t71 -24.5t71 24.5t26 62.5h53q0 -60 -40.5 -97.5t-109.5 -37.5t-109.5 37.5t-40.5 97.5zM78 0v500h63v-500h-63z" />
<glyph unicode="&#x12e;" horiz-adv-x="251" d="M93 0v700h65v-700q-30 -24 -56 -60.5t-26 -71.5q0 -44 41 -44q26 0 41 8v-46q-18 -11 -50 -11q-38 0 -63.5 23.5t-25.5 63.5q0 77 82 138h-8z" />
<glyph unicode="&#x12f;" horiz-adv-x="219" d="M66 666q0 19 12.5 31t30.5 12t30.5 -12t12.5 -31t-12.5 -31t-30.5 -12t-30.5 12t-12.5 31zM78 0v500h63v-500q-30 -24 -56 -60.5t-26 -71.5q0 -44 41 -44q26 0 41 8v-46q-18 -11 -50 -11q-38 0 -63.5 23.5t-25.5 63.5q0 77 82 138h-6z" />
<glyph unicode="&#x130;" horiz-adv-x="251" d="M85 829q0 17 12 29t29 12t29 -12t12 -29t-12 -29t-29 -12t-29 12t-12 29zM93 0v700h65v-700h-65z" />
<glyph unicode="&#x131;" horiz-adv-x="219" d="M78 0v500h63v-500h-63z" />
<glyph unicode="&#x132;" horiz-adv-x="793" d="M93 0v700h65v-700h-65zM493 50q80 0 116 49.5t36 124.5v476h65v-476q0 -100 -51.5 -167t-165.5 -67t-165.5 67t-51.5 167v48h65v-48q0 -75 36 -124.5t116 -49.5z" />
<glyph unicode="&#x133;" horiz-adv-x="438" d="M66 666q0 19 12.5 31t30.5 12t30.5 -12t12.5 -31t-12.5 -31t-30.5 -12t-30.5 12t-12.5 31zM285 666q0 19 12.5 31t30.5 12t30.5 -12t12.5 -31t-12.5 -31t-30.5 -12t-30.5 12t-12.5 31zM78 0v500h63v-500h-63zM200 -203v56q13 -2 35 -2q62 0 62 70v579h63v-571 q0 -134 -121 -134q-11 0 -39 2z" />
<glyph unicode="&#x134;" horiz-adv-x="542" d="M467 914l107 -137h-63l-84 107l-84 -107h-63l107 137h80zM242 50q80 0 116 49.5t36 124.5v476h65v-476q0 -100 -51.5 -167t-165.5 -67t-165.5 67t-51.5 167v48h65v-48q0 -75 36 -124.5t116 -49.5z" />
<glyph unicode="&#x135;" horiz-adv-x="219" d="M150 714l107 -137h-63l-84 107l-84 -107h-63l107 137h80zM-19 -203v56q13 -2 35 -2q62 0 62 70v579h63v-571q0 -134 -121 -134q-11 0 -39 2z" />
<glyph unicode="&#x136;" horiz-adv-x="602" d="M158 700v-344l340 344h91l-346 -350l361 -350h-94l-352 342v-342h-65v700h65zM293 -219l26 141h59l-39 -141h-46z" />
<glyph unicode="&#x137;" horiz-adv-x="509" d="M141 700v-444l258 244h84l-265 -250l280 -250h-88l-269 242v-242h-63v700h63zM232 -219l26 141h59l-39 -141h-46z" />
<glyph unicode="&#x138;" horiz-adv-x="509" d="M141 500v-244l258 244h84l-265 -250l280 -250h-88l-269 242v-242h-63v500h63z" />
<glyph unicode="&#x139;" horiz-adv-x="541" d="M264 915l-115 -138h-47l79 138h83zM158 700v-640h375v-60h-440v700h65z" />
<glyph unicode="&#x13a;" horiz-adv-x="219" d="M247 915l-115 -138h-47l79 138h83zM78 0v700h63v-700h-63z" />
<glyph unicode="&#x13b;" horiz-adv-x="541" d="M158 700v-640h375v-60h-440v700h65zM257 -219l26 141h59l-39 -141h-46z" />
<glyph unicode="&#x13c;" horiz-adv-x="219" d="M78 0v700h63v-700h-63zM53 -219l26 141h59l-39 -141h-46z" />
<glyph unicode="&#x13d;" horiz-adv-x="541" d="M158 700v-640h375v-60h-440v700h65zM410 700l-77 -138h-52l41 138h88z" />
<glyph unicode="&#x13e;" horiz-adv-x="335" d="M78 0v700h63v-700h-63zM348 700l-77 -138h-52l41 138h88z" />
<glyph unicode="&#x13f;" horiz-adv-x="541" d="M158 700v-640h375v-60h-440v700h65zM305 380q0 17 12 29t29 12t29 -12t12 -29t-12 -29t-29 -12t-29 12t-12 29z" />
<glyph unicode="&#x140;" horiz-adv-x="283" d="M78 0v700h63v-700h-63zM201 350q0 17 12 29t29 12t29 -12t12 -29t-12 -29t-29 -12t-29 12t-12 29z" />
<glyph unicode="&#x141;" horiz-adv-x="590" d="M28 260l114 80v360h65v-314l137 96l26 -40l-163 -115v-267h375v-60h-440v282l-88 -62z" />
<glyph unicode="&#x142;" horiz-adv-x="323" d="M130 0v299l-92 -64l-25 39l117 82v344h63v-300l92 64l25 -39l-117 -82v-343h-63z" />
<glyph unicode="&#x143;" horiz-adv-x="741" d="M508 915l-115 -138h-47l79 138h83zM219 700l362 -680h2v680h65v-700h-126l-362 680h-2v-680h-65v700h126z" />
<glyph unicode="&#x144;" horiz-adv-x="560" d="M421 715l-115 -138h-47l79 138h83zM487 0h-63v307q0 76 -27 110.5t-92 34.5q-73 0 -118.5 -47t-45.5 -131v-274h-63v500h63v-80q23 43 67 66.5t98 23.5q181 0 181 -202v-308z" />
<glyph unicode="&#x145;" horiz-adv-x="741" d="M219 700l362 -680h2v680h65v-700h-126l-362 680h-2v-680h-65v700h126zM314 -219l26 141h59l-39 -141h-46z" />
<glyph unicode="&#x146;" horiz-adv-x="560" d="M487 0h-63v307q0 76 -27 110.5t-92 34.5q-73 0 -118.5 -47t-45.5 -131v-274h-63v500h63v-80q23 43 67 66.5t98 23.5q181 0 181 -202v-308zM227 -219l26 141h59l-39 -141h-46z" />
<glyph unicode="&#x147;" horiz-adv-x="741" d="M454 914h63l-107 -137h-80l-107 137h63l84 -107zM219 700l362 -680h2v680h65v-700h-126l-362 680h-2v-680h-65v700h126z" />
<glyph unicode="&#x148;" horiz-adv-x="560" d="M367 714h63l-107 -137h-80l-107 137h63l84 -107zM487 0h-63v307q0 76 -27 110.5t-92 34.5q-73 0 -118.5 -47t-45.5 -131v-274h-63v500h63v-80q23 43 67 66.5t98 23.5q181 0 181 -202v-308z" />
<glyph unicode="&#x149;" horiz-adv-x="560" d="M143 700l-77 -138h-52l41 138h88zM487 0h-63v307q0 76 -27 110.5t-92 34.5q-73 0 -118.5 -47t-45.5 -131v-274h-63v500h63v-80q23 43 67 66.5t98 23.5q181 0 181 -202v-308z" />
<glyph unicode="&#x14a;" horiz-adv-x="741" d="M583 -75v75h-61l-362 680h-2v-680h-65v700h126l362 -680h2v680h65v-771q0 -134 -121 -134q-21 0 -41 4v59q20 -3 35 -3q62 0 62 70z" />
<glyph unicode="&#x14b;" horiz-adv-x="560" d="M327 -202v56q20 -3 35 -3q62 0 62 70v386q0 76 -27 110.5t-92 34.5q-73 0 -118.5 -47t-45.5 -131v-274h-63v500h63v-80q23 43 67 66.5t98 23.5q181 0 181 -202v-379q0 -134 -121 -134q-16 0 -39 3z" />
<glyph unicode="&#x14c;" horiz-adv-x="732" d="M504 788h-276v51h276v-51zM41 350q0 70 19 133t57 114.5t102.5 82t146.5 30.5t146.5 -30.5t102.5 -82t57 -114.5t19 -133t-19 -133t-57 -114.5t-102.5 -82t-146.5 -30.5t-146.5 30.5t-102.5 82t-57 114.5t-19 133zM626 350q0 80 -25.5 145.5t-86 110t-148.5 44.5 t-148.5 -44.5t-86 -110t-25.5 -145.5t25.5 -145.5t86 -110t148.5 -44.5t148.5 44.5t86 110t25.5 145.5z" />
<glyph unicode="&#x14d;" horiz-adv-x="572" d="M424 588h-276v51h276v-51zM45 250q0 50 14.5 95.5t42.5 83t75.5 59.5t108.5 22t108.5 -22t75.5 -59.5t42.5 -83t14.5 -95.5t-14.5 -95.5t-42.5 -83t-75.5 -59.5t-108.5 -22t-108.5 22t-75.5 59.5t-42.5 83t-14.5 95.5zM464 250q0 84 -45 143t-133 59t-133 -59t-45 -143 t45 -143t133 -59t133 59t45 143z" />
<glyph unicode="&#x14e;" horiz-adv-x="732" d="M626 350q0 80 -25.5 145.5t-86 110t-148.5 44.5t-148.5 -44.5t-86 -110t-25.5 -145.5t25.5 -145.5t86 -110t148.5 -44.5t148.5 44.5t86 110t25.5 145.5zM41 350q0 70 19 133t57 114.5t102.5 82t146.5 30.5t146.5 -30.5t102.5 -82t57 -114.5t19 -133t-19 -133t-57 -114.5 t-102.5 -82t-146.5 -30.5t-146.5 30.5t-102.5 82t-57 114.5t-19 133zM216 914h53q0 -38 26 -62.5t71 -24.5t71 24.5t26 62.5h53q0 -60 -40.5 -97.5t-109.5 -37.5t-109.5 37.5t-40.5 97.5z" />
<glyph unicode="&#x14f;" horiz-adv-x="572" d="M464 250q0 84 -45 143t-133 59t-133 -59t-45 -143t45 -143t133 -59t133 59t45 143zM45 250q0 50 14.5 95.5t42.5 83t75.5 59.5t108.5 22t108.5 -22t75.5 -59.5t42.5 -83t14.5 -95.5t-14.5 -95.5t-42.5 -83t-75.5 -59.5t-108.5 -22t-108.5 22t-75.5 59.5t-42.5 83 t-14.5 95.5zM136 714h53q0 -38 26 -62.5t71 -24.5t71 24.5t26 62.5h53q0 -60 -40.5 -97.5t-109.5 -37.5t-109.5 37.5t-40.5 97.5z" />
<glyph unicode="&#x150;" horiz-adv-x="732" d="M421 915l-107 -138h-47l71 138h83zM572 915l-107 -138h-47l71 138h83zM41 350q0 70 19 133t57 114.5t102.5 82t146.5 30.5t146.5 -30.5t102.5 -82t57 -114.5t19 -133t-19 -133t-57 -114.5t-102.5 -82t-146.5 -30.5t-146.5 30.5t-102.5 82t-57 114.5t-19 133zM626 350 q0 80 -25.5 145.5t-86 110t-148.5 44.5t-148.5 -44.5t-86 -110t-25.5 -145.5t25.5 -145.5t86 -110t148.5 -44.5t148.5 44.5t86 110t25.5 145.5z" />
<glyph unicode="&#x151;" horiz-adv-x="572" d="M341 715l-107 -138h-47l71 138h83zM492 715l-107 -138h-47l71 138h83zM45 250q0 50 14.5 95.5t42.5 83t75.5 59.5t108.5 22t108.5 -22t75.5 -59.5t42.5 -83t14.5 -95.5t-14.5 -95.5t-42.5 -83t-75.5 -59.5t-108.5 -22t-108.5 22t-75.5 59.5t-42.5 83t-14.5 95.5zM464 250 q0 84 -45 143t-133 59t-133 -59t-45 -143t45 -143t133 -59t133 59t45 143z" />
<glyph unicode="&#x152;" horiz-adv-x="937" d="M360 60h69v580h-69q-64 0 -114 -24.5t-79 -66.5t-44 -92.5t-15 -106.5t15 -106.5t44 -92.5t79 -66.5t114 -24.5zM360 700h514v-60h-378v-255h354v-60h-354v-265h390v-60h-526q-81 0 -143.5 29.5t-100 80t-56.5 111.5t-19 129t19 129t56.5 111.5t100 80t143.5 29.5z" />
<glyph unicode="&#x153;" horiz-adv-x="971" d="M464 250q0 84 -45 143t-133 59t-133 -59t-45 -143t45 -143t133 -59t133 59t45 143zM529 285h332q-8 72 -50.5 119.5t-115.5 47.5t-115.5 -47.5t-50.5 -119.5zM45 250q0 50 14.5 95.5t42.5 83t75.5 59.5t108.5 22q147 0 209 -120q58 120 200 120q58 0 104 -22t73 -59.5 t40.5 -83t13.5 -95.5v-23h-398q6 -76 48 -127.5t119 -51.5q118 0 152 94h66q-43 -152 -218 -152q-142 0 -200 120q-62 -120 -209 -120q-61 0 -108.5 22t-75.5 59.5t-42.5 83t-14.5 95.5z" />
<glyph unicode="&#x154;" horiz-adv-x="661" d="M371 640h-213v-306h213q66 0 109 43t43 110t-43 110t-109 43zM158 274v-274h-65v700h277q95 0 156.5 -60t61.5 -153q0 -81 -48 -138t-126 -71l183 -278h-76l-181 274h-182zM397 915h83l-115 -138h-47z" />
<glyph unicode="&#x155;" horiz-adv-x="338" d="M341 715l-115 -138h-47l79 138h83zM78 0v500h63v-79h2q18 39 63.5 64t99.5 25h20v-55q-2 -2 -21 -2q-66 0 -115 -52.5t-49 -129.5v-271h-63z" />
<glyph unicode="&#x156;" horiz-adv-x="661" d="M371 640h-213v-306h213q66 0 109 43t43 110t-43 110t-109 43zM158 274v-274h-65v700h277q95 0 156.5 -60t61.5 -153q0 -81 -48 -138t-126 -71l183 -278h-76l-181 274h-182zM336 -219h-46l26 141h59z" />
<glyph unicode="&#x157;" horiz-adv-x="338" d="M78 0v500h63v-79h2q18 39 63.5 64t99.5 25h20v-55q-2 -2 -21 -2q-66 0 -115 -52.5t-49 -129.5v-271h-63zM53 -219l26 141h59l-39 -141h-46z" />
<glyph unicode="&#x158;" horiz-adv-x="661" d="M371 640h-213v-306h213q66 0 109 43t43 110t-43 110t-109 43zM158 274v-274h-65v700h277q95 0 156.5 -60t61.5 -153q0 -81 -48 -138t-126 -71l183 -278h-76l-181 274h-182zM342 807l84 107h63l-107 -137h-80l-107 137h63z" />
<glyph unicode="&#x159;" horiz-adv-x="338" d="M287 714h63l-107 -137h-80l-107 137h63l84 -107zM78 0v500h63v-79h2q18 39 63.5 64t99.5 25h20v-55q-2 -2 -21 -2q-66 0 -115 -52.5t-49 -129.5v-271h-63z" />
<glyph unicode="&#x15a;" horiz-adv-x="614" d="M442 915l-115 -138h-47l79 138h83zM46 195h65q7 -70 63 -107.5t133 -37.5q80 0 138 36t58 105q0 37 -19 62.5t-49.5 36.5t-70 20t-81 14t-81 17.5t-70 30t-49.5 52.5t-19 85q0 99 70 150t170 51q98 0 165.5 -52t74.5 -154h-65q-7 72 -55 109t-120 37q-74 0 -124.5 -36.5 t-50.5 -105.5q0 -41 24 -66.5t63 -36.5t85.5 -18t93.5 -17.5t86 -28t63 -55.5t24 -96q0 -98 -76.5 -149t-184.5 -51q-105 0 -179.5 52.5t-81.5 152.5z" />
<glyph unicode="&#x15b;" horiz-adv-x="466" d="M367 715l-115 -138h-47l79 138h83zM42 141h63q5 -45 40 -69t86 -24q54 0 92 22.5t38 66.5q0 32 -22.5 51t-57 25.5t-74 15.5t-74 19.5t-57 39.5t-22.5 75q0 73 51 110t124 37t123 -38.5t55 -112.5h-63q-4 46 -35.5 69.5t-78.5 23.5q-48 0 -80.5 -21t-32.5 -65 q0 -32 22.5 -50.5t57 -24.5t74 -15t74 -19.5t57 -40.5t22.5 -76q0 -73 -56.5 -111.5t-137.5 -38.5q-76 0 -129.5 39t-58.5 112z" />
<glyph unicode="&#x15c;" horiz-adv-x="614" d="M344 914l107 -137h-63l-84 107l-84 -107h-63l107 137h80zM46 195h65q7 -70 63 -107.5t133 -37.5q80 0 138 36t58 105q0 37 -19 62.5t-49.5 36.5t-70 20t-81 14t-81 17.5t-70 30t-49.5 52.5t-19 85q0 99 70 150t170 51q98 0 165.5 -52t74.5 -154h-65q-7 72 -55 109 t-120 37q-74 0 -124.5 -36.5t-50.5 -105.5q0 -41 24 -66.5t63 -36.5t85.5 -18t93.5 -17.5t86 -28t63 -55.5t24 -96q0 -98 -76.5 -149t-184.5 -51q-105 0 -179.5 52.5t-81.5 152.5z" />
<glyph unicode="&#x15d;" horiz-adv-x="466" d="M269 714l107 -137h-63l-84 107l-84 -107h-63l107 137h80zM42 141h63q5 -45 40 -69t86 -24q54 0 92 22.5t38 66.5q0 32 -22.5 51t-57 25.5t-74 15.5t-74 19.5t-57 39.5t-22.5 75q0 73 51 110t124 37t123 -38.5t55 -112.5h-63q-4 46 -35.5 69.5t-78.5 23.5q-48 0 -80.5 -21 t-32.5 -65q0 -32 22.5 -50.5t57 -24.5t74 -15t74 -19.5t57 -40.5t22.5 -76q0 -73 -56.5 -111.5t-137.5 -38.5q-76 0 -129.5 39t-58.5 112z" />
<glyph unicode="&#x15e;" horiz-adv-x="614" d="M46 195h65q7 -70 63 -107.5t133 -37.5q80 0 138 36t58 105q0 37 -19 62.5t-49.5 36.5t-70 20t-81 14t-81 17.5t-70 30t-49.5 52.5t-19 85q0 99 70 150t170 51q98 0 165.5 -52t74.5 -154h-65q-7 72 -55 109t-120 37q-74 0 -124.5 -36.5t-50.5 -105.5q0 -41 24 -66.5 t63 -36.5t85.5 -18t93.5 -17.5t86 -28t63 -55.5t24 -96q0 -94 -70.5 -144.5t-172.5 -55.5l-11 -28h20q47 0 74.5 -23t27.5 -63q0 -45 -34.5 -73t-91.5 -28q-32 0 -77 15v48q42 -17 75 -17q35 0 55.5 15.5t20.5 41.5q0 44 -57 44h-49l-13 22l18 47q-97 6 -164 58t-73 146z " />
<glyph unicode="&#x15f;" horiz-adv-x="466" d="M42 141h63q5 -45 40 -69t86 -24q54 0 92 22.5t38 66.5q0 32 -22.5 51t-57 25.5t-74 15.5t-74 19.5t-57 39.5t-22.5 75q0 73 51 110t124 37t123 -38.5t55 -112.5h-63q-4 46 -35.5 69.5t-78.5 23.5q-48 0 -80.5 -21t-32.5 -65q0 -32 22.5 -50.5t57 -24.5t74 -15t74 -19.5 t57 -40.5t22.5 -76q0 -69 -50.5 -107t-125.5 -42l-11 -29h20q47 0 74.5 -23t27.5 -63q0 -45 -34.5 -73t-91.5 -28q-32 0 -77 15v48q42 -17 75 -17q35 0 55.5 15.5t20.5 41.5q0 44 -57 44h-49l-13 22l19 47q-68 6 -114.5 44.5t-50.5 105.5z" />
<glyph unicode="&#x160;" horiz-adv-x="614" d="M388 914h63l-107 -137h-80l-107 137h63l84 -107zM46 195h65q7 -70 63 -107.5t133 -37.5q80 0 138 36t58 105q0 37 -19 62.5t-49.5 36.5t-70 20t-81 14t-81 17.5t-70 30t-49.5 52.5t-19 85q0 99 70 150t170 51q98 0 165.5 -52t74.5 -154h-65q-7 72 -55 109t-120 37 q-74 0 -124.5 -36.5t-50.5 -105.5q0 -41 24 -66.5t63 -36.5t85.5 -18t93.5 -17.5t86 -28t63 -55.5t24 -96q0 -98 -76.5 -149t-184.5 -51q-105 0 -179.5 52.5t-81.5 152.5z" />
<glyph unicode="&#x161;" horiz-adv-x="466" d="M313 714h63l-107 -137h-80l-107 137h63l84 -107zM42 141h63q5 -45 40 -69t86 -24q54 0 92 22.5t38 66.5q0 32 -22.5 51t-57 25.5t-74 15.5t-74 19.5t-57 39.5t-22.5 75q0 73 51 110t124 37t123 -38.5t55 -112.5h-63q-4 46 -35.5 69.5t-78.5 23.5q-48 0 -80.5 -21 t-32.5 -65q0 -32 22.5 -50.5t57 -24.5t74 -15t74 -19.5t57 -40.5t22.5 -76q0 -73 -56.5 -111.5t-137.5 -38.5q-76 0 -129.5 39t-58.5 112z" />
<glyph unicode="&#x162;" horiz-adv-x="565" d="M315 640v-640h-10l-15 -38h20q47 0 74.5 -23t27.5 -63q0 -45 -34.5 -73t-91.5 -28q-32 0 -77 15v48q42 -17 75 -17q35 0 55.5 15.5t20.5 41.5q0 44 -57 44h-49l-13 22l22 56h-13v640h-229v60h523v-60h-229z" />
<glyph unicode="&#x163;" horiz-adv-x="367" d="M314 4q-39 -14 -81 -14q-21 0 -36 4l-13 -32h20q47 0 74.5 -23t27.5 -63q0 -45 -34.5 -73t-91.5 -28q-32 0 -77 15v48q42 -17 75 -17q35 0 55.5 15.5t20.5 41.5q0 44 -57 44h-49l-13 22l26 65q-49 32 -49 115v324h-93v52h93v140h63v-140h139v-52h-139v-332q0 -70 62 -70 q41 0 77 16v-58z" />
<glyph unicode="&#x164;" horiz-adv-x="565" d="M367 914h63l-107 -137h-80l-107 137h63l84 -107zM315 640v-640h-65v640h-229v60h523v-60h-229z" />
<glyph unicode="&#x165;" horiz-adv-x="367" d="M392 700l-77 -138h-52l41 138h88zM314 4q-39 -14 -81 -14q-121 0 -121 134v324h-93v52h93v140h63v-140h139v-52h-139v-332q0 -70 62 -70q41 0 77 16v-58z" />
<glyph unicode="&#x166;" horiz-adv-x="565" d="M460 323h-145v-323h-65v323h-145v54h145v263h-229v60h523v-60h-229v-263h145v-54z" />
<glyph unicode="&#x167;" horiz-adv-x="367" d="M314 4q-39 -14 -81 -14q-121 0 -121 134v140h-80v50h80v134h-93v52h93v140h63v-140h139v-52h-139v-134h126v-50h-126v-148q0 -70 62 -70q41 0 77 16v-58z" />
<glyph unicode="&#x168;" horiz-adv-x="716" d="M259 779h-45q2 36 24 62t61 26q17 0 59 -10t63 -10q31 0 36 34h45q-2 -36 -24 -62t-61 -26q-17 0 -59 10t-63 10q-31 0 -36 -34zM568 275v425h65v-432q0 -51 -13.5 -97t-43 -88.5t-85.5 -67.5t-133 -25t-133 25t-85.5 67.5t-43 88.5t-13.5 97v432h65v-425 q0 -42 10.5 -79.5t33 -71.5t65.5 -54t101 -20t101 20t65.5 54t33 71.5t10.5 79.5z" />
<glyph unicode="&#x169;" horiz-adv-x="560" d="M179 579h-45q2 36 24 62t61 26q18 0 59.5 -10t62.5 -10q31 0 36 34h45q-2 -36 -24 -62t-61 -26q-17 0 -59 10t-63 10q-31 0 -36 -34zM73 500h63v-307q0 -76 27 -110.5t92 -34.5q73 0 118.5 47t45.5 131v274h63v-500h-63v80q-23 -43 -67 -66.5t-98 -23.5q-181 0 -181 202 v308z" />
<glyph unicode="&#x16a;" horiz-adv-x="716" d="M496 788h-276v51h276v-51zM568 275v425h65v-432q0 -51 -13.5 -97t-43 -88.5t-85.5 -67.5t-133 -25t-133 25t-85.5 67.5t-43 88.5t-13.5 97v432h65v-425q0 -42 10.5 -79.5t33 -71.5t65.5 -54t101 -20t101 20t65.5 54t33 71.5t10.5 79.5z" />
<glyph unicode="&#x16b;" horiz-adv-x="560" d="M416 588h-276v51h276v-51zM73 500h63v-307q0 -76 27 -110.5t92 -34.5q73 0 118.5 47t45.5 131v274h63v-500h-63v80q-23 -43 -67 -66.5t-98 -23.5q-181 0 -181 202v308z" />
<glyph unicode="&#x16c;" horiz-adv-x="716" d="M208 914h53q0 -38 26 -62.5t71 -24.5t71 24.5t26 62.5h53q0 -60 -40.5 -97.5t-109.5 -37.5t-109.5 37.5t-40.5 97.5zM568 275v425h65v-432q0 -51 -13.5 -97t-43 -88.5t-85.5 -67.5t-133 -25t-133 25t-85.5 67.5t-43 88.5t-13.5 97v432h65v-425q0 -42 10.5 -79.5t33 -71.5 t65.5 -54t101 -20t101 20t65.5 54t33 71.5t10.5 79.5z" />
<glyph unicode="&#x16d;" horiz-adv-x="560" d="M128 714h53q0 -38 26 -62.5t71 -24.5t71 24.5t26 62.5h53q0 -60 -40.5 -97.5t-109.5 -37.5t-109.5 37.5t-40.5 97.5zM73 500h63v-307q0 -76 27 -110.5t92 -34.5q73 0 118.5 47t45.5 131v274h63v-500h-63v80q-23 -43 -67 -66.5t-98 -23.5q-181 0 -181 202v308z" />
<glyph unicode="&#x16e;" horiz-adv-x="716" d="M410 859q0 23 -15 38t-37 15t-37 -15t-15 -38t15 -38t37 -15t37 15t15 38zM568 275v425h65v-432q0 -51 -13.5 -97t-43 -88.5t-85.5 -67.5t-133 -25t-133 25t-85.5 67.5t-43 88.5t-13.5 97v432h65v-425q0 -42 10.5 -79.5t33 -71.5t65.5 -54t101 -20t101 20t65.5 54 t33 71.5t10.5 79.5zM259 859q0 42 28 69.5t71 27.5t71 -27.5t28 -69.5t-28 -69.5t-71 -27.5t-71 27.5t-28 69.5z" />
<glyph unicode="&#x16f;" horiz-adv-x="560" d="M330 659q0 23 -15 38t-37 15t-37 -15t-15 -38t15 -38t37 -15t37 15t15 38zM73 192v308h63v-307q0 -76 27 -110.5t92 -34.5q73 0 118.5 47t45.5 131v274h63v-500h-63v80q-23 -43 -67 -66.5t-98 -23.5q-181 0 -181 202zM179 659q0 42 28 69.5t71 27.5t71 -27.5t28 -69.5 t-28 -69.5t-71 -27.5t-71 27.5t-28 69.5z" />
<glyph unicode="&#x170;" horiz-adv-x="716" d="M413 915l-107 -138h-47l71 138h83zM564 915l-107 -138h-47l71 138h83zM568 275v425h65v-432q0 -51 -13.5 -97t-43 -88.5t-85.5 -67.5t-133 -25t-133 25t-85.5 67.5t-43 88.5t-13.5 97v432h65v-425q0 -42 10.5 -79.5t33 -71.5t65.5 -54t101 -20t101 20t65.5 54t33 71.5 t10.5 79.5z" />
<glyph unicode="&#x171;" horiz-adv-x="560" d="M333 715l-107 -138h-47l71 138h83zM484 715l-107 -138h-47l71 138h83zM73 500h63v-307q0 -76 27 -110.5t92 -34.5q73 0 118.5 47t45.5 131v274h63v-500h-63v80q-23 -43 -67 -66.5t-98 -23.5q-181 0 -181 202v308z" />
<glyph unicode="&#x172;" horiz-adv-x="716" d="M568 275v425h65v-432q0 -49 -12.5 -94t-40 -86.5t-79.5 -68t-123 -29.5q-71 -64 -71 -122q0 -44 41 -44q26 0 41 8v-46q-18 -11 -50 -11q-38 0 -63.5 23.5t-25.5 63.5q0 71 71 130q-66 6 -114.5 33t-74.5 67.5t-37.5 84t-11.5 91.5v432h65v-425q0 -42 10.5 -79.5 t33 -71.5t65.5 -54t101 -20t101 20t65.5 54t33 71.5t10.5 79.5z" />
<glyph unicode="&#x173;" horiz-adv-x="560" d="M73 500h63v-307q0 -76 27 -110.5t92 -34.5q73 0 118.5 47t45.5 131v274h63v-500q-30 -24 -56 -60.5t-26 -71.5q0 -44 41 -44q26 0 41 8v-46q-18 -11 -50 -11q-38 0 -63.5 23.5t-25.5 63.5q0 77 82 138h-6v80q-23 -43 -67 -66.5t-98 -23.5q-181 0 -181 202v308z" />
<glyph unicode="&#x174;" horiz-adv-x="978" d="M529 914l107 -137h-63l-84 107l-84 -107h-63l107 137h80zM95 700l170 -680h2l163 680h118l163 -680h2l170 680h68l-180 -700h-118l-163 680h-2l-163 -680h-118l-180 700h68z" />
<glyph unicode="&#x175;" horiz-adv-x="762" d="M421 714l107 -137h-63l-84 107l-84 -107h-63l107 137h80zM91 500l124 -485h2l106 485h116l106 -485h2l124 485h65l-132 -500h-116l-106 485h-2l-106 -485h-116l-132 500h65z" />
<glyph unicode="&#x176;" horiz-adv-x="601" d="M341 914l107 -137h-63l-84 107l-84 -107h-63l107 137h80zM243 285l-225 415h73l209 -395h1l209 395h73l-225 -415h-25v-285h-65v285h-25z" />
<glyph unicode="&#x177;" horiz-adv-x="510" d="M295 714l107 -137h-63l-84 107l-84 -107h-63l107 137h80zM493 500l-245 -695h-66l69 195h-55l-179 500h66l171 -485h2l171 485h66z" />
<glyph unicode="&#x178;" horiz-adv-x="601" d="M171 828q0 17 12 29t29 12t29 -12t12 -29t-12 -29t-29 -12t-29 12t-12 29zM349 828q0 17 12 29t29 12t29 -12t12 -29t-12 -29t-29 -12t-29 12t-12 29zM243 285l-225 415h73l209 -395h1l209 395h73l-225 -415h-25v-285h-65v285h-25z" />
<glyph unicode="&#x179;" horiz-adv-x="581" d="M428 915l-115 -138h-47l79 138h83zM540 700v-70l-434 -570h440v-60h-511v70l434 570h-422v60h493z" />
<glyph unicode="&#x17a;" horiz-adv-x="467" d="M371 715l-115 -138h-47l79 138h83zM416 500v-63l-298 -379h303v-58h-375v63l298 379h-284v58h356z" />
<glyph unicode="&#x17b;" horiz-adv-x="581" d="M249 829q0 17 12 29t29 12t29 -12t12 -29t-12 -29t-29 -12t-29 12t-12 29zM540 700v-70l-434 -570h440v-60h-511v70l434 570h-422v60h493z" />
<glyph unicode="&#x17c;" horiz-adv-x="467" d="M192 629q0 17 12 29t29 12t29 -12t12 -29t-12 -29t-29 -12t-29 12t-12 29zM416 500v-63l-298 -379h303v-58h-375v63l298 379h-284v58h356z" />
<glyph unicode="&#x17d;" horiz-adv-x="581" d="M374 914h63l-107 -137h-80l-107 137h63l84 -107zM540 700v-70l-434 -570h440v-60h-511v70l434 570h-422v60h493z" />
<glyph unicode="&#x17e;" horiz-adv-x="467" d="M317 714h63l-107 -137h-80l-107 137h63l84 -107zM416 500v-63l-298 -379h303v-58h-375v63l298 379h-284v58h356z" />
<glyph unicode="&#x17f;" horiz-adv-x="329" d="M19 500h93v86q0 134 121 134q42 0 81 -14v-59q-36 16 -77 16q-62 0 -62 -70v-593h-63v448h-93v52z" />
<glyph unicode="&#x186;" horiz-adv-x="701" d="M335 50q88 0 148.5 44.5t86 110t25.5 145.5t-25.5 145.5t-86 110t-148.5 44.5q-186 0 -229 -191h-65q22 115 93.5 183t200.5 68q82 0 146.5 -30.5t102.5 -82t57 -114.5t19 -133t-19 -133t-57 -114.5t-102.5 -82t-146.5 -30.5q-129 0 -200.5 68t-93.5 183h65 q43 -191 229 -191z" />
<glyph unicode="&#x189;" horiz-adv-x="699" d="M113 700h228q81 0 143.5 -29.5t99.5 -80t55.5 -111.5t18.5 -129t-18.5 -129t-55.5 -111.5t-99.5 -80t-143.5 -29.5h-228v323h-78v54h78v323zM178 60h163q85 0 143.5 43t83.5 106.5t25 140.5t-25 140.5t-83.5 106.5t-143.5 43h-163v-263h188v-54h-188v-263z" />
<glyph unicode="&#x18e;" horiz-adv-x="599" d="M441 325h-354v60h354v255h-378v60h443v-700h-455v60h390v265z" />
<glyph unicode="&#x18f;" horiz-adv-x="710" d="M600 286h-492q25 -236 236 -236q112 0 176 66t80 170zM669 350q0 -70 -19 -133t-57 -114.5t-102.5 -82t-146.5 -30.5t-142 28.5t-94 79t-50.5 112.5t-16.5 136h563q1 131 -66 217.5t-194 86.5q-190 0 -229 -191h-65q20 115 91.5 183t202.5 68q82 0 146.5 -30.5t102.5 -82 t57 -114.5t19 -133z" />
<glyph unicode="&#x190;" horiz-adv-x="614" d="M307 319q-83 0 -139.5 -31.5t-56.5 -98.5q0 -69 57.5 -104t138.5 -35q78 0 133.5 36.5t62.5 108.5h65q-7 -100 -81.5 -152.5t-179.5 -52.5q-68 0 -125.5 20.5t-96.5 67t-39 111.5q0 116 122 164q-97 48 -97 157q0 97 70 148.5t169 51.5q98 0 165.5 -52t74.5 -154h-65 q-7 74 -55 110t-120 36q-74 0 -124 -35t-50 -105q0 -69 49 -100t125 -31h72v-60h-75z" />
<glyph unicode="&#x192;" horiz-adv-x="518" d="M237 -79q-10 -66 -44.5 -96t-98.5 -30q-41 0 -77 14l10 59q30 -15 71 -15q65 0 76 68l65 404h-111v52h120l33 207q10 66 44.5 96t98.5 30q41 0 77 -14l-10 -59q-30 15 -71 15q-65 0 -76 -68l-33 -207h112v-52h-121z" />
<glyph unicode="&#x197;" horiz-adv-x="291" d="M113 0v323h-78v54h78v323h65v-323h78v-54h-78v-323h-65z" />
<glyph unicode="&#x19d;" horiz-adv-x="741" d="M93 700h126l362 -680h2v680h65v-700h-126l-362 680h-2v-751q0 -134 -121 -134q-21 0 -41 4v59q20 -3 35 -3q62 0 62 70v775z" />
<glyph unicode="&#x1a0;" horiz-adv-x="732" d="M626 350q0 80 -25.5 145.5t-86 110t-148.5 44.5t-148.5 -44.5t-86 -110t-25.5 -145.5t25.5 -145.5t86 -110t148.5 -44.5t148.5 44.5t86 110t25.5 145.5zM41 350q0 70 19 133t57 114.5t102.5 82t146.5 30.5t145 -30q43 0 63.5 22t18.5 53t-8 65h60q34 -148 -65 -186 q111 -98 111 -284q0 -70 -19 -133t-57 -114.5t-102.5 -82t-146.5 -30.5t-146.5 30.5t-102.5 82t-57 114.5t-19 133z" />
<glyph unicode="&#x1a1;" horiz-adv-x="577" d="M464 250q0 84 -45 143t-133 59t-133 -59t-45 -143t45 -143t133 -59t133 59t45 143zM45 250q0 50 14.5 95.5t42.5 83t75.5 59.5t108.5 22q70 0 124 -30q43 0 63.5 21.5t18.5 52.5t-8 66h60q36 -156 -76 -189q59 -71 59 -181q0 -50 -14.5 -95.5t-42.5 -83t-75.5 -59.5 t-108.5 -22t-108.5 22t-75.5 59.5t-42.5 83t-14.5 95.5z" />
<glyph unicode="&#x1af;" horiz-adv-x="726" d="M568 275v425h33q44 0 64.5 21.5t18.5 52.5t-8 66h60q18 -81 -6 -133.5t-97 -61.5v-377q0 -51 -13.5 -97t-43 -88.5t-85.5 -67.5t-133 -25t-133 25t-85.5 67.5t-43 88.5t-13.5 97v432h65v-425q0 -42 10.5 -79.5t33 -71.5t65.5 -54t101 -20t101 20t65.5 54t33 71.5 t10.5 79.5z" />
<glyph unicode="&#x1b0;" horiz-adv-x="580" d="M73 500h63v-307q0 -76 27 -110.5t92 -34.5q73 0 118.5 47t45.5 131v274h31q44 0 64.5 21.5t18.5 52.5t-8 66h60q18 -81 -6 -133.5t-97 -61.5v-445h-63v80q-23 -43 -67 -66.5t-98 -23.5q-181 0 -181 202v308z" />
<glyph unicode="&#x1b5;" horiz-adv-x="581" d="M540 700v-70l-193 -253h158v-54h-199l-200 -263h440v-60h-511v70l193 253h-158v54h199l200 263h-422v60h493z" />
<glyph unicode="&#x1b6;" horiz-adv-x="467" d="M416 500v-63l-127 -162h97v-50h-137l-131 -167h303v-58h-375v63l127 162h-97v50h137l131 167h-284v58h356z" />
<glyph unicode="&#x1c4;" horiz-adv-x="1260" d="M158 60h163q85 0 143.5 43t83.5 106.5t25 140.5t-25 140.5t-83.5 106.5t-143.5 43h-163v-580zM93 700h228q81 0 143.5 -29.5t99.5 -80t55.5 -111.5t18.5 -129t-18.5 -129t-55.5 -111.5t-99.5 -80t-143.5 -29.5h-228v700zM726 700h493v-70l-434 -570h440v-60h-511v70 l434 570h-422v60zM969 807l84 107h63l-107 -137h-80l-107 137h63z" />
<glyph unicode="&#x1c5;" horiz-adv-x="1146" d="M158 60h163q85 0 143.5 43t83.5 106.5t25 140.5t-25 140.5t-83.5 106.5t-143.5 43h-163v-580zM93 700h228q81 0 143.5 -29.5t99.5 -80t55.5 -111.5t18.5 -129t-18.5 -129t-55.5 -111.5t-99.5 -80t-143.5 -29.5h-228v700zM739 500h356v-63l-298 -379h303v-58h-375v63 l298 379h-284v58zM912 607l84 107h63l-107 -137h-80l-107 137h63z" />
<glyph unicode="&#x1c6;" horiz-adv-x="1072" d="M464 250q0 84 -44.5 143t-133.5 59t-133.5 -59t-44.5 -143t44.5 -143t133.5 -59t133.5 59t44.5 143zM527 0h-63v83q-63 -93 -185 -93q-117 0 -175.5 76.5t-58.5 183.5t58.5 183.5t175.5 76.5q122 0 185 -93v283h63v-700zM665 500h356v-63l-298 -379h303v-58h-375v63 l298 379h-284v58zM838 607l84 107h63l-107 -137h-80l-107 137h63z" />
<glyph unicode="&#x1c7;" horiz-adv-x="1083" d="M158 700v-640h375v-60h-440v700h65zM783 50q80 0 116 49.5t36 124.5v476h65v-476q0 -100 -51.5 -167t-165.5 -67t-165.5 67t-51.5 167v48h65v-48q0 -75 36 -124.5t116 -49.5z" />
<glyph unicode="&#x1c8;" horiz-adv-x="760" d="M607 666q0 19 12.5 31t30.5 12t30.5 -12t12.5 -31t-12.5 -31t-30.5 -12t-30.5 12t-12.5 31zM158 700v-640h375v-60h-440v700h65zM522 -203v56q13 -2 35 -2q62 0 62 70v579h63v-571q0 -134 -121 -134q-11 0 -39 2z" />
<glyph unicode="&#x1c9;" horiz-adv-x="438" d="M285 666q0 19 12.5 31t30.5 12t30.5 -12t12.5 -31t-12.5 -31t-30.5 -12t-30.5 12t-12.5 31zM78 0v700h63v-700h-63zM200 -203v56q13 -2 35 -2q62 0 62 70v579h63v-571q0 -134 -121 -134q-11 0 -39 2z" />
<glyph unicode="&#x1ca;" horiz-adv-x="1283" d="M219 700l362 -680h2v680h65v-700h-126l-362 680h-2v-680h-65v700h126zM983 50q80 0 116 49.5t36 124.5v476h65v-476q0 -100 -51.5 -167t-165.5 -67t-165.5 67t-51.5 167v48h65v-48q0 -75 36 -124.5t116 -49.5z" />
<glyph unicode="&#x1cb;" horiz-adv-x="960" d="M807 666q0 19 12.5 31t30.5 12t30.5 -12t12.5 -31t-12.5 -31t-30.5 -12t-30.5 12t-12.5 31zM219 700l362 -680h2v680h65v-700h-126l-362 680h-2v-680h-65v700h126zM722 -203v56q13 -2 35 -2q62 0 62 70v579h63v-571q0 -134 -121 -134q-11 0 -39 2z" />
<glyph unicode="&#x1cc;" horiz-adv-x="779" d="M626 666q0 19 12.5 31t30.5 12t30.5 -12t12.5 -31t-12.5 -31t-30.5 -12t-30.5 12t-12.5 31zM487 0h-63v307q0 76 -27 110.5t-92 34.5q-73 0 -118.5 -47t-45.5 -131v-274h-63v500h63v-80q23 43 67 66.5t98 23.5q181 0 181 -202v-308zM541 -203v56q13 -2 35 -2q62 0 62 70 v579h63v-571q0 -134 -121 -134q-11 0 -39 2z" />
<glyph unicode="&#x1cd;" horiz-adv-x="656" d="M327 680l-154 -430h310l-154 430h-2zM84 0h-71l257 700h116l257 -700h-71l-68 190h-352zM328 807l84 107h63l-107 -137h-80l-107 137h63z" />
<glyph unicode="&#x1ce;" horiz-adv-x="605" d="M464 250q0 84 -44.5 143t-133.5 59t-133.5 -59t-44.5 -143t44.5 -143t133.5 -59t133.5 59t44.5 143zM527 0h-63v83q-63 -93 -185 -93q-117 0 -175.5 76.5t-58.5 183.5t58.5 183.5t175.5 76.5q122 0 185 -93v83h63v-500zM286 607l84 107h63l-107 -137h-80l-107 137h63z " />
<glyph unicode="&#x1cf;" horiz-adv-x="251" d="M210 914h63l-107 -137h-80l-107 137h63l84 -107zM93 0v700h65v-700h-65z" />
<glyph unicode="&#x1d0;" horiz-adv-x="219" d="M193 714h63l-107 -137h-80l-107 137h63l84 -107zM78 0v500h63v-500h-63z" />
<glyph unicode="&#x1d1;" horiz-adv-x="732" d="M626 350q0 80 -25.5 145.5t-86 110t-148.5 44.5t-148.5 -44.5t-86 -110t-25.5 -145.5t25.5 -145.5t86 -110t148.5 -44.5t148.5 44.5t86 110t25.5 145.5zM41 350q0 70 19 133t57 114.5t102.5 82t146.5 30.5t146.5 -30.5t102.5 -82t57 -114.5t19 -133t-19 -133t-57 -114.5 t-102.5 -82t-146.5 -30.5t-146.5 30.5t-102.5 82t-57 114.5t-19 133zM366 807l84 107h63l-107 -137h-80l-107 137h63z" />
<glyph unicode="&#x1d2;" horiz-adv-x="572" d="M464 250q0 84 -45 143t-133 59t-133 -59t-45 -143t45 -143t133 -59t133 59t45 143zM45 250q0 50 14.5 95.5t42.5 83t75.5 59.5t108.5 22t108.5 -22t75.5 -59.5t42.5 -83t14.5 -95.5t-14.5 -95.5t-42.5 -83t-75.5 -59.5t-108.5 -22t-108.5 22t-75.5 59.5t-42.5 83 t-14.5 95.5zM286 607l84 107h63l-107 -137h-80l-107 137h63z" />
<glyph unicode="&#x1d3;" horiz-adv-x="716" d="M442 914h63l-107 -137h-80l-107 137h63l84 -107zM568 275v425h65v-432q0 -51 -13.5 -97t-43 -88.5t-85.5 -67.5t-133 -25t-133 25t-85.5 67.5t-43 88.5t-13.5 97v432h65v-425q0 -42 10.5 -79.5t33 -71.5t65.5 -54t101 -20t101 20t65.5 54t33 71.5t10.5 79.5z" />
<glyph unicode="&#x1d4;" horiz-adv-x="560" d="M362 714h63l-107 -137h-80l-107 137h63l84 -107zM73 500h63v-307q0 -76 27 -110.5t92 -34.5q73 0 118.5 47t45.5 131v274h63v-500h-63v80q-23 -43 -67 -66.5t-98 -23.5q-181 0 -181 202v308z" />
<glyph unicode="&#x1d5;" horiz-adv-x="716" d="M496 788h-276v51h276v-51zM228 664q0 17 12 29t29 12t29 -12t12 -29t-12 -29t-29 -12t-29 12t-12 29zM406 664q0 17 12 29t29 12t29 -12t12 -29t-12 -29t-29 -12t-29 12t-12 29zM568 275v425h65v-432q0 -51 -13.5 -97t-43 -88.5t-85.5 -67.5t-133 -25t-133 25t-85.5 67.5 t-43 88.5t-13.5 97v432h65v-425q0 -42 10.5 -79.5t33 -71.5t65.5 -54t101 -20t101 20t65.5 54t33 71.5t10.5 79.5z" />
<glyph unicode="&#x1d6;" horiz-adv-x="560" d="M416 757h-276v51h276v-51zM148 628q0 17 12 29t29 12t29 -12t12 -29t-12 -29t-29 -12t-29 12t-12 29zM326 628q0 17 12 29t29 12t29 -12t12 -29t-12 -29t-29 -12t-29 12t-12 29zM73 500h63v-307q0 -76 27 -110.5t92 -34.5q73 0 118.5 47t45.5 131v274h63v-500h-63v80 q-23 -43 -67 -66.5t-98 -23.5q-181 0 -181 202v308z" />
<glyph unicode="&#x1d7;" horiz-adv-x="716" d="M496 915l-115 -138h-47l79 138h83zM228 664q0 17 12 29t29 12t29 -12t12 -29t-12 -29t-29 -12t-29 12t-12 29zM406 664q0 17 12 29t29 12t29 -12t12 -29t-12 -29t-29 -12t-29 12t-12 29zM568 275v425h65v-432q0 -51 -13.5 -97t-43 -88.5t-85.5 -67.5t-133 -25t-133 25 t-85.5 67.5t-43 88.5t-13.5 97v432h65v-425q0 -42 10.5 -79.5t33 -71.5t65.5 -54t101 -20t101 20t65.5 54t33 71.5t10.5 79.5z" />
<glyph unicode="&#x1d8;" horiz-adv-x="560" d="M416 884l-115 -138h-47l79 138h83zM148 628q0 17 12 29t29 12t29 -12t12 -29t-12 -29t-29 -12t-29 12t-12 29zM326 628q0 17 12 29t29 12t29 -12t12 -29t-12 -29t-29 -12t-29 12t-12 29zM73 500h63v-307q0 -76 27 -110.5t92 -34.5q73 0 118.5 47t45.5 131v274h63v-500 h-63v80q-23 -43 -67 -66.5t-98 -23.5q-181 0 -181 202v308z" />
<glyph unicode="&#x1d9;" horiz-adv-x="716" d="M442 914h63l-107 -137h-80l-107 137h63l84 -107zM228 664q0 17 12 29t29 12t29 -12t12 -29t-12 -29t-29 -12t-29 12t-12 29zM406 664q0 17 12 29t29 12t29 -12t12 -29t-12 -29t-29 -12t-29 12t-12 29zM568 275v425h65v-432q0 -51 -13.5 -97t-43 -88.5t-85.5 -67.5 t-133 -25t-133 25t-85.5 67.5t-43 88.5t-13.5 97v432h65v-425q0 -42 10.5 -79.5t33 -71.5t65.5 -54t101 -20t101 20t65.5 54t33 71.5t10.5 79.5z" />
<glyph unicode="&#x1da;" horiz-adv-x="560" d="M362 883h63l-107 -137h-80l-107 137h63l84 -107zM148 628q0 17 12 29t29 12t29 -12t12 -29t-12 -29t-29 -12t-29 12t-12 29zM326 628q0 17 12 29t29 12t29 -12t12 -29t-12 -29t-29 -12t-29 12t-12 29zM73 500h63v-307q0 -76 27 -110.5t92 -34.5q73 0 118.5 47t45.5 131 v274h63v-500h-63v80q-23 -43 -67 -66.5t-98 -23.5q-181 0 -181 202v308z" />
<glyph unicode="&#x1db;" horiz-adv-x="716" d="M220 915h83l79 -138h-47zM228 664q0 17 12 29t29 12t29 -12t12 -29t-12 -29t-29 -12t-29 12t-12 29zM406 664q0 17 12 29t29 12t29 -12t12 -29t-12 -29t-29 -12t-29 12t-12 29zM568 275v425h65v-432q0 -51 -13.5 -97t-43 -88.5t-85.5 -67.5t-133 -25t-133 25t-85.5 67.5 t-43 88.5t-13.5 97v432h65v-425q0 -42 10.5 -79.5t33 -71.5t65.5 -54t101 -20t101 20t65.5 54t33 71.5t10.5 79.5z" />
<glyph unicode="&#x1dc;" horiz-adv-x="560" d="M140 884h83l79 -138h-47zM148 628q0 17 12 29t29 12t29 -12t12 -29t-12 -29t-29 -12t-29 12t-12 29zM326 628q0 17 12 29t29 12t29 -12t12 -29t-12 -29t-29 -12t-29 12t-12 29zM73 500h63v-307q0 -76 27 -110.5t92 -34.5q73 0 118.5 47t45.5 131v274h63v-500h-63v80 q-23 -43 -67 -66.5t-98 -23.5q-181 0 -181 202v308z" />
<glyph unicode="&#x1de;" horiz-adv-x="656" d="M327 680l-154 -430h310l-154 430h-2zM84 0h-71l257 700h116l257 -700h-71l-68 190h-352zM119 664q0 17 12 29t29 12t29 -12t12 -29t-12 -29t-29 -12t-29 12t-12 29zM466 839v-51h-276v51h276zM455 664q0 17 12 29t29 12t29 -12t12 -29t-12 -29t-29 -12t-29 12t-12 29z " />
<glyph unicode="&#x1df;" horiz-adv-x="605" d="M464 250q0 84 -44.5 143t-133.5 59t-133.5 -59t-44.5 -143t44.5 -143t133.5 -59t133.5 59t44.5 143zM527 0h-63v83q-63 -93 -185 -93q-117 0 -175.5 76.5t-58.5 183.5t58.5 183.5t175.5 76.5q122 0 185 -93v83h63v-500zM156 628q0 17 12 29t29 12t29 -12t12 -29t-12 -29 t-29 -12t-29 12t-12 29zM424 808v-51h-276v51h276zM334 628q0 17 12 29t29 12t29 -12t12 -29t-12 -29t-29 -12t-29 12t-12 29z" />
<glyph unicode="&#x1e2;" horiz-adv-x="1010" d="M502 680l-259 -430h261v430h-2zM92 0h-79l430 700h504v-60h-378v-255h354v-60h-354v-265h390v-60h-455v190h-297zM675 839v-51h-276v51h276z" />
<glyph unicode="&#x1e3;" horiz-adv-x="970" d="M464 250q0 84 -44.5 143t-133.5 59t-133.5 -59t-44.5 -143t44.5 -143t133.5 -59t133.5 59t44.5 143zM528 285h332q-9 72 -51 119.5t-115 47.5t-115 -47.5t-51 -119.5zM527 0h-63v83q-63 -93 -185 -93q-117 0 -175.5 76.5t-58.5 183.5t58.5 183.5t175.5 76.5 q122 0 185 -93v83h63v-83q57 93 167 93q58 0 104 -22t73 -59.5t40.5 -83t13.5 -95.5v-23h-398q6 -76 48 -127.5t119 -51.5q118 0 152 94h66q-43 -152 -218 -152q-110 0 -167 93v-83zM634 639v-51h-276v51h276z" />
<glyph unicode="&#x1e6;" horiz-adv-x="744" d="M450 914h63l-107 -137h-80l-107 137h63l84 -107zM41 350q0 70 19 133t57 114.5t102.5 82t146.5 30.5q131 0 202.5 -68t91.5 -183h-65q-39 191 -229 191q-88 0 -148.5 -44.5t-86 -110t-25.5 -145.5t25.5 -145.5t85.5 -110t147 -44.5q213 0 240 237h-238v60h303v-347h-42 l-18 121q-66 -131 -243 -131q-82 0 -146.5 30.5t-102.5 82t-57 114.5t-19 133z" />
<glyph unicode="&#x1e7;" horiz-adv-x="595" d="M464 250q0 84 -44.5 143t-133.5 59t-133.5 -59t-44.5 -143t44.5 -143t133.5 -59t133.5 59t44.5 143zM464 21v62q-63 -93 -185 -93q-117 0 -175.5 76.5t-58.5 183.5t58.5 183.5t175.5 76.5q122 0 185 -93v83h63v-479q0 -60 -20.5 -105t-56 -70.5t-77 -38t-89.5 -12.5 q-72 0 -132.5 29t-88.5 88h79q40 -59 143 -59q76 0 127.5 40.5t51.5 127.5zM286 607l84 107h63l-107 -137h-80l-107 137h63z" />
<glyph unicode="&#x1e8;" horiz-adv-x="602" d="M433 914h63l-107 -137h-80l-107 137h63l84 -107zM158 700v-344l340 344h91l-346 -350l361 -350h-94l-352 342v-342h-65v700h65z" />
<glyph unicode="&#x1e9;" horiz-adv-x="509" d="M193 914h63l-107 -137h-80l-107 137h63l84 -107zM141 700v-444l258 244h84l-265 -250l280 -250h-88l-269 242v-242h-63v700h63z" />
<glyph unicode="&#x1ea;" horiz-adv-x="732" d="M626 350q0 80 -25.5 145.5t-86 110t-148.5 44.5t-148.5 -44.5t-86 -110t-25.5 -145.5t25.5 -145.5t86 -110t148.5 -44.5t148.5 44.5t86 110t25.5 145.5zM41 350q0 70 19 133t57 114.5t102.5 82t146.5 30.5t146.5 -30.5t102.5 -82t57 -114.5t19 -133q0 -68 -18 -129.5 t-53.5 -112.5t-96 -82.5t-137.5 -35.5q-71 -64 -71 -122q0 -44 41 -44q26 0 41 8v-46q-18 -11 -50 -11q-38 0 -63.5 23.5t-25.5 63.5q0 71 71 130q-73 7 -129.5 39t-90.5 82.5t-51 110.5t-17 126z" />
<glyph unicode="&#x1eb;" horiz-adv-x="572" d="M464 250q0 84 -45 143t-133 59t-133 -59t-45 -143t45 -143t133 -59t133 59t45 143zM45 250q0 50 14.5 95.5t42.5 83t75.5 59.5t108.5 22t108.5 -22t75.5 -59.5t42.5 -83t14.5 -95.5q0 -103 -56 -177.5t-165 -81.5q-71 -64 -71 -123q0 -44 41 -44q26 0 41 8v-46 q-18 -11 -50 -11q-38 0 -63.5 23.5t-25.5 63.5q0 72 72 130q-101 12 -153 86t-52 172z" />
<glyph unicode="&#x1ec;" horiz-adv-x="732" d="M626 350q0 80 -25.5 145.5t-86 110t-148.5 44.5t-148.5 -44.5t-86 -110t-25.5 -145.5t25.5 -145.5t86 -110t148.5 -44.5t148.5 44.5t86 110t25.5 145.5zM41 350q0 70 19 133t57 114.5t102.5 82t146.5 30.5t146.5 -30.5t102.5 -82t57 -114.5t19 -133q0 -68 -18 -129.5 t-53.5 -112.5t-96 -82.5t-137.5 -35.5q-71 -64 -71 -122q0 -44 41 -44q26 0 41 8v-46q-18 -11 -50 -11q-38 0 -63.5 23.5t-25.5 63.5q0 71 71 130q-73 7 -129.5 39t-90.5 82.5t-51 110.5t-17 126zM504 839v-51h-276v51h276z" />
<glyph unicode="&#x1ed;" horiz-adv-x="572" d="M464 250q0 84 -45 143t-133 59t-133 -59t-45 -143t45 -143t133 -59t133 59t45 143zM45 250q0 50 14.5 95.5t42.5 83t75.5 59.5t108.5 22t108.5 -22t75.5 -59.5t42.5 -83t14.5 -95.5q0 -103 -56 -177.5t-165 -81.5q-71 -64 -71 -123q0 -44 41 -44q26 0 41 8v-46 q-18 -11 -50 -11q-38 0 -63.5 23.5t-25.5 63.5q0 72 72 130q-101 12 -153 86t-52 172zM424 639v-51h-276v51h276z" />
<glyph unicode="&#x1f0;" horiz-adv-x="219" d="M194 714h63l-107 -137h-80l-107 137h63l84 -107zM-19 -203v56q13 -2 35 -2q62 0 62 70v579h63v-571q0 -134 -121 -134q-11 0 -39 2z" />
<glyph unicode="&#x1f1;" horiz-adv-x="1260" d="M158 60h163q85 0 143.5 43t83.5 106.5t25 140.5t-25 140.5t-83.5 106.5t-143.5 43h-163v-580zM93 700h228q81 0 143.5 -29.5t99.5 -80t55.5 -111.5t18.5 -129t-18.5 -129t-55.5 -111.5t-99.5 -80t-143.5 -29.5h-228v700zM726 700h493v-70l-434 -570h440v-60h-511v70 l434 570h-422v60z" />
<glyph unicode="&#x1f2;" horiz-adv-x="1146" d="M158 60h163q85 0 143.5 43t83.5 106.5t25 140.5t-25 140.5t-83.5 106.5t-143.5 43h-163v-580zM93 700h228q81 0 143.5 -29.5t99.5 -80t55.5 -111.5t18.5 -129t-18.5 -129t-55.5 -111.5t-99.5 -80t-143.5 -29.5h-228v700zM739 500h356v-63l-298 -379h303v-58h-375v63 l298 379h-284v58z" />
<glyph unicode="&#x1f3;" horiz-adv-x="1072" d="M464 250q0 84 -44.5 143t-133.5 59t-133.5 -59t-44.5 -143t44.5 -143t133.5 -59t133.5 59t44.5 143zM527 0h-63v83q-63 -93 -185 -93q-117 0 -175.5 76.5t-58.5 183.5t58.5 183.5t175.5 76.5q122 0 185 -93v283h63v-700zM665 500h356v-63l-298 -379h303v-58h-375v63 l298 379h-284v58z" />
<glyph unicode="&#x1f4;" horiz-adv-x="744" d="M504 915l-115 -138h-47l79 138h83zM41 350q0 70 19 133t57 114.5t102.5 82t146.5 30.5q131 0 202.5 -68t91.5 -183h-65q-39 191 -229 191q-88 0 -148.5 -44.5t-86 -110t-25.5 -145.5t25.5 -145.5t85.5 -110t147 -44.5q213 0 240 237h-238v60h303v-347h-42l-18 121 q-66 -131 -243 -131q-82 0 -146.5 30.5t-102.5 82t-57 114.5t-19 133z" />
<glyph unicode="&#x1f5;" horiz-adv-x="595" d="M464 250q0 84 -44.5 143t-133.5 59t-133.5 -59t-44.5 -143t44.5 -143t133.5 -59t133.5 59t44.5 143zM464 21v62q-63 -93 -185 -93q-117 0 -175.5 76.5t-58.5 183.5t58.5 183.5t175.5 76.5q122 0 185 -93v83h63v-479q0 -60 -20.5 -105t-56 -70.5t-77 -38t-89.5 -12.5 q-72 0 -132.5 29t-88.5 88h79q40 -59 143 -59q76 0 127.5 40.5t51.5 127.5zM341 715h83l-115 -138h-47z" />
<glyph unicode="&#x1f8;" horiz-adv-x="741" d="M232 915h83l79 -138h-47zM219 700l362 -680h2v680h65v-700h-126l-362 680h-2v-680h-65v700h126z" />
<glyph unicode="&#x1f9;" horiz-adv-x="560" d="M145 715h83l79 -138h-47zM487 0h-63v307q0 76 -27 110.5t-92 34.5q-73 0 -118.5 -47t-45.5 -131v-274h-63v500h63v-80q23 43 67 66.5t98 23.5q181 0 181 -202v-308z" />
<glyph unicode="&#x1fa;" horiz-adv-x="656" d="M327 680l-154 -430h310l-154 430h-2zM380 753q0 23 -15 38t-37 15t-37 -15t-15 -38t15 -38t37 -15t37 15t15 38zM427 753q0 -46 -33 -74l249 -679h-71l-68 190h-352l-68 -190h-71l249 679q-33 28 -33 74q0 37 22 63t57 32l35 117h88l-67 -121q29 -10 46 -34.5t17 -56.5z " />
<glyph unicode="&#x1fb;" horiz-adv-x="605" d="M464 250q0 84 -44.5 143t-133.5 59t-133.5 -59t-44.5 -143t44.5 -143t133.5 -59t133.5 59t44.5 143zM338 681q0 23 -15 38t-37 15t-37 -15t-15 -38t15 -38t37 -15t37 15t15 38zM527 0h-63v83q-63 -93 -185 -93q-117 0 -175.5 76.5t-58.5 183.5t58.5 183.5t175.5 76.5 q122 0 185 -93v83h63v-500zM187 681q0 37 22 63t57 32l35 117h88l-67 -121q29 -10 46 -34.5t17 -56.5q0 -42 -28 -69.5t-71 -27.5t-71 27.5t-28 69.5z" />
<glyph unicode="&#x1fc;" horiz-adv-x="1010" d="M502 680l-259 -430h261v430h-2zM92 0h-79l430 700h504v-60h-378v-255h354v-60h-354v-265h390v-60h-455v190h-297zM592 915h83l-115 -138h-47z" />
<glyph unicode="&#x1fd;" horiz-adv-x="970" d="M464 250q0 84 -44.5 143t-133.5 59t-133.5 -59t-44.5 -143t44.5 -143t133.5 -59t133.5 59t44.5 143zM528 285h332q-9 72 -51 119.5t-115 47.5t-115 -47.5t-51 -119.5zM527 0h-63v83q-63 -93 -185 -93q-117 0 -175.5 76.5t-58.5 183.5t58.5 183.5t175.5 76.5 q122 0 185 -93v83h63v-83q57 93 167 93q58 0 104 -22t73 -59.5t40.5 -83t13.5 -95.5v-23h-398q6 -76 48 -127.5t119 -51.5q118 0 152 94h66q-43 -152 -218 -152q-110 0 -167 93v-83zM551 715h83l-115 -138h-47z" />
<glyph unicode="&#x1fe;" horiz-adv-x="732" d="M170 140l361 453q-67 57 -165 57q-88 0 -148.5 -44.5t-86 -110t-25.5 -145.5q0 -127 64 -210zM626 350q0 127 -64 210l-361 -453q67 -57 165 -57q88 0 148.5 44.5t86 110t25.5 145.5zM650 743l36 -28l-83 -104q88 -100 88 -261q0 -70 -19 -133t-57 -114.5t-102.5 -82 t-146.5 -30.5q-124 0 -204 67l-80 -100l-36 28l83 104q-88 100 -88 261q0 70 19 133t57 114.5t102.5 82t146.5 30.5q124 0 204 -67zM421 914h83l-115 -138h-47z" />
<glyph unicode="&#x1ff;" horiz-adv-x="572" d="M149 112l240 309q-44 31 -103 31q-88 0 -133 -59t-45 -143q0 -82 41 -138zM464 250q0 82 -41 138l-240 -309q44 -31 103 -31q88 0 133 59t45 143zM484 543l38 -27l-60 -78q65 -72 65 -188q0 -50 -14.5 -95.5t-42.5 -83t-75.5 -59.5t-108.5 -22q-82 0 -141 41l-57 -74 l-38 27l60 78q-65 72 -65 188q0 50 14.5 95.5t42.5 83t75.5 59.5t108.5 22q82 0 141 -41zM341 715h83l-115 -138h-47z" />
<glyph unicode="&#x200;" horiz-adv-x="656" d="M327 680l-154 -430h310l-154 430h-2zM84 0h-71l257 700h116l257 -700h-71l-68 190h-352zM229 777l-107 138h83l71 -138h-47zM380 777l-107 138h83l71 -138h-47z" />
<glyph unicode="&#x201;" horiz-adv-x="605" d="M464 250q0 84 -44.5 143t-133.5 59t-133.5 -59t-44.5 -143t44.5 -143t133.5 -59t133.5 59t44.5 143zM527 0h-63v83q-63 -93 -185 -93q-117 0 -175.5 76.5t-58.5 183.5t58.5 183.5t175.5 76.5q122 0 185 -93v83h63v-500zM187 577l-107 138h83l71 -138h-47zM338 577 l-107 138h83l71 -138h-47z" />
<glyph unicode="&#x202;" horiz-adv-x="656" d="M327 680l-154 -430h310l-154 430h-2zM84 0h-71l257 700h116l257 -700h-71l-68 190h-352zM231 779h-53q0 60 40.5 97.5t109.5 37.5t109.5 -37.5t40.5 -97.5h-53q0 38 -26 62.5t-71 24.5t-71 -24.5t-26 -62.5z" />
<glyph unicode="&#x203;" horiz-adv-x="605" d="M464 250q0 84 -44.5 143t-133.5 59t-133.5 -59t-44.5 -143t44.5 -143t133.5 -59t133.5 59t44.5 143zM527 0h-63v83q-63 -93 -185 -93q-117 0 -175.5 76.5t-58.5 183.5t58.5 183.5t175.5 76.5q122 0 185 -93v83h63v-500zM189 579h-53q0 60 40.5 97.5t109.5 37.5 t109.5 -37.5t40.5 -97.5h-53q0 38 -26 62.5t-71 24.5t-71 -24.5t-26 -62.5z" />
<glyph unicode="&#x204;" horiz-adv-x="599" d="M265 915h83l71 -138h-47zM114 915h83l71 -138h-47zM158 325v-265h390v-60h-455v700h443v-60h-378v-255h354v-60h-354z" />
<glyph unicode="&#x205;" horiz-adv-x="552" d="M110 285h332q-8 72 -50.5 119.5t-115.5 47.5t-115.5 -47.5t-50.5 -119.5zM428 142h66q-43 -152 -218 -152q-58 0 -104 22t-73 59.5t-40.5 83t-13.5 95.5t13.5 95.5t40.5 83t73 59.5t104 22t104 -22t73 -59.5t40.5 -83t13.5 -95.5v-23h-398q6 -76 48 -127.5t119 -51.5 q118 0 152 94zM177 577l-107 138h83l71 -138h-47zM328 577l-107 138h83l71 -138h-47z" />
<glyph unicode="&#x206;" horiz-adv-x="599" d="M223 779h-53q0 60 40.5 97.5t109.5 37.5t109.5 -37.5t40.5 -97.5h-53q0 38 -26 62.5t-71 24.5t-71 -24.5t-26 -62.5zM158 325v-265h390v-60h-455v700h443v-60h-378v-255h354v-60h-354z" />
<glyph unicode="&#x207;" horiz-adv-x="552" d="M110 285h332q-8 72 -50.5 119.5t-115.5 47.5t-115.5 -47.5t-50.5 -119.5zM428 142h66q-43 -152 -218 -152q-58 0 -104 22t-73 59.5t-40.5 83t-13.5 95.5t13.5 95.5t40.5 83t73 59.5t104 22t104 -22t73 -59.5t40.5 -83t13.5 -95.5v-23h-398q6 -76 48 -127.5t119 -51.5 q118 0 152 94zM179 579h-53q0 60 40.5 97.5t109.5 37.5t109.5 -37.5t40.5 -97.5h-53q0 38 -26 62.5t-71 24.5t-71 -24.5t-26 -62.5z" />
<glyph unicode="&#x208;" horiz-adv-x="251" d="M71 915h83l71 -138h-47zM-80 915h83l71 -138h-47zM93 0v700h65v-700h-65z" />
<glyph unicode="&#x209;" horiz-adv-x="219" d="M54 715h83l71 -138h-47zM-97 715h83l71 -138h-47zM78 0v500h63v-500h-63z" />
<glyph unicode="&#x20a;" horiz-adv-x="251" d="M29 779h-53q0 60 40.5 97.5t109.5 37.5t109.5 -37.5t40.5 -97.5h-53q0 38 -26 62.5t-71 24.5t-71 -24.5t-26 -62.5zM93 0v700h65v-700h-65z" />
<glyph unicode="&#x20b;" horiz-adv-x="219" d="M141 0h-63v500h63v-500zM12 788h-53q0 60 40.5 97.5t109.5 37.5t109.5 -37.5t40.5 -97.5h-53q0 38 -26 62.5t-71 24.5t-71 -24.5t-26 -62.5zM66 666q0 19 12.5 31t30.5 12t30.5 -12t12.5 -31t-12.5 -31t-30.5 -12t-30.5 12t-12.5 31z" />
<glyph unicode="&#x20c;" horiz-adv-x="732" d="M311 915h83l71 -138h-47zM160 915h83l71 -138h-47zM41 350q0 70 19 133t57 114.5t102.5 82t146.5 30.5t146.5 -30.5t102.5 -82t57 -114.5t19 -133t-19 -133t-57 -114.5t-102.5 -82t-146.5 -30.5t-146.5 30.5t-102.5 82t-57 114.5t-19 133zM626 350q0 80 -25.5 145.5 t-86 110t-148.5 44.5t-148.5 -44.5t-86 -110t-25.5 -145.5t25.5 -145.5t86 -110t148.5 -44.5t148.5 44.5t86 110t25.5 145.5z" />
<glyph unicode="&#x20d;" horiz-adv-x="572" d="M231 715h83l71 -138h-47zM80 715h83l71 -138h-47zM45 250q0 50 14.5 95.5t42.5 83t75.5 59.5t108.5 22t108.5 -22t75.5 -59.5t42.5 -83t14.5 -95.5t-14.5 -95.5t-42.5 -83t-75.5 -59.5t-108.5 -22t-108.5 22t-75.5 59.5t-42.5 83t-14.5 95.5zM464 250q0 84 -45 143 t-133 59t-133 -59t-45 -143t45 -143t133 -59t133 59t45 143z" />
<glyph unicode="&#x20e;" horiz-adv-x="732" d="M626 350q0 80 -25.5 145.5t-86 110t-148.5 44.5t-148.5 -44.5t-86 -110t-25.5 -145.5t25.5 -145.5t86 -110t148.5 -44.5t148.5 44.5t86 110t25.5 145.5zM41 350q0 70 19 133t57 114.5t102.5 82t146.5 30.5t146.5 -30.5t102.5 -82t57 -114.5t19 -133t-19 -133t-57 -114.5 t-102.5 -82t-146.5 -30.5t-146.5 30.5t-102.5 82t-57 114.5t-19 133zM269 779h-53q0 60 40.5 97.5t109.5 37.5t109.5 -37.5t40.5 -97.5h-53q0 38 -26 62.5t-71 24.5t-71 -24.5t-26 -62.5z" />
<glyph unicode="&#x20f;" horiz-adv-x="572" d="M464 250q0 84 -45 143t-133 59t-133 -59t-45 -143t45 -143t133 -59t133 59t45 143zM45 250q0 50 14.5 95.5t42.5 83t75.5 59.5t108.5 22t108.5 -22t75.5 -59.5t42.5 -83t14.5 -95.5t-14.5 -95.5t-42.5 -83t-75.5 -59.5t-108.5 -22t-108.5 22t-75.5 59.5t-42.5 83 t-14.5 95.5zM189 579h-53q0 60 40.5 97.5t109.5 37.5t109.5 -37.5t40.5 -97.5h-53q0 38 -26 62.5t-71 24.5t-71 -24.5t-26 -62.5z" />
<glyph unicode="&#x210;" horiz-adv-x="661" d="M371 640h-213v-306h213q66 0 109 43t43 110t-43 110t-109 43zM158 274v-274h-65v700h277q95 0 156.5 -60t61.5 -153q0 -81 -48 -138t-126 -71l183 -278h-76l-181 274h-182zM243 777l-107 138h83l71 -138h-47zM394 777l-107 138h83l71 -138h-47z" />
<glyph unicode="&#x211;" horiz-adv-x="338" d="M148 715h83l71 -138h-47zM-3 715h83l71 -138h-47zM78 0v500h63v-79h2q18 39 63.5 64t99.5 25h20v-55q-2 -2 -21 -2q-66 0 -115 -52.5t-49 -129.5v-271h-63z" />
<glyph unicode="&#x212;" horiz-adv-x="661" d="M371 640h-213v-306h213q66 0 109 43t43 110t-43 110t-109 43zM158 274v-274h-65v700h277q95 0 156.5 -60t61.5 -153q0 -81 -48 -138t-126 -71l183 -278h-76l-181 274h-182zM245 779h-53q0 60 40.5 97.5t109.5 37.5t109.5 -37.5t40.5 -97.5h-53q0 38 -26 62.5t-71 24.5 t-71 -24.5t-26 -62.5z" />
<glyph unicode="&#x213;" horiz-adv-x="338" d="M106 579h-53q0 60 40.5 97.5t109.5 37.5t109.5 -37.5t40.5 -97.5h-53q0 38 -26 62.5t-71 24.5t-71 -24.5t-26 -62.5zM78 0v500h63v-79h2q18 39 63.5 64t99.5 25h20v-55q-2 -2 -21 -2q-66 0 -115 -52.5t-49 -129.5v-271h-63z" />
<glyph unicode="&#x214;" horiz-adv-x="716" d="M303 915h83l71 -138h-47zM152 915h83l71 -138h-47zM568 275v425h65v-432q0 -51 -13.5 -97t-43 -88.5t-85.5 -67.5t-133 -25t-133 25t-85.5 67.5t-43 88.5t-13.5 97v432h65v-425q0 -42 10.5 -79.5t33 -71.5t65.5 -54t101 -20t101 20t65.5 54t33 71.5t10.5 79.5z" />
<glyph unicode="&#x215;" horiz-adv-x="560" d="M223 715h83l71 -138h-47zM72 715h83l71 -138h-47zM73 500h63v-307q0 -76 27 -110.5t92 -34.5q73 0 118.5 47t45.5 131v274h63v-500h-63v80q-23 -43 -67 -66.5t-98 -23.5q-181 0 -181 202v308z" />
<glyph unicode="&#x216;" horiz-adv-x="716" d="M261 779h-53q0 60 40.5 97.5t109.5 37.5t109.5 -37.5t40.5 -97.5h-53q0 38 -26 62.5t-71 24.5t-71 -24.5t-26 -62.5zM568 275v425h65v-432q0 -51 -13.5 -97t-43 -88.5t-85.5 -67.5t-133 -25t-133 25t-85.5 67.5t-43 88.5t-13.5 97v432h65v-425q0 -42 10.5 -79.5t33 -71.5 t65.5 -54t101 -20t101 20t65.5 54t33 71.5t10.5 79.5z" />
<glyph unicode="&#x217;" horiz-adv-x="560" d="M181 579h-53q0 60 40.5 97.5t109.5 37.5t109.5 -37.5t40.5 -97.5h-53q0 38 -26 62.5t-71 24.5t-71 -24.5t-26 -62.5zM73 500h63v-307q0 -76 27 -110.5t92 -34.5q73 0 118.5 47t45.5 131v274h63v-500h-63v80q-23 -43 -67 -66.5t-98 -23.5q-181 0 -181 202v308z" />
<glyph unicode="&#x218;" horiz-adv-x="614" d="M46 195h65q7 -70 63 -107.5t133 -37.5q80 0 138 36t58 105q0 37 -19 62.5t-49.5 36.5t-70 20t-81 14t-81 17.5t-70 30t-49.5 52.5t-19 85q0 99 70 150t170 51q98 0 165.5 -52t74.5 -154h-65q-7 72 -55 109t-120 37q-74 0 -124.5 -36.5t-50.5 -105.5q0 -41 24 -66.5 t63 -36.5t85.5 -18t93.5 -17.5t86 -28t63 -55.5t24 -96q0 -98 -76.5 -149t-184.5 -51q-105 0 -179.5 52.5t-81.5 152.5zM251 -219l26 141h59l-39 -141h-46z" />
<glyph unicode="&#x219;" horiz-adv-x="466" d="M42 141h63q5 -45 40 -69t86 -24q54 0 92 22.5t38 66.5q0 32 -22.5 51t-57 25.5t-74 15.5t-74 19.5t-57 39.5t-22.5 75q0 73 51 110t124 37t123 -38.5t55 -112.5h-63q-4 46 -35.5 69.5t-78.5 23.5q-48 0 -80.5 -21t-32.5 -65q0 -32 22.5 -50.5t57 -24.5t74 -15t74 -19.5 t57 -40.5t22.5 -76q0 -73 -56.5 -111.5t-137.5 -38.5q-76 0 -129.5 39t-58.5 112zM174 -219l26 141h59l-39 -141h-46z" />
<glyph unicode="&#x21a;" horiz-adv-x="565" d="M315 640v-640h-65v640h-229v60h523v-60h-229zM227 -219l26 141h59l-39 -141h-46z" />
<glyph unicode="&#x21b;" horiz-adv-x="367" d="M314 4q-39 -14 -81 -14q-121 0 -121 134v324h-93v52h93v140h63v-140h139v-52h-139v-332q0 -70 62 -70q41 0 77 16v-58zM121 -219l26 141h59l-39 -141h-46z" />
<glyph unicode="&#x21e;" horiz-adv-x="706" d="M437 914h63l-107 -137h-80l-107 137h63l84 -107zM93 0v700h65v-314h390v314h65v-700h-65v326h-390v-326h-65z" />
<glyph unicode="&#x21f;" horiz-adv-x="560" d="M364 914h63l-107 -137h-80l-107 137h63l84 -107zM487 0h-63v307q0 76 -27 110.5t-92 34.5q-73 0 -118.5 -47t-45.5 -131v-274h-63v700h63v-280q23 43 67 66.5t98 23.5q181 0 181 -202v-308z" />
<glyph unicode="&#x226;" horiz-adv-x="656" d="M327 680l-154 -430h310l-154 430h-2zM84 0h-71l257 700h116l257 -700h-71l-68 190h-352zM287 829q0 17 12 29t29 12t29 -12t12 -29t-12 -29t-29 -12t-29 12t-12 29z" />
<glyph unicode="&#x227;" horiz-adv-x="605" d="M464 250q0 84 -44.5 143t-133.5 59t-133.5 -59t-44.5 -143t44.5 -143t133.5 -59t133.5 59t44.5 143zM527 0h-63v83q-63 -93 -185 -93q-117 0 -175.5 76.5t-58.5 183.5t58.5 183.5t175.5 76.5q122 0 185 -93v83h63v-500zM245 629q0 17 12 29t29 12t29 -12t12 -29t-12 -29 t-29 -12t-29 12t-12 29z" />
<glyph unicode="&#x228;" horiz-adv-x="599" d="M158 325v-265h390v-60h-206l-15 -38h20q47 0 74.5 -23t27.5 -63q0 -45 -34.5 -73t-91.5 -28q-32 0 -77 15v48q42 -17 75 -17q35 0 55.5 15.5t20.5 41.5q0 44 -57 44h-49l-13 22l22 56h-207v700h443v-60h-378v-255h354v-60h-354z" />
<glyph unicode="&#x229;" horiz-adv-x="552" d="M110 285h332q-8 72 -50.5 119.5t-115.5 47.5t-115.5 -47.5t-50.5 -119.5zM428 142h66q-41 -143 -200 -152l-11 -28h20q47 0 74.5 -23t27.5 -63q0 -45 -34.5 -73t-91.5 -28q-32 0 -77 15v48q42 -17 75 -17q35 0 55.5 15.5t20.5 41.5q0 44 -57 44h-49l-13 22l18 47 q-102 8 -154.5 82.5t-52.5 176.5q0 50 13.5 95.5t40.5 83t73 59.5t104 22t104 -22t73 -59.5t40.5 -83t13.5 -95.5v-23h-398q6 -76 48 -127.5t119 -51.5q118 0 152 94z" />
<glyph unicode="&#x22e;" horiz-adv-x="732" d="M325 829q0 17 12 29t29 12t29 -12t12 -29t-12 -29t-29 -12t-29 12t-12 29zM41 350q0 70 19 133t57 114.5t102.5 82t146.5 30.5t146.5 -30.5t102.5 -82t57 -114.5t19 -133t-19 -133t-57 -114.5t-102.5 -82t-146.5 -30.5t-146.5 30.5t-102.5 82t-57 114.5t-19 133zM626 350 q0 80 -25.5 145.5t-86 110t-148.5 44.5t-148.5 -44.5t-86 -110t-25.5 -145.5t25.5 -145.5t86 -110t148.5 -44.5t148.5 44.5t86 110t25.5 145.5z" />
<glyph unicode="&#x22f;" horiz-adv-x="572" d="M245 629q0 17 12 29t29 12t29 -12t12 -29t-12 -29t-29 -12t-29 12t-12 29zM45 250q0 50 14.5 95.5t42.5 83t75.5 59.5t108.5 22t108.5 -22t75.5 -59.5t42.5 -83t14.5 -95.5t-14.5 -95.5t-42.5 -83t-75.5 -59.5t-108.5 -22t-108.5 22t-75.5 59.5t-42.5 83t-14.5 95.5z M464 250q0 84 -45 143t-133 59t-133 -59t-45 -143t45 -143t133 -59t133 59t45 143z" />
<glyph unicode="&#x232;" horiz-adv-x="601" d="M439 788h-276v51h276v-51zM243 285l-225 415h73l209 -395h1l209 395h73l-225 -415h-25v-285h-65v285h-25z" />
<glyph unicode="&#x233;" horiz-adv-x="510" d="M393 588h-276v51h276v-51zM493 500l-245 -695h-66l69 195h-55l-179 500h66l171 -485h2l171 485h66z" />
<glyph unicode="&#x237;" horiz-adv-x="219" d="M-19 -203v56q13 -2 35 -2q62 0 62 70v579h63v-571q0 -134 -121 -134q-11 0 -39 2z" />
<glyph unicode="&#x244;" horiz-adv-x="756" d="M588 275v48h-420v-48q0 -42 10.5 -79.5t33 -71.5t65.5 -54t101 -20t101 20t65.5 54t33 71.5t10.5 79.5zM103 268v55h-78v54h78v323h65v-323h420v323h65v-323h78v-54h-78v-55q0 -51 -13.5 -97t-43 -88.5t-85.5 -67.5t-133 -25t-133 25t-85.5 67.5t-43 88.5t-13.5 97z" />
<glyph unicode="&#x254;" horiz-adv-x="548" d="M262 -10q-97 0 -149.5 50.5t-67.5 131.5h64q27 -124 153 -124q88 0 133 59t45 143t-45 143t-133 59q-126 0 -153 -124h-64q15 81 67.5 131.5t149.5 50.5q61 0 108.5 -22t75.5 -59.5t42.5 -83t14.5 -95.5t-14.5 -95.5t-42.5 -83t-75.5 -59.5t-108.5 -22z" />
<glyph unicode="&#x256;" horiz-adv-x="605" d="M464 250q0 84 -44.5 143t-133.5 59t-133.5 -59t-44.5 -143t44.5 -143t133.5 -59t133.5 59t44.5 143zM464 -71v154q-63 -93 -185 -93q-117 0 -175.5 76.5t-58.5 183.5t58.5 183.5t175.5 76.5q122 0 185 -93v283h63v-779q0 -70 62 -70q15 0 35 3v-56q-23 -3 -39 -3 q-121 0 -121 134z" />
<glyph unicode="&#x258;" horiz-adv-x="552" d="M110 285h332q-8 72 -50.5 119.5t-115.5 47.5t-115.5 -47.5t-50.5 -119.5zM58 142h66q34 -94 152 -94q77 0 119 51.5t48 127.5h-398v23q0 50 13.5 95.5t40.5 83t73 59.5t104 22t104 -22t73 -59.5t40.5 -83t13.5 -95.5t-13.5 -95.5t-40.5 -83t-73 -59.5t-104 -22 q-175 0 -218 152z" />
<glyph unicode="&#x259;" horiz-adv-x="552" d="M442 215h-332q8 -72 50.5 -119.5t115.5 -47.5t115.5 47.5t50.5 119.5zM124 358h-66q43 152 218 152q58 0 104 -22t73 -59.5t40.5 -83t13.5 -95.5t-13.5 -95.5t-40.5 -83t-73 -59.5t-104 -22t-104 22t-73 59.5t-40.5 83t-13.5 95.5v23h398q-6 76 -48 127.5t-119 51.5 q-118 0 -152 -94z" />
<glyph unicode="&#x25b;" horiz-adv-x="466" d="M235 224q-54 0 -92 -22t-38 -65q0 -44 38 -66.5t92 -22.5q51 0 86 24.5t40 68.5h63q-5 -73 -59 -112t-132 -39t-134.5 39t-56.5 110q0 81 77 116q-60 37 -60 110q0 70 51 107.5t124 37.5t123 -38.5t55 -112.5h-63q-4 45 -35.5 69t-78.5 24q-48 0 -80.5 -21t-32.5 -65 q0 -43 32 -63.5t81 -20.5h46v-58h-46z" />
<glyph unicode="&#x268;" horiz-adv-x="219" d="M66 666q0 19 12.5 31t30.5 12t30.5 -12t12.5 -31t-12.5 -31t-30.5 -12t-30.5 12t-12.5 31zM78 0v325h-49v50h49v125h63v-125h49v-50h-49v-325h-63z" />
<glyph unicode="&#x272;" horiz-adv-x="560" d="M141 274v-345q0 -134 -121 -134q-16 0 -39 3v56q19 -3 35 -3q62 0 62 70v579h63v-80q23 43 67 66.5t98 23.5q181 0 181 -202v-308h-63v307q0 76 -27 110.5t-92 34.5q-73 0 -118.5 -47t-45.5 -131z" />
<glyph unicode="&#x289;" horiz-adv-x="600" d="M439 226v99h-283v-132q0 -76 27 -110.5t92 -34.5q73 0 118.5 47t45.5 131zM93 375v125h63v-125h283v125h63v-125h49v-50h-49v-325h-63v80q-23 -43 -67 -66.5t-98 -23.5q-181 0 -181 202v133h-49v50h49z" />
<glyph unicode="&#x2bb;" horiz-adv-x="189" d="M148 700l-35 -200h-72l53 200h54z" />
<glyph unicode="&#x2bc;" horiz-adv-x="189" d="M41 500l35 200h72l-53 -200h-54z" />
<glyph unicode="&#x2c6;" horiz-adv-x="344" d="M212 714l107 -137h-63l-84 107l-84 -107h-63l107 137h80z" />
<glyph unicode="&#x2c7;" horiz-adv-x="344" d="M256 714h63l-107 -137h-80l-107 137h63l84 -107z" />
<glyph unicode="&#x2c9;" horiz-adv-x="326" d="M301 588h-276v51h276v-51z" />
<glyph unicode="&#x2d8;" horiz-adv-x="350" d="M25 714h53q0 -38 26 -62.5t71 -24.5t71 24.5t26 62.5h53q0 -60 -40.5 -97.5t-109.5 -37.5t-109.5 37.5t-40.5 97.5z" />
<glyph unicode="&#x2d9;" horiz-adv-x="132" d="M25 629q0 17 12 29t29 12t29 -12t12 -29t-12 -29t-29 -12t-29 12t-12 29z" />
<glyph unicode="&#x2da;" horiz-adv-x="248" d="M25 659q0 42 28 69.5t71 27.5t71 -27.5t28 -69.5t-28 -69.5t-71 -27.5t-71 27.5t-28 69.5zM176 659q0 23 -15 38t-37 15t-37 -15t-15 -38t15 -38t37 -15t37 15t15 38z" />
<glyph unicode="&#x2db;" horiz-adv-x="189" d="M133 18l31 -18q-30 -24 -56 -60.5t-26 -71.5q0 -44 41 -44q26 0 41 8v-46q-18 -11 -50 -11q-38 0 -63.5 23.5t-25.5 63.5q0 88 108 156z" />
<glyph unicode="&#x2dc;" horiz-adv-x="338" d="M70 579h-45q2 36 24 62t61 26q18 0 60 -10t62 -10q31 0 36 34h45q-2 -36 -24 -62t-61 -26q-18 0 -60 10t-62 10q-31 0 -36 -34z" />
<glyph unicode="&#x2dd;" horiz-adv-x="355" d="M179 715l-107 -138h-47l71 138h83zM330 715l-107 -138h-47l71 138h83z" />
<glyph unicode="&#x300;" horiz-adv-x="0" d="M-491 915h83l79 -138h-47z" />
<glyph unicode="&#x301;" horiz-adv-x="0" d="M-215 915l-115 -138h-47l79 138h83z" />
<glyph unicode="&#x302;" horiz-adv-x="0" d="M-313 914l107 -137h-63l-84 107l-84 -107h-63l107 137h80z" />
<glyph unicode="&#x303;" horiz-adv-x="0" d="M-452 779h-45q2 36 24 62t61 26q17 0 59.5 -10t62.5 -10q31 0 36 34h45q-2 -36 -24 -62t-61 -26q-18 0 -60 10t-62 10q-31 0 -36 -34z" />
<glyph unicode="&#x304;" horiz-adv-x="0" d="M-215 788h-276v51h276v-51z" />
<glyph unicode="&#x306;" horiz-adv-x="0" d="M-503 914h53q0 -38 26 -62.5t71 -24.5t71 24.5t26 62.5h53q0 -60 -40.5 -97.5t-109.5 -37.5t-109.5 37.5t-40.5 97.5z" />
<glyph unicode="&#x307;" horiz-adv-x="0" d="M-394 829q0 17 12 29t29 12t29 -12t12 -29t-12 -29t-29 -12t-29 12t-12 29z" />
<glyph unicode="&#x308;" horiz-adv-x="0" d="M-483 828q0 17 12 29t29 12t29 -12t12 -29t-12 -29t-29 -12t-29 12t-12 29zM-305 828q0 17 12 29t29 12t29 -12t12 -29t-12 -29t-29 -12t-29 12t-12 29z" />
<glyph unicode="&#x309;" horiz-adv-x="0" d="M-345 825q0 28 -20 44t-54 16q-15 0 -27 -3v49q20 2 29 2q56 0 90 -28t34 -73t-34 -69h-52q34 23 34 62z" />
<glyph unicode="&#x30a;" horiz-adv-x="0" d="M-452 859q0 42 28 69.5t71 27.5t71 -27.5t28 -69.5t-28 -69.5t-71 -27.5t-71 27.5t-28 69.5zM-301 859q0 23 -15 38t-37 15t-37 -15t-15 -38t15 -38t37 -15t37 15t15 38z" />
<glyph unicode="&#x30b;" horiz-adv-x="0" d="M-298 915l-107 -138h-47l71 138h83zM-147 915l-107 -138h-47l71 138h83z" />
<glyph unicode="&#x30c;" horiz-adv-x="0" d="M-269 914h63l-107 -137h-80l-107 137h63l84 -107z" />
<glyph unicode="&#x30f;" horiz-adv-x="0" d="M-408 915h83l71 -138h-47zM-559 915h83l71 -138h-47z" />
<glyph unicode="&#x311;" horiz-adv-x="0" d="M-450 779h-53q0 60 40.5 97.5t109.5 37.5t109.5 -37.5t40.5 -97.5h-53q0 38 -26 62.5t-71 24.5t-71 -24.5t-26 -62.5z" />
<glyph unicode="&#x312;" horiz-adv-x="0" d="M-298 916l-26 -141h-59l39 141h46z" />
<glyph unicode="&#x323;" horiz-adv-x="0" d="M-312 -129q0 -17 -12 -29t-29 -12t-29 12t-12 29t12 29t29 12t29 -12t12 -29z" />
<glyph unicode="&#x324;" horiz-adv-x="0" d="M-223 -128q0 -17 -12 -29t-29 -12t-29 12t-12 29t12 29t29 12t29 -12t12 -29zM-401 -128q0 -17 -12 -29t-29 -12t-29 12t-12 29t12 29t29 12t29 -12t12 -29z" />
<glyph unicode="&#x326;" horiz-adv-x="0" d="M-409 -219l26 141h59l-39 -141h-46z" />
<glyph unicode="&#x327;" horiz-adv-x="0" d="M-409 -78l-13 22l26 66h42l-19 -48h20q47 0 74.5 -23t27.5 -63q0 -45 -34.5 -73t-91.5 -28q-32 0 -77 15v48q42 -17 75 -17q35 0 55.5 15.5t20.5 41.5q0 44 -57 44h-49z" />
<glyph unicode="&#x328;" horiz-adv-x="0" d="M-314 18l31 -18q-30 -24 -56 -60.5t-26 -71.5q0 -44 41 -44q26 0 41 8v-46q-18 -11 -50 -11q-38 0 -63.5 23.5t-25.5 63.5q0 88 108 156z" />
<glyph unicode="&#x32d;" horiz-adv-x="0" d="M-313 -77l107 -137h-63l-84 107l-84 -107h-63l107 137h80z" />
<glyph unicode="&#x32e;" horiz-adv-x="0" d="M-256 -79h53q0 -60 -40.5 -97.5t-109.5 -37.5t-109.5 37.5t-40.5 97.5h53q0 -38 26 -62.5t71 -24.5t71 24.5t26 62.5z" />
<glyph unicode="&#x330;" horiz-adv-x="0" d="M-452 -181h-45q2 36 24 62t61 26q17 0 59.5 -10t62.5 -10q31 0 36 34h45q-2 -36 -24 -62t-61 -26q-18 0 -60 10t-62 10q-31 0 -36 -34z" />
<glyph unicode="&#x331;" horiz-adv-x="0" d="M-215 -150h-276v51h276v-51z" />
<glyph unicode="&#x344;" horiz-adv-x="0" d="M-276 915l-85 -138h-47l49 138h83zM-510 828q0 17 12 29t29 12t29 -12t12 -29t-12 -29t-29 -12t-29 12t-12 29zM-278 828q0 17 12 29t29 12t29 -12t12 -29t-12 -29t-29 -12t-29 12t-12 29z" />
<glyph unicode="&#x37e;" horiz-adv-x="247" d="M80 460q0 19 13 32t32 13t32 -13t13 -32t-13 -32t-32 -13t-32 13t-13 32zM70 -129l35 200h72l-53 -200h-54z" />
<glyph unicode="&#x384;" horiz-adv-x="172" d="M147 715l-85 -138h-37l49 138h73z" />
<glyph unicode="&#x385;" horiz-adv-x="364" d="M259 715l-85 -138h-47l49 138h83zM25 628q0 17 12 29t29 12t29 -12t12 -29t-12 -29t-29 -12t-29 12t-12 29zM257 628q0 17 12 29t29 12t29 -12t12 -29t-12 -29t-29 -12t-29 12t-12 29z" />
<glyph unicode="&#x386;" horiz-adv-x="656" d="M327 680l-154 -430h310l-154 430h-2zM84 0h-71l257 700h116l257 -700h-71l-68 190h-352zM142 700h73l-85 -138h-37z" />
<glyph unicode="&#x387;" horiz-adv-x="192" d="M51 284q0 19 13 32t32 13t32 -13t13 -32t-13 -32t-32 -13t-32 13t-13 32z" />
<glyph unicode="&#x388;" horiz-adv-x="649" d="M208 325v-265h390v-60h-455v700h443v-60h-378v-255h354v-60h-354zM108 700l-85 -138h-37l49 138h73z" />
<glyph unicode="&#x389;" horiz-adv-x="756" d="M143 0v700h65v-314h390v314h65v-700h-65v326h-390v-326h-65zM108 700l-85 -138h-37l49 138h73z" />
<glyph unicode="&#x38a;" horiz-adv-x="301" d="M143 0v700h65v-700h-65zM108 700l-85 -138h-37l49 138h73z" />
<glyph unicode="&#x38c;" horiz-adv-x="762" d="M71 350q0 70 19 133t57 114.5t102.5 82t146.5 30.5t146.5 -30.5t102.5 -82t57 -114.5t19 -133t-19 -133t-57 -114.5t-102.5 -82t-146.5 -30.5t-146.5 30.5t-102.5 82t-57 114.5t-19 133zM146 700l-85 -138h-37l49 138h73zM656 350q0 80 -25.5 145.5t-86 110t-148.5 44.5 t-148.5 -44.5t-86 -110t-25.5 -145.5t25.5 -145.5t86 -110t148.5 -44.5t148.5 44.5t86 110t25.5 145.5z" />
<glyph unicode="&#x38e;" horiz-adv-x="701" d="M343 285l-225 415h73l209 -395h1l209 395h73l-225 -415h-25v-285h-65v285h-25zM108 700l-85 -138h-37l49 138h73z" />
<glyph unicode="&#x38f;" horiz-adv-x="762" d="M71 350q0 55 11.5 106t37.5 97.5t63 81t92 55t121 20.5t121 -20.5t92 -55t63 -81t37.5 -97.5t11.5 -106q0 -97 -36.5 -173t-110.5 -117h147v-60h-248v60q91 24 137 105t46 185q0 80 -25.5 145.5t-86 110t-148.5 44.5t-148.5 -44.5t-86 -110t-25.5 -145.5q0 -104 46 -185 t137 -105v-60h-248v60h147q-74 41 -110.5 117t-36.5 173zM146 700l-85 -138h-37l49 138h73z" />
<glyph unicode="&#x390;" horiz-adv-x="262" d="M187 715l-85 -138h-47l49 138h83zM-47 628q0 17 12 29t29 12t29 -12t12 -29t-12 -29t-29 -12t-29 12t-12 29zM185 628q0 17 12 29t29 12t29 -12t12 -29t-12 -29t-29 -12t-29 12t-12 29zM141 500v-380q0 -72 64 -72q22 0 35 2v-58q-16 -2 -43 -2q-56 0 -87.5 35t-31.5 95 v380h63z" />
<glyph unicode="&#x391;" horiz-adv-x="656" d="M327 680l-154 -430h310l-154 430h-2zM84 0h-71l257 700h116l257 -700h-71l-68 190h-352z" />
<glyph unicode="&#x392;" horiz-adv-x="676" d="M385 334h-227v-274h227q74 0 123.5 32t49.5 105t-49.5 105t-123.5 32zM368 640h-210v-246h210q66 0 110.5 29t44.5 94t-44.5 94t-110.5 29zM387 0h-294v700h277q44 0 81 -9t69 -28.5t50 -55.5t18 -86q0 -104 -93 -151q128 -48 128 -178q0 -102 -67 -147t-169 -45z" />
<glyph unicode="&#x393;" horiz-adv-x="541" d="M158 0h-65v700h440v-60h-375v-640z" />
<glyph unicode="&#x394;" horiz-adv-x="656" d="M13 0l257 700h116l257 -700h-630zM105 60h446l-222 620h-2z" />
<glyph unicode="&#x395;" horiz-adv-x="599" d="M158 325v-265h390v-60h-455v700h443v-60h-378v-255h354v-60h-354z" />
<glyph unicode="&#x396;" horiz-adv-x="581" d="M540 700v-70l-434 -570h440v-60h-511v70l434 570h-422v60h493z" />
<glyph unicode="&#x397;" horiz-adv-x="706" d="M93 0v700h65v-314h390v314h65v-700h-65v326h-390v-326h-65z" />
<glyph unicode="&#x398;" horiz-adv-x="732" d="M41 350q0 70 19 133t57 114.5t102.5 82t146.5 30.5t146.5 -30.5t102.5 -82t57 -114.5t19 -133t-19 -133t-57 -114.5t-102.5 -82t-146.5 -30.5t-146.5 30.5t-102.5 82t-57 114.5t-19 133zM626 350q0 80 -25.5 145.5t-86 110t-148.5 44.5t-148.5 -44.5t-86 -110 t-25.5 -145.5t25.5 -145.5t86 -110t148.5 -44.5t148.5 44.5t86 110t25.5 145.5zM226 320v60h282v-60h-282z" />
<glyph unicode="&#x399;" horiz-adv-x="251" d="M93 0v700h65v-700h-65z" />
<glyph unicode="&#x39a;" horiz-adv-x="602" d="M158 700v-344l340 344h91l-346 -350l361 -350h-94l-352 342v-342h-65v700h65z" />
<glyph unicode="&#x39b;" horiz-adv-x="586" d="M13 0l222 700h116l222 -700h-71l-208 680h-2l-208 -680h-71z" />
<glyph unicode="&#x39c;" horiz-adv-x="886" d="M218 700l224 -680h2l224 680h125v-700h-65v680h-2l-224 -680h-118l-224 680h-2v-680h-65v700h125z" />
<glyph unicode="&#x39d;" horiz-adv-x="741" d="M219 700l362 -680h2v680h65v-700h-126l-362 680h-2v-680h-65v700h126z" />
<glyph unicode="&#x39e;" horiz-adv-x="557" d="M51 640v60h455v-60h-455zM101 325v60h355v-60h-355zM51 0v60h455v-60h-455z" />
<glyph unicode="&#x39f;" horiz-adv-x="732" d="M41 350q0 70 19 133t57 114.5t102.5 82t146.5 30.5t146.5 -30.5t102.5 -82t57 -114.5t19 -133t-19 -133t-57 -114.5t-102.5 -82t-146.5 -30.5t-146.5 30.5t-102.5 82t-57 114.5t-19 133zM626 350q0 80 -25.5 145.5t-86 110t-148.5 44.5t-148.5 -44.5t-86 -110 t-25.5 -145.5t25.5 -145.5t86 -110t148.5 -44.5t148.5 44.5t86 110t25.5 145.5z" />
<glyph unicode="&#x3a0;" horiz-adv-x="706" d="M93 0v700h520v-700h-65v640h-390v-640h-65z" />
<glyph unicode="&#x3a1;" horiz-adv-x="625" d="M361 640h-203v-324h203q71 0 116.5 46t45.5 116t-45.5 116t-116.5 46zM360 256h-202v-256h-65v700h267q99 0 163.5 -63t64.5 -159t-64.5 -159t-163.5 -63z" />
<glyph unicode="&#x3a3;" horiz-adv-x="571" d="M58 0v56l216 304l-216 284v56h460v-60h-378l213 -280l-213 -300h378v-60h-460z" />
<glyph unicode="&#x3a4;" horiz-adv-x="565" d="M315 640v-640h-65v640h-229v60h523v-60h-229z" />
<glyph unicode="&#x3a5;" horiz-adv-x="601" d="M243 285l-225 415h73l209 -395h1l209 395h73l-225 -415h-25v-285h-65v285h-25z" />
<glyph unicode="&#x3a6;" horiz-adv-x="803" d="M96 350q0 -93 71.5 -161t201.5 -68v458q-130 0 -201.5 -68t-71.5 -161zM707 350q0 93 -71.5 161t-201.5 68v-458q130 0 201.5 68t71.5 161zM772 350q0 -56 -21.5 -106.5t-62 -92t-106.5 -66t-148 -24.5v-81h-65v81q-82 0 -148 24.5t-106.5 66t-62 92t-21.5 106.5 t21.5 106.5t62 92t106.5 66t148 24.5v81h65v-81q82 0 148 -24.5t106.5 -66t62 -92t21.5 -106.5z" />
<glyph unicode="&#x3a7;" horiz-adv-x="588" d="M551 700l-189 -334l210 -366h-76l-201 357h-2l-201 -357h-76l210 366l-189 334h74l182 -323h2l182 323h74z" />
<glyph unicode="&#x3a8;" horiz-adv-x="771" d="M353 0v195q-126 2 -205.5 76t-79.5 198v231h65v-231q0 -98 61 -155t159 -59v445h65v-445q98 2 159 59t61 155v231h65v-231q0 -124 -79.5 -198t-205.5 -76v-195h-65z" />
<glyph unicode="&#x3a9;" horiz-adv-x="732" d="M41 350q0 55 11.5 106t37.5 97.5t63 81t92 55t121 20.5t121 -20.5t92 -55t63 -81t37.5 -97.5t11.5 -106q0 -97 -36.5 -173t-110.5 -117h147v-60h-248v60q91 24 137 105t46 185q0 80 -25.5 145.5t-86 110t-148.5 44.5t-148.5 -44.5t-86 -110t-25.5 -145.5q0 -104 46 -185 t137 -105v-60h-248v60h147q-74 41 -110.5 117t-36.5 173z" />
<glyph unicode="&#x3aa;" horiz-adv-x="251" d="M-4 828q0 17 12 29t29 12t29 -12t12 -29t-12 -29t-29 -12t-29 12t-12 29zM174 828q0 17 12 29t29 12t29 -12t12 -29t-12 -29t-29 -12t-29 12t-12 29zM93 0v700h65v-700h-65z" />
<glyph unicode="&#x3ab;" horiz-adv-x="601" d="M171 828q0 17 12 29t29 12t29 -12t12 -29t-12 -29t-29 -12t-29 12t-12 29zM349 828q0 17 12 29t29 12t29 -12t12 -29t-12 -29t-29 -12t-29 12t-12 29zM243 285l-225 415h73l209 -395h1l209 395h73l-225 -415h-25v-285h-65v285h-25z" />
<glyph unicode="&#x3ac;" horiz-adv-x="648" d="M464 250q0 84 -44.5 143t-133.5 59t-133.5 -59t-44.5 -143t44.5 -143t133.5 -59t133.5 59t44.5 143zM464 500h63v-380q0 -72 64 -72q22 0 35 2v-58q-16 -2 -43 -2q-48 0 -78 26t-38 72q-63 -98 -188 -98q-117 0 -175.5 76.5t-58.5 183.5t58.5 183.5t175.5 76.5 q122 0 185 -93v83zM316 715h73l-85 -138h-37z" />
<glyph unicode="&#x3ad;" horiz-adv-x="466" d="M337 715l-85 -138h-37l49 138h73zM235 224q-54 0 -92 -22t-38 -65q0 -44 38 -66.5t92 -22.5q51 0 86 24t40 69h63q-5 -73 -59 -112t-132 -39t-134.5 39t-56.5 110q0 81 77 116q-60 37 -60 110q0 70 51 107.5t124 37.5t123 -38.5t55 -112.5h-63q-4 46 -35 69.5t-79 23.5 t-80.5 -21t-32.5 -65q0 -43 32 -63.5t81 -20.5h46v-58h-46z" />
<glyph unicode="&#x3ae;" horiz-adv-x="560" d="M386 715l-85 -138h-37l49 138h73zM487 -195h-63v502q0 76 -27 110.5t-92 34.5q-73 0 -118.5 -47t-45.5 -131v-274h-63v500h63v-80q23 43 67 66.5t98 23.5q181 0 181 -202v-503z" />
<glyph unicode="&#x3af;" horiz-adv-x="262" d="M213 715l-85 -138h-37l49 138h73zM141 500v-380q0 -72 64 -72q22 0 35 2v-58q-16 -2 -43 -2q-56 0 -87.5 35t-31.5 95v380h63z" />
<glyph unicode="&#x3b0;" horiz-adv-x="554" d="M354 715l-85 -138h-47l49 138h83zM120 628q0 17 12 29t29 12t29 -12t12 -29t-12 -29t-29 -12t-29 12t-12 29zM352 628q0 17 12 29t29 12t29 -12t12 -29t-12 -29t-29 -12t-29 12t-12 29zM277 48q66 0 103.5 40t37.5 105v307h63v-308q0 -90 -54 -146t-150 -56t-150 56 t-54 146v308h63v-307q0 -65 37.5 -105t103.5 -40z" />
<glyph unicode="&#x3b1;" horiz-adv-x="648" d="M464 250q0 84 -44.5 143t-133.5 59t-133.5 -59t-44.5 -143t44.5 -143t133.5 -59t133.5 59t44.5 143zM464 500h63v-380q0 -72 64 -72q22 0 35 2v-58q-16 -2 -43 -2q-48 0 -78 26t-38 72q-63 -98 -188 -98q-117 0 -175.5 76.5t-58.5 183.5t58.5 183.5t175.5 76.5 q122 0 185 -93v83z" />
<glyph unicode="&#x3b2;" horiz-adv-x="575" d="M289 340v58q61 0 102.5 35.5t41.5 95.5q0 56 -40.5 89.5t-99.5 33.5q-75 0 -113.5 -52t-38.5 -134v-408h148q80 0 129 40t49 101t-49 101t-129 40zM141 0v-195h-63v661q0 110 53.5 177t161.5 67q88 0 146.5 -48.5t58.5 -130.5q0 -105 -97 -158q129 -51 129 -177 q0 -87 -65.5 -141.5t-175.5 -54.5h-148z" />
<glyph unicode="&#x3b3;" horiz-adv-x="496" d="M485 500l-179 -500h-26v-195h-63v195h-27l-179 500h66l170 -485h2l170 485h66z" />
<glyph unicode="&#x3b4;" horiz-adv-x="572" d="M464 235q0 78 -44.5 132.5t-133.5 54.5t-133.5 -54.5t-44.5 -132.5t44.5 -132.5t133.5 -54.5t133.5 54.5t44.5 132.5zM93 642v58h394v-58h-276q144 -81 230 -187t86 -220q0 -65 -24 -118.5t-80 -90t-137 -36.5t-137 36.5t-80 90t-24 118.5q0 102 62 173.5t185 71.5 q30 0 55 -6q-101 101 -254 168z" />
<glyph unicode="&#x3b5;" horiz-adv-x="466" d="M235 224q-54 0 -92 -22t-38 -65q0 -44 38 -66.5t92 -22.5q51 0 86 24t40 69h63q-5 -73 -59 -112t-132 -39t-134.5 39t-56.5 110q0 81 77 116q-60 37 -60 110q0 70 51 107.5t124 37.5t123 -38.5t55 -112.5h-63q-4 46 -35 69.5t-79 23.5t-80.5 -21t-32.5 -65 q0 -43 32 -63.5t81 -20.5h46v-58h-46z" />
<glyph unicode="&#x3b6;" horiz-adv-x="491" d="M291 -10q-81 0 -137 36.5t-80 90t-24 118.5q0 112 84 217.5t225 189.5h-289v58h394v-62q-160 -83 -255.5 -188t-95.5 -217q0 -77 47.5 -131t144.5 -54q58 0 110 17l29 -37v-168h-63v143q-32 -13 -90 -13z" />
<glyph unicode="&#x3b7;" horiz-adv-x="560" d="M487 -195h-63v502q0 76 -27 110.5t-92 34.5q-73 0 -118.5 -47t-45.5 -131v-274h-63v500h63v-80q23 43 67 66.5t98 23.5q181 0 181 -202v-503z" />
<glyph unicode="&#x3b8;" horiz-adv-x="572" d="M463 321h-354q4 -127 47.5 -200t129.5 -73t129.5 73t47.5 200zM109 379h354q-4 127 -47.5 200t-129.5 73t-129.5 -73t-47.5 -200zM45 350q0 163 60 261.5t181 98.5t181 -98.5t60 -261.5t-60 -261.5t-181 -98.5t-181 98.5t-60 261.5z" />
<glyph unicode="&#x3b9;" horiz-adv-x="262" d="M141 500v-380q0 -72 64 -72q22 0 35 2v-58q-16 -2 -43 -2q-56 0 -87.5 35t-31.5 95v380h63z" />
<glyph unicode="&#x3ba;" horiz-adv-x="509" d="M141 500v-244l258 244h84l-265 -250l280 -250h-88l-269 242v-242h-63v500h63z" />
<glyph unicode="&#x3bb;" horiz-adv-x="510" d="M493 0h-66l-171 485h-2l-171 -485h-66l179 500h55l-74 210h66z" />
<glyph unicode="&#x3bc;" horiz-adv-x="560" d="M73 -195v695h63v-307q0 -76 27 -110.5t92 -34.5q73 0 118.5 47t45.5 131v274h63v-500h-63v80q-23 -43 -67 -66.5t-98 -23.5q-74 0 -118 33v-218h-63z" />
<glyph unicode="&#x3bd;" horiz-adv-x="496" d="M485 500l-179 -500h-116l-179 500h66l170 -485h2l170 485h66z" />
<glyph unicode="&#x3be;" horiz-adv-x="492" d="M327 48q70 0 124 17l29 -37v-168h-63v143q-32 -13 -90 -13q-131 0 -196.5 56.5t-65.5 148.5q0 41 14 75t32 53t41 33t34.5 18t18.5 6q-3 0 -14 4t-28.5 15t-33 27t-27 43t-11.5 60q0 76 58 128.5t154 52.5q41 0 87.5 -11t71.5 -33l-36 -49q-49 35 -123 35 q-71 0 -110 -34.5t-39 -89.5q0 -54 39.5 -86.5t119.5 -32.5h98v-58h-98q-88 0 -136.5 -43.5t-48.5 -111.5t49.5 -108t149.5 -40z" />
<glyph unicode="&#x3bf;" horiz-adv-x="572" d="M45 250q0 50 14.5 95.5t42.5 83t75.5 59.5t108.5 22t108.5 -22t75.5 -59.5t42.5 -83t14.5 -95.5t-14.5 -95.5t-42.5 -83t-75.5 -59.5t-108.5 -22t-108.5 22t-75.5 59.5t-42.5 83t-14.5 95.5zM464 250q0 84 -45 143t-133 59t-133 -59t-45 -143t45 -143t133 -59t133 59 t45 143z" />
<glyph unicode="&#x3c0;" horiz-adv-x="635" d="M129 442h-99v58h575v-58h-99v-322q0 -72 64 -72q22 0 35 2v-58q-16 -2 -43 -2q-56 0 -87.5 35t-31.5 95v322h-251v-442h-63v442z" />
<glyph unicode="&#x3c1;" horiz-adv-x="605" d="M141 250q0 -84 44.5 -143t133.5 -59t133.5 59t44.5 143t-44.5 143t-133.5 59t-133.5 -59t-44.5 -143zM141 68v-263h-63v445q0 108 61 184t180 76t180 -76t61 -184q0 -110 -60 -185t-179 -75q-118 0 -180 78z" />
<glyph unicode="&#x3c2;" horiz-adv-x="548" d="M286 48q72 0 124 17l29 -37v-168h-65v141q-37 -11 -88 -11q-61 0 -108.5 22t-75.5 59.5t-42.5 83t-14.5 95.5t14.5 95.5t42.5 83t75.5 59.5t108.5 22q181 0 217 -179h-63q-27 121 -154 121q-88 0 -133 -59t-45 -143t45 -143t133 -59z" />
<glyph unicode="&#x3c3;" horiz-adv-x="572" d="M464 245q0 82 -45 139.5t-133 57.5t-133 -57.5t-45 -139.5t45 -139.5t133 -57.5t133 57.5t45 139.5zM45 245q0 67 24 123t80 94t137 38h286v-58h-129q84 -75 84 -197q0 -67 -24 -123t-80 -94t-137 -38t-137 38t-80 94t-24 123z" />
<glyph unicode="&#x3c4;" horiz-adv-x="455" d="M439 500v-58h-180v-322q0 -72 64 -72q22 0 35 2v-58q-16 -2 -43 -2q-56 0 -87.5 35t-31.5 95v322h-180v58h423z" />
<glyph unicode="&#x3c5;" horiz-adv-x="554" d="M277 48q66 0 103.5 40t37.5 105v307h63v-308q0 -90 -54 -146t-150 -56t-150 56t-54 146v308h63v-307q0 -65 37.5 -105t103.5 -40z" />
<glyph unicode="&#x3c6;" horiz-adv-x="715" d="M389 452v-404q103 0 160.5 60t57.5 142t-57.5 142t-160.5 60zM213 492l24 -56q-62 -22 -95.5 -74t-33.5 -112q0 -82 57.5 -142t160.5 -60v652h63v-190q133 0 207 -77t74 -183t-74 -183t-207 -77v-185h-63v185q-133 0 -207 77t-74 183q0 79 44 146t124 96z" />
<glyph unicode="&#x3c7;" horiz-adv-x="482" d="M180 257l-154 243h75l139 -236h2l139 236h75l-154 -243l164 -257h-76l-148 250h-2l-148 -250h-76z" />
<glyph unicode="&#x3c8;" horiz-adv-x="715" d="M670 500v-250q0 -106 -74 -183t-207 -77v-185h-63v185q-133 0 -207 77t-74 183v250h63v-250q0 -82 57.5 -142t160.5 -60v652h63v-652q103 0 160.5 60t57.5 142v250h63z" />
<glyph unicode="&#x3c9;" horiz-adv-x="808" d="M373 300h62v-60q0 -93 37 -142.5t93 -49.5t90.5 44t34.5 134q0 154 -104 225l33 49q65 -42 99.5 -114t34.5 -160q0 -118 -53 -177t-137 -59q-51 0 -93 28t-66 82q-24 -54 -66 -82t-93 -28q-84 0 -137 59t-53 177q0 88 34.5 160t99.5 114l33 -49q-104 -71 -104 -225 q0 -90 34.5 -134t90.5 -44t93 49.5t37 142.5v60z" />
<glyph unicode="&#x3ca;" horiz-adv-x="262" d="M-20 628q0 17 12 29t29 12t29 -12t12 -29t-12 -29t-29 -12t-29 12t-12 29zM158 628q0 17 12 29t29 12t29 -12t12 -29t-12 -29t-29 -12t-29 12t-12 29zM141 500v-380q0 -72 64 -72q22 0 35 2v-58q-16 -2 -43 -2q-56 0 -87.5 35t-31.5 95v380h63z" />
<glyph unicode="&#x3cb;" horiz-adv-x="554" d="M147 628q0 17 12 29t29 12t29 -12t12 -29t-12 -29t-29 -12t-29 12t-12 29zM325 628q0 17 12 29t29 12t29 -12t12 -29t-12 -29t-29 -12t-29 12t-12 29zM277 48q66 0 103.5 40t37.5 105v307h63v-308q0 -90 -54 -146t-150 -56t-150 56t-54 146v308h63v-307q0 -65 37.5 -105 t103.5 -40z" />
<glyph unicode="&#x3cc;" horiz-adv-x="572" d="M389 715l-85 -138h-37l49 138h73zM45 250q0 50 14.5 95.5t42.5 83t75.5 59.5t108.5 22t108.5 -22t75.5 -59.5t42.5 -83t14.5 -95.5t-14.5 -95.5t-42.5 -83t-75.5 -59.5t-108.5 -22t-108.5 22t-75.5 59.5t-42.5 83t-14.5 95.5zM464 250q0 84 -45 143t-133 59t-133 -59 t-45 -143t45 -143t133 -59t133 59t45 143z" />
<glyph unicode="&#x3cd;" horiz-adv-x="554" d="M380 715l-85 -138h-37l49 138h73zM277 48q66 0 103.5 40t37.5 105v307h63v-308q0 -90 -54 -146t-150 -56t-150 56t-54 146v308h63v-307q0 -65 37.5 -105t103.5 -40z" />
<glyph unicode="&#x3ce;" horiz-adv-x="808" d="M507 715l-85 -138h-37l49 138h73zM373 300h62v-60q0 -93 37 -142.5t93 -49.5t90.5 44t34.5 134q0 154 -104 225l33 49q65 -42 99.5 -114t34.5 -160q0 -118 -53 -177t-137 -59q-51 0 -93 28t-66 82q-24 -54 -66 -82t-93 -28q-84 0 -137 59t-53 177q0 88 34.5 160t99.5 114 l33 -49q-104 -71 -104 -225q0 -90 34.5 -134t90.5 -44t93 49.5t37 142.5v60z" />
<glyph unicode="&#x400;" horiz-adv-x="599" d="M182 915h83l79 -138h-47zM158 325v-265h390v-60h-455v700h443v-60h-378v-255h354v-60h-354z" />
<glyph unicode="&#x401;" horiz-adv-x="599" d="M190 828q0 17 12 29t29 12t29 -12t12 -29t-12 -29t-29 -12t-29 12t-12 29zM368 828q0 17 12 29t29 12t29 -12t12 -29t-12 -29t-29 -12t-29 12t-12 29zM158 325v-265h390v-60h-455v700h443v-60h-378v-255h354v-60h-354z" />
<glyph unicode="&#x402;" horiz-adv-x="808" d="M735 227q0 -237 -235 -237v60q94 0 132 46.5t38 130.5t-37.5 130.5t-129.5 46.5q-90 0 -188 -40v-364h-65v640h-229v60h523v-60h-229v-213q93 37 181 37q116 0 177.5 -60.5t61.5 -176.5z" />
<glyph unicode="&#x403;" horiz-adv-x="541" d="M451 915l-115 -138h-47l79 138h83zM158 0h-65v700h440v-60h-375v-640z" />
<glyph unicode="&#x404;" horiz-adv-x="701" d="M366 50q186 0 229 191h65q-22 -115 -93.5 -183t-200.5 -68q-82 0 -146.5 30.5t-102.5 82t-57 114.5t-19 133t19 133t57 114.5t102.5 82t146.5 30.5q129 0 200.5 -68t93.5 -183h-65q-43 191 -229 191q-121 0 -186 -77.5t-73 -192.5h341v-60h-341q8 -115 73 -192.5 t186 -77.5z" />
<glyph unicode="&#x405;" horiz-adv-x="614" d="M46 195h65q7 -70 63 -107.5t133 -37.5q80 0 138 36t58 105q0 37 -19 62.5t-49.5 36.5t-70 20t-81 14t-81 17.5t-70 30t-49.5 52.5t-19 85q0 99 70 150t170 51q98 0 165.5 -52t74.5 -154h-65q-7 72 -55 109t-120 37q-74 0 -124.5 -36.5t-50.5 -105.5q0 -41 24 -66.5 t63 -36.5t85.5 -18t93.5 -17.5t86 -28t63 -55.5t24 -96q0 -98 -76.5 -149t-184.5 -51q-105 0 -179.5 52.5t-81.5 152.5z" />
<glyph unicode="&#x406;" horiz-adv-x="251" d="M93 0v700h65v-700h-65z" />
<glyph unicode="&#x407;" horiz-adv-x="251" d="M-4 828q0 17 12 29t29 12t29 -12t12 -29t-12 -29t-29 -12t-29 12t-12 29zM174 828q0 17 12 29t29 12t29 -12t12 -29t-12 -29t-29 -12t-29 12t-12 29zM93 0v700h65v-700h-65z" />
<glyph unicode="&#x408;" horiz-adv-x="542" d="M242 50q80 0 116 49.5t36 124.5v476h65v-476q0 -100 -51.5 -167t-165.5 -67t-165.5 67t-51.5 167v48h65v-48q0 -75 36 -124.5t116 -49.5z" />
<glyph unicode="&#x409;" horiz-adv-x="1035" d="M588 368v-308h191q67 0 110.5 43t43.5 111t-43.5 111t-110.5 43h-191zM157 314v386h431v-272h190q95 0 157.5 -60.5t62.5 -153.5t-62.5 -153.5t-157.5 -60.5h-255v640h-301v-326q0 -31 -0.5 -53t-4.5 -57.5t-11 -60.5t-21 -54t-33.5 -47t-49.5 -30t-68 -12h-22v60h19 q29 0 51.5 12t36 35t21.5 46.5t11.5 57t4.5 54t1 49.5z" />
<glyph unicode="&#x40a;" horiz-adv-x="1033" d="M586 60h191q67 0 110.5 43t43.5 111t-43.5 111t-110.5 43h-191v-308zM158 0h-65v700h65v-272h363v272h65v-272h190q95 0 157.5 -60.5t62.5 -153.5t-62.5 -153.5t-157.5 -60.5h-255v368h-363v-368z" />
<glyph unicode="&#x40b;" horiz-adv-x="808" d="M315 0h-65v640h-229v60h523v-60h-229v-216q93 37 181 37q116 0 177.5 -55.5t61.5 -158.5v-247h-65v219q0 93 -36.5 137.5t-130.5 44.5q-90 0 -188 -40v-361z" />
<glyph unicode="&#x40c;" horiz-adv-x="602" d="M487 915l-115 -138h-47l79 138h83zM158 700v-344l340 344h91l-346 -350l361 -350h-94l-352 342v-342h-65v700h65z" />
<glyph unicode="&#x40d;" horiz-adv-x="741" d="M233 915h83l79 -138h-47zM522 700h126v-700h-65v680h-2l-362 -680h-126v700h65v-680h2z" />
<glyph unicode="&#x40e;" horiz-adv-x="571" d="M138 914h53q0 -38 26 -62.5t71 -24.5t71 24.5t26 62.5h53q0 -60 -40.5 -97.5t-109.5 -37.5t-109.5 37.5t-40.5 97.5zM247 0h-68l90 206l-246 494h70l209 -419l183 419h68z" />
<glyph unicode="&#x40f;" horiz-adv-x="705" d="M93 700h65v-640h389v640h65v-700h-227v-140h-65v140h-227v700z" />
<glyph unicode="&#x410;" horiz-adv-x="656" d="M327 680l-154 -430h310l-154 430h-2zM84 0h-71l257 700h116l257 -700h-71l-68 190h-352z" />
<glyph unicode="&#x411;" horiz-adv-x="625" d="M158 60h218q64 0 105.5 42t41.5 107t-41.5 107t-105.5 42h-218v-298zM158 418h217q91 0 152 -59t61 -150t-61 -150t-152 -59h-282v700h430v-60h-365v-222z" />
<glyph unicode="&#x412;" horiz-adv-x="676" d="M385 334h-227v-274h227q74 0 123.5 32t49.5 105t-49.5 105t-123.5 32zM368 640h-210v-246h210q66 0 110.5 29t44.5 94t-44.5 94t-110.5 29zM387 0h-294v700h277q44 0 81 -9t69 -28.5t50 -55.5t18 -86q0 -104 -93 -151q128 -48 128 -178q0 -102 -67 -147t-169 -45z" />
<glyph unicode="&#x413;" horiz-adv-x="541" d="M158 0h-65v700h440v-60h-375v-640z" />
<glyph unicode="&#x414;" horiz-adv-x="721" d="M156 60h381v580h-324v-275q0 -193 -57 -305zM22 -140v200h60q66 103 66 305v335h454v-640h75v-200h-65v140h-525v-140h-65z" />
<glyph unicode="&#x415;" horiz-adv-x="599" d="M158 325v-265h390v-60h-455v700h443v-60h-378v-255h354v-60h-354z" />
<glyph unicode="&#x416;" horiz-adv-x="855" d="M460 700v-344l299 344h82l-305 -350l320 -350h-84l-312 342v-342h-65v342l-312 -342h-84l320 350l-305 350h82l299 -344v344h65z" />
<glyph unicode="&#x417;" horiz-adv-x="614" d="M307 319h-75v60h72q76 0 125 31t49 100q0 70 -50 105t-124 35q-72 0 -120 -36t-55 -110h-65q7 102 74.5 154t165.5 52q99 0 169 -51.5t70 -148.5q0 -109 -97 -157q122 -47 122 -164q0 -65 -39 -111.5t-96.5 -67t-125.5 -20.5q-105 0 -179.5 52.5t-81.5 152.5h65 q7 -72 62.5 -108.5t133.5 -36.5q81 0 138.5 35t57.5 104q0 67 -56.5 98.5t-139.5 31.5z" />
<glyph unicode="&#x418;" horiz-adv-x="741" d="M522 700h126v-700h-65v680h-2l-362 -680h-126v700h65v-680h2z" />
<glyph unicode="&#x419;" horiz-adv-x="741" d="M221 914h53q0 -38 26 -62.5t71 -24.5t71 24.5t26 62.5h53q0 -60 -40.5 -97.5t-109.5 -37.5t-109.5 37.5t-40.5 97.5zM522 700h126v-700h-65v680h-2l-362 -680h-126v700h65v-680h2z" />
<glyph unicode="&#x41a;" horiz-adv-x="602" d="M158 700v-344l340 344h91l-346 -350l361 -350h-94l-352 342v-342h-65v700h65z" />
<glyph unicode="&#x41b;" horiz-adv-x="708" d="M34 0h-22v60h19q29 0 51.5 12t36 35t21.5 46.5t11.5 57t4.5 54t1 49.5v386h458v-700h-65v640h-328v-326q0 -31 -0.5 -53t-4.5 -57.5t-11 -60.5t-21 -54t-33.5 -47t-49.5 -30t-68 -12z" />
<glyph unicode="&#x41c;" horiz-adv-x="886" d="M218 700l224 -680h2l224 680h125v-700h-65v680h-2l-224 -680h-118l-224 680h-2v-680h-65v700h125z" />
<glyph unicode="&#x41d;" horiz-adv-x="706" d="M93 0v700h65v-314h390v314h65v-700h-65v326h-390v-326h-65z" />
<glyph unicode="&#x41e;" horiz-adv-x="732" d="M41 350q0 70 19 133t57 114.5t102.5 82t146.5 30.5t146.5 -30.5t102.5 -82t57 -114.5t19 -133t-19 -133t-57 -114.5t-102.5 -82t-146.5 -30.5t-146.5 30.5t-102.5 82t-57 114.5t-19 133zM626 350q0 80 -25.5 145.5t-86 110t-148.5 44.5t-148.5 -44.5t-86 -110 t-25.5 -145.5t25.5 -145.5t86 -110t148.5 -44.5t148.5 44.5t86 110t25.5 145.5z" />
<glyph unicode="&#x41f;" horiz-adv-x="706" d="M93 0v700h520v-700h-65v640h-390v-640h-65z" />
<glyph unicode="&#x420;" horiz-adv-x="625" d="M361 640h-203v-324h203q71 0 116.5 46t45.5 116t-45.5 116t-116.5 46zM360 256h-202v-256h-65v700h267q99 0 163.5 -63t64.5 -159t-64.5 -159t-163.5 -63z" />
<glyph unicode="&#x421;" horiz-adv-x="701" d="M594 241h66q-48 -251 -294 -251q-82 0 -146.5 30.5t-102.5 82t-57 114.5t-19 133t19 133t57 114.5t102.5 82t146.5 30.5q246 0 294 -251h-66q-40 191 -228 191q-88 0 -148.5 -44.5t-86 -110t-25.5 -145.5t25.5 -145.5t86 -110t148.5 -44.5q188 0 228 191z" />
<glyph unicode="&#x422;" horiz-adv-x="565" d="M315 640v-640h-65v640h-229v60h523v-60h-229z" />
<glyph unicode="&#x423;" horiz-adv-x="571" d="M247 0h-68l90 206l-246 494h70l209 -419l183 419h68z" />
<glyph unicode="&#x424;" horiz-adv-x="803" d="M96 350q0 -93 71.5 -161t201.5 -68v458q-130 0 -201.5 -68t-71.5 -161zM707 350q0 93 -71.5 161t-201.5 68v-458q130 0 201.5 68t71.5 161zM772 350q0 -56 -21.5 -106.5t-62 -92t-106.5 -66t-148 -24.5v-81h-65v81q-82 0 -148 24.5t-106.5 66t-62 92t-21.5 106.5 t21.5 106.5t62 92t106.5 66t148 24.5v81h65v-81q82 0 148 -24.5t106.5 -66t62 -92t21.5 -106.5z" />
<glyph unicode="&#x425;" horiz-adv-x="588" d="M551 700l-189 -334l210 -366h-76l-201 357h-2l-201 -357h-76l210 366l-189 334h74l182 -323h2l182 323h74z" />
<glyph unicode="&#x426;" horiz-adv-x="705" d="M93 700h65v-640h370v640h65v-640h68v-200h-65v140h-503v700z" />
<glyph unicode="&#x427;" horiz-adv-x="651" d="M493 700h65v-700h-65v282q-95 -36 -181 -36q-116 0 -177.5 55.5t-61.5 158.5v240h65v-212q0 -93 36.5 -137.5t130.5 -44.5q90 0 188 40v354z" />
<glyph unicode="&#x428;" horiz-adv-x="1017" d="M93 700h65v-640h318v640h65v-640h318v640h65v-700h-831v700z" />
<glyph unicode="&#x429;" horiz-adv-x="1036" d="M93 700h65v-640h318v640h65v-640h318v640h65v-640h68v-200h-65v140h-834v700z" />
<glyph unicode="&#x42a;" horiz-adv-x="707" d="M240 60h203q71 0 116.5 46t45.5 116t-45.5 116t-116.5 46h-203v-324zM5 700h235v-256h202q99 0 163.5 -63t64.5 -159t-64.5 -159t-163.5 -63h-267v640h-170v60z" />
<glyph unicode="&#x42b;" horiz-adv-x="841" d="M158 60h203q71 0 116.5 46t45.5 116t-45.5 116t-116.5 46h-203v-324zM158 444h202q99 0 163.5 -63t64.5 -159t-64.5 -159t-163.5 -63h-267v700h65v-256zM748 0h-65v700h65v-700z" />
<glyph unicode="&#x42c;" horiz-adv-x="625" d="M158 60h203q71 0 116.5 46t45.5 116t-45.5 116t-116.5 46h-203v-324zM158 444h202q99 0 163.5 -63t64.5 -159t-64.5 -159t-163.5 -63h-267v700h65v-256z" />
<glyph unicode="&#x42d;" horiz-adv-x="701" d="M335 50q121 0 186 77.5t73 192.5h-341v60h341q-8 115 -73 192.5t-186 77.5q-186 0 -229 -191h-65q22 115 93.5 183t200.5 68q82 0 146.5 -30.5t102.5 -82t57 -114.5t19 -133t-19 -133t-57 -114.5t-102.5 -82t-146.5 -30.5q-129 0 -200.5 68t-93.5 183h65 q43 -191 229 -191z" />
<glyph unicode="&#x42e;" horiz-adv-x="998" d="M892 350q0 80 -25.5 145.5t-86 110t-148.5 44.5t-148.5 -44.5t-86 -110t-25.5 -145.5t25.5 -145.5t86 -110t148.5 -44.5t148.5 44.5t86 110t25.5 145.5zM158 0h-65v700h65v-314h150q10 138 92 231t232 93q82 0 146.5 -30.5t102.5 -82t57 -114.5t19 -133t-19 -133 t-57 -114.5t-102.5 -82t-146.5 -30.5q-79 0 -141 28t-100 75.5t-59 106.5t-24 126h-150v-326z" />
<glyph unicode="&#x42f;" horiz-adv-x="661" d="M503 334v306h-213q-66 0 -109 -43t-43 -110t43 -110t109 -43h213zM291 700h277v-700h-65v274h-182l-181 -274h-76l183 278q-78 14 -126 71t-48 138q0 93 61.5 153t156.5 60z" />
<glyph unicode="&#x430;" horiz-adv-x="605" d="M464 250q0 84 -44.5 143t-133.5 59t-133.5 -59t-44.5 -143t44.5 -143t133.5 -59t133.5 59t44.5 143zM527 0h-63v83q-63 -93 -185 -93q-117 0 -175.5 76.5t-58.5 183.5t58.5 183.5t175.5 76.5q122 0 185 -93v83h63v-500z" />
<glyph unicode="&#x431;" horiz-adv-x="577" d="M113 235q0 -78 44.5 -132.5t133.5 -54.5t133.5 54.5t44.5 132.5t-44.5 132.5t-133.5 54.5t-133.5 -54.5t-44.5 -132.5zM532 750v-57q-32 -9 -137 -25.5t-147 -36.5q-60 -28 -90.5 -86.5t-40.5 -151.5q56 87 174 87q81 0 137 -36.5t80 -90t24 -118.5t-24 -118.5t-80 -90 t-137 -36.5q-120 0 -180.5 74t-60.5 186q0 189 36 285q35 96 125 140q53 27 171.5 46.5t149.5 28.5z" />
<glyph unicode="&#x432;" horiz-adv-x="519" d="M295 232h-154v-174h154q117 0 117 87t-117 87zM286 442h-145v-152h145q101 0 101 76t-101 76zM312 0h-234v500h222q61 0 105.5 -31t44.5 -101q0 -73 -62 -106q87 -35 87 -121q0 -75 -48.5 -108t-114.5 -33z" />
<glyph unicode="&#x433;" horiz-adv-x="407" d="M398 500v-58h-257v-442h-63v500h320z" />
<glyph unicode="&#x434;" horiz-adv-x="572" d="M135 58h294v384h-254v-167q0 -134 -40 -217zM22 -140v198h43q47 75 47 217v225h380v-442h53v-198h-63v140h-397v-140h-63z" />
<glyph unicode="&#x435;" horiz-adv-x="552" d="M110 285h332q-8 72 -50.5 119.5t-115.5 47.5t-115.5 -47.5t-50.5 -119.5zM428 142h66q-43 -152 -218 -152q-58 0 -104 22t-73 59.5t-40.5 83t-13.5 95.5t13.5 95.5t40.5 83t73 59.5t104 22t104 -22t73 -59.5t40.5 -83t13.5 -95.5v-23h-398q6 -76 48 -127.5t119 -51.5 q118 0 152 94z" />
<glyph unicode="&#x436;" horiz-adv-x="701" d="M382 500v-243l215 243h78l-221 -250l236 -250h-81l-227 243v-243h-63v243l-227 -243h-81l236 250l-221 250h78l215 -243v243h63z" />
<glyph unicode="&#x437;" horiz-adv-x="466" d="M231 224h-46v58h46q49 0 81 20.5t32 63.5q0 44 -32.5 65t-80.5 21t-79 -23.5t-35 -69.5h-63q5 74 55 112.5t123 38.5t124 -37.5t51 -107.5q0 -75 -60 -110q77 -35 77 -116q0 -71 -56.5 -110t-134.5 -39t-132 39t-59 112h63q5 -45 40 -69t86 -24q54 0 92 22.5t38 66.5 q0 43 -38 65t-92 22z" />
<glyph unicode="&#x438;" horiz-adv-x="568" d="M367 500h123v-500h-63v485h-2l-224 -485h-123v500h63v-485h2z" />
<glyph unicode="&#x439;" horiz-adv-x="568" d="M134 714h53q0 -38 26 -62.5t71 -24.5t71 24.5t26 62.5h53q0 -60 -40.5 -97.5t-109.5 -37.5t-109.5 37.5t-40.5 97.5zM367 500h123v-500h-63v485h-2l-224 -485h-123v500h63v-485h2z" />
<glyph unicode="&#x43a;" horiz-adv-x="509" d="M141 500v-244l258 244h84l-265 -250l280 -250h-88l-269 242v-242h-63v500h63z" />
<glyph unicode="&#x43b;" horiz-adv-x="558" d="M23 0h-18v58h15q29 0 47 15t25 42.5t9 47.5t2 49v288h377v-500h-63v442h-251v-230q0 -31 -1.5 -52.5t-9 -54.5t-22 -53.5t-42.5 -36t-68 -15.5z" />
<glyph unicode="&#x43c;" horiz-adv-x="696" d="M141 0h-63v500h120l149 -485h2l149 485h120v-500h-63v485h-2l-149 -485h-112l-149 485h-2v-485z" />
<glyph unicode="&#x43d;" horiz-adv-x="565" d="M487 0h-63v221h-283v-221h-63v500h63v-221h283v221h63v-500z" />
<glyph unicode="&#x43e;" horiz-adv-x="572" d="M45 250q0 50 14.5 95.5t42.5 83t75.5 59.5t108.5 22t108.5 -22t75.5 -59.5t42.5 -83t14.5 -95.5t-14.5 -95.5t-42.5 -83t-75.5 -59.5t-108.5 -22t-108.5 22t-75.5 59.5t-42.5 83t-14.5 95.5zM464 250q0 84 -45 143t-133 59t-133 -59t-45 -143t45 -143t133 -59t133 59 t45 143z" />
<glyph unicode="&#x43f;" horiz-adv-x="565" d="M487 0h-63v442h-283v-442h-63v500h409v-500z" />
<glyph unicode="&#x440;" horiz-adv-x="605" d="M141 250q0 -84 44.5 -143t133.5 -59t133.5 59t44.5 143t-44.5 143t-133.5 59t-133.5 -59t-44.5 -143zM141 83v-278h-63v695h63v-83q63 93 185 93q117 0 175.5 -76.5t58.5 -183.5t-58.5 -183.5t-175.5 -76.5q-122 0 -185 93z" />
<glyph unicode="&#x441;" horiz-adv-x="548" d="M440 169h63q-36 -179 -217 -179q-61 0 -108.5 22t-75.5 59.5t-42.5 83t-14.5 95.5t14.5 95.5t42.5 83t75.5 59.5t108.5 22q181 0 217 -179h-63q-27 121 -154 121q-88 0 -133 -59t-45 -143t45 -143t133 -59q127 0 154 121z" />
<glyph unicode="&#x442;" horiz-adv-x="455" d="M439 500v-58h-180v-442h-63v442h-180v58h423z" />
<glyph unicode="&#x443;" horiz-adv-x="510" d="M493 500l-245 -695h-66l69 195h-55l-179 500h66l171 -485h2l171 485h66z" />
<glyph unicode="&#x444;" horiz-adv-x="715" d="M326 48v404q-103 0 -160.5 -60t-57.5 -142t57.5 -142t160.5 -60zM389 452v-404q103 0 160.5 60t57.5 142t-57.5 142t-160.5 60zM389 -10v-185h-63v185q-133 0 -207 77t-74 183t74 183t207 77v190h63v-190q133 0 207 -77t74 -183t-74 -183t-207 -77z" />
<glyph unicode="&#x445;" horiz-adv-x="482" d="M180 257l-154 243h75l139 -236h2l139 236h75l-154 -243l164 -257h-76l-148 250h-2l-148 -250h-76z" />
<glyph unicode="&#x446;" horiz-adv-x="575" d="M414 58v442h63v-442h71v-198h-63v140h-407v500h63v-442h273z" />
<glyph unicode="&#x447;" horiz-adv-x="536" d="M395 500h63v-500h-63v188q-58 -22 -144 -22q-193 0 -193 189v145h63v-144q0 -70 31 -101t98 -31q87 0 145 22v254z" />
<glyph unicode="&#x448;" horiz-adv-x="861" d="M399 58v442h63v-442h258v442h63v-500h-705v500h63v-442h258z" />
<glyph unicode="&#x449;" horiz-adv-x="881" d="M399 58v442h63v-442h258v442h63v-442h71v-198h-63v140h-713v500h63v-442h258z" />
<glyph unicode="&#x44a;" horiz-adv-x="553" d="M451 156q0 43 -27.5 70.5t-69.5 27.5h-150v-196h150q42 0 69.5 27.5t27.5 70.5zM354 0h-213v442h-135v58h198v-188h150q69 0 114.5 -44.5t45.5 -111.5t-45.5 -111.5t-114.5 -44.5z" />
<glyph unicode="&#x44b;" horiz-adv-x="677" d="M388 156q0 43 -27.5 70.5t-69.5 27.5h-150v-196h150q42 0 69.5 27.5t27.5 70.5zM291 0h-213v500h63v-188h150q69 0 114.5 -44.5t45.5 -111.5t-45.5 -111.5t-114.5 -44.5zM599 500v-500h-63v500h63z" />
<glyph unicode="&#x44c;" horiz-adv-x="490" d="M388 156q0 43 -27.5 70.5t-69.5 27.5h-150v-196h150q42 0 69.5 27.5t27.5 70.5zM291 0h-213v500h63v-188h150q68 0 114 -44.5t46 -111.5t-46 -111.5t-114 -44.5z" />
<glyph unicode="&#x44d;" horiz-adv-x="549" d="M263 -10q-98 0 -150.5 50t-67.5 132h65q26 -124 153 -124q80 0 124.5 49t51.5 124h-232v58h232q-7 75 -51.5 124t-124.5 49q-127 0 -153 -124h-65q15 82 67.5 132t150.5 50q61 0 108.5 -22t75.5 -59.5t42.5 -83t14.5 -95.5t-14.5 -95.5t-42.5 -83t-75.5 -59.5t-108.5 -22 z" />
<glyph unicode="&#x44e;" horiz-adv-x="787" d="M679 250q0 84 -45 143t-133 59t-133 -59t-45 -143t45 -143t133 -59t133 59t45 143zM141 0h-63v500h63v-221h120q8 98 69 164.5t171 66.5q61 0 108.5 -22t75.5 -59.5t42.5 -83t14.5 -95.5t-14.5 -95.5t-42.5 -83t-75.5 -59.5t-108.5 -22q-110 0 -171 66.5t-69 164.5h-120 v-221z" />
<glyph unicode="&#x44f;" horiz-adv-x="499" d="M111 344q0 -42 27.5 -70t69.5 -28h150v196h-150q-42 0 -69.5 -28t-27.5 -70zM208 500h213v-500h-63v188h-131q-67 -83 -119 -188h-69q48 109 114 197q-47 16 -76 55.5t-29 91.5q0 66 46.5 111t113.5 45z" />
<glyph unicode="&#x450;" horiz-adv-x="552" d="M110 285h332q-8 72 -50.5 119.5t-115.5 47.5t-115.5 -47.5t-50.5 -119.5zM428 142h66q-43 -152 -218 -152q-58 0 -104 22t-73 59.5t-40.5 83t-13.5 95.5t13.5 95.5t40.5 83t73 59.5t104 22t104 -22t73 -59.5t40.5 -83t13.5 -95.5v-23h-398q6 -76 48 -127.5t119 -51.5 q118 0 152 94zM253 577l-115 138h83l79 -138h-47z" />
<glyph unicode="&#x451;" horiz-adv-x="552" d="M110 285h332q-8 72 -50.5 119.5t-115.5 47.5t-115.5 -47.5t-50.5 -119.5zM428 142h66q-43 -152 -218 -152q-58 0 -104 22t-73 59.5t-40.5 83t-13.5 95.5t13.5 95.5t40.5 83t73 59.5t104 22t104 -22t73 -59.5t40.5 -83t13.5 -95.5v-23h-398q6 -76 48 -127.5t119 -51.5 q118 0 152 94zM146 628q0 17 12 29t29 12t29 -12t12 -29t-12 -29t-29 -12t-29 12t-12 29zM324 628q0 17 12 29t29 12t29 -12t12 -29t-12 -29t-29 -12t-29 12t-12 29z" />
<glyph unicode="&#x452;" horiz-adv-x="580" d="M347 -202v56q19 -3 35 -3q62 0 62 70v386q0 76 -27 110.5t-92 34.5q-73 0 -118.5 -47t-45.5 -131v-274h-63v582h-49v50h49v68h63v-68h155v-50h-155v-162q23 43 67 66.5t98 23.5q181 0 181 -202v-379q0 -134 -121 -134q-16 0 -39 3z" />
<glyph unicode="&#x453;" horiz-adv-x="407" d="M376 715l-115 -138h-47l79 138h83zM398 500v-58h-257v-442h-63v500h320z" />
<glyph unicode="&#x454;" horiz-adv-x="549" d="M286 -10q-61 0 -108.5 22t-75.5 59.5t-42.5 83t-14.5 95.5t14.5 95.5t42.5 83t75.5 59.5t108.5 22q98 0 150.5 -50t67.5 -132h-65q-26 124 -153 124q-80 0 -124.5 -49t-51.5 -124h232v-58h-232q7 -75 51.5 -124t124.5 -49q127 0 153 124h65q-15 -82 -67.5 -132 t-150.5 -50z" />
<glyph unicode="&#x455;" horiz-adv-x="466" d="M42 141h63q5 -45 40 -69t86 -24q54 0 92 22.5t38 66.5q0 32 -22.5 51t-57 25.5t-74 15.5t-74 19.5t-57 39.5t-22.5 75q0 73 51 110t124 37t123 -38.5t55 -112.5h-63q-4 46 -35.5 69.5t-78.5 23.5q-48 0 -80.5 -21t-32.5 -65q0 -32 22.5 -50.5t57 -24.5t74 -15t74 -19.5 t57 -40.5t22.5 -76q0 -73 -56.5 -111.5t-137.5 -38.5q-76 0 -129.5 39t-58.5 112z" />
<glyph unicode="&#x456;" horiz-adv-x="219" d="M66 666q0 19 12.5 31t30.5 12t30.5 -12t12.5 -31t-12.5 -31t-30.5 -12t-30.5 12t-12.5 31zM78 0v500h63v-500h-63z" />
<glyph unicode="&#x457;" horiz-adv-x="219" d="M-21 628q0 17 12 29t29 12t29 -12t12 -29t-12 -29t-29 -12t-29 12t-12 29zM157 628q0 17 12 29t29 12t29 -12t12 -29t-12 -29t-29 -12t-29 12t-12 29zM78 0v500h63v-500h-63z" />
<glyph unicode="&#x458;" horiz-adv-x="219" d="M66 666q0 19 12.5 31t30.5 12t30.5 -12t12.5 -31t-12.5 -31t-30.5 -12t-30.5 12t-12.5 31zM-19 -203v56q13 -2 35 -2q62 0 62 70v579h63v-571q0 -134 -121 -134q-11 0 -39 2z" />
<glyph unicode="&#x459;" horiz-adv-x="797" d="M695 152q0 41 -26 67.5t-67 26.5h-144v-188h144q41 0 67 26.5t26 67.5zM23 0h-18v58h15q29 0 47 15t25 42.5t9 47.5t2 49v288h355v-196h144q67 0 111.5 -43t44.5 -109t-44.5 -109t-111.5 -43h-207v442h-229v-230q0 -31 -1.5 -52.5t-9 -54.5t-22 -53.5t-42.5 -36 t-68 -15.5z" />
<glyph unicode="&#x45a;" horiz-adv-x="804" d="M702 152q0 41 -26 67.5t-67 26.5h-144v-188h144q41 0 67 26.5t26 67.5zM609 0h-207v246h-261v-246h-63v500h63v-196h261v196h63v-196h144q67 0 111.5 -43t44.5 -109t-44.5 -109t-111.5 -43z" />
<glyph unicode="&#x45b;" horiz-adv-x="580" d="M161 0h-63v582h-49v50h49v68h63v-68h155v-50h-155v-162q23 43 67 66.5t98 23.5q181 0 181 -202v-308h-63v307q0 76 -27 110.5t-92 34.5q-73 0 -118.5 -47t-45.5 -131v-274z" />
<glyph unicode="&#x45c;" horiz-adv-x="509" d="M426 715l-115 -138h-47l79 138h83zM141 500v-244l258 244h84l-265 -250l280 -250h-88l-269 242v-242h-63v500h63z" />
<glyph unicode="&#x45d;" horiz-adv-x="568" d="M146 715h83l79 -138h-47zM367 500h123v-500h-63v485h-2l-224 -485h-123v500h63v-485h2z" />
<glyph unicode="&#x45e;" horiz-adv-x="510" d="M105 714h53q0 -38 26 -62.5t71 -24.5t71 24.5t26 62.5h53q0 -60 -40.5 -97.5t-109.5 -37.5t-109.5 37.5t-40.5 97.5zM493 500l-245 -695h-66l69 195h-55l-179 500h66l171 -485h2l171 485h66z" />
<glyph unicode="&#x45f;" horiz-adv-x="565" d="M424 58v442h63v-500h-172v-140h-65v140h-172v500h63v-442h283z" />
<glyph unicode="&#x462;" horiz-adv-x="632" d="M185 60h191q68 0 111 43t43 111t-43 111t-111 43h-191v-308zM375 0h-255v580h-97v54h97v66h65v-66h190v-54h-190v-152h190q95 0 157.5 -60.5t62.5 -153.5t-62.5 -153.5t-157.5 -60.5z" />
<glyph unicode="&#x463;" horiz-adv-x="517" d="M415 156q0 43 -27.5 70.5t-69.5 27.5h-150v-196h150q42 0 69.5 27.5t27.5 70.5zM318 0h-213v470h-88v50h88v180h63v-180h155v-50h-155v-158h150q68 0 114 -44.5t46 -111.5t-46 -111.5t-114 -44.5z" />
<glyph unicode="&#x48a;" horiz-adv-x="724" d="M211 914h43q0 -42 27.5 -69.5t74.5 -27.5t74.5 27.5t27.5 69.5h43q0 -60 -39.5 -97.5t-105.5 -37.5t-105.5 37.5t-39.5 97.5zM536 700h82v-640h83l-79 -200h-65l54 140h-58v602h-2l-376 -602h-82v700h65v-602h2z" />
<glyph unicode="&#x48b;" horiz-adv-x="584" d="M134 714h53q0 -38 26 -62.5t71 -24.5t71 24.5t26 62.5h53q0 -60 -40.5 -97.5t-109.5 -37.5t-109.5 37.5t-40.5 97.5zM367 500h123v-441h83l-79 -199h-63l54 140h-58v485h-2l-224 -485h-123v500h63v-485h2z" />
<glyph unicode="&#x48c;" horiz-adv-x="632" d="M185 60h191q68 0 111 43t43 111t-43 111t-111 43h-191v-308zM375 0h-255v580h-97v54h97v66h65v-66h190v-54h-190v-152h190q95 0 157.5 -60.5t62.5 -153.5t-62.5 -153.5t-157.5 -60.5z" />
<glyph unicode="&#x48d;" horiz-adv-x="517" d="M415 156q0 43 -27.5 70.5t-69.5 27.5h-150v-196h150q42 0 69.5 27.5t27.5 70.5zM318 0h-213v470h-88v50h88v180h63v-180h155v-50h-155v-158h150q68 0 114 -44.5t46 -111.5t-46 -111.5t-114 -44.5z" />
<glyph unicode="&#x48e;" horiz-adv-x="625" d="M361 640h-203v-324h203q38 0 71 14l-74 74l37 37l81 -81q47 47 47 118q0 70 -45.5 116t-116.5 46zM360 256h-202v-256h-65v700h267q99 0 163.5 -63t64.5 -159q0 -100 -68 -162l68 -68l-37 -37l-74 74q-52 -29 -117 -29z" />
<glyph unicode="&#x48f;" horiz-adv-x="605" d="M141 250q0 -84 44.5 -143t133.5 -59q49 0 88 21l-69 69l36 36l73 -73q50 56 50 149q0 84 -44.5 143t-133.5 59t-133.5 -59t-44.5 -143zM492 56l68 -68l-36 -36l-71 71q-53 -33 -127 -33q-122 0 -185 93v-278h-63v695h63v-83q63 93 185 93q117 0 175.5 -76.5t58.5 -183.5 q0 -122 -68 -194z" />
<glyph unicode="&#x490;" horiz-adv-x="541" d="M158 0h-65v700h375v130h65v-190h-375v-640z" />
<glyph unicode="&#x491;" horiz-adv-x="407" d="M398 610v-168h-257v-442h-63v500h257v110h63z" />
<glyph unicode="&#x492;" horiz-adv-x="568" d="M185 0h-65v323h-97v54h97v323h440v-60h-375v-263h190v-54h-190v-323z" />
<glyph unicode="&#x493;" horiz-adv-x="434" d="M425 500v-58h-257v-163h155v-50h-155v-229h-63v229h-88v50h88v221h320z" />
<glyph unicode="&#x494;" horiz-adv-x="615" d="M158 0h-65v700h440v-60h-375v-254q89 28 163 28q129 0 193 -78.5t64 -208.5q0 -132 -68.5 -217.5t-199.5 -85.5v60q99 0 151 67.5t52 175.5q0 105 -50 166t-152 61q-73 0 -153 -28v-326z" />
<glyph unicode="&#x495;" horiz-adv-x="460" d="M141 0h-63v500h320v-60h-257v-168q56 18 103 18q92 0 140.5 -59t48.5 -150q0 -106 -52 -171.5t-147 -65.5v58q68 1 102 47.5t34 131.5q0 68 -33.5 109.5t-102.5 41.5q-48 0 -93 -17v-215z" />
<glyph unicode="&#x496;" horiz-adv-x="905" d="M460 700v-344l299 344h82l-305 -350l265 -290h104v-200h-65v140h-68l-312 342v-342h-65v342l-312 -342h-84l320 350l-305 350h82l299 -344v344h65z" />
<glyph unicode="&#x497;" horiz-adv-x="743" d="M382 500v-243l215 243h78l-221 -250l181 -192h108v-198h-63v140h-71l-227 243v-243h-63v243l-227 -243h-81l236 250l-221 250h78l215 -243v243h63z" />
<glyph unicode="&#x498;" horiz-adv-x="614" d="M307 319h-75v60h72q76 0 125 31t49 100q0 70 -50 105t-124 35q-72 0 -120 -36t-55 -110h-65q7 102 74.5 154t165.5 52q99 0 169 -51.5t70 -148.5q0 -109 -97 -157q122 -47 122 -164q0 -88 -66 -139t-162 -59v-131h-65v131q-94 8 -158.5 60t-70.5 144h65 q7 -72 62.5 -108.5t133.5 -36.5q81 0 138.5 35t57.5 104q0 67 -56.5 98.5t-139.5 31.5z" />
<glyph unicode="&#x499;" horiz-adv-x="466" d="M231 224h-46v58h46q49 0 81 20.5t32 63.5q0 44 -32.5 65t-80.5 21t-79 -23.5t-35 -69.5h-63q5 74 55 112.5t123 38.5t124 -37.5t51 -107.5q0 -73 -60 -110q77 -35 77 -116q0 -64 -45.5 -101.5t-113.5 -45.5v-132h-63v132q-67 7 -111.5 45t-48.5 104h63q5 -45 40 -69 t86 -24q54 0 92 22.5t38 66.5q0 43 -38 65t-92 22z" />
<glyph unicode="&#x49a;" horiz-adv-x="643" d="M158 700v-344l340 344h91l-346 -350l299 -290h101v-200h-65v140h-68l-352 342v-342h-65v700h65z" />
<glyph unicode="&#x49b;" horiz-adv-x="544" d="M141 700v-444l258 244h84l-265 -250l215 -192h111v-198h-63v140h-71l-269 242v-242h-63v700h63z" />
<glyph unicode="&#x49c;" horiz-adv-x="641" d="M93 0v700h65v-324h69v130h52v-130h54l218 324h77l-235 -350l250 -350h-80l-231 324h-53v-130h-52v130h-69v-324h-65z" />
<glyph unicode="&#x49d;" horiz-adv-x="536" d="M78 0v500h63v-223h57v93h50v-93h43l148 223h71l-166 -250l181 -250h-75l-161 223h-41v-93h-50v93h-57v-223h-63z" />
<glyph unicode="&#x49e;" horiz-adv-x="629" d="M185 580v-224l340 344h91l-346 -350l361 -350h-94l-352 342v-342h-65v580h-97v54h97v66h65v-66h125v-54h-125z" />
<glyph unicode="&#x49f;" horiz-adv-x="536" d="M168 0h-63v582h-88v50h88v68h63v-68h155v-50h-155v-326l258 244h84l-265 -250l280 -250h-88l-269 242v-242z" />
<glyph unicode="&#x4a0;" horiz-adv-x="872" d="M428 0h-65v640h-355v60h420v-344l340 344h91l-346 -350l361 -350h-94l-352 342v-342z" />
<glyph unicode="&#x4a1;" horiz-adv-x="677" d="M309 242v-242h-63v442h-237v58h300v-244l258 244h84l-265 -250l280 -250h-88z" />
<glyph unicode="&#x4a2;" horiz-adv-x="706" d="M93 0v700h65v-314h390v314h65v-640h68v-200h-65v140h-68v326h-390v-326h-65z" />
<glyph unicode="&#x4a3;" horiz-adv-x="585" d="M495 0h-71v221h-283v-221h-63v500h63v-221h283v221h63v-441h71v-199h-63v140z" />
<glyph unicode="&#x4a4;" horiz-adv-x="949" d="M93 0v700h65v-314h363v314h420v-60h-355v-640h-65v326h-363v-326h-65z" />
<glyph unicode="&#x4a5;" horiz-adv-x="711" d="M465 0h-63v221h-261v-221h-63v500h63v-221h261v221h300v-58h-237v-442z" />
<glyph unicode="&#x4a6;" horiz-adv-x="1070" d="M93 0v700h520v-314q89 28 163 28q129 0 193 -78.5t64 -208.5q0 -132 -68.5 -217.5t-199.5 -85.5v60q99 0 151 67.5t52 175.5q0 105 -50 166t-152 61q-73 0 -153 -28v-326h-65v640h-390v-640h-65z" />
<glyph unicode="&#x4a7;" horiz-adv-x="806" d="M487 0h-63v442h-283v-442h-63v500h409v-228q55 18 103 18q92 0 140.5 -59t48.5 -150q0 -106 -52 -171.5t-147 -65.5v58q68 1 102 47.5t34 131.5q0 68 -33.5 109.5t-102.5 41.5q-48 0 -93 -17v-215z" />
<glyph unicode="&#x4aa;" horiz-adv-x="701" d="M594 241h66q-44 -232 -261 -250v-131h-65v131q-98 8 -166 62t-97.5 130t-29.5 167q0 70 19 133t57 114.5t102.5 82t146.5 30.5q246 0 294 -251h-66q-40 191 -228 191q-88 0 -148.5 -44.5t-86 -110t-25.5 -145.5t25.5 -145.5t86 -110t148.5 -44.5q188 0 228 191z" />
<glyph unicode="&#x4ab;" horiz-adv-x="548" d="M440 169h63q-31 -161 -185 -177v-132h-63v132q-104 11 -157 84.5t-53 173.5q0 50 14.5 95.5t42.5 83t75.5 59.5t108.5 22q181 0 217 -179h-63q-27 121 -154 121q-88 0 -133 -59t-45 -143t45 -143t133 -59q127 0 154 121z" />
<glyph unicode="&#x4ac;" horiz-adv-x="565" d="M315 640v-580h68v-200h-65v140h-68v640h-229v60h523v-60h-229z" />
<glyph unicode="&#x4ad;" horiz-adv-x="455" d="M439 500v-58h-180v-383h71v-199h-63v140h-71v442h-180v58h423z" />
<glyph unicode="&#x4ae;" horiz-adv-x="601" d="M243 285l-225 415h73l209 -395h1l209 395h73l-225 -415h-25v-285h-65v285h-25z" />
<glyph unicode="&#x4af;" horiz-adv-x="496" d="M485 500l-179 -500h-26v-195h-63v195h-27l-179 500h66l170 -485h2l170 485h66z" />
<glyph unicode="&#x4b0;" horiz-adv-x="601" d="M243 285l-225 415h73l209 -395h1l209 395h73l-225 -415h146v-50h-171v-235h-65v235h-171v50h146z" />
<glyph unicode="&#x4b1;" horiz-adv-x="496" d="M485 500l-179 -500h135v-50h-161v-145h-63v145h-161v50h134l-179 500h66l170 -485h2l170 485h66z" />
<glyph unicode="&#x4b2;" horiz-adv-x="619" d="M551 700l-189 -334l176 -306h91v-200h-65v140h-68l-201 357h-2l-201 -357h-76l210 366l-189 334h74l182 -323h2l182 323h74z" />
<glyph unicode="&#x4b3;" horiz-adv-x="524" d="M180 257l-154 243h75l139 -236h2l139 236h75l-154 -243l127 -199h95v-198h-63v140h-71l-148 250h-2l-148 -250h-76z" />
<glyph unicode="&#x4b4;" horiz-adv-x="862" d="M315 640v-580h370v640h65v-640h68v-200h-65v140h-503v640h-229v60h518v-60h-224z" />
<glyph unicode="&#x4b5;" horiz-adv-x="693" d="M434 500v-58h-175v-384h273v442h63v-442h71v-198h-65v140h-405v442h-180v58h418z" />
<glyph unicode="&#x4b6;" horiz-adv-x="670" d="M493 700h65v-640h68v-200h-65v140h-68v282q-95 -36 -181 -36q-116 0 -177.5 55.5t-61.5 158.5v240h65v-212q0 -93 36.5 -137.5t130.5 -44.5q90 0 188 40v354z" />
<glyph unicode="&#x4b7;" horiz-adv-x="556" d="M395 500h63v-442h71v-198h-63v140h-71v188q-58 -22 -144 -22q-193 0 -193 189v145h63v-144q0 -70 31 -101t98 -31q87 0 145 22v254z" />
<glyph unicode="&#x4b8;" horiz-adv-x="651" d="M493 700h65v-700h-65v283q-82 -32 -162 -37v-125h-52v126q-101 8 -153.5 62.5t-52.5 150.5v240h65v-212q0 -86 31 -130.5t110 -50.5v124h52v-124q78 5 162 39v354z" />
<glyph unicode="&#x4b9;" horiz-adv-x="536" d="M274 64h-50v103q-166 12 -166 188v145h63v-144q0 -63 25 -94.5t78 -36.5v109h50v-110q70 3 121 22v254h63v-500h-63v188q-50 -19 -121 -22v-102z" />
<glyph unicode="&#x4ba;" horiz-adv-x="651" d="M158 0h-65v700h65v-276q93 37 181 37q116 0 177.5 -55.5t61.5 -158.5v-247h-65v219q0 93 -36.5 137.5t-130.5 44.5q-90 0 -188 -40v-361z" />
<glyph unicode="&#x4bb;" horiz-adv-x="560" d="M487 0h-63v307q0 76 -27 110.5t-92 34.5q-73 0 -118.5 -47t-45.5 -131v-274h-63v700h63v-280q23 43 67 66.5t98 23.5q181 0 181 -202v-308z" />
<glyph unicode="&#x4c0;" horiz-adv-x="251" d="M93 0v700h65v-700h-65z" />
<glyph unicode="&#x4c1;" horiz-adv-x="855" d="M278 914h53q0 -38 26 -62.5t71 -24.5t71 24.5t26 62.5h53q0 -60 -40.5 -97.5t-109.5 -37.5t-109.5 37.5t-40.5 97.5zM460 700v-344l299 344h82l-305 -350l320 -350h-84l-312 342v-342h-65v342l-312 -342h-84l320 350l-305 350h82l299 -344v344h65z" />
<glyph unicode="&#x4c2;" horiz-adv-x="701" d="M201 714h53q0 -38 26 -62.5t71 -24.5t71 24.5t26 62.5h53q0 -60 -40.5 -97.5t-109.5 -37.5t-109.5 37.5t-40.5 97.5zM382 500v-243l215 243h78l-221 -250l236 -250h-81l-227 243v-243h-63v243l-227 -243h-81l236 250l-221 250h78l215 -243v243h63z" />
<glyph unicode="&#x4c5;" horiz-adv-x="721" d="M34 0h-22v60h19q29 0 51.5 12t36 35t21.5 46.5t11.5 57t4.5 54t1 49.5v386h458v-640h83l-79 -200h-65l54 140h-58v640h-328v-326q0 -31 -0.5 -53t-4.5 -57.5t-11 -60.5t-21 -54t-33.5 -47t-49.5 -30t-68 -12z" />
<glyph unicode="&#x4c6;" horiz-adv-x="574" d="M23 0h-18v58h15q29 0 47 15t25 42.5t9 47.5t2 49v288h377v-441h83l-79 -199h-63l54 140h-58v442h-251v-230q0 -31 -1.5 -52.5t-9 -54.5t-22 -53.5t-42.5 -36t-68 -15.5z" />
<glyph unicode="&#x4c7;" horiz-adv-x="706" d="M93 0v700h65v-314h390v314h65v-771q0 -134 -121 -134q-21 0 -41 4v59q19 -3 35 -3q62 0 62 70v401h-390v-326h-65z" />
<glyph unicode="&#x4c8;" horiz-adv-x="565" d="M487 500v-571q0 -134 -121 -134q-16 0 -39 3v56q20 -3 35 -3q62 0 62 70v300h-283v-221h-63v500h63v-221h283v221h63z" />
<glyph unicode="&#x4c9;" horiz-adv-x="719" d="M93 0v700h65v-314h390v314h65v-640h83l-79 -200h-65l54 140h-58v326h-390v-326h-65z" />
<glyph unicode="&#x4ca;" horiz-adv-x="581" d="M482 0h-58v221h-283v-221h-63v500h63v-221h283v221h63v-441h83l-79 -199h-63z" />
<glyph unicode="&#x4cb;" horiz-adv-x="651" d="M493 700h65v-700h-68v-140h-65v200h68v222q-95 -36 -181 -36q-116 0 -177.5 55.5t-61.5 158.5v240h65v-212q0 -93 36.5 -137.5t130.5 -44.5q90 0 188 40v354z" />
<glyph unicode="&#x4cc;" horiz-adv-x="536" d="M395 500h63v-500h-71v-140h-63v199h71v129q-58 -22 -144 -22q-193 0 -193 189v145h63v-144q0 -70 31 -101t98 -31q87 0 145 22v254z" />
<glyph unicode="&#x4cd;" horiz-adv-x="899" d="M668 700h125v-640h83l-79 -200h-65l54 140h-58v680h-2l-224 -680h-118l-224 680h-2v-680h-65v700h125l224 -680h2z" />
<glyph unicode="&#x4ce;" horiz-adv-x="712" d="M498 500h120v-441h83l-79 -199h-63l54 140h-58v485h-2l-149 -485h-112l-149 485h-2v-485h-63v500h120l149 -485h2z" />
<glyph unicode="&#x4cf;" horiz-adv-x="219" d="M78 0v700h63v-700h-63z" />
<glyph unicode="&#x4d0;" horiz-adv-x="656" d="M327 680l-154 -430h310l-154 430h-2zM84 0h-71l257 700h116l257 -700h-71l-68 190h-352zM178 914h53q0 -38 26 -62.5t71 -24.5t71 24.5t26 62.5h53q0 -60 -40.5 -97.5t-109.5 -37.5t-109.5 37.5t-40.5 97.5z" />
<glyph unicode="&#x4d1;" horiz-adv-x="605" d="M464 250q0 84 -44.5 143t-133.5 59t-133.5 -59t-44.5 -143t44.5 -143t133.5 -59t133.5 59t44.5 143zM527 0h-63v83q-63 -93 -185 -93q-117 0 -175.5 76.5t-58.5 183.5t58.5 183.5t175.5 76.5q122 0 185 -93v83h63v-500zM136 714h53q0 -38 26 -62.5t71 -24.5t71 24.5 t26 62.5h53q0 -60 -40.5 -97.5t-109.5 -37.5t-109.5 37.5t-40.5 97.5z" />
<glyph unicode="&#x4d2;" horiz-adv-x="656" d="M327 680l-154 -430h310l-154 430h-2zM84 0h-71l257 700h116l257 -700h-71l-68 190h-352zM198 828q0 17 12 29t29 12t29 -12t12 -29t-12 -29t-29 -12t-29 12t-12 29zM376 828q0 17 12 29t29 12t29 -12t12 -29t-12 -29t-29 -12t-29 12t-12 29z" />
<glyph unicode="&#x4d3;" horiz-adv-x="605" d="M464 250q0 84 -44.5 143t-133.5 59t-133.5 -59t-44.5 -143t44.5 -143t133.5 -59t133.5 59t44.5 143zM527 0h-63v83q-63 -93 -185 -93q-117 0 -175.5 76.5t-58.5 183.5t58.5 183.5t175.5 76.5q122 0 185 -93v83h63v-500zM156 628q0 17 12 29t29 12t29 -12t12 -29t-12 -29 t-29 -12t-29 12t-12 29zM334 628q0 17 12 29t29 12t29 -12t12 -29t-12 -29t-29 -12t-29 12t-12 29z" />
<glyph unicode="&#x4d4;" horiz-adv-x="1010" d="M502 680l-259 -430h261v430h-2zM92 0h-79l430 700h504v-60h-378v-255h354v-60h-354v-265h390v-60h-455v190h-297z" />
<glyph unicode="&#x4d5;" horiz-adv-x="970" d="M464 250q0 84 -44.5 143t-133.5 59t-133.5 -59t-44.5 -143t44.5 -143t133.5 -59t133.5 59t44.5 143zM528 285h332q-9 72 -51 119.5t-115 47.5t-115 -47.5t-51 -119.5zM527 0h-63v83q-63 -93 -185 -93q-117 0 -175.5 76.5t-58.5 183.5t58.5 183.5t175.5 76.5 q122 0 185 -93v83h63v-83q57 93 167 93q58 0 104 -22t73 -59.5t40.5 -83t13.5 -95.5v-23h-398q6 -76 48 -127.5t119 -51.5q118 0 152 94h66q-43 -152 -218 -152q-110 0 -167 93v-83z" />
<glyph unicode="&#x4d6;" horiz-adv-x="599" d="M170 914h53q0 -38 26 -62.5t71 -24.5t71 24.5t26 62.5h53q0 -60 -40.5 -97.5t-109.5 -37.5t-109.5 37.5t-40.5 97.5zM158 325v-265h390v-60h-455v700h443v-60h-378v-255h354v-60h-354z" />
<glyph unicode="&#x4d7;" horiz-adv-x="552" d="M110 285h332q-8 72 -50.5 119.5t-115.5 47.5t-115.5 -47.5t-50.5 -119.5zM428 142h66q-43 -152 -218 -152q-58 0 -104 22t-73 59.5t-40.5 83t-13.5 95.5t13.5 95.5t40.5 83t73 59.5t104 22t104 -22t73 -59.5t40.5 -83t13.5 -95.5v-23h-398q6 -76 48 -127.5t119 -51.5 q118 0 152 94zM126 714h53q0 -38 26 -62.5t71 -24.5t71 24.5t26 62.5h53q0 -60 -40.5 -97.5t-109.5 -37.5t-109.5 37.5t-40.5 97.5z" />
<glyph unicode="&#x4d8;" horiz-adv-x="710" d="M599 286h-491q25 -236 236 -236q112 0 176 66t79 170zM669 350q0 -70 -19 -133t-57 -114.5t-102.5 -82t-146.5 -30.5t-142 28.5t-94 79t-50.5 112.5t-16.5 136h563q1 131 -66 217.5t-194 86.5q-190 0 -229 -191h-65q20 115 91.5 183t202.5 68q82 0 146.5 -30.5t102.5 -82 t57 -114.5t19 -133z" />
<glyph unicode="&#x4d9;" horiz-adv-x="552" d="M442 215h-332q8 -72 50.5 -119.5t115.5 -47.5t115.5 47.5t50.5 119.5zM124 358h-66q43 152 218 152q58 0 104 -22t73 -59.5t40.5 -83t13.5 -95.5t-13.5 -95.5t-40.5 -83t-73 -59.5t-104 -22t-104 22t-73 59.5t-40.5 83t-13.5 95.5v23h398q-6 76 -48 127.5t-119 51.5 q-118 0 -152 -94z" />
<glyph unicode="&#x4da;" horiz-adv-x="710" d="M599 286h-491q25 -236 236 -236q112 0 176 66t79 170zM669 350q0 -70 -19 -133t-57 -114.5t-102.5 -82t-146.5 -30.5t-142 28.5t-94 79t-50.5 112.5t-16.5 136h563q1 131 -66 217.5t-194 86.5q-190 0 -229 -191h-65q20 115 91.5 183t202.5 68q82 0 146.5 -30.5t102.5 -82 t57 -114.5t19 -133zM214 828q0 17 12 29t29 12t29 -12t12 -29t-12 -29t-29 -12t-29 12t-12 29zM392 828q0 17 12 29t29 12t29 -12t12 -29t-12 -29t-29 -12t-29 12t-12 29z" />
<glyph unicode="&#x4db;" horiz-adv-x="552" d="M442 215h-332q8 -72 50.5 -119.5t115.5 -47.5t115.5 47.5t50.5 119.5zM124 358h-66q43 152 218 152q58 0 104 -22t73 -59.5t40.5 -83t13.5 -95.5t-13.5 -95.5t-40.5 -83t-73 -59.5t-104 -22t-104 22t-73 59.5t-40.5 83t-13.5 95.5v23h398q-6 76 -48 127.5t-119 51.5 q-118 0 -152 -94zM146 628q0 17 12 29t29 12t29 -12t12 -29t-12 -29t-29 -12t-29 12t-12 29zM324 628q0 17 12 29t29 12t29 -12t12 -29t-12 -29t-29 -12t-29 12t-12 29z" />
<glyph unicode="&#x4dc;" horiz-adv-x="855" d="M298 828q0 17 12 29t29 12t29 -12t12 -29t-12 -29t-29 -12t-29 12t-12 29zM476 828q0 17 12 29t29 12t29 -12t12 -29t-12 -29t-29 -12t-29 12t-12 29zM460 700v-344l299 344h82l-305 -350l320 -350h-84l-312 342v-342h-65v342l-312 -342h-84l320 350l-305 350h82 l299 -344v344h65z" />
<glyph unicode="&#x4dd;" horiz-adv-x="701" d="M221 628q0 17 12 29t29 12t29 -12t12 -29t-12 -29t-29 -12t-29 12t-12 29zM399 628q0 17 12 29t29 12t29 -12t12 -29t-12 -29t-29 -12t-29 12t-12 29zM382 500v-243l215 243h78l-221 -250l236 -250h-81l-227 243v-243h-63v243l-227 -243h-81l236 250l-221 250h78 l215 -243v243h63z" />
<glyph unicode="&#x4de;" horiz-adv-x="614" d="M174 828q0 17 12 29t29 12t29 -12t12 -29t-12 -29t-29 -12t-29 12t-12 29zM352 828q0 17 12 29t29 12t29 -12t12 -29t-12 -29t-29 -12t-29 12t-12 29zM307 319h-75v60h72q76 0 125 31t49 100q0 70 -50 105t-124 35q-72 0 -120 -36t-55 -110h-65q7 102 74.5 154t165.5 52 q99 0 169 -51.5t70 -148.5q0 -109 -97 -157q122 -47 122 -164q0 -65 -39 -111.5t-96.5 -67t-125.5 -20.5q-105 0 -179.5 52.5t-81.5 152.5h65q7 -72 62.5 -108.5t133.5 -36.5q81 0 138.5 35t57.5 104q0 67 -56.5 98.5t-139.5 31.5z" />
<glyph unicode="&#x4df;" horiz-adv-x="466" d="M102 628q0 17 12 29t29 12t29 -12t12 -29t-12 -29t-29 -12t-29 12t-12 29zM280 628q0 17 12 29t29 12t29 -12t12 -29t-12 -29t-29 -12t-29 12t-12 29zM231 224h-46v58h46q49 0 81 20.5t32 63.5q0 44 -32.5 65t-80.5 21q-47 0 -78.5 -24t-35.5 -69h-63q5 74 55 112.5 t123 38.5t124 -37.5t51 -107.5q0 -75 -60 -110q77 -35 77 -116q0 -71 -56.5 -110t-134.5 -39t-132 39t-59 112h63q5 -44 40 -68.5t86 -24.5q54 0 92 22.5t38 66.5q0 43 -38 65t-92 22z" />
<glyph unicode="&#x4e2;" horiz-adv-x="741" d="M509 788h-276v51h276v-51zM522 700h126v-700h-65v680h-2l-362 -680h-126v700h65v-680h2z" />
<glyph unicode="&#x4e3;" horiz-adv-x="568" d="M422 588h-276v51h276v-51zM367 500h123v-500h-63v485h-2l-224 -485h-123v500h63v-485h2z" />
<glyph unicode="&#x4e4;" horiz-adv-x="741" d="M241 828q0 17 12 29t29 12t29 -12t12 -29t-12 -29t-29 -12t-29 12t-12 29zM419 828q0 17 12 29t29 12t29 -12t12 -29t-12 -29t-29 -12t-29 12t-12 29zM522 700h126v-700h-65v680h-2l-362 -680h-126v700h65v-680h2z" />
<glyph unicode="&#x4e5;" horiz-adv-x="568" d="M154 628q0 17 12 29t29 12t29 -12t12 -29t-12 -29t-29 -12t-29 12t-12 29zM332 628q0 17 12 29t29 12t29 -12t12 -29t-12 -29t-29 -12t-29 12t-12 29zM367 500h123v-500h-63v485h-2l-224 -485h-123v500h63v-485h2z" />
<glyph unicode="&#x4e6;" horiz-adv-x="732" d="M236 828q0 17 12 29t29 12t29 -12t12 -29t-12 -29t-29 -12t-29 12t-12 29zM414 828q0 17 12 29t29 12t29 -12t12 -29t-12 -29t-29 -12t-29 12t-12 29zM41 350q0 70 19 133t57 114.5t102.5 82t146.5 30.5t146.5 -30.5t102.5 -82t57 -114.5t19 -133t-19 -133t-57 -114.5 t-102.5 -82t-146.5 -30.5t-146.5 30.5t-102.5 82t-57 114.5t-19 133zM626 350q0 80 -25.5 145.5t-86 110t-148.5 44.5t-148.5 -44.5t-86 -110t-25.5 -145.5t25.5 -145.5t86 -110t148.5 -44.5t148.5 44.5t86 110t25.5 145.5z" />
<glyph unicode="&#x4e7;" horiz-adv-x="572" d="M156 628q0 17 12 29t29 12t29 -12t12 -29t-12 -29t-29 -12t-29 12t-12 29zM334 628q0 17 12 29t29 12t29 -12t12 -29t-12 -29t-29 -12t-29 12t-12 29zM45 250q0 50 14.5 95.5t42.5 83t75.5 59.5t108.5 22t108.5 -22t75.5 -59.5t42.5 -83t14.5 -95.5t-14.5 -95.5 t-42.5 -83t-75.5 -59.5t-108.5 -22t-108.5 22t-75.5 59.5t-42.5 83t-14.5 95.5zM464 250q0 84 -45 143t-133 59t-133 -59t-45 -143t45 -143t133 -59t133 59t45 143z" />
<glyph unicode="&#x4e8;" horiz-adv-x="732" d="M625 320h-518q8 -115 73 -192.5t186 -77.5t186 77.5t73 192.5zM107 380h518q-8 115 -73 192.5t-186 77.5t-186 -77.5t-73 -192.5zM41 350q0 70 19 133t57 114.5t102.5 82t146.5 30.5t146.5 -30.5t102.5 -82t57 -114.5t19 -133t-19 -133t-57 -114.5t-102.5 -82 t-146.5 -30.5t-146.5 30.5t-102.5 82t-57 114.5t-19 133z" />
<glyph unicode="&#x4e9;" horiz-adv-x="572" d="M463 225h-354q7 -76 51 -126.5t126 -50.5t126 50.5t51 126.5zM109 275h354q-7 76 -51 126.5t-126 50.5t-126 -50.5t-51 -126.5zM45 250q0 50 14.5 95.5t42.5 83t75.5 59.5t108.5 22t108.5 -22t75.5 -59.5t42.5 -83t14.5 -95.5t-14.5 -95.5t-42.5 -83t-75.5 -59.5 t-108.5 -22t-108.5 22t-75.5 59.5t-42.5 83t-14.5 95.5z" />
<glyph unicode="&#x4ea;" horiz-adv-x="732" d="M625 320h-518q8 -115 73 -192.5t186 -77.5t186 77.5t73 192.5zM107 380h518q-8 115 -73 192.5t-186 77.5t-186 -77.5t-73 -192.5zM41 350q0 70 19 133t57 114.5t102.5 82t146.5 30.5t146.5 -30.5t102.5 -82t57 -114.5t19 -133t-19 -133t-57 -114.5t-102.5 -82 t-146.5 -30.5t-146.5 30.5t-102.5 82t-57 114.5t-19 133zM236 828q0 17 12 29t29 12t29 -12t12 -29t-12 -29t-29 -12t-29 12t-12 29zM414 828q0 17 12 29t29 12t29 -12t12 -29t-12 -29t-29 -12t-29 12t-12 29z" />
<glyph unicode="&#x4eb;" horiz-adv-x="572" d="M463 225h-354q7 -76 51 -126.5t126 -50.5t126 50.5t51 126.5zM109 275h354q-7 76 -51 126.5t-126 50.5t-126 -50.5t-51 -126.5zM45 250q0 50 14.5 95.5t42.5 83t75.5 59.5t108.5 22t108.5 -22t75.5 -59.5t42.5 -83t14.5 -95.5t-14.5 -95.5t-42.5 -83t-75.5 -59.5 t-108.5 -22t-108.5 22t-75.5 59.5t-42.5 83t-14.5 95.5zM156 628q0 17 12 29t29 12t29 -12t12 -29t-12 -29t-29 -12t-29 12t-12 29zM334 628q0 17 12 29t29 12t29 -12t12 -29t-12 -29t-29 -12t-29 12t-12 29z" />
<glyph unicode="&#x4ec;" horiz-adv-x="701" d="M205 828q0 17 12 29t29 12t29 -12t12 -29t-12 -29t-29 -12t-29 12t-12 29zM383 828q0 17 12 29t29 12t29 -12t12 -29t-12 -29t-29 -12t-29 12t-12 29zM335 50q121 0 186 77.5t73 192.5h-341v60h341q-8 115 -73 192.5t-186 77.5q-186 0 -229 -191h-65q22 115 93.5 183 t200.5 68q82 0 146.5 -30.5t102.5 -82t57 -114.5t19 -133t-19 -133t-57 -114.5t-102.5 -82t-146.5 -30.5q-129 0 -200.5 68t-93.5 183h65q43 -191 229 -191z" />
<glyph unicode="&#x4ed;" horiz-adv-x="549" d="M133 628q0 17 12 29t29 12t29 -12t12 -29t-12 -29t-29 -12t-29 12t-12 29zM311 628q0 17 12 29t29 12t29 -12t12 -29t-12 -29t-29 -12t-29 12t-12 29zM263 -10q-98 0 -150.5 50t-67.5 132h65q26 -124 153 -124q80 0 124.5 49t51.5 124h-232v58h232q-7 75 -51.5 124 t-124.5 49q-127 0 -153 -124h-65q15 82 67.5 132t150.5 50q61 0 108.5 -22t75.5 -59.5t42.5 -83t14.5 -95.5t-14.5 -95.5t-42.5 -83t-75.5 -59.5t-108.5 -22z" />
<glyph unicode="&#x4ee;" horiz-adv-x="571" d="M426 788h-276v51h276v-51zM247 0h-68l90 206l-246 494h70l209 -419l183 419h68z" />
<glyph unicode="&#x4ef;" horiz-adv-x="510" d="M393 588h-276v51h276v-51zM493 500l-245 -695h-66l69 195h-55l-179 500h66l171 -485h2l171 485h66z" />
<glyph unicode="&#x4f0;" horiz-adv-x="571" d="M158 828q0 17 12 29t29 12t29 -12t12 -29t-12 -29t-29 -12t-29 12t-12 29zM336 828q0 17 12 29t29 12t29 -12t12 -29t-12 -29t-29 -12t-29 12t-12 29zM247 0h-68l90 206l-246 494h70l209 -419l183 419h68z" />
<glyph unicode="&#x4f1;" horiz-adv-x="510" d="M125 628q0 17 12 29t29 12t29 -12t12 -29t-12 -29t-29 -12t-29 12t-12 29zM303 628q0 17 12 29t29 12t29 -12t12 -29t-12 -29t-29 -12t-29 12t-12 29zM493 500l-245 -695h-66l69 195h-55l-179 500h66l171 -485h2l171 485h66z" />
<glyph unicode="&#x4f2;" horiz-adv-x="571" d="M343 915l-107 -138h-47l71 138h83zM494 915l-107 -138h-47l71 138h83zM247 0h-68l90 206l-246 494h70l209 -419l183 419h68z" />
<glyph unicode="&#x4f3;" horiz-adv-x="510" d="M310 715l-107 -138h-47l71 138h83zM461 715l-107 -138h-47l71 138h83zM493 500l-245 -695h-66l69 195h-55l-179 500h66l171 -485h2l171 485h66z" />
<glyph unicode="&#x4f4;" horiz-adv-x="651" d="M186 828q0 17 12 29t29 12t29 -12t12 -29t-12 -29t-29 -12t-29 12t-12 29zM364 828q0 17 12 29t29 12t29 -12t12 -29t-12 -29t-29 -12t-29 12t-12 29zM493 700h65v-700h-65v282q-95 -36 -181 -36q-116 0 -177.5 55.5t-61.5 158.5v240h65v-212q0 -93 36.5 -137.5 t130.5 -44.5q90 0 188 40v354z" />
<glyph unicode="&#x4f5;" horiz-adv-x="536" d="M128 628q0 17 12 29t29 12t29 -12t12 -29t-12 -29t-29 -12t-29 12t-12 29zM306 628q0 17 12 29t29 12t29 -12t12 -29t-12 -29t-29 -12t-29 12t-12 29zM395 500h63v-500h-63v188q-58 -22 -144 -22q-193 0 -193 189v145h63v-144q0 -70 31 -101t98 -31q87 0 145 22v254z" />
<glyph unicode="&#x4f6;" horiz-adv-x="541" d="M161 -140v140h-68v700h440v-60h-375v-580h68v-200h-65z" />
<glyph unicode="&#x4f7;" horiz-adv-x="407" d="M398 500v-58h-257v-384h71v-198h-63v140h-71v500h320z" />
<glyph unicode="&#x4f8;" horiz-adv-x="841" d="M158 60h203q71 0 116.5 46t45.5 116t-45.5 116t-116.5 46h-203v-324zM158 444h202q99 0 163.5 -63t64.5 -159t-64.5 -159t-163.5 -63h-267v700h65v-256zM748 0h-65v700h65v-700zM291 828q0 17 12 29t29 12t29 -12t12 -29t-12 -29t-29 -12t-29 12t-12 29zM469 828 q0 17 12 29t29 12t29 -12t12 -29t-12 -29t-29 -12t-29 12t-12 29z" />
<glyph unicode="&#x4f9;" horiz-adv-x="677" d="M388 156q0 43 -27.5 70.5t-69.5 27.5h-150v-196h150q42 0 69.5 27.5t27.5 70.5zM291 0h-213v500h63v-188h150q69 0 114.5 -44.5t45.5 -111.5t-45.5 -111.5t-114.5 -44.5zM599 500v-500h-63v500h63zM209 628q0 17 12 29t29 12t29 -12t12 -29t-12 -29t-29 -12t-29 12 t-12 29zM387 628q0 17 12 29t29 12t29 -12t12 -29t-12 -29t-29 -12t-29 12t-12 29z" />
<glyph unicode="&#x4fa;" horiz-adv-x="568" d="M120 700h440v-60h-375v-263h190v-54h-190v-394q0 -134 -121 -134q-21 0 -41 4v59q20 -3 35 -3q62 0 62 70v398h-97v54h97v323z" />
<glyph unicode="&#x4fb;" horiz-adv-x="434" d="M425 500v-58h-257v-163h155v-50h-155v-300q0 -134 -121 -134q-17 0 -39 3v56q19 -3 35 -3q62 0 62 70v308h-88v50h88v221h320z" />
<glyph unicode="&#x4fc;" horiz-adv-x="629" d="M551 700l-189 -334l176 -306h91v-131q0 -134 -121 -134q-21 0 -41 4v59q19 -3 35 -3q62 0 62 70v75h-68l-201 357h-2l-201 -357h-76l210 366l-189 334h74l182 -323h2l182 323h74z" />
<glyph unicode="&#x4fd;" horiz-adv-x="524" d="M180 257l-154 243h75l139 -236h2l139 236h75l-154 -243l127 -199h95v-129q0 -134 -121 -134q-17 0 -39 3v56q20 -3 35 -3q62 0 62 70v79h-71l-148 250h-2l-148 -250h-76z" />
<glyph unicode="&#x4fe;" horiz-adv-x="588" d="M377 393h121v-54h-121l195 -339h-76l-201 357h-2l-201 -357h-76l195 339h-121v54h121l-174 307h74l182 -323h2l182 323h74z" />
<glyph unicode="&#x4ff;" horiz-adv-x="482" d="M318 282h116v-50h-116l148 -232h-76l-148 250h-2l-148 -250h-76l148 232h-116v50h116l-138 218h75l139 -236h2l139 236h75z" />
<glyph unicode="&#x510;" horiz-adv-x="614" d="M307 319q-83 0 -139.5 -31.5t-56.5 -98.5q0 -69 57.5 -104t138.5 -35q78 0 133.5 36.5t62.5 108.5h65q-7 -100 -81.5 -152.5t-179.5 -52.5q-68 0 -125.5 20.5t-96.5 67t-39 111.5q0 116 122 164q-97 48 -97 157q0 97 70 148.5t169 51.5q98 0 165.5 -52t74.5 -154h-65 q-7 74 -55 110t-120 36q-74 0 -124 -35t-50 -105q0 -69 49 -100t125 -31h72v-60h-75z" />
<glyph unicode="&#x511;" horiz-adv-x="466" d="M235 224q-54 0 -92 -22t-38 -65q0 -44 38 -66.5t92 -22.5q51 0 86 24.5t40 68.5h63q-5 -73 -59 -112t-132 -39t-134.5 39t-56.5 110q0 81 77 116q-60 37 -60 110q0 70 51 107.5t124 37.5t123 -38.5t55 -112.5h-63q-4 45 -35.5 69t-78.5 24q-48 0 -80.5 -21t-32.5 -65 q0 -43 32 -63.5t81 -20.5h46v-58h-46z" />
<glyph unicode="&#x512;" horiz-adv-x="708" d="M34 0h-22v60h19q29 0 51.5 12t36 35t21.5 46.5t11.5 57t4.5 54t1 49.5v386h458v-771q0 -134 -121 -134q-21 0 -41 4v59q19 -3 35 -3q62 0 62 70v715h-328v-326q0 -31 -0.5 -53t-4.5 -57.5t-11 -60.5t-21 -54t-33.5 -47t-49.5 -30t-68 -12z" />
<glyph unicode="&#x513;" horiz-adv-x="558" d="M23 0h-18v58h15q29 0 47 15t25 42.5t9 47.5t2 49v288h377v-571q0 -134 -121 -134q-17 0 -39 3v56q19 -3 35 -3q62 0 62 70v521h-251v-230q0 -31 -1.5 -52.5t-9 -54.5t-22 -53.5t-42.5 -36t-68 -15.5z" />
<glyph unicode="&#x51c;" horiz-adv-x="978" d="M95 700l170 -680h2l163 680h118l163 -680h2l170 680h68l-180 -700h-118l-163 680h-2l-163 -680h-118l-180 700h68z" />
<glyph unicode="&#x51d;" horiz-adv-x="762" d="M91 500l124 -485h2l106 485h116l106 -485h2l124 485h65l-132 -500h-116l-106 485h-2l-106 -485h-116l-132 500h65z" />
<glyph unicode="&#x524;" horiz-adv-x="725" d="M93 0v700h520v-640h68v-200h-65v140h-68v640h-390v-640h-65z" />
<glyph unicode="&#x525;" horiz-adv-x="585" d="M495 0h-71v442h-283v-442h-63v500h409v-441h71v-199h-63v140z" />
<glyph unicode="&#x526;" horiz-adv-x="670" d="M158 0h-65v700h65v-276q93 37 181 37q116 0 177.5 -55.5t61.5 -158.5v-187h68v-200h-65v140h-68v219q0 93 -36.5 137.5t-130.5 44.5q-90 0 -188 -40v-361z" />
<glyph unicode="&#x527;" horiz-adv-x="580" d="M495 0h-71v307q0 76 -27 110.5t-92 34.5q-73 0 -118.5 -47t-45.5 -131v-274h-63v700h63v-280q23 43 67 66.5t98 23.5q181 0 181 -202v-250h71v-198h-63v140z" />
<glyph unicode="&#x52e;" horiz-adv-x="727" d="M34 0h-22v60h19q29 0 51.5 12t36 35t21.5 46.5t11.5 57t4.5 54t1 49.5v386h458v-640h68v-200h-65v140h-68v640h-328v-326q0 -31 -0.5 -53t-4.5 -57.5t-11 -60.5t-21 -54t-33.5 -47t-49.5 -30t-68 -12z" />
<glyph unicode="&#x52f;" horiz-adv-x="578" d="M23 0h-18v58h15q29 0 47 15t25 42.5t9 47.5t2 49v288h377v-442h71v-198h-63v140h-71v442h-251v-230q0 -31 -1.5 -52.5t-9 -54.5t-22 -53.5t-42.5 -36t-68 -15.5z" />
<glyph unicode="&#xe3f;" horiz-adv-x="676" d="M312 334h-154v-274h154v274zM364 334v-274h21q74 0 123.5 32t49.5 105t-49.5 105t-123.5 32h-21zM158 640v-246h154v246h-154zM368 640h-4v-246h4q66 0 110.5 29t44.5 94t-44.5 94t-110.5 29zM312 0h-219v700h219v100h52v-100h6q44 0 81 -9t69 -28.5t50 -55.5t18 -86 q0 -104 -93 -151q128 -48 128 -178q0 -102 -67 -147t-169 -45h-23v-100h-52v100z" />
<glyph unicode="&#x1e02;" horiz-adv-x="676" d="M385 334h-227v-274h227q74 0 123.5 32t49.5 105t-49.5 105t-123.5 32zM368 640h-210v-246h210q66 0 110.5 29t44.5 94t-44.5 94t-110.5 29zM387 0h-294v700h277q44 0 81 -9t69 -28.5t50 -55.5t18 -86q0 -104 -93 -151q128 -48 128 -178q0 -102 -67 -147t-169 -45z M297 829q0 17 12 29t29 12t29 -12t12 -29t-12 -29t-29 -12t-29 12t-12 29z" />
<glyph unicode="&#x1e03;" horiz-adv-x="605" d="M141 250q0 -84 44.5 -143t133.5 -59t133.5 59t44.5 143t-44.5 143t-133.5 59t-133.5 -59t-44.5 -143zM141 83v-83h-63v700h63v-283q63 93 185 93q117 0 175.5 -76.5t58.5 -183.5t-58.5 -183.5t-175.5 -76.5q-122 0 -185 93zM285 613q0 17 12 29t29 12t29 -12t12 -29 t-12 -29t-29 -12t-29 12t-12 29z" />
<glyph unicode="&#x1e04;" horiz-adv-x="676" d="M385 334h-227v-274h227q74 0 123.5 32t49.5 105t-49.5 105t-123.5 32zM368 640h-210v-246h210q66 0 110.5 29t44.5 94t-44.5 94t-110.5 29zM387 0h-294v700h277q44 0 81 -9t69 -28.5t50 -55.5t18 -86q0 -104 -93 -151q128 -48 128 -178q0 -102 -67 -147t-169 -45z M379 -129q0 -17 -12 -29t-29 -12t-29 12t-12 29t12 29t29 12t29 -12t12 -29z" />
<glyph unicode="&#x1e05;" horiz-adv-x="605" d="M141 250q0 -84 44.5 -143t133.5 -59t133.5 59t44.5 143t-44.5 143t-133.5 59t-133.5 -59t-44.5 -143zM141 83v-83h-63v700h63v-283q63 93 185 93q117 0 175.5 -76.5t58.5 -183.5t-58.5 -183.5t-175.5 -76.5q-122 0 -185 93zM360 -129q0 -17 -12 -29t-29 -12t-29 12 t-12 29t12 29t29 12t29 -12t12 -29z" />
<glyph unicode="&#x1e06;" horiz-adv-x="676" d="M385 334h-227v-274h227q74 0 123.5 32t49.5 105t-49.5 105t-123.5 32zM368 640h-210v-246h210q66 0 110.5 29t44.5 94t-44.5 94t-110.5 29zM387 0h-294v700h277q44 0 81 -9t69 -28.5t50 -55.5t18 -86q0 -104 -93 -151q128 -48 128 -178q0 -102 -67 -147t-169 -45z M476 -99v-51h-276v51h276z" />
<glyph unicode="&#x1e07;" horiz-adv-x="605" d="M141 250q0 -84 44.5 -143t133.5 -59t133.5 59t44.5 143t-44.5 143t-133.5 59t-133.5 -59t-44.5 -143zM141 83v-83h-63v700h63v-283q63 93 185 93q117 0 175.5 -76.5t58.5 -183.5t-58.5 -183.5t-175.5 -76.5q-122 0 -185 93zM181 -139v51h276v-51h-276z" />
<glyph unicode="&#x1e08;" horiz-adv-x="701" d="M504 915l-115 -138h-47l79 138h83zM594 241h66q-21 -111 -88 -178.5t-188 -72.5l-11 -28h20q47 0 74.5 -23t27.5 -63q0 -45 -34.5 -73t-91.5 -28q-32 0 -77 15v48q42 -17 75 -17q35 0 55.5 15.5t20.5 41.5q0 44 -57 44h-49l-13 22l18 47q-76 4 -135.5 36t-94.5 82.5 t-53 111.5t-18 129q0 70 19 133t57 114.5t102.5 82t146.5 30.5q246 0 294 -251h-66q-40 191 -228 191q-88 0 -148.5 -44.5t-86 -110t-25.5 -145.5t25.5 -145.5t86 -110t148.5 -44.5q188 0 228 191z" />
<glyph unicode="&#x1e09;" horiz-adv-x="548" d="M424 715l-115 -138h-47l79 138h83zM440 169h63q-34 -169 -199 -178l-11 -29h20q47 0 74.5 -23t27.5 -63q0 -45 -34.5 -73t-91.5 -28q-32 0 -77 15v48q42 -17 75 -17q35 0 55.5 15.5t20.5 41.5q0 44 -57 44h-49l-13 22l18 47q-73 6 -123.5 45t-72 94t-21.5 120 q0 50 14.5 95.5t42.5 83t75.5 59.5t108.5 22q181 0 217 -179h-63q-27 121 -154 121q-88 0 -133 -59t-45 -143t45 -143t133 -59q127 0 154 121z" />
<glyph unicode="&#x1e0a;" horiz-adv-x="679" d="M158 60h163q85 0 143.5 43t83.5 106.5t25 140.5t-25 140.5t-83.5 106.5t-143.5 43h-163v-580zM93 700h228q81 0 143.5 -29.5t99.5 -80t55.5 -111.5t18.5 -129t-18.5 -129t-55.5 -111.5t-99.5 -80t-143.5 -29.5h-228v700zM280 829q0 17 12 29t29 12t29 -12t12 -29t-12 -29 t-29 -12t-29 12t-12 29z" />
<glyph unicode="&#x1e0b;" horiz-adv-x="605" d="M464 250q0 84 -44.5 143t-133.5 59t-133.5 -59t-44.5 -143t44.5 -143t133.5 -59t133.5 59t44.5 143zM527 0h-63v83q-63 -93 -185 -93q-117 0 -175.5 76.5t-58.5 183.5t58.5 183.5t175.5 76.5q122 0 185 -93v283h63v-700zM320 613q0 -17 -12 -29t-29 -12t-29 12t-12 29 t12 29t29 12t29 -12t12 -29z" />
<glyph unicode="&#x1e0c;" horiz-adv-x="679" d="M158 60h163q85 0 143.5 43t83.5 106.5t25 140.5t-25 140.5t-83.5 106.5t-143.5 43h-163v-580zM93 700h228q81 0 143.5 -29.5t99.5 -80t55.5 -111.5t18.5 -129t-18.5 -129t-55.5 -111.5t-99.5 -80t-143.5 -29.5h-228v700zM362 -129q0 -17 -12 -29t-29 -12t-29 12t-12 29 t12 29t29 12t29 -12t12 -29z" />
<glyph unicode="&#x1e0d;" horiz-adv-x="605" d="M464 250q0 84 -44.5 143t-133.5 59t-133.5 -59t-44.5 -143t44.5 -143t133.5 -59t133.5 59t44.5 143zM527 0h-63v83q-63 -93 -185 -93q-117 0 -175.5 76.5t-58.5 183.5t58.5 183.5t175.5 76.5q122 0 185 -93v283h63v-700zM327 -129q0 -17 -12 -29t-29 -12t-29 12t-12 29 t12 29t29 12t29 -12t12 -29z" />
<glyph unicode="&#x1e0e;" horiz-adv-x="679" d="M158 60h163q85 0 143.5 43t83.5 106.5t25 140.5t-25 140.5t-83.5 106.5t-143.5 43h-163v-580zM93 700h228q81 0 143.5 -29.5t99.5 -80t55.5 -111.5t18.5 -129t-18.5 -129t-55.5 -111.5t-99.5 -80t-143.5 -29.5h-228v700zM183 -139v51h276v-51h-276z" />
<glyph unicode="&#x1e0f;" horiz-adv-x="605" d="M464 250q0 84 -44.5 143t-133.5 59t-133.5 -59t-44.5 -143t44.5 -143t133.5 -59t133.5 59t44.5 143zM527 0h-63v83q-63 -93 -185 -93q-117 0 -175.5 76.5t-58.5 183.5t58.5 183.5t175.5 76.5q122 0 185 -93v283h63v-700zM148 -139v51h276v-51h-276z" />
<glyph unicode="&#x1e10;" horiz-adv-x="679" d="M158 60h163q85 0 143.5 43t83.5 106.5t25 140.5t-25 140.5t-83.5 106.5t-143.5 43h-163v-580zM93 700h228q81 0 143.5 -29.5t99.5 -80t55.5 -111.5t18.5 -129q0 -66 -17.5 -125t-52 -108.5t-92.5 -80.5t-133 -35l-15 -39h20q47 0 74.5 -23t27.5 -63q0 -45 -34.5 -73 t-91.5 -28q-32 0 -77 15v48q42 -17 75 -17q35 0 55.5 15.5t20.5 41.5q0 44 -57 44h-49l-13 22l22 56h-208v700z" />
<glyph unicode="&#x1e11;" horiz-adv-x="605" d="M464 250q0 84 -44.5 143t-133.5 59t-133.5 -59t-44.5 -143t44.5 -143t133.5 -59t133.5 59t44.5 143zM527 0h-63v83q-57 -85 -165 -92l-11 -29h20q47 0 74.5 -23t27.5 -63q0 -45 -34.5 -73t-91.5 -28q-32 0 -77 15v48q42 -17 75 -17q35 0 55.5 15.5t20.5 41.5q0 44 -57 44 h-49l-13 22l18 47q-106 8 -159 82.5t-53 176.5q0 107 58.5 183.5t175.5 76.5q122 0 185 -93v283h63v-700z" />
<glyph unicode="&#x1e12;" horiz-adv-x="679" d="M158 60h163q85 0 143.5 43t83.5 106.5t25 140.5t-25 140.5t-83.5 106.5t-143.5 43h-163v-580zM93 700h228q81 0 143.5 -29.5t99.5 -80t55.5 -111.5t18.5 -129t-18.5 -129t-55.5 -111.5t-99.5 -80t-143.5 -29.5h-228v700zM281 -77h80l107 -137h-63l-84 107l-84 -107h-63z " />
<glyph unicode="&#x1e13;" horiz-adv-x="605" d="M464 250q0 84 -44.5 143t-133.5 59t-133.5 -59t-44.5 -143t44.5 -143t133.5 -59t133.5 59t44.5 143zM527 0h-63v83q-63 -93 -185 -93q-117 0 -175.5 76.5t-58.5 183.5t58.5 183.5t175.5 76.5q122 0 185 -93v283h63v-700zM246 -77h80l107 -137h-63l-84 107l-84 -107h-63z " />
<glyph unicode="&#x1e18;" horiz-adv-x="599" d="M158 325v-265h390v-60h-455v700h443v-60h-378v-255h354v-60h-354zM360 -77l107 -137h-63l-84 107l-84 -107h-63l107 137h80z" />
<glyph unicode="&#x1e19;" horiz-adv-x="552" d="M110 285h332q-8 72 -50.5 119.5t-115.5 47.5t-115.5 -47.5t-50.5 -119.5zM428 142h66q-43 -152 -218 -152q-58 0 -104 22t-73 59.5t-40.5 83t-13.5 95.5t13.5 95.5t40.5 83t73 59.5t104 22t104 -22t73 -59.5t40.5 -83t13.5 -95.5v-23h-398q6 -76 48 -127.5t119 -51.5 q118 0 152 94zM236 -77h80l107 -137h-63l-84 107l-84 -107h-63z" />
<glyph unicode="&#x1e1a;" horiz-adv-x="599" d="M158 325v-265h390v-60h-455v700h443v-60h-378v-255h354v-60h-354zM221 -181h-45q2 36 24 62t61 26q17 0 59 -10t63 -10q31 0 36 34h45q-2 -36 -24 -62t-61 -26q-17 0 -59 10t-63 10q-31 0 -36 -34z" />
<glyph unicode="&#x1e1b;" horiz-adv-x="552" d="M110 285h332q-8 72 -50.5 119.5t-115.5 47.5t-115.5 -47.5t-50.5 -119.5zM428 142h66q-43 -152 -218 -152q-58 0 -104 22t-73 59.5t-40.5 83t-13.5 95.5t13.5 95.5t40.5 83t73 59.5t104 22t104 -22t73 -59.5t40.5 -83t13.5 -95.5v-23h-398q6 -76 48 -127.5t119 -51.5 q118 0 152 94zM177 -181h-45q2 36 24 62t61 26q17 0 59 -10t63 -10q31 0 36 34h45q-2 -36 -24 -62t-61 -26q-17 0 -59.5 10t-62.5 10q-31 0 -36 -34z" />
<glyph unicode="&#x1e1c;" horiz-adv-x="599" d="M170 914h53q0 -38 26 -62.5t71 -24.5t71 24.5t26 62.5h53q0 -60 -40.5 -97.5t-109.5 -37.5t-109.5 37.5t-40.5 97.5zM158 325v-265h390v-60h-206l-15 -38h20q47 0 74.5 -23t27.5 -63q0 -45 -34.5 -73t-91.5 -28q-32 0 -77 15v48q42 -17 75 -17q35 0 55.5 15.5t20.5 41.5 q0 44 -57 44h-49l-13 22l22 56h-207v700h443v-60h-378v-255h354v-60h-354z" />
<glyph unicode="&#x1e1d;" horiz-adv-x="552" d="M110 285h332q-8 72 -50.5 119.5t-115.5 47.5t-115.5 -47.5t-50.5 -119.5zM428 142h66q-41 -143 -200 -152l-11 -28h20q47 0 74.5 -23t27.5 -63q0 -45 -34.5 -73t-91.5 -28q-32 0 -77 15v48q42 -17 75 -17q35 0 55.5 15.5t20.5 41.5q0 44 -57 44h-49l-13 22l18 47 q-102 8 -154.5 82.5t-52.5 176.5q0 50 13.5 95.5t40.5 83t73 59.5t104 22t104 -22t73 -59.5t40.5 -83t13.5 -95.5v-23h-398q6 -76 48 -127.5t119 -51.5q118 0 152 94zM126 714h53q0 -38 26 -62.5t71 -24.5t71 24.5t26 62.5h53q0 -60 -40.5 -97.5t-109.5 -37.5t-109.5 37.5 t-40.5 97.5z" />
<glyph unicode="&#x1e1e;" horiz-adv-x="537" d="M260 829q0 17 12 29t29 12t29 -12t12 -29t-12 -29t-29 -12t-29 12t-12 29zM158 316v-316h-65v700h415v-60h-350v-264h312v-60h-312z" />
<glyph unicode="&#x1e1f;" horiz-adv-x="329" d="M126 839q0 17 12 29t29 12t29 -12t12 -29t-12 -29t-29 -12t-29 12t-12 29zM19 500h93v86q0 134 121 134q42 0 81 -14v-59q-36 16 -77 16q-62 0 -62 -70v-93h139v-52h-139v-448h-63v448h-93v52z" />
<glyph unicode="&#x1e20;" horiz-adv-x="744" d="M504 788h-276v51h276v-51zM41 350q0 70 19 133t57 114.5t102.5 82t146.5 30.5q131 0 202.5 -68t91.5 -183h-65q-39 191 -229 191q-88 0 -148.5 -44.5t-86 -110t-25.5 -145.5t25.5 -145.5t85.5 -110t147 -44.5q213 0 240 237h-238v60h303v-347h-42l-18 121 q-66 -131 -243 -131q-82 0 -146.5 30.5t-102.5 82t-57 114.5t-19 133z" />
<glyph unicode="&#x1e21;" horiz-adv-x="595" d="M464 250q0 84 -44.5 143t-133.5 59t-133.5 -59t-44.5 -143t44.5 -143t133.5 -59t133.5 59t44.5 143zM464 21v62q-63 -93 -185 -93q-117 0 -175.5 76.5t-58.5 183.5t58.5 183.5t175.5 76.5q122 0 185 -93v83h63v-479q0 -60 -20.5 -105t-56 -70.5t-77 -38t-89.5 -12.5 q-72 0 -132.5 29t-88.5 88h79q40 -59 143 -59q76 0 127.5 40.5t51.5 127.5zM424 639v-51h-276v51h276z" />
<glyph unicode="&#x1e22;" horiz-adv-x="706" d="M312 829q0 17 12 29t29 12t29 -12t12 -29t-12 -29t-29 -12t-29 12t-12 29zM93 0v700h65v-314h390v314h65v-700h-65v326h-390v-326h-65z" />
<glyph unicode="&#x1e23;" horiz-adv-x="560" d="M242 829q0 17 12 29t29 12t29 -12t12 -29t-12 -29t-29 -12t-29 12t-12 29zM487 0h-63v307q0 76 -27 110.5t-92 34.5q-73 0 -118.5 -47t-45.5 -131v-274h-63v700h63v-280q23 43 67 66.5t98 23.5q181 0 181 -202v-308z" />
<glyph unicode="&#x1e24;" horiz-adv-x="706" d="M93 0v700h65v-314h390v314h65v-700h-65v326h-390v-326h-65zM394 -129q0 -17 -12 -29t-29 -12t-29 12t-12 29t12 29t29 12t29 -12t12 -29z" />
<glyph unicode="&#x1e25;" horiz-adv-x="560" d="M487 0h-63v307q0 76 -27 110.5t-92 34.5q-73 0 -118.5 -47t-45.5 -131v-274h-63v700h63v-280q23 43 67 66.5t98 23.5q181 0 181 -202v-308zM324 -129q0 -17 -12 -29t-29 -12t-29 12t-12 29t12 29t29 12t29 -12t12 -29z" />
<glyph unicode="&#x1e26;" horiz-adv-x="706" d="M223 828q0 17 12 29t29 12t29 -12t12 -29t-12 -29t-29 -12t-29 12t-12 29zM401 828q0 17 12 29t29 12t29 -12t12 -29t-12 -29t-29 -12t-29 12t-12 29zM93 0v700h65v-314h390v314h65v-700h-65v326h-390v-326h-65z" />
<glyph unicode="&#x1e27;" horiz-adv-x="560" d="M153 828q0 17 12 29t29 12t29 -12t12 -29t-12 -29t-29 -12t-29 12t-12 29zM331 828q0 17 12 29t29 12t29 -12t12 -29t-12 -29t-29 -12t-29 12t-12 29zM487 0h-63v307q0 76 -27 110.5t-92 34.5q-73 0 -118.5 -47t-45.5 -131v-274h-63v700h63v-280q23 43 67 66.5t98 23.5 q181 0 181 -202v-308z" />
<glyph unicode="&#x1e28;" horiz-adv-x="706" d="M93 0v700h65v-314h390v314h65v-700h-65v326h-390v-326h-10l-15 -38h20q47 0 74.5 -23t27.5 -63q0 -45 -34.5 -73t-91.5 -28q-32 0 -77 15v48q42 -17 75 -17q35 0 55.5 15.5t20.5 41.5q0 44 -57 44h-49l-13 22l22 56h-13z" />
<glyph unicode="&#x1e29;" horiz-adv-x="560" d="M487 0h-63v307q0 76 -27 110.5t-92 34.5q-73 0 -118.5 -47t-45.5 -131v-274h-9l-15 -38h20q47 0 74.5 -23t27.5 -63q0 -45 -34.5 -73t-91.5 -28q-32 0 -77 15v48q42 -17 75 -17q35 0 55.5 15.5t20.5 41.5q0 44 -57 44h-49l-13 22l22 56h-12v700h63v-280q23 43 67 66.5 t98 23.5q181 0 181 -202v-308z" />
<glyph unicode="&#x1e2a;" horiz-adv-x="706" d="M93 0v700h65v-314h390v314h65v-700h-65v326h-390v-326h-65zM450 -79h53q0 -60 -40.5 -97.5t-109.5 -37.5t-109.5 37.5t-40.5 97.5h53q0 -38 26 -62.5t71 -24.5t71 24.5t26 62.5z" />
<glyph unicode="&#x1e2b;" horiz-adv-x="560" d="M487 0h-63v307q0 76 -27 110.5t-92 34.5q-73 0 -118.5 -47t-45.5 -131v-274h-63v700h63v-280q23 43 67 66.5t98 23.5q181 0 181 -202v-308zM380 -79h53q0 -60 -40.5 -97.5t-109.5 -37.5t-109.5 37.5t-40.5 97.5h53q0 -38 26 -62.5t71 -24.5t71 24.5t26 62.5z" />
<glyph unicode="&#x1e2c;" horiz-adv-x="251" d="M93 0v700h65v-700h-65zM27 -181h-45q2 36 24 62t61 26q17 0 59.5 -10t62.5 -10q31 0 36 34h45q-2 -36 -24 -62t-61 -26q-17 0 -59 10t-63 10q-31 0 -36 -34z" />
<glyph unicode="&#x1e2d;" horiz-adv-x="219" d="M66 666q0 19 12.5 31t30.5 12t30.5 -12t12.5 -31t-12.5 -31t-30.5 -12t-30.5 12t-12.5 31zM78 0v500h63v-500h-63zM10 -181h-45q2 36 24 62t61 26q18 0 60 -10t62 -10q31 0 36 34h45q-2 -36 -24 -62t-61 -26q-18 0 -60 10t-62 10q-31 0 -36 -34z" />
<glyph unicode="&#x1e30;" horiz-adv-x="602" d="M487 915l-115 -138h-47l79 138h83zM158 700v-344l340 344h91l-346 -350l361 -350h-94l-352 342v-342h-65v700h65z" />
<glyph unicode="&#x1e31;" horiz-adv-x="509" d="M247 915l-115 -138h-47l79 138h83zM141 700v-444l258 244h84l-265 -250l280 -250h-88l-269 242v-242h-63v700h63z" />
<glyph unicode="&#x1e32;" horiz-adv-x="602" d="M158 700v-344l340 344h91l-346 -350l361 -350h-94l-352 342v-342h-65v700h65zM390 -129q0 -17 -12 -29t-29 -12t-29 12t-12 29t12 29t29 12t29 -12t12 -29z" />
<glyph unicode="&#x1e33;" horiz-adv-x="509" d="M141 700v-444l258 244h84l-265 -250l280 -250h-88l-269 242v-242h-63v700h63zM329 -129q0 -17 -12 -29t-29 -12t-29 12t-12 29t12 29t29 12t29 -12t12 -29z" />
<glyph unicode="&#x1e34;" horiz-adv-x="602" d="M158 700v-344l340 344h91l-346 -350l361 -350h-94l-352 342v-342h-65v700h65zM487 -150h-276v51h276v-51z" />
<glyph unicode="&#x1e35;" horiz-adv-x="509" d="M141 700v-444l258 244h84l-265 -250l280 -250h-88l-269 242v-242h-63v700h63zM426 -150h-276v51h276v-51z" />
<glyph unicode="&#x1e36;" horiz-adv-x="541" d="M158 700v-640h375v-60h-440v700h65zM354 -129q0 -17 -12 -29t-29 -12t-29 12t-12 29t12 29t29 12t29 -12t12 -29z" />
<glyph unicode="&#x1e37;" horiz-adv-x="219" d="M78 0v700h63v-700h-63zM150 -129q0 -17 -12 -29t-29 -12t-29 12t-12 29t12 29t29 12t29 -12t12 -29z" />
<glyph unicode="&#x1e38;" horiz-adv-x="541" d="M264 788h-276v51h276v-51zM158 700v-640h375v-60h-440v700h65zM354 -129q0 -17 -12 -29t-29 -12t-29 12t-12 29t12 29t29 12t29 -12t12 -29z" />
<glyph unicode="&#x1e39;" horiz-adv-x="219" d="M247 788h-276v51h276v-51zM78 0v700h63v-700h-63zM150 -129q0 -17 -12 -29t-29 -12t-29 12t-12 29t12 29t29 12t29 -12t12 -29z" />
<glyph unicode="&#x1e3a;" horiz-adv-x="541" d="M158 700v-640h375v-60h-440v700h65zM175 -88h276v-51h-276v51z" />
<glyph unicode="&#x1e3b;" horiz-adv-x="219" d="M78 0v700h63v-700h-63zM-29 -88h276v-51h-276v51z" />
<glyph unicode="&#x1e3c;" horiz-adv-x="541" d="M158 700v-640h375v-60h-440v700h65zM353 -77l107 -137h-63l-84 107l-84 -107h-63l107 137h80z" />
<glyph unicode="&#x1e3d;" horiz-adv-x="219" d="M78 0v700h63v-700h-63zM149 -77l107 -137h-63l-84 107l-84 -107h-63l107 137h80z" />
<glyph unicode="&#x1e3e;" horiz-adv-x="886" d="M581 915l-115 -138h-47l79 138h83zM218 700l224 -680h2l224 680h125v-700h-65v680h-2l-224 -680h-118l-224 680h-2v-680h-65v700h125z" />
<glyph unicode="&#x1e3f;" horiz-adv-x="852" d="M567 715l-115 -138h-47l79 138h83zM460 0h-63v307q0 76 -24.5 110.5t-82.5 34.5q-66 0 -107.5 -47t-41.5 -131v-274h-63v500h63v-80q21 44 61.5 67t90.5 23q119 0 153 -101q23 48 67 74.5t99 26.5q167 0 167 -202v-308h-63v307q0 76 -24.5 110.5t-82.5 34.5 q-66 0 -107.5 -47t-41.5 -131v-274z" />
<glyph unicode="&#x1e40;" horiz-adv-x="886" d="M402 829q0 17 12 29t29 12t29 -12t12 -29t-12 -29t-29 -12t-29 12t-12 29zM218 700l224 -680h2l224 680h125v-700h-65v680h-2l-224 -680h-118l-224 680h-2v-680h-65v700h125z" />
<glyph unicode="&#x1e41;" horiz-adv-x="852" d="M388 629q0 17 12 29t29 12t29 -12t12 -29t-12 -29t-29 -12t-29 12t-12 29zM460 0h-63v307q0 76 -24.5 110.5t-82.5 34.5q-66 0 -107.5 -47t-41.5 -131v-274h-63v500h63v-80q21 44 61.5 67t90.5 23q119 0 153 -101q23 48 67 74.5t99 26.5q167 0 167 -202v-308h-63v307 q0 76 -24.5 110.5t-82.5 34.5q-66 0 -107.5 -47t-41.5 -131v-274z" />
<glyph unicode="&#x1e42;" horiz-adv-x="886" d="M218 700l224 -680h2l224 680h125v-700h-65v680h-2l-224 -680h-118l-224 680h-2v-680h-65v700h125zM484 -129q0 -17 -12 -29t-29 -12t-29 12t-12 29t12 29t29 12t29 -12t12 -29z" />
<glyph unicode="&#x1e43;" horiz-adv-x="852" d="M460 0h-63v307q0 76 -24.5 110.5t-82.5 34.5q-66 0 -107.5 -47t-41.5 -131v-274h-63v500h63v-80q21 44 61.5 67t90.5 23q119 0 153 -101q23 48 67 74.5t99 26.5q167 0 167 -202v-308h-63v307q0 76 -24.5 110.5t-82.5 34.5q-66 0 -107.5 -47t-41.5 -131v-274zM470 -129 q0 -17 -12 -29t-29 -12t-29 12t-12 29t12 29t29 12t29 -12t12 -29z" />
<glyph unicode="&#x1e44;" horiz-adv-x="741" d="M329 829q0 17 12 29t29 12t29 -12t12 -29t-12 -29t-29 -12t-29 12t-12 29zM219 700l362 -680h2v680h65v-700h-126l-362 680h-2v-680h-65v700h126z" />
<glyph unicode="&#x1e45;" horiz-adv-x="560" d="M242 629q0 17 12 29t29 12t29 -12t12 -29t-12 -29t-29 -12t-29 12t-12 29zM487 0h-63v307q0 76 -27 110.5t-92 34.5q-73 0 -118.5 -47t-45.5 -131v-274h-63v500h63v-80q23 43 67 66.5t98 23.5q181 0 181 -202v-308z" />
<glyph unicode="&#x1e46;" horiz-adv-x="741" d="M219 700l362 -680h2v680h65v-700h-126l-362 680h-2v-680h-65v700h126zM411 -129q0 -17 -12 -29t-29 -12t-29 12t-12 29t12 29t29 12t29 -12t12 -29z" />
<glyph unicode="&#x1e47;" horiz-adv-x="560" d="M487 0h-63v307q0 76 -27 110.5t-92 34.5q-73 0 -118.5 -47t-45.5 -131v-274h-63v500h63v-80q23 43 67 66.5t98 23.5q181 0 181 -202v-308zM324 -129q0 -17 -12 -29t-29 -12t-29 12t-12 29t12 29t29 12t29 -12t12 -29z" />
<glyph unicode="&#x1e48;" horiz-adv-x="741" d="M219 700l362 -680h2v680h65v-700h-126l-362 680h-2v-680h-65v700h126zM508 -150h-276v51h276v-51z" />
<glyph unicode="&#x1e49;" horiz-adv-x="560" d="M487 0h-63v307q0 76 -27 110.5t-92 34.5q-73 0 -118.5 -47t-45.5 -131v-274h-63v500h63v-80q23 43 67 66.5t98 23.5q181 0 181 -202v-308zM145 -88h276v-51h-276v51z" />
<glyph unicode="&#x1e4a;" horiz-adv-x="741" d="M219 700l362 -680h2v680h65v-700h-126l-362 680h-2v-680h-65v700h126zM410 -77l107 -137h-63l-84 107l-84 -107h-63l107 137h80z" />
<glyph unicode="&#x1e4b;" horiz-adv-x="560" d="M487 0h-63v307q0 76 -27 110.5t-92 34.5q-73 0 -118.5 -47t-45.5 -131v-274h-63v500h63v-80q23 43 67 66.5t98 23.5q181 0 181 -202v-308zM323 -77l107 -137h-63l-84 107l-84 -107h-63l107 137h80z" />
<glyph unicode="&#x1e54;" horiz-adv-x="625" d="M361 640h-203v-324h203q71 0 116.5 46t45.5 116t-45.5 116t-116.5 46zM360 256h-202v-256h-65v700h267q99 0 163.5 -63t64.5 -159t-64.5 -159t-163.5 -63zM397 915h83l-115 -138h-47z" />
<glyph unicode="&#x1e55;" horiz-adv-x="605" d="M141 250q0 -84 44.5 -143t133.5 -59t133.5 59t44.5 143t-44.5 143t-133.5 59t-133.5 -59t-44.5 -143zM141 83v-278h-63v695h63v-83q63 93 185 93q117 0 175.5 -76.5t58.5 -183.5t-58.5 -183.5t-175.5 -76.5q-122 0 -185 93zM374 715h83l-115 -138h-47z" />
<glyph unicode="&#x1e56;" horiz-adv-x="625" d="M361 640h-203v-324h203q71 0 116.5 46t45.5 116t-45.5 116t-116.5 46zM360 256h-202v-256h-65v700h267q99 0 163.5 -63t64.5 -159t-64.5 -159t-163.5 -63zM301 829q0 17 12 29t29 12t29 -12t12 -29t-12 -29t-29 -12t-29 12t-12 29z" />
<glyph unicode="&#x1e57;" horiz-adv-x="605" d="M141 250q0 -84 44.5 -143t133.5 -59t133.5 59t44.5 143t-44.5 143t-133.5 59t-133.5 -59t-44.5 -143zM141 83v-278h-63v695h63v-83q63 93 185 93q117 0 175.5 -76.5t58.5 -183.5t-58.5 -183.5t-175.5 -76.5q-122 0 -185 93zM278 629q0 17 12 29t29 12t29 -12t12 -29 t-12 -29t-29 -12t-29 12t-12 29z" />
</font>
</defs>
</svg>
